<?xml version="1.0" encoding="UTF-8" standalone="no"?>
<!DOCTYPE svg PUBLIC "-//W3C//DTD SVG 1.1//EN"
 "http://www.w3.org/Graphics/SVG/1.1/DTD/svg11.dtd">
<!-- Generated by graphviz version 2.30.1 (20130221.2233)
 -->
<!-- Title: Ctct\Services\CampaignScheduleService\getSchedules Pages: 1 -->
<svg width="376pt" height="130pt"
 viewBox="0.00 0.00 376.00 130.00" xmlns="http://www.w3.org/2000/svg" xmlns:xlink="http://www.w3.org/1999/xlink">
<g id="graph0" class="graph" transform="scale(1 1) rotate(0) translate(4 126)">
<title>Ctct\Services\CampaignScheduleService\getSchedules</title>
<polygon fill="white" stroke="white" points="-4,5 -4,-126 373,-126 373,5 -4,5"/>
<!-- Node1 -->
<g id="node1" class="node"><title>Node1</title>
<polygon fill="#bfbfbf" stroke="black" points="0.52002,-39 0.52002,-71 165.48,-71 165.48,-39 0.52002,-39"/>
<text text-anchor="start" x="8.52002" y="-57" font-family="Helvetica,sans-Serif" font-size="10.00">Ctct\Services\CampaignSchedule</text>
<text text-anchor="middle" x="83" y="-45" font-family="Helvetica,sans-Serif" font-size="10.00">Service\getSchedules</text>
</g>
<!-- Node2 -->
<g id="node2" class="node"><title>Node2</title>
<g id="a_node2"><a xlink:href="class_ctct_1_1_services_1_1_base_service.html#a5c4ae0795fcc06c137b6e761963c4df6" target="_top" xlink:title="Build a url from the base url and query parameters array. ">
<polygon fill="white" stroke="black" points="218.091,-90 218.091,-122 351.909,-122 351.909,-90 218.091,-90"/>
<text text-anchor="start" x="226.091" y="-108" font-family="Helvetica,sans-Serif" font-size="10.00">Ctct\Services\BaseService</text>
<text text-anchor="middle" x="285" y="-96" font-family="Helvetica,sans-Serif" font-size="10.00">\buildUrl</text>
</a>
</g>
</g>
<!-- Node1&#45;&gt;Node2 -->
<g id="edge1" class="edge"><title>Node1&#45;&gt;Node2</title>
<path fill="none" stroke="midnightblue" d="M147.007,-71.0667C167.369,-76.2591 190.113,-82.0589 211.128,-87.4177"/>
<polygon fill="midnightblue" stroke="midnightblue" points="210.412,-90.8469 220.966,-89.9264 212.141,-84.064 210.412,-90.8469"/>
</g>
<!-- Node3 -->
<g id="node3" class="node"><title>Node3</title>
<g id="a_node3"><a xlink:href="class_ctct_1_1_components_1_1_email_marketing_1_1_schedule.html#ab39b6eeb65b3d502ea1f2b5ad9a89254" target="_top" xlink:title="Factory method to create a Schedule object from an array. ">
<polygon fill="white" stroke="black" points="202.527,-39 202.527,-71 367.473,-71 367.473,-39 202.527,-39"/>
<text text-anchor="start" x="210.527" y="-57" font-family="Helvetica,sans-Serif" font-size="10.00">Ctct\Components\EmailMarketing</text>
<text text-anchor="middle" x="285" y="-45" font-family="Helvetica,sans-Serif" font-size="10.00">\Schedule\create</text>
</a>
</g>
</g>
<!-- Node1&#45;&gt;Node3 -->
<g id="edge2" class="edge"><title>Node1&#45;&gt;Node3</title>
<path fill="none" stroke="midnightblue" d="M165.636,-55C174.331,-55 183.218,-55 192.021,-55"/>
<polygon fill="midnightblue" stroke="midnightblue" points="192.301,-58.5001 202.301,-55 192.301,-51.5001 192.301,-58.5001"/>
</g>
<!-- Node4 -->
<g id="node4" class="node"><title>Node4</title>
<g id="a_node4"><a xlink:href="class_ctct_1_1_util_1_1_config.html#ab224fae1ce1a1993c1ac42c708dc7de9" target="_top" xlink:title="Get a configuration property given a specified location, example usage: Config::get(&#39;auth.token_endpoint&#39;) ">
<polygon fill="white" stroke="black" points="235.318,-0 235.318,-20 334.682,-20 334.682,-0 235.318,-0"/>
<text text-anchor="middle" x="285" y="-6" font-family="Helvetica,sans-Serif" font-size="10.00">Ctct\Util\Config\get</text>
</a>
</g>
</g>
<!-- Node1&#45;&gt;Node4 -->
<g id="edge3" class="edge"><title>Node1&#45;&gt;Node4</title>
<path fill="none" stroke="midnightblue" d="M155.358,-38.9445C179.788,-33.4477 206.709,-27.3905 229.582,-22.244"/>
<polygon fill="midnightblue" stroke="midnightblue" points="230.462,-25.6337 239.45,-20.0239 228.925,-18.8044 230.462,-25.6337"/>
</g>
</g>
</svg>
