<?xml version="1.0" encoding="UTF-8" standalone="no"?>
<!DOCTYPE svg PUBLIC "-//W3C//DTD SVG 1.1//EN"
 "http://www.w3.org/Graphics/SVG/1.1/DTD/svg11.dtd">
<!-- Generated by graphviz version 2.30.1 (20130221.2233)
 -->
<!-- Title: ContactList\createXml Pages: 1 -->
<svg width="288pt" height="67pt"
 viewBox="0.00 0.00 288.00 67.00" xmlns="http://www.w3.org/2000/svg" xmlns:xlink="http://www.w3.org/1999/xlink">
<g id="graph0" class="graph" transform="scale(1 1) rotate(0) translate(4 63)">
<title>ContactList\createXml</title>
<polygon fill="white" stroke="white" points="-4,5 -4,-63 285,-63 285,5 -4,5"/>
<!-- Node1 -->
<g id="node1" class="node"><title>Node1</title>
<polygon fill="#bfbfbf" stroke="black" points="0.0913086,-19 0.0913086,-39 113.909,-39 113.909,-19 0.0913086,-19"/>
<text text-anchor="middle" x="57" y="-25" font-family="Helvetica,sans-Serif" font-size="10.00">ContactList\createXml</text>
</g>
<!-- Node2 -->
<g id="node2" class="node"><title>Node2</title>
<g id="a_node2"><a xlink:href="class_lists_collection.html#ae86ac9787cede610e609395c71d9180c" target="_top" xlink:title="Add a new list to Constant Contact account. ">
<polygon fill="white" stroke="black" points="157.251,-39 157.251,-59 272.749,-59 272.749,-39 157.251,-39"/>
<text text-anchor="middle" x="215" y="-45" font-family="Helvetica,sans-Serif" font-size="10.00">ListsCollection\addList</text>
</a>
</g>
</g>
<!-- Node1&#45;&gt;Node2 -->
<g id="edge1" class="edge"><title>Node1&#45;&gt;Node2</title>
<path fill="none" stroke="midnightblue" d="M124.278,-37.4972C135.247,-38.9034 146.532,-40.3503 157.239,-41.723"/>
<polygon fill="midnightblue" stroke="midnightblue" points="124.684,-34.0206 114.32,-36.2205 123.793,-40.9638 124.684,-34.0206"/>
</g>
<!-- Node3 -->
<g id="node3" class="node"><title>Node3</title>
<g id="a_node3"><a xlink:href="class_lists_collection.html#a3694026dd4e0ecd253a4232a00ef11e8" target="_top" xlink:title="Update a ContactList. ">
<polygon fill="white" stroke="black" points="150.301,-0 150.301,-20 279.699,-20 279.699,-0 150.301,-0"/>
<text text-anchor="middle" x="215" y="-6" font-family="Helvetica,sans-Serif" font-size="10.00">ListsCollection\updateList</text>
</a>
</g>
</g>
<!-- Node1&#45;&gt;Node3 -->
<g id="edge2" class="edge"><title>Node1&#45;&gt;Node3</title>
<path fill="none" stroke="midnightblue" d="M124.253,-20.9307C132.812,-19.8883 141.564,-18.8223 150.085,-17.7846"/>
<polygon fill="midnightblue" stroke="midnightblue" points="123.823,-17.4571 114.32,-22.1406 124.669,-24.4058 123.823,-17.4571"/>
</g>
</g>
</svg>
