<?xml version="1.0" encoding="UTF-8" standalone="no"?>
<!DOCTYPE svg PUBLIC "-//W3C//DTD SVG 1.1//EN"
 "http://www.w3.org/Graphics/SVG/1.1/DTD/svg11.dtd">
<!-- Generated by graphviz version 2.30.1 (20130221.2233)
 -->
<!-- Title: CTCT_Admin_Table\__construct Pages: 1 -->
<svg width="312pt" height="118pt"
 viewBox="0.00 0.00 312.00 118.00" xmlns="http://www.w3.org/2000/svg" xmlns:xlink="http://www.w3.org/1999/xlink">
<g id="graph0" class="graph" transform="scale(1 1) rotate(0) translate(4 114)">
<title>CTCT_Admin_Table\__construct</title>
<polygon fill="white" stroke="white" points="-4,5 -4,-114 309,-114 309,5 -4,5"/>
<!-- Node1 -->
<g id="node1" class="node"><title>Node1</title>
<polygon fill="#bfbfbf" stroke="black" points="-0.187012,-33 -0.187012,-65 114.187,-65 114.187,-33 -0.187012,-33"/>
<text text-anchor="start" x="7.81299" y="-51" font-family="Helvetica,sans-Serif" font-size="10.00">CTCT_Admin_Table\_</text>
<text text-anchor="middle" x="57" y="-39" font-family="Helvetica,sans-Serif" font-size="10.00">_construct</text>
</g>
<!-- Node2 -->
<g id="node2" class="node"><title>Node2</title>
<g id="a_node2"><a xlink:href="class_c_t_c_t___admin___table.html#a32aa63a41a5015015911ab676eba6136" target="_top" xlink:title="Prevent escaping of the table headings. ">
<polygon fill="white" stroke="black" points="167.032,-78 167.032,-110 286.968,-110 286.968,-78 167.032,-78"/>
<text text-anchor="start" x="175.032" y="-96" font-family="Helvetica,sans-Serif" font-size="10.00">CTCT_Admin_Table\do</text>
<text text-anchor="middle" x="227" y="-84" font-family="Helvetica,sans-Serif" font-size="10.00">_not_esc_th</text>
</a>
</g>
</g>
<!-- Node1&#45;&gt;Node2 -->
<g id="edge1" class="edge"><title>Node1&#45;&gt;Node2</title>
<path fill="none" stroke="midnightblue" d="M114.409,-64.1095C128.118,-67.7815 142.929,-71.7489 157.143,-75.5561"/>
<polygon fill="midnightblue" stroke="midnightblue" points="156.301,-78.954 166.866,-78.1606 158.113,-72.1924 156.301,-78.954"/>
</g>
<!-- Node3 -->
<g id="node3" class="node"><title>Node3</title>
<g id="a_node3"><a xlink:href="class_c_t_c_t___admin___table.html#a006fb4b4691fcc40f646cea7bb850a8b" target="_top" xlink:title="Sets the id for the table. ">
<polygon fill="white" stroke="black" points="159.251,-39 159.251,-59 294.749,-59 294.749,-39 159.251,-39"/>
<text text-anchor="middle" x="227" y="-45" font-family="Helvetica,sans-Serif" font-size="10.00">CTCT_Admin_Table\set_id</text>
</a>
</g>
</g>
<!-- Node1&#45;&gt;Node3 -->
<g id="edge2" class="edge"><title>Node1&#45;&gt;Node3</title>
<path fill="none" stroke="midnightblue" d="M114.409,-49C125.468,-49 137.245,-49 148.846,-49"/>
<polygon fill="midnightblue" stroke="midnightblue" points="148.974,-52.5001 158.974,-49 148.974,-45.5001 148.974,-52.5001"/>
</g>
<!-- Node4 -->
<g id="node4" class="node"><title>Node4</title>
<g id="a_node4"><a xlink:href="class_c_t_c_t___admin___table.html#ae4f9bb6e7cc143312863bc593f9e0737" target="_top" xlink:title="Sets the name (after sanitising) ">
<polygon fill="white" stroke="black" points="150.636,-0 150.636,-20 303.364,-20 303.364,-0 150.636,-0"/>
<text text-anchor="middle" x="227" y="-6" font-family="Helvetica,sans-Serif" font-size="10.00">CTCT_Admin_Table\set_name</text>
</a>
</g>
</g>
<!-- Node1&#45;&gt;Node4 -->
<g id="edge3" class="edge"><title>Node1&#45;&gt;Node4</title>
<path fill="none" stroke="midnightblue" d="M114.409,-35.9051C133.317,-31.5158 154.322,-26.6395 172.963,-22.3122"/>
<polygon fill="midnightblue" stroke="midnightblue" points="173.809,-25.709 182.758,-20.0383 172.226,-18.8904 173.809,-25.709"/>
</g>
</g>
</svg>
