<?xml version="1.0" encoding="UTF-8" standalone="no"?>
<!DOCTYPE svg PUBLIC "-//W3C//DTD SVG 1.1//EN"
 "http://www.w3.org/Graphics/SVG/1.1/DTD/svg11.dtd">
<!-- Generated by graphviz version 2.30.1 (20130221.2233)
 -->
<!-- Title: KWSConstantContact\addUpdateContact Pages: 1 -->
<svg width="272pt" height="142pt"
 viewBox="0.00 0.00 272.00 142.00" xmlns="http://www.w3.org/2000/svg" xmlns:xlink="http://www.w3.org/1999/xlink">
<g id="graph0" class="graph" transform="scale(1 1) rotate(0) translate(4 138)">
<title>KWSConstantContact\addUpdateContact</title>
<polygon fill="white" stroke="white" points="-4,5 -4,-138 269,-138 269,5 -4,5"/>
<!-- Node1 -->
<g id="node1" class="node"><title>Node1</title>
<polygon fill="#bfbfbf" stroke="black" points="0.367188,-51 0.367188,-83 113.633,-83 113.633,-51 0.367188,-51"/>
<text text-anchor="start" x="8.36719" y="-69" font-family="Helvetica,sans-Serif" font-size="10.00">KWSConstantContact</text>
<text text-anchor="middle" x="57" y="-57" font-family="Helvetica,sans-Serif" font-size="10.00">\addUpdateContact</text>
</g>
<!-- Node2 -->
<g id="node2" class="node"><title>Node2</title>
<g id="a_node2"><a xlink:href="class_ctct_1_1_constant_contact.html#a773a68ca201cfb3c03a8b228933d20c1" target="_top" xlink:title="Add a new contact to an account. ">
<polygon fill="white" stroke="black" points="151.478,-102 151.478,-134 262.522,-134 262.522,-102 151.478,-102"/>
<text text-anchor="start" x="159.478" y="-120" font-family="Helvetica,sans-Serif" font-size="10.00">Ctct\ConstantContact</text>
<text text-anchor="middle" x="207" y="-108" font-family="Helvetica,sans-Serif" font-size="10.00">\addContact</text>
</a>
</g>
</g>
<!-- Node1&#45;&gt;Node2 -->
<g id="edge1" class="edge"><title>Node1&#45;&gt;Node2</title>
<path fill="none" stroke="midnightblue" d="M104.828,-83.1367C119.139,-88.0681 135.024,-93.542 149.885,-98.6631"/>
<polygon fill="midnightblue" stroke="midnightblue" points="148.882,-102.019 159.477,-101.968 151.162,-95.4012 148.882,-102.019"/>
</g>
<!-- Node3 -->
<g id="node3" class="node"><title>Node3</title>
<g id="a_node3"><a xlink:href="class_k_w_s_constant_contact.html#a98799590a11a6885e13a6e203bae0fc4" target="_top" xlink:title="Get contacts with a specified email eaddress. ">
<polygon fill="white" stroke="black" points="150.367,-51 150.367,-83 263.633,-83 263.633,-51 150.367,-51"/>
<text text-anchor="start" x="158.367" y="-69" font-family="Helvetica,sans-Serif" font-size="10.00">KWSConstantContact</text>
<text text-anchor="middle" x="207" y="-57" font-family="Helvetica,sans-Serif" font-size="10.00">\getContactByEmail</text>
</a>
</g>
</g>
<!-- Node1&#45;&gt;Node3 -->
<g id="edge2" class="edge"><title>Node1&#45;&gt;Node3</title>
<path fill="none" stroke="midnightblue" d="M113.952,-67C122.425,-67 131.233,-67 139.895,-67"/>
<polygon fill="midnightblue" stroke="midnightblue" points="139.968,-70.5001 149.968,-67 139.968,-63.5001 139.968,-70.5001"/>
</g>
<!-- Node4 -->
<g id="node4" class="node"><title>Node4</title>
<g id="a_node4"><a xlink:href="class_ctct_1_1_constant_contact.html#a6b2642fb5dd23f6672e1324ceceb6de5" target="_top" xlink:title="Update an individual contact. ">
<polygon fill="white" stroke="black" points="151.478,-0 151.478,-32 262.522,-32 262.522,-0 151.478,-0"/>
<text text-anchor="start" x="159.478" y="-18" font-family="Helvetica,sans-Serif" font-size="10.00">Ctct\ConstantContact</text>
<text text-anchor="middle" x="207" y="-6" font-family="Helvetica,sans-Serif" font-size="10.00">\updateContact</text>
</a>
</g>
</g>
<!-- Node1&#45;&gt;Node4 -->
<g id="edge3" class="edge"><title>Node1&#45;&gt;Node4</title>
<path fill="none" stroke="midnightblue" d="M104.828,-50.8633C119.139,-45.9319 135.024,-40.458 149.885,-35.3369"/>
<polygon fill="midnightblue" stroke="midnightblue" points="151.162,-38.5988 159.477,-32.0317 148.882,-31.9807 151.162,-38.5988"/>
</g>
</g>
</svg>
