<?xml version="1.0" encoding="UTF-8" standalone="no"?>
<!DOCTYPE svg PUBLIC "-//W3C//DTD SVG 1.1//EN"
 "http://www.w3.org/Graphics/SVG/1.1/DTD/svg11.dtd">
<!-- Generated by graphviz version 2.30.1 (20130221.2233)
 -->
<!-- Title: KWSContactList\outputHTML Pages: 1 -->
<svg width="484pt" height="157pt"
 viewBox="0.00 0.00 484.00 157.00" xmlns="http://www.w3.org/2000/svg" xmlns:xlink="http://www.w3.org/1999/xlink">
<g id="graph0" class="graph" transform="scale(1 1) rotate(0) translate(4 153)">
<title>KWSContactList\outputHTML</title>
<polygon fill="white" stroke="white" points="-4,5 -4,-153 481,-153 481,5 -4,5"/>
<!-- Node1 -->
<g id="node1" class="node"><title>Node1</title>
<polygon fill="#bfbfbf" stroke="black" points="0.697266,-58 0.697266,-78 147.303,-78 147.303,-58 0.697266,-58"/>
<text text-anchor="middle" x="74" y="-64" font-family="Helvetica,sans-Serif" font-size="10.00">KWSContactList\outputHTML</text>
</g>
<!-- Node2 -->
<g id="node2" class="node"><title>Node2</title>
<g id="a_node2"><a xlink:href="class_c_t_c_t___admin___user___profile.html#a257812f6c2ea2df7247d28e50264316e" target="_top" xlink:title="Hook into show_user_profile action to display our user subscription settings if necessary. ">
<polygon fill="white" stroke="black" points="185.426,-117 185.426,-149 322.574,-149 322.574,-117 185.426,-117"/>
<text text-anchor="start" x="193.426" y="-135" font-family="Helvetica,sans-Serif" font-size="10.00">CTCT_Admin_User_Profile</text>
<text text-anchor="middle" x="254" y="-123" font-family="Helvetica,sans-Serif" font-size="10.00">\display</text>
</a>
</g>
</g>
<!-- Node1&#45;&gt;Node2 -->
<g id="edge1" class="edge"><title>Node1&#45;&gt;Node2</title>
<path fill="none" stroke="midnightblue" d="M111.916,-81.4804C140.116,-91.7783 179.08,-106.007 208.917,-116.902"/>
<polygon fill="midnightblue" stroke="midnightblue" points="113.016,-78.1563 102.422,-78.0138 110.615,-84.7317 113.016,-78.1563"/>
</g>
<!-- Node3 -->
<g id="node3" class="node"><title>Node3</title>
<g id="a_node3"><a xlink:href="class_c_t_c_t___widget___simple.html#ab6851d66b2918d51cb3c16ae8f8da36e" target="_top" xlink:title="CTCT_Widget_Simple\\form">
<polygon fill="white" stroke="black" points="184.875,-78 184.875,-98 323.125,-98 323.125,-78 184.875,-78"/>
<text text-anchor="middle" x="254" y="-84" font-family="Helvetica,sans-Serif" font-size="10.00">CTCT_Widget_Simple\form</text>
</a>
</g>
</g>
<!-- Node1&#45;&gt;Node3 -->
<g id="edge2" class="edge"><title>Node1&#45;&gt;Node3</title>
<path fill="none" stroke="midnightblue" d="M157.584,-77.2791C166.657,-78.2985 175.818,-79.3279 184.69,-80.3247"/>
<polygon fill="midnightblue" stroke="midnightblue" points="157.728,-73.7733 147.399,-76.1348 156.946,-80.7295 157.728,-73.7733"/>
</g>
<!-- Node5 -->
<g id="node5" class="node"><title>Node5</title>
<g id="a_node5"><a xlink:href="class_c_t_c_t___registration.html#a753ff3c5cdd35809e3de5a513f50ae4d" target="_top" xlink:title="Hook into &#39;register_form&#39; action to show our subscription form to users while they are registering th...">
<polygon fill="white" stroke="black" points="191.82,-39 191.82,-59 316.18,-59 316.18,-39 191.82,-39"/>
<text text-anchor="middle" x="254" y="-45" font-family="Helvetica,sans-Serif" font-size="10.00">CTCT_Registration\form</text>
</a>
</g>
</g>
<!-- Node1&#45;&gt;Node5 -->
<g id="edge4" class="edge"><title>Node1&#45;&gt;Node5</title>
<path fill="none" stroke="midnightblue" d="M157.486,-59.1953C169.029,-57.9632 180.719,-56.7154 191.774,-55.5354"/>
<polygon fill="midnightblue" stroke="midnightblue" points="156.971,-55.7303 147.399,-60.272 157.714,-62.6907 156.971,-55.7303"/>
</g>
<!-- Node6 -->
<g id="node6" class="node"><title>Node6</title>
<g id="a_node6"><a xlink:href="class_c_t_c_t___settings.html#a5d48dfd60dd8af82e9dd1f4eb837c3b7" target="_top" xlink:title="Generate the settings page layout and settings fields. ">
<polygon fill="white" stroke="black" points="184.03,-0 184.03,-20 323.97,-20 323.97,-0 184.03,-0"/>
<text text-anchor="middle" x="254" y="-6" font-family="Helvetica,sans-Serif" font-size="10.00">CTCT_Settings\settings_init</text>
</a>
</g>
</g>
<!-- Node1&#45;&gt;Node6 -->
<g id="edge5" class="edge"><title>Node1&#45;&gt;Node6</title>
<path fill="none" stroke="midnightblue" d="M112.147,-54.4984C133.146,-47.005 159.936,-37.6763 184,-30 194.694,-26.5887 206.397,-23.104 217.078,-20.0192"/>
<polygon fill="midnightblue" stroke="midnightblue" points="110.872,-51.2372 102.64,-57.9066 113.234,-57.8266 110.872,-51.2372"/>
</g>
<!-- Node4 -->
<g id="node4" class="node"><title>Node4</title>
<g id="a_node4"><a xlink:href="class_c_t_c_t___widget___simple.html#ae5b10a325a41312983bf9567e992f92c" target="_top" xlink:title="CTCT_Widget_Simple\l\\widget">
<polygon fill="white" stroke="black" points="360.264,-72 360.264,-104 475.736,-104 475.736,-72 360.264,-72"/>
<text text-anchor="start" x="368.264" y="-90" font-family="Helvetica,sans-Serif" font-size="10.00">CTCT_Widget_Simple</text>
<text text-anchor="middle" x="418" y="-78" font-family="Helvetica,sans-Serif" font-size="10.00">\widget</text>
</a>
</g>
</g>
<!-- Node3&#45;&gt;Node4 -->
<g id="edge3" class="edge"><title>Node3&#45;&gt;Node4</title>
<path fill="none" stroke="midnightblue" d="M333.372,-88C342.389,-88 351.45,-88 360.107,-88"/>
<polygon fill="midnightblue" stroke="midnightblue" points="333.233,-84.5001 323.233,-88 333.233,-91.5001 333.233,-84.5001"/>
</g>
</g>
</svg>
