<?xml version="1.0" encoding="UTF-8" standalone="no"?>
<!DOCTYPE svg PUBLIC "-//W3C//DTD SVG 1.1//EN"
 "http://www.w3.org/Graphics/SVG/1.1/DTD/svg11.dtd">
<!-- Generated by graphviz version 2.30.1 (20130221.2233)
 -->
<!-- Title: RegistrationType\createStruct Pages: 1 -->
<svg width="464pt" height="79pt"
 viewBox="0.00 0.00 464.00 79.00" xmlns="http://www.w3.org/2000/svg" xmlns:xlink="http://www.w3.org/1999/xlink">
<g id="graph0" class="graph" transform="scale(1 1) rotate(0) translate(4 75)">
<title>RegistrationType\createStruct</title>
<polygon fill="white" stroke="white" points="-4,5 -4,-75 461,-75 461,5 -4,5"/>
<!-- Node1 -->
<g id="node1" class="node"><title>Node1</title>
<polygon fill="#bfbfbf" stroke="black" points="0.133301,-22 0.133301,-42 147.867,-42 147.867,-22 0.133301,-22"/>
<text text-anchor="middle" x="74" y="-28" font-family="Helvetica,sans-Serif" font-size="10.00">RegistrationType\createStruct</text>
</g>
<!-- Node2 -->
<g id="node2" class="node"><title>Node2</title>
<g id="a_node2"><a xlink:href="class_event.html#a4d2d7fcea94bab1d73fcb32e356159a4" target="_top" xlink:title="Create an associative array of object properties from XML. ">
<polygon fill="white" stroke="black" points="183.87,-22 183.87,-42 282.13,-42 282.13,-22 183.87,-22"/>
<text text-anchor="middle" x="233" y="-28" font-family="Helvetica,sans-Serif" font-size="10.00">Event\createStruct</text>
</a>
</g>
</g>
<!-- Node1&#45;&gt;Node2 -->
<g id="edge1" class="edge"><title>Node1&#45;&gt;Node2</title>
<path fill="none" stroke="midnightblue" d="M157.985,-32C166.835,-32 175.609,-32 183.855,-32"/>
<polygon fill="midnightblue" stroke="midnightblue" points="157.985,-28.5001 147.985,-32 157.984,-35.5001 157.985,-28.5001"/>
</g>
<!-- Node3 -->
<g id="node3" class="node"><title>Node3</title>
<g id="a_node3"><a xlink:href="class_events_collection.html#afb1f27cb72007acfd6f901d743c8acad" target="_top" xlink:title="Get full details for an Event object. ">
<polygon fill="white" stroke="black" points="320.633,-39 320.633,-71 453.367,-71 453.367,-39 320.633,-39"/>
<text text-anchor="start" x="328.633" y="-57" font-family="Helvetica,sans-Serif" font-size="10.00">EventsCollection\getEvent</text>
<text text-anchor="middle" x="387" y="-45" font-family="Helvetica,sans-Serif" font-size="10.00">Details</text>
</a>
</g>
</g>
<!-- Node2&#45;&gt;Node3 -->
<g id="edge2" class="edge"><title>Node2&#45;&gt;Node3</title>
<path fill="none" stroke="midnightblue" d="M292.628,-40.8714C301.748,-42.2514 311.22,-43.6847 320.481,-45.086"/>
<polygon fill="midnightblue" stroke="midnightblue" points="292.923,-37.3762 282.512,-39.3406 291.875,-44.2974 292.923,-37.3762"/>
</g>
<!-- Node4 -->
<g id="node4" class="node"><title>Node4</title>
<g id="a_node4"><a xlink:href="class_events_collection.html#ad0ab949e45693fd1d72baed5d5e5d552" target="_top" xlink:title="Get a page of Events. ">
<polygon fill="white" stroke="black" points="318.133,-0 318.133,-20 455.867,-20 455.867,-0 318.133,-0"/>
<text text-anchor="middle" x="387" y="-6" font-family="Helvetica,sans-Serif" font-size="10.00">EventsCollection\getEvents</text>
</a>
</g>
</g>
<!-- Node2&#45;&gt;Node4 -->
<g id="edge3" class="edge"><title>Node2&#45;&gt;Node4</title>
<path fill="none" stroke="midnightblue" d="M292.512,-23.5312C300.855,-22.3236 309.495,-21.073 318.001,-19.842"/>
<polygon fill="midnightblue" stroke="midnightblue" points="291.907,-20.0821 282.512,-24.9786 292.91,-27.01 291.907,-20.0821"/>
</g>
</g>
</svg>
