<?xml version="1.0" encoding="UTF-8" standalone="no"?>
<!DOCTYPE svg PUBLIC "-//W3C//DTD SVG 1.1//EN"
 "http://www.w3.org/Graphics/SVG/1.1/DTD/svg11.dtd">
<!-- Generated by graphviz version 2.30.1 (20130221.2233)
 -->
<!-- Title: OAuthRequest\to_url Pages: 1 -->
<svg width="592pt" height="85pt"
 viewBox="0.00 0.00 592.00 85.00" xmlns="http://www.w3.org/2000/svg" xmlns:xlink="http://www.w3.org/1999/xlink">
<g id="graph0" class="graph" transform="scale(1 1) rotate(0) translate(4 81)">
<title>OAuthRequest\to_url</title>
<polygon fill="white" stroke="white" points="-4,5 -4,-81 589,-81 589,5 -4,5"/>
<!-- Node1 -->
<g id="node1" class="node"><title>Node1</title>
<polygon fill="#bfbfbf" stroke="black" points="0.305664,-28 0.305664,-48 109.694,-48 109.694,-28 0.305664,-28"/>
<text text-anchor="middle" x="55" y="-34" font-family="Helvetica,sans-Serif" font-size="10.00">OAuthRequest\to_url</text>
</g>
<!-- Node2 -->
<g id="node2" class="node"><title>Node2</title>
<g id="a_node2"><a xlink:href="class_o_auth_request.html#a4a948aed0c29c809d912fab7452f1cc1" target="_top" xlink:title="parses the url and rebuilds it to be scheme://host/path ">
<polygon fill="white" stroke="black" points="146.626,-45 146.626,-77 299.374,-77 299.374,-45 146.626,-45"/>
<text text-anchor="start" x="154.626" y="-63" font-family="Helvetica,sans-Serif" font-size="10.00">OAuthRequest\get_normalized</text>
<text text-anchor="middle" x="223" y="-51" font-family="Helvetica,sans-Serif" font-size="10.00">_http_url</text>
</a>
</g>
</g>
<!-- Node1&#45;&gt;Node2 -->
<g id="edge1" class="edge"><title>Node1&#45;&gt;Node2</title>
<path fill="none" stroke="midnightblue" d="M109.895,-45.4674C118.356,-46.6397 127.278,-47.8759 136.243,-49.1181"/>
<polygon fill="midnightblue" stroke="midnightblue" points="135.976,-52.6143 146.361,-50.5199 136.936,-45.6805 135.976,-52.6143"/>
</g>
<!-- Node3 -->
<g id="node3" class="node"><title>Node3</title>
<g id="a_node3"><a xlink:href="class_o_auth_request.html#a45591cde97f0abdd0f8e985db3bf463c" target="_top" xlink:title="builds the data one would send in a POST request ">
<polygon fill="white" stroke="black" points="154.68,-6 154.68,-26 291.32,-26 291.32,-6 154.68,-6"/>
<text text-anchor="middle" x="223" y="-12" font-family="Helvetica,sans-Serif" font-size="10.00">OAuthRequest\to_postdata</text>
</a>
</g>
</g>
<!-- Node1&#45;&gt;Node3 -->
<g id="edge2" class="edge"><title>Node1&#45;&gt;Node3</title>
<path fill="none" stroke="midnightblue" d="M109.895,-30.8572C120.879,-29.4016 132.64,-27.8429 144.264,-26.3024"/>
<polygon fill="midnightblue" stroke="midnightblue" points="144.966,-29.74 154.42,-24.9564 144.047,-22.8007 144.966,-29.74"/>
</g>
<!-- Node4 -->
<g id="node4" class="node"><title>Node4</title>
<g id="a_node4"><a xlink:href="class_o_auth_util.html#afa225b04225a3b8abe804ee294e0d631" target="_top" xlink:title="OAuthUtil\\build_http\l_query">
<polygon fill="white" stroke="black" points="336.53,-0 336.53,-32 441.47,-32 441.47,-0 336.53,-0"/>
<text text-anchor="start" x="344.53" y="-18" font-family="Helvetica,sans-Serif" font-size="10.00">OAuthUtil\build_http</text>
<text text-anchor="middle" x="389" y="-6" font-family="Helvetica,sans-Serif" font-size="10.00">_query</text>
</a>
</g>
</g>
<!-- Node3&#45;&gt;Node4 -->
<g id="edge3" class="edge"><title>Node3&#45;&gt;Node4</title>
<path fill="none" stroke="midnightblue" d="M291.652,-16C303.069,-16 314.868,-16 326.128,-16"/>
<polygon fill="midnightblue" stroke="midnightblue" points="326.291,-19.5001 336.291,-16 326.29,-12.5001 326.291,-19.5001"/>
</g>
<!-- Node5 -->
<g id="node5" class="node"><title>Node5</title>
<g id="a_node5"><a xlink:href="class_o_auth_util.html#adcb789bfefc729678d5188f05d19b5ba" target="_top" xlink:title="OAuthUtil\\urlencode\l_rfc3986">
<polygon fill="white" stroke="black" points="478.254,-0 478.254,-32 583.746,-32 583.746,-0 478.254,-0"/>
<text text-anchor="start" x="486.254" y="-18" font-family="Helvetica,sans-Serif" font-size="10.00">OAuthUtil\urlencode</text>
<text text-anchor="middle" x="531" y="-6" font-family="Helvetica,sans-Serif" font-size="10.00">_rfc3986</text>
</a>
</g>
</g>
<!-- Node4&#45;&gt;Node5 -->
<g id="edge4" class="edge"><title>Node4&#45;&gt;Node5</title>
<path fill="none" stroke="midnightblue" d="M441.733,-16C450.243,-16 459.14,-16 467.871,-16"/>
<polygon fill="midnightblue" stroke="midnightblue" points="468.012,-19.5001 478.012,-16 468.012,-12.5001 468.012,-19.5001"/>
</g>
</g>
</svg>
