<?xml version="1.0" encoding="UTF-8" standalone="no"?>
<!DOCTYPE svg PUBLIC "-//W3C//DTD SVG 1.1//EN"
 "http://www.w3.org/Graphics/SVG/1.1/DTD/svg11.dtd">
<!-- Generated by graphviz version 2.30.1 (20130221.2233)
 -->
<!-- Title: Folder\createStruct Pages: 1 -->
<svg width="288pt" height="67pt"
 viewBox="0.00 0.00 288.00 67.00" xmlns="http://www.w3.org/2000/svg" xmlns:xlink="http://www.w3.org/1999/xlink">
<g id="graph0" class="graph" transform="scale(1 1) rotate(0) translate(4 63)">
<title>Folder\createStruct</title>
<polygon fill="white" stroke="white" points="-4,5 -4,-63 285,-63 285,5 -4,5"/>
<!-- Node1 -->
<g id="node1" class="node"><title>Node1</title>
<polygon fill="#bfbfbf" stroke="black" points="0.48291,-19 0.48291,-39 101.517,-39 101.517,-19 0.48291,-19"/>
<text text-anchor="middle" x="51" y="-25" font-family="Helvetica,sans-Serif" font-size="10.00">Folder\createStruct</text>
</g>
<!-- Node2 -->
<g id="node2" class="node"><title>Node2</title>
<g id="a_node2"><a xlink:href="class_library_collection.html#affc91465d0f01c4ede19c149424ea7f2" target="_top" xlink:title="Add a new Folder. ">
<polygon fill="white" stroke="black" points="139.857,-39 139.857,-59 278.143,-59 278.143,-39 139.857,-39"/>
<text text-anchor="middle" x="209" y="-45" font-family="Helvetica,sans-Serif" font-size="10.00">LibraryCollection\addFolder</text>
</a>
</g>
</g>
<!-- Node1&#45;&gt;Node2 -->
<g id="edge1" class="edge"><title>Node1&#45;&gt;Node2</title>
<path fill="none" stroke="midnightblue" d="M111.867,-36.6753C120.95,-37.8397 130.38,-39.0487 139.627,-40.2342"/>
<polygon fill="midnightblue" stroke="midnightblue" points="112.152,-33.1833 101.788,-35.3831 111.262,-40.1264 112.152,-33.1833"/>
</g>
<!-- Node3 -->
<g id="node3" class="node"><title>Node3</title>
<g id="a_node3"><a xlink:href="class_library_collection.html#a9a59624475132d58b8d356ff17cc3d71" target="_top" xlink:title="Get a page of Folders. ">
<polygon fill="white" stroke="black" points="138.749,-0 138.749,-20 279.251,-20 279.251,-0 138.749,-0"/>
<text text-anchor="middle" x="209" y="-6" font-family="Helvetica,sans-Serif" font-size="10.00">LibraryCollection\getFolders</text>
</a>
</g>
</g>
<!-- Node1&#45;&gt;Node3 -->
<g id="edge2" class="edge"><title>Node1&#45;&gt;Node3</title>
<path fill="none" stroke="midnightblue" d="M111.848,-21.7109C120.566,-20.649 129.605,-19.5481 138.495,-18.4654"/>
<polygon fill="midnightblue" stroke="midnightblue" points="111.292,-18.2526 101.788,-22.936 112.138,-25.2013 111.292,-18.2526"/>
</g>
</g>
</svg>
