<?xml version="1.0" encoding="UTF-8" standalone="no"?>
<!DOCTYPE svg PUBLIC "-//W3C//DTD SVG 1.1//EN"
 "http://www.w3.org/Graphics/SVG/1.1/DTD/svg11.dtd">
<!-- Generated by graphviz version 2.30.1 (20130221.2233)
 -->
<!-- Title: CTCT_Admin_Page\add_menu Pages: 1 -->
<svg width="358pt" height="67pt"
 viewBox="0.00 0.00 358.00 67.00" xmlns="http://www.w3.org/2000/svg" xmlns:xlink="http://www.w3.org/1999/xlink">
<g id="graph0" class="graph" transform="scale(1 1) rotate(0) translate(4 63)">
<title>CTCT_Admin_Page\add_menu</title>
<polygon fill="white" stroke="white" points="-4,5 -4,-63 355,-63 355,5 -4,5"/>
<!-- Node1 -->
<g id="node1" class="node"><title>Node1</title>
<polygon fill="#bfbfbf" stroke="black" points="0.239258,-19 0.239258,-39 155.761,-39 155.761,-19 0.239258,-19"/>
<text text-anchor="middle" x="78" y="-25" font-family="Helvetica,sans-Serif" font-size="10.00">CTCT_Admin_Page\add_menu</text>
</g>
<!-- Node2 -->
<g id="node2" class="node"><title>Node2</title>
<g id="a_node2"><a xlink:href="class_c_t_c_t___admin___page.html#af75e5afacc1fcfff476e13e5de52eefe" target="_top" xlink:title="CTCT_Admin_Page\\getKey">
<polygon fill="white" stroke="black" points="201.303,-39 201.303,-59 340.697,-59 340.697,-39 201.303,-39"/>
<text text-anchor="middle" x="271" y="-45" font-family="Helvetica,sans-Serif" font-size="10.00">CTCT_Admin_Page\getKey</text>
</a>
</g>
</g>
<!-- Node1&#45;&gt;Node2 -->
<g id="edge1" class="edge"><title>Node1&#45;&gt;Node2</title>
<path fill="none" stroke="midnightblue" d="M155.861,-37.0483C167.407,-38.2572 179.33,-39.5057 190.92,-40.7194"/>
<polygon fill="midnightblue" stroke="midnightblue" points="190.692,-44.2146 201.002,-41.7751 191.421,-37.2526 190.692,-44.2146"/>
</g>
<!-- Node3 -->
<g id="node3" class="node"><title>Node3</title>
<g id="a_node3"><a xlink:href="class_c_t_c_t___admin___page.html#adbfa5f90d2474587ade02994d254de5e" target="_top" xlink:title="CTCT_Admin_Page\\getNavTitle">
<polygon fill="white" stroke="black" points="191.765,-0 191.765,-20 350.235,-20 350.235,-0 191.765,-0"/>
<text text-anchor="middle" x="271" y="-6" font-family="Helvetica,sans-Serif" font-size="10.00">CTCT_Admin_Page\getNavTitle</text>
</a>
</g>
</g>
<!-- Node1&#45;&gt;Node3 -->
<g id="edge2" class="edge"><title>Node1&#45;&gt;Node3</title>
<path fill="none" stroke="midnightblue" d="M155.861,-21.3541C164.355,-20.5092 173.053,-19.6439 181.673,-18.7864"/>
<polygon fill="midnightblue" stroke="midnightblue" points="182.135,-22.2579 191.739,-17.7851 181.442,-15.2923 182.135,-22.2579"/>
</g>
</g>
</svg>
