<?xml version="1.0" encoding="UTF-8" standalone="no"?>
<!DOCTYPE svg PUBLIC "-//W3C//DTD SVG 1.1//EN"
 "http://www.w3.org/Graphics/SVG/1.1/DTD/svg11.dtd">
<!-- Generated by graphviz version 2.30.1 (20130221.2233)
 -->
<!-- Title: OAuthSignatureMethod\build_signature Pages: 1 -->
<svg width="288pt" height="40pt"
 viewBox="0.00 0.00 288.00 40.00" xmlns="http://www.w3.org/2000/svg" xmlns:xlink="http://www.w3.org/1999/xlink">
<g id="graph0" class="graph" transform="scale(1 1) rotate(0) translate(4 36)">
<title>OAuthSignatureMethod\build_signature</title>
<polygon fill="white" stroke="white" points="-4,5 -4,-36 285,-36 285,5 -4,5"/>
<!-- Node1 -->
<g id="node1" class="node"><title>Node1</title>
<polygon fill="#bfbfbf" stroke="black" points="0.744141,-0 0.744141,-32 121.256,-32 121.256,-0 0.744141,-0"/>
<text text-anchor="start" x="8.74414" y="-18" font-family="Helvetica,sans-Serif" font-size="10.00">OAuthSignatureMethod</text>
<text text-anchor="middle" x="61" y="-6" font-family="Helvetica,sans-Serif" font-size="10.00">\build_signature</text>
</g>
<!-- Node2 -->
<g id="node2" class="node"><title>Node2</title>
<g id="a_node2"><a xlink:href="class_o_auth_signature_method.html#a2e34b7047388a3af64a3014b01647550" target="_top" xlink:title="Verifies that a given signature is correct. ">
<polygon fill="white" stroke="black" points="158.744,-0 158.744,-32 279.256,-32 279.256,-0 158.744,-0"/>
<text text-anchor="start" x="166.744" y="-18" font-family="Helvetica,sans-Serif" font-size="10.00">OAuthSignatureMethod</text>
<text text-anchor="middle" x="219" y="-6" font-family="Helvetica,sans-Serif" font-size="10.00">\check_signature</text>
</a>
</g>
</g>
<!-- Node1&#45;&gt;Node2 -->
<g id="edge1" class="edge"><title>Node1&#45;&gt;Node2</title>
<path fill="none" stroke="midnightblue" d="M131.57,-16C140.64,-16 149.864,-16 158.743,-16"/>
<polygon fill="midnightblue" stroke="midnightblue" points="131.422,-12.5001 121.422,-16 131.422,-19.5001 131.422,-12.5001"/>
</g>
</g>
</svg>
