<?xml version="1.0" encoding="UTF-8" standalone="no"?>
<!DOCTYPE svg PUBLIC "-//W3C//DTD SVG 1.1//EN"
 "http://www.w3.org/Graphics/SVG/1.1/DTD/svg11.dtd">
<!-- Generated by graphviz version 2.30.1 (20130221.2233)
 -->
<!-- Title: OAuthUtil\build_http_query Pages: 1 -->
<svg width="256pt" height="40pt"
 viewBox="0.00 0.00 256.00 40.00" xmlns="http://www.w3.org/2000/svg" xmlns:xlink="http://www.w3.org/1999/xlink">
<g id="graph0" class="graph" transform="scale(1 1) rotate(0) translate(4 36)">
<title>OAuthUtil\build_http_query</title>
<polygon fill="white" stroke="white" points="-4,5 -4,-36 253,-36 253,5 -4,5"/>
<!-- Node1 -->
<g id="node1" class="node"><title>Node1</title>
<polygon fill="#bfbfbf" stroke="black" points="0.529785,-0 0.529785,-32 105.47,-32 105.47,-0 0.529785,-0"/>
<text text-anchor="start" x="8.52979" y="-18" font-family="Helvetica,sans-Serif" font-size="10.00">OAuthUtil\build_http</text>
<text text-anchor="middle" x="53" y="-6" font-family="Helvetica,sans-Serif" font-size="10.00">_query</text>
</g>
<!-- Node2 -->
<g id="node2" class="node"><title>Node2</title>
<g id="a_node2"><a xlink:href="class_o_auth_util.html#adcb789bfefc729678d5188f05d19b5ba" target="_top" xlink:title="OAuthUtil\\urlencode\l_rfc3986">
<polygon fill="white" stroke="black" points="142.254,-0 142.254,-32 247.746,-32 247.746,-0 142.254,-0"/>
<text text-anchor="start" x="150.254" y="-18" font-family="Helvetica,sans-Serif" font-size="10.00">OAuthUtil\urlencode</text>
<text text-anchor="middle" x="195" y="-6" font-family="Helvetica,sans-Serif" font-size="10.00">_rfc3986</text>
</a>
</g>
</g>
<!-- Node1&#45;&gt;Node2 -->
<g id="edge1" class="edge"><title>Node1&#45;&gt;Node2</title>
<path fill="none" stroke="midnightblue" d="M105.733,-16C114.243,-16 123.14,-16 131.871,-16"/>
<polygon fill="midnightblue" stroke="midnightblue" points="132.012,-19.5001 142.012,-16 132.012,-12.5001 132.012,-19.5001"/>
</g>
</g>
</svg>
