<?xml version="1.0" encoding="UTF-8" standalone="no"?>
<!DOCTYPE svg PUBLIC "-//W3C//DTD SVG 1.1//EN"
 "http://www.w3.org/Graphics/SVG/1.1/DTD/svg11.dtd">
<!-- Generated by graphviz version 2.30.1 (20130221.2233)
 -->
<!-- Title: WP_CTCT\getInstance Pages: 1 -->
<!--zoomable 208 -->
<svg id="main" version="1.1" xmlns="http://www.w3.org/2000/svg" xmlns:xlink="http://www.w3.org/1999/xlink" xml:space="preserve" onload="init(evt)">
<style type="text/css"><![CDATA[
.edge:hover path { stroke: red; }
.edge:hover polygon { stroke: red; fill: red; }
]]></style>
<script type="text/javascript"><![CDATA[
var edges = document.getElementsByTagName('g');
if (edges && edges.length) {
  for (var i=0;i<edges.length;i++) {
    if (edges[i].id.substr(0,4)=='edge') {
      edges[i].setAttribute('class','edge');
    }
  }
}
]]></script>
        <defs>
                <circle id="rim" cx="0" cy="0" r="7"/>
                <circle id="rim2" cx="0" cy="0" r="3.5"/>
                <g id="zoomPlus">
                        <use xlink:href="#rim" fill="#404040">
                                <set attributeName="fill" to="#808080" begin="zoomplus.mouseover" end="zoomplus.mouseout"/>
                        </use>
                        <path d="M-4,0h8M0,-4v8" fill="none" stroke="white" stroke-width="1.5" pointer-events="none"/>
                </g>
                <g id="zoomMin">
                        <use xlink:href="#rim" fill="#404040">
                                <set attributeName="fill" to="#808080" begin="zoomminus.mouseover" end="zoomminus.mouseout"/>
                        </use>
                        <path d="M-4,0h8" fill="none" stroke="white" stroke-width="1.5" pointer-events="none"/>
                </g>
                <g id="dirArrow">
                        <path fill="none" stroke="white" stroke-width="1.5" d="M0,-3.0v7 M-2.5,-0.5L0,-3.0L2.5,-0.5"/>
                </g>
               <g id="resetDef">
                       <use xlink:href="#rim2" fill="#404040">
                               <set attributeName="fill" to="#808080" begin="reset.mouseover" end="reset.mouseout"/>
                       </use>
               </g>
        </defs>

<script type="text/javascript">
var viewWidth = 652;
var viewHeight = 208;
var sectionId = 'dynsection-1';
</script>
<script xlink:href="svgpan.js"/>
<svg id="graph" class="graph">
<g id="viewport">
<title>WP_CTCT\getInstance</title>
<polygon fill="white" stroke="white" points="-4,5 -4,-204 649,-204 649,5 -4,5"/>
<!-- Node1 -->
<g id="node1" class="node"><title>Node1</title>
<polygon fill="#bfbfbf" stroke="black" points="0.59375,-90 0.59375,-110 119.406,-110 119.406,-90 0.59375,-90"/>
<text text-anchor="middle" x="60" y="-96" font-family="Helvetica,sans-Serif" font-size="10.00">WP_CTCT\getInstance</text>
</g>
<!-- Node2 -->
<g id="node2" class="node"><title>Node2</title>
<g id="a_node2"><a xlink:href="class_c_t_c_t___admin___page.html#af158e902eb69d577d08a4272d187509f" target="_top" xlink:title="CTCT_Admin_Page\\__construct">
<polygon fill="white" stroke="black" points="156.022,-129 156.022,-149 315.978,-149 315.978,-129 156.022,-129"/>
<text text-anchor="middle" x="236" y="-135" font-family="Helvetica,sans-Serif" font-size="10.00">CTCT_Admin_Page\__construct</text>
</a>
</g>
</g>
<!-- Node1&#45;&gt;Node2 -->
<g id="edge1" class="edge"><title>Node1&#45;&gt;Node2</title>
<path fill="none" stroke="midnightblue" d="M115.836,-112.291C139.835,-117.67 167.634,-123.901 190.343,-128.991"/>
<polygon fill="midnightblue" stroke="midnightblue" points="116.333,-108.815 105.809,-110.043 114.802,-115.646 116.333,-108.815"/>
</g>
<!-- Node3 -->
<g id="node3" class="node"><title>Node3</title>
<g id="a_node3"><a xlink:href="class_k_w_s_contact_list.html#a83039abeb7dce624539df46bebd0b3a2" target="_top" xlink:title="Convert an array of List objects into HTML output. ">
<polygon fill="white" stroke="black" points="162.697,-90 162.697,-110 309.303,-110 309.303,-90 162.697,-90"/>
<text text-anchor="middle" x="236" y="-96" font-family="Helvetica,sans-Serif" font-size="10.00">KWSContactList\outputHTML</text>
</a>
</g>
</g>
<!-- Node1&#45;&gt;Node3 -->
<g id="edge2" class="edge"><title>Node1&#45;&gt;Node3</title>
<path fill="none" stroke="midnightblue" d="M129.633,-100C140.433,-100 151.628,-100 162.512,-100"/>
<polygon fill="midnightblue" stroke="midnightblue" points="129.424,-96.5001 119.424,-100 129.423,-103.5 129.424,-96.5001"/>
</g>
<!-- Node9 -->
<g id="node9" class="node"><title>Node9</title>
<g id="a_node9"><a xlink:href="class_c_t_c_t___registration.html#a7b08750aaabbf7a8b110da33b9e2c261" target="_top" xlink:title="Hook into &#39;register_post&#39; action to manage subscription of new users during user registration. ">
<polygon fill="white" stroke="black" points="166.313,-20 166.313,-52 305.687,-52 305.687,-20 166.313,-20"/>
<text text-anchor="start" x="174.313" y="-38" font-family="Helvetica,sans-Serif" font-size="10.00">CTCT_Registration\process</text>
<text text-anchor="middle" x="236" y="-26" font-family="Helvetica,sans-Serif" font-size="10.00">_submission</text>
</a>
</g>
</g>
<!-- Node1&#45;&gt;Node9 -->
<g id="edge8" class="edge"><title>Node1&#45;&gt;Node9</title>
<path fill="none" stroke="midnightblue" d="M98.141,-86.3389C125.422,-76.3046 162.576,-62.6386 191.289,-52.0776"/>
<polygon fill="midnightblue" stroke="midnightblue" points="96.7479,-83.122 88.5708,-89.859 99.1643,-89.6917 96.7479,-83.122"/>
</g>
<!-- Node4 -->
<g id="node4" class="node"><title>Node4</title>
<g id="a_node4"><a xlink:href="class_c_t_c_t___admin___user___profile.html#a257812f6c2ea2df7247d28e50264316e" target="_top" xlink:title="Hook into show_user_profile action to display our user subscription settings if necessary. ">
<polygon fill="white" stroke="black" points="353.426,-168 353.426,-200 490.574,-200 490.574,-168 353.426,-168"/>
<text text-anchor="start" x="361.426" y="-186" font-family="Helvetica,sans-Serif" font-size="10.00">CTCT_Admin_User_Profile</text>
<text text-anchor="middle" x="422" y="-174" font-family="Helvetica,sans-Serif" font-size="10.00">\display</text>
</a>
</g>
</g>
<!-- Node3&#45;&gt;Node4 -->
<g id="edge3" class="edge"><title>Node3&#45;&gt;Node4</title>
<path fill="none" stroke="midnightblue" d="M305.309,-113.629C309.015,-115.226 312.607,-117.009 316,-119 336.344,-130.939 332.437,-144.82 352,-158 357.521,-161.719 363.646,-165.001 369.901,-167.868"/>
<polygon fill="midnightblue" stroke="midnightblue" points="306.497,-110.337 295.907,-110.033 303.997,-116.875 306.497,-110.337"/>
</g>
<!-- Node5 -->
<g id="node5" class="node"><title>Node5</title>
<g id="a_node5"><a xlink:href="class_c_t_c_t___widget___simple.html#ab6851d66b2918d51cb3c16ae8f8da36e" target="_top" xlink:title="CTCT_Widget_Simple\\form">
<polygon fill="white" stroke="black" points="352.875,-129 352.875,-149 491.125,-149 491.125,-129 352.875,-129"/>
<text text-anchor="middle" x="422" y="-135" font-family="Helvetica,sans-Serif" font-size="10.00">CTCT_Widget_Simple\form</text>
</a>
</g>
</g>
<!-- Node3&#45;&gt;Node5 -->
<g id="edge4" class="edge"><title>Node3&#45;&gt;Node5</title>
<path fill="none" stroke="midnightblue" d="M294.309,-112.147C319.84,-117.558 349.548,-123.855 373.776,-128.991"/>
<polygon fill="midnightblue" stroke="midnightblue" points="294.893,-108.693 284.385,-110.043 293.441,-115.541 294.893,-108.693"/>
</g>
<!-- Node7 -->
<g id="node7" class="node"><title>Node7</title>
<g id="a_node7"><a xlink:href="class_c_t_c_t___registration.html#a753ff3c5cdd35809e3de5a513f50ae4d" target="_top" xlink:title="Hook into &#39;register_form&#39; action to show our subscription form to users while they are registering th...">
<polygon fill="white" stroke="black" points="359.82,-90 359.82,-110 484.18,-110 484.18,-90 359.82,-90"/>
<text text-anchor="middle" x="422" y="-96" font-family="Helvetica,sans-Serif" font-size="10.00">CTCT_Registration\form</text>
</a>
</g>
</g>
<!-- Node3&#45;&gt;Node7 -->
<g id="edge6" class="edge"><title>Node3&#45;&gt;Node7</title>
<path fill="none" stroke="midnightblue" d="M319.66,-100C333.095,-100 346.799,-100 359.609,-100"/>
<polygon fill="midnightblue" stroke="midnightblue" points="319.458,-96.5001 309.458,-100 319.458,-103.5 319.458,-96.5001"/>
</g>
<!-- Node8 -->
<g id="node8" class="node"><title>Node8</title>
<g id="a_node8"><a xlink:href="class_c_t_c_t___settings.html#a5d48dfd60dd8af82e9dd1f4eb837c3b7" target="_top" xlink:title="Generate the settings page layout and settings fields. ">
<polygon fill="white" stroke="black" points="352.03,-51 352.03,-71 491.97,-71 491.97,-51 352.03,-51"/>
<text text-anchor="middle" x="422" y="-57" font-family="Helvetica,sans-Serif" font-size="10.00">CTCT_Settings\settings_init</text>
</a>
</g>
</g>
<!-- Node3&#45;&gt;Node8 -->
<g id="edge7" class="edge"><title>Node3&#45;&gt;Node8</title>
<path fill="none" stroke="midnightblue" d="M294.309,-87.8531C319.84,-82.4415 349.548,-76.1448 373.776,-71.0094"/>
<polygon fill="midnightblue" stroke="midnightblue" points="293.441,-84.459 284.385,-89.9565 294.893,-91.3069 293.441,-84.459"/>
</g>
<!-- Node6 -->
<g id="node6" class="node"><title>Node6</title>
<g id="a_node6"><a xlink:href="class_c_t_c_t___widget___simple.html#ae5b10a325a41312983bf9567e992f92c" target="_top" xlink:title="CTCT_Widget_Simple\l\\widget">
<polygon fill="white" stroke="black" points="528.264,-123 528.264,-155 643.736,-155 643.736,-123 528.264,-123"/>
<text text-anchor="start" x="536.264" y="-141" font-family="Helvetica,sans-Serif" font-size="10.00">CTCT_Widget_Simple</text>
<text text-anchor="middle" x="586" y="-129" font-family="Helvetica,sans-Serif" font-size="10.00">\widget</text>
</a>
</g>
</g>
<!-- Node5&#45;&gt;Node6 -->
<g id="edge5" class="edge"><title>Node5&#45;&gt;Node6</title>
<path fill="none" stroke="midnightblue" d="M501.372,-139C510.389,-139 519.45,-139 528.107,-139"/>
<polygon fill="midnightblue" stroke="midnightblue" points="501.233,-135.5 491.233,-139 501.233,-142.5 501.233,-135.5"/>
</g>
<!-- Node10 -->
<g id="node10" class="node"><title>Node10</title>
<g id="a_node10"><a xlink:href="class_c_t_c_t___registration.html#a79a0093c30c386d01853f41205b46367" target="_top" xlink:title="The multisite registration process for logged&#45;in users seems to lack a &#39;register_post&#39;&#45;like solution...">
<polygon fill="white" stroke="black" points="352.313,-0 352.313,-32 491.687,-32 491.687,-0 352.313,-0"/>
<text text-anchor="start" x="360.313" y="-18" font-family="Helvetica,sans-Serif" font-size="10.00">CTCT_Registration\process</text>
<text text-anchor="middle" x="422" y="-6" font-family="Helvetica,sans-Serif" font-size="10.00">_submission_multisite</text>
</a>
</g>
</g>
<!-- Node9&#45;&gt;Node10 -->
<g id="edge9" class="edge"><title>Node9&#45;&gt;Node10</title>
<path fill="none" stroke="midnightblue" d="M315.869,-27.4273C327.993,-26.1095 340.427,-24.7579 352.307,-23.4666"/>
<polygon fill="midnightblue" stroke="midnightblue" points="315.34,-23.9641 305.776,-28.5243 316.096,-30.9231 315.34,-23.9641"/>
</g>
</g>
</svg>
        <g id="navigator" transform="translate(0 0)" fill="#404254">
                <rect fill="#f2f5e9" fill-opacity="0.5" stroke="#606060" stroke-width=".5" x="0" y="0" width="60" height="60"/>
                <use id="zoomplus" xlink:href="#zoomPlus" x="17" y="9" onmousedown="handleZoom(evt,'in')"/>
                <use id="zoomminus" xlink:href="#zoomMin" x="42" y="9" onmousedown="handleZoom(evt,'out')"/>
                <use id="reset" xlink:href="#resetDef" x="30" y="36" onmousedown="handleReset()"/>
                <g id="arrowUp" xlink:href="#dirArrow" transform="translate(30 24)" onmousedown="handlePan(0,-1)">
                  <use xlink:href="#rim" fill="#404040">
                        <set attributeName="fill" to="#808080" begin="arrowUp.mouseover" end="arrowUp.mouseout"/>
                  </use>
                  <path fill="none" stroke="white" stroke-width="1.5" d="M0,-3.0v7 M-2.5,-0.5L0,-3.0L2.5,-0.5"/>
                </g>
                <g id="arrowRight" xlink:href="#dirArrow" transform="rotate(90) translate(36 -43)" onmousedown="handlePan(1,0)">
                  <use xlink:href="#rim" fill="#404040">
                        <set attributeName="fill" to="#808080" begin="arrowRight.mouseover" end="arrowRight.mouseout"/>
                  </use>
                  <path fill="none" stroke="white" stroke-width="1.5" d="M0,-3.0v7 M-2.5,-0.5L0,-3.0L2.5,-0.5"/>
                </g>
                <g id="arrowDown" xlink:href="#dirArrow" transform="rotate(180) translate(-30 -48)" onmousedown="handlePan(0,1)">
                  <use xlink:href="#rim" fill="#404040">
                        <set attributeName="fill" to="#808080" begin="arrowDown.mouseover" end="arrowDown.mouseout"/>
                  </use>
                  <path fill="none" stroke="white" stroke-width="1.5" d="M0,-3.0v7 M-2.5,-0.5L0,-3.0L2.5,-0.5"/>
                </g>
                <g id="arrowLeft" xlink:href="#dirArrow" transform="rotate(270) translate(-36 17)" onmousedown="handlePan(-1,0)">
                  <use xlink:href="#rim" fill="#404040">
                        <set attributeName="fill" to="#808080" begin="arrowLeft.mouseover" end="arrowLeft.mouseout"/>
                  </use>
                  <path fill="none" stroke="white" stroke-width="1.5" d="M0,-3.0v7 M-2.5,-0.5L0,-3.0L2.5,-0.5"/>
                </g>
        </g>
        <svg viewBox="0 0 15 15" width="100%" height="30px" preserveAspectRatio="xMaxYMin meet">
         <g id="arrow_out" transform="scale(0.3 0.3)">
          <a xlink:href="class_w_p___c_t_c_t_a485eac1e69d12c9e2ecac70bf3295c3f_icgraph_org.svg" target="_base">
           <rect id="button" ry="5" rx="5" y="6" x="6" height="38" width="38"
                fill="#f2f5e9" fill-opacity="0.5" stroke="#606060" stroke-width="1.0"/>
           <path id="arrow"
             d="M 11.500037,31.436501 C 11.940474,20.09759 22.043105,11.32322 32.158766,21.979434 L 37.068811,17.246167 C 37.068811,17.246167 37.088388,32 37.088388,32 L 22.160133,31.978069 C 22.160133,31.978069 26.997745,27.140456 26.997745,27.140456 C 18.528582,18.264221 13.291696,25.230495 11.500037,31.436501 z"
             style="fill:#404040;"/>
          </a>
         </g>
        </svg>
</svg>
