<?xml version="1.0" encoding="UTF-8" standalone="no"?>
<!DOCTYPE svg PUBLIC "-//W3C//DTD SVG 1.1//EN"
 "http://www.w3.org/Graphics/SVG/1.1/DTD/svg11.dtd">
<!-- Generated by graphviz version 2.30.1 (20130221.2233)
 -->
<!-- Title: JsonLoader\getContactJson Pages: 1 -->
<svg width="306pt" height="142pt"
 viewBox="0.00 0.00 306.00 142.00" xmlns="http://www.w3.org/2000/svg" xmlns:xlink="http://www.w3.org/1999/xlink">
<g id="graph0" class="graph" transform="scale(1 1) rotate(0) translate(4 138)">
<title>JsonLoader\getContactJson</title>
<polygon fill="white" stroke="white" points="-4,5 -4,-138 303,-138 303,5 -4,5"/>
<!-- Node1 -->
<g id="node1" class="node"><title>Node1</title>
<polygon fill="#bfbfbf" stroke="black" points="0.736816,-57 0.736816,-77 141.263,-77 141.263,-57 0.736816,-57"/>
<text text-anchor="middle" x="71" y="-63" font-family="Helvetica,sans-Serif" font-size="10.00">JsonLoader\getContactJson</text>
</g>
<!-- Node2 -->
<g id="node2" class="node"><title>Node2</title>
<g id="a_node2"><a xlink:href="class_contact_service_unit_test.html#a9941e0fd47e8c284f23565a98c633890" target="_top" xlink:title="ContactServiceUnitTest\l\\testAddContact">
<polygon fill="white" stroke="black" points="178.035,-102 178.035,-134 297.965,-134 297.965,-102 178.035,-102"/>
<text text-anchor="start" x="186.035" y="-120" font-family="Helvetica,sans-Serif" font-size="10.00">ContactServiceUnitTest</text>
<text text-anchor="middle" x="238" y="-108" font-family="Helvetica,sans-Serif" font-size="10.00">\testAddContact</text>
</a>
</g>
</g>
<!-- Node1&#45;&gt;Node2 -->
<g id="edge1" class="edge"><title>Node1&#45;&gt;Node2</title>
<path fill="none" stroke="midnightblue" d="M114.426,-80.1135C135.941,-86.7635 162.258,-94.8979 184.984,-101.922"/>
<polygon fill="midnightblue" stroke="midnightblue" points="115.186,-76.6852 104.599,-77.076 113.119,-83.373 115.186,-76.6852"/>
</g>
<!-- Node3 -->
<g id="node3" class="node"><title>Node3</title>
<g id="a_node3"><a xlink:href="class_contact_service_unit_test.html#a800c3bf81aef293cd669ed527d243913" target="_top" xlink:title="ContactServiceUnitTest\l\\testGetContact">
<polygon fill="white" stroke="black" points="178.035,-51 178.035,-83 297.965,-83 297.965,-51 178.035,-51"/>
<text text-anchor="start" x="186.035" y="-69" font-family="Helvetica,sans-Serif" font-size="10.00">ContactServiceUnitTest</text>
<text text-anchor="middle" x="238" y="-57" font-family="Helvetica,sans-Serif" font-size="10.00">\testGetContact</text>
</a>
</g>
</g>
<!-- Node1&#45;&gt;Node3 -->
<g id="edge2" class="edge"><title>Node1&#45;&gt;Node3</title>
<path fill="none" stroke="midnightblue" d="M151.531,-67C160.456,-67 169.427,-67 178.026,-67"/>
<polygon fill="midnightblue" stroke="midnightblue" points="151.497,-63.5001 141.497,-67 151.497,-70.5001 151.497,-63.5001"/>
</g>
<!-- Node4 -->
<g id="node4" class="node"><title>Node4</title>
<g id="a_node4"><a xlink:href="class_contact_service_unit_test.html#a52ca0f0645b792fe5860ee25e0b5584d" target="_top" xlink:title="ContactServiceUnitTest\l\\testUpdateContact">
<polygon fill="white" stroke="black" points="178.035,-0 178.035,-32 297.965,-32 297.965,-0 178.035,-0"/>
<text text-anchor="start" x="186.035" y="-18" font-family="Helvetica,sans-Serif" font-size="10.00">ContactServiceUnitTest</text>
<text text-anchor="middle" x="238" y="-6" font-family="Helvetica,sans-Serif" font-size="10.00">\testUpdateContact</text>
</a>
</g>
</g>
<!-- Node1&#45;&gt;Node4 -->
<g id="edge3" class="edge"><title>Node1&#45;&gt;Node4</title>
<path fill="none" stroke="midnightblue" d="M114.426,-53.8865C135.941,-47.2365 162.258,-39.1021 184.984,-32.0777"/>
<polygon fill="midnightblue" stroke="midnightblue" points="113.119,-50.627 104.599,-56.924 115.186,-57.3148 113.119,-50.627"/>
</g>
</g>
</svg>
