<?xml version="1.0" encoding="UTF-8" standalone="no"?>
<!DOCTYPE svg PUBLIC "-//W3C//DTD SVG 1.1//EN"
 "http://www.w3.org/Graphics/SVG/1.1/DTD/svg11.dtd">
<!-- Generated by graphviz version 2.30.1 (20130221.2233)
 -->
<!-- Title: Ctct\Components\Activities\Activity\create Pages: 1 -->
<svg width="368pt" height="295pt"
 viewBox="0.00 0.00 368.00 295.00" xmlns="http://www.w3.org/2000/svg" xmlns:xlink="http://www.w3.org/1999/xlink">
<g id="graph0" class="graph" transform="scale(1 1) rotate(0) translate(4 291)">
<title>Ctct\Components\Activities\Activity\create</title>
<polygon fill="white" stroke="white" points="-4,5 -4,-291 365,-291 365,5 -4,5"/>
<!-- Node1 -->
<g id="node1" class="node"><title>Node1</title>
<polygon fill="#bfbfbf" stroke="black" points="0.256348,-127 0.256348,-159 135.744,-159 135.744,-127 0.256348,-127"/>
<text text-anchor="start" x="8.25635" y="-145" font-family="Helvetica,sans-Serif" font-size="10.00">Ctct\Components\Activities</text>
<text text-anchor="middle" x="68" y="-133" font-family="Helvetica,sans-Serif" font-size="10.00">\Activity\create</text>
</g>
<!-- Node2 -->
<g id="node2" class="node"><title>Node2</title>
<g id="a_node2"><a xlink:href="class_ctct_1_1_services_1_1_activity_service.html#a30d4ffe1d8324873b1940dbcd172ce11" target="_top" xlink:title="Create a Clear Lists Activity. ">
<polygon fill="white" stroke="black" points="194.653,-255 194.653,-287 337.347,-287 337.347,-255 194.653,-255"/>
<text text-anchor="start" x="202.653" y="-273" font-family="Helvetica,sans-Serif" font-size="10.00">Ctct\Services\ActivityService</text>
<text text-anchor="middle" x="266" y="-261" font-family="Helvetica,sans-Serif" font-size="10.00">\addClearListsActivity</text>
</a>
</g>
</g>
<!-- Node1&#45;&gt;Node2 -->
<g id="edge1" class="edge"><title>Node1&#45;&gt;Node2</title>
<path fill="none" stroke="midnightblue" d="M87.4233,-167.379C106.236,-190.616 137.508,-224.949 172,-245 178.957,-249.044 186.575,-252.486 194.361,-255.409"/>
<polygon fill="midnightblue" stroke="midnightblue" points="90.0276,-165.03 81.0731,-159.367 84.5417,-169.378 90.0276,-165.03"/>
</g>
<!-- Node3 -->
<g id="node3" class="node"><title>Node3</title>
<g id="a_node3"><a xlink:href="class_ctct_1_1_services_1_1_activity_service.html#a063acad0b025be72ea770afc58d5cd74" target="_top" xlink:title="Create an Export Contacts Activity. ">
<polygon fill="white" stroke="black" points="194.653,-204 194.653,-236 337.347,-236 337.347,-204 194.653,-204"/>
<text text-anchor="start" x="202.653" y="-222" font-family="Helvetica,sans-Serif" font-size="10.00">Ctct\Services\ActivityService</text>
<text text-anchor="middle" x="266" y="-210" font-family="Helvetica,sans-Serif" font-size="10.00">\addExportContactsActivity</text>
</a>
</g>
</g>
<!-- Node1&#45;&gt;Node3 -->
<g id="edge2" class="edge"><title>Node1&#45;&gt;Node3</title>
<path fill="none" stroke="midnightblue" d="M107.07,-163.983C126.177,-173.959 149.905,-185.527 172,-194 181.392,-197.602 191.49,-200.943 201.448,-203.949"/>
<polygon fill="midnightblue" stroke="midnightblue" points="108.566,-160.814 98.0893,-159.233 105.293,-167.002 108.566,-160.814"/>
</g>
<!-- Node4 -->
<g id="node4" class="node"><title>Node4</title>
<g id="a_node4"><a xlink:href="class_ctct_1_1_services_1_1_activity_service.html#a0e0d8c43b0b569687ff2c1113c96a769" target="_top" xlink:title="Create a Remove Contacts From Lists Activity. ">
<polygon fill="white" stroke="black" points="172.138,-153 172.138,-185 359.862,-185 359.862,-153 172.138,-153"/>
<text text-anchor="start" x="180.138" y="-171" font-family="Helvetica,sans-Serif" font-size="10.00">Ctct\Services\ActivityService</text>
<text text-anchor="middle" x="266" y="-159" font-family="Helvetica,sans-Serif" font-size="10.00">\addRemoveContactsFromListsActivity</text>
</a>
</g>
</g>
<!-- Node1&#45;&gt;Node4 -->
<g id="edge3" class="edge"><title>Node1&#45;&gt;Node4</title>
<path fill="none" stroke="midnightblue" d="M145.867,-153.197C154.457,-154.336 163.275,-155.506 172.039,-156.668"/>
<polygon fill="midnightblue" stroke="midnightblue" points="146.277,-149.72 135.904,-151.875 145.357,-156.66 146.277,-149.72"/>
</g>
<!-- Node5 -->
<g id="node5" class="node"><title>Node5</title>
<g id="a_node5"><a xlink:href="class_ctct_1_1_services_1_1_activity_service.html#a7585bd43669c8f9c4e1b6884e58322f6" target="_top" xlink:title="Create an Add Contacts Activity. ">
<polygon fill="white" stroke="black" points="194.653,-102 194.653,-134 337.347,-134 337.347,-102 194.653,-102"/>
<text text-anchor="start" x="202.653" y="-120" font-family="Helvetica,sans-Serif" font-size="10.00">Ctct\Services\ActivityService</text>
<text text-anchor="middle" x="266" y="-108" font-family="Helvetica,sans-Serif" font-size="10.00">\createAddContactsActivity</text>
</a>
</g>
</g>
<!-- Node1&#45;&gt;Node5 -->
<g id="edge4" class="edge"><title>Node1&#45;&gt;Node5</title>
<path fill="none" stroke="midnightblue" d="M146.214,-133.151C162.099,-131.125 178.747,-129.002 194.384,-127.007"/>
<polygon fill="midnightblue" stroke="midnightblue" points="145.381,-129.729 135.904,-134.466 146.266,-136.673 145.381,-129.729"/>
</g>
<!-- Node6 -->
<g id="node6" class="node"><title>Node6</title>
<g id="a_node6"><a xlink:href="class_ctct_1_1_services_1_1_activity_service.html#afffe78c9da3d893eee3d31e947de0992" target="_top" xlink:title="Get an array of activities. ">
<polygon fill="white" stroke="black" points="194.653,-51 194.653,-83 337.347,-83 337.347,-51 194.653,-51"/>
<text text-anchor="start" x="202.653" y="-69" font-family="Helvetica,sans-Serif" font-size="10.00">Ctct\Services\ActivityService</text>
<text text-anchor="middle" x="266" y="-57" font-family="Helvetica,sans-Serif" font-size="10.00">\getActivities</text>
</a>
</g>
</g>
<!-- Node1&#45;&gt;Node6 -->
<g id="edge5" class="edge"><title>Node1&#45;&gt;Node6</title>
<path fill="none" stroke="midnightblue" d="M107.531,-122.257C126.576,-112.534 150.116,-101.294 172,-93 181.406,-89.4351 191.512,-86.1131 201.472,-83.1158"/>
<polygon fill="midnightblue" stroke="midnightblue" points="105.847,-119.188 98.5701,-126.889 109.061,-125.406 105.847,-119.188"/>
</g>
<!-- Node7 -->
<g id="node7" class="node"><title>Node7</title>
<g id="a_node7"><a xlink:href="class_ctct_1_1_services_1_1_activity_service.html#a29a275be3f87a87150f225f939e07637" target="_top" xlink:title="Get an array of activities. ">
<polygon fill="white" stroke="black" points="194.653,-0 194.653,-32 337.347,-32 337.347,-0 194.653,-0"/>
<text text-anchor="start" x="202.653" y="-18" font-family="Helvetica,sans-Serif" font-size="10.00">Ctct\Services\ActivityService</text>
<text text-anchor="middle" x="266" y="-6" font-family="Helvetica,sans-Serif" font-size="10.00">\getActivity</text>
</a>
</g>
</g>
<!-- Node1&#45;&gt;Node7 -->
<g id="edge6" class="edge"><title>Node1&#45;&gt;Node7</title>
<path fill="none" stroke="midnightblue" d="M87.4746,-118.866C106.326,-95.8619 137.626,-61.869 172,-42 178.967,-37.9729 186.591,-34.5419 194.38,-31.6251"/>
<polygon fill="midnightblue" stroke="midnightblue" points="84.6387,-116.808 81.11,-126.798 90.0984,-121.189 84.6387,-116.808"/>
</g>
</g>
</svg>
