<?xml version="1.0" encoding="UTF-8" standalone="no"?>
<!DOCTYPE svg PUBLIC "-//W3C//DTD SVG 1.1//EN"
 "http://www.w3.org/Graphics/SVG/1.1/DTD/svg11.dtd">
<!-- Generated by graphviz version 2.30.1 (20130221.2233)
 -->
<!-- Title: CCObject Pages: 1 -->
<svg width="665pt" height="88pt"
 viewBox="0.00 0.00 665.00 88.00" xmlns="http://www.w3.org/2000/svg" xmlns:xlink="http://www.w3.org/1999/xlink">
<g id="graph0" class="graph" transform="scale(1 1) rotate(0) translate(4 84)">
<title>CCObject</title>
<polygon fill="white" stroke="white" points="-4,5 -4,-84 662,-84 662,5 -4,5"/>
<!-- Node1 -->
<g id="node1" class="node"><title>Node1</title>
<polygon fill="#bfbfbf" stroke="black" points="283.328,-59 283.328,-79 342.672,-79 342.672,-59 283.328,-59"/>
<text text-anchor="middle" x="313" y="-65" font-family="Helvetica,sans-Serif" font-size="10.00">CCObject</text>
</g>
<!-- Node2 -->
<g id="node2" class="node"><title>Node2</title>
<g id="a_node2"><a xlink:href="class_campaign.html" target="_top" xlink:title="Campaign">
<polygon fill="white" stroke="black" points="-0.790527,-1 -0.790527,-21 60.7905,-21 60.7905,-1 -0.790527,-1"/>
<text text-anchor="middle" x="30" y="-7" font-family="Helvetica,sans-Serif" font-size="10.00">Campaign</text>
</a>
</g>
</g>
<!-- Node1&#45;&gt;Node2 -->
<g id="edge1" class="edge"><title>Node1&#45;&gt;Node2</title>
<path fill="none" stroke="midnightblue" d="M272.916,-61.1456C224.625,-52.7188 141.111,-37.6058 70,-22 67.0635,-21.3556 64.0138,-20.6534 60.9672,-19.9298"/>
<polygon fill="midnightblue" stroke="midnightblue" points="272.507,-64.6269 282.959,-62.8902 273.705,-57.7302 272.507,-64.6269"/>
</g>
<!-- Node3 -->
<g id="node3" class="node"><title>Node3</title>
<g id="a_node3"><a xlink:href="class_contact.html" target="_top" xlink:title="Contact">
<polygon fill="white" stroke="black" points="78.7686,-1 78.7686,-21 129.231,-21 129.231,-1 78.7686,-1"/>
<text text-anchor="middle" x="104" y="-7" font-family="Helvetica,sans-Serif" font-size="10.00">Contact</text>
</a>
</g>
</g>
<!-- Node1&#45;&gt;Node3 -->
<g id="edge2" class="edge"><title>Node1&#45;&gt;Node3</title>
<path fill="none" stroke="midnightblue" d="M273.23,-57.8966C237.702,-48.7876 184.274,-34.8838 138,-22 135.273,-21.2409 132.429,-20.4317 129.597,-19.6149"/>
<polygon fill="midnightblue" stroke="midnightblue" points="272.648,-61.3604 283.203,-60.4483 274.383,-54.5788 272.648,-61.3604"/>
</g>
<!-- Node4 -->
<g id="node4" class="node"><title>Node4</title>
<g id="a_node4"><a xlink:href="class_contact_list.html" target="_top" xlink:title="ContactList">
<polygon fill="white" stroke="black" points="146.988,-1 146.988,-21 213.012,-21 213.012,-1 146.988,-1"/>
<text text-anchor="middle" x="180" y="-7" font-family="Helvetica,sans-Serif" font-size="10.00">ContactList</text>
</a>
</g>
</g>
<!-- Node1&#45;&gt;Node4 -->
<g id="edge3" class="edge"><title>Node1&#45;&gt;Node4</title>
<path fill="none" stroke="midnightblue" d="M282.052,-54.9693C257.389,-44.585 223.486,-30.3099 201.655,-21.1181"/>
<polygon fill="midnightblue" stroke="midnightblue" points="280.761,-58.2231 291.335,-58.878 283.477,-51.7716 280.761,-58.2231"/>
</g>
<!-- Node5 -->
<g id="node5" class="node"><title>Node5</title>
<g id="a_node5"><a xlink:href="class_event.html" target="_top" xlink:title="Event">
<polygon fill="white" stroke="black" points="231.214,-1 231.214,-21 272.786,-21 272.786,-1 231.214,-1"/>
<text text-anchor="middle" x="252" y="-7" font-family="Helvetica,sans-Serif" font-size="10.00">Event</text>
</a>
</g>
</g>
<!-- Node1&#45;&gt;Node5 -->
<g id="edge4" class="edge"><title>Node1&#45;&gt;Node5</title>
<path fill="none" stroke="midnightblue" d="M295.249,-51.704C284.383,-41.7286 270.884,-29.3361 261.885,-21.0752"/>
<polygon fill="midnightblue" stroke="midnightblue" points="293.194,-54.5683 302.927,-58.7527 297.927,-49.4117 293.194,-54.5683"/>
</g>
<!-- Node6 -->
<g id="node6" class="node"><title>Node6</title>
<g id="a_node6"><a xlink:href="class_folder.html" target="_top" xlink:title="Folder">
<polygon fill="white" stroke="black" points="290.828,-1 290.828,-21 335.172,-21 335.172,-1 290.828,-1"/>
<text text-anchor="middle" x="313" y="-7" font-family="Helvetica,sans-Serif" font-size="10.00">Folder</text>
</a>
</g>
</g>
<!-- Node1&#45;&gt;Node6 -->
<g id="edge5" class="edge"><title>Node1&#45;&gt;Node6</title>
<path fill="none" stroke="midnightblue" d="M313,-48.7065C313,-39.3384 313,-28.5262 313,-21.0752"/>
<polygon fill="midnightblue" stroke="midnightblue" points="309.5,-48.7527 313,-58.7527 316.5,-48.7528 309.5,-48.7527"/>
</g>
<!-- Node7 -->
<g id="node7" class="node"><title>Node7</title>
<g id="a_node7"><a xlink:href="class_image.html" target="_top" xlink:title="Image">
<polygon fill="white" stroke="black" points="353.104,-1 353.104,-21 396.896,-21 396.896,-1 353.104,-1"/>
<text text-anchor="middle" x="375" y="-7" font-family="Helvetica,sans-Serif" font-size="10.00">Image</text>
</a>
</g>
</g>
<!-- Node1&#45;&gt;Node7 -->
<g id="edge6" class="edge"><title>Node1&#45;&gt;Node7</title>
<path fill="none" stroke="midnightblue" d="M330.718,-51.9967C341.817,-41.9719 355.717,-29.4171 364.952,-21.0752"/>
<polygon fill="midnightblue" stroke="midnightblue" points="328.313,-49.4525 323.238,-58.7527 333.005,-54.6472 328.313,-49.4525"/>
</g>
<!-- Node8 -->
<g id="node8" class="node"><title>Node8</title>
<g id="a_node8"><a xlink:href="class_registrant.html" target="_top" xlink:title="Registrant">
<polygon fill="white" stroke="black" points="415.212,-1 415.212,-21 476.788,-21 476.788,-1 415.212,-1"/>
<text text-anchor="middle" x="446" y="-7" font-family="Helvetica,sans-Serif" font-size="10.00">Registrant</text>
</a>
</g>
</g>
<!-- Node1&#45;&gt;Node8 -->
<g id="edge7" class="edge"><title>Node1&#45;&gt;Node8</title>
<path fill="none" stroke="midnightblue" d="M343.948,-54.9693C368.611,-44.585 402.514,-30.3099 424.345,-21.1181"/>
<polygon fill="midnightblue" stroke="midnightblue" points="342.523,-51.7716 334.665,-58.878 345.239,-58.2231 342.523,-51.7716"/>
</g>
<!-- Node9 -->
<g id="node9" class="node"><title>Node9</title>
<g id="a_node9"><a xlink:href="class_schedule.html" target="_top" xlink:title="Schedule">
<polygon fill="white" stroke="black" points="495.15,-1 495.15,-21 552.85,-21 552.85,-1 495.15,-1"/>
<text text-anchor="middle" x="524" y="-7" font-family="Helvetica,sans-Serif" font-size="10.00">Schedule</text>
</a>
</g>
</g>
<!-- Node1&#45;&gt;Node9 -->
<g id="edge8" class="edge"><title>Node1&#45;&gt;Node9</title>
<path fill="none" stroke="midnightblue" d="M352.543,-57.5051C393.98,-46.5076 458.086,-29.4939 495.045,-19.6847"/>
<polygon fill="midnightblue" stroke="midnightblue" points="351.551,-54.1472 342.784,-60.0953 353.347,-60.9129 351.551,-54.1472"/>
</g>
<!-- Node10 -->
<g id="node10" class="node"><title>Node10</title>
<g id="a_node10"><a xlink:href="class_verified_address.html" target="_top" xlink:title="VerifiedAddress">
<polygon fill="white" stroke="black" points="570.978,-1 570.978,-21 657.022,-21 657.022,-1 570.978,-1"/>
<text text-anchor="middle" x="614" y="-7" font-family="Helvetica,sans-Serif" font-size="10.00">VerifiedAddress</text>
</a>
</g>
</g>
<!-- Node1&#45;&gt;Node10 -->
<g id="edge9" class="edge"><title>Node1&#45;&gt;Node10</title>
<path fill="none" stroke="midnightblue" d="M352.654,-60.6839C401.622,-51.6401 487.462,-35.7576 561,-22 564.221,-21.3973 567.553,-20.7725 570.903,-20.1429"/>
<polygon fill="midnightblue" stroke="midnightblue" points="351.98,-57.249 342.782,-62.5067 353.251,-64.1327 351.98,-57.249"/>
</g>
</g>
</svg>
