<?xml version="1.0" encoding="UTF-8" standalone="no"?>
<!DOCTYPE svg PUBLIC "-//W3C//DTD SVG 1.1//EN"
 "http://www.w3.org/Graphics/SVG/1.1/DTD/svg11.dtd">
<!-- Generated by graphviz version 2.30.1 (20130221.2233)
 -->
<!-- Title: ContactsCollection\deleteContact Pages: 1 -->
<svg width="640pt" height="130pt"
 viewBox="0.00 0.00 640.00 130.00" xmlns="http://www.w3.org/2000/svg" xmlns:xlink="http://www.w3.org/1999/xlink">
<g id="graph0" class="graph" transform="scale(1 1) rotate(0) translate(4 126)">
<title>ContactsCollection\deleteContact</title>
<polygon fill="white" stroke="white" points="-4,5 -4,-126 637,-126 637,5 -4,5"/>
<!-- Node1 -->
<g id="node1" class="node"><title>Node1</title>
<polygon fill="#bfbfbf" stroke="black" points="0.312988,-16 0.312988,-48 99.687,-48 99.687,-16 0.312988,-16"/>
<text text-anchor="start" x="8.31299" y="-34" font-family="Helvetica,sans-Serif" font-size="10.00">ContactsCollection</text>
<text text-anchor="middle" x="50" y="-22" font-family="Helvetica,sans-Serif" font-size="10.00">\deleteContact</text>
</g>
<!-- Node2 -->
<g id="node2" class="node"><title>Node2</title>
<g id="a_node2"><a xlink:href="class_c_t_c_t_request.html#aad92e5787f6d3fdf00760d99505aa6db" target="_top" xlink:title="CTCTRequest\\makeRequest">
<polygon fill="white" stroke="black" points="135.808,-22 135.808,-42 280.192,-42 280.192,-22 135.808,-22"/>
<text text-anchor="middle" x="208" y="-28" font-family="Helvetica,sans-Serif" font-size="10.00">CTCTRequest\makeRequest</text>
</a>
</g>
</g>
<!-- Node1&#45;&gt;Node2 -->
<g id="edge1" class="edge"><title>Node1&#45;&gt;Node2</title>
<path fill="none" stroke="midnightblue" d="M99.9314,-32C108.088,-32 116.739,-32 125.45,-32"/>
<polygon fill="midnightblue" stroke="midnightblue" points="125.676,-35.5001 135.676,-32 125.676,-28.5001 125.676,-35.5001"/>
</g>
<!-- Node3 -->
<g id="node3" class="node"><title>Node3</title>
<g id="a_node3"><a xlink:href="class_o_auth_request.html#afe9d0f6cb8e0dadb1c0faeea9ecafe45" target="_top" xlink:title="pretty much a helper function to set up the request ">
<polygon fill="white" stroke="black" points="316.079,-39 316.079,-71 469.921,-71 469.921,-39 316.079,-39"/>
<text text-anchor="start" x="324.079" y="-57" font-family="Helvetica,sans-Serif" font-size="10.00">OAuthRequest\from_consumer</text>
<text text-anchor="middle" x="393" y="-45" font-family="Helvetica,sans-Serif" font-size="10.00">_and_token</text>
</a>
</g>
</g>
<!-- Node2&#45;&gt;Node3 -->
<g id="edge2" class="edge"><title>Node2&#45;&gt;Node3</title>
<path fill="none" stroke="midnightblue" d="M280.277,-40.9583C288.716,-42.019 297.397,-43.11 306.013,-44.1929"/>
<polygon fill="midnightblue" stroke="midnightblue" points="305.72,-47.6835 316.079,-45.458 306.593,-40.7382 305.72,-47.6835"/>
</g>
<!-- Node6 -->
<g id="node6" class="node"><title>Node6</title>
<g id="a_node6"><a xlink:href="class_c_t_c_t_exception.html#adc8307ec7d7a2c730b0dac678d0e7fcb" target="_top" xlink:title="CTCTException\\generateError">
<polygon fill="white" stroke="black" points="317.473,-0 317.473,-20 468.527,-20 468.527,-0 317.473,-0"/>
<text text-anchor="middle" x="393" y="-6" font-family="Helvetica,sans-Serif" font-size="10.00">CTCTException\generateError</text>
</a>
</g>
</g>
<!-- Node2&#45;&gt;Node6 -->
<g id="edge5" class="edge"><title>Node2&#45;&gt;Node6</title>
<path fill="none" stroke="midnightblue" d="M280.277,-23.4312C289.099,-22.3706 298.186,-21.2781 307.187,-20.1961"/>
<polygon fill="midnightblue" stroke="midnightblue" points="307.782,-23.6499 317.293,-18.9812 306.946,-16.6999 307.782,-23.6499"/>
</g>
<!-- Node4 -->
<g id="node4" class="node"><title>Node4</title>
<g id="a_node4"><a xlink:href="class_o_auth_request.html#ae544b1c10b82d5a82dcc259064763420" target="_top" xlink:title="util function: current nonce ">
<polygon fill="white" stroke="black" points="507.074,-90 507.074,-122 630.926,-122 630.926,-90 507.074,-90"/>
<text text-anchor="start" x="515.074" y="-108" font-family="Helvetica,sans-Serif" font-size="10.00">OAuthRequest\generate</text>
<text text-anchor="middle" x="569" y="-96" font-family="Helvetica,sans-Serif" font-size="10.00">_nonce</text>
</a>
</g>
</g>
<!-- Node3&#45;&gt;Node4 -->
<g id="edge3" class="edge"><title>Node3&#45;&gt;Node4</title>
<path fill="none" stroke="midnightblue" d="M449.055,-71.1367C466.36,-76.209 485.624,-81.8552 503.522,-87.1012"/>
<polygon fill="midnightblue" stroke="midnightblue" points="502.723,-90.5142 513.303,-89.9683 504.692,-83.7968 502.723,-90.5142"/>
</g>
<!-- Node5 -->
<g id="node5" class="node"><title>Node5</title>
<g id="a_node5"><a xlink:href="class_o_auth_request.html#adfc6b936799f705d9a4442961a26e8cb" target="_top" xlink:title="util function: current timestamp ">
<polygon fill="white" stroke="black" points="507.074,-39 507.074,-71 630.926,-71 630.926,-39 507.074,-39"/>
<text text-anchor="start" x="515.074" y="-57" font-family="Helvetica,sans-Serif" font-size="10.00">OAuthRequest\generate</text>
<text text-anchor="middle" x="569" y="-45" font-family="Helvetica,sans-Serif" font-size="10.00">_timestamp</text>
</a>
</g>
</g>
<!-- Node3&#45;&gt;Node5 -->
<g id="edge4" class="edge"><title>Node3&#45;&gt;Node5</title>
<path fill="none" stroke="midnightblue" d="M470.066,-55C478.939,-55 487.966,-55 496.771,-55"/>
<polygon fill="midnightblue" stroke="midnightblue" points="496.981,-58.5001 506.981,-55 496.981,-51.5001 496.981,-58.5001"/>
</g>
<!-- Node7 -->
<g id="node7" class="node"><title>Node7</title>
<g id="a_node7"><a xlink:href="class_c_t_c_t_exception.html#a6a86531406328bbd2a6c6252b7fb3a70" target="_top" xlink:title="CTCTException\\logError">
<polygon fill="white" stroke="black" points="506.54,-0 506.54,-20 631.46,-20 631.46,-0 506.54,-0"/>
<text text-anchor="middle" x="569" y="-6" font-family="Helvetica,sans-Serif" font-size="10.00">CTCTException\logError</text>
</a>
</g>
</g>
<!-- Node6&#45;&gt;Node7 -->
<g id="edge6" class="edge"><title>Node6&#45;&gt;Node7</title>
<path fill="none" stroke="midnightblue" d="M468.549,-10C477.73,-10 487.101,-10 496.239,-10"/>
<polygon fill="midnightblue" stroke="midnightblue" points="496.437,-13.5001 506.437,-10 496.436,-6.5001 496.437,-13.5001"/>
</g>
</g>
</svg>
