<?xml version="1.0" encoding="UTF-8" standalone="no"?>
<!DOCTYPE svg PUBLIC "-//W3C//DTD SVG 1.1//EN"
 "http://www.w3.org/Graphics/SVG/1.1/DTD/svg11.dtd">
<!-- Generated by graphviz version 2.30.1 (20130221.2233)
 -->
<!-- Title: Net_DNS_RR\new_from_string Pages: 1 -->
<svg width="314pt" height="106pt"
 viewBox="0.00 0.00 314.00 106.00" xmlns="http://www.w3.org/2000/svg" xmlns:xlink="http://www.w3.org/1999/xlink">
<g id="graph0" class="graph" transform="scale(1 1) rotate(0) translate(4 102)">
<title>Net_DNS_RR\new_from_string</title>
<polygon fill="white" stroke="white" points="-4,5 -4,-102 311,-102 311,5 -4,5"/>
<!-- Node1 -->
<g id="node1" class="node"><title>Node1</title>
<polygon fill="#bfbfbf" stroke="black" points="0.537109,-33 0.537109,-65 125.463,-65 125.463,-33 0.537109,-33"/>
<text text-anchor="start" x="8.53711" y="-51" font-family="Helvetica,sans-Serif" font-size="10.00">Net_DNS_RR\new_from</text>
<text text-anchor="middle" x="63" y="-39" font-family="Helvetica,sans-Serif" font-size="10.00">_string</text>
</g>
<!-- Node2 -->
<g id="node2" class="node"><title>Node2</title>
<g id="a_node2"><a xlink:href="class_net___d_n_s.html#a1e086e94cfa4b747b481b1e5859a1caf" target="_top" xlink:title="translates a DNS class from it&#39;s name to it&#39;s integer value. ">
<polygon fill="white" stroke="black" points="169.032,-78 169.032,-98 298.968,-98 298.968,-78 169.032,-78"/>
<text text-anchor="middle" x="234" y="-84" font-family="Helvetica,sans-Serif" font-size="10.00">Net_DNS\classesbyname</text>
</a>
</g>
</g>
<!-- Node1&#45;&gt;Node2 -->
<g id="edge1" class="edge"><title>Node1&#45;&gt;Node2</title>
<path fill="none" stroke="midnightblue" d="M125.491,-63.1902C143.242,-67.2866 162.46,-71.7214 179.671,-75.6932"/>
<polygon fill="midnightblue" stroke="midnightblue" points="179.015,-79.1339 189.546,-77.9722 180.589,-72.3131 179.015,-79.1339"/>
</g>
<!-- Node3 -->
<g id="node3" class="node"><title>Node3</title>
<g id="a_node3"><a xlink:href="class_net___d_n_s___r_r.html#ab64df1897e6e896b456e7007085fad40" target="_top" xlink:title="Net_DNS_RR\\Net_DNS_RR">
<polygon fill="white" stroke="black" points="162.37,-39 162.37,-59 305.63,-59 305.63,-39 162.37,-39"/>
<text text-anchor="middle" x="234" y="-45" font-family="Helvetica,sans-Serif" font-size="10.00">Net_DNS_RR\Net_DNS_RR</text>
</a>
</g>
</g>
<!-- Node1&#45;&gt;Node3 -->
<g id="edge2" class="edge"><title>Node1&#45;&gt;Node3</title>
<path fill="none" stroke="midnightblue" d="M125.491,-49C134.131,-49 143.118,-49 152.053,-49"/>
<polygon fill="midnightblue" stroke="midnightblue" points="152.096,-52.5001 162.096,-49 152.096,-45.5001 152.096,-52.5001"/>
</g>
<!-- Node4 -->
<g id="node4" class="node"><title>Node4</title>
<g id="a_node4"><a xlink:href="class_net___d_n_s.html#a1420f63422265cad4ceb1899647e53e6" target="_top" xlink:title="Translates RR type names into integers. ">
<polygon fill="white" stroke="black" points="173.754,-0 173.754,-20 294.246,-20 294.246,-0 173.754,-0"/>
<text text-anchor="middle" x="234" y="-6" font-family="Helvetica,sans-Serif" font-size="10.00">Net_DNS\typesbyname</text>
</a>
</g>
</g>
<!-- Node1&#45;&gt;Node4 -->
<g id="edge3" class="edge"><title>Node1&#45;&gt;Node4</title>
<path fill="none" stroke="midnightblue" d="M125.491,-34.8098C143.242,-30.7134 162.46,-26.2786 179.671,-22.3068"/>
<polygon fill="midnightblue" stroke="midnightblue" points="180.589,-25.6869 189.546,-20.0278 179.015,-18.8661 180.589,-25.6869"/>
</g>
</g>
</svg>
