<?xml version="1.0" encoding="UTF-8" standalone="no"?>
<!DOCTYPE svg PUBLIC "-//W3C//DTD SVG 1.1//EN"
 "http://www.w3.org/Graphics/SVG/1.1/DTD/svg11.dtd">
<!-- Generated by graphviz version 2.30.1 (20130221.2233)
 -->
<!-- Title: Ctct\Services\ListService\getContactsFromList Pages: 1 -->
<svg width="480pt" height="244pt"
 viewBox="0.00 0.00 480.00 244.00" xmlns="http://www.w3.org/2000/svg" xmlns:xlink="http://www.w3.org/1999/xlink">
<g id="graph0" class="graph" transform="scale(1 1) rotate(0) translate(4 240)">
<title>Ctct\Services\ListService\getContactsFromList</title>
<polygon fill="white" stroke="white" points="-4,5 -4,-240 477,-240 477,5 -4,5"/>
<!-- Node1 -->
<g id="node1" class="node"><title>Node1</title>
<polygon fill="#bfbfbf" stroke="black" points="0.707031,-102 0.707031,-134 127.293,-134 127.293,-102 0.707031,-102"/>
<text text-anchor="start" x="8.70703" y="-120" font-family="Helvetica,sans-Serif" font-size="10.00">Ctct\Services\ListService</text>
<text text-anchor="middle" x="64" y="-108" font-family="Helvetica,sans-Serif" font-size="10.00">\getContactsFromList</text>
</g>
<!-- Node2 -->
<g id="node2" class="node"><title>Node2</title>
<g id="a_node2"><a xlink:href="class_ctct_1_1_services_1_1_base_service.html#a5c4ae0795fcc06c137b6e761963c4df6" target="_top" xlink:title="Build a url from the base url and query parameters array. ">
<polygon fill="white" stroke="black" points="165.091,-153 165.091,-185 298.909,-185 298.909,-153 165.091,-153"/>
<text text-anchor="start" x="173.091" y="-171" font-family="Helvetica,sans-Serif" font-size="10.00">Ctct\Services\BaseService</text>
<text text-anchor="middle" x="232" y="-159" font-family="Helvetica,sans-Serif" font-size="10.00">\buildUrl</text>
</a>
</g>
</g>
<!-- Node1&#45;&gt;Node2 -->
<g id="edge1" class="edge"><title>Node1&#45;&gt;Node2</title>
<path fill="none" stroke="midnightblue" d="M117.523,-134.137C133.88,-139.162 152.071,-144.751 169.012,-149.955"/>
<polygon fill="midnightblue" stroke="midnightblue" points="168.231,-153.377 178.818,-152.968 170.287,-146.686 168.231,-153.377"/>
</g>
<!-- Node3 -->
<g id="node3" class="node"><title>Node3</title>
<g id="a_node3"><a xlink:href="class_ctct_1_1_components_1_1_contacts_1_1_contact.html#aea94ae08d0308ccb24c030bd9d96e368" target="_top" xlink:title="Factory method to create a Contact object from an array. ">
<polygon fill="white" stroke="black" points="164.251,-102 164.251,-134 299.749,-134 299.749,-102 164.251,-102"/>
<text text-anchor="start" x="172.251" y="-120" font-family="Helvetica,sans-Serif" font-size="10.00">Ctct\Components\Contacts</text>
<text text-anchor="middle" x="232" y="-108" font-family="Helvetica,sans-Serif" font-size="10.00">\Contact\create</text>
</a>
</g>
</g>
<!-- Node1&#45;&gt;Node3 -->
<g id="edge2" class="edge"><title>Node1&#45;&gt;Node3</title>
<path fill="none" stroke="midnightblue" d="M127.757,-118C136.27,-118 145.086,-118 153.815,-118"/>
<polygon fill="midnightblue" stroke="midnightblue" points="153.999,-121.5 163.999,-118 153.999,-114.5 153.999,-121.5"/>
</g>
<!-- Node9 -->
<g id="node9" class="node"><title>Node9</title>
<g id="a_node9"><a xlink:href="class_ctct_1_1_util_1_1_config.html#ab224fae1ce1a1993c1ac42c708dc7de9" target="_top" xlink:title="Get a configuration property given a specified location, example usage: Config::get(&#39;auth.token_endpoint&#39;) ">
<polygon fill="white" stroke="black" points="182.318,-63 182.318,-83 281.682,-83 281.682,-63 182.318,-63"/>
<text text-anchor="middle" x="232" y="-69" font-family="Helvetica,sans-Serif" font-size="10.00">Ctct\Util\Config\get</text>
</a>
</g>
</g>
<!-- Node1&#45;&gt;Node9 -->
<g id="edge8" class="edge"><title>Node1&#45;&gt;Node9</title>
<path fill="none" stroke="midnightblue" d="M124.461,-101.881C144.018,-96.5795 165.475,-90.7627 183.976,-85.7474"/>
<polygon fill="midnightblue" stroke="midnightblue" points="184.901,-89.1232 193.636,-83.1287 183.069,-82.3671 184.901,-89.1232"/>
</g>
<!-- Node4 -->
<g id="node4" class="node"><title>Node4</title>
<g id="a_node4"><a xlink:href="class_ctct_1_1_components_1_1_contacts_1_1_custom_field.html#ae68b392692a27d65f007ca88378303ac" target="_top" xlink:title="Factory method to create a CustomField object from an array. ">
<polygon fill="white" stroke="black" points="336.251,-204 336.251,-236 471.749,-236 471.749,-204 336.251,-204"/>
<text text-anchor="start" x="344.251" y="-222" font-family="Helvetica,sans-Serif" font-size="10.00">Ctct\Components\Contacts</text>
<text text-anchor="middle" x="404" y="-210" font-family="Helvetica,sans-Serif" font-size="10.00">\CustomField\create</text>
</a>
</g>
</g>
<!-- Node3&#45;&gt;Node4 -->
<g id="edge3" class="edge"><title>Node3&#45;&gt;Node4</title>
<path fill="none" stroke="midnightblue" d="M284.091,-134.169C289.725,-136.997 295.164,-140.259 300,-144 321.658,-160.756 314.342,-177.244 336,-194 338.267,-195.754 340.666,-197.402 343.156,-198.95"/>
<polygon fill="midnightblue" stroke="midnightblue" points="341.471,-202.017 351.909,-203.831 344.88,-195.904 341.471,-202.017"/>
</g>
<!-- Node5 -->
<g id="node5" class="node"><title>Node5</title>
<g id="a_node5"><a xlink:href="class_ctct_1_1_components_1_1_contacts_1_1_note.html#a0f5c7143a592b1da1467efbeba73d715" target="_top" xlink:title="Factory method to create a Note object from an array. ">
<polygon fill="white" stroke="black" points="336.251,-153 336.251,-185 471.749,-185 471.749,-153 336.251,-153"/>
<text text-anchor="start" x="344.251" y="-171" font-family="Helvetica,sans-Serif" font-size="10.00">Ctct\Components\Contacts</text>
<text text-anchor="middle" x="404" y="-159" font-family="Helvetica,sans-Serif" font-size="10.00">\Note\create</text>
</a>
</g>
</g>
<!-- Node3&#45;&gt;Node5 -->
<g id="edge4" class="edge"><title>Node3&#45;&gt;Node5</title>
<path fill="none" stroke="midnightblue" d="M286.789,-134.137C303.54,-139.162 322.169,-144.751 339.518,-149.955"/>
<polygon fill="midnightblue" stroke="midnightblue" points="338.977,-153.447 349.561,-152.968 340.988,-146.742 338.977,-153.447"/>
</g>
<!-- Node6 -->
<g id="node6" class="node"><title>Node6</title>
<g id="a_node6"><a xlink:href="class_ctct_1_1_components_1_1_contacts_1_1_contact_list.html#a3fc8e0d47e974d0ba80d1ff92ec48d5c" target="_top" xlink:title="Factory method to create a ContactList object from an array. ">
<polygon fill="white" stroke="black" points="336.251,-102 336.251,-134 471.749,-134 471.749,-102 336.251,-102"/>
<text text-anchor="start" x="344.251" y="-120" font-family="Helvetica,sans-Serif" font-size="10.00">Ctct\Components\Contacts</text>
<text text-anchor="middle" x="404" y="-108" font-family="Helvetica,sans-Serif" font-size="10.00">\ContactList\create</text>
</a>
</g>
</g>
<!-- Node3&#45;&gt;Node6 -->
<g id="edge5" class="edge"><title>Node3&#45;&gt;Node6</title>
<path fill="none" stroke="midnightblue" d="M300.189,-118C308.66,-118 317.379,-118 325.988,-118"/>
<polygon fill="midnightblue" stroke="midnightblue" points="326.021,-121.5 336.021,-118 326.021,-114.5 326.021,-121.5"/>
</g>
<!-- Node7 -->
<g id="node7" class="node"><title>Node7</title>
<g id="a_node7"><a xlink:href="class_ctct_1_1_components_1_1_contacts_1_1_email_address.html#ad5ccee9c619500b3e61a3307c0635c89" target="_top" xlink:title="Factory method to create an EmailAddress object from an array. ">
<polygon fill="white" stroke="black" points="336.251,-51 336.251,-83 471.749,-83 471.749,-51 336.251,-51"/>
<text text-anchor="start" x="344.251" y="-69" font-family="Helvetica,sans-Serif" font-size="10.00">Ctct\Components\Contacts</text>
<text text-anchor="middle" x="404" y="-57" font-family="Helvetica,sans-Serif" font-size="10.00">\EmailAddress\create</text>
</a>
</g>
</g>
<!-- Node3&#45;&gt;Node7 -->
<g id="edge6" class="edge"><title>Node3&#45;&gt;Node7</title>
<path fill="none" stroke="midnightblue" d="M286.789,-101.863C303.54,-96.838 322.169,-91.2493 339.518,-86.0446"/>
<polygon fill="midnightblue" stroke="midnightblue" points="340.988,-89.2577 349.561,-83.0317 338.977,-82.5529 340.988,-89.2577"/>
</g>
<!-- Node8 -->
<g id="node8" class="node"><title>Node8</title>
<g id="a_node8"><a xlink:href="class_ctct_1_1_components_1_1_contacts_1_1_address.html#a0a1be46e7c7d87d63874c4d618ae3583" target="_top" xlink:title="Factory method to create an Address object from an array &#160;$props &#45; Associative array of initial prope...">
<polygon fill="white" stroke="black" points="336.251,-0 336.251,-32 471.749,-32 471.749,-0 336.251,-0"/>
<text text-anchor="start" x="344.251" y="-18" font-family="Helvetica,sans-Serif" font-size="10.00">Ctct\Components\Contacts</text>
<text text-anchor="middle" x="404" y="-6" font-family="Helvetica,sans-Serif" font-size="10.00">\Address\create</text>
</a>
</g>
</g>
<!-- Node3&#45;&gt;Node8 -->
<g id="edge7" class="edge"><title>Node3&#45;&gt;Node8</title>
<path fill="none" stroke="midnightblue" d="M284.091,-101.831C289.725,-99.0026 295.164,-95.7411 300,-92 321.658,-75.2441 314.342,-58.7559 336,-42 338.267,-40.2464 340.666,-38.5981 343.156,-37.0505"/>
<polygon fill="midnightblue" stroke="midnightblue" points="344.88,-40.0964 351.909,-32.169 341.471,-33.9828 344.88,-40.0964"/>
</g>
</g>
</svg>
