<?xml version="1.0" encoding="UTF-8" standalone="no"?>
<!DOCTYPE svg PUBLIC "-//W3C//DTD SVG 1.1//EN"
 "http://www.w3.org/Graphics/SVG/1.1/DTD/svg11.dtd">
<!-- Generated by graphviz version 2.30.1 (20130221.2233)
 -->
<!-- Title: OAuthSignatureMethod_HMAC_SHA1\build_signature Pages: 1 -->
<svg width="304pt" height="40pt"
 viewBox="0.00 0.00 304.00 40.00" xmlns="http://www.w3.org/2000/svg" xmlns:xlink="http://www.w3.org/1999/xlink">
<g id="graph0" class="graph" transform="scale(1 1) rotate(0) translate(4 36)">
<title>OAuthSignatureMethod_HMAC_SHA1\build_signature</title>
<polygon fill="white" stroke="white" points="-4,5 -4,-36 301,-36 301,5 -4,5"/>
<!-- Node1 -->
<g id="node1" class="node"><title>Node1</title>
<polygon fill="#bfbfbf" stroke="black" points="0.352539,-0 0.352539,-32 153.647,-32 153.647,-0 0.352539,-0"/>
<text text-anchor="start" x="8.35254" y="-18" font-family="Helvetica,sans-Serif" font-size="10.00">OAuthSignatureMethod</text>
<text text-anchor="middle" x="77" y="-6" font-family="Helvetica,sans-Serif" font-size="10.00">_HMAC_SHA1\build_signature</text>
</g>
<!-- Node2 -->
<g id="node2" class="node"><title>Node2</title>
<g id="a_node2"><a xlink:href="class_o_auth_util.html#adcb789bfefc729678d5188f05d19b5ba" target="_top" xlink:title="OAuthUtil\\urlencode\l_rfc3986">
<polygon fill="white" stroke="black" points="190.254,-0 190.254,-32 295.746,-32 295.746,-0 190.254,-0"/>
<text text-anchor="start" x="198.254" y="-18" font-family="Helvetica,sans-Serif" font-size="10.00">OAuthUtil\urlencode</text>
<text text-anchor="middle" x="243" y="-6" font-family="Helvetica,sans-Serif" font-size="10.00">_rfc3986</text>
</a>
</g>
</g>
<!-- Node1&#45;&gt;Node2 -->
<g id="edge1" class="edge"><title>Node1&#45;&gt;Node2</title>
<path fill="none" stroke="midnightblue" d="M153.759,-16C162.471,-16 171.277,-16 179.781,-16"/>
<polygon fill="midnightblue" stroke="midnightblue" points="179.977,-19.5001 189.977,-16 179.977,-12.5001 179.977,-19.5001"/>
</g>
</g>
</svg>
