<?xml version="1.0" encoding="UTF-8" standalone="no"?>
<!DOCTYPE svg PUBLIC "-//W3C//DTD SVG 1.1//EN"
 "http://www.w3.org/Graphics/SVG/1.1/DTD/svg11.dtd">
<!-- Generated by graphviz version 2.30.1 (20130221.2233)
 -->
<!-- Title: CTCT_Constant_Analytics\config_warnings Pages: 1 -->
<svg width="312pt" height="40pt"
 viewBox="0.00 0.00 312.00 40.00" xmlns="http://www.w3.org/2000/svg" xmlns:xlink="http://www.w3.org/1999/xlink">
<g id="graph0" class="graph" transform="scale(1 1) rotate(0) translate(4 36)">
<title>CTCT_Constant_Analytics\config_warnings</title>
<polygon fill="white" stroke="white" points="-4,5 -4,-36 309,-36 309,5 -4,5"/>
<!-- Node1 -->
<g id="node1" class="node"><title>Node1</title>
<polygon fill="#bfbfbf" stroke="black" points="0.0888672,-0 0.0888672,-32 133.911,-32 133.911,-0 0.0888672,-0"/>
<text text-anchor="start" x="8.08887" y="-18" font-family="Helvetica,sans-Serif" font-size="10.00">CTCT_Constant_Analytics</text>
<text text-anchor="middle" x="67" y="-6" font-family="Helvetica,sans-Serif" font-size="10.00">\config_warnings</text>
</g>
<!-- Node2 -->
<g id="node2" class="node"><title>Node2</title>
<g id="a_node2"><a xlink:href="class_c_t_c_t___constant___analytics.html#ac29dd9da306d1516c8d4c55734827078" target="_top" xlink:title="CTCT_Constant_Analytics\l\\show_ga_auth_error">
<polygon fill="white" stroke="black" points="170.089,-0 170.089,-32 303.911,-32 303.911,-0 170.089,-0"/>
<text text-anchor="start" x="178.089" y="-18" font-family="Helvetica,sans-Serif" font-size="10.00">CTCT_Constant_Analytics</text>
<text text-anchor="middle" x="237" y="-6" font-family="Helvetica,sans-Serif" font-size="10.00">\show_ga_auth_error</text>
</a>
</g>
</g>
<!-- Node1&#45;&gt;Node2 -->
<g id="edge1" class="edge"><title>Node1&#45;&gt;Node2</title>
<path fill="none" stroke="midnightblue" d="M144.019,-16C152.689,-16 161.473,-16 169.998,-16"/>
<polygon fill="midnightblue" stroke="midnightblue" points="143.916,-12.5001 133.916,-16 143.916,-19.5001 143.916,-12.5001"/>
</g>
</g>
</svg>
