<?xml version="1.0" encoding="UTF-8" standalone="no"?>
<!DOCTYPE svg PUBLIC "-//W3C//DTD SVG 1.1//EN"
 "http://www.w3.org/Graphics/SVG/1.1/DTD/svg11.dtd">
<!-- Generated by graphviz version 2.30.1 (20130221.2233)
 -->
<!-- Title: CTCT_Registration\process_submission_multisite Pages: 1 -->
<svg width="480pt" height="67pt"
 viewBox="0.00 0.00 480.00 67.00" xmlns="http://www.w3.org/2000/svg" xmlns:xlink="http://www.w3.org/1999/xlink">
<g id="graph0" class="graph" transform="scale(1 1) rotate(0) translate(4 63)">
<title>CTCT_Registration\process_submission_multisite</title>
<polygon fill="white" stroke="white" points="-4,5 -4,-63 477,-63 477,5 -4,5"/>
<!-- Node1 -->
<g id="node1" class="node"><title>Node1</title>
<polygon fill="#bfbfbf" stroke="black" points="0.312988,-13 0.312988,-45 139.687,-45 139.687,-13 0.312988,-13"/>
<text text-anchor="start" x="8.31299" y="-31" font-family="Helvetica,sans-Serif" font-size="10.00">CTCT_Registration\process</text>
<text text-anchor="middle" x="70" y="-19" font-family="Helvetica,sans-Serif" font-size="10.00">_submission_multisite</text>
</g>
<!-- Node2 -->
<g id="node2" class="node"><title>Node2</title>
<g id="a_node2"><a xlink:href="class_c_t_c_t___registration.html#a7b08750aaabbf7a8b110da33b9e2c261" target="_top" xlink:title="Hook into &#39;register_post&#39; action to manage subscription of new users during user registration. ">
<polygon fill="white" stroke="black" points="176.313,-13 176.313,-45 315.687,-45 315.687,-13 176.313,-13"/>
<text text-anchor="start" x="184.313" y="-31" font-family="Helvetica,sans-Serif" font-size="10.00">CTCT_Registration\process</text>
<text text-anchor="middle" x="246" y="-19" font-family="Helvetica,sans-Serif" font-size="10.00">_submission</text>
</a>
</g>
</g>
<!-- Node1&#45;&gt;Node2 -->
<g id="edge1" class="edge"><title>Node1&#45;&gt;Node2</title>
<path fill="none" stroke="midnightblue" d="M139.769,-29C148.372,-29 157.224,-29 165.967,-29"/>
<polygon fill="midnightblue" stroke="midnightblue" points="166.16,-32.5001 176.16,-29 166.16,-25.5001 166.16,-32.5001"/>
</g>
<!-- Node3 -->
<g id="node3" class="node"><title>Node3</title>
<g id="a_node3"><a xlink:href="class_c_t_c_t___settings.html#ae3c076753f9e642d69924227641b75e7" target="_top" xlink:title="Alias for get_setting() &#160;CTCT_Settings::get_setting() ">
<polygon fill="white" stroke="black" points="361.483,-39 361.483,-59 462.517,-59 462.517,-39 361.483,-39"/>
<text text-anchor="middle" x="412" y="-45" font-family="Helvetica,sans-Serif" font-size="10.00">CTCT_Settings\get</text>
</a>
</g>
</g>
<!-- Node2&#45;&gt;Node3 -->
<g id="edge2" class="edge"><title>Node2&#45;&gt;Node3</title>
<path fill="none" stroke="midnightblue" d="M316.075,-37.4238C327.737,-38.846 339.757,-40.3118 351.159,-41.7023"/>
<polygon fill="midnightblue" stroke="midnightblue" points="351.078,-45.2182 361.428,-42.9546 351.925,-38.2697 351.078,-45.2182"/>
</g>
<!-- Node4 -->
<g id="node4" class="node"><title>Node4</title>
<g id="a_node4"><a xlink:href="class_w_p___c_t_c_t.html#a485eac1e69d12c9e2ecac70bf3295c3f" target="_top" xlink:title="WP_CTCT\\getInstance">
<polygon fill="white" stroke="black" points="352.594,-0 352.594,-20 471.406,-20 471.406,-0 352.594,-0"/>
<text text-anchor="middle" x="412" y="-6" font-family="Helvetica,sans-Serif" font-size="10.00">WP_CTCT\getInstance</text>
</a>
</g>
</g>
<!-- Node2&#45;&gt;Node4 -->
<g id="edge3" class="edge"><title>Node2&#45;&gt;Node4</title>
<path fill="none" stroke="midnightblue" d="M316.075,-20.9974C324.758,-19.9914 333.639,-18.9625 342.316,-17.9573"/>
<polygon fill="midnightblue" stroke="midnightblue" points="342.853,-21.4186 352.384,-16.7909 342.047,-14.4651 342.853,-21.4186"/>
</g>
</g>
</svg>
