<?xml version="1.0" encoding="UTF-8" standalone="no"?>
<!DOCTYPE svg PUBLIC "-//W3C//DTD SVG 1.1//EN"
 "http://www.w3.org/Graphics/SVG/1.1/DTD/svg11.dtd">
<!-- Generated by graphviz version 2.30.1 (20130221.2233)
 -->
<!-- Title: JsonLoader\getRemoveContactsTextContents Pages: 1 -->
<svg width="380pt" height="52pt"
 viewBox="0.00 0.00 380.00 52.00" xmlns="http://www.w3.org/2000/svg" xmlns:xlink="http://www.w3.org/1999/xlink">
<g id="graph0" class="graph" transform="scale(1 1) rotate(0) translate(4 48)">
<title>JsonLoader\getRemoveContactsTextContents</title>
<polygon fill="white" stroke="white" points="-4,5 -4,-48 377,-48 377,5 -4,5"/>
<!-- Node1 -->
<g id="node1" class="node"><title>Node1</title>
<polygon fill="#bfbfbf" stroke="black" points="0.180176,-6 0.180176,-38 161.82,-38 161.82,-6 0.180176,-6"/>
<text text-anchor="start" x="8.18018" y="-24" font-family="Helvetica,sans-Serif" font-size="10.00">JsonLoader\getRemoveContacts</text>
<text text-anchor="middle" x="81" y="-12" font-family="Helvetica,sans-Serif" font-size="10.00">TextContents</text>
</g>
<!-- Node2 -->
<g id="node2" class="node"><title>Node2</title>
<g id="a_node2"><a xlink:href="class_activity_service_unit_test.html#a3ce59f184e1e3a4dcf2672fa62b4da23" target="_top" xlink:title="ActivityServiceUnitTest\l\\testAddRemoveContactsFromLists\lActivityFromFile">
<polygon fill="white" stroke="black" points="198.36,-0 198.36,-44 371.64,-44 371.64,-0 198.36,-0"/>
<text text-anchor="start" x="206.36" y="-30" font-family="Helvetica,sans-Serif" font-size="10.00">ActivityServiceUnitTest</text>
<text text-anchor="start" x="206.36" y="-18" font-family="Helvetica,sans-Serif" font-size="10.00">\testAddRemoveContactsFromLists</text>
<text text-anchor="middle" x="285" y="-6" font-family="Helvetica,sans-Serif" font-size="10.00">ActivityFromFile</text>
</a>
</g>
</g>
<!-- Node1&#45;&gt;Node2 -->
<g id="edge1" class="edge"><title>Node1&#45;&gt;Node2</title>
<path fill="none" stroke="midnightblue" d="M171.967,-22C180.653,-22 189.45,-22 198.096,-22"/>
<polygon fill="midnightblue" stroke="midnightblue" points="171.836,-18.5001 161.836,-22 171.836,-25.5001 171.836,-18.5001"/>
</g>
</g>
</svg>
