<?xml version="1.0" encoding="UTF-8" standalone="no"?>
<!DOCTYPE svg PUBLIC "-//W3C//DTD SVG 1.1//EN"
 "http://www.w3.org/Graphics/SVG/1.1/DTD/svg11.dtd">
<!-- Generated by graphviz version 2.30.1 (20130221.2233)
 -->
<!-- Title: OAuthUtil\urldecode_rfc3986 Pages: 1 -->
<svg width="474pt" height="67pt"
 viewBox="0.00 0.00 474.00 67.00" xmlns="http://www.w3.org/2000/svg" xmlns:xlink="http://www.w3.org/1999/xlink">
<g id="graph0" class="graph" transform="scale(1 1) rotate(0) translate(4 63)">
<title>OAuthUtil\urldecode_rfc3986</title>
<polygon fill="white" stroke="white" points="-4,5 -4,-63 471,-63 471,5 -4,5"/>
<!-- Node1 -->
<g id="node1" class="node"><title>Node1</title>
<polygon fill="#bfbfbf" stroke="black" points="0.253906,-13 0.253906,-45 105.746,-45 105.746,-13 0.253906,-13"/>
<text text-anchor="start" x="8.25391" y="-31" font-family="Helvetica,sans-Serif" font-size="10.00">OAuthUtil\urldecode</text>
<text text-anchor="middle" x="53" y="-19" font-family="Helvetica,sans-Serif" font-size="10.00">_rfc3986</text>
</g>
<!-- Node2 -->
<g id="node2" class="node"><title>Node2</title>
<g id="a_node2"><a xlink:href="class_o_auth_util.html#af051ff3956c8d8d7260e15166d392947" target="_top" xlink:title="OAuthUtil\\parse_parameters">
<polygon fill="white" stroke="black" points="142.638,-39 142.638,-59 285.362,-59 285.362,-39 142.638,-39"/>
<text text-anchor="middle" x="214" y="-45" font-family="Helvetica,sans-Serif" font-size="10.00">OAuthUtil\parse_parameters</text>
</a>
</g>
</g>
<!-- Node1&#45;&gt;Node2 -->
<g id="edge1" class="edge"><title>Node1&#45;&gt;Node2</title>
<path fill="none" stroke="midnightblue" d="M116.108,-36.8123C124.801,-37.9058 133.787,-39.0361 142.62,-40.1472"/>
<polygon fill="midnightblue" stroke="midnightblue" points="116.421,-33.3242 106.063,-35.5487 115.548,-40.2695 116.421,-33.3242"/>
</g>
<!-- Node5 -->
<g id="node5" class="node"><title>Node5</title>
<g id="a_node5"><a xlink:href="class_o_auth_util.html#a33c67362886c81064f7c21df11cf6f6f" target="_top" xlink:title="OAuthUtil\\split_header">
<polygon fill="white" stroke="black" points="155.973,-0 155.973,-20 272.027,-20 272.027,-0 155.973,-0"/>
<text text-anchor="middle" x="214" y="-6" font-family="Helvetica,sans-Serif" font-size="10.00">OAuthUtil\split_header</text>
</a>
</g>
</g>
<!-- Node1&#45;&gt;Node5 -->
<g id="edge4" class="edge"><title>Node1&#45;&gt;Node5</title>
<path fill="none" stroke="midnightblue" d="M116.345,-21.55C129.374,-19.993 143.049,-18.3589 155.878,-16.8259"/>
<polygon fill="midnightblue" stroke="midnightblue" points="115.577,-18.1168 106.063,-22.7787 116.407,-25.0674 115.577,-18.1168"/>
</g>
<!-- Node3 -->
<g id="node3" class="node"><title>Node3</title>
<g id="a_node3"><a xlink:href="class_o_auth_request.html#a0fdf7d4e7a8b3b669622e39a05e8b4ac" target="_top" xlink:title="OAuthRequest\\__construct">
<polygon fill="white" stroke="black" points="325.966,-39 325.966,-59 462.034,-59 462.034,-39 325.966,-39"/>
<text text-anchor="middle" x="394" y="-45" font-family="Helvetica,sans-Serif" font-size="10.00">OAuthRequest\__construct</text>
</a>
</g>
</g>
<!-- Node2&#45;&gt;Node3 -->
<g id="edge2" class="edge"><title>Node2&#45;&gt;Node3</title>
<path fill="none" stroke="midnightblue" d="M295.667,-49C305.796,-49 316.07,-49 325.959,-49"/>
<polygon fill="midnightblue" stroke="midnightblue" points="295.606,-45.5001 285.606,-49 295.606,-52.5001 295.606,-45.5001"/>
</g>
<!-- Node4 -->
<g id="node4" class="node"><title>Node4</title>
<g id="a_node4"><a xlink:href="class_o_auth_request.html#a8d5d9a8e5d174e594775c5b952bf448f" target="_top" xlink:title="attempt to build up a request from what was passed to the server ">
<polygon fill="white" stroke="black" points="322.355,-0 322.355,-20 465.645,-20 465.645,-0 322.355,-0"/>
<text text-anchor="middle" x="394" y="-6" font-family="Helvetica,sans-Serif" font-size="10.00">OAuthRequest\from_request</text>
</a>
</g>
</g>
<!-- Node2&#45;&gt;Node4 -->
<g id="edge3" class="edge"><title>Node2&#45;&gt;Node4</title>
<path fill="none" stroke="midnightblue" d="M270.768,-36.7812C295.393,-31.3858 323.981,-25.1221 347.316,-20.0094"/>
<polygon fill="midnightblue" stroke="midnightblue" points="269.859,-33.3973 260.839,-38.9565 271.357,-40.2351 269.859,-33.3973"/>
</g>
<!-- Node5&#45;&gt;Node4 -->
<g id="edge5" class="edge"><title>Node5&#45;&gt;Node4</title>
<path fill="none" stroke="midnightblue" d="M282.516,-10C295.456,-10 309.039,-10 322.082,-10"/>
<polygon fill="midnightblue" stroke="midnightblue" points="282.3,-6.5001 272.3,-10 282.3,-13.5001 282.3,-6.5001"/>
</g>
</g>
</svg>
