<?xml version="1.0" encoding="UTF-8" standalone="no"?>
<!DOCTYPE svg PUBLIC "-//W3C//DTD SVG 1.1//EN"
 "http://www.w3.org/Graphics/SVG/1.1/DTD/svg11.dtd">
<!-- Generated by graphviz version 2.30.1 (20130221.2233)
 -->
<!-- Title: OAuthServer\check_signature Pages: 1 -->
<svg width="348pt" height="118pt"
 viewBox="0.00 0.00 348.00 118.00" xmlns="http://www.w3.org/2000/svg" xmlns:xlink="http://www.w3.org/1999/xlink">
<g id="graph0" class="graph" transform="scale(1 1) rotate(0) translate(4 114)">
<title>OAuthServer\check_signature</title>
<polygon fill="white" stroke="white" points="-4,5 -4,-114 345,-114 345,5 -4,5"/>
<!-- Node1 -->
<g id="node1" class="node"><title>Node1</title>
<polygon fill="#bfbfbf" stroke="black" points="0.29834,-51 0.29834,-71 149.702,-71 149.702,-51 0.29834,-51"/>
<text text-anchor="middle" x="75" y="-57" font-family="Helvetica,sans-Serif" font-size="10.00">OAuthServer\check_signature</text>
</g>
<!-- Node2 -->
<g id="node2" class="node"><title>Node2</title>
<g id="a_node2"><a xlink:href="class_o_auth_server.html#a4485cb3ffa98de6c0dc513519017dcfb" target="_top" xlink:title="check that the nonce is not repeated ">
<polygon fill="white" stroke="black" points="195.244,-90 195.244,-110 330.756,-110 330.756,-90 195.244,-90"/>
<text text-anchor="middle" x="263" y="-96" font-family="Helvetica,sans-Serif" font-size="10.00">OAuthServer\check_nonce</text>
</a>
</g>
</g>
<!-- Node1&#45;&gt;Node2 -->
<g id="edge1" class="edge"><title>Node1&#45;&gt;Node2</title>
<path fill="none" stroke="midnightblue" d="M123.9,-71.0435C148.416,-76.184 178.449,-82.4813 204.239,-87.8889"/>
<polygon fill="midnightblue" stroke="midnightblue" points="203.757,-91.3638 214.263,-89.9906 205.194,-84.5128 203.757,-91.3638"/>
</g>
<!-- Node3 -->
<g id="node3" class="node"><title>Node3</title>
<g id="a_node3"><a xlink:href="class_o_auth_server.html#a46aafda0ef87fbb52e32958c33714a6d" target="_top" xlink:title="check that the timestamp is new enough ">
<polygon fill="white" stroke="black" points="185.806,-51 185.806,-71 340.194,-71 340.194,-51 185.806,-51"/>
<text text-anchor="middle" x="263" y="-57" font-family="Helvetica,sans-Serif" font-size="10.00">OAuthServer\check_timestamp</text>
</a>
</g>
</g>
<!-- Node1&#45;&gt;Node3 -->
<g id="edge2" class="edge"><title>Node1&#45;&gt;Node3</title>
<path fill="none" stroke="midnightblue" d="M149.779,-61C158.236,-61 166.914,-61 175.517,-61"/>
<polygon fill="midnightblue" stroke="midnightblue" points="175.565,-64.5001 185.565,-61 175.565,-57.5001 175.565,-64.5001"/>
</g>
<!-- Node4 -->
<g id="node4" class="node"><title>Node4</title>
<g id="a_node4"><a xlink:href="class_o_auth_server.html#ab3b0e3026dea9faacb8d56cbb2274103" target="_top" xlink:title="figure out the signature with some defaults ">
<polygon fill="white" stroke="black" points="194.409,-0 194.409,-32 331.591,-32 331.591,-0 194.409,-0"/>
<text text-anchor="start" x="202.409" y="-18" font-family="Helvetica,sans-Serif" font-size="10.00">OAuthServer\get_signature</text>
<text text-anchor="middle" x="263" y="-6" font-family="Helvetica,sans-Serif" font-size="10.00">_method</text>
</a>
</g>
</g>
<!-- Node1&#45;&gt;Node4 -->
<g id="edge3" class="edge"><title>Node1&#45;&gt;Node4</title>
<path fill="none" stroke="midnightblue" d="M117.742,-50.9011C137.798,-46.0489 162.479,-40.0777 185.72,-34.4549"/>
<polygon fill="midnightblue" stroke="midnightblue" points="186.677,-37.8243 195.574,-32.0708 185.031,-31.0206 186.677,-37.8243"/>
</g>
</g>
</svg>
