<?xml version="1.0" encoding="UTF-8" standalone="no"?>
<!DOCTYPE svg PUBLIC "-//W3C//DTD SVG 1.1//EN"
 "http://www.w3.org/Graphics/SVG/1.1/DTD/svg11.dtd">
<!-- Generated by graphviz version 2.30.1 (20130221.2233)
 -->
<!-- Title: CTCT_Admin_Page\edit Pages: 1 -->
<svg width="648pt" height="142pt"
 viewBox="0.00 0.00 648.00 142.00" xmlns="http://www.w3.org/2000/svg" xmlns:xlink="http://www.w3.org/1999/xlink">
<g id="graph0" class="graph" transform="scale(1 1) rotate(0) translate(4 138)">
<title>CTCT_Admin_Page\edit</title>
<polygon fill="white" stroke="white" points="-4,5 -4,-138 645,-138 645,5 -4,5"/>
<!-- Node1 -->
<g id="node1" class="node"><title>Node1</title>
<polygon fill="#bfbfbf" stroke="black" points="-0.191895,-57 -0.191895,-77 124.192,-77 124.192,-57 -0.191895,-57"/>
<text text-anchor="middle" x="62" y="-63" font-family="Helvetica,sans-Serif" font-size="10.00">CTCT_Admin_Page\edit</text>
</g>
<!-- Node2 -->
<g id="node2" class="node"><title>Node2</title>
<g id="a_node2"><a xlink:href="class_c_t_c_t___admin___page.html#acdbed2f16a36a9384b2fa5f01073024d" target="_top" xlink:title="CTCT_Admin_Page\\content">
<polygon fill="white" stroke="black" points="160.468,-57 160.468,-77 301.532,-77 301.532,-57 160.468,-57"/>
<text text-anchor="middle" x="231" y="-63" font-family="Helvetica,sans-Serif" font-size="10.00">CTCT_Admin_Page\content</text>
</a>
</g>
</g>
<!-- Node1&#45;&gt;Node2 -->
<g id="edge1" class="edge"><title>Node1&#45;&gt;Node2</title>
<path fill="none" stroke="midnightblue" d="M134.26,-67C142.888,-67 151.694,-67 160.299,-67"/>
<polygon fill="midnightblue" stroke="midnightblue" points="134.236,-63.5001 124.236,-67 134.236,-70.5001 134.236,-63.5001"/>
</g>
<!-- Node3 -->
<g id="node3" class="node"><title>Node3</title>
<g id="a_node3"><a xlink:href="class_c_t_c_t___admin___page.html#ad4d8edcfbf3023f7f18a6d188adaf99c" target="_top" xlink:title="CTCT_Admin_Page\\page">
<polygon fill="white" stroke="black" points="338.747,-57 338.747,-77 469.253,-77 469.253,-57 338.747,-57"/>
<text text-anchor="middle" x="404" y="-63" font-family="Helvetica,sans-Serif" font-size="10.00">CTCT_Admin_Page\page</text>
</a>
</g>
</g>
<!-- Node2&#45;&gt;Node3 -->
<g id="edge2" class="edge"><title>Node2&#45;&gt;Node3</title>
<path fill="none" stroke="midnightblue" d="M311.644,-67C320.634,-67 329.711,-67 338.474,-67"/>
<polygon fill="midnightblue" stroke="midnightblue" points="311.552,-63.5001 301.552,-67 311.552,-70.5001 311.552,-63.5001"/>
</g>
<!-- Node4 -->
<g id="node4" class="node"><title>Node4</title>
<g id="a_node4"><a xlink:href="class_c_t_c_t___constant___analytics.html#ad379ea8b9d4f8c7735b0f3adeac838fe" target="_top" xlink:title="CTCT_Constant_Analytics\l\\addActions">
<polygon fill="white" stroke="black" points="506.089,-102 506.089,-134 639.911,-134 639.911,-102 506.089,-102"/>
<text text-anchor="start" x="514.089" y="-120" font-family="Helvetica,sans-Serif" font-size="10.00">CTCT_Constant_Analytics</text>
<text text-anchor="middle" x="573" y="-108" font-family="Helvetica,sans-Serif" font-size="10.00">\addActions</text>
</a>
</g>
</g>
<!-- Node3&#45;&gt;Node4 -->
<g id="edge3" class="edge"><title>Node3&#45;&gt;Node4</title>
<path fill="none" stroke="midnightblue" d="M447.645,-80.0233C469.474,-86.6898 496.248,-94.8661 519.354,-101.922"/>
<polygon fill="midnightblue" stroke="midnightblue" points="448.58,-76.6494 437.994,-77.076 446.536,-83.3441 448.58,-76.6494"/>
</g>
<!-- Node5 -->
<g id="node5" class="node"><title>Node5</title>
<g id="a_node5"><a xlink:href="class_c_t_c_t___constant___analytics.html#a0b5589251b3a6cd9cf457fed695c885c" target="_top" xlink:title="CTCT_Constant_Analytics\l\\enqueue_scripts">
<polygon fill="white" stroke="black" points="506.089,-51 506.089,-83 639.911,-83 639.911,-51 506.089,-51"/>
<text text-anchor="start" x="514.089" y="-69" font-family="Helvetica,sans-Serif" font-size="10.00">CTCT_Constant_Analytics</text>
<text text-anchor="middle" x="573" y="-57" font-family="Helvetica,sans-Serif" font-size="10.00">\enqueue_scripts</text>
</a>
</g>
</g>
<!-- Node3&#45;&gt;Node5 -->
<g id="edge4" class="edge"><title>Node3&#45;&gt;Node5</title>
<path fill="none" stroke="midnightblue" d="M479.74,-67C488.477,-67 497.343,-67 505.95,-67"/>
<polygon fill="midnightblue" stroke="midnightblue" points="479.567,-63.5001 469.567,-67 479.567,-70.5001 479.567,-63.5001"/>
</g>
<!-- Node6 -->
<g id="node6" class="node"><title>Node6</title>
<g id="a_node6"><a xlink:href="class_c_t_c_t___constant___analytics.html#a835b6b00979fb3965d01a93767d5199e" target="_top" xlink:title="CTCT_Constant_Analytics\l\\admin_head">
<polygon fill="white" stroke="black" points="506.089,-0 506.089,-32 639.911,-32 639.911,-0 506.089,-0"/>
<text text-anchor="start" x="514.089" y="-18" font-family="Helvetica,sans-Serif" font-size="10.00">CTCT_Constant_Analytics</text>
<text text-anchor="middle" x="573" y="-6" font-family="Helvetica,sans-Serif" font-size="10.00">\admin_head</text>
</a>
</g>
</g>
<!-- Node3&#45;&gt;Node6 -->
<g id="edge5" class="edge"><title>Node3&#45;&gt;Node6</title>
<path fill="none" stroke="midnightblue" d="M447.645,-53.9767C469.474,-47.3102 496.248,-39.1339 519.354,-32.0777"/>
<polygon fill="midnightblue" stroke="midnightblue" points="446.536,-50.6559 437.994,-56.924 448.58,-57.3506 446.536,-50.6559"/>
</g>
</g>
</svg>
