<?xml version="1.0" encoding="UTF-8" standalone="no"?>
<!DOCTYPE svg PUBLIC "-//W3C//DTD SVG 1.1//EN"
 "http://www.w3.org/Graphics/SVG/1.1/DTD/svg11.dtd">
<!-- Generated by graphviz version 2.30.1 (20130221.2233)
 -->
<!-- Title: CTCT_Admin_Page\print_errors Pages: 1 -->
<svg width="474pt" height="142pt"
 viewBox="0.00 0.00 474.00 142.00" xmlns="http://www.w3.org/2000/svg" xmlns:xlink="http://www.w3.org/1999/xlink">
<g id="graph0" class="graph" transform="scale(1 1) rotate(0) translate(4 138)">
<title>CTCT_Admin_Page\print_errors</title>
<polygon fill="white" stroke="white" points="-4,5 -4,-138 471,-138 471,5 -4,5"/>
<!-- Node1 -->
<g id="node1" class="node"><title>Node1</title>
<polygon fill="#bfbfbf" stroke="black" points="0.143066,-51 0.143066,-83 127.857,-83 127.857,-51 0.143066,-51"/>
<text text-anchor="start" x="8.14307" y="-69" font-family="Helvetica,sans-Serif" font-size="10.00">CTCT_Admin_Page\print</text>
<text text-anchor="middle" x="64" y="-57" font-family="Helvetica,sans-Serif" font-size="10.00">_errors</text>
</g>
<!-- Node2 -->
<g id="node2" class="node"><title>Node2</title>
<g id="a_node2"><a xlink:href="class_c_t_c_t___admin___page.html#ad4d8edcfbf3023f7f18a6d188adaf99c" target="_top" xlink:title="CTCT_Admin_Page\\page">
<polygon fill="white" stroke="black" points="164.747,-57 164.747,-77 295.253,-77 295.253,-57 164.747,-57"/>
<text text-anchor="middle" x="230" y="-63" font-family="Helvetica,sans-Serif" font-size="10.00">CTCT_Admin_Page\page</text>
</a>
</g>
</g>
<!-- Node1&#45;&gt;Node2 -->
<g id="edge1" class="edge"><title>Node1&#45;&gt;Node2</title>
<path fill="none" stroke="midnightblue" d="M138.187,-67C146.992,-67 155.935,-67 164.602,-67"/>
<polygon fill="midnightblue" stroke="midnightblue" points="137.938,-63.5001 127.938,-67 137.938,-70.5001 137.938,-63.5001"/>
</g>
<!-- Node3 -->
<g id="node3" class="node"><title>Node3</title>
<g id="a_node3"><a xlink:href="class_c_t_c_t___constant___analytics.html#ad379ea8b9d4f8c7735b0f3adeac838fe" target="_top" xlink:title="CTCT_Constant_Analytics\l\\addActions">
<polygon fill="white" stroke="black" points="332.089,-102 332.089,-134 465.911,-134 465.911,-102 332.089,-102"/>
<text text-anchor="start" x="340.089" y="-120" font-family="Helvetica,sans-Serif" font-size="10.00">CTCT_Constant_Analytics</text>
<text text-anchor="middle" x="399" y="-108" font-family="Helvetica,sans-Serif" font-size="10.00">\addActions</text>
</a>
</g>
</g>
<!-- Node2&#45;&gt;Node3 -->
<g id="edge2" class="edge"><title>Node2&#45;&gt;Node3</title>
<path fill="none" stroke="midnightblue" d="M273.645,-80.0233C295.474,-86.6898 322.248,-94.8661 345.354,-101.922"/>
<polygon fill="midnightblue" stroke="midnightblue" points="274.58,-76.6494 263.994,-77.076 272.536,-83.3441 274.58,-76.6494"/>
</g>
<!-- Node4 -->
<g id="node4" class="node"><title>Node4</title>
<g id="a_node4"><a xlink:href="class_c_t_c_t___constant___analytics.html#a835b6b00979fb3965d01a93767d5199e" target="_top" xlink:title="CTCT_Constant_Analytics\l\\admin_head">
<polygon fill="white" stroke="black" points="332.089,-51 332.089,-83 465.911,-83 465.911,-51 332.089,-51"/>
<text text-anchor="start" x="340.089" y="-69" font-family="Helvetica,sans-Serif" font-size="10.00">CTCT_Constant_Analytics</text>
<text text-anchor="middle" x="399" y="-57" font-family="Helvetica,sans-Serif" font-size="10.00">\admin_head</text>
</a>
</g>
</g>
<!-- Node2&#45;&gt;Node4 -->
<g id="edge3" class="edge"><title>Node2&#45;&gt;Node4</title>
<path fill="none" stroke="midnightblue" d="M305.74,-67C314.477,-67 323.343,-67 331.95,-67"/>
<polygon fill="midnightblue" stroke="midnightblue" points="305.567,-63.5001 295.567,-67 305.567,-70.5001 305.567,-63.5001"/>
</g>
<!-- Node5 -->
<g id="node5" class="node"><title>Node5</title>
<g id="a_node5"><a xlink:href="class_c_t_c_t___constant___analytics.html#a0b5589251b3a6cd9cf457fed695c885c" target="_top" xlink:title="CTCT_Constant_Analytics\l\\enqueue_scripts">
<polygon fill="white" stroke="black" points="332.089,-0 332.089,-32 465.911,-32 465.911,-0 332.089,-0"/>
<text text-anchor="start" x="340.089" y="-18" font-family="Helvetica,sans-Serif" font-size="10.00">CTCT_Constant_Analytics</text>
<text text-anchor="middle" x="399" y="-6" font-family="Helvetica,sans-Serif" font-size="10.00">\enqueue_scripts</text>
</a>
</g>
</g>
<!-- Node2&#45;&gt;Node5 -->
<g id="edge4" class="edge"><title>Node2&#45;&gt;Node5</title>
<path fill="none" stroke="midnightblue" d="M273.645,-53.9767C295.474,-47.3102 322.248,-39.1339 345.354,-32.0777"/>
<polygon fill="midnightblue" stroke="midnightblue" points="272.536,-50.6559 263.994,-56.924 274.58,-57.3506 272.536,-50.6559"/>
</g>
</g>
</svg>
