<?xml version="1.0" encoding="UTF-8" standalone="no"?>
<!DOCTYPE svg PUBLIC "-//W3C//DTD SVG 1.1//EN"
 "http://www.w3.org/Graphics/SVG/1.1/DTD/svg11.dtd">
<!-- Generated by graphviz version 2.30.1 (20130221.2233)
 -->
<!-- Title: ContactList\createXml Pages: 1 -->
<svg width="606pt" height="28pt"
 viewBox="0.00 0.00 606.00 28.00" xmlns="http://www.w3.org/2000/svg" xmlns:xlink="http://www.w3.org/1999/xlink">
<g id="graph0" class="graph" transform="scale(1 1) rotate(0) translate(4 24)">
<title>ContactList\createXml</title>
<polygon fill="white" stroke="white" points="-4,5 -4,-24 603,-24 603,5 -4,5"/>
<!-- Node1 -->
<g id="node1" class="node"><title>Node1</title>
<polygon fill="#bfbfbf" stroke="black" points="0.0913086,-0 0.0913086,-20 113.909,-20 113.909,-0 0.0913086,-0"/>
<text text-anchor="middle" x="57" y="-6" font-family="Helvetica,sans-Serif" font-size="10.00">ContactList\createXml</text>
</g>
<!-- Node2 -->
<g id="node2" class="node"><title>Node2</title>
<g id="a_node2"><a xlink:href="class_c_c_object.html#a2175b643672414fd5dd302e8feb7bc55" target="_top" xlink:title="Validate an object to check that all required fields have been supplied &#160;array $params &#45; object prope...">
<polygon fill="white" stroke="black" points="150.705,-0 150.705,-20 247.295,-20 247.295,-0 150.705,-0"/>
<text text-anchor="middle" x="199" y="-6" font-family="Helvetica,sans-Serif" font-size="10.00">CCObject\validate</text>
</a>
</g>
</g>
<!-- Node1&#45;&gt;Node2 -->
<g id="edge1" class="edge"><title>Node1&#45;&gt;Node2</title>
<path fill="none" stroke="midnightblue" d="M114.137,-10C122.776,-10 131.708,-10 140.379,-10"/>
<polygon fill="midnightblue" stroke="midnightblue" points="140.404,-13.5001 150.404,-10 140.404,-6.5001 140.404,-13.5001"/>
</g>
<!-- Node3 -->
<g id="node3" class="node"><title>Node3</title>
<g id="a_node3"><a xlink:href="class_c_t_c_t_exception.html#adc8307ec7d7a2c730b0dac678d0e7fcb" target="_top" xlink:title="CTCTException\\generateError">
<polygon fill="white" stroke="black" points="284.473,-0 284.473,-20 435.527,-20 435.527,-0 284.473,-0"/>
<text text-anchor="middle" x="360" y="-6" font-family="Helvetica,sans-Serif" font-size="10.00">CTCTException\generateError</text>
</a>
</g>
</g>
<!-- Node2&#45;&gt;Node3 -->
<g id="edge2" class="edge"><title>Node2&#45;&gt;Node3</title>
<path fill="none" stroke="midnightblue" d="M247.705,-10C256.079,-10 265.017,-10 274.049,-10"/>
<polygon fill="midnightblue" stroke="midnightblue" points="274.261,-13.5001 284.261,-10 274.261,-6.5001 274.261,-13.5001"/>
</g>
<!-- Node4 -->
<g id="node4" class="node"><title>Node4</title>
<g id="a_node4"><a xlink:href="class_c_t_c_t_exception.html#a6a86531406328bbd2a6c6252b7fb3a70" target="_top" xlink:title="CTCTException\\logError">
<polygon fill="white" stroke="black" points="472.54,-0 472.54,-20 597.46,-20 597.46,-0 472.54,-0"/>
<text text-anchor="middle" x="535" y="-6" font-family="Helvetica,sans-Serif" font-size="10.00">CTCTException\logError</text>
</a>
</g>
</g>
<!-- Node3&#45;&gt;Node4 -->
<g id="edge3" class="edge"><title>Node3&#45;&gt;Node4</title>
<path fill="none" stroke="midnightblue" d="M435.623,-10C444.431,-10 453.406,-10 462.174,-10"/>
<polygon fill="midnightblue" stroke="midnightblue" points="462.349,-13.5001 472.349,-10 462.349,-6.5001 462.349,-13.5001"/>
</g>
</g>
</svg>
