<?xml version="1.0" encoding="UTF-8" standalone="no"?>
<!DOCTYPE svg PUBLIC "-//W3C//DTD SVG 1.1//EN"
 "http://www.w3.org/Graphics/SVG/1.1/DTD/svg11.dtd">
<!-- Generated by graphviz version 2.30.1 (20130221.2233)
 -->
<!-- Title: Net_DNS_Resolver\send_udp_with_sock_lib Pages: 1 -->
<svg width="892pt" height="144pt"
 viewBox="0.00 0.00 892.00 144.44" xmlns="http://www.w3.org/2000/svg" xmlns:xlink="http://www.w3.org/1999/xlink">
<g id="graph0" class="graph" transform="scale(1 1) rotate(0) translate(4 140.44)">
<title>Net_DNS_Resolver\send_udp_with_sock_lib</title>
<polygon fill="white" stroke="white" points="-4,5 -4,-140.44 889,-140.44 889,5 -4,5"/>
<!-- Node1 -->
<g id="node1" class="node"><title>Node1</title>
<polygon fill="#bfbfbf" stroke="black" points="0.140625,-48.4397 0.140625,-80.4397 127.859,-80.4397 127.859,-48.4397 0.140625,-48.4397"/>
<text text-anchor="start" x="8.14062" y="-66.4397" font-family="Helvetica,sans-Serif" font-size="10.00">Net_DNS_Resolver\send</text>
<text text-anchor="middle" x="64" y="-54.4397" font-family="Helvetica,sans-Serif" font-size="10.00">_udp_with_sock_lib</text>
</g>
<!-- Node2 -->
<g id="node2" class="node"><title>Node2</title>
<g id="a_node2"><a xlink:href="class_net___d_n_s___resolver.html#a3bf22a7a58480dd7a6fd0dd17807fc70" target="_top" xlink:title="Gets or sets the nameservers to be queried. ">
<polygon fill="white" stroke="black" points="164.084,-54.4397 164.084,-74.4397 327.916,-74.4397 327.916,-54.4397 164.084,-54.4397"/>
<text text-anchor="middle" x="246" y="-60.4397" font-family="Helvetica,sans-Serif" font-size="10.00">Net_DNS_Resolver\nameservers</text>
</a>
</g>
</g>
<!-- Node1&#45;&gt;Node2 -->
<g id="edge1" class="edge"><title>Node1&#45;&gt;Node2</title>
<path fill="none" stroke="midnightblue" d="M127.955,-64.4397C136.335,-64.4397 145.06,-64.4397 153.799,-64.4397"/>
<polygon fill="midnightblue" stroke="midnightblue" points="154.046,-67.9398 164.046,-64.4397 154.046,-60.9398 154.046,-67.9398"/>
</g>
<!-- Node3 -->
<g id="node3" class="node"><title>Node3</title>
<g id="a_node3"><a xlink:href="class_net___d_n_s___resolver.html#ae1bb14089519fe774d025156114aae4f" target="_top" xlink:title="Net_DNS_Resolver\\cname_addr">
<polygon fill="white" stroke="black" points="364.188,-116.44 364.188,-136.44 525.812,-136.44 525.812,-116.44 364.188,-116.44"/>
<text text-anchor="middle" x="445" y="-122.44" font-family="Helvetica,sans-Serif" font-size="10.00">Net_DNS_Resolver\cname_addr</text>
</a>
</g>
</g>
<!-- Node2&#45;&gt;Node3 -->
<g id="edge2" class="edge"><title>Node2&#45;&gt;Node3</title>
<path fill="none" stroke="midnightblue" d="M278.772,-74.5194C302.299,-81.9755 335.141,-92.3672 364,-101.44 376.377,-105.331 389.838,-109.544 402.125,-113.383"/>
<polygon fill="midnightblue" stroke="midnightblue" points="401.096,-116.728 411.684,-116.368 403.182,-110.047 401.096,-116.728"/>
</g>
<!-- Node4 -->
<g id="node4" class="node"><title>Node4</title>
<g id="a_node4"><a xlink:href="class_net___d_n_s___resolver.html#a4358663ec326e406c398f6cb09bd5544" target="_top" xlink:title="Initializes the Resolver Object. ">
<polygon fill="white" stroke="black" points="384.202,-26.4397 384.202,-58.4397 505.798,-58.4397 505.798,-26.4397 384.202,-26.4397"/>
<text text-anchor="start" x="392.202" y="-44.4397" font-family="Helvetica,sans-Serif" font-size="10.00">Net_DNS_Resolver\Net</text>
<text text-anchor="middle" x="445" y="-32.4397" font-family="Helvetica,sans-Serif" font-size="10.00">_DNS_Resolver</text>
</a>
</g>
</g>
<!-- Node2&#45;&gt;Node4 -->
<g id="edge3" class="edge"><title>Node2&#45;&gt;Node4</title>
<path fill="none" stroke="midnightblue" d="M327.98,-55.3962C343.242,-53.6918 359.084,-51.9227 373.976,-50.2597"/>
<polygon fill="midnightblue" stroke="midnightblue" points="374.565,-53.7157 384.115,-49.1274 373.788,-46.7589 374.565,-53.7157"/>
</g>
<!-- Node5 -->
<g id="node5" class="node"><title>Node5</title>
<g id="a_node5"><a xlink:href="class_net___d_n_s___resolver.html#aa2e8d58074354b1f9292500119470431" target="_top" xlink:title="Initalizes the resolver library. ">
<polygon fill="white" stroke="black" points="561.865,-32.4397 561.865,-52.4397 700.135,-52.4397 700.135,-32.4397 561.865,-32.4397"/>
<text text-anchor="middle" x="631" y="-38.4397" font-family="Helvetica,sans-Serif" font-size="10.00">Net_DNS_Resolver\res_init</text>
</a>
</g>
</g>
<!-- Node4&#45;&gt;Node5 -->
<g id="edge4" class="edge"><title>Node4&#45;&gt;Node5</title>
<path fill="none" stroke="midnightblue" d="M505.994,-42.4397C520.479,-42.4397 536.174,-42.4397 551.372,-42.4397"/>
<polygon fill="midnightblue" stroke="midnightblue" points="551.793,-45.9398 561.793,-42.4397 551.793,-38.9398 551.793,-45.9398"/>
</g>
<!-- Node6 -->
<g id="node6" class="node"><title>Node6</title>
<g id="a_node6"><a xlink:href="class_net___d_n_s___resolver.html#ae4def11574ad6e93176670c726541bed" target="_top" xlink:title="Reads and parses a resolver configuration file. ">
<polygon fill="white" stroke="black" points="746.976,-59.4397 746.976,-91.4397 873.024,-91.4397 873.024,-59.4397 746.976,-59.4397"/>
<text text-anchor="start" x="754.976" y="-77.4397" font-family="Helvetica,sans-Serif" font-size="10.00">Net_DNS_Resolver\read</text>
<text text-anchor="middle" x="810" y="-65.4397" font-family="Helvetica,sans-Serif" font-size="10.00">_config</text>
</a>
</g>
</g>
<!-- Node5&#45;&gt;Node6 -->
<g id="edge5" class="edge"><title>Node5&#45;&gt;Node6</title>
<path fill="none" stroke="midnightblue" d="M686.068,-52.5201C702.13,-55.5147 719.985,-58.8436 736.997,-62.0154"/>
<polygon fill="midnightblue" stroke="midnightblue" points="736.424,-65.4687 746.896,-63.8609 737.707,-58.5873 736.424,-65.4687"/>
</g>
<!-- Node7 -->
<g id="node7" class="node"><title>Node7</title>
<g id="a_node7"><a xlink:href="class_net___d_n_s___resolver.html#a2a3d25c5dd2b1810b60ad05b84787855" target="_top" xlink:title="Examines the environment for resolver config information. ">
<polygon fill="white" stroke="black" points="736.133,-9.43968 736.133,-29.4397 883.867,-29.4397 883.867,-9.43968 736.133,-9.43968"/>
<text text-anchor="middle" x="810" y="-15.4397" font-family="Helvetica,sans-Serif" font-size="10.00">Net_DNS_Resolver\read_env</text>
</a>
</g>
</g>
<!-- Node5&#45;&gt;Node7 -->
<g id="edge7" class="edge"><title>Node5&#45;&gt;Node7</title>
<path fill="none" stroke="midnightblue" d="M700.18,-33.5802C708.579,-32.4887 717.237,-31.3637 725.827,-30.2474"/>
<polygon fill="midnightblue" stroke="midnightblue" points="726.396,-33.7031 735.862,-28.9436 725.494,-26.7614 726.396,-33.7031"/>
</g>
<!-- Node6&#45;&gt;Node2 -->
<g id="edge6" class="edge"><title>Node6&#45;&gt;Node2</title>
<path fill="none" stroke="midnightblue" d="M746.722,-74.4705C660.667,-73.0969 500.541,-70.4175 364,-67.4397 355.677,-67.2582 347.022,-67.0579 338.354,-66.8496"/>
<polygon fill="midnightblue" stroke="midnightblue" points="338.274,-63.3467 328.191,-66.6019 338.103,-70.3446 338.274,-63.3467"/>
</g>
<!-- Node7&#45;&gt;Node2 -->
<g id="edge8" class="edge"><title>Node7&#45;&gt;Node2</title>
<path fill="none" stroke="midnightblue" d="M736.1,-10.0915C647.266,-0.721964 493.049,9.00291 364,-16.4397 331.958,-22.7569 297.65,-37.9388 274.528,-49.5508"/>
<polygon fill="midnightblue" stroke="midnightblue" points="272.636,-46.5879 265.342,-54.2726 275.836,-52.8136 272.636,-46.5879"/>
</g>
</g>
</svg>
