<?xml version="1.0" encoding="UTF-8" standalone="no"?>
<!DOCTYPE svg PUBLIC "-//W3C//DTD SVG 1.1//EN"
 "http://www.w3.org/Graphics/SVG/1.1/DTD/svg11.dtd">
<!-- Generated by graphviz version 2.30.1 (20130221.2233)
 -->
<!-- Title: CampaignsCollection\getSchedule Pages: 1 -->
<!--zoomable 130 -->
<svg id="main" version="1.1" xmlns="http://www.w3.org/2000/svg" xmlns:xlink="http://www.w3.org/1999/xlink" xml:space="preserve" onload="init(evt)">
<style type="text/css"><![CDATA[
.edge:hover path { stroke: red; }
.edge:hover polygon { stroke: red; fill: red; }
]]></style>
<script type="text/javascript"><![CDATA[
var edges = document.getElementsByTagName('g');
if (edges && edges.length) {
  for (var i=0;i<edges.length;i++) {
    if (edges[i].id.substr(0,4)=='edge') {
      edges[i].setAttribute('class','edge');
    }
  }
}
]]></script>
        <defs>
                <circle id="rim" cx="0" cy="0" r="7"/>
                <circle id="rim2" cx="0" cy="0" r="3.5"/>
                <g id="zoomPlus">
                        <use xlink:href="#rim" fill="#404040">
                                <set attributeName="fill" to="#808080" begin="zoomplus.mouseover" end="zoomplus.mouseout"/>
                        </use>
                        <path d="M-4,0h8M0,-4v8" fill="none" stroke="white" stroke-width="1.5" pointer-events="none"/>
                </g>
                <g id="zoomMin">
                        <use xlink:href="#rim" fill="#404040">
                                <set attributeName="fill" to="#808080" begin="zoomminus.mouseover" end="zoomminus.mouseout"/>
                        </use>
                        <path d="M-4,0h8" fill="none" stroke="white" stroke-width="1.5" pointer-events="none"/>
                </g>
                <g id="dirArrow">
                        <path fill="none" stroke="white" stroke-width="1.5" d="M0,-3.0v7 M-2.5,-0.5L0,-3.0L2.5,-0.5"/>
                </g>
               <g id="resetDef">
                       <use xlink:href="#rim2" fill="#404040">
                               <set attributeName="fill" to="#808080" begin="reset.mouseover" end="reset.mouseout"/>
                       </use>
               </g>
        </defs>

<script type="text/javascript">
var viewWidth = 650;
var viewHeight = 130;
var sectionId = 'dynsection-9';
</script>
<script xlink:href="svgpan.js"/>
<svg id="graph" class="graph">
<g id="viewport">
<title>CampaignsCollection\getSchedule</title>
<polygon fill="white" stroke="white" points="-4,5 -4,-126 647,-126 647,5 -4,5"/>
<!-- Node1 -->
<g id="node1" class="node"><title>Node1</title>
<polygon fill="#bfbfbf" stroke="black" points="-0.246094,-35 -0.246094,-67 110.246,-67 110.246,-35 -0.246094,-35"/>
<text text-anchor="start" x="7.75391" y="-53" font-family="Helvetica,sans-Serif" font-size="10.00">CampaignsCollection</text>
<text text-anchor="middle" x="55" y="-41" font-family="Helvetica,sans-Serif" font-size="10.00">\getSchedule</text>
</g>
<!-- Node2 -->
<g id="node2" class="node"><title>Node2</title>
<g id="a_node2"><a xlink:href="class_schedule.html#ae8f49eb08ce5ca4092caf4da9708f237" target="_top" xlink:title="Schedule\\createStruct">
<polygon fill="white" stroke="black" points="160.806,-61 160.806,-81 275.194,-81 275.194,-61 160.806,-61"/>
<text text-anchor="middle" x="218" y="-67" font-family="Helvetica,sans-Serif" font-size="10.00">Schedule\createStruct</text>
</a>
</g>
</g>
<!-- Node1&#45;&gt;Node2 -->
<g id="edge1" class="edge"><title>Node1&#45;&gt;Node2</title>
<path fill="none" stroke="midnightblue" d="M110.507,-57.7711C123.374,-59.3695 137.234,-61.0912 150.563,-62.7469"/>
<polygon fill="midnightblue" stroke="midnightblue" points="150.271,-66.2375 160.626,-63.9971 151.134,-59.2909 150.271,-66.2375"/>
</g>
<!-- Node3 -->
<g id="node3" class="node"><title>Node3</title>
<g id="a_node3"><a xlink:href="class_c_t_c_t_request.html#aad92e5787f6d3fdf00760d99505aa6db" target="_top" xlink:title="CTCTRequest\\makeRequest">
<polygon fill="white" stroke="black" points="145.808,-22 145.808,-42 290.192,-42 290.192,-22 145.808,-22"/>
<text text-anchor="middle" x="218" y="-28" font-family="Helvetica,sans-Serif" font-size="10.00">CTCTRequest\makeRequest</text>
</a>
</g>
</g>
<!-- Node1&#45;&gt;Node3 -->
<g id="edge2" class="edge"><title>Node1&#45;&gt;Node3</title>
<path fill="none" stroke="midnightblue" d="M110.507,-44.5675C118.638,-43.608 127.164,-42.6017 135.703,-41.594"/>
<polygon fill="midnightblue" stroke="midnightblue" points="136.188,-45.0612 145.709,-40.4132 135.368,-38.1094 136.188,-45.0612"/>
</g>
<!-- Node4 -->
<g id="node4" class="node"><title>Node4</title>
<g id="a_node4"><a xlink:href="class_o_auth_request.html#afe9d0f6cb8e0dadb1c0faeea9ecafe45" target="_top" xlink:title="pretty much a helper function to set up the request ">
<polygon fill="white" stroke="black" points="326.079,-39 326.079,-71 479.921,-71 479.921,-39 326.079,-39"/>
<text text-anchor="start" x="334.079" y="-57" font-family="Helvetica,sans-Serif" font-size="10.00">OAuthRequest\from_consumer</text>
<text text-anchor="middle" x="403" y="-45" font-family="Helvetica,sans-Serif" font-size="10.00">_and_token</text>
</a>
</g>
</g>
<!-- Node3&#45;&gt;Node4 -->
<g id="edge3" class="edge"><title>Node3&#45;&gt;Node4</title>
<path fill="none" stroke="midnightblue" d="M290.277,-40.9583C298.716,-42.019 307.397,-43.11 316.013,-44.1929"/>
<polygon fill="midnightblue" stroke="midnightblue" points="315.72,-47.6835 326.079,-45.458 316.593,-40.7382 315.72,-47.6835"/>
</g>
<!-- Node7 -->
<g id="node7" class="node"><title>Node7</title>
<g id="a_node7"><a xlink:href="class_c_t_c_t_exception.html#adc8307ec7d7a2c730b0dac678d0e7fcb" target="_top" xlink:title="CTCTException\\generateError">
<polygon fill="white" stroke="black" points="327.473,-0 327.473,-20 478.527,-20 478.527,-0 327.473,-0"/>
<text text-anchor="middle" x="403" y="-6" font-family="Helvetica,sans-Serif" font-size="10.00">CTCTException\generateError</text>
</a>
</g>
</g>
<!-- Node3&#45;&gt;Node7 -->
<g id="edge6" class="edge"><title>Node3&#45;&gt;Node7</title>
<path fill="none" stroke="midnightblue" d="M290.277,-23.4312C299.099,-22.3706 308.186,-21.2781 317.187,-20.1961"/>
<polygon fill="midnightblue" stroke="midnightblue" points="317.782,-23.6499 327.293,-18.9812 316.946,-16.6999 317.782,-23.6499"/>
</g>
<!-- Node5 -->
<g id="node5" class="node"><title>Node5</title>
<g id="a_node5"><a xlink:href="class_o_auth_request.html#ae544b1c10b82d5a82dcc259064763420" target="_top" xlink:title="util function: current nonce ">
<polygon fill="white" stroke="black" points="517.074,-90 517.074,-122 640.926,-122 640.926,-90 517.074,-90"/>
<text text-anchor="start" x="525.074" y="-108" font-family="Helvetica,sans-Serif" font-size="10.00">OAuthRequest\generate</text>
<text text-anchor="middle" x="579" y="-96" font-family="Helvetica,sans-Serif" font-size="10.00">_nonce</text>
</a>
</g>
</g>
<!-- Node4&#45;&gt;Node5 -->
<g id="edge4" class="edge"><title>Node4&#45;&gt;Node5</title>
<path fill="none" stroke="midnightblue" d="M459.055,-71.1367C476.36,-76.209 495.624,-81.8552 513.522,-87.1012"/>
<polygon fill="midnightblue" stroke="midnightblue" points="512.723,-90.5142 523.303,-89.9683 514.692,-83.7968 512.723,-90.5142"/>
</g>
<!-- Node6 -->
<g id="node6" class="node"><title>Node6</title>
<g id="a_node6"><a xlink:href="class_o_auth_request.html#adfc6b936799f705d9a4442961a26e8cb" target="_top" xlink:title="util function: current timestamp ">
<polygon fill="white" stroke="black" points="517.074,-39 517.074,-71 640.926,-71 640.926,-39 517.074,-39"/>
<text text-anchor="start" x="525.074" y="-57" font-family="Helvetica,sans-Serif" font-size="10.00">OAuthRequest\generate</text>
<text text-anchor="middle" x="579" y="-45" font-family="Helvetica,sans-Serif" font-size="10.00">_timestamp</text>
</a>
</g>
</g>
<!-- Node4&#45;&gt;Node6 -->
<g id="edge5" class="edge"><title>Node4&#45;&gt;Node6</title>
<path fill="none" stroke="midnightblue" d="M480.066,-55C488.939,-55 497.966,-55 506.771,-55"/>
<polygon fill="midnightblue" stroke="midnightblue" points="506.981,-58.5001 516.981,-55 506.981,-51.5001 506.981,-58.5001"/>
</g>
<!-- Node8 -->
<g id="node8" class="node"><title>Node8</title>
<g id="a_node8"><a xlink:href="class_c_t_c_t_exception.html#a6a86531406328bbd2a6c6252b7fb3a70" target="_top" xlink:title="CTCTException\\logError">
<polygon fill="white" stroke="black" points="516.54,-0 516.54,-20 641.46,-20 641.46,-0 516.54,-0"/>
<text text-anchor="middle" x="579" y="-6" font-family="Helvetica,sans-Serif" font-size="10.00">CTCTException\logError</text>
</a>
</g>
</g>
<!-- Node7&#45;&gt;Node8 -->
<g id="edge7" class="edge"><title>Node7&#45;&gt;Node8</title>
<path fill="none" stroke="midnightblue" d="M478.549,-10C487.73,-10 497.101,-10 506.239,-10"/>
<polygon fill="midnightblue" stroke="midnightblue" points="506.437,-13.5001 516.437,-10 506.436,-6.5001 506.437,-13.5001"/>
</g>
</g>
</svg>
        <g id="navigator" transform="translate(0 0)" fill="#404254">
                <rect fill="#f2f5e9" fill-opacity="0.5" stroke="#606060" stroke-width=".5" x="0" y="0" width="60" height="60"/>
                <use id="zoomplus" xlink:href="#zoomPlus" x="17" y="9" onmousedown="handleZoom(evt,'in')"/>
                <use id="zoomminus" xlink:href="#zoomMin" x="42" y="9" onmousedown="handleZoom(evt,'out')"/>
                <use id="reset" xlink:href="#resetDef" x="30" y="36" onmousedown="handleReset()"/>
                <g id="arrowUp" xlink:href="#dirArrow" transform="translate(30 24)" onmousedown="handlePan(0,-1)">
                  <use xlink:href="#rim" fill="#404040">
                        <set attributeName="fill" to="#808080" begin="arrowUp.mouseover" end="arrowUp.mouseout"/>
                  </use>
                  <path fill="none" stroke="white" stroke-width="1.5" d="M0,-3.0v7 M-2.5,-0.5L0,-3.0L2.5,-0.5"/>
                </g>
                <g id="arrowRight" xlink:href="#dirArrow" transform="rotate(90) translate(36 -43)" onmousedown="handlePan(1,0)">
                  <use xlink:href="#rim" fill="#404040">
                        <set attributeName="fill" to="#808080" begin="arrowRight.mouseover" end="arrowRight.mouseout"/>
                  </use>
                  <path fill="none" stroke="white" stroke-width="1.5" d="M0,-3.0v7 M-2.5,-0.5L0,-3.0L2.5,-0.5"/>
                </g>
                <g id="arrowDown" xlink:href="#dirArrow" transform="rotate(180) translate(-30 -48)" onmousedown="handlePan(0,1)">
                  <use xlink:href="#rim" fill="#404040">
                        <set attributeName="fill" to="#808080" begin="arrowDown.mouseover" end="arrowDown.mouseout"/>
                  </use>
                  <path fill="none" stroke="white" stroke-width="1.5" d="M0,-3.0v7 M-2.5,-0.5L0,-3.0L2.5,-0.5"/>
                </g>
                <g id="arrowLeft" xlink:href="#dirArrow" transform="rotate(270) translate(-36 17)" onmousedown="handlePan(-1,0)">
                  <use xlink:href="#rim" fill="#404040">
                        <set attributeName="fill" to="#808080" begin="arrowLeft.mouseover" end="arrowLeft.mouseout"/>
                  </use>
                  <path fill="none" stroke="white" stroke-width="1.5" d="M0,-3.0v7 M-2.5,-0.5L0,-3.0L2.5,-0.5"/>
                </g>
        </g>
        <svg viewBox="0 0 15 15" width="100%" height="30px" preserveAspectRatio="xMaxYMin meet">
         <g id="arrow_out" transform="scale(0.3 0.3)">
          <a xlink:href="class_campaigns_collection_a7b245605bb0707dfec9d384521a39ad6_cgraph_org.svg" target="_base">
           <rect id="button" ry="5" rx="5" y="6" x="6" height="38" width="38"
                fill="#f2f5e9" fill-opacity="0.5" stroke="#606060" stroke-width="1.0"/>
           <path id="arrow"
             d="M 11.500037,31.436501 C 11.940474,20.09759 22.043105,11.32322 32.158766,21.979434 L 37.068811,17.246167 C 37.068811,17.246167 37.088388,32 37.088388,32 L 22.160133,31.978069 C 22.160133,31.978069 26.997745,27.140456 26.997745,27.140456 C 18.528582,18.264221 13.291696,25.230495 11.500037,31.436501 z"
             style="fill:#404040;"/>
          </a>
         </g>
        </svg>
</svg>
