<?xml version="1.0" encoding="UTF-8" standalone="no"?>
<!DOCTYPE svg PUBLIC "-//W3C//DTD SVG 1.1//EN"
 "http://www.w3.org/Graphics/SVG/1.1/DTD/svg11.dtd">
<!-- Generated by graphviz version 2.30.1 (20130221.2233)
 -->
<!-- Title: CTCT_EventSpot\dashboard_make_table Pages: 1 -->
<svg width="316pt" height="40pt"
 viewBox="0.00 0.00 316.00 40.00" xmlns="http://www.w3.org/2000/svg" xmlns:xlink="http://www.w3.org/1999/xlink">
<g id="graph0" class="graph" transform="scale(1 1) rotate(0) translate(4 36)">
<title>CTCT_EventSpot\dashboard_make_table</title>
<polygon fill="white" stroke="white" points="-4,5 -4,-36 313,-36 313,5 -4,5"/>
<!-- Node1 -->
<g id="node1" class="node"><title>Node1</title>
<polygon fill="#bfbfbf" stroke="black" points="-0.20166,-0 -0.20166,-32 144.202,-32 144.202,-0 -0.20166,-0"/>
<text text-anchor="start" x="7.79834" y="-18" font-family="Helvetica,sans-Serif" font-size="10.00">CTCT_EventSpot\dashboard</text>
<text text-anchor="middle" x="72" y="-6" font-family="Helvetica,sans-Serif" font-size="10.00">_make_table</text>
</g>
<!-- Node2 -->
<g id="node2" class="node"><title>Node2</title>
<g id="a_node2"><a xlink:href="class_c_t_c_t___event_spot.html#adc958c8151d67743a6db3c4f08d342b7" target="_top" xlink:title="CTCT_EventSpot\\events\l_dashboard">
<polygon fill="white" stroke="black" points="180.697,-0 180.697,-32 307.303,-32 307.303,-0 180.697,-0"/>
<text text-anchor="start" x="188.697" y="-18" font-family="Helvetica,sans-Serif" font-size="10.00">CTCT_EventSpot\events</text>
<text text-anchor="middle" x="244" y="-6" font-family="Helvetica,sans-Serif" font-size="10.00">_dashboard</text>
</a>
</g>
</g>
<!-- Node1&#45;&gt;Node2 -->
<g id="edge1" class="edge"><title>Node1&#45;&gt;Node2</title>
<path fill="none" stroke="midnightblue" d="M154.773,-16C163.474,-16 172.219,-16 180.645,-16"/>
<polygon fill="midnightblue" stroke="midnightblue" points="154.603,-12.5001 144.603,-16 154.603,-19.5001 154.603,-12.5001"/>
</g>
</g>
</svg>
