<?xml version="1.0" encoding="UTF-8" standalone="no"?>
<!DOCTYPE svg PUBLIC "-//W3C//DTD SVG 1.1//EN"
 "http://www.w3.org/Graphics/SVG/1.1/DTD/svg11.dtd">
<!-- Generated by graphviz version 2.30.1 (20130221.2233)
 -->
<!-- Title: CTCT_Constant_Analytics\addActions Pages: 1 -->
<!--zoomable 429 -->
<svg id="main" version="1.1" xmlns="http://www.w3.org/2000/svg" xmlns:xlink="http://www.w3.org/1999/xlink" xml:space="preserve" onload="init(evt)">
<style type="text/css"><![CDATA[
.edge:hover path { stroke: red; }
.edge:hover polygon { stroke: red; fill: red; }
]]></style>
<script type="text/javascript"><![CDATA[
var edges = document.getElementsByTagName('g');
if (edges && edges.length) {
  for (var i=0;i<edges.length;i++) {
    if (edges[i].id.substr(0,4)=='edge') {
      edges[i].setAttribute('class','edge');
    }
  }
}
]]></script>
        <defs>
                <circle id="rim" cx="0" cy="0" r="7"/>
                <circle id="rim2" cx="0" cy="0" r="3.5"/>
                <g id="zoomPlus">
                        <use xlink:href="#rim" fill="#404040">
                                <set attributeName="fill" to="#808080" begin="zoomplus.mouseover" end="zoomplus.mouseout"/>
                        </use>
                        <path d="M-4,0h8M0,-4v8" fill="none" stroke="white" stroke-width="1.5" pointer-events="none"/>
                </g>
                <g id="zoomMin">
                        <use xlink:href="#rim" fill="#404040">
                                <set attributeName="fill" to="#808080" begin="zoomminus.mouseover" end="zoomminus.mouseout"/>
                        </use>
                        <path d="M-4,0h8" fill="none" stroke="white" stroke-width="1.5" pointer-events="none"/>
                </g>
                <g id="dirArrow">
                        <path fill="none" stroke="white" stroke-width="1.5" d="M0,-3.0v7 M-2.5,-0.5L0,-3.0L2.5,-0.5"/>
                </g>
               <g id="resetDef">
                       <use xlink:href="#rim2" fill="#404040">
                               <set attributeName="fill" to="#808080" begin="reset.mouseover" end="reset.mouseout"/>
                       </use>
               </g>
        </defs>

<script type="text/javascript">
var viewWidth = 684;
var viewHeight = 429;
var sectionId = 'dynsection-2';
</script>
<script xlink:href="svgpan.js"/>
<svg id="graph" class="graph">
<g id="viewport">
<title>CTCT_Constant_Analytics\addActions</title>
<polygon fill="white" stroke="white" points="-4,5 -4,-425 681,-425 681,5 -4,5"/>
<!-- Node1 -->
<g id="node1" class="node"><title>Node1</title>
<polygon fill="#bfbfbf" stroke="black" points="0.0888672,-123 0.0888672,-155 133.911,-155 133.911,-123 0.0888672,-123"/>
<text text-anchor="start" x="8.08887" y="-141" font-family="Helvetica,sans-Serif" font-size="10.00">CTCT_Constant_Analytics</text>
<text text-anchor="middle" x="67" y="-129" font-family="Helvetica,sans-Serif" font-size="10.00">\addActions</text>
</g>
<!-- Node2 -->
<g id="node2" class="node"><title>Node2</title>
<g id="a_node2"><a xlink:href="class_c_t_c_t___admin___page.html#ad4d8edcfbf3023f7f18a6d188adaf99c" target="_top" xlink:title="CTCT_Admin_Page\\page">
<polygon fill="white" stroke="black" points="170.747,-129 170.747,-149 301.253,-149 301.253,-129 170.747,-129"/>
<text text-anchor="middle" x="236" y="-135" font-family="Helvetica,sans-Serif" font-size="10.00">CTCT_Admin_Page\page</text>
</a>
</g>
</g>
<!-- Node1&#45;&gt;Node2 -->
<g id="edge1" class="edge"><title>Node1&#45;&gt;Node2</title>
<path fill="none" stroke="midnightblue" d="M134.003,-139C142.653,-139 151.565,-139 160.345,-139"/>
<polygon fill="midnightblue" stroke="midnightblue" points="160.568,-142.5 170.568,-139 160.568,-135.5 160.568,-142.5"/>
</g>
<!-- Node3 -->
<g id="node3" class="node"><title>Node3</title>
<g id="a_node3"><a xlink:href="class_c_t_c_t___admin___page.html#acdbed2f16a36a9384b2fa5f01073024d" target="_top" xlink:title="CTCT_Admin_Page\\content">
<polygon fill="white" stroke="black" points="346.468,-265 346.468,-285 487.532,-285 487.532,-265 346.468,-265"/>
<text text-anchor="middle" x="417" y="-271" font-family="Helvetica,sans-Serif" font-size="10.00">CTCT_Admin_Page\content</text>
</a>
</g>
</g>
<!-- Node2&#45;&gt;Node3 -->
<g id="edge2" class="edge"><title>Node2&#45;&gt;Node3</title>
<path fill="none" stroke="midnightblue" d="M246.717,-149.049C264.059,-166.675 301.911,-203.78 338,-230 353.502,-241.263 372.039,-252.056 387.151,-260.247"/>
<polygon fill="midnightblue" stroke="midnightblue" points="385.589,-263.381 396.061,-264.992 388.88,-257.202 385.589,-263.381"/>
</g>
<!-- Node11 -->
<g id="node11" class="node"><title>Node11</title>
<g id="a_node11"><a xlink:href="class_c_t_c_t___admin___page.html#adbfa5f90d2474587ade02994d254de5e" target="_top" xlink:title="CTCT_Admin_Page\\getNavTitle">
<polygon fill="white" stroke="black" points="337.765,-129 337.765,-149 496.235,-149 496.235,-129 337.765,-129"/>
<text text-anchor="middle" x="417" y="-135" font-family="Helvetica,sans-Serif" font-size="10.00">CTCT_Admin_Page\getNavTitle</text>
</a>
</g>
</g>
<!-- Node2&#45;&gt;Node11 -->
<g id="edge10" class="edge"><title>Node2&#45;&gt;Node11</title>
<path fill="none" stroke="midnightblue" d="M301.37,-139C309.799,-139 318.551,-139 327.293,-139"/>
<polygon fill="midnightblue" stroke="midnightblue" points="327.531,-142.5 337.531,-139 327.531,-135.5 327.531,-142.5"/>
</g>
<!-- Node12 -->
<g id="node12" class="node"><title>Node12</title>
<g id="a_node12"><a xlink:href="class_c_t_c_t___admin___page.html#a96eaf870d8a4a93746149a495de929e0" target="_top" xlink:title="CTCT_Admin_Page\\getTitle">
<polygon fill="white" stroke="black" points="346.656,-90 346.656,-110 487.344,-110 487.344,-90 346.656,-90"/>
<text text-anchor="middle" x="417" y="-96" font-family="Helvetica,sans-Serif" font-size="10.00">CTCT_Admin_Page\getTitle</text>
</a>
</g>
</g>
<!-- Node2&#45;&gt;Node12 -->
<g id="edge11" class="edge"><title>Node2&#45;&gt;Node12</title>
<path fill="none" stroke="midnightblue" d="M283.097,-128.957C306.586,-123.839 335.338,-117.574 360.083,-112.183"/>
<polygon fill="midnightblue" stroke="midnightblue" points="361.034,-115.558 370.059,-110.009 359.543,-108.719 361.034,-115.558"/>
</g>
<!-- Node7 -->
<g id="node7" class="node"><title>Node7</title>
<g id="a_node7"><a xlink:href="class_c_t_c_t___admin___page.html#a3022d3649afef42fe8a14b1f34f50a11" target="_top" xlink:title="CTCT_Admin_Page\\isEdit">
<polygon fill="white" stroke="black" points="537.643,-206 537.643,-226 670.357,-226 670.357,-206 537.643,-206"/>
<text text-anchor="middle" x="604" y="-212" font-family="Helvetica,sans-Serif" font-size="10.00">CTCT_Admin_Page\isEdit</text>
</a>
</g>
</g>
<!-- Node2&#45;&gt;Node7 -->
<g id="edge12" class="edge"><title>Node2&#45;&gt;Node7</title>
<path fill="none" stroke="midnightblue" d="M257.369,-149.041C277.406,-158.49 309.107,-172.304 338,-180 400.696,-196.7 473.908,-205.895 527.473,-210.802"/>
<polygon fill="midnightblue" stroke="midnightblue" points="527.307,-214.301 537.577,-211.699 527.925,-207.329 527.307,-214.301"/>
</g>
<!-- Node8 -->
<g id="node8" class="node"><title>Node8</title>
<g id="a_node8"><a xlink:href="class_c_t_c_t___admin___page.html#a79cac52351cd72e5cb0269ad98ac9a82" target="_top" xlink:title="CTCT_Admin_Page\\isSingle">
<polygon fill="white" stroke="black" points="532.36,-167 532.36,-187 675.64,-187 675.64,-167 532.36,-167"/>
<text text-anchor="middle" x="604" y="-173" font-family="Helvetica,sans-Serif" font-size="10.00">CTCT_Admin_Page\isSingle</text>
</a>
</g>
</g>
<!-- Node2&#45;&gt;Node8 -->
<g id="edge13" class="edge"><title>Node2&#45;&gt;Node8</title>
<path fill="none" stroke="midnightblue" d="M284.094,-149.015C301.023,-152.309 320.305,-155.709 338,-158 399.432,-165.954 469.338,-170.792 521.922,-173.593"/>
<polygon fill="midnightblue" stroke="midnightblue" points="522.032,-177.104 532.2,-174.127 522.395,-170.113 522.032,-177.104"/>
</g>
<!-- Node13 -->
<g id="node13" class="node"><title>Node13</title>
<g id="a_node13"><a xlink:href="class_c_t_c_t___admin___page.html#a0a77dcf97ad2553b5a49c8dee3674bb4" target="_top" xlink:title="CTCT_Admin_Page\\isView">
<polygon fill="white" stroke="black" points="348.509,-51 348.509,-71 485.491,-71 485.491,-51 348.509,-51"/>
<text text-anchor="middle" x="417" y="-57" font-family="Helvetica,sans-Serif" font-size="10.00">CTCT_Admin_Page\isView</text>
</a>
</g>
</g>
<!-- Node2&#45;&gt;Node13 -->
<g id="edge14" class="edge"><title>Node2&#45;&gt;Node13</title>
<path fill="none" stroke="midnightblue" d="M251.365,-128.79C270.351,-115.733 305.236,-93.2314 338,-80 343.547,-77.7599 349.427,-75.7368 355.371,-73.921"/>
<polygon fill="midnightblue" stroke="midnightblue" points="356.736,-77.1712 365.39,-71.0591 354.814,-70.4404 356.736,-77.1712"/>
</g>
<!-- Node14 -->
<g id="node14" class="node"><title>Node14</title>
<g id="a_node14"><a xlink:href="class_c_t_c_t___admin___page.html#a4b26f51438cbd2148d28edeace31ec70" target="_top" xlink:title="CTCT_Admin_Page\\print\l_errors">
<polygon fill="white" stroke="black" points="353.143,-0 353.143,-32 480.857,-32 480.857,-0 353.143,-0"/>
<text text-anchor="start" x="361.143" y="-18" font-family="Helvetica,sans-Serif" font-size="10.00">CTCT_Admin_Page\print</text>
<text text-anchor="middle" x="417" y="-6" font-family="Helvetica,sans-Serif" font-size="10.00">_errors</text>
</a>
</g>
</g>
<!-- Node2&#45;&gt;Node14 -->
<g id="edge15" class="edge"><title>Node2&#45;&gt;Node14</title>
<path fill="none" stroke="midnightblue" d="M244.75,-128.83C260.309,-109.088 297.352,-65.3794 338,-41 340.805,-39.3178 343.735,-37.736 346.746,-36.2502"/>
<polygon fill="midnightblue" stroke="midnightblue" points="348.306,-39.3863 355.975,-32.0765 345.421,-33.0083 348.306,-39.3863"/>
</g>
<!-- Node4 -->
<g id="node4" class="node"><title>Node4</title>
<g id="a_node4"><a xlink:href="class_c_t_c_t___admin___page.html#a2239ad5eadd3654b1c163e66e9d2c48c" target="_top" xlink:title="CTCT_Admin_Page\\add">
<polygon fill="white" stroke="black" points="541.527,-362 541.527,-382 666.473,-382 666.473,-362 541.527,-362"/>
<text text-anchor="middle" x="604" y="-368" font-family="Helvetica,sans-Serif" font-size="10.00">CTCT_Admin_Page\add</text>
</a>
</g>
</g>
<!-- Node3&#45;&gt;Node4 -->
<g id="edge3" class="edge"><title>Node3&#45;&gt;Node4</title>
<path fill="none" stroke="midnightblue" d="M430.193,-285.193C450.232,-301.475 491.918,-333.408 532,-352 537.433,-354.52 543.25,-356.787 549.13,-358.809"/>
<polygon fill="midnightblue" stroke="midnightblue" points="548.437,-362.262 559.028,-361.982 550.574,-355.596 548.437,-362.262"/>
</g>
<!-- Node5 -->
<g id="node5" class="node"><title>Node5</title>
<g id="a_node5"><a xlink:href="class_c_t_c_t___admin___page.html#a22cefb29a88a7407d1448526a6af9a99" target="_top" xlink:title="CTCT_Admin_Page\\edit">
<polygon fill="white" stroke="black" points="541.808,-323 541.808,-343 666.192,-343 666.192,-323 541.808,-323"/>
<text text-anchor="middle" x="604" y="-329" font-family="Helvetica,sans-Serif" font-size="10.00">CTCT_Admin_Page\edit</text>
</a>
</g>
</g>
<!-- Node3&#45;&gt;Node5 -->
<g id="edge4" class="edge"><title>Node3&#45;&gt;Node5</title>
<path fill="none" stroke="midnightblue" d="M446.929,-285.063C469.9,-292.951 502.885,-304.052 532,-313 539.832,-315.407 548.185,-317.86 556.308,-320.186"/>
<polygon fill="midnightblue" stroke="midnightblue" points="555.477,-323.589 566.053,-322.949 557.386,-316.854 555.477,-323.589"/>
</g>
<!-- Node6 -->
<g id="node6" class="node"><title>Node6</title>
<g id="a_node6"><a xlink:href="class_c_t_c_t___admin___page.html#aa09ddad8c19f7b5e766616954288f30c" target="_top" xlink:title="CTCT_Admin_Page\\isAdd">
<polygon fill="white" stroke="black" points="537.362,-284 537.362,-304 670.638,-304 670.638,-284 537.362,-284"/>
<text text-anchor="middle" x="604" y="-290" font-family="Helvetica,sans-Serif" font-size="10.00">CTCT_Admin_Page\isAdd</text>
</a>
</g>
</g>
<!-- Node3&#45;&gt;Node6 -->
<g id="edge5" class="edge"><title>Node3&#45;&gt;Node6</title>
<path fill="none" stroke="midnightblue" d="M487.677,-282.156C500.527,-283.476 514.005,-284.86 527.03,-286.198"/>
<polygon fill="midnightblue" stroke="midnightblue" points="527.053,-289.718 537.358,-287.258 527.768,-282.755 527.053,-289.718"/>
</g>
<!-- Node3&#45;&gt;Node7 -->
<g id="edge6" class="edge"><title>Node3&#45;&gt;Node7</title>
<path fill="none" stroke="midnightblue" d="M445.968,-264.951C468.96,-256.807 502.444,-245.211 532,-236 539.736,-233.589 547.985,-231.148 556.021,-228.84"/>
<polygon fill="midnightblue" stroke="midnightblue" points="557.006,-232.198 565.669,-226.1 555.093,-225.465 557.006,-232.198"/>
</g>
<!-- Node3&#45;&gt;Node8 -->
<g id="edge7" class="edge"><title>Node3&#45;&gt;Node8</title>
<path fill="none" stroke="midnightblue" d="M429.846,-264.931C449.723,-248.506 491.593,-215.89 532,-197 537.351,-194.498 543.079,-192.249 548.873,-190.242"/>
<polygon fill="midnightblue" stroke="midnightblue" points="550.193,-193.494 558.635,-187.092 548.043,-186.832 550.193,-193.494"/>
</g>
<!-- Node9 -->
<g id="node9" class="node"><title>Node9</title>
<g id="a_node9"><a xlink:href="class_c_t_c_t___admin___page.html#aa2467682cbcb0035e36c016f050fc791" target="_top" xlink:title="CTCT_Admin_Page\\single">
<polygon fill="white" stroke="black" points="536.806,-245 536.806,-265 671.194,-265 671.194,-245 536.806,-245"/>
<text text-anchor="middle" x="604" y="-251" font-family="Helvetica,sans-Serif" font-size="10.00">CTCT_Admin_Page\single</text>
</a>
</g>
</g>
<!-- Node3&#45;&gt;Node9 -->
<g id="edge8" class="edge"><title>Node3&#45;&gt;Node9</title>
<path fill="none" stroke="midnightblue" d="M487.677,-267.467C500.366,-266.096 513.666,-264.658 526.538,-263.266"/>
<polygon fill="midnightblue" stroke="midnightblue" points="527.184,-266.717 536.75,-262.162 526.432,-259.757 527.184,-266.717"/>
</g>
<!-- Node10 -->
<g id="node10" class="node"><title>Node10</title>
<g id="a_node10"><a xlink:href="class_c_t_c_t___admin___page.html#a088ea0e281820f5ca26ebe3aa4e1c50e" target="_top" xlink:title="CTCT_Admin_Page\\view">
<polygon fill="white" stroke="black" points="539.867,-401 539.867,-421 668.133,-421 668.133,-401 539.867,-401"/>
<text text-anchor="middle" x="604" y="-407" font-family="Helvetica,sans-Serif" font-size="10.00">CTCT_Admin_Page\view</text>
</a>
</g>
</g>
<!-- Node3&#45;&gt;Node10 -->
<g id="edge9" class="edge"><title>Node3&#45;&gt;Node10</title>
<path fill="none" stroke="midnightblue" d="M425.002,-285.095C441.157,-307.617 483.399,-362.24 532,-391 535.95,-393.338 540.186,-395.413 544.551,-397.253"/>
<polygon fill="midnightblue" stroke="midnightblue" points="543.657,-400.657 554.249,-400.917 546.131,-394.109 543.657,-400.657"/>
</g>
</g>
</svg>
        <g id="navigator" transform="translate(0 0)" fill="#404254">
                <rect fill="#f2f5e9" fill-opacity="0.5" stroke="#606060" stroke-width=".5" x="0" y="0" width="60" height="60"/>
                <use id="zoomplus" xlink:href="#zoomPlus" x="17" y="9" onmousedown="handleZoom(evt,'in')"/>
                <use id="zoomminus" xlink:href="#zoomMin" x="42" y="9" onmousedown="handleZoom(evt,'out')"/>
                <use id="reset" xlink:href="#resetDef" x="30" y="36" onmousedown="handleReset()"/>
                <g id="arrowUp" xlink:href="#dirArrow" transform="translate(30 24)" onmousedown="handlePan(0,-1)">
                  <use xlink:href="#rim" fill="#404040">
                        <set attributeName="fill" to="#808080" begin="arrowUp.mouseover" end="arrowUp.mouseout"/>
                  </use>
                  <path fill="none" stroke="white" stroke-width="1.5" d="M0,-3.0v7 M-2.5,-0.5L0,-3.0L2.5,-0.5"/>
                </g>
                <g id="arrowRight" xlink:href="#dirArrow" transform="rotate(90) translate(36 -43)" onmousedown="handlePan(1,0)">
                  <use xlink:href="#rim" fill="#404040">
                        <set attributeName="fill" to="#808080" begin="arrowRight.mouseover" end="arrowRight.mouseout"/>
                  </use>
                  <path fill="none" stroke="white" stroke-width="1.5" d="M0,-3.0v7 M-2.5,-0.5L0,-3.0L2.5,-0.5"/>
                </g>
                <g id="arrowDown" xlink:href="#dirArrow" transform="rotate(180) translate(-30 -48)" onmousedown="handlePan(0,1)">
                  <use xlink:href="#rim" fill="#404040">
                        <set attributeName="fill" to="#808080" begin="arrowDown.mouseover" end="arrowDown.mouseout"/>
                  </use>
                  <path fill="none" stroke="white" stroke-width="1.5" d="M0,-3.0v7 M-2.5,-0.5L0,-3.0L2.5,-0.5"/>
                </g>
                <g id="arrowLeft" xlink:href="#dirArrow" transform="rotate(270) translate(-36 17)" onmousedown="handlePan(-1,0)">
                  <use xlink:href="#rim" fill="#404040">
                        <set attributeName="fill" to="#808080" begin="arrowLeft.mouseover" end="arrowLeft.mouseout"/>
                  </use>
                  <path fill="none" stroke="white" stroke-width="1.5" d="M0,-3.0v7 M-2.5,-0.5L0,-3.0L2.5,-0.5"/>
                </g>
        </g>
        <svg viewBox="0 0 15 15" width="100%" height="30px" preserveAspectRatio="xMaxYMin meet">
         <g id="arrow_out" transform="scale(0.3 0.3)">
          <a xlink:href="class_c_t_c_t___constant___analytics_ad379ea8b9d4f8c7735b0f3adeac838fe_cgraph_org.svg" target="_base">
           <rect id="button" ry="5" rx="5" y="6" x="6" height="38" width="38"
                fill="#f2f5e9" fill-opacity="0.5" stroke="#606060" stroke-width="1.0"/>
           <path id="arrow"
             d="M 11.500037,31.436501 C 11.940474,20.09759 22.043105,11.32322 32.158766,21.979434 L 37.068811,17.246167 C 37.068811,17.246167 37.088388,32 37.088388,32 L 22.160133,31.978069 C 22.160133,31.978069 26.997745,27.140456 26.997745,27.140456 C 18.528582,18.264221 13.291696,25.230495 11.500037,31.436501 z"
             style="fill:#404040;"/>
          </a>
         </g>
        </svg>
</svg>
