<?xml version="1.0" encoding="UTF-8" standalone="no"?>
<!DOCTYPE svg PUBLIC "-//W3C//DTD SVG 1.1//EN"
 "http://www.w3.org/Graphics/SVG/1.1/DTD/svg11.dtd">
<!-- Generated by graphviz version 2.30.1 (20130221.2233)
 -->
<!-- Title: OAuthServer\verify_request Pages: 1 -->
<svg width="484pt" height="184pt"
 viewBox="0.00 0.00 484.00 184.00" xmlns="http://www.w3.org/2000/svg" xmlns:xlink="http://www.w3.org/1999/xlink">
<g id="graph0" class="graph" transform="scale(1 1) rotate(0) translate(4 180)">
<title>OAuthServer\verify_request</title>
<polygon fill="white" stroke="white" points="-4,5 -4,-180 481,-180 481,5 -4,5"/>
<!-- Node1 -->
<g id="node1" class="node"><title>Node1</title>
<polygon fill="#bfbfbf" stroke="black" points="-0.236328,-52 -0.236328,-84 100.236,-84 100.236,-52 -0.236328,-52"/>
<text text-anchor="start" x="7.76367" y="-70" font-family="Helvetica,sans-Serif" font-size="10.00">OAuthServer\verify</text>
<text text-anchor="middle" x="50" y="-58" font-family="Helvetica,sans-Serif" font-size="10.00">_request</text>
</g>
<!-- Node2 -->
<g id="node2" class="node"><title>Node2</title>
<g id="a_node2"><a xlink:href="class_o_auth_server.html#a42f0158a9a4c166bc9372054626d93ca" target="_top" xlink:title="all&#45;in&#45;one function to check the signature on a request should guess the signature method appropriate...">
<polygon fill="white" stroke="black" points="136.298,-117 136.298,-137 285.702,-137 285.702,-117 136.298,-117"/>
<text text-anchor="middle" x="211" y="-123" font-family="Helvetica,sans-Serif" font-size="10.00">OAuthServer\check_signature</text>
</a>
</g>
</g>
<!-- Node1&#45;&gt;Node2 -->
<g id="edge1" class="edge"><title>Node1&#45;&gt;Node2</title>
<path fill="none" stroke="midnightblue" d="M82.7644,-84.0996C98.5168,-91.6882 117.984,-100.483 136,-107 143.135,-109.581 150.763,-112.004 158.31,-114.212"/>
<polygon fill="midnightblue" stroke="midnightblue" points="157.561,-117.638 168.136,-116.986 159.463,-110.901 157.561,-117.638"/>
</g>
<!-- Node6 -->
<g id="node6" class="node"><title>Node6</title>
<g id="a_node6"><a xlink:href="class_o_auth_server.html#adc55d70d9f093aab5354db25f529ed5b" target="_top" xlink:title="try to find the consumer for the provided request&#39;s consumer key ">
<polygon fill="white" stroke="black" points="141.025,-78 141.025,-98 280.975,-98 280.975,-78 141.025,-78"/>
<text text-anchor="middle" x="211" y="-84" font-family="Helvetica,sans-Serif" font-size="10.00">OAuthServer\get_consumer</text>
</a>
</g>
</g>
<!-- Node1&#45;&gt;Node6 -->
<g id="edge5" class="edge"><title>Node1&#45;&gt;Node6</title>
<path fill="none" stroke="midnightblue" d="M100.437,-74.2185C110.009,-75.4225 120.263,-76.7123 130.516,-78.0021"/>
<polygon fill="midnightblue" stroke="midnightblue" points="130.386,-81.5131 140.744,-79.2886 131.26,-74.5679 130.386,-81.5131"/>
</g>
<!-- Node7 -->
<g id="node7" class="node"><title>Node7</title>
<g id="a_node7"><a xlink:href="class_o_auth_server.html#a7f197015a02e6f0d2029562ce1295f68" target="_top" xlink:title="try to find the token for the provided request&#39;s token key ">
<polygon fill="white" stroke="black" points="150.747,-39 150.747,-59 271.253,-59 271.253,-39 150.747,-39"/>
<text text-anchor="middle" x="211" y="-45" font-family="Helvetica,sans-Serif" font-size="10.00">OAuthServer\get_token</text>
</a>
</g>
</g>
<!-- Node1&#45;&gt;Node7 -->
<g id="edge6" class="edge"><title>Node1&#45;&gt;Node7</title>
<path fill="none" stroke="midnightblue" d="M100.437,-62.0924C113.077,-60.582 126.906,-58.9294 140.354,-57.3225"/>
<polygon fill="midnightblue" stroke="midnightblue" points="141.022,-60.7676 150.536,-56.1057 140.192,-53.8171 141.022,-60.7676"/>
</g>
<!-- Node8 -->
<g id="node8" class="node"><title>Node8</title>
<g id="a_node8"><a xlink:href="class_o_auth_server.html#af40ad9ca9242a0c3cd2b66c49b547945" target="_top" xlink:title="version 1 ">
<polygon fill="white" stroke="black" points="146.86,-0 146.86,-20 275.14,-20 275.14,-0 146.86,-0"/>
<text text-anchor="middle" x="211" y="-6" font-family="Helvetica,sans-Serif" font-size="10.00">OAuthServer\get_version</text>
</a>
</g>
</g>
<!-- Node1&#45;&gt;Node8 -->
<g id="edge7" class="edge"><title>Node1&#45;&gt;Node8</title>
<path fill="none" stroke="midnightblue" d="M82.3293,-51.9944C98.1427,-44.338 117.79,-35.4569 136,-29 142.299,-26.7663 148.986,-24.6759 155.664,-22.7587"/>
<polygon fill="midnightblue" stroke="midnightblue" points="156.683,-26.1083 165.394,-20.0775 154.823,-19.3599 156.683,-26.1083"/>
</g>
<!-- Node3 -->
<g id="node3" class="node"><title>Node3</title>
<g id="a_node3"><a xlink:href="class_o_auth_server.html#a4485cb3ffa98de6c0dc513519017dcfb" target="_top" xlink:title="check that the nonce is not repeated ">
<polygon fill="white" stroke="black" points="331.244,-156 331.244,-176 466.756,-176 466.756,-156 331.244,-156"/>
<text text-anchor="middle" x="399" y="-162" font-family="Helvetica,sans-Serif" font-size="10.00">OAuthServer\check_nonce</text>
</a>
</g>
</g>
<!-- Node2&#45;&gt;Node3 -->
<g id="edge2" class="edge"><title>Node2&#45;&gt;Node3</title>
<path fill="none" stroke="midnightblue" d="M259.9,-137.043C284.416,-142.184 314.449,-148.481 340.239,-153.889"/>
<polygon fill="midnightblue" stroke="midnightblue" points="339.757,-157.364 350.263,-155.991 341.194,-150.513 339.757,-157.364"/>
</g>
<!-- Node4 -->
<g id="node4" class="node"><title>Node4</title>
<g id="a_node4"><a xlink:href="class_o_auth_server.html#a46aafda0ef87fbb52e32958c33714a6d" target="_top" xlink:title="check that the timestamp is new enough ">
<polygon fill="white" stroke="black" points="321.806,-117 321.806,-137 476.194,-137 476.194,-117 321.806,-117"/>
<text text-anchor="middle" x="399" y="-123" font-family="Helvetica,sans-Serif" font-size="10.00">OAuthServer\check_timestamp</text>
</a>
</g>
</g>
<!-- Node2&#45;&gt;Node4 -->
<g id="edge3" class="edge"><title>Node2&#45;&gt;Node4</title>
<path fill="none" stroke="midnightblue" d="M285.779,-127C294.236,-127 302.914,-127 311.517,-127"/>
<polygon fill="midnightblue" stroke="midnightblue" points="311.565,-130.5 321.565,-127 311.565,-123.5 311.565,-130.5"/>
</g>
<!-- Node5 -->
<g id="node5" class="node"><title>Node5</title>
<g id="a_node5"><a xlink:href="class_o_auth_server.html#ab3b0e3026dea9faacb8d56cbb2274103" target="_top" xlink:title="figure out the signature with some defaults ">
<polygon fill="white" stroke="black" points="330.409,-66 330.409,-98 467.591,-98 467.591,-66 330.409,-66"/>
<text text-anchor="start" x="338.409" y="-84" font-family="Helvetica,sans-Serif" font-size="10.00">OAuthServer\get_signature</text>
<text text-anchor="middle" x="399" y="-72" font-family="Helvetica,sans-Serif" font-size="10.00">_method</text>
</a>
</g>
</g>
<!-- Node2&#45;&gt;Node5 -->
<g id="edge4" class="edge"><title>Node2&#45;&gt;Node5</title>
<path fill="none" stroke="midnightblue" d="M253.742,-116.901C273.798,-112.049 298.479,-106.078 321.72,-100.455"/>
<polygon fill="midnightblue" stroke="midnightblue" points="322.677,-103.824 331.574,-98.0708 321.031,-97.0206 322.677,-103.824"/>
</g>
</g>
</svg>
