<?xml version="1.0" encoding="UTF-8" standalone="no"?>
<!DOCTYPE svg PUBLIC "-//W3C//DTD SVG 1.1//EN"
 "http://www.w3.org/Graphics/SVG/1.1/DTD/svg11.dtd">
<!-- Generated by graphviz version 2.30.1 (20130221.2233)
 -->
<!-- Title: Ctct\Services\EmailMarketingService\deleteCampaign Pages: 1 -->
<svg width="326pt" height="79pt"
 viewBox="0.00 0.00 326.00 79.00" xmlns="http://www.w3.org/2000/svg" xmlns:xlink="http://www.w3.org/1999/xlink">
<g id="graph0" class="graph" transform="scale(1 1) rotate(0) translate(4 75)">
<title>Ctct\Services\EmailMarketingService\deleteCampaign</title>
<polygon fill="white" stroke="white" points="-4,5 -4,-75 323,-75 323,5 -4,5"/>
<!-- Node1 -->
<g id="node1" class="node"><title>Node1</title>
<polygon fill="#bfbfbf" stroke="black" points="0.70459,-16 0.70459,-48 147.295,-48 147.295,-16 0.70459,-16"/>
<text text-anchor="start" x="8.70459" y="-34" font-family="Helvetica,sans-Serif" font-size="10.00">Ctct\Services\EmailMarketing</text>
<text text-anchor="middle" x="74" y="-22" font-family="Helvetica,sans-Serif" font-size="10.00">Service\deleteCampaign</text>
</g>
<!-- Node2 -->
<g id="node2" class="node"><title>Node2</title>
<g id="a_node2"><a xlink:href="class_ctct_1_1_services_1_1_base_service.html#a682b3692a73a009ec026442110cf968e" target="_top" xlink:title="Build a URL from a base url and optional array of query parameters to append to the url...">
<polygon fill="white" stroke="black" points="184.091,-39 184.091,-71 317.909,-71 317.909,-39 184.091,-39"/>
<text text-anchor="start" x="192.091" y="-57" font-family="Helvetica,sans-Serif" font-size="10.00">Ctct\Services\BaseService</text>
<text text-anchor="middle" x="251" y="-45" font-family="Helvetica,sans-Serif" font-size="10.00">\buildUrl</text>
</a>
</g>
</g>
<!-- Node1&#45;&gt;Node2 -->
<g id="edge1" class="edge"><title>Node1&#45;&gt;Node2</title>
<path fill="none" stroke="midnightblue" d="M147.442,-41.521C156.256,-42.6793 165.279,-43.8652 174.14,-45.0298"/>
<polygon fill="midnightblue" stroke="midnightblue" points="173.685,-48.5 184.056,-46.333 174.597,-41.5597 173.685,-48.5"/>
</g>
<!-- Node3 -->
<g id="node3" class="node"><title>Node3</title>
<g id="a_node3"><a xlink:href="class_ctct_1_1_util_1_1_config.html#ab224fae1ce1a1993c1ac42c708dc7de9" target="_top" xlink:title="Get a configuration property given a specified location, example usage: Config::get(&#39;auth.token_endpoint&#39;) ">
<polygon fill="white" stroke="black" points="201.318,-0 201.318,-20 300.682,-20 300.682,-0 201.318,-0"/>
<text text-anchor="middle" x="251" y="-6" font-family="Helvetica,sans-Serif" font-size="10.00">Ctct\Util\Config\get</text>
</a>
</g>
</g>
<!-- Node1&#45;&gt;Node3 -->
<g id="edge2" class="edge"><title>Node1&#45;&gt;Node3</title>
<path fill="none" stroke="midnightblue" d="M147.442,-22.893C162.046,-21.0571 177.226,-19.1487 191.29,-17.3807"/>
<polygon fill="midnightblue" stroke="midnightblue" points="191.823,-20.8413 201.309,-16.1212 190.95,-13.8959 191.823,-20.8413"/>
</g>
</g>
</svg>
