<?xml version="1.0" encoding="UTF-8" standalone="no"?>
<!DOCTYPE svg PUBLIC "-//W3C//DTD SVG 1.1//EN"
 "http://www.w3.org/Graphics/SVG/1.1/DTD/svg11.dtd">
<!-- Generated by graphviz version 2.30.1 (20130221.2233)
 -->
<!-- Title: RegistrantInformation Pages: 1 -->
<svg width="237pt" height="88pt"
 viewBox="0.00 0.00 237.00 88.00" xmlns="http://www.w3.org/2000/svg" xmlns:xlink="http://www.w3.org/1999/xlink">
<g id="graph0" class="graph" transform="scale(1 1) rotate(0) translate(4 84)">
<title>RegistrantInformation</title>
<polygon fill="white" stroke="white" points="-4,5 -4,-84 234,-84 234,5 -4,5"/>
<!-- Node1 -->
<g id="node1" class="node"><title>Node1</title>
<polygon fill="#bfbfbf" stroke="black" points="59.1997,-59 59.1997,-79 170.8,-79 170.8,-59 59.1997,-59"/>
<text text-anchor="middle" x="115" y="-65" font-family="Helvetica,sans-Serif" font-size="10.00">RegistrantInformation</text>
</g>
<!-- Node2 -->
<g id="node2" class="node"><title>Node2</title>
<g id="a_node2"><a xlink:href="class_business_information.html" target="_top" xlink:title="BusinessInformation">
<polygon fill="white" stroke="black" points="-0.300293,-1 -0.300293,-21 106.3,-21 106.3,-1 -0.300293,-1"/>
<text text-anchor="middle" x="53" y="-7" font-family="Helvetica,sans-Serif" font-size="10.00">BusinessInformation</text>
</a>
</g>
</g>
<!-- Node1&#45;&gt;Node2 -->
<g id="edge1" class="edge"><title>Node1&#45;&gt;Node2</title>
<path fill="none" stroke="midnightblue" d="M97.2821,-51.9967C86.1832,-41.9719 72.2832,-29.4171 63.0475,-21.0752"/>
<polygon fill="midnightblue" stroke="midnightblue" points="94.9949,-54.6472 104.762,-58.7527 99.6869,-49.4525 94.9949,-54.6472"/>
</g>
<!-- Node3 -->
<g id="node3" class="node"><title>Node3</title>
<g id="a_node3"><a xlink:href="class_personal_information.html" target="_top" xlink:title="PersonalInformation">
<polygon fill="white" stroke="black" points="124.254,-1 124.254,-21 229.746,-21 229.746,-1 124.254,-1"/>
<text text-anchor="middle" x="177" y="-7" font-family="Helvetica,sans-Serif" font-size="10.00">PersonalInformation</text>
</a>
</g>
</g>
<!-- Node1&#45;&gt;Node3 -->
<g id="edge2" class="edge"><title>Node1&#45;&gt;Node3</title>
<path fill="none" stroke="midnightblue" d="M132.718,-51.9967C143.817,-41.9719 157.717,-29.4171 166.952,-21.0752"/>
<polygon fill="midnightblue" stroke="midnightblue" points="130.313,-49.4525 125.238,-58.7527 135.005,-54.6472 130.313,-49.4525"/>
</g>
</g>
</svg>
