<?xml version="1.0" encoding="UTF-8" standalone="no"?>
<!DOCTYPE svg PUBLIC "-//W3C//DTD SVG 1.1//EN"
 "http://www.w3.org/Graphics/SVG/1.1/DTD/svg11.dtd">
<!-- Generated by graphviz version 2.30.1 (20130221.2233)
 -->
<!-- Title: PhpException Pages: 1 -->
<svg width="385pt" height="146pt"
 viewBox="0.00 0.00 385.00 146.00" xmlns="http://www.w3.org/2000/svg" xmlns:xlink="http://www.w3.org/1999/xlink">
<g id="graph0" class="graph" transform="scale(1 1) rotate(0) translate(4 142)">
<title>PhpException</title>
<polygon fill="white" stroke="white" points="-4,5 -4,-142 382,-142 382,5 -4,5"/>
<!-- Node1 -->
<g id="node1" class="node"><title>Node1</title>
<polygon fill="#bfbfbf" stroke="black" points="145.146,-59 145.146,-79 222.854,-79 222.854,-59 145.146,-59"/>
<text text-anchor="middle" x="184" y="-65" font-family="Helvetica,sans-Serif" font-size="10.00">PhpException</text>
</g>
<!-- Node3 -->
<g id="node3" class="node"><title>Node3</title>
<g id="a_node3"><a xlink:href="class_php_error.html" target="_top" xlink:title="PhpError">
<polygon fill="white" stroke="black" points="-0.00732422,-1 -0.00732422,-21 56.0073,-21 56.0073,-1 -0.00732422,-1"/>
<text text-anchor="middle" x="28" y="-7" font-family="Helvetica,sans-Serif" font-size="10.00">PhpError</text>
</a>
</g>
</g>
<!-- Node1&#45;&gt;Node3 -->
<g id="edge2" class="edge"><title>Node1&#45;&gt;Node3</title>
<path fill="none" stroke="midnightblue" d="M148.816,-55.3698C119.706,-44.92 79.0674,-30.3319 53.1419,-21.0253"/>
<polygon fill="midnightblue" stroke="midnightblue" points="147.994,-58.7935 158.589,-58.878 150.359,-52.2051 147.994,-58.7935"/>
</g>
<!-- Node4 -->
<g id="node4" class="node"><title>Node4</title>
<g id="a_node4"><a xlink:href="class_php_notice.html" target="_top" xlink:title="PhpNotice">
<polygon fill="white" stroke="black" points="73.9312,-1 73.9312,-21 136.069,-21 136.069,-1 73.9312,-1"/>
<text text-anchor="middle" x="105" y="-7" font-family="Helvetica,sans-Serif" font-size="10.00">PhpNotice</text>
</a>
</g>
</g>
<!-- Node1&#45;&gt;Node4 -->
<g id="edge3" class="edge"><title>Node1&#45;&gt;Node4</title>
<path fill="none" stroke="midnightblue" d="M162.65,-52.8661C148.319,-42.7069 129.913,-29.6601 117.803,-21.0752"/>
<polygon fill="midnightblue" stroke="midnightblue" points="160.772,-55.825 170.955,-58.7527 164.821,-50.1143 160.772,-55.825"/>
</g>
<!-- Node5 -->
<g id="node5" class="node"><title>Node5</title>
<g id="a_node5"><a xlink:href="class_php_parse.html" target="_top" xlink:title="PhpParse">
<polygon fill="white" stroke="black" points="154.042,-1 154.042,-21 213.958,-21 213.958,-1 154.042,-1"/>
<text text-anchor="middle" x="184" y="-7" font-family="Helvetica,sans-Serif" font-size="10.00">PhpParse</text>
</a>
</g>
</g>
<!-- Node1&#45;&gt;Node5 -->
<g id="edge4" class="edge"><title>Node1&#45;&gt;Node5</title>
<path fill="none" stroke="midnightblue" d="M184,-48.7065C184,-39.3384 184,-28.5262 184,-21.0752"/>
<polygon fill="midnightblue" stroke="midnightblue" points="180.5,-48.7527 184,-58.7527 187.5,-48.7528 180.5,-48.7527"/>
</g>
<!-- Node6 -->
<g id="node6" class="node"><title>Node6</title>
<g id="a_node6"><a xlink:href="class_php_strict.html" target="_top" xlink:title="PhpStrict">
<polygon fill="white" stroke="black" points="231.714,-1 231.714,-21 288.286,-21 288.286,-1 231.714,-1"/>
<text text-anchor="middle" x="260" y="-7" font-family="Helvetica,sans-Serif" font-size="10.00">PhpStrict</text>
</a>
</g>
</g>
<!-- Node1&#45;&gt;Node6 -->
<g id="edge5" class="edge"><title>Node1&#45;&gt;Node6</title>
<path fill="none" stroke="midnightblue" d="M204.93,-52.5778C218.66,-42.4611 236.143,-29.5791 247.684,-21.0752"/>
<polygon fill="midnightblue" stroke="midnightblue" points="202.524,-50.003 196.55,-58.7527 206.677,-55.6384 202.524,-50.003"/>
</g>
<!-- Node7 -->
<g id="node7" class="node"><title>Node7</title>
<g id="a_node7"><a xlink:href="class_php_warning.html" target="_top" xlink:title="PhpWarning">
<polygon fill="white" stroke="black" points="306.668,-1 306.668,-21 377.332,-21 377.332,-1 306.668,-1"/>
<text text-anchor="middle" x="342" y="-7" font-family="Helvetica,sans-Serif" font-size="10.00">PhpWarning</text>
</a>
</g>
</g>
<!-- Node1&#45;&gt;Node7 -->
<g id="edge6" class="edge"><title>Node1&#45;&gt;Node7</title>
<path fill="none" stroke="midnightblue" d="M219.25,-55.5065C248.759,-45.0475 290.163,-30.3725 316.536,-21.0253"/>
<polygon fill="midnightblue" stroke="midnightblue" points="217.993,-52.2383 209.737,-58.878 220.332,-58.8362 217.993,-52.2383"/>
</g>
<!-- Node2 -->
<g id="node2" class="node"><title>Node2</title>
<polygon fill="white" stroke="#bfbfbf" points="142.931,-117 142.931,-137 225.069,-137 225.069,-117 142.931,-117"/>
<text text-anchor="middle" x="184" y="-123" font-family="Helvetica,sans-Serif" font-size="10.00">ErrorException</text>
</g>
<!-- Node2&#45;&gt;Node1 -->
<g id="edge1" class="edge"><title>Node2&#45;&gt;Node1</title>
<path fill="none" stroke="midnightblue" d="M184,-106.707C184,-97.3384 184,-86.5262 184,-79.0752"/>
<polygon fill="midnightblue" stroke="midnightblue" points="180.5,-106.753 184,-116.753 187.5,-106.753 180.5,-106.753"/>
</g>
</g>
</svg>
