<?xml version="1.0" encoding="UTF-8" standalone="no"?>
<!DOCTYPE svg PUBLIC "-//W3C//DTD SVG 1.1//EN"
 "http://www.w3.org/Graphics/SVG/1.1/DTD/svg11.dtd">
<!-- Generated by graphviz version 2.30.1 (20130221.2233)
 -->
<!-- Title: CTCT_Admin_Table\do_not_esc_td Pages: 1 -->
<svg width="486pt" height="40pt"
 viewBox="0.00 0.00 486.00 40.00" xmlns="http://www.w3.org/2000/svg" xmlns:xlink="http://www.w3.org/1999/xlink">
<g id="graph0" class="graph" transform="scale(1 1) rotate(0) translate(4 36)">
<title>CTCT_Admin_Table\do_not_esc_td</title>
<polygon fill="white" stroke="white" points="-4,5 -4,-36 483,-36 483,5 -4,5"/>
<!-- Node1 -->
<g id="node1" class="node"><title>Node1</title>
<polygon fill="#bfbfbf" stroke="black" points="0.0322266,-0 0.0322266,-32 119.968,-32 119.968,-0 0.0322266,-0"/>
<text text-anchor="start" x="8.03223" y="-18" font-family="Helvetica,sans-Serif" font-size="10.00">CTCT_Admin_Table\do</text>
<text text-anchor="middle" x="60" y="-6" font-family="Helvetica,sans-Serif" font-size="10.00">_not_esc_td</text>
</g>
<!-- Node2 -->
<g id="node2" class="node"><title>Node2</title>
<g id="a_node2"><a xlink:href="class_c_t_c_t___admin___table.html#adeaebbd18a2a51c37385fb7f50a0b44b" target="_top" xlink:title="Builds the table and returns HTML ready to echo to the browser. ">
<polygon fill="white" stroke="black" points="156.417,-6 156.417,-26 303.583,-26 303.583,-6 156.417,-6"/>
<text text-anchor="middle" x="230" y="-12" font-family="Helvetica,sans-Serif" font-size="10.00">CTCT_Admin_Table\get_html</text>
</a>
</g>
</g>
<!-- Node1&#45;&gt;Node2 -->
<g id="edge1" class="edge"><title>Node1&#45;&gt;Node2</title>
<path fill="none" stroke="midnightblue" d="M130.457,-16C138.943,-16 147.634,-16 156.169,-16"/>
<polygon fill="midnightblue" stroke="midnightblue" points="130.231,-12.5001 120.231,-16 130.23,-19.5001 130.231,-12.5001"/>
</g>
<!-- Node3 -->
<g id="node3" class="node"><title>Node3</title>
<g id="a_node3"><a xlink:href="class_c_t_c_t___admin___table.html#a33cb1d8da54850e6aeba100bfb95145c" target="_top" xlink:title="Alias to $this&#45;&gt;render() ">
<polygon fill="white" stroke="black" points="340.141,-6 340.141,-26 477.859,-26 477.859,-6 340.141,-6"/>
<text text-anchor="middle" x="409" y="-12" font-family="Helvetica,sans-Serif" font-size="10.00">CTCT_Admin_Table\render</text>
</a>
</g>
</g>
<!-- Node2&#45;&gt;Node3 -->
<g id="edge2" class="edge"><title>Node2&#45;&gt;Node3</title>
<path fill="none" stroke="midnightblue" d="M313.97,-16C322.714,-16 331.531,-16 340.076,-16"/>
<polygon fill="midnightblue" stroke="midnightblue" points="313.759,-12.5001 303.759,-16 313.759,-19.5001 313.759,-12.5001"/>
</g>
</g>
</svg>
