<?xml version="1.0" encoding="UTF-8" standalone="no"?>
<!DOCTYPE svg PUBLIC "-//W3C//DTD SVG 1.1//EN"
 "http://www.w3.org/Graphics/SVG/1.1/DTD/svg11.dtd">
<!-- Generated by graphviz version 2.30.1 (20130221.2233)
 -->
<!-- Title: EventsCollection\getEvents Pages: 1 -->
<svg width="678pt" height="206pt"
 viewBox="0.00 0.00 678.00 206.00" xmlns="http://www.w3.org/2000/svg" xmlns:xlink="http://www.w3.org/1999/xlink">
<g id="graph0" class="graph" transform="scale(1 1) rotate(0) translate(4 202)">
<title>EventsCollection\getEvents</title>
<polygon fill="white" stroke="white" points="-4,5 -4,-202 675,-202 675,5 -4,5"/>
<!-- Node1 -->
<g id="node1" class="node"><title>Node1</title>
<polygon fill="#bfbfbf" stroke="black" points="0.133301,-99 0.133301,-119 137.867,-119 137.867,-99 0.133301,-99"/>
<text text-anchor="middle" x="69" y="-105" font-family="Helvetica,sans-Serif" font-size="10.00">EventsCollection\getEvents</text>
</g>
<!-- Node2 -->
<g id="node2" class="node"><title>Node2</title>
<g id="a_node2"><a xlink:href="class_event.html#a4d2d7fcea94bab1d73fcb32e356159a4" target="_top" xlink:title="Create an associative array of object properties from XML. ">
<polygon fill="white" stroke="black" points="196.87,-139 196.87,-159 295.13,-159 295.13,-139 196.87,-139"/>
<text text-anchor="middle" x="246" y="-145" font-family="Helvetica,sans-Serif" font-size="10.00">Event\createStruct</text>
</a>
</g>
</g>
<!-- Node1&#45;&gt;Node2 -->
<g id="edge1" class="edge"><title>Node1&#45;&gt;Node2</title>
<path fill="none" stroke="midnightblue" d="M114.16,-119.094C137.565,-124.443 166.505,-131.058 191.212,-136.706"/>
<polygon fill="midnightblue" stroke="midnightblue" points="190.629,-140.163 201.158,-138.979 192.189,-133.339 190.629,-140.163"/>
</g>
<!-- Node6 -->
<g id="node6" class="node"><title>Node6</title>
<g id="a_node6"><a xlink:href="class_utility.html#a50ac241bcff31b7348d0f623f2ab3d4c" target="_top" xlink:title="Find the next link from collection XML. ">
<polygon fill="white" stroke="black" points="196.875,-99 196.875,-119 295.125,-119 295.125,-99 196.875,-99"/>
<text text-anchor="middle" x="246" y="-105" font-family="Helvetica,sans-Serif" font-size="10.00">Utility\findNextLink</text>
</a>
</g>
</g>
<!-- Node1&#45;&gt;Node6 -->
<g id="edge5" class="edge"><title>Node1&#45;&gt;Node6</title>
<path fill="none" stroke="midnightblue" d="M137.91,-109C153.988,-109 170.996,-109 186.609,-109"/>
<polygon fill="midnightblue" stroke="midnightblue" points="186.643,-112.5 196.643,-109 186.643,-105.5 186.643,-112.5"/>
</g>
<!-- Node7 -->
<g id="node7" class="node"><title>Node7</title>
<g id="a_node7"><a xlink:href="class_c_t_c_t_request.html#aad92e5787f6d3fdf00760d99505aa6db" target="_top" xlink:title="CTCTRequest\\makeRequest">
<polygon fill="white" stroke="black" points="173.808,-58 173.808,-78 318.192,-78 318.192,-58 173.808,-58"/>
<text text-anchor="middle" x="246" y="-64" font-family="Helvetica,sans-Serif" font-size="10.00">CTCTRequest\makeRequest</text>
</a>
</g>
</g>
<!-- Node1&#45;&gt;Node7 -->
<g id="edge6" class="edge"><title>Node1&#45;&gt;Node7</title>
<path fill="none" stroke="midnightblue" d="M112.81,-98.9703C136.75,-93.3613 166.792,-86.323 192.185,-80.3739"/>
<polygon fill="midnightblue" stroke="midnightblue" points="193.088,-83.7572 202.026,-78.0683 191.491,-76.9417 193.088,-83.7572"/>
</g>
<!-- Node3 -->
<g id="node3" class="node"><title>Node3</title>
<g id="a_node3"><a xlink:href="class_check_payment.html#ace9006cba32a83f633ee69d8470f9ec5" target="_top" xlink:title="Create an associative array of object properties from XML. ">
<polygon fill="white" stroke="black" points="360.751,-178 360.751,-198 501.249,-198 501.249,-178 360.751,-178"/>
<text text-anchor="middle" x="431" y="-184" font-family="Helvetica,sans-Serif" font-size="10.00">CheckPayment\createStruct</text>
</a>
</g>
</g>
<!-- Node2&#45;&gt;Node3 -->
<g id="edge2" class="edge"><title>Node2&#45;&gt;Node3</title>
<path fill="none" stroke="midnightblue" d="M294.127,-159.043C318.248,-164.184 347.797,-170.481 373.171,-175.889"/>
<polygon fill="midnightblue" stroke="midnightblue" points="372.523,-179.329 383.033,-177.991 373.982,-172.483 372.523,-179.329"/>
</g>
<!-- Node4 -->
<g id="node4" class="node"><title>Node4</title>
<g id="a_node4"><a xlink:href="class_registration_type.html#a37e3b427edd302135828decaadfe4fe6" target="_top" xlink:title="Create an associative array of object properties from XML. ">
<polygon fill="white" stroke="black" points="357.133,-139 357.133,-159 504.867,-159 504.867,-139 357.133,-139"/>
<text text-anchor="middle" x="431" y="-145" font-family="Helvetica,sans-Serif" font-size="10.00">RegistrationType\createStruct</text>
</a>
</g>
</g>
<!-- Node2&#45;&gt;Node4 -->
<g id="edge3" class="edge"><title>Node2&#45;&gt;Node4</title>
<path fill="none" stroke="midnightblue" d="M295.56,-149C311.316,-149 329.269,-149 346.81,-149"/>
<polygon fill="midnightblue" stroke="midnightblue" points="347.072,-152.5 357.072,-149 347.072,-145.5 347.072,-152.5"/>
</g>
<!-- Node5 -->
<g id="node5" class="node"><title>Node5</title>
<g id="a_node5"><a xlink:href="class_event_fee.html#a6aeb5d79e6b0e785bddd966a31a45070" target="_top" xlink:title="Create associate array of object from XML. ">
<polygon fill="white" stroke="black" points="549.254,-141 549.254,-161 664.746,-161 664.746,-141 549.254,-141"/>
<text text-anchor="middle" x="607" y="-147" font-family="Helvetica,sans-Serif" font-size="10.00">EventFee\createStruct</text>
</a>
</g>
</g>
<!-- Node4&#45;&gt;Node5 -->
<g id="edge4" class="edge"><title>Node4&#45;&gt;Node5</title>
<path fill="none" stroke="midnightblue" d="M505.035,-149.839C516.286,-149.969 527.856,-150.102 538.967,-150.23"/>
<polygon fill="midnightblue" stroke="midnightblue" points="538.98,-153.73 549.019,-150.345 539.06,-146.73 538.98,-153.73"/>
</g>
<!-- Node8 -->
<g id="node8" class="node"><title>Node8</title>
<g id="a_node8"><a xlink:href="class_o_auth_request.html#afe9d0f6cb8e0dadb1c0faeea9ecafe45" target="_top" xlink:title="pretty much a helper function to set up the request ">
<polygon fill="white" stroke="black" points="354.079,-52 354.079,-84 507.921,-84 507.921,-52 354.079,-52"/>
<text text-anchor="start" x="362.079" y="-70" font-family="Helvetica,sans-Serif" font-size="10.00">OAuthRequest\from_consumer</text>
<text text-anchor="middle" x="431" y="-58" font-family="Helvetica,sans-Serif" font-size="10.00">_and_token</text>
</a>
</g>
</g>
<!-- Node7&#45;&gt;Node8 -->
<g id="edge7" class="edge"><title>Node7&#45;&gt;Node8</title>
<path fill="none" stroke="midnightblue" d="M318.277,-68C326.716,-68 335.397,-68 344.013,-68"/>
<polygon fill="midnightblue" stroke="midnightblue" points="344.079,-71.5001 354.079,-68 344.078,-64.5001 344.079,-71.5001"/>
</g>
<!-- Node11 -->
<g id="node11" class="node"><title>Node11</title>
<g id="a_node11"><a xlink:href="class_c_t_c_t_exception.html#adc8307ec7d7a2c730b0dac678d0e7fcb" target="_top" xlink:title="CTCTException\\generateError">
<polygon fill="white" stroke="black" points="355.473,-9 355.473,-29 506.527,-29 506.527,-9 355.473,-9"/>
<text text-anchor="middle" x="431" y="-15" font-family="Helvetica,sans-Serif" font-size="10.00">CTCTException\generateError</text>
</a>
</g>
</g>
<!-- Node7&#45;&gt;Node11 -->
<g id="edge10" class="edge"><title>Node7&#45;&gt;Node11</title>
<path fill="none" stroke="midnightblue" d="M284.474,-57.9659C312.847,-50.3689 352.016,-39.8808 382.572,-31.6994"/>
<polygon fill="midnightblue" stroke="midnightblue" points="383.821,-34.9882 392.576,-29.0207 382.011,-28.2264 383.821,-34.9882"/>
</g>
<!-- Node9 -->
<g id="node9" class="node"><title>Node9</title>
<g id="a_node9"><a xlink:href="class_o_auth_request.html#ae544b1c10b82d5a82dcc259064763420" target="_top" xlink:title="util function: current nonce ">
<polygon fill="white" stroke="black" points="545.074,-90 545.074,-122 668.926,-122 668.926,-90 545.074,-90"/>
<text text-anchor="start" x="553.074" y="-108" font-family="Helvetica,sans-Serif" font-size="10.00">OAuthRequest\generate</text>
<text text-anchor="middle" x="607" y="-96" font-family="Helvetica,sans-Serif" font-size="10.00">_nonce</text>
</a>
</g>
</g>
<!-- Node8&#45;&gt;Node9 -->
<g id="edge8" class="edge"><title>Node8&#45;&gt;Node9</title>
<path fill="none" stroke="midnightblue" d="M505.287,-84.0053C515.076,-86.143 525.102,-88.3325 534.853,-90.4621"/>
<polygon fill="midnightblue" stroke="midnightblue" points="534.377,-93.9405 544.893,-92.6548 535.87,-87.1017 534.377,-93.9405"/>
</g>
<!-- Node10 -->
<g id="node10" class="node"><title>Node10</title>
<g id="a_node10"><a xlink:href="class_o_auth_request.html#adfc6b936799f705d9a4442961a26e8cb" target="_top" xlink:title="util function: current timestamp ">
<polygon fill="white" stroke="black" points="545.074,-39 545.074,-71 668.926,-71 668.926,-39 545.074,-39"/>
<text text-anchor="start" x="553.074" y="-57" font-family="Helvetica,sans-Serif" font-size="10.00">OAuthRequest\generate</text>
<text text-anchor="middle" x="607" y="-45" font-family="Helvetica,sans-Serif" font-size="10.00">_timestamp</text>
</a>
</g>
</g>
<!-- Node8&#45;&gt;Node10 -->
<g id="edge9" class="edge"><title>Node8&#45;&gt;Node10</title>
<path fill="none" stroke="midnightblue" d="M508.066,-62.3169C516.939,-61.654 525.966,-60.9795 534.771,-60.3217"/>
<polygon fill="midnightblue" stroke="midnightblue" points="535.27,-63.7943 544.981,-59.5589 534.748,-56.8137 535.27,-63.7943"/>
</g>
<!-- Node12 -->
<g id="node12" class="node"><title>Node12</title>
<g id="a_node12"><a xlink:href="class_c_t_c_t_exception.html#a6a86531406328bbd2a6c6252b7fb3a70" target="_top" xlink:title="CTCTException\\logError">
<polygon fill="white" stroke="black" points="544.54,-0 544.54,-20 669.46,-20 669.46,-0 544.54,-0"/>
<text text-anchor="middle" x="607" y="-6" font-family="Helvetica,sans-Serif" font-size="10.00">CTCTException\logError</text>
</a>
</g>
</g>
<!-- Node11&#45;&gt;Node12 -->
<g id="edge11" class="edge"><title>Node11&#45;&gt;Node12</title>
<path fill="none" stroke="midnightblue" d="M506.549,-15.144C515.73,-14.6691 525.101,-14.1845 534.239,-13.7118"/>
<polygon fill="midnightblue" stroke="midnightblue" points="534.631,-17.1963 544.437,-13.1843 534.269,-10.2056 534.631,-17.1963"/>
</g>
</g>
</svg>
