<?xml version="1.0" encoding="UTF-8" standalone="no"?>
<!DOCTYPE svg PUBLIC "-//W3C//DTD SVG 1.1//EN"
 "http://www.w3.org/Graphics/SVG/1.1/DTD/svg11.dtd">
<!-- Generated by graphviz version 2.30.1 (20130221.2233)
 -->
<!-- Title: CTCT_Process_Form\validateEmail Pages: 1 -->
<svg width="344pt" height="118pt"
 viewBox="0.00 0.00 344.00 118.00" xmlns="http://www.w3.org/2000/svg" xmlns:xlink="http://www.w3.org/1999/xlink">
<g id="graph0" class="graph" transform="scale(1 1) rotate(0) translate(4 114)">
<title>CTCT_Process_Form\validateEmail</title>
<polygon fill="white" stroke="white" points="-4,5 -4,-114 341,-114 341,5 -4,5"/>
<!-- Node1 -->
<g id="node1" class="node"><title>Node1</title>
<polygon fill="#bfbfbf" stroke="black" points="-0.241211,-33 -0.241211,-65 150.241,-65 150.241,-33 -0.241211,-33"/>
<text text-anchor="start" x="7.75879" y="-51" font-family="Helvetica,sans-Serif" font-size="10.00">CTCT_Process_Form\validate</text>
<text text-anchor="middle" x="75" y="-39" font-family="Helvetica,sans-Serif" font-size="10.00">Email</text>
</g>
<!-- Node2 -->
<g id="node2" class="node"><title>Node2</title>
<g id="a_node2"><a xlink:href="class_c_t_c_t___process___form.html#a726bf81a5ba9dbd266831fa6a65fbd8c" target="_top" xlink:title="Verify the $_POST using Akismet. ">
<polygon fill="white" stroke="black" points="185.766,-78 185.766,-110 336.234,-110 336.234,-78 185.766,-78"/>
<text text-anchor="start" x="193.766" y="-96" font-family="Helvetica,sans-Serif" font-size="10.00">CTCT_Process_Form\akismet</text>
<text text-anchor="middle" x="261" y="-84" font-family="Helvetica,sans-Serif" font-size="10.00">Check</text>
</a>
</g>
</g>
<!-- Node1&#45;&gt;Node2 -->
<g id="edge1" class="edge"><title>Node1&#45;&gt;Node2</title>
<path fill="none" stroke="midnightblue" d="M141.649,-65.0555C155.569,-68.4598 170.368,-72.0792 184.617,-75.564"/>
<polygon fill="midnightblue" stroke="midnightblue" points="183.831,-78.9748 194.376,-77.9507 185.494,-72.1752 183.831,-78.9748"/>
</g>
<!-- Node3 -->
<g id="node3" class="node"><title>Node3</title>
<g id="a_node3"><a xlink:href="class_c_t_c_t___settings.html#ae3c076753f9e642d69924227641b75e7" target="_top" xlink:title="Alias for get_setting() &#160;CTCT_Settings::get_setting() ">
<polygon fill="white" stroke="black" points="210.483,-39 210.483,-59 311.517,-59 311.517,-39 210.483,-39"/>
<text text-anchor="middle" x="261" y="-45" font-family="Helvetica,sans-Serif" font-size="10.00">CTCT_Settings\get</text>
</a>
</g>
</g>
<!-- Node1&#45;&gt;Node3 -->
<g id="edge2" class="edge"><title>Node1&#45;&gt;Node3</title>
<path fill="none" stroke="midnightblue" d="M150.309,-49C166.837,-49 184.155,-49 200.022,-49"/>
<polygon fill="midnightblue" stroke="midnightblue" points="200.216,-52.5001 210.216,-49 200.216,-45.5001 200.216,-52.5001"/>
</g>
<!-- Node4 -->
<g id="node4" class="node"><title>Node4</title>
<g id="a_node4"><a xlink:href="class_k_w_s_contact.html#abc7dd1ab0ce9b4e227e2308ba47732c0" target="_top" xlink:title="KWSContact\\get">
<polygon fill="white" stroke="black" points="216.04,-0 216.04,-20 305.96,-20 305.96,-0 216.04,-0"/>
<text text-anchor="middle" x="261" y="-6" font-family="Helvetica,sans-Serif" font-size="10.00">KWSContact\get</text>
</a>
</g>
</g>
<!-- Node1&#45;&gt;Node4 -->
<g id="edge3" class="edge"><title>Node1&#45;&gt;Node4</title>
<path fill="none" stroke="midnightblue" d="M150.309,-33.2496C168.902,-29.3087 188.497,-25.1555 205.899,-21.467"/>
<polygon fill="midnightblue" stroke="midnightblue" points="206.811,-24.8516 215.868,-19.3541 205.36,-18.0037 206.811,-24.8516"/>
</g>
</g>
</svg>
