<?xml version="1.0" encoding="UTF-8" standalone="no"?>
<!DOCTYPE svg PUBLIC "-//W3C//DTD SVG 1.1//EN"
 "http://www.w3.org/Graphics/SVG/1.1/DTD/svg11.dtd">
<!-- Generated by graphviz version 2.30.1 (20130221.2233)
 -->
<!-- Title: ListsCollection\updateList Pages: 1 -->
<svg width="858pt" height="159pt"
 viewBox="0.00 0.00 858.00 159.00" xmlns="http://www.w3.org/2000/svg" xmlns:xlink="http://www.w3.org/1999/xlink">
<g id="graph0" class="graph" transform="scale(1 1) rotate(0) translate(4 155)">
<title>ListsCollection\updateList</title>
<polygon fill="white" stroke="white" points="-4,5 -4,-155 855,-155 855,5 -4,5"/>
<!-- Node1 -->
<g id="node1" class="node"><title>Node1</title>
<polygon fill="#bfbfbf" stroke="black" points="0.300781,-111 0.300781,-131 129.699,-131 129.699,-111 0.300781,-111"/>
<text text-anchor="middle" x="65" y="-117" font-family="Helvetica,sans-Serif" font-size="10.00">ListsCollection\updateList</text>
</g>
<!-- Node2 -->
<g id="node2" class="node"><title>Node2</title>
<g id="a_node2"><a xlink:href="class_contact_list.html#a89e0e4f328baaf6e8e5bca2bd2df7c2c" target="_top" xlink:title="Create XML Representation of the object. ">
<polygon fill="white" stroke="black" points="181.091,-131 181.091,-151 294.909,-151 294.909,-131 181.091,-131"/>
<text text-anchor="middle" x="238" y="-137" font-family="Helvetica,sans-Serif" font-size="10.00">ContactList\createXml</text>
</a>
</g>
</g>
<!-- Node1&#45;&gt;Node2 -->
<g id="edge1" class="edge"><title>Node1&#45;&gt;Node2</title>
<path fill="none" stroke="midnightblue" d="M130.161,-128.504C143.452,-130.059 157.478,-131.699 170.84,-133.262"/>
<polygon fill="midnightblue" stroke="midnightblue" points="170.566,-136.754 180.905,-134.439 171.379,-129.801 170.566,-136.754"/>
</g>
<!-- Node6 -->
<g id="node6" class="node"><title>Node6</title>
<g id="a_node6"><a xlink:href="class_c_t_c_t_request.html#aad92e5787f6d3fdf00760d99505aa6db" target="_top" xlink:title="CTCTRequest\\makeRequest">
<polygon fill="white" stroke="black" points="165.808,-92 165.808,-112 310.192,-112 310.192,-92 165.808,-92"/>
<text text-anchor="middle" x="238" y="-98" font-family="Helvetica,sans-Serif" font-size="10.00">CTCTRequest\makeRequest</text>
</a>
</g>
</g>
<!-- Node1&#45;&gt;Node6 -->
<g id="edge5" class="edge"><title>Node1&#45;&gt;Node6</title>
<path fill="none" stroke="midnightblue" d="M130.161,-113.871C138.471,-112.948 147.068,-111.992 155.611,-111.043"/>
<polygon fill="midnightblue" stroke="midnightblue" points="156.041,-114.517 165.593,-109.934 155.268,-107.56 156.041,-114.517"/>
</g>
<!-- Node3 -->
<g id="node3" class="node"><title>Node3</title>
<g id="a_node3"><a xlink:href="class_c_c_object.html#a2175b643672414fd5dd302e8feb7bc55" target="_top" xlink:title="Validate an object to check that all required fields have been supplied &#160;array $params &#45; object prope...">
<polygon fill="white" stroke="black" points="374.705,-131 374.705,-151 471.295,-151 471.295,-131 374.705,-131"/>
<text text-anchor="middle" x="423" y="-137" font-family="Helvetica,sans-Serif" font-size="10.00">CCObject\validate</text>
</a>
</g>
</g>
<!-- Node2&#45;&gt;Node3 -->
<g id="edge2" class="edge"><title>Node2&#45;&gt;Node3</title>
<path fill="none" stroke="midnightblue" d="M295.399,-141C317.249,-141 342.245,-141 364.224,-141"/>
<polygon fill="midnightblue" stroke="midnightblue" points="364.414,-144.5 374.414,-141 364.414,-137.5 364.414,-144.5"/>
</g>
<!-- Node4 -->
<g id="node4" class="node"><title>Node4</title>
<g id="a_node4"><a xlink:href="class_c_t_c_t_exception.html#adc8307ec7d7a2c730b0dac678d0e7fcb" target="_top" xlink:title="CTCTException\\generateError">
<polygon fill="white" stroke="black" points="536.473,-112 536.473,-132 687.527,-132 687.527,-112 536.473,-112"/>
<text text-anchor="middle" x="612" y="-118" font-family="Helvetica,sans-Serif" font-size="10.00">CTCTException\generateError</text>
</a>
</g>
</g>
<!-- Node3&#45;&gt;Node4 -->
<g id="edge3" class="edge"><title>Node3&#45;&gt;Node4</title>
<path fill="none" stroke="midnightblue" d="M471.672,-136.156C488.274,-134.469 507.437,-132.522 526.136,-130.623"/>
<polygon fill="midnightblue" stroke="midnightblue" points="526.56,-134.098 536.155,-129.605 525.853,-127.133 526.56,-134.098"/>
</g>
<!-- Node5 -->
<g id="node5" class="node"><title>Node5</title>
<g id="a_node5"><a xlink:href="class_c_t_c_t_exception.html#a6a86531406328bbd2a6c6252b7fb3a70" target="_top" xlink:title="CTCTException\\logError">
<polygon fill="white" stroke="black" points="724.54,-112 724.54,-132 849.46,-132 849.46,-112 724.54,-112"/>
<text text-anchor="middle" x="787" y="-118" font-family="Helvetica,sans-Serif" font-size="10.00">CTCTException\logError</text>
</a>
</g>
</g>
<!-- Node4&#45;&gt;Node5 -->
<g id="edge4" class="edge"><title>Node4&#45;&gt;Node5</title>
<path fill="none" stroke="midnightblue" d="M687.623,-122C696.431,-122 705.406,-122 714.174,-122"/>
<polygon fill="midnightblue" stroke="midnightblue" points="714.349,-125.5 724.349,-122 714.349,-118.5 714.349,-125.5"/>
</g>
<!-- Node7 -->
<g id="node7" class="node"><title>Node7</title>
<g id="a_node7"><a xlink:href="class_o_auth_request.html#afe9d0f6cb8e0dadb1c0faeea9ecafe45" target="_top" xlink:title="pretty much a helper function to set up the request ">
<polygon fill="white" stroke="black" points="346.079,-41 346.079,-73 499.921,-73 499.921,-41 346.079,-41"/>
<text text-anchor="start" x="354.079" y="-59" font-family="Helvetica,sans-Serif" font-size="10.00">OAuthRequest\from_consumer</text>
<text text-anchor="middle" x="423" y="-47" font-family="Helvetica,sans-Serif" font-size="10.00">_and_token</text>
</a>
</g>
</g>
<!-- Node6&#45;&gt;Node7 -->
<g id="edge6" class="edge"><title>Node6&#45;&gt;Node7</title>
<path fill="none" stroke="midnightblue" d="M280.069,-91.9011C299.713,-87.0706 323.867,-81.131 346.644,-75.5303"/>
<polygon fill="midnightblue" stroke="midnightblue" points="347.77,-78.8575 356.645,-73.0708 346.099,-72.06 347.77,-78.8575"/>
</g>
<!-- Node6&#45;&gt;Node4 -->
<g id="edge9" class="edge"><title>Node6&#45;&gt;Node4</title>
<path fill="none" stroke="midnightblue" d="M310.285,-105.833C371.864,-109.143 460.964,-113.934 526.194,-117.441"/>
<polygon fill="midnightblue" stroke="midnightblue" points="526.276,-120.95 536.45,-117.992 526.652,-113.96 526.276,-120.95"/>
</g>
<!-- Node8 -->
<g id="node8" class="node"><title>Node8</title>
<g id="a_node8"><a xlink:href="class_o_auth_request.html#ae544b1c10b82d5a82dcc259064763420" target="_top" xlink:title="util function: current nonce ">
<polygon fill="white" stroke="black" points="550.074,-51 550.074,-83 673.926,-83 673.926,-51 550.074,-51"/>
<text text-anchor="start" x="558.074" y="-69" font-family="Helvetica,sans-Serif" font-size="10.00">OAuthRequest\generate</text>
<text text-anchor="middle" x="612" y="-57" font-family="Helvetica,sans-Serif" font-size="10.00">_nonce</text>
</a>
</g>
</g>
<!-- Node7&#45;&gt;Node8 -->
<g id="edge7" class="edge"><title>Node7&#45;&gt;Node8</title>
<path fill="none" stroke="midnightblue" d="M500.06,-61.0674C513.145,-61.7671 526.703,-62.4921 539.658,-63.1849"/>
<polygon fill="midnightblue" stroke="midnightblue" points="539.726,-66.6935 549.899,-63.7325 540.1,-59.7035 539.726,-66.6935"/>
</g>
<!-- Node9 -->
<g id="node9" class="node"><title>Node9</title>
<g id="a_node9"><a xlink:href="class_o_auth_request.html#adfc6b936799f705d9a4442961a26e8cb" target="_top" xlink:title="util function: current timestamp ">
<polygon fill="white" stroke="black" points="550.074,-0 550.074,-32 673.926,-32 673.926,-0 550.074,-0"/>
<text text-anchor="start" x="558.074" y="-18" font-family="Helvetica,sans-Serif" font-size="10.00">OAuthRequest\generate</text>
<text text-anchor="middle" x="612" y="-6" font-family="Helvetica,sans-Serif" font-size="10.00">_timestamp</text>
</a>
</g>
</g>
<!-- Node7&#45;&gt;Node9 -->
<g id="edge8" class="edge"><title>Node7&#45;&gt;Node9</title>
<path fill="none" stroke="midnightblue" d="M497.103,-40.9722C511.198,-37.8817 525.944,-34.6487 539.972,-31.573"/>
<polygon fill="midnightblue" stroke="midnightblue" points="541.022,-34.9259 550.041,-29.3654 539.523,-28.0884 541.022,-34.9259"/>
</g>
</g>
</svg>
