<?xml version="1.0" encoding="UTF-8" standalone="no"?>
<!DOCTYPE svg PUBLIC "-//W3C//DTD SVG 1.1//EN"
 "http://www.w3.org/Graphics/SVG/1.1/DTD/svg11.dtd">
<!-- Generated by graphviz version 2.30.1 (20130221.2233)
 -->
<!-- Title: Ctct\ConstantContact\addContact Pages: 1 -->
<svg width="270pt" height="40pt"
 viewBox="0.00 0.00 270.00 40.00" xmlns="http://www.w3.org/2000/svg" xmlns:xlink="http://www.w3.org/1999/xlink">
<g id="graph0" class="graph" transform="scale(1 1) rotate(0) translate(4 36)">
<title>Ctct\ConstantContact\addContact</title>
<polygon fill="white" stroke="white" points="-4,5 -4,-36 267,-36 267,5 -4,5"/>
<!-- Node1 -->
<g id="node1" class="node"><title>Node1</title>
<polygon fill="#bfbfbf" stroke="black" points="0.478027,-0 0.478027,-32 111.522,-32 111.522,-0 0.478027,-0"/>
<text text-anchor="start" x="8.47803" y="-18" font-family="Helvetica,sans-Serif" font-size="10.00">Ctct\ConstantContact</text>
<text text-anchor="middle" x="56" y="-6" font-family="Helvetica,sans-Serif" font-size="10.00">\addContact</text>
</g>
<!-- Node2 -->
<g id="node2" class="node"><title>Node2</title>
<g id="a_node2"><a xlink:href="class_k_w_s_constant_contact.html#affa7a9ab01ddbf0d89537237c8da5459" target="_top" xlink:title="Add a contact if it doesn&#39;t exist and update it if it does. ">
<polygon fill="white" stroke="black" points="148.367,-0 148.367,-32 261.633,-32 261.633,-0 148.367,-0"/>
<text text-anchor="start" x="156.367" y="-18" font-family="Helvetica,sans-Serif" font-size="10.00">KWSConstantContact</text>
<text text-anchor="middle" x="205" y="-6" font-family="Helvetica,sans-Serif" font-size="10.00">\addUpdateContact</text>
</a>
</g>
</g>
<!-- Node1&#45;&gt;Node2 -->
<g id="edge1" class="edge"><title>Node1&#45;&gt;Node2</title>
<path fill="none" stroke="midnightblue" d="M121.93,-16C130.703,-16 139.641,-16 148.236,-16"/>
<polygon fill="midnightblue" stroke="midnightblue" points="121.737,-12.5001 111.737,-16 121.737,-19.5001 121.737,-12.5001"/>
</g>
</g>
</svg>
