<?xml version="1.0" encoding="UTF-8" standalone="no"?>
<!DOCTYPE svg PUBLIC "-//W3C//DTD SVG 1.1//EN"
 "http://www.w3.org/Graphics/SVG/1.1/DTD/svg11.dtd">
<!-- Generated by graphviz version 2.30.1 (20130221.2233)
 -->
<!-- Title: Net_DNS_RR\Net_DNS_RR Pages: 1 -->
<svg width="814pt" height="130pt"
 viewBox="0.00 0.00 814.00 130.00" xmlns="http://www.w3.org/2000/svg" xmlns:xlink="http://www.w3.org/1999/xlink">
<g id="graph0" class="graph" transform="scale(1 1) rotate(0) translate(4 126)">
<title>Net_DNS_RR\Net_DNS_RR</title>
<polygon fill="white" stroke="white" points="-4,5 -4,-126 811,-126 811,5 -4,5"/>
<!-- Node1 -->
<g id="node1" class="node"><title>Node1</title>
<polygon fill="#bfbfbf" stroke="black" points="0.369629,-51 0.369629,-71 143.63,-71 143.63,-51 0.369629,-51"/>
<text text-anchor="middle" x="72" y="-57" font-family="Helvetica,sans-Serif" font-size="10.00">Net_DNS_RR\Net_DNS_RR</text>
</g>
<!-- Node2 -->
<g id="node2" class="node"><title>Node2</title>
<g id="a_node2"><a xlink:href="class_net___d_n_s___r_r.html#ae21f552addb2e6fea8f4e87ea883ba78" target="_top" xlink:title="Net_DNS_RR\\new_from\l_array">
<polygon fill="white" stroke="black" points="192.537,-90 192.537,-122 317.463,-122 317.463,-90 192.537,-90"/>
<text text-anchor="start" x="200.537" y="-108" font-family="Helvetica,sans-Serif" font-size="10.00">Net_DNS_RR\new_from</text>
<text text-anchor="middle" x="255" y="-96" font-family="Helvetica,sans-Serif" font-size="10.00">_array</text>
</a>
</g>
</g>
<!-- Node1&#45;&gt;Node2 -->
<g id="edge1" class="edge"><title>Node1&#45;&gt;Node2</title>
<path fill="none" stroke="midnightblue" d="M123.486,-73.5517C144.897,-78.8749 170.049,-85.1283 192.529,-90.7172"/>
<polygon fill="midnightblue" stroke="midnightblue" points="124.169,-70.1151 113.62,-71.0989 122.48,-76.9083 124.169,-70.1151"/>
</g>
<!-- Node6 -->
<g id="node6" class="node"><title>Node6</title>
<g id="a_node6"><a xlink:href="class_net___d_n_s___r_r.html#a14ca0dc83ff30526df3d595b83ef13dd" target="_top" xlink:title="Net_DNS_RR\\new_from_data">
<polygon fill="white" stroke="black" points="180.025,-51 180.025,-71 329.975,-71 329.975,-51 180.025,-51"/>
<text text-anchor="middle" x="255" y="-57" font-family="Helvetica,sans-Serif" font-size="10.00">Net_DNS_RR\new_from_data</text>
</a>
</g>
</g>
<!-- Node1&#45;&gt;Node6 -->
<g id="edge5" class="edge"><title>Node1&#45;&gt;Node6</title>
<path fill="none" stroke="midnightblue" d="M153.89,-61C162.585,-61 171.4,-61 180.009,-61"/>
<polygon fill="midnightblue" stroke="midnightblue" points="153.757,-57.5001 143.757,-61 153.757,-64.5001 153.757,-57.5001"/>
</g>
<!-- Node7 -->
<g id="node7" class="node"><title>Node7</title>
<g id="a_node7"><a xlink:href="class_net___d_n_s___r_r.html#a1654146cab0e22d9bae1dae01d42f9fd" target="_top" xlink:title="Net_DNS_RR\\new_from\l_string">
<polygon fill="white" stroke="black" points="192.537,-0 192.537,-32 317.463,-32 317.463,-0 192.537,-0"/>
<text text-anchor="start" x="200.537" y="-18" font-family="Helvetica,sans-Serif" font-size="10.00">Net_DNS_RR\new_from</text>
<text text-anchor="middle" x="255" y="-6" font-family="Helvetica,sans-Serif" font-size="10.00">_string</text>
</a>
</g>
</g>
<!-- Node1&#45;&gt;Node7 -->
<g id="edge7" class="edge"><title>Node1&#45;&gt;Node7</title>
<path fill="none" stroke="midnightblue" d="M123.486,-48.4483C144.897,-43.1251 170.049,-36.8717 192.529,-31.2828"/>
<polygon fill="midnightblue" stroke="midnightblue" points="122.48,-45.0917 113.62,-50.9011 124.169,-51.8849 122.48,-45.0917"/>
</g>
<!-- Node3 -->
<g id="node3" class="node"><title>Node3</title>
<g id="a_node3"><a xlink:href="class_net___d_n_s___r_r.html#a135785ee6a8c1f0a5e0597d7f61465b5" target="_top" xlink:title="Net_DNS_RR\\factory">
<polygon fill="white" stroke="black" points="366.485,-51 366.485,-71 477.515,-71 477.515,-51 366.485,-51"/>
<text text-anchor="middle" x="422" y="-57" font-family="Helvetica,sans-Serif" font-size="10.00">Net_DNS_RR\factory</text>
</a>
</g>
</g>
<!-- Node2&#45;&gt;Node3 -->
<g id="edge2" class="edge"><title>Node2&#45;&gt;Node3</title>
<path fill="none" stroke="midnightblue" d="M324.911,-87.206C345.12,-81.6945 366.447,-75.878 383.862,-71.1287"/>
<polygon fill="midnightblue" stroke="midnightblue" points="323.829,-83.8732 315.103,-89.8811 325.671,-90.6265 323.829,-83.8732"/>
</g>
<!-- Node4 -->
<g id="node4" class="node"><title>Node4</title>
<g id="a_node4"><a xlink:href="class_net___d_n_s___packet.html#a8684f7ece05b01f65ec45160cca1852d" target="_top" xlink:title="Parses a resource record section of a packet. ">
<polygon fill="white" stroke="black" points="513.808,-51 513.808,-71 648.192,-71 648.192,-51 513.808,-51"/>
<text text-anchor="middle" x="581" y="-57" font-family="Helvetica,sans-Serif" font-size="10.00">Net_DNS_Packet\parse_rr</text>
</a>
</g>
</g>
<!-- Node3&#45;&gt;Node4 -->
<g id="edge3" class="edge"><title>Node3&#45;&gt;Node4</title>
<path fill="none" stroke="midnightblue" d="M488.118,-61C496.596,-61 505.288,-61 513.784,-61"/>
<polygon fill="midnightblue" stroke="midnightblue" points="487.911,-57.5001 477.911,-61 487.911,-64.5001 487.911,-57.5001"/>
</g>
<!-- Node5 -->
<g id="node5" class="node"><title>Node5</title>
<g id="a_node5"><a xlink:href="class_net___d_n_s___packet.html#a108461c26b058bf6aed5e4bcae9da3e6" target="_top" xlink:title="Parses a DNS packet returned by a DNS server. ">
<polygon fill="white" stroke="black" points="683.919,-51 683.919,-71 806.081,-71 806.081,-51 683.919,-51"/>
<text text-anchor="middle" x="745" y="-57" font-family="Helvetica,sans-Serif" font-size="10.00">Net_DNS_Packet\parse</text>
</a>
</g>
</g>
<!-- Node4&#45;&gt;Node5 -->
<g id="edge4" class="edge"><title>Node4&#45;&gt;Node5</title>
<path fill="none" stroke="midnightblue" d="M658.594,-61C667.031,-61 675.532,-61 683.729,-61"/>
<polygon fill="midnightblue" stroke="midnightblue" points="658.359,-57.5001 648.359,-61 658.359,-64.5001 658.359,-57.5001"/>
</g>
<!-- Node6&#45;&gt;Node3 -->
<g id="edge6" class="edge"><title>Node6&#45;&gt;Node3</title>
<path fill="none" stroke="midnightblue" d="M340.576,-61C349.342,-61 358.077,-61 366.385,-61"/>
<polygon fill="midnightblue" stroke="midnightblue" points="340.294,-57.5001 330.294,-61 340.294,-64.5001 340.294,-57.5001"/>
</g>
<!-- Node7&#45;&gt;Node3 -->
<g id="edge8" class="edge"><title>Node7&#45;&gt;Node3</title>
<path fill="none" stroke="midnightblue" d="M324.911,-34.794C345.12,-40.3055 366.447,-46.122 383.862,-50.8713"/>
<polygon fill="midnightblue" stroke="midnightblue" points="325.671,-31.3735 315.103,-32.1189 323.829,-38.1268 325.671,-31.3735"/>
</g>
</g>
</svg>
