<?xml version="1.0" encoding="UTF-8" standalone="no"?>
<!DOCTYPE svg PUBLIC "-//W3C//DTD SVG 1.1//EN"
 "http://www.w3.org/Graphics/SVG/1.1/DTD/svg11.dtd">
<!-- Generated by graphviz version 2.30.1 (20130221.2233)
 -->
<!-- Title: Net_DNS\typesbyname Pages: 1 -->
<svg width="766pt" height="169pt"
 viewBox="0.00 0.00 766.00 169.00" xmlns="http://www.w3.org/2000/svg" xmlns:xlink="http://www.w3.org/1999/xlink">
<g id="graph0" class="graph" transform="scale(1 1) rotate(0) translate(4 165)">
<title>Net_DNS\typesbyname</title>
<polygon fill="white" stroke="white" points="-4,5 -4,-165 763,-165 763,5 -4,5"/>
<!-- Node1 -->
<g id="node1" class="node"><title>Node1</title>
<polygon fill="#bfbfbf" stroke="black" points="-0.246094,-79 -0.246094,-99 120.246,-99 120.246,-79 -0.246094,-79"/>
<text text-anchor="middle" x="60" y="-85" font-family="Helvetica,sans-Serif" font-size="10.00">Net_DNS\typesbyname</text>
</g>
<!-- Node2 -->
<g id="node2" class="node"><title>Node2</title>
<g id="a_node2"><a xlink:href="class_net___d_n_s___question.html#af2289a48d2fc52b5619ae769a38860c5" target="_top" xlink:title="Net_DNS_Question\\data">
<polygon fill="white" stroke="black" points="155.968,-141 155.968,-161 282.032,-161 282.032,-141 155.968,-141"/>
<text text-anchor="middle" x="219" y="-147" font-family="Helvetica,sans-Serif" font-size="10.00">Net_DNS_Question\data</text>
</a>
</g>
</g>
<!-- Node1&#45;&gt;Node2 -->
<g id="edge1" class="edge"><title>Node1&#45;&gt;Node2</title>
<path fill="none" stroke="midnightblue" d="M91.3439,-103.383C109.831,-111.903 134.046,-122.632 156,-131 165.195,-134.505 175.3,-137.937 184.636,-140.942"/>
<polygon fill="midnightblue" stroke="midnightblue" points="92.7842,-100.193 82.2405,-99.1537 89.8347,-106.541 92.7842,-100.193"/>
</g>
<!-- Node3 -->
<g id="node3" class="node"><title>Node3</title>
<g id="a_node3"><a xlink:href="class_net___d_n_s___r_r.html#a2ba8db7475430522d54c3eff8f4f54b4" target="_top" xlink:title="Net_DNS_RR\\data">
<polygon fill="white" stroke="black" points="168.759,-102 168.759,-122 269.241,-122 269.241,-102 168.759,-102"/>
<text text-anchor="middle" x="219" y="-108" font-family="Helvetica,sans-Serif" font-size="10.00">Net_DNS_RR\data</text>
</a>
</g>
</g>
<!-- Node1&#45;&gt;Node3 -->
<g id="edge2" class="edge"><title>Node1&#45;&gt;Node3</title>
<path fill="none" stroke="midnightblue" d="M130.533,-99.1864C143.344,-101.063 156.477,-102.987 168.545,-104.755"/>
<polygon fill="midnightblue" stroke="midnightblue" points="130.757,-95.6819 120.355,-97.6953 129.742,-102.608 130.757,-95.6819"/>
</g>
<!-- Node4 -->
<g id="node4" class="node"><title>Node4</title>
<g id="a_node4"><a xlink:href="class_net___d_n_s___question.html#a99a2a39439701505659336cfa10cfc25" target="_top" xlink:title="Net_DNS_Question\\Net\l_DNS_Question">
<polygon fill="white" stroke="black" points="157.919,-51 157.919,-83 280.081,-83 280.081,-51 157.919,-51"/>
<text text-anchor="start" x="165.919" y="-69" font-family="Helvetica,sans-Serif" font-size="10.00">Net_DNS_Question\Net</text>
<text text-anchor="middle" x="219" y="-57" font-family="Helvetica,sans-Serif" font-size="10.00">_DNS_Question</text>
</a>
</g>
</g>
<!-- Node1&#45;&gt;Node4 -->
<g id="edge3" class="edge"><title>Node1&#45;&gt;Node4</title>
<path fill="none" stroke="midnightblue" d="M130.521,-79.2582C139.609,-77.9847 148.861,-76.6883 157.779,-75.4387"/>
<polygon fill="midnightblue" stroke="midnightblue" points="129.772,-75.8288 120.355,-80.6827 130.744,-82.7611 129.772,-75.8288"/>
</g>
<!-- Node5 -->
<g id="node5" class="node"><title>Node5</title>
<g id="a_node5"><a xlink:href="class_net___d_n_s___r_r.html#a1654146cab0e22d9bae1dae01d42f9fd" target="_top" xlink:title="Net_DNS_RR\\new_from\l_string">
<polygon fill="white" stroke="black" points="156.537,-0 156.537,-32 281.463,-32 281.463,-0 156.537,-0"/>
<text text-anchor="start" x="164.537" y="-18" font-family="Helvetica,sans-Serif" font-size="10.00">Net_DNS_RR\new_from</text>
<text text-anchor="middle" x="219" y="-6" font-family="Helvetica,sans-Serif" font-size="10.00">_string</text>
</a>
</g>
</g>
<!-- Node1&#45;&gt;Node5 -->
<g id="edge4" class="edge"><title>Node1&#45;&gt;Node5</title>
<path fill="none" stroke="midnightblue" d="M89.3935,-74.3746C108.158,-64.8528 133.374,-52.3288 156,-42 163.22,-38.7039 170.979,-35.3244 178.481,-32.1383"/>
<polygon fill="midnightblue" stroke="midnightblue" points="87.7988,-71.2589 80.479,-78.9185 90.9778,-77.4954 87.7988,-71.2589"/>
</g>
<!-- Node6 -->
<g id="node6" class="node"><title>Node6</title>
<g id="a_node6"><a xlink:href="class_net___d_n_s___r_r.html#a135785ee6a8c1f0a5e0597d7f61465b5" target="_top" xlink:title="Net_DNS_RR\\factory">
<polygon fill="white" stroke="black" points="318.485,-6 318.485,-26 429.515,-26 429.515,-6 318.485,-6"/>
<text text-anchor="middle" x="374" y="-12" font-family="Helvetica,sans-Serif" font-size="10.00">Net_DNS_RR\factory</text>
</a>
</g>
</g>
<!-- Node5&#45;&gt;Node6 -->
<g id="edge5" class="edge"><title>Node5&#45;&gt;Node6</title>
<path fill="none" stroke="midnightblue" d="M291.811,-16C300.743,-16 309.76,-16 318.373,-16"/>
<polygon fill="midnightblue" stroke="midnightblue" points="291.79,-12.5001 281.79,-16 291.79,-19.5001 291.79,-12.5001"/>
</g>
<!-- Node7 -->
<g id="node7" class="node"><title>Node7</title>
<g id="a_node7"><a xlink:href="class_net___d_n_s___packet.html#a8684f7ece05b01f65ec45160cca1852d" target="_top" xlink:title="Parses a resource record section of a packet. ">
<polygon fill="white" stroke="black" points="465.808,-6 465.808,-26 600.192,-26 600.192,-6 465.808,-6"/>
<text text-anchor="middle" x="533" y="-12" font-family="Helvetica,sans-Serif" font-size="10.00">Net_DNS_Packet\parse_rr</text>
</a>
</g>
</g>
<!-- Node6&#45;&gt;Node7 -->
<g id="edge6" class="edge"><title>Node6&#45;&gt;Node7</title>
<path fill="none" stroke="midnightblue" d="M440.118,-16C448.596,-16 457.288,-16 465.784,-16"/>
<polygon fill="midnightblue" stroke="midnightblue" points="439.911,-12.5001 429.911,-16 439.911,-19.5001 439.911,-12.5001"/>
</g>
<!-- Node8 -->
<g id="node8" class="node"><title>Node8</title>
<g id="a_node8"><a xlink:href="class_net___d_n_s___packet.html#a108461c26b058bf6aed5e4bcae9da3e6" target="_top" xlink:title="Parses a DNS packet returned by a DNS server. ">
<polygon fill="white" stroke="black" points="635.919,-6 635.919,-26 758.081,-26 758.081,-6 635.919,-6"/>
<text text-anchor="middle" x="697" y="-12" font-family="Helvetica,sans-Serif" font-size="10.00">Net_DNS_Packet\parse</text>
</a>
</g>
</g>
<!-- Node7&#45;&gt;Node8 -->
<g id="edge7" class="edge"><title>Node7&#45;&gt;Node8</title>
<path fill="none" stroke="midnightblue" d="M610.594,-16C619.031,-16 627.532,-16 635.729,-16"/>
<polygon fill="midnightblue" stroke="midnightblue" points="610.359,-12.5001 600.359,-16 610.359,-19.5001 610.359,-12.5001"/>
</g>
</g>
</svg>
