<?xml version="1.0" encoding="UTF-8" standalone="no"?>
<!DOCTYPE svg PUBLIC "-//W3C//DTD SVG 1.1//EN"
 "http://www.w3.org/Graphics/SVG/1.1/DTD/svg11.dtd">
<!-- Generated by graphviz version 2.30.1 (20130221.2233)
 -->
<!-- Title: Ctct\Util\RestClient\httpRequest Pages: 1 -->
<svg width="262pt" height="40pt"
 viewBox="0.00 0.00 262.00 40.00" xmlns="http://www.w3.org/2000/svg" xmlns:xlink="http://www.w3.org/1999/xlink">
<g id="graph0" class="graph" transform="scale(1 1) rotate(0) translate(4 36)">
<title>Ctct\Util\RestClient\httpRequest</title>
<polygon fill="white" stroke="white" points="-4,5 -4,-36 259,-36 259,5 -4,5"/>
<!-- Node1 -->
<g id="node1" class="node"><title>Node1</title>
<polygon fill="#bfbfbf" stroke="black" points="0.046875,-0 0.046875,-32 99.9531,-32 99.9531,-0 0.046875,-0"/>
<text text-anchor="start" x="8.04688" y="-18" font-family="Helvetica,sans-Serif" font-size="10.00">Ctct\Util\RestClient</text>
<text text-anchor="middle" x="50" y="-6" font-family="Helvetica,sans-Serif" font-size="10.00">\httpRequest</text>
</g>
<!-- Node2 -->
<g id="node2" class="node"><title>Node2</title>
<g id="a_node2"><a xlink:href="class_ctct_1_1_util_1_1_curl_response.html#acafe6d33ebefa50b7d83fb37c4f4f6fd" target="_top" xlink:title="Ctct\\Util\\CurlResponse\l\\create">
<polygon fill="white" stroke="black" points="136.429,-0 136.429,-32 253.571,-32 253.571,-0 136.429,-0"/>
<text text-anchor="start" x="144.429" y="-18" font-family="Helvetica,sans-Serif" font-size="10.00">Ctct\Util\CurlResponse</text>
<text text-anchor="middle" x="195" y="-6" font-family="Helvetica,sans-Serif" font-size="10.00">\create</text>
</a>
</g>
</g>
<!-- Node1&#45;&gt;Node2 -->
<g id="edge1" class="edge"><title>Node1&#45;&gt;Node2</title>
<path fill="none" stroke="midnightblue" d="M100.212,-16C108.574,-16 117.388,-16 126.129,-16"/>
<polygon fill="midnightblue" stroke="midnightblue" points="126.326,-19.5001 136.326,-16 126.326,-12.5001 126.326,-19.5001"/>
</g>
</g>
</svg>
