<?xml version="1.0" encoding="UTF-8" standalone="no"?>
<!DOCTYPE svg PUBLIC "-//W3C//DTD SVG 1.1//EN"
 "http://www.w3.org/Graphics/SVG/1.1/DTD/svg11.dtd">
<!-- Generated by graphviz version 2.30.1 (20130221.2233)
 -->
<!-- Title: Net_DNS_Header\data Pages: 1 -->
<svg width="298pt" height="67pt"
 viewBox="0.00 0.00 298.00 67.00" xmlns="http://www.w3.org/2000/svg" xmlns:xlink="http://www.w3.org/1999/xlink">
<g id="graph0" class="graph" transform="scale(1 1) rotate(0) translate(4 63)">
<title>Net_DNS_Header\data</title>
<polygon fill="white" stroke="white" points="-4,5 -4,-63 295,-63 295,5 -4,5"/>
<!-- Node1 -->
<g id="node1" class="node"><title>Node1</title>
<polygon fill="#bfbfbf" stroke="black" points="0.581543,-19 0.581543,-39 119.418,-39 119.418,-19 0.581543,-19"/>
<text text-anchor="middle" x="60" y="-25" font-family="Helvetica,sans-Serif" font-size="10.00">Net_DNS_Header\data</text>
</g>
<!-- Node2 -->
<g id="node2" class="node"><title>Node2</title>
<g id="a_node2"><a xlink:href="class_net___d_n_s.html#a609e23db7d7c5de09aa1ebc857efb9b0" target="_top" xlink:title="Translates opcode names to integers. ">
<polygon fill="white" stroke="black" points="155.801,-39 155.801,-59 290.199,-59 290.199,-39 155.801,-39"/>
<text text-anchor="middle" x="223" y="-45" font-family="Helvetica,sans-Serif" font-size="10.00">Net_DNS\opcodesbyname</text>
</a>
</g>
</g>
<!-- Node1&#45;&gt;Node2 -->
<g id="edge1" class="edge"><title>Node1&#45;&gt;Node2</title>
<path fill="none" stroke="midnightblue" d="M119.58,-36.277C127.981,-37.3206 136.727,-38.4071 145.412,-39.4859"/>
<polygon fill="midnightblue" stroke="midnightblue" points="145.2,-42.9864 155.555,-40.7459 146.062,-36.0398 145.2,-42.9864"/>
</g>
<!-- Node3 -->
<g id="node3" class="node"><title>Node3</title>
<g id="a_node3"><a xlink:href="class_net___d_n_s.html#a3e484be68612388ae45606207c62077a" target="_top" xlink:title="Translates rcode names to integers. ">
<polygon fill="white" stroke="black" points="159.697,-0 159.697,-20 286.303,-20 286.303,-0 159.697,-0"/>
<text text-anchor="middle" x="223" y="-6" font-family="Helvetica,sans-Serif" font-size="10.00">Net_DNS\rcodesbyname</text>
</a>
</g>
</g>
<!-- Node1&#45;&gt;Node3 -->
<g id="edge2" class="edge"><title>Node1&#45;&gt;Node3</title>
<path fill="none" stroke="midnightblue" d="M119.58,-22.0868C129.358,-20.9329 139.603,-19.7239 149.675,-18.5353"/>
<polygon fill="midnightblue" stroke="midnightblue" points="150.145,-22.0042 159.666,-17.3562 149.325,-15.0524 150.145,-22.0042"/>
</g>
</g>
</svg>
