<?xml version="1.0" encoding="UTF-8" standalone="no"?>
<!DOCTYPE svg PUBLIC "-//W3C//DTD SVG 1.1//EN"
 "http://www.w3.org/Graphics/SVG/1.1/DTD/svg11.dtd">
<!-- Generated by graphviz version 2.30.1 (20130221.2233)
 -->
<!-- Title: Campaign\createXml Pages: 1 -->
<svg width="264pt" height="142pt"
 viewBox="0.00 0.00 264.00 142.00" xmlns="http://www.w3.org/2000/svg" xmlns:xlink="http://www.w3.org/1999/xlink">
<g id="graph0" class="graph" transform="scale(1 1) rotate(0) translate(4 138)">
<title>Campaign\createXml</title>
<polygon fill="white" stroke="white" points="-4,5 -4,-138 261,-138 261,5 -4,5"/>
<!-- Node1 -->
<g id="node1" class="node"><title>Node1</title>
<polygon fill="#bfbfbf" stroke="black" points="0.312988,-57 0.312988,-77 109.687,-77 109.687,-57 0.312988,-57"/>
<text text-anchor="middle" x="55" y="-63" font-family="Helvetica,sans-Serif" font-size="10.00">Campaign\createXml</text>
</g>
<!-- Node2 -->
<g id="node2" class="node"><title>Node2</title>
<g id="a_node2"><a xlink:href="class_campaigns_collection.html#a4bbf8266fa150e04a4bff5a8052967a6" target="_top" xlink:title="Add a new Campaign. ">
<polygon fill="white" stroke="black" points="145.754,-102 145.754,-134 256.246,-134 256.246,-102 145.754,-102"/>
<text text-anchor="start" x="153.754" y="-120" font-family="Helvetica,sans-Serif" font-size="10.00">CampaignsCollection</text>
<text text-anchor="middle" x="201" y="-108" font-family="Helvetica,sans-Serif" font-size="10.00">\addCampaign</text>
</a>
</g>
</g>
<!-- Node1&#45;&gt;Node2 -->
<g id="edge1" class="edge"><title>Node1&#45;&gt;Node2</title>
<path fill="none" stroke="midnightblue" d="M94.0498,-80.476C112.633,-87.0576 135.13,-95.0251 154.604,-101.922"/>
<polygon fill="midnightblue" stroke="midnightblue" points="95.0445,-77.1153 84.4498,-77.076 92.7076,-83.7137 95.0445,-77.1153"/>
</g>
<!-- Node3 -->
<g id="node3" class="node"><title>Node3</title>
<g id="a_node3"><a xlink:href="class_campaigns_collection.html#a0d5df67f0dd50c64257c8b0135196509" target="_top" xlink:title="Schedule an email for delivery. ">
<polygon fill="white" stroke="black" points="145.754,-51 145.754,-83 256.246,-83 256.246,-51 145.754,-51"/>
<text text-anchor="start" x="153.754" y="-69" font-family="Helvetica,sans-Serif" font-size="10.00">CampaignsCollection</text>
<text text-anchor="middle" x="201" y="-57" font-family="Helvetica,sans-Serif" font-size="10.00">\scheduleCampaign</text>
</a>
</g>
</g>
<!-- Node1&#45;&gt;Node3 -->
<g id="edge2" class="edge"><title>Node1&#45;&gt;Node3</title>
<path fill="none" stroke="midnightblue" d="M120.27,-67C128.75,-67 137.375,-67 145.667,-67"/>
<polygon fill="midnightblue" stroke="midnightblue" points="120.03,-63.5001 110.03,-67 120.03,-70.5001 120.03,-63.5001"/>
</g>
<!-- Node4 -->
<g id="node4" class="node"><title>Node4</title>
<g id="a_node4"><a xlink:href="class_campaigns_collection.html#a9c9715edb4f23ba515ce7b53a38cfdbb" target="_top" xlink:title="Update a campaign with it&#39;s current properties. ">
<polygon fill="white" stroke="black" points="145.754,-0 145.754,-32 256.246,-32 256.246,-0 145.754,-0"/>
<text text-anchor="start" x="153.754" y="-18" font-family="Helvetica,sans-Serif" font-size="10.00">CampaignsCollection</text>
<text text-anchor="middle" x="201" y="-6" font-family="Helvetica,sans-Serif" font-size="10.00">\updateCampaign</text>
</a>
</g>
</g>
<!-- Node1&#45;&gt;Node4 -->
<g id="edge3" class="edge"><title>Node1&#45;&gt;Node4</title>
<path fill="none" stroke="midnightblue" d="M94.0498,-53.524C112.633,-46.9424 135.13,-38.9749 154.604,-32.0777"/>
<polygon fill="midnightblue" stroke="midnightblue" points="92.7076,-50.2863 84.4498,-56.924 95.0445,-56.8847 92.7076,-50.2863"/>
</g>
</g>
</svg>
