<?xml version="1.0" encoding="UTF-8" standalone="no"?>
<!DOCTYPE svg PUBLIC "-//W3C//DTD SVG 1.1//EN"
 "http://www.w3.org/Graphics/SVG/1.1/DTD/svg11.dtd">
<!-- Generated by graphviz version 2.30.1 (20130221.2233)
 -->
<!-- Title: Ctct\Components\Activities\Activity\create Pages: 1 -->
<svg width="316pt" height="40pt"
 viewBox="0.00 0.00 316.00 40.00" xmlns="http://www.w3.org/2000/svg" xmlns:xlink="http://www.w3.org/1999/xlink">
<g id="graph0" class="graph" transform="scale(1 1) rotate(0) translate(4 36)">
<title>Ctct\Components\Activities\Activity\create</title>
<polygon fill="white" stroke="white" points="-4,5 -4,-36 313,-36 313,5 -4,5"/>
<!-- Node1 -->
<g id="node1" class="node"><title>Node1</title>
<polygon fill="#bfbfbf" stroke="black" points="0.256348,-0 0.256348,-32 135.744,-32 135.744,-0 0.256348,-0"/>
<text text-anchor="start" x="8.25635" y="-18" font-family="Helvetica,sans-Serif" font-size="10.00">Ctct\Components\Activities</text>
<text text-anchor="middle" x="68" y="-6" font-family="Helvetica,sans-Serif" font-size="10.00">\Activity\create</text>
</g>
<!-- Node2 -->
<g id="node2" class="node"><title>Node2</title>
<g id="a_node2"><a xlink:href="class_ctct_1_1_components_1_1_activities_1_1_activity_error.html#aa9bc6b634f25fd213c068cbf97e966ec" target="_top" xlink:title="Factory method to create an object from an array. ">
<polygon fill="white" stroke="black" points="172.256,-0 172.256,-32 307.744,-32 307.744,-0 172.256,-0"/>
<text text-anchor="start" x="180.256" y="-18" font-family="Helvetica,sans-Serif" font-size="10.00">Ctct\Components\Activities</text>
<text text-anchor="middle" x="240" y="-6" font-family="Helvetica,sans-Serif" font-size="10.00">\ActivityError\create</text>
</a>
</g>
</g>
<!-- Node1&#45;&gt;Node2 -->
<g id="edge1" class="edge"><title>Node1&#45;&gt;Node2</title>
<path fill="none" stroke="midnightblue" d="M136.189,-16C144.66,-16 153.379,-16 161.988,-16"/>
<polygon fill="midnightblue" stroke="midnightblue" points="162.021,-19.5001 172.021,-16 162.021,-12.5001 162.021,-19.5001"/>
</g>
</g>
</svg>
