<?xml version="1.0" encoding="UTF-8" standalone="no"?>
<!DOCTYPE svg PUBLIC "-//W3C//DTD SVG 1.1//EN"
 "http://www.w3.org/Graphics/SVG/1.1/DTD/svg11.dtd">
<!-- Generated by graphviz version 2.30.1 (20130221.2233)
 -->
<!-- Title: Net_DNS_Resolver\read_tcp Pages: 1 -->
<svg width="676pt" height="28pt"
 viewBox="0.00 0.00 676.00 28.00" xmlns="http://www.w3.org/2000/svg" xmlns:xlink="http://www.w3.org/1999/xlink">
<g id="graph0" class="graph" transform="scale(1 1) rotate(0) translate(4 24)">
<title>Net_DNS_Resolver\read_tcp</title>
<polygon fill="white" stroke="white" points="-4,5 -4,-24 673,-24 673,5 -4,5"/>
<!-- Node1 -->
<g id="node1" class="node"><title>Node1</title>
<polygon fill="#bfbfbf" stroke="black" points="0.524902,-0 0.524902,-20 145.475,-20 145.475,-0 0.524902,-0"/>
<text text-anchor="middle" x="73" y="-6" font-family="Helvetica,sans-Serif" font-size="10.00">Net_DNS_Resolver\read_tcp</text>
</g>
<!-- Node2 -->
<g id="node2" class="node"><title>Node2</title>
<g id="a_node2"><a xlink:href="class_net___d_n_s___resolver.html#ac1cd50ed973dab9de9d875ce7c4b79f7" target="_top" xlink:title="Requests the next RR from a existing transfer started with axfr_start. ">
<polygon fill="white" stroke="black" points="182.417,-0 182.417,-20 329.583,-20 329.583,-0 182.417,-0"/>
<text text-anchor="middle" x="256" y="-6" font-family="Helvetica,sans-Serif" font-size="10.00">Net_DNS_Resolver\axfr_next</text>
</a>
</g>
</g>
<!-- Node1&#45;&gt;Node2 -->
<g id="edge1" class="edge"><title>Node1&#45;&gt;Node2</title>
<path fill="none" stroke="midnightblue" d="M155.799,-10C164.602,-10 173.516,-10 182.203,-10"/>
<polygon fill="midnightblue" stroke="midnightblue" points="155.536,-6.5001 145.536,-10 155.536,-13.5001 155.536,-6.5001"/>
</g>
<!-- Node3 -->
<g id="node3" class="node"><title>Node3</title>
<g id="a_node3"><a xlink:href="class_net___d_n_s___resolver.html#a9a745e4f5009dac279562318bb927370" target="_top" xlink:title="Performs an AXFR query (zone transfer) ">
<polygon fill="white" stroke="black" points="366.648,-0 366.648,-20 489.352,-20 489.352,-0 366.648,-0"/>
<text text-anchor="middle" x="428" y="-6" font-family="Helvetica,sans-Serif" font-size="10.00">Net_DNS_Resolver\axfr</text>
</a>
</g>
</g>
<!-- Node2&#45;&gt;Node3 -->
<g id="edge2" class="edge"><title>Node2&#45;&gt;Node3</title>
<path fill="none" stroke="midnightblue" d="M339.714,-10C348.714,-10 357.749,-10 366.413,-10"/>
<polygon fill="midnightblue" stroke="midnightblue" points="339.588,-6.5001 329.588,-10 339.588,-13.5001 339.588,-6.5001"/>
</g>
<!-- Node4 -->
<g id="node4" class="node"><title>Node4</title>
<g id="a_node4"><a xlink:href="class_net___d_n_s___resolver.html#a73f7861954f4990bc8d18d6a82f7334d" target="_top" xlink:title="Performs an AXFR query (zone transfer) (OLD BUGGY STYLE) ">
<polygon fill="white" stroke="black" points="526.195,-0 526.195,-20 667.805,-20 667.805,-0 526.195,-0"/>
<text text-anchor="middle" x="597" y="-6" font-family="Helvetica,sans-Serif" font-size="10.00">Net_DNS_Resolver\axfr_old</text>
</a>
</g>
</g>
<!-- Node3&#45;&gt;Node4 -->
<g id="edge3" class="edge"><title>Node3&#45;&gt;Node4</title>
<path fill="none" stroke="midnightblue" d="M499.809,-10C508.46,-10 517.296,-10 525.935,-10"/>
<polygon fill="midnightblue" stroke="midnightblue" points="499.763,-6.5001 489.763,-10 499.763,-13.5001 499.763,-6.5001"/>
</g>
</g>
</svg>
