<?xml version="1.0" encoding="UTF-8" standalone="no"?>
<!DOCTYPE svg PUBLIC "-//W3C//DTD SVG 1.1//EN"
 "http://www.w3.org/Graphics/SVG/1.1/DTD/svg11.dtd">
<!-- Generated by graphviz version 2.30.1 (20130221.2233)
 -->
<!-- Title: Ctct\Services\ListService\addList Pages: 1 -->
<svg width="308pt" height="181pt"
 viewBox="0.00 0.00 308.00 181.00" xmlns="http://www.w3.org/2000/svg" xmlns:xlink="http://www.w3.org/1999/xlink">
<g id="graph0" class="graph" transform="scale(1 1) rotate(0) translate(4 177)">
<title>Ctct\Services\ListService\addList</title>
<polygon fill="white" stroke="white" points="-4,5 -4,-177 305,-177 305,5 -4,5"/>
<!-- Node1 -->
<g id="node1" class="node"><title>Node1</title>
<polygon fill="#bfbfbf" stroke="black" points="0.707031,-67 0.707031,-99 127.293,-99 127.293,-67 0.707031,-67"/>
<text text-anchor="start" x="8.70703" y="-85" font-family="Helvetica,sans-Serif" font-size="10.00">Ctct\Services\ListService</text>
<text text-anchor="middle" x="64" y="-73" font-family="Helvetica,sans-Serif" font-size="10.00">\addList</text>
</g>
<!-- Node2 -->
<g id="node2" class="node"><title>Node2</title>
<g id="a_node2"><a xlink:href="class_ctct_1_1_services_1_1_base_service.html#a682b3692a73a009ec026442110cf968e" target="_top" xlink:title="Build a URL from a base url and optional array of query parameters to append to the url...">
<polygon fill="white" stroke="black" points="165.091,-141 165.091,-173 298.909,-173 298.909,-141 165.091,-141"/>
<text text-anchor="start" x="173.091" y="-159" font-family="Helvetica,sans-Serif" font-size="10.00">Ctct\Services\BaseService</text>
<text text-anchor="middle" x="232" y="-147" font-family="Helvetica,sans-Serif" font-size="10.00">\buildUrl</text>
</a>
</g>
</g>
<!-- Node1&#45;&gt;Node2 -->
<g id="edge1" class="edge"><title>Node1&#45;&gt;Node2</title>
<path fill="none" stroke="midnightblue" d="M96.3517,-99.009C115.673,-108.672 141.059,-121.007 164,-131 168.67,-133.034 173.555,-135.081 178.467,-137.085"/>
<polygon fill="midnightblue" stroke="midnightblue" points="177.314,-140.393 187.898,-140.87 179.921,-133.897 177.314,-140.393"/>
</g>
<!-- Node3 -->
<g id="node3" class="node"><title>Node3</title>
<g id="a_node3"><a xlink:href="class_ctct_1_1_components_1_1_contacts_1_1_contact_list.html#a3fc8e0d47e974d0ba80d1ff92ec48d5c" target="_top" xlink:title="Factory method to create a ContactList object from an array. ">
<polygon fill="white" stroke="black" points="164.251,-90 164.251,-122 299.749,-122 299.749,-90 164.251,-90"/>
<text text-anchor="start" x="172.251" y="-108" font-family="Helvetica,sans-Serif" font-size="10.00">Ctct\Components\Contacts</text>
<text text-anchor="middle" x="232" y="-96" font-family="Helvetica,sans-Serif" font-size="10.00">\ContactList\create</text>
</a>
</g>
</g>
<!-- Node1&#45;&gt;Node3 -->
<g id="edge2" class="edge"><title>Node1&#45;&gt;Node3</title>
<path fill="none" stroke="midnightblue" d="M127.757,-91.6953C136.27,-92.8748 145.086,-94.0962 153.815,-95.3057"/>
<polygon fill="midnightblue" stroke="midnightblue" points="153.613,-98.8111 163.999,-96.7168 154.574,-91.8774 153.613,-98.8111"/>
</g>
<!-- Node4 -->
<g id="node4" class="node"><title>Node4</title>
<g id="a_node4"><a xlink:href="class_ctct_1_1_util_1_1_config.html#ab224fae1ce1a1993c1ac42c708dc7de9" target="_top" xlink:title="Get a configuration property given a specified location, example usage: Config::get(&#39;auth.token_endpoint&#39;) ">
<polygon fill="white" stroke="black" points="182.318,-51 182.318,-71 281.682,-71 281.682,-51 182.318,-51"/>
<text text-anchor="middle" x="232" y="-57" font-family="Helvetica,sans-Serif" font-size="10.00">Ctct\Util\Config\get</text>
</a>
</g>
</g>
<!-- Node1&#45;&gt;Node4 -->
<g id="edge3" class="edge"><title>Node1&#45;&gt;Node4</title>
<path fill="none" stroke="midnightblue" d="M127.757,-74.6827C142.238,-72.7636 157.594,-70.7285 171.912,-68.8309"/>
<polygon fill="midnightblue" stroke="midnightblue" points="172.674,-72.2607 182.127,-67.4771 171.754,-65.3213 172.674,-72.2607"/>
</g>
<!-- Node5 -->
<g id="node5" class="node"><title>Node5</title>
<g id="a_node5"><a xlink:href="class_ctct_1_1_components_1_1_contacts_1_1_contact_list.html#aab1afdb60f9244ec80b485d16836a42e" target="_top" xlink:title="Ctct\\Components\\Contacts\l\\ContactList\\toJson">
<polygon fill="white" stroke="black" points="164.251,-0 164.251,-32 299.749,-32 299.749,-0 164.251,-0"/>
<text text-anchor="start" x="172.251" y="-18" font-family="Helvetica,sans-Serif" font-size="10.00">Ctct\Components\Contacts</text>
<text text-anchor="middle" x="232" y="-6" font-family="Helvetica,sans-Serif" font-size="10.00">\ContactList\toJson</text>
</a>
</g>
</g>
<!-- Node1&#45;&gt;Node5 -->
<g id="edge4" class="edge"><title>Node1&#45;&gt;Node5</title>
<path fill="none" stroke="midnightblue" d="M103.47,-66.8325C121.766,-59.2037 143.971,-50.0325 164,-42 169.066,-39.9681 174.358,-37.8714 179.65,-35.7913"/>
<polygon fill="midnightblue" stroke="midnightblue" points="181.09,-38.9863 189.127,-32.0827 178.539,-32.4676 181.09,-38.9863"/>
</g>
</g>
</svg>
