<?xml version="1.0" encoding="UTF-8" standalone="no"?>
<!DOCTYPE svg PUBLIC "-//W3C//DTD SVG 1.1//EN"
 "http://www.w3.org/Graphics/SVG/1.1/DTD/svg11.dtd">
<!-- Generated by graphviz version 2.30.1 (20130221.2233)
 -->
<!-- Title: CampaignsCollection\addCampaign Pages: 1 -->
<svg width="838pt" height="198pt"
 viewBox="0.00 0.00 838.00 198.00" xmlns="http://www.w3.org/2000/svg" xmlns:xlink="http://www.w3.org/1999/xlink">
<g id="graph0" class="graph" transform="scale(1 1) rotate(0) translate(4 194)">
<title>CampaignsCollection\addCampaign</title>
<polygon fill="white" stroke="white" points="-4,5 -4,-194 835,-194 835,5 -4,5"/>
<!-- Node1 -->
<g id="node1" class="node"><title>Node1</title>
<polygon fill="#bfbfbf" stroke="black" points="-0.246094,-125 -0.246094,-157 110.246,-157 110.246,-125 -0.246094,-125"/>
<text text-anchor="start" x="7.75391" y="-143" font-family="Helvetica,sans-Serif" font-size="10.00">CampaignsCollection</text>
<text text-anchor="middle" x="55" y="-131" font-family="Helvetica,sans-Serif" font-size="10.00">\addCampaign</text>
</g>
<!-- Node2 -->
<g id="node2" class="node"><title>Node2</title>
<g id="a_node2"><a xlink:href="class_campaign.html#ae87db0aff355b799e0e3b8e62f509f1b" target="_top" xlink:title="Create associate array of object from XML. ">
<polygon fill="white" stroke="black" points="158.865,-170 158.865,-190 277.135,-190 277.135,-170 158.865,-170"/>
<text text-anchor="middle" x="218" y="-176" font-family="Helvetica,sans-Serif" font-size="10.00">Campaign\createStruct</text>
</a>
</g>
</g>
<!-- Node1&#45;&gt;Node2 -->
<g id="edge1" class="edge"><title>Node1&#45;&gt;Node2</title>
<path fill="none" stroke="midnightblue" d="M110.507,-154.204C128.276,-158.508 147.936,-163.27 165.479,-167.52"/>
<polygon fill="midnightblue" stroke="midnightblue" points="164.989,-171.002 175.532,-169.955 166.637,-164.199 164.989,-171.002"/>
</g>
<!-- Node3 -->
<g id="node3" class="node"><title>Node3</title>
<g id="a_node3"><a xlink:href="class_campaign.html#aa4d8bd6f5325907af5125ec983d51e99" target="_top" xlink:title="Create XML Representation of the object. ">
<polygon fill="white" stroke="black" points="163.313,-131 163.313,-151 272.687,-151 272.687,-131 163.313,-131"/>
<text text-anchor="middle" x="218" y="-137" font-family="Helvetica,sans-Serif" font-size="10.00">Campaign\createXml</text>
</a>
</g>
</g>
<!-- Node1&#45;&gt;Node3 -->
<g id="edge2" class="edge"><title>Node1&#45;&gt;Node3</title>
<path fill="none" stroke="midnightblue" d="M110.507,-141C124.161,-141 138.933,-141 153.001,-141"/>
<polygon fill="midnightblue" stroke="midnightblue" points="153.096,-144.5 163.096,-141 153.095,-137.5 153.096,-144.5"/>
</g>
<!-- Node7 -->
<g id="node7" class="node"><title>Node7</title>
<g id="a_node7"><a xlink:href="class_c_t_c_t_request.html#aad92e5787f6d3fdf00760d99505aa6db" target="_top" xlink:title="CTCTRequest\\makeRequest">
<polygon fill="white" stroke="black" points="145.808,-92 145.808,-112 290.192,-112 290.192,-92 145.808,-92"/>
<text text-anchor="middle" x="218" y="-98" font-family="Helvetica,sans-Serif" font-size="10.00">CTCTRequest\makeRequest</text>
</a>
</g>
</g>
<!-- Node1&#45;&gt;Node7 -->
<g id="edge6" class="edge"><title>Node1&#45;&gt;Node7</title>
<path fill="none" stroke="midnightblue" d="M110.507,-127.796C128.276,-123.492 147.936,-118.73 165.479,-114.48"/>
<polygon fill="midnightblue" stroke="midnightblue" points="166.637,-117.801 175.532,-112.045 164.989,-110.998 166.637,-117.801"/>
</g>
<!-- Node4 -->
<g id="node4" class="node"><title>Node4</title>
<g id="a_node4"><a xlink:href="class_c_c_object.html#a2175b643672414fd5dd302e8feb7bc55" target="_top" xlink:title="Validate an object to check that all required fields have been supplied &#160;array $params &#45; object prope...">
<polygon fill="white" stroke="black" points="354.705,-131 354.705,-151 451.295,-151 451.295,-131 354.705,-131"/>
<text text-anchor="middle" x="403" y="-137" font-family="Helvetica,sans-Serif" font-size="10.00">CCObject\validate</text>
</a>
</g>
</g>
<!-- Node3&#45;&gt;Node4 -->
<g id="edge3" class="edge"><title>Node3&#45;&gt;Node4</title>
<path fill="none" stroke="midnightblue" d="M272.916,-141C295.408,-141 321.566,-141 344.431,-141"/>
<polygon fill="midnightblue" stroke="midnightblue" points="344.68,-144.5 354.68,-141 344.68,-137.5 344.68,-144.5"/>
</g>
<!-- Node5 -->
<g id="node5" class="node"><title>Node5</title>
<g id="a_node5"><a xlink:href="class_c_t_c_t_exception.html#adc8307ec7d7a2c730b0dac678d0e7fcb" target="_top" xlink:title="CTCTException\\generateError">
<polygon fill="white" stroke="black" points="516.473,-112 516.473,-132 667.527,-132 667.527,-112 516.473,-112"/>
<text text-anchor="middle" x="592" y="-118" font-family="Helvetica,sans-Serif" font-size="10.00">CTCTException\generateError</text>
</a>
</g>
</g>
<!-- Node4&#45;&gt;Node5 -->
<g id="edge4" class="edge"><title>Node4&#45;&gt;Node5</title>
<path fill="none" stroke="midnightblue" d="M451.672,-136.156C468.274,-134.469 487.437,-132.522 506.136,-130.623"/>
<polygon fill="midnightblue" stroke="midnightblue" points="506.56,-134.098 516.155,-129.605 505.853,-127.133 506.56,-134.098"/>
</g>
<!-- Node6 -->
<g id="node6" class="node"><title>Node6</title>
<g id="a_node6"><a xlink:href="class_c_t_c_t_exception.html#a6a86531406328bbd2a6c6252b7fb3a70" target="_top" xlink:title="CTCTException\\logError">
<polygon fill="white" stroke="black" points="704.54,-112 704.54,-132 829.46,-132 829.46,-112 704.54,-112"/>
<text text-anchor="middle" x="767" y="-118" font-family="Helvetica,sans-Serif" font-size="10.00">CTCTException\logError</text>
</a>
</g>
</g>
<!-- Node5&#45;&gt;Node6 -->
<g id="edge5" class="edge"><title>Node5&#45;&gt;Node6</title>
<path fill="none" stroke="midnightblue" d="M667.623,-122C676.431,-122 685.406,-122 694.174,-122"/>
<polygon fill="midnightblue" stroke="midnightblue" points="694.349,-125.5 704.349,-122 694.349,-118.5 694.349,-125.5"/>
</g>
<!-- Node8 -->
<g id="node8" class="node"><title>Node8</title>
<g id="a_node8"><a xlink:href="class_o_auth_request.html#afe9d0f6cb8e0dadb1c0faeea9ecafe45" target="_top" xlink:title="pretty much a helper function to set up the request ">
<polygon fill="white" stroke="black" points="326.079,-41 326.079,-73 479.921,-73 479.921,-41 326.079,-41"/>
<text text-anchor="start" x="334.079" y="-59" font-family="Helvetica,sans-Serif" font-size="10.00">OAuthRequest\from_consumer</text>
<text text-anchor="middle" x="403" y="-47" font-family="Helvetica,sans-Serif" font-size="10.00">_and_token</text>
</a>
</g>
</g>
<!-- Node7&#45;&gt;Node8 -->
<g id="edge7" class="edge"><title>Node7&#45;&gt;Node8</title>
<path fill="none" stroke="midnightblue" d="M260.069,-91.9011C279.713,-87.0706 303.867,-81.131 326.644,-75.5303"/>
<polygon fill="midnightblue" stroke="midnightblue" points="327.77,-78.8575 336.645,-73.0708 326.099,-72.06 327.77,-78.8575"/>
</g>
<!-- Node7&#45;&gt;Node5 -->
<g id="edge10" class="edge"><title>Node7&#45;&gt;Node5</title>
<path fill="none" stroke="midnightblue" d="M290.285,-105.833C351.864,-109.143 440.964,-113.934 506.194,-117.441"/>
<polygon fill="midnightblue" stroke="midnightblue" points="506.276,-120.95 516.45,-117.992 506.652,-113.96 506.276,-120.95"/>
</g>
<!-- Node9 -->
<g id="node9" class="node"><title>Node9</title>
<g id="a_node9"><a xlink:href="class_o_auth_request.html#ae544b1c10b82d5a82dcc259064763420" target="_top" xlink:title="util function: current nonce ">
<polygon fill="white" stroke="black" points="530.074,-51 530.074,-83 653.926,-83 653.926,-51 530.074,-51"/>
<text text-anchor="start" x="538.074" y="-69" font-family="Helvetica,sans-Serif" font-size="10.00">OAuthRequest\generate</text>
<text text-anchor="middle" x="592" y="-57" font-family="Helvetica,sans-Serif" font-size="10.00">_nonce</text>
</a>
</g>
</g>
<!-- Node8&#45;&gt;Node9 -->
<g id="edge8" class="edge"><title>Node8&#45;&gt;Node9</title>
<path fill="none" stroke="midnightblue" d="M480.06,-61.0674C493.145,-61.7671 506.703,-62.4921 519.658,-63.1849"/>
<polygon fill="midnightblue" stroke="midnightblue" points="519.726,-66.6935 529.899,-63.7325 520.1,-59.7035 519.726,-66.6935"/>
</g>
<!-- Node10 -->
<g id="node10" class="node"><title>Node10</title>
<g id="a_node10"><a xlink:href="class_o_auth_request.html#adfc6b936799f705d9a4442961a26e8cb" target="_top" xlink:title="util function: current timestamp ">
<polygon fill="white" stroke="black" points="530.074,-0 530.074,-32 653.926,-32 653.926,-0 530.074,-0"/>
<text text-anchor="start" x="538.074" y="-18" font-family="Helvetica,sans-Serif" font-size="10.00">OAuthRequest\generate</text>
<text text-anchor="middle" x="592" y="-6" font-family="Helvetica,sans-Serif" font-size="10.00">_timestamp</text>
</a>
</g>
</g>
<!-- Node8&#45;&gt;Node10 -->
<g id="edge9" class="edge"><title>Node8&#45;&gt;Node10</title>
<path fill="none" stroke="midnightblue" d="M477.103,-40.9722C491.198,-37.8817 505.944,-34.6487 519.972,-31.573"/>
<polygon fill="midnightblue" stroke="midnightblue" points="521.022,-34.9259 530.041,-29.3654 519.523,-28.0884 521.022,-34.9259"/>
</g>
</g>
</svg>
