<?xml version="1.0" encoding="UTF-8" standalone="no"?>
<!DOCTYPE svg PUBLIC "-//W3C//DTD SVG 1.1//EN"
 "http://www.w3.org/Graphics/SVG/1.1/DTD/svg11.dtd">
<!-- Generated by graphviz version 2.30.1 (20130221.2233)
 -->
<!-- Title: Net_DNS_Resolver\send Pages: 1 -->
<svg width="662pt" height="28pt"
 viewBox="0.00 0.00 662.00 28.00" xmlns="http://www.w3.org/2000/svg" xmlns:xlink="http://www.w3.org/1999/xlink">
<g id="graph0" class="graph" transform="scale(1 1) rotate(0) translate(4 24)">
<title>Net_DNS_Resolver\send</title>
<polygon fill="white" stroke="white" points="-4,5 -4,-24 659,-24 659,5 -4,5"/>
<!-- Node1 -->
<g id="node1" class="node"><title>Node1</title>
<polygon fill="#bfbfbf" stroke="black" points="0.140625,-0 0.140625,-20 127.859,-20 127.859,-0 0.140625,-0"/>
<text text-anchor="middle" x="64" y="-6" font-family="Helvetica,sans-Serif" font-size="10.00">Net_DNS_Resolver\send</text>
</g>
<!-- Node2 -->
<g id="node2" class="node"><title>Node2</title>
<g id="a_node2"><a xlink:href="class_net___d_n_s___resolver.html#ab00f28a838dbaebffe986b2fb81b4e8f" target="_top" xlink:title="Queries nameservers for an answer. ">
<polygon fill="white" stroke="black" points="164.311,-0 164.311,-20 313.689,-20 313.689,-0 164.311,-0"/>
<text text-anchor="middle" x="239" y="-6" font-family="Helvetica,sans-Serif" font-size="10.00">Net_DNS_Resolver\rawQuery</text>
</a>
</g>
</g>
<!-- Node1&#45;&gt;Node2 -->
<g id="edge1" class="edge"><title>Node1&#45;&gt;Node2</title>
<path fill="none" stroke="midnightblue" d="M138.02,-10C146.691,-10 155.548,-10 164.231,-10"/>
<polygon fill="midnightblue" stroke="midnightblue" points="137.946,-6.5001 127.946,-10 137.946,-13.5001 137.946,-6.5001"/>
</g>
<!-- Node3 -->
<g id="node3" class="node"><title>Node3</title>
<g id="a_node3"><a xlink:href="class_net___d_n_s___resolver.html#a433200f56099815168ddd63a715e8ac5" target="_top" xlink:title="Queries nameservers for an answer. ">
<polygon fill="white" stroke="black" points="350.476,-0 350.476,-20 481.524,-20 481.524,-0 350.476,-0"/>
<text text-anchor="middle" x="416" y="-6" font-family="Helvetica,sans-Serif" font-size="10.00">Net_DNS_Resolver\query</text>
</a>
</g>
</g>
<!-- Node2&#45;&gt;Node3 -->
<g id="edge2" class="edge"><title>Node2&#45;&gt;Node3</title>
<path fill="none" stroke="midnightblue" d="M323.732,-10C332.647,-10 341.614,-10 350.262,-10"/>
<polygon fill="midnightblue" stroke="midnightblue" points="323.709,-6.5001 313.709,-10 323.709,-13.5001 323.709,-6.5001"/>
</g>
<!-- Node4 -->
<g id="node4" class="node"><title>Node4</title>
<g id="a_node4"><a xlink:href="class_net___d_n_s___resolver.html#a13ee3a449b00b1a0e2f36bb1404e4291" target="_top" xlink:title="Searches nameservers for an answer. ">
<polygon fill="white" stroke="black" points="517.976,-0 517.976,-20 654.024,-20 654.024,-0 517.976,-0"/>
<text text-anchor="middle" x="586" y="-6" font-family="Helvetica,sans-Serif" font-size="10.00">Net_DNS_Resolver\search</text>
</a>
</g>
</g>
<!-- Node3&#45;&gt;Node4 -->
<g id="edge3" class="edge"><title>Node3&#45;&gt;Node4</title>
<path fill="none" stroke="midnightblue" d="M492.23,-10C500.723,-10 509.337,-10 517.72,-10"/>
<polygon fill="midnightblue" stroke="midnightblue" points="491.953,-6.5001 481.953,-10 491.953,-13.5001 491.953,-6.5001"/>
</g>
</g>
</svg>
