<?xml version="1.0" encoding="UTF-8" standalone="no"?>
<!DOCTYPE svg PUBLIC "-//W3C//DTD SVG 1.1//EN"
 "http://www.w3.org/Graphics/SVG/1.1/DTD/svg11.dtd">
<!-- Generated by graphviz version 2.30.1 (20130221.2233)
 -->
<!-- Title: Net_DNS_Packet\parse Pages: 1 -->
<!--zoomable 226 -->
<svg id="main" version="1.1" xmlns="http://www.w3.org/2000/svg" xmlns:xlink="http://www.w3.org/1999/xlink" xml:space="preserve" onload="init(evt)">
<style type="text/css"><![CDATA[
.edge:hover path { stroke: red; }
.edge:hover polygon { stroke: red; fill: red; }
]]></style>
<script type="text/javascript"><![CDATA[
var edges = document.getElementsByTagName('g');
if (edges && edges.length) {
  for (var i=0;i<edges.length;i++) {
    if (edges[i].id.substr(0,4)=='edge') {
      edges[i].setAttribute('class','edge');
    }
  }
}
]]></script>
        <defs>
                <circle id="rim" cx="0" cy="0" r="7"/>
                <circle id="rim2" cx="0" cy="0" r="3.5"/>
                <g id="zoomPlus">
                        <use xlink:href="#rim" fill="#404040">
                                <set attributeName="fill" to="#808080" begin="zoomplus.mouseover" end="zoomplus.mouseout"/>
                        </use>
                        <path d="M-4,0h8M0,-4v8" fill="none" stroke="white" stroke-width="1.5" pointer-events="none"/>
                </g>
                <g id="zoomMin">
                        <use xlink:href="#rim" fill="#404040">
                                <set attributeName="fill" to="#808080" begin="zoomminus.mouseover" end="zoomminus.mouseout"/>
                        </use>
                        <path d="M-4,0h8" fill="none" stroke="white" stroke-width="1.5" pointer-events="none"/>
                </g>
                <g id="dirArrow">
                        <path fill="none" stroke="white" stroke-width="1.5" d="M0,-3.0v7 M-2.5,-0.5L0,-3.0L2.5,-0.5"/>
                </g>
               <g id="resetDef">
                       <use xlink:href="#rim2" fill="#404040">
                               <set attributeName="fill" to="#808080" begin="reset.mouseover" end="reset.mouseout"/>
                       </use>
               </g>
        </defs>

<script type="text/javascript">
var viewWidth = 850;
var viewHeight = 226;
var sectionId = 'dynsection-4';
</script>
<script xlink:href="svgpan.js"/>
<svg id="graph" class="graph">
<g id="viewport">
<title>Net_DNS_Packet\parse</title>
<polygon fill="white" stroke="white" points="-4,5 -4,-222 847,-222 847,5 -4,5"/>
<!-- Node1 -->
<g id="node1" class="node"><title>Node1</title>
<polygon fill="#bfbfbf" stroke="black" points="-0.0810547,-142 -0.0810547,-162 122.081,-162 122.081,-142 -0.0810547,-142"/>
<text text-anchor="middle" x="61" y="-148" font-family="Helvetica,sans-Serif" font-size="10.00">Net_DNS_Packet\parse</text>
</g>
<!-- Node2 -->
<g id="node2" class="node"><title>Node2</title>
<g id="a_node2"><a xlink:href="class_net___d_n_s___packet.html#a91c880534c4ed4f43098627b5c829ef2" target="_top" xlink:title="Parses the question section of a packet. ">
<polygon fill="white" stroke="black" points="163.919,-159 163.919,-191 286.081,-191 286.081,-159 163.919,-159"/>
<text text-anchor="start" x="171.919" y="-177" font-family="Helvetica,sans-Serif" font-size="10.00">Net_DNS_Packet\parse</text>
<text text-anchor="middle" x="225" y="-165" font-family="Helvetica,sans-Serif" font-size="10.00">_question</text>
</a>
</g>
</g>
<!-- Node1&#45;&gt;Node2 -->
<g id="edge1" class="edge"><title>Node1&#45;&gt;Node2</title>
<path fill="none" stroke="midnightblue" d="M122.323,-160.564C132.617,-162.026 143.388,-163.555 153.91,-165.049"/>
<polygon fill="midnightblue" stroke="midnightblue" points="153.504,-168.526 163.897,-166.467 154.488,-161.596 153.504,-168.526"/>
</g>
<!-- Node6 -->
<g id="node6" class="node"><title>Node6</title>
<g id="a_node6"><a xlink:href="class_net___d_n_s___packet.html#a8684f7ece05b01f65ec45160cca1852d" target="_top" xlink:title="Parses a resource record section of a packet. ">
<polygon fill="white" stroke="black" points="157.808,-120 157.808,-140 292.192,-140 292.192,-120 157.808,-120"/>
<text text-anchor="middle" x="225" y="-126" font-family="Helvetica,sans-Serif" font-size="10.00">Net_DNS_Packet\parse_rr</text>
</a>
</g>
</g>
<!-- Node1&#45;&gt;Node6 -->
<g id="edge5" class="edge"><title>Node1&#45;&gt;Node6</title>
<path fill="none" stroke="midnightblue" d="M122.323,-143.808C130.599,-142.684 139.184,-141.518 147.699,-140.362"/>
<polygon fill="midnightblue" stroke="midnightblue" points="148.203,-143.826 157.641,-139.012 147.261,-136.889 148.203,-143.826"/>
</g>
<!-- Node3 -->
<g id="node3" class="node"><title>Node3</title>
<g id="a_node3"><a xlink:href="class_net___d_n_s___packet.html#a9844b7ce62cb096db44f58882f8ca403" target="_top" xlink:title="DNS packet decompression method. ">
<polygon fill="white" stroke="black" points="328.68,-198 328.68,-218 475.32,-218 475.32,-198 328.68,-198"/>
<text text-anchor="middle" x="402" y="-204" font-family="Helvetica,sans-Serif" font-size="10.00">Net_DNS_Packet\dn_expand</text>
</a>
</g>
</g>
<!-- Node2&#45;&gt;Node3 -->
<g id="edge2" class="edge"><title>Node2&#45;&gt;Node3</title>
<path fill="none" stroke="midnightblue" d="M286.225,-186.357C302.764,-189.476 320.748,-192.867 337.466,-196.019"/>
<polygon fill="midnightblue" stroke="midnightblue" points="337.213,-199.533 347.688,-197.947 338.51,-192.654 337.213,-199.533"/>
</g>
<!-- Node4 -->
<g id="node4" class="node"><title>Node4</title>
<g id="a_node4"><a xlink:href="class_net___d_n_s.html#a861c4a9129fe2a4993108b6925d58f93" target="_top" xlink:title="Translates RR type integers into names. ">
<polygon fill="white" stroke="black" points="347.87,-159 347.87,-179 456.13,-179 456.13,-159 347.87,-159"/>
<text text-anchor="middle" x="402" y="-165" font-family="Helvetica,sans-Serif" font-size="10.00">Net_DNS\typesbyval</text>
</a>
</g>
</g>
<!-- Node2&#45;&gt;Node4 -->
<g id="edge3" class="edge"><title>Node2&#45;&gt;Node4</title>
<path fill="none" stroke="midnightblue" d="M286.225,-172.935C302.764,-172.368 320.748,-171.752 337.466,-171.178"/>
<polygon fill="midnightblue" stroke="midnightblue" points="337.814,-174.669 347.688,-170.828 337.574,-167.673 337.814,-174.669"/>
</g>
<!-- Node5 -->
<g id="node5" class="node"><title>Node5</title>
<g id="a_node5"><a xlink:href="class_net___d_n_s.html#aa174e141c3f35c55667c426f4e14fdbf" target="_top" xlink:title="Translates RR class integers into names. ">
<polygon fill="white" stroke="black" points="343.148,-120 343.148,-140 460.852,-140 460.852,-120 343.148,-120"/>
<text text-anchor="middle" x="402" y="-126" font-family="Helvetica,sans-Serif" font-size="10.00">Net_DNS\classesbyval</text>
</a>
</g>
</g>
<!-- Node2&#45;&gt;Node5 -->
<g id="edge4" class="edge"><title>Node2&#45;&gt;Node5</title>
<path fill="none" stroke="midnightblue" d="M286.225,-159.514C307.806,-153.964 331.847,-147.782 352.328,-142.516"/>
<polygon fill="midnightblue" stroke="midnightblue" points="353.257,-145.891 362.07,-140.011 351.514,-139.111 353.257,-145.891"/>
</g>
<!-- Node6&#45;&gt;Node3 -->
<g id="edge6" class="edge"><title>Node6&#45;&gt;Node3</title>
<path fill="none" stroke="midnightblue" d="M270.686,-140.08C278.096,-142.71 285.481,-145.973 292,-150 311.793,-162.226 308.045,-176.041 328,-188 331.91,-190.343 336.1,-192.419 340.424,-194.256"/>
<polygon fill="midnightblue" stroke="midnightblue" points="339.452,-197.631 350.043,-197.908 341.937,-191.086 339.452,-197.631"/>
</g>
<!-- Node6&#45;&gt;Node4 -->
<g id="edge7" class="edge"><title>Node6&#45;&gt;Node4</title>
<path fill="none" stroke="midnightblue" d="M271.067,-140.043C293.929,-145.138 321.891,-151.37 346.01,-156.745"/>
<polygon fill="midnightblue" stroke="midnightblue" points="345.564,-160.231 356.086,-158.991 347.087,-153.399 345.564,-160.231"/>
</g>
<!-- Node6&#45;&gt;Node5 -->
<g id="edge8" class="edge"><title>Node6&#45;&gt;Node5</title>
<path fill="none" stroke="midnightblue" d="M292.659,-130C305.898,-130 319.813,-130 333.093,-130"/>
<polygon fill="midnightblue" stroke="midnightblue" points="333.103,-133.5 343.103,-130 333.103,-126.5 333.103,-133.5"/>
</g>
<!-- Node7 -->
<g id="node7" class="node"><title>Node7</title>
<g id="a_node7"><a xlink:href="class_net___d_n_s___r_r.html#a135785ee6a8c1f0a5e0597d7f61465b5" target="_top" xlink:title="Net_DNS_RR\\factory">
<polygon fill="white" stroke="black" points="346.485,-81 346.485,-101 457.515,-101 457.515,-81 346.485,-81"/>
<text text-anchor="middle" x="402" y="-87" font-family="Helvetica,sans-Serif" font-size="10.00">Net_DNS_RR\factory</text>
</a>
</g>
</g>
<!-- Node6&#45;&gt;Node7 -->
<g id="edge9" class="edge"><title>Node6&#45;&gt;Node7</title>
<path fill="none" stroke="midnightblue" d="M271.067,-119.957C293.929,-114.862 321.891,-108.63 346.01,-103.255"/>
<polygon fill="midnightblue" stroke="midnightblue" points="347.087,-106.601 356.086,-101.009 345.564,-99.7685 347.087,-106.601"/>
</g>
<!-- Node8 -->
<g id="node8" class="node"><title>Node8</title>
<g id="a_node8"><a xlink:href="class_net___d_n_s___r_r.html#a1654146cab0e22d9bae1dae01d42f9fd" target="_top" xlink:title="Net_DNS_RR\\new_from\l_string">
<polygon fill="white" stroke="black" points="524.537,-30 524.537,-62 649.463,-62 649.463,-30 524.537,-30"/>
<text text-anchor="start" x="532.537" y="-48" font-family="Helvetica,sans-Serif" font-size="10.00">Net_DNS_RR\new_from</text>
<text text-anchor="middle" x="587" y="-36" font-family="Helvetica,sans-Serif" font-size="10.00">_string</text>
</a>
</g>
</g>
<!-- Node7&#45;&gt;Node8 -->
<g id="edge10" class="edge"><title>Node7&#45;&gt;Node8</title>
<path fill="none" stroke="midnightblue" d="M444.069,-80.9011C464.815,-75.7995 490.593,-69.4609 514.464,-63.5909"/>
<polygon fill="midnightblue" stroke="midnightblue" points="515.329,-66.9824 524.204,-61.1957 513.658,-60.1849 515.329,-66.9824"/>
</g>
<!-- Node12 -->
<g id="node12" class="node"><title>Node12</title>
<g id="a_node12"><a xlink:href="class_net___d_n_s___r_r.html#a14ca0dc83ff30526df3d595b83ef13dd" target="_top" xlink:title="Net_DNS_RR\\new_from_data">
<polygon fill="white" stroke="black" points="512.025,-81 512.025,-101 661.975,-101 661.975,-81 512.025,-81"/>
<text text-anchor="middle" x="587" y="-87" font-family="Helvetica,sans-Serif" font-size="10.00">Net_DNS_RR\new_from_data</text>
</a>
</g>
</g>
<!-- Node7&#45;&gt;Node12 -->
<g id="edge14" class="edge"><title>Node7&#45;&gt;Node12</title>
<path fill="none" stroke="midnightblue" d="M457.906,-91C471.678,-91 486.774,-91 501.619,-91"/>
<polygon fill="midnightblue" stroke="midnightblue" points="501.837,-94.5001 511.837,-91 501.837,-87.5001 501.837,-94.5001"/>
</g>
<!-- Node13 -->
<g id="node13" class="node"><title>Node13</title>
<g id="a_node13"><a xlink:href="class_net___d_n_s___r_r.html#ae21f552addb2e6fea8f4e87ea883ba78" target="_top" xlink:title="Net_DNS_RR\\new_from\l_array">
<polygon fill="white" stroke="black" points="524.537,-120 524.537,-152 649.463,-152 649.463,-120 524.537,-120"/>
<text text-anchor="start" x="532.537" y="-138" font-family="Helvetica,sans-Serif" font-size="10.00">Net_DNS_RR\new_from</text>
<text text-anchor="middle" x="587" y="-126" font-family="Helvetica,sans-Serif" font-size="10.00">_array</text>
</a>
</g>
</g>
<!-- Node7&#45;&gt;Node13 -->
<g id="edge16" class="edge"><title>Node7&#45;&gt;Node13</title>
<path fill="none" stroke="midnightblue" d="M444.069,-101.099C464.815,-106.201 490.593,-112.539 514.464,-118.409"/>
<polygon fill="midnightblue" stroke="midnightblue" points="513.658,-121.815 524.204,-120.804 515.329,-115.018 513.658,-121.815"/>
</g>
<!-- Node9 -->
<g id="node9" class="node"><title>Node9</title>
<g id="a_node9"><a xlink:href="class_net___d_n_s___r_r.html#ab64df1897e6e896b456e7007085fad40" target="_top" xlink:title="Net_DNS_RR\\Net_DNS_RR">
<polygon fill="white" stroke="black" points="698.37,-81 698.37,-101 841.63,-101 841.63,-81 698.37,-81"/>
<text text-anchor="middle" x="770" y="-87" font-family="Helvetica,sans-Serif" font-size="10.00">Net_DNS_RR\Net_DNS_RR</text>
</a>
</g>
</g>
<!-- Node8&#45;&gt;Node9 -->
<g id="edge11" class="edge"><title>Node8&#45;&gt;Node9</title>
<path fill="none" stroke="midnightblue" d="M649.531,-61.2977C672.092,-66.9067 697.337,-73.1833 718.789,-78.5165"/>
<polygon fill="midnightblue" stroke="midnightblue" points="718.12,-81.9568 728.669,-80.973 719.809,-75.1636 718.12,-81.9568"/>
</g>
<!-- Node10 -->
<g id="node10" class="node"><title>Node10</title>
<g id="a_node10"><a xlink:href="class_net___d_n_s.html#a1e086e94cfa4b747b481b1e5859a1caf" target="_top" xlink:title="translates a DNS class from it&#39;s name to it&#39;s integer value. ">
<polygon fill="white" stroke="black" points="705.032,-0 705.032,-20 834.968,-20 834.968,-0 705.032,-0"/>
<text text-anchor="middle" x="770" y="-6" font-family="Helvetica,sans-Serif" font-size="10.00">Net_DNS\classesbyname</text>
</a>
</g>
</g>
<!-- Node8&#45;&gt;Node10 -->
<g id="edge12" class="edge"><title>Node8&#45;&gt;Node10</title>
<path fill="none" stroke="midnightblue" d="M649.531,-33.7618C668.556,-29.9778 689.49,-25.8141 708.448,-22.0434"/>
<polygon fill="midnightblue" stroke="midnightblue" points="709.331,-25.4365 718.456,-20.053 707.965,-18.571 709.331,-25.4365"/>
</g>
<!-- Node11 -->
<g id="node11" class="node"><title>Node11</title>
<g id="a_node11"><a xlink:href="class_net___d_n_s.html#a1420f63422265cad4ceb1899647e53e6" target="_top" xlink:title="Translates RR type names into integers. ">
<polygon fill="white" stroke="black" points="709.754,-39 709.754,-59 830.246,-59 830.246,-39 709.754,-39"/>
<text text-anchor="middle" x="770" y="-45" font-family="Helvetica,sans-Serif" font-size="10.00">Net_DNS\typesbyname</text>
</a>
</g>
</g>
<!-- Node8&#45;&gt;Node11 -->
<g id="edge13" class="edge"><title>Node8&#45;&gt;Node11</title>
<path fill="none" stroke="midnightblue" d="M649.531,-47.0198C665.571,-47.2857 682.969,-47.5741 699.395,-47.8463"/>
<polygon fill="midnightblue" stroke="midnightblue" points="699.42,-51.3471 709.477,-48.0134 699.536,-44.3481 699.42,-51.3471"/>
</g>
<!-- Node12&#45;&gt;Node9 -->
<g id="edge15" class="edge"><title>Node12&#45;&gt;Node9</title>
<path fill="none" stroke="midnightblue" d="M662.142,-91C670.703,-91 679.465,-91 688.11,-91"/>
<polygon fill="midnightblue" stroke="midnightblue" points="688.184,-94.5001 698.184,-91 688.184,-87.5001 688.184,-94.5001"/>
</g>
<!-- Node13&#45;&gt;Node9 -->
<g id="edge17" class="edge"><title>Node13&#45;&gt;Node9</title>
<path fill="none" stroke="midnightblue" d="M649.531,-120.702C672.092,-115.093 697.337,-108.817 718.789,-103.484"/>
<polygon fill="midnightblue" stroke="midnightblue" points="719.809,-106.836 728.669,-101.027 718.12,-100.043 719.809,-106.836"/>
</g>
</g>
</svg>
        <g id="navigator" transform="translate(0 0)" fill="#404254">
                <rect fill="#f2f5e9" fill-opacity="0.5" stroke="#606060" stroke-width=".5" x="0" y="0" width="60" height="60"/>
                <use id="zoomplus" xlink:href="#zoomPlus" x="17" y="9" onmousedown="handleZoom(evt,'in')"/>
                <use id="zoomminus" xlink:href="#zoomMin" x="42" y="9" onmousedown="handleZoom(evt,'out')"/>
                <use id="reset" xlink:href="#resetDef" x="30" y="36" onmousedown="handleReset()"/>
                <g id="arrowUp" xlink:href="#dirArrow" transform="translate(30 24)" onmousedown="handlePan(0,-1)">
                  <use xlink:href="#rim" fill="#404040">
                        <set attributeName="fill" to="#808080" begin="arrowUp.mouseover" end="arrowUp.mouseout"/>
                  </use>
                  <path fill="none" stroke="white" stroke-width="1.5" d="M0,-3.0v7 M-2.5,-0.5L0,-3.0L2.5,-0.5"/>
                </g>
                <g id="arrowRight" xlink:href="#dirArrow" transform="rotate(90) translate(36 -43)" onmousedown="handlePan(1,0)">
                  <use xlink:href="#rim" fill="#404040">
                        <set attributeName="fill" to="#808080" begin="arrowRight.mouseover" end="arrowRight.mouseout"/>
                  </use>
                  <path fill="none" stroke="white" stroke-width="1.5" d="M0,-3.0v7 M-2.5,-0.5L0,-3.0L2.5,-0.5"/>
                </g>
                <g id="arrowDown" xlink:href="#dirArrow" transform="rotate(180) translate(-30 -48)" onmousedown="handlePan(0,1)">
                  <use xlink:href="#rim" fill="#404040">
                        <set attributeName="fill" to="#808080" begin="arrowDown.mouseover" end="arrowDown.mouseout"/>
                  </use>
                  <path fill="none" stroke="white" stroke-width="1.5" d="M0,-3.0v7 M-2.5,-0.5L0,-3.0L2.5,-0.5"/>
                </g>
                <g id="arrowLeft" xlink:href="#dirArrow" transform="rotate(270) translate(-36 17)" onmousedown="handlePan(-1,0)">
                  <use xlink:href="#rim" fill="#404040">
                        <set attributeName="fill" to="#808080" begin="arrowLeft.mouseover" end="arrowLeft.mouseout"/>
                  </use>
                  <path fill="none" stroke="white" stroke-width="1.5" d="M0,-3.0v7 M-2.5,-0.5L0,-3.0L2.5,-0.5"/>
                </g>
        </g>
        <svg viewBox="0 0 15 15" width="100%" height="30px" preserveAspectRatio="xMaxYMin meet">
         <g id="arrow_out" transform="scale(0.3 0.3)">
          <a xlink:href="class_net___d_n_s___packet_a108461c26b058bf6aed5e4bcae9da3e6_cgraph_org.svg" target="_base">
           <rect id="button" ry="5" rx="5" y="6" x="6" height="38" width="38"
                fill="#f2f5e9" fill-opacity="0.5" stroke="#606060" stroke-width="1.0"/>
           <path id="arrow"
             d="M 11.500037,31.436501 C 11.940474,20.09759 22.043105,11.32322 32.158766,21.979434 L 37.068811,17.246167 C 37.068811,17.246167 37.088388,32 37.088388,32 L 22.160133,31.978069 C 22.160133,31.978069 26.997745,27.140456 26.997745,27.140456 C 18.528582,18.264221 13.291696,25.230495 11.500037,31.436501 z"
             style="fill:#404040;"/>
          </a>
         </g>
        </svg>
</svg>
