<?xml version="1.0" encoding="UTF-8" standalone="no"?>
<!DOCTYPE svg PUBLIC "-//W3C//DTD SVG 1.1//EN"
 "http://www.w3.org/Graphics/SVG/1.1/DTD/svg11.dtd">
<!-- Generated by graphviz version 2.30.1 (20130221.2233)
 -->
<!-- Title: CTCT_Admin_Page\getKey Pages: 1 -->
<svg width="344pt" height="208pt"
 viewBox="0.00 0.00 344.00 208.00" xmlns="http://www.w3.org/2000/svg" xmlns:xlink="http://www.w3.org/1999/xlink">
<g id="graph0" class="graph" transform="scale(1 1) rotate(0) translate(4 204)">
<title>CTCT_Admin_Page\getKey</title>
<polygon fill="white" stroke="white" points="-4,5 -4,-204 341,-204 341,5 -4,5"/>
<!-- Node1 -->
<g id="node1" class="node"><title>Node1</title>
<polygon fill="#bfbfbf" stroke="black" points="0.303223,-96 0.303223,-116 139.697,-116 139.697,-96 0.303223,-96"/>
<text text-anchor="middle" x="70" y="-102" font-family="Helvetica,sans-Serif" font-size="10.00">CTCT_Admin_Page\getKey</text>
</g>
<!-- Node2 -->
<g id="node2" class="node"><title>Node2</title>
<g id="a_node2"><a xlink:href="class_c_t_c_t___admin___page.html#af158e902eb69d577d08a4272d187509f" target="_top" xlink:title="CTCT_Admin_Page\\__construct">
<polygon fill="white" stroke="black" points="176.022,-180 176.022,-200 335.978,-200 335.978,-180 176.022,-180"/>
<text text-anchor="middle" x="256" y="-186" font-family="Helvetica,sans-Serif" font-size="10.00">CTCT_Admin_Page\__construct</text>
</a>
</g>
</g>
<!-- Node1&#45;&gt;Node2 -->
<g id="edge1" class="edge"><title>Node1&#45;&gt;Node2</title>
<path fill="none" stroke="midnightblue" d="M92.8671,-122.026C113.412,-136.412 145.481,-157.18 176,-170 185.392,-173.945 195.749,-177.253 205.787,-179.97"/>
<polygon fill="midnightblue" stroke="midnightblue" points="94.7227,-119.051 84.5455,-116.105 90.6646,-124.754 94.7227,-119.051"/>
</g>
<!-- Node3 -->
<g id="node3" class="node"><title>Node3</title>
<g id="a_node3"><a xlink:href="class_c_t_c_t___admin___page.html#a2cc1493ccd31221d648442404bbb73d2" target="_top" xlink:title="CTCT_Admin_Page\\add_menu">
<polygon fill="white" stroke="black" points="178.239,-141 178.239,-161 333.761,-161 333.761,-141 178.239,-141"/>
<text text-anchor="middle" x="256" y="-147" font-family="Helvetica,sans-Serif" font-size="10.00">CTCT_Admin_Page\add_menu</text>
</a>
</g>
</g>
<!-- Node1&#45;&gt;Node3 -->
<g id="edge2" class="edge"><title>Node1&#45;&gt;Node3</title>
<path fill="none" stroke="midnightblue" d="M122.212,-118.525C151.121,-125.595 186.766,-134.312 213.845,-140.935"/>
<polygon fill="midnightblue" stroke="midnightblue" points="122.838,-115.075 112.293,-116.099 121.175,-121.874 122.838,-115.075"/>
</g>
<!-- Node4 -->
<g id="node4" class="node"><title>Node4</title>
<g id="a_node4"><a xlink:href="class_c_t_c_t___form___designer.html#ac6d6ef8ae7fc4aaada6f73daf9a12d54" target="_top" xlink:title="CTCT_Form_Designer\l\\addIncludes">
<polygon fill="white" stroke="black" points="197.434,-90 197.434,-122 314.566,-122 314.566,-90 197.434,-90"/>
<text text-anchor="start" x="205.434" y="-108" font-family="Helvetica,sans-Serif" font-size="10.00">CTCT_Form_Designer</text>
<text text-anchor="middle" x="256" y="-96" font-family="Helvetica,sans-Serif" font-size="10.00">\addIncludes</text>
</a>
</g>
</g>
<!-- Node1&#45;&gt;Node4 -->
<g id="edge3" class="edge"><title>Node1&#45;&gt;Node4</title>
<path fill="none" stroke="midnightblue" d="M150.071,-106C165.882,-106 182.212,-106 197.144,-106"/>
<polygon fill="midnightblue" stroke="midnightblue" points="149.777,-102.5 139.776,-106 149.776,-109.5 149.777,-102.5"/>
</g>
<!-- Node5 -->
<g id="node5" class="node"><title>Node5</title>
<g id="a_node5"><a xlink:href="class_c_t_c_t___form___designer.html#a3a007a075c6517d097cd86dfdaefcaba" target="_top" xlink:title="CTCT_Form_Designer\l\\addScripts">
<polygon fill="white" stroke="black" points="197.434,-39 197.434,-71 314.566,-71 314.566,-39 197.434,-39"/>
<text text-anchor="start" x="205.434" y="-57" font-family="Helvetica,sans-Serif" font-size="10.00">CTCT_Form_Designer</text>
<text text-anchor="middle" x="256" y="-45" font-family="Helvetica,sans-Serif" font-size="10.00">\addScripts</text>
</a>
</g>
</g>
<!-- Node1&#45;&gt;Node5 -->
<g id="edge4" class="edge"><title>Node1&#45;&gt;Node5</title>
<path fill="none" stroke="midnightblue" d="M117.055,-93.2348C141.387,-86.4907 171.487,-78.1477 197.355,-70.9777"/>
<polygon fill="midnightblue" stroke="midnightblue" points="116.054,-89.8801 107.352,-95.924 117.924,-96.6258 116.054,-89.8801"/>
</g>
<!-- Node6 -->
<g id="node6" class="node"><title>Node6</title>
<g id="a_node6"><a xlink:href="class_c_t_c_t___admin.html#a7c18d64b53a048652edeaeee7e400046" target="_top" xlink:title="CTCT_Admin\\pluginStatus">
<polygon fill="white" stroke="black" points="188.808,-0 188.808,-20 323.192,-20 323.192,-0 188.808,-0"/>
<text text-anchor="middle" x="256" y="-6" font-family="Helvetica,sans-Serif" font-size="10.00">CTCT_Admin\pluginStatus</text>
</a>
</g>
</g>
<!-- Node1&#45;&gt;Node6 -->
<g id="edge5" class="edge"><title>Node1&#45;&gt;Node6</title>
<path fill="none" stroke="midnightblue" d="M89.7621,-88.9884C109.751,-71.73 143,-45.4248 176,-30 184.587,-25.9861 194.091,-22.7033 203.443,-20.0439"/>
<polygon fill="midnightblue" stroke="midnightblue" points="87.2451,-86.5409 82.0468,-95.7729 91.8676,-91.7976 87.2451,-86.5409"/>
</g>
</g>
</svg>
