<?xml version="1.0" encoding="UTF-8" standalone="no"?>
<!DOCTYPE svg PUBLIC "-//W3C//DTD SVG 1.1//EN"
 "http://www.w3.org/Graphics/SVG/1.1/DTD/svg11.dtd">
<!-- Generated by graphviz version 2.30.1 (20130221.2233)
 -->
<!-- Title: CTCT_Admin_Page\getKey Pages: 1 -->
<!--zoomable 247 -->
<svg id="main" version="1.1" xmlns="http://www.w3.org/2000/svg" xmlns:xlink="http://www.w3.org/1999/xlink" xml:space="preserve" onload="init(evt)">
<style type="text/css"><![CDATA[
.edge:hover path { stroke: red; }
.edge:hover polygon { stroke: red; fill: red; }
]]></style>
<script type="text/javascript"><![CDATA[
var edges = document.getElementsByTagName('g');
if (edges && edges.length) {
  for (var i=0;i<edges.length;i++) {
    if (edges[i].id.substr(0,4)=='edge') {
      edges[i].setAttribute('class','edge');
    }
  }
}
]]></script>
        <defs>
                <circle id="rim" cx="0" cy="0" r="7"/>
                <circle id="rim2" cx="0" cy="0" r="3.5"/>
                <g id="zoomPlus">
                        <use xlink:href="#rim" fill="#404040">
                                <set attributeName="fill" to="#808080" begin="zoomplus.mouseover" end="zoomplus.mouseout"/>
                        </use>
                        <path d="M-4,0h8M0,-4v8" fill="none" stroke="white" stroke-width="1.5" pointer-events="none"/>
                </g>
                <g id="zoomMin">
                        <use xlink:href="#rim" fill="#404040">
                                <set attributeName="fill" to="#808080" begin="zoomminus.mouseover" end="zoomminus.mouseout"/>
                        </use>
                        <path d="M-4,0h8" fill="none" stroke="white" stroke-width="1.5" pointer-events="none"/>
                </g>
                <g id="dirArrow">
                        <path fill="none" stroke="white" stroke-width="1.5" d="M0,-3.0v7 M-2.5,-0.5L0,-3.0L2.5,-0.5"/>
                </g>
               <g id="resetDef">
                       <use xlink:href="#rim2" fill="#404040">
                               <set attributeName="fill" to="#808080" begin="reset.mouseover" end="reset.mouseout"/>
                       </use>
               </g>
        </defs>

<script type="text/javascript">
var viewWidth = 508;
var viewHeight = 247;
var sectionId = 'dynsection-10';
</script>
<script xlink:href="svgpan.js"/>
<svg id="graph" class="graph">
<g id="viewport">
<title>CTCT_Admin_Page\getKey</title>
<polygon fill="white" stroke="white" points="-4,5 -4,-243 505,-243 505,5 -4,5"/>
<!-- Node1 -->
<g id="node1" class="node"><title>Node1</title>
<polygon fill="#bfbfbf" stroke="black" points="0.303223,-109 0.303223,-129 139.697,-129 139.697,-109 0.303223,-109"/>
<text text-anchor="middle" x="70" y="-115" font-family="Helvetica,sans-Serif" font-size="10.00">CTCT_Admin_Page\getKey</text>
</g>
<!-- Node2 -->
<g id="node2" class="node"><title>Node2</title>
<g id="a_node2"><a xlink:href="class_c_t_c_t___admin___page.html#af158e902eb69d577d08a4272d187509f" target="_top" xlink:title="CTCT_Admin_Page\\__construct">
<polygon fill="white" stroke="black" points="176.022,-219 176.022,-239 335.978,-239 335.978,-219 176.022,-219"/>
<text text-anchor="middle" x="256" y="-225" font-family="Helvetica,sans-Serif" font-size="10.00">CTCT_Admin_Page\__construct</text>
</a>
</g>
</g>
<!-- Node1&#45;&gt;Node2 -->
<g id="edge1" class="edge"><title>Node1&#45;&gt;Node2</title>
<path fill="none" stroke="midnightblue" d="M86.4879,-136.467C105.554,-156.887 139.871,-190.269 176,-209 183.787,-213.037 192.437,-216.292 201.073,-218.907"/>
<polygon fill="midnightblue" stroke="midnightblue" points="89.0657,-134.099 79.7329,-129.084 83.9014,-138.825 89.0657,-134.099"/>
</g>
<!-- Node3 -->
<g id="node3" class="node"><title>Node3</title>
<g id="a_node3"><a xlink:href="class_c_t_c_t___admin___page.html#a2cc1493ccd31221d648442404bbb73d2" target="_top" xlink:title="CTCT_Admin_Page\\add_menu">
<polygon fill="white" stroke="black" points="178.239,-180 178.239,-200 333.761,-200 333.761,-180 178.239,-180"/>
<text text-anchor="middle" x="256" y="-186" font-family="Helvetica,sans-Serif" font-size="10.00">CTCT_Admin_Page\add_menu</text>
</a>
</g>
</g>
<!-- Node1&#45;&gt;Node3 -->
<g id="edge2" class="edge"><title>Node1&#45;&gt;Node3</title>
<path fill="none" stroke="midnightblue" d="M97.9869,-134.008C118.811,-145.116 148.596,-159.995 176,-170 186.366,-173.785 197.749,-177.12 208.568,-179.928"/>
<polygon fill="midnightblue" stroke="midnightblue" points="99.5523,-130.875 89.0907,-129.2 96.2244,-137.034 99.5523,-130.875"/>
</g>
<!-- Node4 -->
<g id="node4" class="node"><title>Node4</title>
<g id="a_node4"><a xlink:href="class_c_t_c_t___form___designer.html#ac6d6ef8ae7fc4aaada6f73daf9a12d54" target="_top" xlink:title="CTCT_Form_Designer\l\\addIncludes">
<polygon fill="white" stroke="black" points="197.434,-129 197.434,-161 314.566,-161 314.566,-129 197.434,-129"/>
<text text-anchor="start" x="205.434" y="-147" font-family="Helvetica,sans-Serif" font-size="10.00">CTCT_Form_Designer</text>
<text text-anchor="middle" x="256" y="-135" font-family="Helvetica,sans-Serif" font-size="10.00">\addIncludes</text>
</a>
</g>
</g>
<!-- Node1&#45;&gt;Node4 -->
<g id="edge3" class="edge"><title>Node1&#45;&gt;Node4</title>
<path fill="none" stroke="midnightblue" d="M150.071,-130.173C165.882,-132.407 182.212,-134.715 197.144,-136.825"/>
<polygon fill="midnightblue" stroke="midnightblue" points="150.168,-126.652 139.776,-128.718 149.188,-133.583 150.168,-126.652"/>
</g>
<!-- Node5 -->
<g id="node5" class="node"><title>Node5</title>
<g id="a_node5"><a xlink:href="class_c_t_c_t___form___designer.html#a3a007a075c6517d097cd86dfdaefcaba" target="_top" xlink:title="CTCT_Form_Designer\l\\addScripts">
<polygon fill="white" stroke="black" points="197.434,-78 197.434,-110 314.566,-110 314.566,-78 197.434,-78"/>
<text text-anchor="start" x="205.434" y="-96" font-family="Helvetica,sans-Serif" font-size="10.00">CTCT_Form_Designer</text>
<text text-anchor="middle" x="256" y="-84" font-family="Helvetica,sans-Serif" font-size="10.00">\addScripts</text>
</a>
</g>
</g>
<!-- Node1&#45;&gt;Node5 -->
<g id="edge4" class="edge"><title>Node1&#45;&gt;Node5</title>
<path fill="none" stroke="midnightblue" d="M150.071,-108.257C165.882,-106.108 182.212,-103.89 197.144,-101.861"/>
<polygon fill="midnightblue" stroke="midnightblue" points="149.214,-104.841 139.776,-109.655 150.157,-111.777 149.214,-104.841"/>
</g>
<!-- Node6 -->
<g id="node6" class="node"><title>Node6</title>
<g id="a_node6"><a xlink:href="class_c_t_c_t___admin___page.html#a05b33ad05b2a8fb25be1f21015422239" target="_top" xlink:title="CTCT_Admin_Page\\getPointers">
<polygon fill="white" stroke="black" points="176.577,-39 176.577,-59 335.423,-59 335.423,-39 176.577,-39"/>
<text text-anchor="middle" x="256" y="-45" font-family="Helvetica,sans-Serif" font-size="10.00">CTCT_Admin_Page\getPointers</text>
</a>
</g>
</g>
<!-- Node1&#45;&gt;Node6 -->
<g id="edge5" class="edge"><title>Node1&#45;&gt;Node6</title>
<path fill="none" stroke="midnightblue" d="M98.401,-104.12C119.225,-93.2674 148.824,-78.8027 176,-69 186.514,-65.2075 198.062,-61.8511 209.004,-59.0228"/>
<polygon fill="midnightblue" stroke="midnightblue" points="96.7011,-101.06 89.491,-108.823 99.9685,-107.251 96.7011,-101.06"/>
</g>
<!-- Node8 -->
<g id="node8" class="node"><title>Node8</title>
<g id="a_node8"><a xlink:href="class_c_t_c_t___admin.html#a7c18d64b53a048652edeaeee7e400046" target="_top" xlink:title="CTCT_Admin\\pluginStatus">
<polygon fill="white" stroke="black" points="188.808,-0 188.808,-20 323.192,-20 323.192,-0 188.808,-0"/>
<text text-anchor="middle" x="256" y="-6" font-family="Helvetica,sans-Serif" font-size="10.00">CTCT_Admin\pluginStatus</text>
</a>
</g>
</g>
<!-- Node1&#45;&gt;Node8 -->
<g id="edge7" class="edge"><title>Node1&#45;&gt;Node8</title>
<path fill="none" stroke="midnightblue" d="M87.0834,-101.149C106.294,-80.915 140.335,-48.3654 176,-30 183.924,-25.9194 192.733,-22.636 201.51,-20.0045"/>
<polygon fill="midnightblue" stroke="midnightblue" points="84.2693,-99.0357 80.022,-108.742 89.3951,-103.803 84.2693,-99.0357"/>
</g>
<!-- Node7 -->
<g id="node7" class="node"><title>Node7</title>
<g id="a_node7"><a xlink:href="class_c_t_c_t___admin___page.html#a487ade20252dfe30745e6237b23d5193" target="_top" xlink:title="CTCT_Admin_Page\\print\l_scripts">
<polygon fill="white" stroke="black" points="372.143,-33 372.143,-65 499.857,-65 499.857,-33 372.143,-33"/>
<text text-anchor="start" x="380.143" y="-51" font-family="Helvetica,sans-Serif" font-size="10.00">CTCT_Admin_Page\print</text>
<text text-anchor="middle" x="436" y="-39" font-family="Helvetica,sans-Serif" font-size="10.00">_scripts</text>
</a>
</g>
</g>
<!-- Node6&#45;&gt;Node7 -->
<g id="edge6" class="edge"><title>Node6&#45;&gt;Node7</title>
<path fill="none" stroke="midnightblue" d="M345.64,-49C354.559,-49 363.482,-49 372.052,-49"/>
<polygon fill="midnightblue" stroke="midnightblue" points="345.592,-45.5001 335.592,-49 345.591,-52.5001 345.592,-45.5001"/>
</g>
</g>
</svg>
        <g id="navigator" transform="translate(0 0)" fill="#404254">
                <rect fill="#f2f5e9" fill-opacity="0.5" stroke="#606060" stroke-width=".5" x="0" y="0" width="60" height="60"/>
                <use id="zoomplus" xlink:href="#zoomPlus" x="17" y="9" onmousedown="handleZoom(evt,'in')"/>
                <use id="zoomminus" xlink:href="#zoomMin" x="42" y="9" onmousedown="handleZoom(evt,'out')"/>
                <use id="reset" xlink:href="#resetDef" x="30" y="36" onmousedown="handleReset()"/>
                <g id="arrowUp" xlink:href="#dirArrow" transform="translate(30 24)" onmousedown="handlePan(0,-1)">
                  <use xlink:href="#rim" fill="#404040">
                        <set attributeName="fill" to="#808080" begin="arrowUp.mouseover" end="arrowUp.mouseout"/>
                  </use>
                  <path fill="none" stroke="white" stroke-width="1.5" d="M0,-3.0v7 M-2.5,-0.5L0,-3.0L2.5,-0.5"/>
                </g>
                <g id="arrowRight" xlink:href="#dirArrow" transform="rotate(90) translate(36 -43)" onmousedown="handlePan(1,0)">
                  <use xlink:href="#rim" fill="#404040">
                        <set attributeName="fill" to="#808080" begin="arrowRight.mouseover" end="arrowRight.mouseout"/>
                  </use>
                  <path fill="none" stroke="white" stroke-width="1.5" d="M0,-3.0v7 M-2.5,-0.5L0,-3.0L2.5,-0.5"/>
                </g>
                <g id="arrowDown" xlink:href="#dirArrow" transform="rotate(180) translate(-30 -48)" onmousedown="handlePan(0,1)">
                  <use xlink:href="#rim" fill="#404040">
                        <set attributeName="fill" to="#808080" begin="arrowDown.mouseover" end="arrowDown.mouseout"/>
                  </use>
                  <path fill="none" stroke="white" stroke-width="1.5" d="M0,-3.0v7 M-2.5,-0.5L0,-3.0L2.5,-0.5"/>
                </g>
                <g id="arrowLeft" xlink:href="#dirArrow" transform="rotate(270) translate(-36 17)" onmousedown="handlePan(-1,0)">
                  <use xlink:href="#rim" fill="#404040">
                        <set attributeName="fill" to="#808080" begin="arrowLeft.mouseover" end="arrowLeft.mouseout"/>
                  </use>
                  <path fill="none" stroke="white" stroke-width="1.5" d="M0,-3.0v7 M-2.5,-0.5L0,-3.0L2.5,-0.5"/>
                </g>
        </g>
        <svg viewBox="0 0 15 15" width="100%" height="30px" preserveAspectRatio="xMaxYMin meet">
         <g id="arrow_out" transform="scale(0.3 0.3)">
          <a xlink:href="class_c_t_c_t___admin___page_af75e5afacc1fcfff476e13e5de52eefe_icgraph_org.svg" target="_base">
           <rect id="button" ry="5" rx="5" y="6" x="6" height="38" width="38"
                fill="#f2f5e9" fill-opacity="0.5" stroke="#606060" stroke-width="1.0"/>
           <path id="arrow"
             d="M 11.500037,31.436501 C 11.940474,20.09759 22.043105,11.32322 32.158766,21.979434 L 37.068811,17.246167 C 37.068811,17.246167 37.088388,32 37.088388,32 L 22.160133,31.978069 C 22.160133,31.978069 26.997745,27.140456 26.997745,27.140456 C 18.528582,18.264221 13.291696,25.230495 11.500037,31.436501 z"
             style="fill:#404040;"/>
          </a>
         </g>
        </svg>
</svg>
