<?xml version="1.0" encoding="UTF-8" standalone="no"?>
<!DOCTYPE svg PUBLIC "-//W3C//DTD SVG 1.1//EN"
 "http://www.w3.org/Graphics/SVG/1.1/DTD/svg11.dtd">
<!-- Generated by graphviz version 2.30.1 (20130221.2233)
 -->
<!-- Title: CTCT_Admin_Table\render Pages: 1 -->
<svg width="486pt" height="91pt"
 viewBox="0.00 0.00 486.00 91.00" xmlns="http://www.w3.org/2000/svg" xmlns:xlink="http://www.w3.org/1999/xlink">
<g id="graph0" class="graph" transform="scale(1 1) rotate(0) translate(4 87)">
<title>CTCT_Admin_Table\render</title>
<polygon fill="white" stroke="white" points="-4,5 -4,-87 483,-87 483,5 -4,5"/>
<!-- Node1 -->
<g id="node1" class="node"><title>Node1</title>
<polygon fill="#bfbfbf" stroke="black" points="0.140625,-31 0.140625,-51 137.859,-51 137.859,-31 0.140625,-31"/>
<text text-anchor="middle" x="69" y="-37" font-family="Helvetica,sans-Serif" font-size="10.00">CTCT_Admin_Table\render</text>
</g>
<!-- Node2 -->
<g id="node2" class="node"><title>Node2</title>
<g id="a_node2"><a xlink:href="class_c_t_c_t___admin___table.html#adeaebbd18a2a51c37385fb7f50a0b44b" target="_top" xlink:title="Builds the table and returns HTML ready to echo to the browser. ">
<polygon fill="white" stroke="black" points="174.417,-31 174.417,-51 321.583,-51 321.583,-31 174.417,-31"/>
<text text-anchor="middle" x="248" y="-37" font-family="Helvetica,sans-Serif" font-size="10.00">CTCT_Admin_Table\get_html</text>
</a>
</g>
</g>
<!-- Node1&#45;&gt;Node2 -->
<g id="edge1" class="edge"><title>Node1&#45;&gt;Node2</title>
<path fill="none" stroke="midnightblue" d="M137.927,-41C146.475,-41 155.295,-41 164.042,-41"/>
<polygon fill="midnightblue" stroke="midnightblue" points="164.257,-44.5001 174.257,-41 164.257,-37.5001 164.257,-44.5001"/>
</g>
<!-- Node3 -->
<g id="node3" class="node"><title>Node3</title>
<g id="a_node3"><a xlink:href="class_c_t_c_t___admin___table.html#a61a715d446b1cd95d79a20766c91df6b" target="_top" xlink:title="Prevent escaping of the table cells. ">
<polygon fill="white" stroke="black" points="358.032,-51 358.032,-83 477.968,-83 477.968,-51 358.032,-51"/>
<text text-anchor="start" x="366.032" y="-69" font-family="Helvetica,sans-Serif" font-size="10.00">CTCT_Admin_Table\do</text>
<text text-anchor="middle" x="418" y="-57" font-family="Helvetica,sans-Serif" font-size="10.00">_not_esc_td</text>
</a>
</g>
</g>
<!-- Node2&#45;&gt;Node3 -->
<g id="edge2" class="edge"><title>Node2&#45;&gt;Node3</title>
<path fill="none" stroke="midnightblue" d="M313.953,-51.0523C325.052,-52.77 336.619,-54.5601 347.823,-56.2941"/>
<polygon fill="midnightblue" stroke="midnightblue" points="347.569,-59.7963 357.986,-57.8669 348.639,-52.8786 347.569,-59.7963"/>
</g>
<!-- Node4 -->
<g id="node4" class="node"><title>Node4</title>
<g id="a_node4"><a xlink:href="class_c_t_c_t___admin___table.html#a32aa63a41a5015015911ab676eba6136" target="_top" xlink:title="Prevent escaping of the table headings. ">
<polygon fill="white" stroke="black" points="358.032,-0 358.032,-32 477.968,-32 477.968,-0 358.032,-0"/>
<text text-anchor="start" x="366.032" y="-18" font-family="Helvetica,sans-Serif" font-size="10.00">CTCT_Admin_Table\do</text>
<text text-anchor="middle" x="418" y="-6" font-family="Helvetica,sans-Serif" font-size="10.00">_not_esc_th</text>
</a>
</g>
</g>
<!-- Node2&#45;&gt;Node4 -->
<g id="edge3" class="edge"><title>Node2&#45;&gt;Node4</title>
<path fill="none" stroke="midnightblue" d="M316.364,-30.9756C326.81,-29.4211 337.613,-27.8135 348.093,-26.254"/>
<polygon fill="midnightblue" stroke="midnightblue" points="348.643,-29.7108 358.019,-24.777 347.612,-22.7871 348.643,-29.7108"/>
</g>
</g>
</svg>
