<?xml version="1.0" encoding="UTF-8" standalone="no"?>
<!DOCTYPE svg PUBLIC "-//W3C//DTD SVG 1.1//EN"
 "http://www.w3.org/Graphics/SVG/1.1/DTD/svg11.dtd">
<!-- Generated by graphviz version 2.30.1 (20130221.2233)
 -->
<!-- Title: Ctct\Services\ActivityService\createAddContactsActivity Pages: 1 -->
<svg width="496pt" height="181pt"
 viewBox="0.00 0.00 496.00 181.00" xmlns="http://www.w3.org/2000/svg" xmlns:xlink="http://www.w3.org/1999/xlink">
<g id="graph0" class="graph" transform="scale(1 1) rotate(0) translate(4 177)">
<title>Ctct\Services\ActivityService\createAddContactsActivity</title>
<polygon fill="white" stroke="white" points="-4,5 -4,-177 493,-177 493,5 -4,5"/>
<!-- Node1 -->
<g id="node1" class="node"><title>Node1</title>
<polygon fill="#bfbfbf" stroke="black" points="0.652832,-67 0.652832,-99 143.347,-99 143.347,-67 0.652832,-67"/>
<text text-anchor="start" x="8.65283" y="-85" font-family="Helvetica,sans-Serif" font-size="10.00">Ctct\Services\ActivityService</text>
<text text-anchor="middle" x="72" y="-73" font-family="Helvetica,sans-Serif" font-size="10.00">\createAddContactsActivity</text>
</g>
<!-- Node2 -->
<g id="node2" class="node"><title>Node2</title>
<g id="a_node2"><a xlink:href="class_ctct_1_1_services_1_1_base_service.html#a682b3692a73a009ec026442110cf968e" target="_top" xlink:title="Build a URL from a base url and optional array of query parameters to append to the url...">
<polygon fill="white" stroke="black" points="181.091,-141 181.091,-173 314.909,-173 314.909,-141 181.091,-141"/>
<text text-anchor="start" x="189.091" y="-159" font-family="Helvetica,sans-Serif" font-size="10.00">Ctct\Services\BaseService</text>
<text text-anchor="middle" x="248" y="-147" font-family="Helvetica,sans-Serif" font-size="10.00">\buildUrl</text>
</a>
</g>
</g>
<!-- Node1&#45;&gt;Node2 -->
<g id="edge1" class="edge"><title>Node1&#45;&gt;Node2</title>
<path fill="none" stroke="midnightblue" d="M107.499,-99.0191C128.369,-108.574 155.58,-120.792 180,-131 184.964,-133.075 190.158,-135.189 195.362,-137.27"/>
<polygon fill="midnightblue" stroke="midnightblue" points="194.107,-140.537 204.693,-140.963 196.683,-134.028 194.107,-140.537"/>
</g>
<!-- Node3 -->
<g id="node3" class="node"><title>Node3</title>
<g id="a_node3"><a xlink:href="class_ctct_1_1_components_1_1_activities_1_1_activity.html#ad67770e21bcf6b61eef2f6c519763d03" target="_top" xlink:title="Factory method to create an Activity object from an array. ">
<polygon fill="white" stroke="black" points="180.256,-90 180.256,-122 315.744,-122 315.744,-90 180.256,-90"/>
<text text-anchor="start" x="188.256" y="-108" font-family="Helvetica,sans-Serif" font-size="10.00">Ctct\Components\Activities</text>
<text text-anchor="middle" x="248" y="-96" font-family="Helvetica,sans-Serif" font-size="10.00">\Activity\create</text>
</a>
</g>
</g>
<!-- Node1&#45;&gt;Node3 -->
<g id="edge2" class="edge"><title>Node1&#45;&gt;Node3</title>
<path fill="none" stroke="midnightblue" d="M143.522,-92.3218C152.188,-93.4674 161.082,-94.643 169.84,-95.8007"/>
<polygon fill="midnightblue" stroke="midnightblue" points="169.666,-99.308 180.038,-97.1487 170.583,-92.3684 169.666,-99.308"/>
</g>
<!-- Node5 -->
<g id="node5" class="node"><title>Node5</title>
<g id="a_node5"><a xlink:href="class_ctct_1_1_util_1_1_config.html#ab224fae1ce1a1993c1ac42c708dc7de9" target="_top" xlink:title="Get a configuration property given a specified location, example usage: Config::get(&#39;auth.token_endpoint&#39;) ">
<polygon fill="white" stroke="black" points="198.318,-51 198.318,-71 297.682,-71 297.682,-51 198.318,-51"/>
<text text-anchor="middle" x="248" y="-57" font-family="Helvetica,sans-Serif" font-size="10.00">Ctct\Util\Config\get</text>
</a>
</g>
</g>
<!-- Node1&#45;&gt;Node5 -->
<g id="edge4" class="edge"><title>Node1&#45;&gt;Node5</title>
<path fill="none" stroke="midnightblue" d="M143.522,-74.0835C158.304,-72.2145 173.744,-70.2622 188.051,-68.4533"/>
<polygon fill="midnightblue" stroke="midnightblue" points="188.761,-71.8914 198.243,-67.1646 187.883,-64.9467 188.761,-71.8914"/>
</g>
<!-- Node6 -->
<g id="node6" class="node"><title>Node6</title>
<g id="a_node6"><a xlink:href="class_ctct_1_1_components_1_1_activities_1_1_add_contacts.html#a5a5b4d78de4490083774fea9bc6cc1d7" target="_top" xlink:title="Turn the object into json, removing any extra fields. ">
<polygon fill="white" stroke="black" points="180.256,-0 180.256,-32 315.744,-32 315.744,-0 180.256,-0"/>
<text text-anchor="start" x="188.256" y="-18" font-family="Helvetica,sans-Serif" font-size="10.00">Ctct\Components\Activities</text>
<text text-anchor="middle" x="248" y="-6" font-family="Helvetica,sans-Serif" font-size="10.00">\AddContacts\toJson</text>
</a>
</g>
</g>
<!-- Node1&#45;&gt;Node6 -->
<g id="edge5" class="edge"><title>Node1&#45;&gt;Node6</title>
<path fill="none" stroke="midnightblue" d="M114.677,-66.9518C139.015,-57.5803 169.919,-45.6807 195.739,-35.7385"/>
<polygon fill="midnightblue" stroke="midnightblue" points="197.287,-38.8929 205.362,-32.0332 194.772,-32.3604 197.287,-38.8929"/>
</g>
<!-- Node4 -->
<g id="node4" class="node"><title>Node4</title>
<g id="a_node4"><a xlink:href="class_ctct_1_1_components_1_1_activities_1_1_activity_error.html#aa9bc6b634f25fd213c068cbf97e966ec" target="_top" xlink:title="Factory method to create an object from an array. ">
<polygon fill="white" stroke="black" points="352.256,-90 352.256,-122 487.744,-122 487.744,-90 352.256,-90"/>
<text text-anchor="start" x="360.256" y="-108" font-family="Helvetica,sans-Serif" font-size="10.00">Ctct\Components\Activities</text>
<text text-anchor="middle" x="420" y="-96" font-family="Helvetica,sans-Serif" font-size="10.00">\ActivityError\create</text>
</a>
</g>
</g>
<!-- Node3&#45;&gt;Node4 -->
<g id="edge3" class="edge"><title>Node3&#45;&gt;Node4</title>
<path fill="none" stroke="midnightblue" d="M316.189,-106C324.66,-106 333.379,-106 341.988,-106"/>
<polygon fill="midnightblue" stroke="midnightblue" points="342.021,-109.5 352.021,-106 342.021,-102.5 342.021,-109.5"/>
</g>
</g>
</svg>
