<?xml version="1.0" encoding="UTF-8" standalone="no"?>
<!DOCTYPE svg PUBLIC "-//W3C//DTD SVG 1.1//EN"
 "http://www.w3.org/Graphics/SVG/1.1/DTD/svg11.dtd">
<!-- Generated by graphviz version 2.30.1 (20130221.2233)
 -->
<!-- Title: Ctct\Services\BaseService Pages: 1 -->
<svg width="344pt" height="349pt"
 viewBox="0.00 0.00 344.00 349.00" xmlns="http://www.w3.org/2000/svg" xmlns:xlink="http://www.w3.org/1999/xlink">
<g id="graph0" class="graph" transform="scale(1 1) rotate(0) translate(4 345)">
<title>Ctct\Services\BaseService</title>
<polygon fill="white" stroke="white" points="-4,5 -4,-345 341,-345 341,5 -4,5"/>
<!-- Node1 -->
<g id="node1" class="node"><title>Node1</title>
<polygon fill="#bfbfbf" stroke="black" points="0.0913086,-163 0.0913086,-183 133.909,-183 133.909,-163 0.0913086,-163"/>
<text text-anchor="middle" x="67" y="-169" font-family="Helvetica,sans-Serif" font-size="10.00">Ctct\Services\BaseService</text>
</g>
<!-- Node2 -->
<g id="node2" class="node"><title>Node2</title>
<g id="a_node2"><a xlink:href="class_ctct_1_1_services_1_1_account_service.html" target="_top" xlink:title="Ctct\\Services\\AccountService">
<polygon fill="white" stroke="black" points="179.421,-321 179.421,-341 326.579,-341 326.579,-321 179.421,-321"/>
<text text-anchor="middle" x="253" y="-327" font-family="Helvetica,sans-Serif" font-size="10.00">Ctct\Services\AccountService</text>
</a>
</g>
</g>
<!-- Node1&#45;&gt;Node2 -->
<g id="edge1" class="edge"><title>Node1&#45;&gt;Node2</title>
<path fill="none" stroke="midnightblue" d="M76.7906,-192.317C91.5651,-222.523 124.306,-280.62 170,-311 176.101,-315.057 182.947,-318.291 190.014,-320.871"/>
<polygon fill="midnightblue" stroke="midnightblue" points="79.9246,-190.757 72.4761,-183.223 73.6002,-193.758 79.9246,-190.757"/>
</g>
<!-- Node3 -->
<g id="node3" class="node"><title>Node3</title>
<g id="a_node3"><a xlink:href="class_ctct_1_1_services_1_1_activity_service.html" target="_top" xlink:title="Ctct\\Services\\ActivityService">
<polygon fill="white" stroke="black" points="181.653,-282 181.653,-302 324.347,-302 324.347,-282 181.653,-282"/>
<text text-anchor="middle" x="253" y="-288" font-family="Helvetica,sans-Serif" font-size="10.00">Ctct\Services\ActivityService</text>
</a>
</g>
</g>
<!-- Node1&#45;&gt;Node3 -->
<g id="edge2" class="edge"><title>Node1&#45;&gt;Node3</title>
<path fill="none" stroke="midnightblue" d="M81.6932,-191.292C99.5181,-213.772 132.817,-251.452 170,-272 177.439,-276.111 185.716,-279.385 194.07,-281.992"/>
<polygon fill="midnightblue" stroke="midnightblue" points="84.3307,-188.982 75.4399,-183.22 78.7968,-193.269 84.3307,-188.982"/>
</g>
<!-- Node4 -->
<g id="node4" class="node"><title>Node4</title>
<g id="a_node4"><a xlink:href="class_ctct_1_1_services_1_1_campaign_schedule_service.html" target="_top" xlink:title="Ctct\\Services\\CampaignSchedule\lService">
<polygon fill="white" stroke="black" points="170.52,-231 170.52,-263 335.48,-263 335.48,-231 170.52,-231"/>
<text text-anchor="start" x="178.52" y="-249" font-family="Helvetica,sans-Serif" font-size="10.00">Ctct\Services\CampaignSchedule</text>
<text text-anchor="middle" x="253" y="-237" font-family="Helvetica,sans-Serif" font-size="10.00">Service</text>
</a>
</g>
</g>
<!-- Node1&#45;&gt;Node4 -->
<g id="edge3" class="edge"><title>Node1&#45;&gt;Node4</title>
<path fill="none" stroke="midnightblue" d="M96.5752,-187.697C116.781,-197.779 144.673,-211.076 170,-221 178.899,-224.487 188.474,-227.856 197.83,-230.947"/>
<polygon fill="midnightblue" stroke="midnightblue" points="98.0997,-184.546 87.5939,-183.175 94.9517,-190.799 98.0997,-184.546"/>
</g>
<!-- Node5 -->
<g id="node5" class="node"><title>Node5</title>
<g id="a_node5"><a xlink:href="class_ctct_1_1_services_1_1_campaign_tracking_service.html" target="_top" xlink:title="Ctct\\Services\\CampaignTracking\lService">
<polygon fill="white" stroke="black" points="172.38,-180 172.38,-212 333.62,-212 333.62,-180 172.38,-180"/>
<text text-anchor="start" x="180.38" y="-198" font-family="Helvetica,sans-Serif" font-size="10.00">Ctct\Services\CampaignTracking</text>
<text text-anchor="middle" x="253" y="-186" font-family="Helvetica,sans-Serif" font-size="10.00">Service</text>
</a>
</g>
</g>
<!-- Node1&#45;&gt;Node5 -->
<g id="edge4" class="edge"><title>Node1&#45;&gt;Node5</title>
<path fill="none" stroke="midnightblue" d="M144.145,-182.518C153.437,-183.68 162.952,-184.869 172.294,-186.037"/>
<polygon fill="midnightblue" stroke="midnightblue" points="144.525,-179.038 134.168,-181.271 143.657,-185.984 144.525,-179.038"/>
</g>
<!-- Node6 -->
<g id="node6" class="node"><title>Node6</title>
<g id="a_node6"><a xlink:href="class_ctct_1_1_services_1_1_contact_service.html" target="_top" xlink:title="Ctct\\Services\\ContactService">
<polygon fill="white" stroke="black" points="180.256,-141 180.256,-161 325.744,-161 325.744,-141 180.256,-141"/>
<text text-anchor="middle" x="253" y="-147" font-family="Helvetica,sans-Serif" font-size="10.00">Ctct\Services\ContactService</text>
</a>
</g>
</g>
<!-- Node1&#45;&gt;Node6 -->
<g id="edge5" class="edge"><title>Node1&#45;&gt;Node6</title>
<path fill="none" stroke="midnightblue" d="M144.454,-163.859C156.285,-162.444 168.47,-160.987 180.194,-159.585"/>
<polygon fill="midnightblue" stroke="midnightblue" points="143.682,-160.426 134.168,-165.089 144.513,-167.377 143.682,-160.426"/>
</g>
<!-- Node7 -->
<g id="node7" class="node"><title>Node7</title>
<g id="a_node7"><a xlink:href="class_ctct_1_1_services_1_1_contact_tracking_service.html" target="_top" xlink:title="Ctct\\Services\\ContactTracking\lService">
<polygon fill="white" stroke="black" points="177.939,-90 177.939,-122 328.061,-122 328.061,-90 177.939,-90"/>
<text text-anchor="start" x="185.939" y="-108" font-family="Helvetica,sans-Serif" font-size="10.00">Ctct\Services\ContactTracking</text>
<text text-anchor="middle" x="253" y="-96" font-family="Helvetica,sans-Serif" font-size="10.00">Service</text>
</a>
</g>
</g>
<!-- Node1&#45;&gt;Node7 -->
<g id="edge6" class="edge"><title>Node1&#45;&gt;Node7</title>
<path fill="none" stroke="midnightblue" d="M100.941,-159.027C120.803,-150.786 146.69,-140.367 170,-132 179.418,-128.62 189.523,-125.228 199.31,-122.062"/>
<polygon fill="midnightblue" stroke="midnightblue" points="99.5927,-155.798 91.7125,-162.88 102.289,-162.257 99.5927,-155.798"/>
</g>
<!-- Node8 -->
<g id="node8" class="node"><title>Node8</title>
<g id="a_node8"><a xlink:href="class_ctct_1_1_services_1_1_email_marketing_service.html" target="_top" xlink:title="Ctct\\Services\\EmailMarketing\lService">
<polygon fill="white" stroke="black" points="179.705,-39 179.705,-71 326.295,-71 326.295,-39 179.705,-39"/>
<text text-anchor="start" x="187.705" y="-57" font-family="Helvetica,sans-Serif" font-size="10.00">Ctct\Services\EmailMarketing</text>
<text text-anchor="middle" x="253" y="-45" font-family="Helvetica,sans-Serif" font-size="10.00">Service</text>
</a>
</g>
</g>
<!-- Node1&#45;&gt;Node8 -->
<g id="edge7" class="edge"><title>Node1&#45;&gt;Node8</title>
<path fill="none" stroke="midnightblue" d="M83.3017,-155.198C101.881,-134.617 135.086,-101.012 170,-81 176.608,-77.2123 183.838,-73.9019 191.179,-71.0289"/>
<polygon fill="midnightblue" stroke="midnightblue" points="80.4968,-153.087 76.4892,-162.894 85.7382,-157.726 80.4968,-153.087"/>
</g>
<!-- Node9 -->
<g id="node9" class="node"><title>Node9</title>
<g id="a_node9"><a xlink:href="class_ctct_1_1_services_1_1_list_service.html" target="_top" xlink:title="Ctct\\Services\\ListService">
<polygon fill="white" stroke="black" points="189.707,-0 189.707,-20 316.293,-20 316.293,-0 189.707,-0"/>
<text text-anchor="middle" x="253" y="-6" font-family="Helvetica,sans-Serif" font-size="10.00">Ctct\Services\ListService</text>
</a>
</g>
</g>
<!-- Node1&#45;&gt;Node9 -->
<g id="edge8" class="edge"><title>Node1&#45;&gt;Node9</title>
<path fill="none" stroke="midnightblue" d="M76.3876,-153.442C90.7936,-122.276 123.267,-61.645 170,-30 176.067,-25.892 182.892,-22.6257 189.947,-20.0291"/>
<polygon fill="midnightblue" stroke="midnightblue" points="73.0912,-152.239 72.2003,-162.797 79.4804,-155.099 73.0912,-152.239"/>
</g>
</g>
</svg>
