<?xml version="1.0" encoding="UTF-8" standalone="no"?>
<!DOCTYPE svg PUBLIC "-//W3C//DTD SVG 1.1//EN"
 "http://www.w3.org/Graphics/SVG/1.1/DTD/svg11.dtd">
<!-- Generated by graphviz version 2.30.1 (20130221.2233)
 -->
<!-- Title: gd_gradient_fill\gd_gradient_fill Pages: 1 -->
<svg width="420pt" height="67pt"
 viewBox="0.00 0.00 420.00 67.00" xmlns="http://www.w3.org/2000/svg" xmlns:xlink="http://www.w3.org/1999/xlink">
<g id="graph0" class="graph" transform="scale(1 1) rotate(0) translate(4 63)">
<title>gd_gradient_fill\gd_gradient_fill</title>
<polygon fill="white" stroke="white" points="-4,5 -4,-63 417,-63 417,5 -4,5"/>
<!-- Node1 -->
<g id="node1" class="node"><title>Node1</title>
<polygon fill="#bfbfbf" stroke="black" points="0.135742,-13 0.135742,-45 97.8643,-45 97.8643,-13 0.135742,-13"/>
<text text-anchor="start" x="8.13574" y="-31" font-family="Helvetica,sans-Serif" font-size="10.00">gd_gradient_fill\gd</text>
<text text-anchor="middle" x="49" y="-19" font-family="Helvetica,sans-Serif" font-size="10.00">_gradient_fill</text>
</g>
<!-- Node2 -->
<g id="node2" class="node"><title>Node2</title>
<g id="a_node2"><a xlink:href="classgd__gradient__fill.html#abcc0fd00d9d251168436b4a80bfa4556" target="_top" xlink:title="gd_gradient_fill\\display">
<polygon fill="white" stroke="black" points="134.133,-39 134.133,-59 251.867,-59 251.867,-39 134.133,-39"/>
<text text-anchor="middle" x="193" y="-45" font-family="Helvetica,sans-Serif" font-size="10.00">gd_gradient_fill\display</text>
</a>
</g>
</g>
<!-- Node1&#45;&gt;Node2 -->
<g id="edge1" class="edge"><title>Node1&#45;&gt;Node2</title>
<path fill="none" stroke="midnightblue" d="M98.0747,-35.7711C106.344,-36.9358 115.079,-38.1661 123.759,-39.3885"/>
<polygon fill="midnightblue" stroke="midnightblue" points="123.501,-42.8867 133.891,-40.8156 124.477,-35.9551 123.501,-42.8867"/>
</g>
<!-- Node4 -->
<g id="node4" class="node"><title>Node4</title>
<g id="a_node4"><a xlink:href="classgd__gradient__fill.html#a1a51c60c9ef8cde59f4a8ad25f0a145e" target="_top" xlink:title="gd_gradient_fill\\fill">
<polygon fill="white" stroke="black" points="144.976,-0 144.976,-20 241.024,-20 241.024,-0 144.976,-0"/>
<text text-anchor="middle" x="193" y="-6" font-family="Helvetica,sans-Serif" font-size="10.00">gd_gradient_fill\fill</text>
</a>
</g>
</g>
<!-- Node1&#45;&gt;Node4 -->
<g id="edge3" class="edge"><title>Node1&#45;&gt;Node4</title>
<path fill="none" stroke="midnightblue" d="M98.0747,-22.5675C109.892,-20.9863 122.659,-19.278 134.858,-17.6458"/>
<polygon fill="midnightblue" stroke="midnightblue" points="135.49,-21.0924 144.938,-16.297 134.562,-14.1542 135.49,-21.0924"/>
</g>
<!-- Node3 -->
<g id="node3" class="node"><title>Node3</title>
<g id="a_node3"><a xlink:href="classgd__gradient__fill.html#a41de58e3ef27e6f88d14fd2e4ade959c" target="_top" xlink:title="gd_gradient_fill\\retrieve">
<polygon fill="white" stroke="black" points="290.025,-39 290.025,-59 409.975,-59 409.975,-39 290.025,-39"/>
<text text-anchor="middle" x="350" y="-45" font-family="Helvetica,sans-Serif" font-size="10.00">gd_gradient_fill\retrieve</text>
</a>
</g>
</g>
<!-- Node2&#45;&gt;Node3 -->
<g id="edge2" class="edge"><title>Node2&#45;&gt;Node3</title>
<path fill="none" stroke="midnightblue" d="M252.157,-49C261.145,-49 270.503,-49 279.705,-49"/>
<polygon fill="midnightblue" stroke="midnightblue" points="280,-52.5001 290,-49 280,-45.5001 280,-52.5001"/>
</g>
<!-- Node5 -->
<g id="node5" class="node"><title>Node5</title>
<g id="a_node5"><a xlink:href="classgd__gradient__fill.html#a9ff5dccf96ba403e3a5810af829008f3" target="_top" xlink:title="gd_gradient_fill\\hex2rgb">
<polygon fill="white" stroke="black" points="288.628,-0 288.628,-20 411.372,-20 411.372,-0 288.628,-0"/>
<text text-anchor="middle" x="350" y="-6" font-family="Helvetica,sans-Serif" font-size="10.00">gd_gradient_fill\hex2rgb</text>
</a>
</g>
</g>
<!-- Node4&#45;&gt;Node5 -->
<g id="edge4" class="edge"><title>Node4&#45;&gt;Node5</title>
<path fill="none" stroke="midnightblue" d="M241.347,-10C253.079,-10 265.903,-10 278.479,-10"/>
<polygon fill="midnightblue" stroke="midnightblue" points="278.487,-13.5001 288.487,-10 278.487,-6.5001 278.487,-13.5001"/>
</g>
</g>
</svg>
