<?xml version="1.0" encoding="UTF-8" standalone="no"?>
<!DOCTYPE svg PUBLIC "-//W3C//DTD SVG 1.1//EN"
 "http://www.w3.org/Graphics/SVG/1.1/DTD/svg11.dtd">
<!-- Generated by graphviz version 2.30.1 (20130221.2233)
 -->
<!-- Title: OAuthRequest\from_consumer_and_token Pages: 1 -->
<svg width="322pt" height="91pt"
 viewBox="0.00 0.00 322.00 91.00" xmlns="http://www.w3.org/2000/svg" xmlns:xlink="http://www.w3.org/1999/xlink">
<g id="graph0" class="graph" transform="scale(1 1) rotate(0) translate(4 87)">
<title>OAuthRequest\from_consumer_and_token</title>
<polygon fill="white" stroke="white" points="-4,5 -4,-87 319,-87 319,5 -4,5"/>
<!-- Node1 -->
<g id="node1" class="node"><title>Node1</title>
<polygon fill="#bfbfbf" stroke="black" points="0.0791016,-25 0.0791016,-57 153.921,-57 153.921,-25 0.0791016,-25"/>
<text text-anchor="start" x="8.0791" y="-43" font-family="Helvetica,sans-Serif" font-size="10.00">OAuthRequest\from_consumer</text>
<text text-anchor="middle" x="77" y="-31" font-family="Helvetica,sans-Serif" font-size="10.00">_and_token</text>
</g>
<!-- Node2 -->
<g id="node2" class="node"><title>Node2</title>
<g id="a_node2"><a xlink:href="class_o_auth_request.html#ae544b1c10b82d5a82dcc259064763420" target="_top" xlink:title="util function: current nonce ">
<polygon fill="white" stroke="black" points="190.074,-51 190.074,-83 313.926,-83 313.926,-51 190.074,-51"/>
<text text-anchor="start" x="198.074" y="-69" font-family="Helvetica,sans-Serif" font-size="10.00">OAuthRequest\generate</text>
<text text-anchor="middle" x="252" y="-57" font-family="Helvetica,sans-Serif" font-size="10.00">_nonce</text>
</a>
</g>
</g>
<!-- Node1&#45;&gt;Node2 -->
<g id="edge1" class="edge"><title>Node1&#45;&gt;Node2</title>
<path fill="none" stroke="midnightblue" d="M154.132,-52.4418C162.733,-53.7344 171.472,-55.0478 180.003,-56.33"/>
<polygon fill="midnightblue" stroke="midnightblue" points="179.493,-59.7925 189.902,-57.8177 180.533,-52.8702 179.493,-59.7925"/>
</g>
<!-- Node3 -->
<g id="node3" class="node"><title>Node3</title>
<g id="a_node3"><a xlink:href="class_o_auth_request.html#adfc6b936799f705d9a4442961a26e8cb" target="_top" xlink:title="util function: current timestamp ">
<polygon fill="white" stroke="black" points="190.074,-0 190.074,-32 313.926,-32 313.926,-0 190.074,-0"/>
<text text-anchor="start" x="198.074" y="-18" font-family="Helvetica,sans-Serif" font-size="10.00">OAuthRequest\generate</text>
<text text-anchor="middle" x="252" y="-6" font-family="Helvetica,sans-Serif" font-size="10.00">_timestamp</text>
</a>
</g>
</g>
<!-- Node1&#45;&gt;Node3 -->
<g id="edge2" class="edge"><title>Node1&#45;&gt;Node3</title>
<path fill="none" stroke="midnightblue" d="M154.132,-29.9983C162.733,-28.7554 171.472,-27.4925 180.003,-26.2596"/>
<polygon fill="midnightblue" stroke="midnightblue" points="180.506,-29.7235 189.902,-24.8292 179.504,-22.7955 180.506,-29.7235"/>
</g>
</g>
</svg>
