<?xml version="1.0" encoding="UTF-8" standalone="no"?>
<!DOCTYPE svg PUBLIC "-//W3C//DTD SVG 1.1//EN"
 "http://www.w3.org/Graphics/SVG/1.1/DTD/svg11.dtd">
<!-- Generated by graphviz version 2.30.1 (20130221.2233)
 -->
<!-- Title: Net_DNS_RR_PTR\Net_DNS_RR_PTR Pages: 1 -->
<svg width="314pt" height="67pt"
 viewBox="0.00 0.00 314.00 67.00" xmlns="http://www.w3.org/2000/svg" xmlns:xlink="http://www.w3.org/1999/xlink">
<g id="graph0" class="graph" transform="scale(1 1) rotate(0) translate(4 63)">
<title>Net_DNS_RR_PTR\Net_DNS_RR_PTR</title>
<polygon fill="white" stroke="white" points="-4,5 -4,-63 311,-63 311,5 -4,5"/>
<!-- Node1 -->
<g id="node1" class="node"><title>Node1</title>
<polygon fill="#bfbfbf" stroke="black" points="-0.0712891,-13 -0.0712891,-45 122.071,-45 122.071,-13 -0.0712891,-13"/>
<text text-anchor="start" x="7.92871" y="-31" font-family="Helvetica,sans-Serif" font-size="10.00">Net_DNS_RR_PTR\Net</text>
<text text-anchor="middle" x="61" y="-19" font-family="Helvetica,sans-Serif" font-size="10.00">_DNS_RR_PTR</text>
</g>
<!-- Node2 -->
<g id="node2" class="node"><title>Node2</title>
<g id="a_node2"><a xlink:href="class_net___d_n_s___packet.html#a9844b7ce62cb096db44f58882f8ca403" target="_top" xlink:title="DNS packet decompression method. ">
<polygon fill="white" stroke="black" points="158.68,-39 158.68,-59 305.32,-59 305.32,-39 158.68,-39"/>
<text text-anchor="middle" x="232" y="-45" font-family="Helvetica,sans-Serif" font-size="10.00">Net_DNS_Packet\dn_expand</text>
</a>
</g>
</g>
<!-- Node1&#45;&gt;Node2 -->
<g id="edge1" class="edge"><title>Node1&#45;&gt;Node2</title>
<path fill="none" stroke="midnightblue" d="M122.536,-36.164C130.909,-37.1549 139.624,-38.1863 148.314,-39.2147"/>
<polygon fill="midnightblue" stroke="midnightblue" points="148.139,-42.7183 158.481,-40.4179 148.962,-35.7668 148.139,-42.7183"/>
</g>
<!-- Node3 -->
<g id="node3" class="node"><title>Node3</title>
<g id="a_node3"><a xlink:href="class_net___d_n_s___r_r.html#aa9da23331d654752fc950d474aa4c88d" target="_top" xlink:title="Net_DNS_RR\\rdata">
<polygon fill="white" stroke="black" points="180.094,-0 180.094,-20 283.906,-20 283.906,-0 180.094,-0"/>
<text text-anchor="middle" x="232" y="-6" font-family="Helvetica,sans-Serif" font-size="10.00">Net_DNS_RR\rdata</text>
</a>
</g>
</g>
<!-- Node1&#45;&gt;Node3 -->
<g id="edge2" class="edge"><title>Node1&#45;&gt;Node3</title>
<path fill="none" stroke="midnightblue" d="M122.536,-22.1942C137.997,-20.456 154.625,-18.5866 170.104,-16.8463"/>
<polygon fill="midnightblue" stroke="midnightblue" points="170.54,-20.3195 180.086,-15.7241 169.757,-13.3633 170.54,-20.3195"/>
</g>
</g>
</svg>
