<?xml version="1.0" encoding="UTF-8" standalone="no"?>
<!DOCTYPE svg PUBLIC "-//W3C//DTD SVG 1.1//EN"
 "http://www.w3.org/Graphics/SVG/1.1/DTD/svg11.dtd">
<!-- Generated by graphviz version 2.30.1 (20130221.2233)
 -->
<!-- Title: Ctct\Components\EmailMarketing\Campaign\create Pages: 1 -->
<svg width="358pt" height="142pt"
 viewBox="0.00 0.00 358.00 142.00" xmlns="http://www.w3.org/2000/svg" xmlns:xlink="http://www.w3.org/1999/xlink">
<g id="graph0" class="graph" transform="scale(1 1) rotate(0) translate(4 138)">
<title>Ctct\Components\EmailMarketing\Campaign\create</title>
<polygon fill="white" stroke="white" points="-4,5 -4,-138 355,-138 355,5 -4,5"/>
<!-- Node1 -->
<g id="node1" class="node"><title>Node1</title>
<polygon fill="#bfbfbf" stroke="black" points="0.527344,-51 0.527344,-83 165.473,-83 165.473,-51 0.527344,-51"/>
<text text-anchor="start" x="8.52734" y="-69" font-family="Helvetica,sans-Serif" font-size="10.00">Ctct\Components\EmailMarketing</text>
<text text-anchor="middle" x="83" y="-57" font-family="Helvetica,sans-Serif" font-size="10.00">\Campaign\create</text>
</g>
<!-- Node2 -->
<g id="node2" class="node"><title>Node2</title>
<g id="a_node2"><a xlink:href="class_ctct_1_1_services_1_1_email_marketing_service.html#ad7b4f264aecfd32a1a23db8446e55c4e" target="_top" xlink:title="Create a new campaign. ">
<polygon fill="white" stroke="black" points="202.705,-102 202.705,-134 349.295,-134 349.295,-102 202.705,-102"/>
<text text-anchor="start" x="210.705" y="-120" font-family="Helvetica,sans-Serif" font-size="10.00">Ctct\Services\EmailMarketing</text>
<text text-anchor="middle" x="276" y="-108" font-family="Helvetica,sans-Serif" font-size="10.00">Service\addCampaign</text>
</a>
</g>
</g>
<!-- Node1&#45;&gt;Node2 -->
<g id="edge1" class="edge"><title>Node1&#45;&gt;Node2</title>
<path fill="none" stroke="midnightblue" d="M153.839,-85.648C173.831,-90.9862 195.443,-96.7571 214.803,-101.926"/>
<polygon fill="midnightblue" stroke="midnightblue" points="154.736,-82.265 144.171,-83.0667 152.93,-89.0281 154.736,-82.265"/>
</g>
<!-- Node3 -->
<g id="node3" class="node"><title>Node3</title>
<g id="a_node3"><a xlink:href="class_ctct_1_1_services_1_1_email_marketing_service.html#a74b2cfd1e2b3c26f5c9d1be841f8d1b8" target="_top" xlink:title="Get campaign details for a specific campaign. ">
<polygon fill="white" stroke="black" points="202.705,-51 202.705,-83 349.295,-83 349.295,-51 202.705,-51"/>
<text text-anchor="start" x="210.705" y="-69" font-family="Helvetica,sans-Serif" font-size="10.00">Ctct\Services\EmailMarketing</text>
<text text-anchor="middle" x="276" y="-57" font-family="Helvetica,sans-Serif" font-size="10.00">Service\getCampaign</text>
</a>
</g>
</g>
<!-- Node1&#45;&gt;Node3 -->
<g id="edge2" class="edge"><title>Node1&#45;&gt;Node3</title>
<path fill="none" stroke="midnightblue" d="M175.673,-67C184.666,-67 193.704,-67 202.469,-67"/>
<polygon fill="midnightblue" stroke="midnightblue" points="175.555,-63.5001 165.555,-67 175.555,-70.5001 175.555,-63.5001"/>
</g>
<!-- Node4 -->
<g id="node4" class="node"><title>Node4</title>
<g id="a_node4"><a xlink:href="class_ctct_1_1_services_1_1_email_marketing_service.html#a577a7a457d8c00ba8f0f01d113f37973" target="_top" xlink:title="Update a specific email campaign. ">
<polygon fill="white" stroke="black" points="202.705,-0 202.705,-32 349.295,-32 349.295,-0 202.705,-0"/>
<text text-anchor="start" x="210.705" y="-18" font-family="Helvetica,sans-Serif" font-size="10.00">Ctct\Services\EmailMarketing</text>
<text text-anchor="middle" x="276" y="-6" font-family="Helvetica,sans-Serif" font-size="10.00">Service\updateCampaign</text>
</a>
</g>
</g>
<!-- Node1&#45;&gt;Node4 -->
<g id="edge3" class="edge"><title>Node1&#45;&gt;Node4</title>
<path fill="none" stroke="midnightblue" d="M153.839,-48.352C173.831,-43.0138 195.443,-37.2429 214.803,-32.0736"/>
<polygon fill="midnightblue" stroke="midnightblue" points="152.93,-44.9719 144.171,-50.9333 154.736,-51.735 152.93,-44.9719"/>
</g>
</g>
</svg>
