<?xml version="1.0" encoding="UTF-8" standalone="no"?>
<!DOCTYPE svg PUBLIC "-//W3C//DTD SVG 1.1//EN"
 "http://www.w3.org/Graphics/SVG/1.1/DTD/svg11.dtd">
<!-- Generated by graphviz version 2.30.1 (20130221.2233)
 -->
<!-- Title: JsonLoader\getSummary Pages: 1 -->
<svg width="324pt" height="91pt"
 viewBox="0.00 0.00 324.00 91.00" xmlns="http://www.w3.org/2000/svg" xmlns:xlink="http://www.w3.org/1999/xlink">
<g id="graph0" class="graph" transform="scale(1 1) rotate(0) translate(4 87)">
<title>JsonLoader\getSummary</title>
<polygon fill="white" stroke="white" points="-4,5 -4,-87 321,-87 321,5 -4,5"/>
<!-- Node1 -->
<g id="node1" class="node"><title>Node1</title>
<polygon fill="#bfbfbf" stroke="black" points="0.138184,-31 0.138184,-51 127.862,-51 127.862,-31 0.138184,-31"/>
<text text-anchor="middle" x="64" y="-37" font-family="Helvetica,sans-Serif" font-size="10.00">JsonLoader\getSummary</text>
</g>
<!-- Node2 -->
<g id="node2" class="node"><title>Node2</title>
<g id="a_node2"><a xlink:href="class_contact_tracking_service_unit_test.html#a2b4816e765ff4dd735c7ce91154e78d2" target="_top" xlink:title="ContactTrackingServiceUnit\lTest\\testGetSummary">
<polygon fill="white" stroke="black" points="170.215,-51 170.215,-83 309.785,-83 309.785,-51 170.215,-51"/>
<text text-anchor="start" x="178.215" y="-69" font-family="Helvetica,sans-Serif" font-size="10.00">ContactTrackingServiceUnit</text>
<text text-anchor="middle" x="240" y="-57" font-family="Helvetica,sans-Serif" font-size="10.00">Test\testGetSummary</text>
</a>
</g>
</g>
<!-- Node1&#45;&gt;Node2 -->
<g id="edge1" class="edge"><title>Node1&#45;&gt;Node2</title>
<path fill="none" stroke="midnightblue" d="M138.32,-51.9559C148.871,-53.5325 159.697,-55.1501 170.156,-56.713"/>
<polygon fill="midnightblue" stroke="midnightblue" points="138.718,-48.4765 128.31,-50.4601 137.683,-55.3996 138.718,-48.4765"/>
</g>
<!-- Node3 -->
<g id="node3" class="node"><title>Node3</title>
<g id="a_node3"><a xlink:href="class_campaign_tracking_service_unit_test.html#a08206798d8daad7b2b2378d51f98edcd" target="_top" xlink:title="CampaignTrackingServiceUnit\lTest\\testGetSummary">
<polygon fill="white" stroke="black" points="164.656,-0 164.656,-32 315.344,-32 315.344,-0 164.656,-0"/>
<text text-anchor="start" x="172.656" y="-18" font-family="Helvetica,sans-Serif" font-size="10.00">CampaignTrackingServiceUnit</text>
<text text-anchor="middle" x="240" y="-6" font-family="Helvetica,sans-Serif" font-size="10.00">Test\testGetSummary</text>
</a>
</g>
</g>
<!-- Node1&#45;&gt;Node3 -->
<g id="edge2" class="edge"><title>Node1&#45;&gt;Node3</title>
<path fill="none" stroke="midnightblue" d="M138.358,-30.4601C147.007,-29.2174 155.841,-27.9482 164.505,-26.7032"/>
<polygon fill="midnightblue" stroke="midnightblue" points="137.711,-27.017 128.31,-31.9037 138.706,-33.9459 137.711,-27.017"/>
</g>
</g>
</svg>
