<?xml version="1.0" encoding="UTF-8" standalone="no"?>
<!DOCTYPE svg PUBLIC "-//W3C//DTD SVG 1.1//EN"
 "http://www.w3.org/Graphics/SVG/1.1/DTD/svg11.dtd">
<!-- Generated by graphviz version 2.30.1 (20130221.2233)
 -->
<!-- Title: Ctct\Services\CampaignTrackingService\getClicks Pages: 1 -->
<svg width="340pt" height="130pt"
 viewBox="0.00 0.00 340.00 130.00" xmlns="http://www.w3.org/2000/svg" xmlns:xlink="http://www.w3.org/1999/xlink">
<g id="graph0" class="graph" transform="scale(1 1) rotate(0) translate(4 126)">
<title>Ctct\Services\CampaignTrackingService\getClicks</title>
<polygon fill="white" stroke="white" points="-4,5 -4,-126 337,-126 337,5 -4,5"/>
<!-- Node1 -->
<g id="node1" class="node"><title>Node1</title>
<polygon fill="#bfbfbf" stroke="black" points="0.380371,-39 0.380371,-71 161.62,-71 161.62,-39 0.380371,-39"/>
<text text-anchor="start" x="8.38037" y="-57" font-family="Helvetica,sans-Serif" font-size="10.00">Ctct\Services\CampaignTracking</text>
<text text-anchor="middle" x="81" y="-45" font-family="Helvetica,sans-Serif" font-size="10.00">Service\getClicks</text>
</g>
<!-- Node2 -->
<g id="node2" class="node"><title>Node2</title>
<g id="a_node2"><a xlink:href="class_ctct_1_1_services_1_1_base_service.html#a5c4ae0795fcc06c137b6e761963c4df6" target="_top" xlink:title="Build a url from the base url and query parameters array. ">
<polygon fill="white" stroke="black" points="198.091,-90 198.091,-122 331.909,-122 331.909,-90 198.091,-90"/>
<text text-anchor="start" x="206.091" y="-108" font-family="Helvetica,sans-Serif" font-size="10.00">Ctct\Services\BaseService</text>
<text text-anchor="middle" x="265" y="-96" font-family="Helvetica,sans-Serif" font-size="10.00">\buildUrl</text>
</a>
</g>
</g>
<!-- Node1&#45;&gt;Node2 -->
<g id="edge1" class="edge"><title>Node1&#45;&gt;Node2</title>
<path fill="none" stroke="midnightblue" d="M139.586,-71.1367C157.855,-76.256 178.21,-81.9598 197.077,-87.2468"/>
<polygon fill="midnightblue" stroke="midnightblue" points="196.215,-90.6401 206.789,-89.9683 198.104,-83.8997 196.215,-90.6401"/>
</g>
<!-- Node3 -->
<g id="node3" class="node"><title>Node3</title>
<g id="a_node3"><a xlink:href="class_ctct_1_1_components_1_1_tracking_1_1_click_activity.html#aae5eeb4c290cddc152f44ac03543f38d" target="_top" xlink:title="Factory method to create a ClickActivity object from an array. ">
<polygon fill="white" stroke="black" points="197.994,-39 197.994,-71 332.006,-71 332.006,-39 197.994,-39"/>
<text text-anchor="start" x="205.994" y="-57" font-family="Helvetica,sans-Serif" font-size="10.00">Ctct\Components\Tracking</text>
<text text-anchor="middle" x="265" y="-45" font-family="Helvetica,sans-Serif" font-size="10.00">\ClickActivity\create</text>
</a>
</g>
</g>
<!-- Node1&#45;&gt;Node3 -->
<g id="edge2" class="edge"><title>Node1&#45;&gt;Node3</title>
<path fill="none" stroke="midnightblue" d="M161.828,-55C170.383,-55 179.073,-55 187.587,-55"/>
<polygon fill="midnightblue" stroke="midnightblue" points="187.866,-58.5001 197.866,-55 187.865,-51.5001 187.866,-58.5001"/>
</g>
<!-- Node4 -->
<g id="node4" class="node"><title>Node4</title>
<g id="a_node4"><a xlink:href="class_ctct_1_1_util_1_1_config.html#ab224fae1ce1a1993c1ac42c708dc7de9" target="_top" xlink:title="Get a configuration property given a specified location, example usage: Config::get(&#39;auth.token_endpoint&#39;) ">
<polygon fill="white" stroke="black" points="215.318,-0 215.318,-20 314.682,-20 314.682,-0 215.318,-0"/>
<text text-anchor="middle" x="265" y="-6" font-family="Helvetica,sans-Serif" font-size="10.00">Ctct\Util\Config\get</text>
</a>
</g>
</g>
<!-- Node1&#45;&gt;Node4 -->
<g id="edge3" class="edge"><title>Node1&#45;&gt;Node4</title>
<path fill="none" stroke="midnightblue" d="M146.935,-38.9445C168.868,-33.5217 193.006,-27.5534 213.638,-22.4522"/>
<polygon fill="midnightblue" stroke="midnightblue" points="214.592,-25.8219 223.459,-20.0239 212.911,-19.0265 214.592,-25.8219"/>
</g>
</g>
</svg>
