<?xml version="1.0" encoding="UTF-8" standalone="no"?>
<!DOCTYPE svg PUBLIC "-//W3C//DTD SVG 1.1//EN"
 "http://www.w3.org/Graphics/SVG/1.1/DTD/svg11.dtd">
<!-- Generated by graphviz version 2.30.1 (20130221.2233)
 -->
<!-- Title: KWSOAuth2\__construct Pages: 1 -->
<svg width="328pt" height="67pt"
 viewBox="0.00 0.00 328.00 67.00" xmlns="http://www.w3.org/2000/svg" xmlns:xlink="http://www.w3.org/1999/xlink">
<g id="graph0" class="graph" transform="scale(1 1) rotate(0) translate(4 63)">
<title>KWSOAuth2\__construct</title>
<polygon fill="white" stroke="white" points="-4,5 -4,-63 325,-63 325,5 -4,5"/>
<!-- Node1 -->
<g id="node1" class="node"><title>Node1</title>
<polygon fill="#bfbfbf" stroke="black" points="0.418945,-19 0.418945,-39 127.581,-39 127.581,-19 0.418945,-19"/>
<text text-anchor="middle" x="64" y="-25" font-family="Helvetica,sans-Serif" font-size="10.00">KWSOAuth2\__construct</text>
</g>
<!-- Node2 -->
<g id="node2" class="node"><title>Node2</title>
<g id="a_node2"><a xlink:href="class_k_w_s_o_auth2.html#aad804108205b7df2ce2464ad69821c41" target="_top" xlink:title="KWSOAuth2\\getRedirectUri">
<polygon fill="white" stroke="black" points="172.311,-39 172.311,-59 311.689,-59 311.689,-39 172.311,-39"/>
<text text-anchor="middle" x="242" y="-45" font-family="Helvetica,sans-Serif" font-size="10.00">KWSOAuth2\getRedirectUri</text>
</a>
</g>
</g>
<!-- Node1&#45;&gt;Node2 -->
<g id="edge1" class="edge"><title>Node1&#45;&gt;Node2</title>
<path fill="none" stroke="midnightblue" d="M128.043,-36.164C139.105,-37.421 150.74,-38.7432 162.167,-40.0417"/>
<polygon fill="midnightblue" stroke="midnightblue" points="161.804,-43.5229 172.136,-41.1745 162.595,-36.5677 161.804,-43.5229"/>
</g>
<!-- Node3 -->
<g id="node3" class="node"><title>Node3</title>
<g id="a_node3"><a xlink:href="class_k_w_s_o_auth2.html#a01af2dbedac397abef87dcc691617111" target="_top" xlink:title="KWSOAuth2\\processResponse">
<polygon fill="white" stroke="black" points="164.244,-0 164.244,-20 319.756,-20 319.756,-0 164.244,-0"/>
<text text-anchor="middle" x="242" y="-6" font-family="Helvetica,sans-Serif" font-size="10.00">KWSOAuth2\processResponse</text>
</a>
</g>
</g>
<!-- Node1&#45;&gt;Node3 -->
<g id="edge2" class="edge"><title>Node1&#45;&gt;Node3</title>
<path fill="none" stroke="midnightblue" d="M128.043,-22.1942C136.408,-21.2911 145.102,-20.3526 153.785,-19.4152"/>
<polygon fill="midnightblue" stroke="midnightblue" points="154.387,-22.8707 163.954,-18.3175 153.636,-15.9111 154.387,-22.8707"/>
</g>
</g>
</svg>
