<?xml version="1.0" encoding="UTF-8" standalone="no"?>
<!DOCTYPE svg PUBLIC "-//W3C//DTD SVG 1.1//EN"
 "http://www.w3.org/Graphics/SVG/1.1/DTD/svg11.dtd">
<!-- Generated by graphviz version 2.30.1 (20130221.2233)
 -->
<!-- Title: Ctct\Components\Contacts\Contact\create Pages: 1 -->
<svg width="316pt" height="244pt"
 viewBox="0.00 0.00 316.00 244.00" xmlns="http://www.w3.org/2000/svg" xmlns:xlink="http://www.w3.org/1999/xlink">
<g id="graph0" class="graph" transform="scale(1 1) rotate(0) translate(4 240)">
<title>Ctct\Components\Contacts\Contact\create</title>
<polygon fill="white" stroke="white" points="-4,5 -4,-240 313,-240 313,5 -4,5"/>
<!-- Node1 -->
<g id="node1" class="node"><title>Node1</title>
<polygon fill="#bfbfbf" stroke="black" points="0.251465,-102 0.251465,-134 135.749,-134 135.749,-102 0.251465,-102"/>
<text text-anchor="start" x="8.25146" y="-120" font-family="Helvetica,sans-Serif" font-size="10.00">Ctct\Components\Contacts</text>
<text text-anchor="middle" x="68" y="-108" font-family="Helvetica,sans-Serif" font-size="10.00">\Contact\create</text>
</g>
<!-- Node2 -->
<g id="node2" class="node"><title>Node2</title>
<g id="a_node2"><a xlink:href="class_ctct_1_1_components_1_1_contacts_1_1_custom_field.html#ae68b392692a27d65f007ca88378303ac" target="_top" xlink:title="Factory method to create a CustomField object from an array. ">
<polygon fill="white" stroke="black" points="172.251,-204 172.251,-236 307.749,-236 307.749,-204 172.251,-204"/>
<text text-anchor="start" x="180.251" y="-222" font-family="Helvetica,sans-Serif" font-size="10.00">Ctct\Components\Contacts</text>
<text text-anchor="middle" x="240" y="-210" font-family="Helvetica,sans-Serif" font-size="10.00">\CustomField\create</text>
</a>
</g>
</g>
<!-- Node1&#45;&gt;Node2 -->
<g id="edge1" class="edge"><title>Node1&#45;&gt;Node2</title>
<path fill="none" stroke="midnightblue" d="M87.7045,-134.197C107.589,-150.823 140.457,-176.648 172,-194 175.69,-196.03 179.571,-197.976 183.529,-199.826"/>
<polygon fill="midnightblue" stroke="midnightblue" points="182.291,-203.105 192.851,-203.961 185.129,-196.707 182.291,-203.105"/>
</g>
<!-- Node3 -->
<g id="node3" class="node"><title>Node3</title>
<g id="a_node3"><a xlink:href="class_ctct_1_1_components_1_1_contacts_1_1_note.html#a0f5c7143a592b1da1467efbeba73d715" target="_top" xlink:title="Factory method to create a Note object from an array. ">
<polygon fill="white" stroke="black" points="172.251,-153 172.251,-185 307.749,-185 307.749,-153 172.251,-153"/>
<text text-anchor="start" x="180.251" y="-171" font-family="Helvetica,sans-Serif" font-size="10.00">Ctct\Components\Contacts</text>
<text text-anchor="middle" x="240" y="-159" font-family="Helvetica,sans-Serif" font-size="10.00">\Note\create</text>
</a>
</g>
</g>
<!-- Node1&#45;&gt;Node3 -->
<g id="edge2" class="edge"><title>Node1&#45;&gt;Node3</title>
<path fill="none" stroke="midnightblue" d="M122.789,-134.137C139.54,-139.162 158.169,-144.751 175.518,-149.955"/>
<polygon fill="midnightblue" stroke="midnightblue" points="174.977,-153.447 185.561,-152.968 176.988,-146.742 174.977,-153.447"/>
</g>
<!-- Node4 -->
<g id="node4" class="node"><title>Node4</title>
<g id="a_node4"><a xlink:href="class_ctct_1_1_components_1_1_contacts_1_1_contact_list.html#a3fc8e0d47e974d0ba80d1ff92ec48d5c" target="_top" xlink:title="Factory method to create a ContactList object from an array. ">
<polygon fill="white" stroke="black" points="172.251,-102 172.251,-134 307.749,-134 307.749,-102 172.251,-102"/>
<text text-anchor="start" x="180.251" y="-120" font-family="Helvetica,sans-Serif" font-size="10.00">Ctct\Components\Contacts</text>
<text text-anchor="middle" x="240" y="-108" font-family="Helvetica,sans-Serif" font-size="10.00">\ContactList\create</text>
</a>
</g>
</g>
<!-- Node1&#45;&gt;Node4 -->
<g id="edge3" class="edge"><title>Node1&#45;&gt;Node4</title>
<path fill="none" stroke="midnightblue" d="M136.189,-118C144.66,-118 153.379,-118 161.988,-118"/>
<polygon fill="midnightblue" stroke="midnightblue" points="162.021,-121.5 172.021,-118 162.021,-114.5 162.021,-121.5"/>
</g>
<!-- Node5 -->
<g id="node5" class="node"><title>Node5</title>
<g id="a_node5"><a xlink:href="class_ctct_1_1_components_1_1_contacts_1_1_email_address.html#ad5ccee9c619500b3e61a3307c0635c89" target="_top" xlink:title="Factory method to create an EmailAddress object from an array. ">
<polygon fill="white" stroke="black" points="172.251,-51 172.251,-83 307.749,-83 307.749,-51 172.251,-51"/>
<text text-anchor="start" x="180.251" y="-69" font-family="Helvetica,sans-Serif" font-size="10.00">Ctct\Components\Contacts</text>
<text text-anchor="middle" x="240" y="-57" font-family="Helvetica,sans-Serif" font-size="10.00">\EmailAddress\create</text>
</a>
</g>
</g>
<!-- Node1&#45;&gt;Node5 -->
<g id="edge4" class="edge"><title>Node1&#45;&gt;Node5</title>
<path fill="none" stroke="midnightblue" d="M122.789,-101.863C139.54,-96.838 158.169,-91.2493 175.518,-86.0446"/>
<polygon fill="midnightblue" stroke="midnightblue" points="176.988,-89.2577 185.561,-83.0317 174.977,-82.5529 176.988,-89.2577"/>
</g>
<!-- Node6 -->
<g id="node6" class="node"><title>Node6</title>
<g id="a_node6"><a xlink:href="class_ctct_1_1_components_1_1_contacts_1_1_address.html#a0a1be46e7c7d87d63874c4d618ae3583" target="_top" xlink:title="Factory method to create an Address object from an array &#160;$props &#45; Associative array of initial prope...">
<polygon fill="white" stroke="black" points="172.251,-0 172.251,-32 307.749,-32 307.749,-0 172.251,-0"/>
<text text-anchor="start" x="180.251" y="-18" font-family="Helvetica,sans-Serif" font-size="10.00">Ctct\Components\Contacts</text>
<text text-anchor="middle" x="240" y="-6" font-family="Helvetica,sans-Serif" font-size="10.00">\Address\create</text>
</a>
</g>
</g>
<!-- Node1&#45;&gt;Node6 -->
<g id="edge5" class="edge"><title>Node1&#45;&gt;Node6</title>
<path fill="none" stroke="midnightblue" d="M87.7045,-101.803C107.589,-85.1774 140.457,-59.3523 172,-42 175.69,-39.9703 179.571,-38.0239 183.529,-36.1741"/>
<polygon fill="midnightblue" stroke="midnightblue" points="185.129,-39.2934 192.851,-32.0394 182.291,-32.8946 185.129,-39.2934"/>
</g>
</g>
</svg>
