<?xml version="1.0" encoding="UTF-8" standalone="no"?>
<!DOCTYPE svg PUBLIC "-//W3C//DTD SVG 1.1//EN"
 "http://www.w3.org/Graphics/SVG/1.1/DTD/svg11.dtd">
<!-- Generated by graphviz version 2.30.1 (20130221.2233)
 -->
<!-- Title: Net_DNS_Resolver\rawQuery Pages: 1 -->
<svg width="1448pt" height="178pt"
 viewBox="0.00 0.00 1448.00 178.00" xmlns="http://www.w3.org/2000/svg" xmlns:xlink="http://www.w3.org/1999/xlink">
<g id="graph0" class="graph" transform="scale(1 1) rotate(0) translate(4 174)">
<title>Net_DNS_Resolver\rawQuery</title>
<polygon fill="white" stroke="white" points="-4,5 -4,-174 1445,-174 1445,5 -4,5"/>
<!-- Node1 -->
<g id="node1" class="node"><title>Node1</title>
<polygon fill="#bfbfbf" stroke="black" points="0.310547,-99 0.310547,-119 149.689,-119 149.689,-99 0.310547,-99"/>
<text text-anchor="middle" x="75" y="-105" font-family="Helvetica,sans-Serif" font-size="10.00">Net_DNS_Resolver\rawQuery</text>
</g>
<!-- Node2 -->
<g id="node2" class="node"><title>Node2</title>
<g id="a_node2"><a xlink:href="class_net___d_n_s___resolver.html#aaabc96cbbb5bce627d31583d0e6af3d5" target="_top" xlink:title="Sends a packet to a nameserver. ">
<polygon fill="white" stroke="black" points="186.141,-99 186.141,-119 313.859,-119 313.859,-99 186.141,-99"/>
<text text-anchor="middle" x="250" y="-105" font-family="Helvetica,sans-Serif" font-size="10.00">Net_DNS_Resolver\send</text>
</a>
</g>
</g>
<!-- Node1&#45;&gt;Node2 -->
<g id="edge1" class="edge"><title>Node1&#45;&gt;Node2</title>
<path fill="none" stroke="midnightblue" d="M149.869,-109C158.516,-109 167.336,-109 175.971,-109"/>
<polygon fill="midnightblue" stroke="midnightblue" points="176.003,-112.5 186.003,-109 176.003,-105.5 176.003,-112.5"/>
</g>
<!-- Node3 -->
<g id="node3" class="node"><title>Node3</title>
<g id="a_node3"><a xlink:href="class_net___d_n_s___resolver.html#a6162ddba85ce36cdf7d8df7ff32161e0" target="_top" xlink:title="Unknown. ">
<polygon fill="white" stroke="black" points="359.756,-138 359.756,-170 490.244,-170 490.244,-138 359.756,-138"/>
<text text-anchor="start" x="367.756" y="-156" font-family="Helvetica,sans-Serif" font-size="10.00">Net_DNS_Resolver\make</text>
<text text-anchor="middle" x="425" y="-144" font-family="Helvetica,sans-Serif" font-size="10.00">_query_packet</text>
</a>
</g>
</g>
<!-- Node2&#45;&gt;Node3 -->
<g id="edge2" class="edge"><title>Node2&#45;&gt;Node3</title>
<path fill="none" stroke="midnightblue" d="M289.825,-119.099C308.312,-123.908 331.025,-129.816 352.472,-135.394"/>
<polygon fill="midnightblue" stroke="midnightblue" points="351.658,-138.799 362.217,-137.929 353.42,-132.024 351.658,-138.799"/>
</g>
<!-- Node4 -->
<g id="node4" class="node"><title>Node4</title>
<g id="a_node4"><a xlink:href="class_net___d_n_s___resolver.html#a5ff32917a5f06e5eba819c0fb4e7196a" target="_top" xlink:title="Sends a packet via TCP to the list of name servers. ">
<polygon fill="white" stroke="black" points="536.69,-102 536.69,-122 683.31,-122 683.31,-102 536.69,-102"/>
<text text-anchor="middle" x="610" y="-108" font-family="Helvetica,sans-Serif" font-size="10.00">Net_DNS_Resolver\send_tcp</text>
</a>
</g>
</g>
<!-- Node2&#45;&gt;Node4 -->
<g id="edge3" class="edge"><title>Node2&#45;&gt;Node4</title>
<path fill="none" stroke="midnightblue" d="M314.179,-109.529C373.246,-110.024 461.8,-110.766 526.437,-111.308"/>
<polygon fill="midnightblue" stroke="midnightblue" points="526.568,-114.809 536.597,-111.393 526.627,-107.81 526.568,-114.809"/>
</g>
<!-- Node11 -->
<g id="node11" class="node"><title>Node11</title>
<g id="a_node11"><a xlink:href="class_net___d_n_s___resolver.html#a77e292f0bf9e3cadf36d26b76b02a733" target="_top" xlink:title="Sends a packet via UDP to the list of name servers. ">
<polygon fill="white" stroke="black" points="350.018,-57 350.018,-77 499.982,-77 499.982,-57 350.018,-57"/>
<text text-anchor="middle" x="425" y="-63" font-family="Helvetica,sans-Serif" font-size="10.00">Net_DNS_Resolver\send_udp</text>
</a>
</g>
</g>
<!-- Node2&#45;&gt;Node11 -->
<g id="edge12" class="edge"><title>Node2&#45;&gt;Node11</title>
<path fill="none" stroke="midnightblue" d="M292.438,-98.94C316.529,-93.0911 347.091,-85.6715 372.694,-79.4558"/>
<polygon fill="midnightblue" stroke="midnightblue" points="373.709,-82.8112 382.601,-77.0507 372.057,-76.0087 373.709,-82.8112"/>
</g>
<!-- Node5 -->
<g id="node5" class="node"><title>Node5</title>
<g id="a_node5"><a xlink:href="class_net___d_n_s___resolver.html#a3bf22a7a58480dd7a6fd0dd17807fc70" target="_top" xlink:title="Gets or sets the nameservers to be queried. ">
<polygon fill="white" stroke="black" points="720.084,-57 720.084,-77 883.916,-77 883.916,-57 720.084,-57"/>
<text text-anchor="middle" x="802" y="-63" font-family="Helvetica,sans-Serif" font-size="10.00">Net_DNS_Resolver\nameservers</text>
</a>
</g>
</g>
<!-- Node4&#45;&gt;Node5 -->
<g id="edge4" class="edge"><title>Node4&#45;&gt;Node5</title>
<path fill="none" stroke="midnightblue" d="M653.64,-101.901C681.753,-95.2427 718.763,-86.4771 748.66,-79.3964"/>
<polygon fill="midnightblue" stroke="midnightblue" points="749.578,-82.7757 758.503,-77.0652 747.965,-75.9641 749.578,-82.7757"/>
</g>
<!-- Node6 -->
<g id="node6" class="node"><title>Node6</title>
<g id="a_node6"><a xlink:href="class_net___d_n_s___resolver.html#ae1bb14089519fe774d025156114aae4f" target="_top" xlink:title="Net_DNS_Resolver\\cname_addr">
<polygon fill="white" stroke="black" points="920.188,-119 920.188,-139 1081.81,-139 1081.81,-119 920.188,-119"/>
<text text-anchor="middle" x="1001" y="-125" font-family="Helvetica,sans-Serif" font-size="10.00">Net_DNS_Resolver\cname_addr</text>
</a>
</g>
</g>
<!-- Node5&#45;&gt;Node6 -->
<g id="edge5" class="edge"><title>Node5&#45;&gt;Node6</title>
<path fill="none" stroke="midnightblue" d="M834.772,-77.0797C858.299,-84.5358 891.141,-94.9276 920,-104 932.377,-107.891 945.838,-112.104 958.125,-115.943"/>
<polygon fill="midnightblue" stroke="midnightblue" points="957.096,-119.289 967.684,-118.929 959.182,-112.607 957.096,-119.289"/>
</g>
<!-- Node7 -->
<g id="node7" class="node"><title>Node7</title>
<g id="a_node7"><a xlink:href="class_net___d_n_s___resolver.html#a4358663ec326e406c398f6cb09bd5544" target="_top" xlink:title="Initializes the Resolver Object. ">
<polygon fill="white" stroke="black" points="940.202,-29 940.202,-61 1061.8,-61 1061.8,-29 940.202,-29"/>
<text text-anchor="start" x="948.202" y="-47" font-family="Helvetica,sans-Serif" font-size="10.00">Net_DNS_Resolver\Net</text>
<text text-anchor="middle" x="1001" y="-35" font-family="Helvetica,sans-Serif" font-size="10.00">_DNS_Resolver</text>
</a>
</g>
</g>
<!-- Node5&#45;&gt;Node7 -->
<g id="edge6" class="edge"><title>Node5&#45;&gt;Node7</title>
<path fill="none" stroke="midnightblue" d="M883.98,-57.9565C899.242,-56.2521 915.084,-54.483 929.976,-52.82"/>
<polygon fill="midnightblue" stroke="midnightblue" points="930.565,-56.276 940.115,-51.6877 929.788,-49.3193 930.565,-56.276"/>
</g>
<!-- Node8 -->
<g id="node8" class="node"><title>Node8</title>
<g id="a_node8"><a xlink:href="class_net___d_n_s___resolver.html#aa2e8d58074354b1f9292500119470431" target="_top" xlink:title="Initalizes the resolver library. ">
<polygon fill="white" stroke="black" points="1117.86,-35 1117.86,-55 1256.14,-55 1256.14,-35 1117.86,-35"/>
<text text-anchor="middle" x="1187" y="-41" font-family="Helvetica,sans-Serif" font-size="10.00">Net_DNS_Resolver\res_init</text>
</a>
</g>
</g>
<!-- Node7&#45;&gt;Node8 -->
<g id="edge7" class="edge"><title>Node7&#45;&gt;Node8</title>
<path fill="none" stroke="midnightblue" d="M1061.99,-45C1076.48,-45 1092.17,-45 1107.37,-45"/>
<polygon fill="midnightblue" stroke="midnightblue" points="1107.79,-48.5001 1117.79,-45 1107.79,-41.5001 1107.79,-48.5001"/>
</g>
<!-- Node9 -->
<g id="node9" class="node"><title>Node9</title>
<g id="a_node9"><a xlink:href="class_net___d_n_s___resolver.html#ae4def11574ad6e93176670c726541bed" target="_top" xlink:title="Reads and parses a resolver configuration file. ">
<polygon fill="white" stroke="black" points="1302.98,-62 1302.98,-94 1429.02,-94 1429.02,-62 1302.98,-62"/>
<text text-anchor="start" x="1310.98" y="-80" font-family="Helvetica,sans-Serif" font-size="10.00">Net_DNS_Resolver\read</text>
<text text-anchor="middle" x="1366" y="-68" font-family="Helvetica,sans-Serif" font-size="10.00">_config</text>
</a>
</g>
</g>
<!-- Node8&#45;&gt;Node9 -->
<g id="edge8" class="edge"><title>Node8&#45;&gt;Node9</title>
<path fill="none" stroke="midnightblue" d="M1242.07,-55.0804C1258.13,-58.0751 1275.98,-61.404 1293,-64.5757"/>
<polygon fill="midnightblue" stroke="midnightblue" points="1292.42,-68.0291 1302.9,-66.4213 1293.71,-61.1476 1292.42,-68.0291"/>
</g>
<!-- Node10 -->
<g id="node10" class="node"><title>Node10</title>
<g id="a_node10"><a xlink:href="class_net___d_n_s___resolver.html#a2a3d25c5dd2b1810b60ad05b84787855" target="_top" xlink:title="Examines the environment for resolver config information. ">
<polygon fill="white" stroke="black" points="1292.13,-12 1292.13,-32 1439.87,-32 1439.87,-12 1292.13,-12"/>
<text text-anchor="middle" x="1366" y="-18" font-family="Helvetica,sans-Serif" font-size="10.00">Net_DNS_Resolver\read_env</text>
</a>
</g>
</g>
<!-- Node8&#45;&gt;Node10 -->
<g id="edge10" class="edge"><title>Node8&#45;&gt;Node10</title>
<path fill="none" stroke="midnightblue" d="M1256.18,-36.1405C1264.58,-35.049 1273.24,-33.924 1281.83,-32.8077"/>
<polygon fill="midnightblue" stroke="midnightblue" points="1282.4,-36.2634 1291.86,-31.5039 1281.49,-29.3217 1282.4,-36.2634"/>
</g>
<!-- Node9&#45;&gt;Node5 -->
<g id="edge9" class="edge"><title>Node9&#45;&gt;Node5</title>
<path fill="none" stroke="midnightblue" d="M1302.72,-77.0308C1216.67,-75.6572 1056.54,-72.9778 920,-70 911.677,-69.8185 903.022,-69.6182 894.354,-69.4099"/>
<polygon fill="midnightblue" stroke="midnightblue" points="894.274,-65.907 884.191,-69.1623 894.103,-72.9049 894.274,-65.907"/>
</g>
<!-- Node10&#45;&gt;Node5 -->
<g id="edge11" class="edge"><title>Node10&#45;&gt;Node5</title>
<path fill="none" stroke="midnightblue" d="M1292.1,-12.6518C1203.27,-3.28228 1049.05,6.44259 920,-19 887.958,-25.3172 853.65,-40.4991 830.528,-52.1111"/>
<polygon fill="midnightblue" stroke="midnightblue" points="828.636,-49.1482 821.342,-56.8329 831.836,-55.3739 828.636,-49.1482"/>
</g>
<!-- Node12 -->
<g id="node12" class="node"><title>Node12</title>
<g id="a_node12"><a xlink:href="class_net___d_n_s___resolver.html#a6f7a0d5aaecc4824d9e59c9eb2597a62" target="_top" xlink:title="Sends a packet via UDP to the list of name servers. ">
<polygon fill="white" stroke="black" points="546.141,-0 546.141,-32 673.859,-32 673.859,-0 546.141,-0"/>
<text text-anchor="start" x="554.141" y="-18" font-family="Helvetica,sans-Serif" font-size="10.00">Net_DNS_Resolver\send</text>
<text text-anchor="middle" x="610" y="-6" font-family="Helvetica,sans-Serif" font-size="10.00">_udp_with_sock_lib</text>
</a>
</g>
</g>
<!-- Node11&#45;&gt;Node12 -->
<g id="edge13" class="edge"><title>Node11&#45;&gt;Node12</title>
<path fill="none" stroke="midnightblue" d="M462.155,-56.924C484.791,-50.6156 514.666,-42.2899 541.556,-34.7958"/>
<polygon fill="midnightblue" stroke="midnightblue" points="542.616,-38.1338 551.31,-32.0777 540.737,-31.3908 542.616,-38.1338"/>
</g>
<!-- Node13 -->
<g id="node13" class="node"><title>Node13</title>
<g id="a_node13"><a xlink:href="class_net___d_n_s___resolver.html#a31d4b4651960d0fb08aa07990d21ce39" target="_top" xlink:title="Sends a packet via UDP to the list of name servers. ">
<polygon fill="white" stroke="black" points="546.141,-51 546.141,-83 673.859,-83 673.859,-51 546.141,-51"/>
<text text-anchor="start" x="554.141" y="-69" font-family="Helvetica,sans-Serif" font-size="10.00">Net_DNS_Resolver\send</text>
<text text-anchor="middle" x="610" y="-57" font-family="Helvetica,sans-Serif" font-size="10.00">_udp_no_sock_lib</text>
</a>
</g>
</g>
<!-- Node11&#45;&gt;Node13 -->
<g id="edge15" class="edge"><title>Node11&#45;&gt;Node13</title>
<path fill="none" stroke="midnightblue" d="M500.169,-67C511.894,-67 524.012,-67 535.716,-67"/>
<polygon fill="midnightblue" stroke="midnightblue" points="535.874,-70.5001 545.874,-67 535.874,-63.5001 535.874,-70.5001"/>
</g>
<!-- Node12&#45;&gt;Node5 -->
<g id="edge14" class="edge"><title>Node12&#45;&gt;Node5</title>
<path fill="none" stroke="midnightblue" d="M670.856,-32.0667C697.53,-39.2264 728.506,-47.541 753.544,-54.2619"/>
<polygon fill="midnightblue" stroke="midnightblue" points="752.964,-57.7298 763.529,-56.942 754.778,-50.9691 752.964,-57.7298"/>
</g>
<!-- Node13&#45;&gt;Node5 -->
<g id="edge16" class="edge"><title>Node13&#45;&gt;Node5</title>
<path fill="none" stroke="midnightblue" d="M674.003,-67C685.481,-67 697.663,-67 709.765,-67"/>
<polygon fill="midnightblue" stroke="midnightblue" points="709.893,-70.5001 719.893,-67 709.893,-63.5001 709.893,-70.5001"/>
</g>
</g>
</svg>
