<?xml version="1.0" encoding="UTF-8" standalone="no"?>
<!DOCTYPE svg PUBLIC "-//W3C//DTD SVG 1.1//EN"
 "http://www.w3.org/Graphics/SVG/1.1/DTD/svg11.dtd">
<!-- Generated by graphviz version 2.30.1 (20130221.2233)
 -->
<!-- Title: CTCT_Admin_Table\get_html Pages: 1 -->
<svg width="312pt" height="91pt"
 viewBox="0.00 0.00 312.00 91.00" xmlns="http://www.w3.org/2000/svg" xmlns:xlink="http://www.w3.org/1999/xlink">
<g id="graph0" class="graph" transform="scale(1 1) rotate(0) translate(4 87)">
<title>CTCT_Admin_Table\get_html</title>
<polygon fill="white" stroke="white" points="-4,5 -4,-87 309,-87 309,5 -4,5"/>
<!-- Node1 -->
<g id="node1" class="node"><title>Node1</title>
<polygon fill="#bfbfbf" stroke="black" points="0.416504,-31 0.416504,-51 147.583,-51 147.583,-31 0.416504,-31"/>
<text text-anchor="middle" x="74" y="-37" font-family="Helvetica,sans-Serif" font-size="10.00">CTCT_Admin_Table\get_html</text>
</g>
<!-- Node2 -->
<g id="node2" class="node"><title>Node2</title>
<g id="a_node2"><a xlink:href="class_c_t_c_t___admin___table.html#a61a715d446b1cd95d79a20766c91df6b" target="_top" xlink:title="Prevent escaping of the table cells. ">
<polygon fill="white" stroke="black" points="184.032,-51 184.032,-83 303.968,-83 303.968,-51 184.032,-51"/>
<text text-anchor="start" x="192.032" y="-69" font-family="Helvetica,sans-Serif" font-size="10.00">CTCT_Admin_Table\do</text>
<text text-anchor="middle" x="244" y="-57" font-family="Helvetica,sans-Serif" font-size="10.00">_not_esc_td</text>
</a>
</g>
</g>
<!-- Node1&#45;&gt;Node2 -->
<g id="edge1" class="edge"><title>Node1&#45;&gt;Node2</title>
<path fill="none" stroke="midnightblue" d="M139.953,-51.0523C151.052,-52.77 162.619,-54.5601 173.823,-56.2941"/>
<polygon fill="midnightblue" stroke="midnightblue" points="173.569,-59.7963 183.986,-57.8669 174.639,-52.8786 173.569,-59.7963"/>
</g>
<!-- Node3 -->
<g id="node3" class="node"><title>Node3</title>
<g id="a_node3"><a xlink:href="class_c_t_c_t___admin___table.html#a32aa63a41a5015015911ab676eba6136" target="_top" xlink:title="Prevent escaping of the table headings. ">
<polygon fill="white" stroke="black" points="184.032,-0 184.032,-32 303.968,-32 303.968,-0 184.032,-0"/>
<text text-anchor="start" x="192.032" y="-18" font-family="Helvetica,sans-Serif" font-size="10.00">CTCT_Admin_Table\do</text>
<text text-anchor="middle" x="244" y="-6" font-family="Helvetica,sans-Serif" font-size="10.00">_not_esc_th</text>
</a>
</g>
</g>
<!-- Node1&#45;&gt;Node3 -->
<g id="edge2" class="edge"><title>Node1&#45;&gt;Node3</title>
<path fill="none" stroke="midnightblue" d="M142.364,-30.9756C152.81,-29.4211 163.613,-27.8135 174.093,-26.254"/>
<polygon fill="midnightblue" stroke="midnightblue" points="174.643,-29.7108 184.019,-24.777 173.612,-22.7871 174.643,-29.7108"/>
</g>
</g>
</svg>
