<?xml version="1.0" encoding="UTF-8" standalone="no"?>
<!DOCTYPE svg PUBLIC "-//W3C//DTD SVG 1.1//EN"
 "http://www.w3.org/Graphics/SVG/1.1/DTD/svg11.dtd">
<!-- Generated by graphviz version 2.30.1 (20130221.2233)
 -->
<!-- Title: Ctct\Components\Account\VerifiedEmailAddress\create Pages: 1 -->
<svg width="324pt" height="52pt"
 viewBox="0.00 0.00 324.00 52.00" xmlns="http://www.w3.org/2000/svg" xmlns:xlink="http://www.w3.org/1999/xlink">
<g id="graph0" class="graph" transform="scale(1 1) rotate(0) translate(4 48)">
<title>Ctct\Components\Account\VerifiedEmailAddress\create</title>
<polygon fill="white" stroke="white" points="-4,5 -4,-48 321,-48 321,5 -4,5"/>
<!-- Node1 -->
<g id="node1" class="node"><title>Node1</title>
<polygon fill="#bfbfbf" stroke="black" points="-0.0834961,-0 -0.0834961,-44 132.083,-44 132.083,-0 -0.0834961,-0"/>
<text text-anchor="start" x="7.9165" y="-30" font-family="Helvetica,sans-Serif" font-size="10.00">Ctct\Components\Account</text>
<text text-anchor="start" x="7.9165" y="-18" font-family="Helvetica,sans-Serif" font-size="10.00">\VerifiedEmailAddress</text>
<text text-anchor="middle" x="66" y="-6" font-family="Helvetica,sans-Serif" font-size="10.00">\create</text>
</g>
<!-- Node2 -->
<g id="node2" class="node"><title>Node2</title>
<g id="a_node2"><a xlink:href="class_ctct_1_1_services_1_1_account_service.html#a0db5ed8bcca68b2e75ee7e87d9be3068" target="_top" xlink:title="Get all verified email addresses associated with an account. ">
<polygon fill="white" stroke="black" points="168.421,-6 168.421,-38 315.579,-38 315.579,-6 168.421,-6"/>
<text text-anchor="start" x="176.421" y="-24" font-family="Helvetica,sans-Serif" font-size="10.00">Ctct\Services\AccountService</text>
<text text-anchor="middle" x="242" y="-12" font-family="Helvetica,sans-Serif" font-size="10.00">\getVerifiedEmailAddresses</text>
</a>
</g>
</g>
<!-- Node1&#45;&gt;Node2 -->
<g id="edge1" class="edge"><title>Node1&#45;&gt;Node2</title>
<path fill="none" stroke="midnightblue" d="M142.326,-22C150.958,-22 159.745,-22 168.34,-22"/>
<polygon fill="midnightblue" stroke="midnightblue" points="142.286,-18.5001 132.286,-22 142.286,-25.5001 142.286,-18.5001"/>
</g>
</g>
</svg>
