<?xml version="1.0" encoding="UTF-8" standalone="no"?>
<!DOCTYPE svg PUBLIC "-//W3C//DTD SVG 1.1//EN"
 "http://www.w3.org/Graphics/SVG/1.1/DTD/svg11.dtd">
<!-- Generated by graphviz version 2.30.1 (20130221.2233)
 -->
<!-- Title: OAuthUtil\urlencode_rfc3986 Pages: 1 -->
<!--zoomable 265 -->
<svg id="main" version="1.1" xmlns="http://www.w3.org/2000/svg" xmlns:xlink="http://www.w3.org/1999/xlink" xml:space="preserve" onload="init(evt)">
<style type="text/css"><![CDATA[
.edge:hover path { stroke: red; }
.edge:hover polygon { stroke: red; fill: red; }
]]></style>
<script type="text/javascript"><![CDATA[
var edges = document.getElementsByTagName('g');
if (edges && edges.length) {
  for (var i=0;i<edges.length;i++) {
    if (edges[i].id.substr(0,4)=='edge') {
      edges[i].setAttribute('class','edge');
    }
  }
}
]]></script>
        <defs>
                <circle id="rim" cx="0" cy="0" r="7"/>
                <circle id="rim2" cx="0" cy="0" r="3.5"/>
                <g id="zoomPlus">
                        <use xlink:href="#rim" fill="#404040">
                                <set attributeName="fill" to="#808080" begin="zoomplus.mouseover" end="zoomplus.mouseout"/>
                        </use>
                        <path d="M-4,0h8M0,-4v8" fill="none" stroke="white" stroke-width="1.5" pointer-events="none"/>
                </g>
                <g id="zoomMin">
                        <use xlink:href="#rim" fill="#404040">
                                <set attributeName="fill" to="#808080" begin="zoomminus.mouseover" end="zoomminus.mouseout"/>
                        </use>
                        <path d="M-4,0h8" fill="none" stroke="white" stroke-width="1.5" pointer-events="none"/>
                </g>
                <g id="dirArrow">
                        <path fill="none" stroke="white" stroke-width="1.5" d="M0,-3.0v7 M-2.5,-0.5L0,-3.0L2.5,-0.5"/>
                </g>
               <g id="resetDef">
                       <use xlink:href="#rim2" fill="#404040">
                               <set attributeName="fill" to="#808080" begin="reset.mouseover" end="reset.mouseout"/>
                       </use>
               </g>
        </defs>

<script type="text/javascript">
var viewWidth = 830;
var viewHeight = 265;
var sectionId = 'dynsection-8';
</script>
<script xlink:href="svgpan.js"/>
<svg id="graph" class="graph">
<g id="viewport">
<title>OAuthUtil\urlencode_rfc3986</title>
<polygon fill="white" stroke="white" points="-4,5 -4,-260.63 827,-260.63 827,5 -4,5"/>
<!-- Node1 -->
<g id="node1" class="node"><title>Node1</title>
<polygon fill="#bfbfbf" stroke="black" points="0.253906,-103 0.253906,-135 105.746,-135 105.746,-103 0.253906,-103"/>
<text text-anchor="start" x="8.25391" y="-121" font-family="Helvetica,sans-Serif" font-size="10.00">OAuthUtil\urlencode</text>
<text text-anchor="middle" x="53" y="-109" font-family="Helvetica,sans-Serif" font-size="10.00">_rfc3986</text>
</g>
<!-- Node2 -->
<g id="node2" class="node"><title>Node2</title>
<g id="a_node2"><a xlink:href="class_o_auth_util.html#afa225b04225a3b8abe804ee294e0d631" target="_top" xlink:title="OAuthUtil\\build_http\l_query">
<polygon fill="white" stroke="black" points="166.53,-180 166.53,-212 271.47,-212 271.47,-180 166.53,-180"/>
<text text-anchor="start" x="174.53" y="-198" font-family="Helvetica,sans-Serif" font-size="10.00">OAuthUtil\build_http</text>
<text text-anchor="middle" x="219" y="-186" font-family="Helvetica,sans-Serif" font-size="10.00">_query</text>
</a>
</g>
</g>
<!-- Node1&#45;&gt;Node2 -->
<g id="edge1" class="edge"><title>Node1&#45;&gt;Node2</title>
<path fill="none" stroke="midnightblue" d="M87.2628,-140.346C103.394,-150.156 123.289,-161.477 142,-170 149.741,-173.526 158.108,-176.848 166.364,-179.863"/>
<polygon fill="midnightblue" stroke="midnightblue" points="89.0687,-137.348 78.7196,-135.079 85.395,-143.307 89.0687,-137.348"/>
</g>
<!-- Node8 -->
<g id="node8" class="node"><title>Node8</title>
<g id="a_node8"><a xlink:href="class_o_auth_signature_method___h_m_a_c___s_h_a1.html#af4e104e38386fe62667d09e369f1c59e" target="_top" xlink:title="OAuthSignatureMethod\l_HMAC_SHA1\\build_signature">
<polygon fill="white" stroke="black" points="142.353,-129 142.353,-161 295.647,-161 295.647,-129 142.353,-129"/>
<text text-anchor="start" x="150.353" y="-147" font-family="Helvetica,sans-Serif" font-size="10.00">OAuthSignatureMethod</text>
<text text-anchor="middle" x="219" y="-135" font-family="Helvetica,sans-Serif" font-size="10.00">_HMAC_SHA1\build_signature</text>
</a>
</g>
</g>
<!-- Node1&#45;&gt;Node8 -->
<g id="edge7" class="edge"><title>Node1&#45;&gt;Node8</title>
<path fill="none" stroke="midnightblue" d="M115.824,-128.801C124.431,-130.166 133.354,-131.581 142.181,-132.98"/>
<polygon fill="midnightblue" stroke="midnightblue" points="116.315,-125.336 105.891,-127.227 115.219,-132.249 116.315,-125.336"/>
</g>
<!-- Node9 -->
<g id="node9" class="node"><title>Node9</title>
<g id="a_node9"><a xlink:href="class_o_auth_signature_method___p_l_a_i_n_t_e_x_t.html#a148885d3e3af2c4db45dcd1ff117933a" target="_top" xlink:title="oauth_signature is set to the concatenated encoded values of the Consumer Secret and Token Secret...">
<polygon fill="white" stroke="black" points="145.688,-78 145.688,-110 292.312,-110 292.312,-78 145.688,-78"/>
<text text-anchor="start" x="153.688" y="-96" font-family="Helvetica,sans-Serif" font-size="10.00">OAuthSignatureMethod</text>
<text text-anchor="middle" x="219" y="-84" font-family="Helvetica,sans-Serif" font-size="10.00">_PLAINTEXT\build_signature</text>
</a>
</g>
</g>
<!-- Node1&#45;&gt;Node9 -->
<g id="edge8" class="edge"><title>Node1&#45;&gt;Node9</title>
<path fill="none" stroke="midnightblue" d="M115.811,-109.578C125.492,-108.102 135.575,-106.565 145.47,-105.056"/>
<polygon fill="midnightblue" stroke="midnightblue" points="115.249,-106.123 105.891,-111.09 116.304,-113.043 115.249,-106.123"/>
</g>
<!-- Node4 -->
<g id="node4" class="node"><title>Node4</title>
<g id="a_node4"><a xlink:href="class_o_auth_request.html#a91adca76e918ade136d9c56a46695e46" target="_top" xlink:title="Returns the base string of this request. ">
<polygon fill="white" stroke="black" points="510.513,-202 510.513,-234 655.487,-234 655.487,-202 510.513,-202"/>
<text text-anchor="start" x="518.513" y="-220" font-family="Helvetica,sans-Serif" font-size="10.00">OAuthRequest\get_signature</text>
<text text-anchor="middle" x="583" y="-208" font-family="Helvetica,sans-Serif" font-size="10.00">_base_string</text>
</a>
</g>
</g>
<!-- Node1&#45;&gt;Node4 -->
<g id="edge9" class="edge"><title>Node1&#45;&gt;Node4</title>
<path fill="none" stroke="midnightblue" d="M67.1141,-144.06C81.6617,-168.847 107.684,-205.284 142,-221 266.495,-278.017 432.369,-253.717 520.638,-234.022"/>
<polygon fill="midnightblue" stroke="midnightblue" points="70.0735,-142.183 62.107,-135.198 63.979,-145.626 70.0735,-142.183"/>
</g>
<!-- Node10 -->
<g id="node10" class="node"><title>Node10</title>
<g id="a_node10"><a xlink:href="class_o_auth_request.html#ab976fb189b6aa45bf087fc461c0b2b05" target="_top" xlink:title="builds the Authorization: header ">
<polygon fill="white" stroke="black" points="154.293,-39 154.293,-59 283.707,-59 283.707,-39 154.293,-39"/>
<text text-anchor="middle" x="219" y="-45" font-family="Helvetica,sans-Serif" font-size="10.00">OAuthRequest\to_header</text>
</a>
</g>
</g>
<!-- Node1&#45;&gt;Node10 -->
<g id="edge10" class="edge"><title>Node1&#45;&gt;Node10</title>
<path fill="none" stroke="midnightblue" d="M86.2603,-97.3735C102.441,-87.2989 122.669,-75.8358 142,-68 150.571,-64.5257 159.951,-61.5566 169.105,-59.0694"/>
<polygon fill="midnightblue" stroke="midnightblue" points="84.2853,-94.4815 77.7185,-102.796 88.0369,-100.391 84.2853,-94.4815"/>
</g>
<!-- Node11 -->
<g id="node11" class="node"><title>Node11</title>
<g id="a_node11"><a xlink:href="class_o_auth_token.html#a9c72a49fb3c6e0b018e6f318571b5ff0" target="_top" xlink:title="generates the basic string serialization of a token that a server would respond to request_token and ...">
<polygon fill="white" stroke="black" points="162.917,-0 162.917,-20 275.083,-20 275.083,-0 162.917,-0"/>
<text text-anchor="middle" x="219" y="-6" font-family="Helvetica,sans-Serif" font-size="10.00">OAuthToken\to_string</text>
</a>
</g>
</g>
<!-- Node1&#45;&gt;Node11 -->
<g id="edge11" class="edge"><title>Node1&#45;&gt;Node11</title>
<path fill="none" stroke="midnightblue" d="M71.4883,-94.7117C87.5492,-74.1765 113.178,-45.5334 142,-29 148.371,-25.3456 155.435,-22.3876 162.617,-19.9946"/>
<polygon fill="midnightblue" stroke="midnightblue" points="68.6895,-92.61 65.4113,-102.685 74.2568,-96.8533 68.6895,-92.61"/>
</g>
<!-- Node3 -->
<g id="node3" class="node"><title>Node3</title>
<g id="a_node3"><a xlink:href="class_o_auth_request.html#a6b65d39d0b253e04133756b3540d763f" target="_top" xlink:title="The request parameters, sorted and concatenated into a normalized string. ">
<polygon fill="white" stroke="black" points="332.456,-180 332.456,-212 473.544,-212 473.544,-180 332.456,-180"/>
<text text-anchor="start" x="340.456" y="-198" font-family="Helvetica,sans-Serif" font-size="10.00">OAuthRequest\get_signable</text>
<text text-anchor="middle" x="403" y="-186" font-family="Helvetica,sans-Serif" font-size="10.00">_parameters</text>
</a>
</g>
</g>
<!-- Node2&#45;&gt;Node3 -->
<g id="edge2" class="edge"><title>Node2&#45;&gt;Node3</title>
<path fill="none" stroke="midnightblue" d="M282.052,-196C298.19,-196 315.683,-196 332.191,-196"/>
<polygon fill="midnightblue" stroke="midnightblue" points="281.667,-192.5 271.667,-196 281.667,-199.5 281.667,-192.5"/>
</g>
<!-- Node5 -->
<g id="node5" class="node"><title>Node5</title>
<g id="a_node5"><a xlink:href="class_o_auth_request.html#a45591cde97f0abdd0f8e985db3bf463c" target="_top" xlink:title="builds the data one would send in a POST request ">
<polygon fill="white" stroke="black" points="334.68,-141 334.68,-161 471.32,-161 471.32,-141 334.68,-141"/>
<text text-anchor="middle" x="403" y="-147" font-family="Helvetica,sans-Serif" font-size="10.00">OAuthRequest\to_postdata</text>
</a>
</g>
</g>
<!-- Node2&#45;&gt;Node5 -->
<g id="edge4" class="edge"><title>Node2&#45;&gt;Node5</title>
<path fill="none" stroke="midnightblue" d="M281.569,-180.777C307.934,-174.258 337.993,-166.826 361.485,-161.018"/>
<polygon fill="midnightblue" stroke="midnightblue" points="280.535,-177.427 271.667,-183.225 282.215,-184.223 280.535,-177.427"/>
</g>
<!-- Node3&#45;&gt;Node4 -->
<g id="edge3" class="edge"><title>Node3&#45;&gt;Node4</title>
<path fill="none" stroke="midnightblue" d="M483.596,-205.838C492.529,-206.942 501.589,-208.062 510.412,-209.152"/>
<polygon fill="midnightblue" stroke="midnightblue" points="483.938,-202.353 473.584,-204.6 483.079,-209.301 483.938,-202.353"/>
</g>
<!-- Node6 -->
<g id="node6" class="node"><title>Node6</title>
<g id="a_node6"><a xlink:href="class_o_auth_request.html#a4d27097917ad20e1958f1034eaa1702f" target="_top" xlink:title="builds a url usable for a GET request ">
<polygon fill="white" stroke="black" points="528.306,-141 528.306,-161 637.694,-161 637.694,-141 528.306,-141"/>
<text text-anchor="middle" x="583" y="-147" font-family="Helvetica,sans-Serif" font-size="10.00">OAuthRequest\to_url</text>
</a>
</g>
</g>
<!-- Node5&#45;&gt;Node6 -->
<g id="edge5" class="edge"><title>Node5&#45;&gt;Node6</title>
<path fill="none" stroke="midnightblue" d="M481.73,-151C497.36,-151 513.461,-151 528.063,-151"/>
<polygon fill="midnightblue" stroke="midnightblue" points="481.548,-147.5 471.548,-151 481.548,-154.5 481.548,-147.5"/>
</g>
<!-- Node7 -->
<g id="node7" class="node"><title>Node7</title>
<g id="a_node7"><a xlink:href="class_o_auth_request.html#a28fea7b75af1500bad2d35f88e77c0dd" target="_top" xlink:title="OAuthRequest\\__toString">
<polygon fill="white" stroke="black" points="692.02,-141 692.02,-161 821.98,-161 821.98,-141 692.02,-141"/>
<text text-anchor="middle" x="757" y="-147" font-family="Helvetica,sans-Serif" font-size="10.00">OAuthRequest\__toString</text>
</a>
</g>
</g>
<!-- Node6&#45;&gt;Node7 -->
<g id="edge6" class="edge"><title>Node6&#45;&gt;Node7</title>
<path fill="none" stroke="midnightblue" d="M648.196,-151C662.512,-151 677.69,-151 691.997,-151"/>
<polygon fill="midnightblue" stroke="midnightblue" points="647.95,-147.5 637.95,-151 647.95,-154.5 647.95,-147.5"/>
</g>
<!-- Node12 -->
<g id="node12" class="node"><title>Node12</title>
<g id="a_node12"><a xlink:href="class_o_auth_token.html#ac520ac40ac7ba6f96ab080a7d2d928b5" target="_top" xlink:title="OAuthToken\\__toString">
<polygon fill="white" stroke="black" points="343.301,-0 343.301,-20 462.699,-20 462.699,-0 343.301,-0"/>
<text text-anchor="middle" x="403" y="-6" font-family="Helvetica,sans-Serif" font-size="10.00">OAuthToken\__toString</text>
</a>
</g>
</g>
<!-- Node11&#45;&gt;Node12 -->
<g id="edge12" class="edge"><title>Node11&#45;&gt;Node12</title>
<path fill="none" stroke="midnightblue" d="M285.151,-10C304.128,-10 324.739,-10 343.293,-10"/>
<polygon fill="midnightblue" stroke="midnightblue" points="285.1,-6.5001 275.1,-10 285.1,-13.5001 285.1,-6.5001"/>
</g>
</g>
</svg>
        <g id="navigator" transform="translate(0 0)" fill="#404254">
                <rect fill="#f2f5e9" fill-opacity="0.5" stroke="#606060" stroke-width=".5" x="0" y="0" width="60" height="60"/>
                <use id="zoomplus" xlink:href="#zoomPlus" x="17" y="9" onmousedown="handleZoom(evt,'in')"/>
                <use id="zoomminus" xlink:href="#zoomMin" x="42" y="9" onmousedown="handleZoom(evt,'out')"/>
                <use id="reset" xlink:href="#resetDef" x="30" y="36" onmousedown="handleReset()"/>
                <g id="arrowUp" xlink:href="#dirArrow" transform="translate(30 24)" onmousedown="handlePan(0,-1)">
                  <use xlink:href="#rim" fill="#404040">
                        <set attributeName="fill" to="#808080" begin="arrowUp.mouseover" end="arrowUp.mouseout"/>
                  </use>
                  <path fill="none" stroke="white" stroke-width="1.5" d="M0,-3.0v7 M-2.5,-0.5L0,-3.0L2.5,-0.5"/>
                </g>
                <g id="arrowRight" xlink:href="#dirArrow" transform="rotate(90) translate(36 -43)" onmousedown="handlePan(1,0)">
                  <use xlink:href="#rim" fill="#404040">
                        <set attributeName="fill" to="#808080" begin="arrowRight.mouseover" end="arrowRight.mouseout"/>
                  </use>
                  <path fill="none" stroke="white" stroke-width="1.5" d="M0,-3.0v7 M-2.5,-0.5L0,-3.0L2.5,-0.5"/>
                </g>
                <g id="arrowDown" xlink:href="#dirArrow" transform="rotate(180) translate(-30 -48)" onmousedown="handlePan(0,1)">
                  <use xlink:href="#rim" fill="#404040">
                        <set attributeName="fill" to="#808080" begin="arrowDown.mouseover" end="arrowDown.mouseout"/>
                  </use>
                  <path fill="none" stroke="white" stroke-width="1.5" d="M0,-3.0v7 M-2.5,-0.5L0,-3.0L2.5,-0.5"/>
                </g>
                <g id="arrowLeft" xlink:href="#dirArrow" transform="rotate(270) translate(-36 17)" onmousedown="handlePan(-1,0)">
                  <use xlink:href="#rim" fill="#404040">
                        <set attributeName="fill" to="#808080" begin="arrowLeft.mouseover" end="arrowLeft.mouseout"/>
                  </use>
                  <path fill="none" stroke="white" stroke-width="1.5" d="M0,-3.0v7 M-2.5,-0.5L0,-3.0L2.5,-0.5"/>
                </g>
        </g>
        <svg viewBox="0 0 15 15" width="100%" height="30px" preserveAspectRatio="xMaxYMin meet">
         <g id="arrow_out" transform="scale(0.3 0.3)">
          <a xlink:href="class_o_auth_util_adcb789bfefc729678d5188f05d19b5ba_icgraph_org.svg" target="_base">
           <rect id="button" ry="5" rx="5" y="6" x="6" height="38" width="38"
                fill="#f2f5e9" fill-opacity="0.5" stroke="#606060" stroke-width="1.0"/>
           <path id="arrow"
             d="M 11.500037,31.436501 C 11.940474,20.09759 22.043105,11.32322 32.158766,21.979434 L 37.068811,17.246167 C 37.068811,17.246167 37.088388,32 37.088388,32 L 22.160133,31.978069 C 22.160133,31.978069 26.997745,27.140456 26.997745,27.140456 C 18.528582,18.264221 13.291696,25.230495 11.500037,31.436501 z"
             style="fill:#404040;"/>
          </a>
         </g>
        </svg>
</svg>
