<?xml version="1.0" encoding="UTF-8" standalone="no"?>
<!DOCTYPE svg PUBLIC "-//W3C//DTD SVG 1.1//EN"
 "http://www.w3.org/Graphics/SVG/1.1/DTD/svg11.dtd">
<!-- Generated by graphviz version 2.30.1 (20130221.2233)
 -->
<!-- Title: KWSConstantContact\getAllLists Pages: 1 -->
<svg width="272pt" height="40pt"
 viewBox="0.00 0.00 272.00 40.00" xmlns="http://www.w3.org/2000/svg" xmlns:xlink="http://www.w3.org/1999/xlink">
<g id="graph0" class="graph" transform="scale(1 1) rotate(0) translate(4 36)">
<title>KWSConstantContact\getAllLists</title>
<polygon fill="white" stroke="white" points="-4,5 -4,-36 269,-36 269,5 -4,5"/>
<!-- Node1 -->
<g id="node1" class="node"><title>Node1</title>
<polygon fill="#bfbfbf" stroke="black" points="0.367188,-0 0.367188,-32 113.633,-32 113.633,-0 0.367188,-0"/>
<text text-anchor="start" x="8.36719" y="-18" font-family="Helvetica,sans-Serif" font-size="10.00">KWSConstantContact</text>
<text text-anchor="middle" x="57" y="-6" font-family="Helvetica,sans-Serif" font-size="10.00">\getAllLists</text>
</g>
<!-- Node2 -->
<g id="node2" class="node"><title>Node2</title>
<g id="a_node2"><a xlink:href="class_k_w_s_constant_contact.html#af6a84270968f93842fbfd508e9a6a8f6" target="_top" xlink:title="Function to fetch multi&#45;page results. ">
<polygon fill="white" stroke="black" points="150.367,-0 150.367,-32 263.633,-32 263.633,-0 150.367,-0"/>
<text text-anchor="start" x="158.367" y="-18" font-family="Helvetica,sans-Serif" font-size="10.00">KWSConstantContact</text>
<text text-anchor="middle" x="207" y="-6" font-family="Helvetica,sans-Serif" font-size="10.00">\getAll</text>
</a>
</g>
</g>
<!-- Node1&#45;&gt;Node2 -->
<g id="edge1" class="edge"><title>Node1&#45;&gt;Node2</title>
<path fill="none" stroke="midnightblue" d="M113.952,-16C122.425,-16 131.233,-16 139.895,-16"/>
<polygon fill="midnightblue" stroke="midnightblue" points="139.968,-19.5001 149.968,-16 139.968,-12.5001 139.968,-19.5001"/>
</g>
</g>
</svg>
