<?xml version="1.0" encoding="UTF-8" standalone="no"?>
<!DOCTYPE svg PUBLIC "-//W3C//DTD SVG 1.1//EN"
 "http://www.w3.org/Graphics/SVG/1.1/DTD/svg11.dtd">
<!-- Generated by graphviz version 2.30.1 (20130221.2233)
 -->
<!-- Title: OAuthServer\fetch_access_token Pages: 1 -->
<svg width="520pt" height="184pt"
 viewBox="0.00 0.00 520.00 184.00" xmlns="http://www.w3.org/2000/svg" xmlns:xlink="http://www.w3.org/1999/xlink">
<g id="graph0" class="graph" transform="scale(1 1) rotate(0) translate(4 180)">
<title>OAuthServer\fetch_access_token</title>
<polygon fill="white" stroke="white" points="-4,5 -4,-180 517,-180 517,5 -4,5"/>
<!-- Node1 -->
<g id="node1" class="node"><title>Node1</title>
<polygon fill="#bfbfbf" stroke="black" points="0.527344,-52 0.527344,-84 135.473,-84 135.473,-52 0.527344,-52"/>
<text text-anchor="start" x="8.52734" y="-70" font-family="Helvetica,sans-Serif" font-size="10.00">OAuthServer\fetch_access</text>
<text text-anchor="middle" x="68" y="-58" font-family="Helvetica,sans-Serif" font-size="10.00">_token</text>
</g>
<!-- Node2 -->
<g id="node2" class="node"><title>Node2</title>
<g id="a_node2"><a xlink:href="class_o_auth_server.html#a42f0158a9a4c166bc9372054626d93ca" target="_top" xlink:title="all&#45;in&#45;one function to check the signature on a request should guess the signature method appropriate...">
<polygon fill="white" stroke="black" points="172.298,-117 172.298,-137 321.702,-137 321.702,-117 172.298,-117"/>
<text text-anchor="middle" x="247" y="-123" font-family="Helvetica,sans-Serif" font-size="10.00">OAuthServer\check_signature</text>
</a>
</g>
</g>
<!-- Node1&#45;&gt;Node2 -->
<g id="edge1" class="edge"><title>Node1&#45;&gt;Node2</title>
<path fill="none" stroke="midnightblue" d="M108.787,-84.1072C127.771,-91.5234 150.897,-100.171 172,-107 179.741,-109.505 188.006,-111.954 196.102,-114.232"/>
<polygon fill="midnightblue" stroke="midnightblue" points="195.278,-117.635 205.848,-116.916 197.137,-110.886 195.278,-117.635"/>
</g>
<!-- Node6 -->
<g id="node6" class="node"><title>Node6</title>
<g id="a_node6"><a xlink:href="class_o_auth_server.html#adc55d70d9f093aab5354db25f529ed5b" target="_top" xlink:title="try to find the consumer for the provided request&#39;s consumer key ">
<polygon fill="white" stroke="black" points="177.025,-78 177.025,-98 316.975,-98 316.975,-78 177.025,-78"/>
<text text-anchor="middle" x="247" y="-84" font-family="Helvetica,sans-Serif" font-size="10.00">OAuthServer\get_consumer</text>
</a>
</g>
</g>
<!-- Node1&#45;&gt;Node6 -->
<g id="edge5" class="edge"><title>Node1&#45;&gt;Node6</title>
<path fill="none" stroke="midnightblue" d="M135.664,-75.5326C145.733,-76.6704 156.204,-77.8536 166.511,-79.0182"/>
<polygon fill="midnightblue" stroke="midnightblue" points="166.412,-82.5292 176.742,-80.1742 167.198,-75.5735 166.412,-82.5292"/>
</g>
<!-- Node7 -->
<g id="node7" class="node"><title>Node7</title>
<g id="a_node7"><a xlink:href="class_o_auth_server.html#a7f197015a02e6f0d2029562ce1295f68" target="_top" xlink:title="try to find the token for the provided request&#39;s token key ">
<polygon fill="white" stroke="black" points="186.747,-39 186.747,-59 307.253,-59 307.253,-39 186.747,-39"/>
<text text-anchor="middle" x="247" y="-45" font-family="Helvetica,sans-Serif" font-size="10.00">OAuthServer\get_token</text>
</a>
</g>
</g>
<!-- Node1&#45;&gt;Node7 -->
<g id="edge6" class="edge"><title>Node1&#45;&gt;Node7</title>
<path fill="none" stroke="midnightblue" d="M135.664,-60.844C149.017,-59.4106 163.078,-57.9012 176.524,-56.4578"/>
<polygon fill="midnightblue" stroke="midnightblue" points="177.096,-59.9167 186.665,-55.3693 176.348,-52.9567 177.096,-59.9167"/>
</g>
<!-- Node8 -->
<g id="node8" class="node"><title>Node8</title>
<g id="a_node8"><a xlink:href="class_o_auth_server.html#af40ad9ca9242a0c3cd2b66c49b547945" target="_top" xlink:title="version 1 ">
<polygon fill="white" stroke="black" points="182.86,-0 182.86,-20 311.14,-20 311.14,-0 182.86,-0"/>
<text text-anchor="middle" x="247" y="-6" font-family="Helvetica,sans-Serif" font-size="10.00">OAuthServer\get_version</text>
</a>
</g>
</g>
<!-- Node1&#45;&gt;Node8 -->
<g id="edge7" class="edge"><title>Node1&#45;&gt;Node8</title>
<path fill="none" stroke="midnightblue" d="M108.259,-51.9652C127.325,-44.4796 150.672,-35.753 172,-29 178.955,-26.7979 186.337,-24.665 193.642,-22.6732"/>
<polygon fill="midnightblue" stroke="midnightblue" points="194.742,-26.0024 203.507,-20.0514 192.944,-19.2372 194.742,-26.0024"/>
</g>
<!-- Node3 -->
<g id="node3" class="node"><title>Node3</title>
<g id="a_node3"><a xlink:href="class_o_auth_server.html#a4485cb3ffa98de6c0dc513519017dcfb" target="_top" xlink:title="check that the nonce is not repeated ">
<polygon fill="white" stroke="black" points="367.244,-156 367.244,-176 502.756,-176 502.756,-156 367.244,-156"/>
<text text-anchor="middle" x="435" y="-162" font-family="Helvetica,sans-Serif" font-size="10.00">OAuthServer\check_nonce</text>
</a>
</g>
</g>
<!-- Node2&#45;&gt;Node3 -->
<g id="edge2" class="edge"><title>Node2&#45;&gt;Node3</title>
<path fill="none" stroke="midnightblue" d="M295.9,-137.043C320.416,-142.184 350.449,-148.481 376.239,-153.889"/>
<polygon fill="midnightblue" stroke="midnightblue" points="375.757,-157.364 386.263,-155.991 377.194,-150.513 375.757,-157.364"/>
</g>
<!-- Node4 -->
<g id="node4" class="node"><title>Node4</title>
<g id="a_node4"><a xlink:href="class_o_auth_server.html#a46aafda0ef87fbb52e32958c33714a6d" target="_top" xlink:title="check that the timestamp is new enough ">
<polygon fill="white" stroke="black" points="357.806,-117 357.806,-137 512.194,-137 512.194,-117 357.806,-117"/>
<text text-anchor="middle" x="435" y="-123" font-family="Helvetica,sans-Serif" font-size="10.00">OAuthServer\check_timestamp</text>
</a>
</g>
</g>
<!-- Node2&#45;&gt;Node4 -->
<g id="edge3" class="edge"><title>Node2&#45;&gt;Node4</title>
<path fill="none" stroke="midnightblue" d="M321.779,-127C330.236,-127 338.914,-127 347.517,-127"/>
<polygon fill="midnightblue" stroke="midnightblue" points="347.565,-130.5 357.565,-127 347.565,-123.5 347.565,-130.5"/>
</g>
<!-- Node5 -->
<g id="node5" class="node"><title>Node5</title>
<g id="a_node5"><a xlink:href="class_o_auth_server.html#ab3b0e3026dea9faacb8d56cbb2274103" target="_top" xlink:title="figure out the signature with some defaults ">
<polygon fill="white" stroke="black" points="366.409,-66 366.409,-98 503.591,-98 503.591,-66 366.409,-66"/>
<text text-anchor="start" x="374.409" y="-84" font-family="Helvetica,sans-Serif" font-size="10.00">OAuthServer\get_signature</text>
<text text-anchor="middle" x="435" y="-72" font-family="Helvetica,sans-Serif" font-size="10.00">_method</text>
</a>
</g>
</g>
<!-- Node2&#45;&gt;Node5 -->
<g id="edge4" class="edge"><title>Node2&#45;&gt;Node5</title>
<path fill="none" stroke="midnightblue" d="M289.742,-116.901C309.798,-112.049 334.479,-106.078 357.72,-100.455"/>
<polygon fill="midnightblue" stroke="midnightblue" points="358.677,-103.824 367.574,-98.0708 357.031,-97.0206 358.677,-103.824"/>
</g>
</g>
</svg>
