<?xml version="1.0" encoding="UTF-8" standalone="no"?>
<!DOCTYPE svg PUBLIC "-//W3C//DTD SVG 1.1//EN"
 "http://www.w3.org/Graphics/SVG/1.1/DTD/svg11.dtd">
<!-- Generated by graphviz version 2.30.1 (20130221.2233)
 -->
<!-- Title: Net_DNS_RR_NS\Net_DNS_RR_NS Pages: 1 -->
<svg width="336pt" height="67pt"
 viewBox="0.00 0.00 336.00 67.00" xmlns="http://www.w3.org/2000/svg" xmlns:xlink="http://www.w3.org/1999/xlink">
<g id="graph0" class="graph" transform="scale(1 1) rotate(0) translate(4 63)">
<title>Net_DNS_RR_NS\Net_DNS_RR_NS</title>
<polygon fill="white" stroke="white" points="-4,5 -4,-63 333,-63 333,5 -4,5"/>
<!-- Node1 -->
<g id="node1" class="node"><title>Node1</title>
<polygon fill="#bfbfbf" stroke="black" points="0.645508,-13 0.645508,-45 143.354,-45 143.354,-13 0.645508,-13"/>
<text text-anchor="start" x="8.64551" y="-31" font-family="Helvetica,sans-Serif" font-size="10.00">Net_DNS_RR_NS\Net_DNS</text>
<text text-anchor="middle" x="72" y="-19" font-family="Helvetica,sans-Serif" font-size="10.00">_RR_NS</text>
</g>
<!-- Node2 -->
<g id="node2" class="node"><title>Node2</title>
<g id="a_node2"><a xlink:href="class_net___d_n_s___packet.html#a9844b7ce62cb096db44f58882f8ca403" target="_top" xlink:title="DNS packet decompression method. ">
<polygon fill="white" stroke="black" points="180.68,-39 180.68,-59 327.32,-59 327.32,-39 180.68,-39"/>
<text text-anchor="middle" x="254" y="-45" font-family="Helvetica,sans-Serif" font-size="10.00">Net_DNS_Packet\dn_expand</text>
</a>
</g>
</g>
<!-- Node1&#45;&gt;Node2 -->
<g id="edge1" class="edge"><title>Node1&#45;&gt;Node2</title>
<path fill="none" stroke="midnightblue" d="M143.366,-36.8185C152.25,-37.8055 161.401,-38.8224 170.452,-39.828"/>
<polygon fill="midnightblue" stroke="midnightblue" points="170.282,-43.3306 180.608,-40.9564 171.055,-36.3734 170.282,-43.3306"/>
</g>
<!-- Node3 -->
<g id="node3" class="node"><title>Node3</title>
<g id="a_node3"><a xlink:href="class_net___d_n_s___r_r.html#aa9da23331d654752fc950d474aa4c88d" target="_top" xlink:title="Net_DNS_RR\\rdata">
<polygon fill="white" stroke="black" points="202.094,-0 202.094,-20 305.906,-20 305.906,-0 202.094,-0"/>
<text text-anchor="middle" x="254" y="-6" font-family="Helvetica,sans-Serif" font-size="10.00">Net_DNS_RR\rdata</text>
</a>
</g>
</g>
<!-- Node1&#45;&gt;Node3 -->
<g id="edge2" class="edge"><title>Node1&#45;&gt;Node3</title>
<path fill="none" stroke="midnightblue" d="M143.366,-21.5725C159.381,-19.882 176.269,-18.0994 191.863,-16.4534"/>
<polygon fill="midnightblue" stroke="midnightblue" points="192.324,-19.9242 201.902,-15.3937 191.589,-12.9629 192.324,-19.9242"/>
</g>
</g>
</svg>
