<?xml version="1.0" encoding="UTF-8" standalone="no"?>
<!DOCTYPE svg PUBLIC "-//W3C//DTD SVG 1.1//EN"
 "http://www.w3.org/Graphics/SVG/1.1/DTD/svg11.dtd">
<!-- Generated by graphviz version 2.30.1 (20130221.2233)
 -->
<!-- Title: CTCT_Admin_Page\isAdd Pages: 1 -->
<svg width="658pt" height="143pt"
 viewBox="0.00 0.00 658.00 143.00" xmlns="http://www.w3.org/2000/svg" xmlns:xlink="http://www.w3.org/1999/xlink">
<g id="graph0" class="graph" transform="scale(1 1) rotate(0) translate(4 139)">
<title>CTCT_Admin_Page\isAdd</title>
<polygon fill="white" stroke="white" points="-4,5 -4,-139 655,-139 655,5 -4,5"/>
<!-- Node1 -->
<g id="node1" class="node"><title>Node1</title>
<polygon fill="#bfbfbf" stroke="black" points="0.362305,-35 0.362305,-55 133.638,-55 133.638,-35 0.362305,-35"/>
<text text-anchor="middle" x="67" y="-41" font-family="Helvetica,sans-Serif" font-size="10.00">CTCT_Admin_Page\isAdd</text>
</g>
<!-- Node2 -->
<g id="node2" class="node"><title>Node2</title>
<g id="a_node2"><a xlink:href="class_c_t_c_t___admin___page.html#acdbed2f16a36a9384b2fa5f01073024d" target="_top" xlink:title="CTCT_Admin_Page\\content">
<polygon fill="white" stroke="black" points="170.468,-58 170.468,-78 311.532,-78 311.532,-58 170.468,-58"/>
<text text-anchor="middle" x="241" y="-64" font-family="Helvetica,sans-Serif" font-size="10.00">CTCT_Admin_Page\content</text>
</a>
</g>
</g>
<!-- Node1&#45;&gt;Node2 -->
<g id="edge1" class="edge"><title>Node1&#45;&gt;Node2</title>
<path fill="none" stroke="midnightblue" d="M144.186,-55.1877C152.93,-56.3569 161.81,-57.5443 170.459,-58.701"/>
<polygon fill="midnightblue" stroke="midnightblue" points="144.383,-51.683 134.008,-53.8266 143.456,-58.6212 144.383,-51.683"/>
</g>
<!-- Node7 -->
<g id="node7" class="node"><title>Node7</title>
<g id="a_node7"><a xlink:href="class_c_t_c_t___admin___contacts.html#ab66e13c1d6644f2ef4fbbf5a3264d257" target="_top" xlink:title="CTCT_Admin_Contacts\l\\getTitle">
<polygon fill="white" stroke="black" points="180.205,-7 180.205,-39 301.795,-39 301.795,-7 180.205,-7"/>
<text text-anchor="start" x="188.205" y="-25" font-family="Helvetica,sans-Serif" font-size="10.00">CTCT_Admin_Contacts</text>
<text text-anchor="middle" x="241" y="-13" font-family="Helvetica,sans-Serif" font-size="10.00">\getTitle</text>
</a>
</g>
</g>
<!-- Node1&#45;&gt;Node7 -->
<g id="edge6" class="edge"><title>Node1&#45;&gt;Node7</title>
<path fill="none" stroke="midnightblue" d="M144.06,-35.2714C156.126,-33.7281 168.456,-32.1509 180.084,-30.6636"/>
<polygon fill="midnightblue" stroke="midnightblue" points="143.483,-31.8166 134.008,-36.5571 144.371,-38.76 143.483,-31.8166"/>
</g>
<!-- Node3 -->
<g id="node3" class="node"><title>Node3</title>
<g id="a_node3"><a xlink:href="class_c_t_c_t___admin___page.html#ad4d8edcfbf3023f7f18a6d188adaf99c" target="_top" xlink:title="CTCT_Admin_Page\\page">
<polygon fill="white" stroke="black" points="348.747,-58 348.747,-78 479.253,-78 479.253,-58 348.747,-58"/>
<text text-anchor="middle" x="414" y="-64" font-family="Helvetica,sans-Serif" font-size="10.00">CTCT_Admin_Page\page</text>
</a>
</g>
</g>
<!-- Node2&#45;&gt;Node3 -->
<g id="edge2" class="edge"><title>Node2&#45;&gt;Node3</title>
<path fill="none" stroke="midnightblue" d="M321.644,-68C330.634,-68 339.711,-68 348.474,-68"/>
<polygon fill="midnightblue" stroke="midnightblue" points="321.552,-64.5001 311.552,-68 321.552,-71.5001 321.552,-64.5001"/>
</g>
<!-- Node4 -->
<g id="node4" class="node"><title>Node4</title>
<g id="a_node4"><a xlink:href="class_c_t_c_t___constant___analytics.html#ad379ea8b9d4f8c7735b0f3adeac838fe" target="_top" xlink:title="CTCT_Constant_Analytics\l\\addActions">
<polygon fill="white" stroke="black" points="516.089,-103 516.089,-135 649.911,-135 649.911,-103 516.089,-103"/>
<text text-anchor="start" x="524.089" y="-121" font-family="Helvetica,sans-Serif" font-size="10.00">CTCT_Constant_Analytics</text>
<text text-anchor="middle" x="583" y="-109" font-family="Helvetica,sans-Serif" font-size="10.00">\addActions</text>
</a>
</g>
</g>
<!-- Node3&#45;&gt;Node4 -->
<g id="edge3" class="edge"><title>Node3&#45;&gt;Node4</title>
<path fill="none" stroke="midnightblue" d="M457.645,-81.0233C479.474,-87.6898 506.248,-95.8661 529.354,-102.922"/>
<polygon fill="midnightblue" stroke="midnightblue" points="458.58,-77.6494 447.994,-78.076 456.536,-84.3441 458.58,-77.6494"/>
</g>
<!-- Node5 -->
<g id="node5" class="node"><title>Node5</title>
<g id="a_node5"><a xlink:href="class_c_t_c_t___constant___analytics.html#a0b5589251b3a6cd9cf457fed695c885c" target="_top" xlink:title="CTCT_Constant_Analytics\l\\enqueue_scripts">
<polygon fill="white" stroke="black" points="516.089,-52 516.089,-84 649.911,-84 649.911,-52 516.089,-52"/>
<text text-anchor="start" x="524.089" y="-70" font-family="Helvetica,sans-Serif" font-size="10.00">CTCT_Constant_Analytics</text>
<text text-anchor="middle" x="583" y="-58" font-family="Helvetica,sans-Serif" font-size="10.00">\enqueue_scripts</text>
</a>
</g>
</g>
<!-- Node3&#45;&gt;Node5 -->
<g id="edge4" class="edge"><title>Node3&#45;&gt;Node5</title>
<path fill="none" stroke="midnightblue" d="M489.74,-68C498.477,-68 507.343,-68 515.95,-68"/>
<polygon fill="midnightblue" stroke="midnightblue" points="489.567,-64.5001 479.567,-68 489.567,-71.5001 489.567,-64.5001"/>
</g>
<!-- Node6 -->
<g id="node6" class="node"><title>Node6</title>
<g id="a_node6"><a xlink:href="class_c_t_c_t___constant___analytics.html#a835b6b00979fb3965d01a93767d5199e" target="_top" xlink:title="CTCT_Constant_Analytics\l\\admin_head">
<polygon fill="white" stroke="black" points="516.089,-1 516.089,-33 649.911,-33 649.911,-1 516.089,-1"/>
<text text-anchor="start" x="524.089" y="-19" font-family="Helvetica,sans-Serif" font-size="10.00">CTCT_Constant_Analytics</text>
<text text-anchor="middle" x="583" y="-7" font-family="Helvetica,sans-Serif" font-size="10.00">\admin_head</text>
</a>
</g>
</g>
<!-- Node3&#45;&gt;Node6 -->
<g id="edge5" class="edge"><title>Node3&#45;&gt;Node6</title>
<path fill="none" stroke="midnightblue" d="M457.645,-54.9767C479.474,-48.3102 506.248,-40.1339 529.354,-33.0777"/>
<polygon fill="midnightblue" stroke="midnightblue" points="456.536,-51.6559 447.994,-57.924 458.58,-58.3506 456.536,-51.6559"/>
</g>
</g>
</svg>
