<?xml version="1.0" encoding="UTF-8" standalone="no"?>
<!DOCTYPE svg PUBLIC "-//W3C//DTD SVG 1.1//EN"
 "http://www.w3.org/Graphics/SVG/1.1/DTD/svg11.dtd">
<!-- Generated by graphviz version 2.30.1 (20130221.2233)
 -->
<!-- Title: Net_DNS_Resolver\read_config Pages: 1 -->
<svg width="890pt" height="118pt"
 viewBox="0.00 0.00 890.00 118.32" xmlns="http://www.w3.org/2000/svg" xmlns:xlink="http://www.w3.org/1999/xlink">
<g id="graph0" class="graph" transform="scale(1 1) rotate(0) translate(4 114.323)">
<title>Net_DNS_Resolver\read_config</title>
<polygon fill="white" stroke="white" points="-4,5 -4,-114.323 887,-114.323 887,5 -4,5"/>
<!-- Node1 -->
<g id="node1" class="node"><title>Node1</title>
<polygon fill="#bfbfbf" stroke="black" points="-0.0244141,-6.73992 -0.0244141,-38.7399 126.024,-38.7399 126.024,-6.73992 -0.0244141,-6.73992"/>
<text text-anchor="start" x="7.97559" y="-24.7399" font-family="Helvetica,sans-Serif" font-size="10.00">Net_DNS_Resolver\read</text>
<text text-anchor="middle" x="63" y="-12.7399" font-family="Helvetica,sans-Serif" font-size="10.00">_config</text>
</g>
<!-- Node2 -->
<g id="node2" class="node"><title>Node2</title>
<g id="a_node2"><a xlink:href="class_net___d_n_s___resolver.html#a3bf22a7a58480dd7a6fd0dd17807fc70" target="_top" xlink:title="Gets or sets the nameservers to be queried. ">
<polygon fill="white" stroke="black" points="162.084,-46.7399 162.084,-66.7399 325.916,-66.7399 325.916,-46.7399 162.084,-46.7399"/>
<text text-anchor="middle" x="244" y="-52.7399" font-family="Helvetica,sans-Serif" font-size="10.00">Net_DNS_Resolver\nameservers</text>
</a>
</g>
</g>
<!-- Node1&#45;&gt;Node2 -->
<g id="edge1" class="edge"><title>Node1&#45;&gt;Node2</title>
<path fill="none" stroke="midnightblue" d="M126.103,-34.5361C143.576,-37.8549 162.59,-41.4666 180.109,-44.7941"/>
<polygon fill="midnightblue" stroke="midnightblue" points="179.75,-48.2884 190.227,-46.7161 181.056,-41.4114 179.75,-48.2884"/>
</g>
<!-- Node3 -->
<g id="node3" class="node"><title>Node3</title>
<g id="a_node3"><a xlink:href="class_net___d_n_s___resolver.html#ae1bb14089519fe774d025156114aae4f" target="_top" xlink:title="Net_DNS_Resolver\\cname_addr">
<polygon fill="white" stroke="black" points="362.188,-69.7399 362.188,-89.7399 523.812,-89.7399 523.812,-69.7399 362.188,-69.7399"/>
<text text-anchor="middle" x="443" y="-75.7399" font-family="Helvetica,sans-Serif" font-size="10.00">Net_DNS_Resolver\cname_addr</text>
</a>
</g>
</g>
<!-- Node2&#45;&gt;Node3 -->
<g id="edge2" class="edge"><title>Node2&#45;&gt;Node3</title>
<path fill="none" stroke="midnightblue" d="M325.98,-66.1945C334.523,-67.1919 343.248,-68.2105 351.886,-69.219"/>
<polygon fill="midnightblue" stroke="midnightblue" points="351.632,-72.713 361.97,-70.3963 352.444,-65.7602 351.632,-72.713"/>
</g>
<!-- Node4 -->
<g id="node4" class="node"><title>Node4</title>
<g id="a_node4"><a xlink:href="class_net___d_n_s___resolver.html#a4358663ec326e406c398f6cb09bd5544" target="_top" xlink:title="Initializes the Resolver Object. ">
<polygon fill="white" stroke="black" points="382.202,-18.7399 382.202,-50.7399 503.798,-50.7399 503.798,-18.7399 382.202,-18.7399"/>
<text text-anchor="start" x="390.202" y="-36.7399" font-family="Helvetica,sans-Serif" font-size="10.00">Net_DNS_Resolver\Net</text>
<text text-anchor="middle" x="443" y="-24.7399" font-family="Helvetica,sans-Serif" font-size="10.00">_DNS_Resolver</text>
</a>
</g>
</g>
<!-- Node2&#45;&gt;Node4 -->
<g id="edge3" class="edge"><title>Node2&#45;&gt;Node4</title>
<path fill="none" stroke="midnightblue" d="M325.98,-47.6964C341.242,-45.9921 357.084,-44.2229 371.976,-42.5599"/>
<polygon fill="midnightblue" stroke="midnightblue" points="372.565,-46.0159 382.115,-41.4276 371.788,-39.0592 372.565,-46.0159"/>
</g>
<!-- Node5 -->
<g id="node5" class="node"><title>Node5</title>
<g id="a_node5"><a xlink:href="class_net___d_n_s___resolver.html#aa2e8d58074354b1f9292500119470431" target="_top" xlink:title="Initalizes the resolver library. ">
<polygon fill="white" stroke="black" points="559.865,-24.7399 559.865,-44.7399 698.135,-44.7399 698.135,-24.7399 559.865,-24.7399"/>
<text text-anchor="middle" x="629" y="-30.7399" font-family="Helvetica,sans-Serif" font-size="10.00">Net_DNS_Resolver\res_init</text>
</a>
</g>
</g>
<!-- Node4&#45;&gt;Node5 -->
<g id="edge4" class="edge"><title>Node4&#45;&gt;Node5</title>
<path fill="none" stroke="midnightblue" d="M503.994,-34.7399C518.479,-34.7399 534.174,-34.7399 549.372,-34.7399"/>
<polygon fill="midnightblue" stroke="midnightblue" points="549.793,-38.24 559.793,-34.7399 549.793,-31.24 549.793,-38.24"/>
</g>
<!-- Node5&#45;&gt;Node1 -->
<g id="edge5" class="edge"><title>Node5&#45;&gt;Node1</title>
<path fill="none" stroke="midnightblue" d="M596.518,-24.7294C576.087,-18.7679 548.752,-11.7871 524,-8.73992 387.703,8.03897 227.071,-4.02323 136.219,-13.7626"/>
<polygon fill="midnightblue" stroke="midnightblue" points="135.591,-10.3103 126.031,-14.8765 136.352,-17.2688 135.591,-10.3103"/>
</g>
<!-- Node6 -->
<g id="node6" class="node"><title>Node6</title>
<g id="a_node6"><a xlink:href="class_net___d_n_s___resolver.html#a2a3d25c5dd2b1810b60ad05b84787855" target="_top" xlink:title="Examines the environment for resolver config information. ">
<polygon fill="white" stroke="black" points="734.133,-66.7399 734.133,-86.7399 881.867,-86.7399 881.867,-66.7399 734.133,-66.7399"/>
<text text-anchor="middle" x="808" y="-72.7399" font-family="Helvetica,sans-Serif" font-size="10.00">Net_DNS_Resolver\read_env</text>
</a>
</g>
</g>
<!-- Node5&#45;&gt;Node6 -->
<g id="edge6" class="edge"><title>Node5&#45;&gt;Node6</title>
<path fill="none" stroke="midnightblue" d="M672.396,-44.8C697.154,-50.6747 728.59,-58.1341 754.855,-64.3666"/>
<polygon fill="midnightblue" stroke="midnightblue" points="754.106,-67.7859 764.644,-66.6893 755.722,-60.975 754.106,-67.7859"/>
</g>
<!-- Node6&#45;&gt;Node2 -->
<g id="edge7" class="edge"><title>Node6&#45;&gt;Node2</title>
<path fill="none" stroke="midnightblue" d="M754.474,-86.7732C670.761,-101.103 502.218,-123.145 362,-98.7399 331.489,-93.4295 298.421,-80.8756 275.249,-70.8675"/>
<polygon fill="midnightblue" stroke="midnightblue" points="276.522,-67.6035 265.961,-66.7627 273.693,-74.0062 276.522,-67.6035"/>
</g>
</g>
</svg>
