<?xml version="1.0" encoding="UTF-8" standalone="no"?>
<!DOCTYPE svg PUBLIC "-//W3C//DTD SVG 1.1//EN"
 "http://www.w3.org/Graphics/SVG/1.1/DTD/svg11.dtd">
<!-- Generated by graphviz version 2.30.1 (20130221.2233)
 -->
<!-- Title: CTCT_Registration\process_submission Pages: 1 -->
<svg width="304pt" height="67pt"
 viewBox="0.00 0.00 304.00 67.00" xmlns="http://www.w3.org/2000/svg" xmlns:xlink="http://www.w3.org/1999/xlink">
<g id="graph0" class="graph" transform="scale(1 1) rotate(0) translate(4 63)">
<title>CTCT_Registration\process_submission</title>
<polygon fill="white" stroke="white" points="-4,5 -4,-63 301,-63 301,5 -4,5"/>
<!-- Node1 -->
<g id="node1" class="node"><title>Node1</title>
<polygon fill="#bfbfbf" stroke="black" points="0.312988,-13 0.312988,-45 139.687,-45 139.687,-13 0.312988,-13"/>
<text text-anchor="start" x="8.31299" y="-31" font-family="Helvetica,sans-Serif" font-size="10.00">CTCT_Registration\process</text>
<text text-anchor="middle" x="70" y="-19" font-family="Helvetica,sans-Serif" font-size="10.00">_submission</text>
</g>
<!-- Node2 -->
<g id="node2" class="node"><title>Node2</title>
<g id="a_node2"><a xlink:href="class_c_t_c_t___settings.html#ae3c076753f9e642d69924227641b75e7" target="_top" xlink:title="Alias for get_setting() &#160;CTCT_Settings::get_setting() ">
<polygon fill="white" stroke="black" points="185.483,-39 185.483,-59 286.517,-59 286.517,-39 185.483,-39"/>
<text text-anchor="middle" x="236" y="-45" font-family="Helvetica,sans-Serif" font-size="10.00">CTCT_Settings\get</text>
</a>
</g>
</g>
<!-- Node1&#45;&gt;Node2 -->
<g id="edge1" class="edge"><title>Node1&#45;&gt;Node2</title>
<path fill="none" stroke="midnightblue" d="M140.075,-37.4238C151.737,-38.846 163.757,-40.3118 175.159,-41.7023"/>
<polygon fill="midnightblue" stroke="midnightblue" points="175.078,-45.2182 185.428,-42.9546 175.925,-38.2697 175.078,-45.2182"/>
</g>
<!-- Node3 -->
<g id="node3" class="node"><title>Node3</title>
<g id="a_node3"><a xlink:href="class_w_p___c_t_c_t.html#a485eac1e69d12c9e2ecac70bf3295c3f" target="_top" xlink:title="WP_CTCT\\getInstance">
<polygon fill="white" stroke="black" points="176.594,-0 176.594,-20 295.406,-20 295.406,-0 176.594,-0"/>
<text text-anchor="middle" x="236" y="-6" font-family="Helvetica,sans-Serif" font-size="10.00">WP_CTCT\getInstance</text>
</a>
</g>
</g>
<!-- Node1&#45;&gt;Node3 -->
<g id="edge2" class="edge"><title>Node1&#45;&gt;Node3</title>
<path fill="none" stroke="midnightblue" d="M140.075,-20.9974C148.758,-19.9914 157.639,-18.9625 166.316,-17.9573"/>
<polygon fill="midnightblue" stroke="midnightblue" points="166.853,-21.4186 176.384,-16.7909 166.047,-14.4651 166.853,-21.4186"/>
</g>
</g>
</svg>
