<?xml version="1.0" encoding="UTF-8" standalone="no"?>
<!DOCTYPE svg PUBLIC "-//W3C//DTD SVG 1.1//EN"
 "http://www.w3.org/Graphics/SVG/1.1/DTD/svg11.dtd">
<!-- Generated by graphviz version 2.30.1 (20130221.2233)
 -->
<!-- Title: Net_DNS_Resolver\nameservers Pages: 1 -->
<!--zoomable 144 -->
<svg id="main" version="1.1" xmlns="http://www.w3.org/2000/svg" xmlns:xlink="http://www.w3.org/1999/xlink" xml:space="preserve" onload="init(evt)">
<style type="text/css"><![CDATA[
.edge:hover path { stroke: red; }
.edge:hover polygon { stroke: red; fill: red; }
]]></style>
<script type="text/javascript"><![CDATA[
var edges = document.getElementsByTagName('g');
if (edges && edges.length) {
  for (var i=0;i<edges.length;i++) {
    if (edges[i].id.substr(0,4)=='edge') {
      edges[i].setAttribute('class','edge');
    }
  }
}
]]></script>
        <defs>
                <circle id="rim" cx="0" cy="0" r="7"/>
                <circle id="rim2" cx="0" cy="0" r="3.5"/>
                <g id="zoomPlus">
                        <use xlink:href="#rim" fill="#404040">
                                <set attributeName="fill" to="#808080" begin="zoomplus.mouseover" end="zoomplus.mouseout"/>
                        </use>
                        <path d="M-4,0h8M0,-4v8" fill="none" stroke="white" stroke-width="1.5" pointer-events="none"/>
                </g>
                <g id="zoomMin">
                        <use xlink:href="#rim" fill="#404040">
                                <set attributeName="fill" to="#808080" begin="zoomminus.mouseover" end="zoomminus.mouseout"/>
                        </use>
                        <path d="M-4,0h8" fill="none" stroke="white" stroke-width="1.5" pointer-events="none"/>
                </g>
                <g id="dirArrow">
                        <path fill="none" stroke="white" stroke-width="1.5" d="M0,-3.0v7 M-2.5,-0.5L0,-3.0L2.5,-0.5"/>
                </g>
               <g id="resetDef">
                       <use xlink:href="#rim2" fill="#404040">
                               <set attributeName="fill" to="#808080" begin="reset.mouseover" end="reset.mouseout"/>
                       </use>
               </g>
        </defs>

<script type="text/javascript">
var viewWidth = 728;
var viewHeight = 144;
var sectionId = 'dynsection-9';
</script>
<script xlink:href="svgpan.js"/>
<svg id="graph" class="graph">
<g id="viewport">
<title>Net_DNS_Resolver\nameservers</title>
<polygon fill="white" stroke="white" points="-4,5 -4,-140.44 725,-140.44 725,5 -4,5"/>
<!-- Node1 -->
<g id="node1" class="node"><title>Node1</title>
<polygon fill="#bfbfbf" stroke="black" points="0.0839844,-54.4397 0.0839844,-74.4397 163.916,-74.4397 163.916,-54.4397 0.0839844,-54.4397"/>
<text text-anchor="middle" x="82" y="-60.4397" font-family="Helvetica,sans-Serif" font-size="10.00">Net_DNS_Resolver\nameservers</text>
</g>
<!-- Node2 -->
<g id="node2" class="node"><title>Node2</title>
<g id="a_node2"><a xlink:href="class_net___d_n_s___resolver.html#ae1bb14089519fe774d025156114aae4f" target="_top" xlink:title="Net_DNS_Resolver\\cname_addr">
<polygon fill="white" stroke="black" points="200.188,-116.44 200.188,-136.44 361.812,-136.44 361.812,-116.44 200.188,-116.44"/>
<text text-anchor="middle" x="281" y="-122.44" font-family="Helvetica,sans-Serif" font-size="10.00">Net_DNS_Resolver\cname_addr</text>
</a>
</g>
</g>
<!-- Node1&#45;&gt;Node2 -->
<g id="edge1" class="edge"><title>Node1&#45;&gt;Node2</title>
<path fill="none" stroke="midnightblue" d="M114.772,-74.5194C138.299,-81.9755 171.141,-92.3672 200,-101.44 212.377,-105.331 225.838,-109.544 238.125,-113.383"/>
<polygon fill="midnightblue" stroke="midnightblue" points="237.096,-116.728 247.684,-116.368 239.182,-110.047 237.096,-116.728"/>
</g>
<!-- Node3 -->
<g id="node3" class="node"><title>Node3</title>
<g id="a_node3"><a xlink:href="class_net___d_n_s___resolver.html#a4358663ec326e406c398f6cb09bd5544" target="_top" xlink:title="Initializes the Resolver Object. ">
<polygon fill="white" stroke="black" points="220.202,-26.4397 220.202,-58.4397 341.798,-58.4397 341.798,-26.4397 220.202,-26.4397"/>
<text text-anchor="start" x="228.202" y="-44.4397" font-family="Helvetica,sans-Serif" font-size="10.00">Net_DNS_Resolver\Net</text>
<text text-anchor="middle" x="281" y="-32.4397" font-family="Helvetica,sans-Serif" font-size="10.00">_DNS_Resolver</text>
</a>
</g>
</g>
<!-- Node1&#45;&gt;Node3 -->
<g id="edge2" class="edge"><title>Node1&#45;&gt;Node3</title>
<path fill="none" stroke="midnightblue" d="M163.98,-55.3962C179.242,-53.6918 195.084,-51.9227 209.976,-50.2597"/>
<polygon fill="midnightblue" stroke="midnightblue" points="210.565,-53.7157 220.115,-49.1274 209.788,-46.7589 210.565,-53.7157"/>
</g>
<!-- Node4 -->
<g id="node4" class="node"><title>Node4</title>
<g id="a_node4"><a xlink:href="class_net___d_n_s___resolver.html#aa2e8d58074354b1f9292500119470431" target="_top" xlink:title="Initalizes the resolver library. ">
<polygon fill="white" stroke="black" points="397.865,-32.4397 397.865,-52.4397 536.135,-52.4397 536.135,-32.4397 397.865,-32.4397"/>
<text text-anchor="middle" x="467" y="-38.4397" font-family="Helvetica,sans-Serif" font-size="10.00">Net_DNS_Resolver\res_init</text>
</a>
</g>
</g>
<!-- Node3&#45;&gt;Node4 -->
<g id="edge3" class="edge"><title>Node3&#45;&gt;Node4</title>
<path fill="none" stroke="midnightblue" d="M341.994,-42.4397C356.479,-42.4397 372.174,-42.4397 387.372,-42.4397"/>
<polygon fill="midnightblue" stroke="midnightblue" points="387.793,-45.9398 397.793,-42.4397 387.793,-38.9398 387.793,-45.9398"/>
</g>
<!-- Node5 -->
<g id="node5" class="node"><title>Node5</title>
<g id="a_node5"><a xlink:href="class_net___d_n_s___resolver.html#ae4def11574ad6e93176670c726541bed" target="_top" xlink:title="Reads and parses a resolver configuration file. ">
<polygon fill="white" stroke="black" points="582.976,-59.4397 582.976,-91.4397 709.024,-91.4397 709.024,-59.4397 582.976,-59.4397"/>
<text text-anchor="start" x="590.976" y="-77.4397" font-family="Helvetica,sans-Serif" font-size="10.00">Net_DNS_Resolver\read</text>
<text text-anchor="middle" x="646" y="-65.4397" font-family="Helvetica,sans-Serif" font-size="10.00">_config</text>
</a>
</g>
</g>
<!-- Node4&#45;&gt;Node5 -->
<g id="edge4" class="edge"><title>Node4&#45;&gt;Node5</title>
<path fill="none" stroke="midnightblue" d="M522.068,-52.5201C538.13,-55.5147 555.985,-58.8436 572.997,-62.0154"/>
<polygon fill="midnightblue" stroke="midnightblue" points="572.424,-65.4687 582.896,-63.8609 573.707,-58.5873 572.424,-65.4687"/>
</g>
<!-- Node6 -->
<g id="node6" class="node"><title>Node6</title>
<g id="a_node6"><a xlink:href="class_net___d_n_s___resolver.html#a2a3d25c5dd2b1810b60ad05b84787855" target="_top" xlink:title="Examines the environment for resolver config information. ">
<polygon fill="white" stroke="black" points="572.133,-9.43968 572.133,-29.4397 719.867,-29.4397 719.867,-9.43968 572.133,-9.43968"/>
<text text-anchor="middle" x="646" y="-15.4397" font-family="Helvetica,sans-Serif" font-size="10.00">Net_DNS_Resolver\read_env</text>
</a>
</g>
</g>
<!-- Node4&#45;&gt;Node6 -->
<g id="edge6" class="edge"><title>Node4&#45;&gt;Node6</title>
<path fill="none" stroke="midnightblue" d="M536.18,-33.5802C544.579,-32.4887 553.237,-31.3637 561.827,-30.2474"/>
<polygon fill="midnightblue" stroke="midnightblue" points="562.396,-33.7031 571.862,-28.9436 561.494,-26.7614 562.396,-33.7031"/>
</g>
<!-- Node5&#45;&gt;Node1 -->
<g id="edge5" class="edge"><title>Node5&#45;&gt;Node1</title>
<path fill="none" stroke="midnightblue" d="M582.722,-74.4705C496.667,-73.0969 336.541,-70.4175 200,-67.4397 191.677,-67.2582 183.022,-67.0579 174.354,-66.8496"/>
<polygon fill="midnightblue" stroke="midnightblue" points="174.274,-63.3467 164.191,-66.6019 174.103,-70.3446 174.274,-63.3467"/>
</g>
<!-- Node6&#45;&gt;Node1 -->
<g id="edge7" class="edge"><title>Node6&#45;&gt;Node1</title>
<path fill="none" stroke="midnightblue" d="M572.1,-10.0915C483.266,-0.721964 329.049,9.00291 200,-16.4397 167.958,-22.7569 133.65,-37.9388 110.528,-49.5508"/>
<polygon fill="midnightblue" stroke="midnightblue" points="108.636,-46.5879 101.342,-54.2726 111.836,-52.8136 108.636,-46.5879"/>
</g>
</g>
</svg>
        <g id="navigator" transform="translate(0 0)" fill="#404254">
                <rect fill="#f2f5e9" fill-opacity="0.5" stroke="#606060" stroke-width=".5" x="0" y="0" width="60" height="60"/>
                <use id="zoomplus" xlink:href="#zoomPlus" x="17" y="9" onmousedown="handleZoom(evt,'in')"/>
                <use id="zoomminus" xlink:href="#zoomMin" x="42" y="9" onmousedown="handleZoom(evt,'out')"/>
                <use id="reset" xlink:href="#resetDef" x="30" y="36" onmousedown="handleReset()"/>
                <g id="arrowUp" xlink:href="#dirArrow" transform="translate(30 24)" onmousedown="handlePan(0,-1)">
                  <use xlink:href="#rim" fill="#404040">
                        <set attributeName="fill" to="#808080" begin="arrowUp.mouseover" end="arrowUp.mouseout"/>
                  </use>
                  <path fill="none" stroke="white" stroke-width="1.5" d="M0,-3.0v7 M-2.5,-0.5L0,-3.0L2.5,-0.5"/>
                </g>
                <g id="arrowRight" xlink:href="#dirArrow" transform="rotate(90) translate(36 -43)" onmousedown="handlePan(1,0)">
                  <use xlink:href="#rim" fill="#404040">
                        <set attributeName="fill" to="#808080" begin="arrowRight.mouseover" end="arrowRight.mouseout"/>
                  </use>
                  <path fill="none" stroke="white" stroke-width="1.5" d="M0,-3.0v7 M-2.5,-0.5L0,-3.0L2.5,-0.5"/>
                </g>
                <g id="arrowDown" xlink:href="#dirArrow" transform="rotate(180) translate(-30 -48)" onmousedown="handlePan(0,1)">
                  <use xlink:href="#rim" fill="#404040">
                        <set attributeName="fill" to="#808080" begin="arrowDown.mouseover" end="arrowDown.mouseout"/>
                  </use>
                  <path fill="none" stroke="white" stroke-width="1.5" d="M0,-3.0v7 M-2.5,-0.5L0,-3.0L2.5,-0.5"/>
                </g>
                <g id="arrowLeft" xlink:href="#dirArrow" transform="rotate(270) translate(-36 17)" onmousedown="handlePan(-1,0)">
                  <use xlink:href="#rim" fill="#404040">
                        <set attributeName="fill" to="#808080" begin="arrowLeft.mouseover" end="arrowLeft.mouseout"/>
                  </use>
                  <path fill="none" stroke="white" stroke-width="1.5" d="M0,-3.0v7 M-2.5,-0.5L0,-3.0L2.5,-0.5"/>
                </g>
        </g>
        <svg viewBox="0 0 15 15" width="100%" height="30px" preserveAspectRatio="xMaxYMin meet">
         <g id="arrow_out" transform="scale(0.3 0.3)">
          <a xlink:href="class_net___d_n_s___resolver_a3bf22a7a58480dd7a6fd0dd17807fc70_cgraph_org.svg" target="_base">
           <rect id="button" ry="5" rx="5" y="6" x="6" height="38" width="38"
                fill="#f2f5e9" fill-opacity="0.5" stroke="#606060" stroke-width="1.0"/>
           <path id="arrow"
             d="M 11.500037,31.436501 C 11.940474,20.09759 22.043105,11.32322 32.158766,21.979434 L 37.068811,17.246167 C 37.068811,17.246167 37.088388,32 37.088388,32 L 22.160133,31.978069 C 22.160133,31.978069 26.997745,27.140456 26.997745,27.140456 C 18.528582,18.264221 13.291696,25.230495 11.500037,31.436501 z"
             style="fill:#404040;"/>
          </a>
         </g>
        </svg>
</svg>
