<?xml version="1.0" encoding="UTF-8" standalone="no"?>
<!DOCTYPE svg PUBLIC "-//W3C//DTD SVG 1.1//EN"
 "http://www.w3.org/Graphics/SVG/1.1/DTD/svg11.dtd">
<!-- Generated by graphviz version 2.30.1 (20130221.2233)
 -->
<!-- Title: EventsCollection\getEventDetails Pages: 1 -->
<svg width="674pt" height="201pt"
 viewBox="0.00 0.00 674.00 201.00" xmlns="http://www.w3.org/2000/svg" xmlns:xlink="http://www.w3.org/1999/xlink">
<g id="graph0" class="graph" transform="scale(1 1) rotate(0) translate(4 197)">
<title>EventsCollection\getEventDetails</title>
<polygon fill="white" stroke="white" points="-4,5 -4,-197 671,-197 671,5 -4,5"/>
<!-- Node1 -->
<g id="node1" class="node"><title>Node1</title>
<polygon fill="#bfbfbf" stroke="black" points="0.633301,-102 0.633301,-134 133.367,-134 133.367,-102 0.633301,-102"/>
<text text-anchor="start" x="8.6333" y="-120" font-family="Helvetica,sans-Serif" font-size="10.00">EventsCollection\getEvent</text>
<text text-anchor="middle" x="67" y="-108" font-family="Helvetica,sans-Serif" font-size="10.00">Details</text>
</g>
<!-- Node2 -->
<g id="node2" class="node"><title>Node2</title>
<g id="a_node2"><a xlink:href="class_event.html#a4d2d7fcea94bab1d73fcb32e356159a4" target="_top" xlink:title="Create an associative array of object properties from XML. ">
<polygon fill="white" stroke="black" points="192.87,-134 192.87,-154 291.13,-154 291.13,-134 192.87,-134"/>
<text text-anchor="middle" x="242" y="-140" font-family="Helvetica,sans-Serif" font-size="10.00">Event\createStruct</text>
</a>
</g>
</g>
<!-- Node1&#45;&gt;Node2 -->
<g id="edge1" class="edge"><title>Node1&#45;&gt;Node2</title>
<path fill="none" stroke="midnightblue" d="M133.404,-127.829C149.573,-130.26 166.79,-132.847 182.601,-135.223"/>
<polygon fill="midnightblue" stroke="midnightblue" points="182.354,-138.725 192.763,-136.751 183.394,-131.803 182.354,-138.725"/>
</g>
<!-- Node6 -->
<g id="node6" class="node"><title>Node6</title>
<g id="a_node6"><a xlink:href="class_c_t_c_t_request.html#aad92e5787f6d3fdf00760d99505aa6db" target="_top" xlink:title="CTCTRequest\\makeRequest">
<polygon fill="white" stroke="black" points="169.808,-83 169.808,-103 314.192,-103 314.192,-83 169.808,-83"/>
<text text-anchor="middle" x="242" y="-89" font-family="Helvetica,sans-Serif" font-size="10.00">CTCTRequest\makeRequest</text>
</a>
</g>
</g>
<!-- Node1&#45;&gt;Node6 -->
<g id="edge5" class="edge"><title>Node1&#45;&gt;Node6</title>
<path fill="none" stroke="midnightblue" d="M133.404,-108.549C142.609,-107.218 152.154,-105.839 161.585,-104.476"/>
<polygon fill="midnightblue" stroke="midnightblue" points="162.357,-107.901 171.754,-103.007 161.356,-100.973 162.357,-107.901"/>
</g>
<!-- Node3 -->
<g id="node3" class="node"><title>Node3</title>
<g id="a_node3"><a xlink:href="class_check_payment.html#ace9006cba32a83f633ee69d8470f9ec5" target="_top" xlink:title="Create an associative array of object properties from XML. ">
<polygon fill="white" stroke="black" points="356.751,-173 356.751,-193 497.249,-193 497.249,-173 356.751,-173"/>
<text text-anchor="middle" x="427" y="-179" font-family="Helvetica,sans-Serif" font-size="10.00">CheckPayment\createStruct</text>
</a>
</g>
</g>
<!-- Node2&#45;&gt;Node3 -->
<g id="edge2" class="edge"><title>Node2&#45;&gt;Node3</title>
<path fill="none" stroke="midnightblue" d="M290.127,-154.043C314.248,-159.184 343.797,-165.481 369.171,-170.889"/>
<polygon fill="midnightblue" stroke="midnightblue" points="368.523,-174.329 379.033,-172.991 369.982,-167.483 368.523,-174.329"/>
</g>
<!-- Node4 -->
<g id="node4" class="node"><title>Node4</title>
<g id="a_node4"><a xlink:href="class_registration_type.html#a37e3b427edd302135828decaadfe4fe6" target="_top" xlink:title="Create an associative array of object properties from XML. ">
<polygon fill="white" stroke="black" points="353.133,-134 353.133,-154 500.867,-154 500.867,-134 353.133,-134"/>
<text text-anchor="middle" x="427" y="-140" font-family="Helvetica,sans-Serif" font-size="10.00">RegistrationType\createStruct</text>
</a>
</g>
</g>
<!-- Node2&#45;&gt;Node4 -->
<g id="edge3" class="edge"><title>Node2&#45;&gt;Node4</title>
<path fill="none" stroke="midnightblue" d="M291.56,-144C307.316,-144 325.269,-144 342.81,-144"/>
<polygon fill="midnightblue" stroke="midnightblue" points="343.072,-147.5 353.072,-144 343.072,-140.5 343.072,-147.5"/>
</g>
<!-- Node5 -->
<g id="node5" class="node"><title>Node5</title>
<g id="a_node5"><a xlink:href="class_event_fee.html#a6aeb5d79e6b0e785bddd966a31a45070" target="_top" xlink:title="Create associate array of object from XML. ">
<polygon fill="white" stroke="black" points="545.254,-141 545.254,-161 660.746,-161 660.746,-141 545.254,-141"/>
<text text-anchor="middle" x="603" y="-147" font-family="Helvetica,sans-Serif" font-size="10.00">EventFee\createStruct</text>
</a>
</g>
</g>
<!-- Node4&#45;&gt;Node5 -->
<g id="edge4" class="edge"><title>Node4&#45;&gt;Node5</title>
<path fill="none" stroke="midnightblue" d="M501.035,-146.938C512.286,-147.391 523.856,-147.856 534.967,-148.303"/>
<polygon fill="midnightblue" stroke="midnightblue" points="534.887,-151.803 545.019,-148.708 535.168,-144.808 534.887,-151.803"/>
</g>
<!-- Node7 -->
<g id="node7" class="node"><title>Node7</title>
<g id="a_node7"><a xlink:href="class_o_auth_request.html#afe9d0f6cb8e0dadb1c0faeea9ecafe45" target="_top" xlink:title="pretty much a helper function to set up the request ">
<polygon fill="white" stroke="black" points="350.079,-77 350.079,-109 503.921,-109 503.921,-77 350.079,-77"/>
<text text-anchor="start" x="358.079" y="-95" font-family="Helvetica,sans-Serif" font-size="10.00">OAuthRequest\from_consumer</text>
<text text-anchor="middle" x="427" y="-83" font-family="Helvetica,sans-Serif" font-size="10.00">_and_token</text>
</a>
</g>
</g>
<!-- Node6&#45;&gt;Node7 -->
<g id="edge6" class="edge"><title>Node6&#45;&gt;Node7</title>
<path fill="none" stroke="midnightblue" d="M314.277,-93C322.716,-93 331.397,-93 340.013,-93"/>
<polygon fill="midnightblue" stroke="midnightblue" points="340.079,-96.5001 350.079,-93 340.078,-89.5001 340.079,-96.5001"/>
</g>
<!-- Node10 -->
<g id="node10" class="node"><title>Node10</title>
<g id="a_node10"><a xlink:href="class_c_t_c_t_exception.html#adc8307ec7d7a2c730b0dac678d0e7fcb" target="_top" xlink:title="CTCTException\\generateError">
<polygon fill="white" stroke="black" points="351.473,-25 351.473,-45 502.527,-45 502.527,-25 351.473,-25"/>
<text text-anchor="middle" x="427" y="-31" font-family="Helvetica,sans-Serif" font-size="10.00">CTCTException\generateError</text>
</a>
</g>
</g>
<!-- Node6&#45;&gt;Node10 -->
<g id="edge9" class="edge"><title>Node6&#45;&gt;Node10</title>
<path fill="none" stroke="midnightblue" d="M274.876,-82.8972C305.223,-73.2791 351.068,-58.749 384.304,-48.2152"/>
<polygon fill="midnightblue" stroke="midnightblue" points="385.707,-51.442 394.183,-45.0842 383.592,-44.7691 385.707,-51.442"/>
</g>
<!-- Node8 -->
<g id="node8" class="node"><title>Node8</title>
<g id="a_node8"><a xlink:href="class_o_auth_request.html#ae544b1c10b82d5a82dcc259064763420" target="_top" xlink:title="util function: current nonce ">
<polygon fill="white" stroke="black" points="541.074,-90 541.074,-122 664.926,-122 664.926,-90 541.074,-90"/>
<text text-anchor="start" x="549.074" y="-108" font-family="Helvetica,sans-Serif" font-size="10.00">OAuthRequest\generate</text>
<text text-anchor="middle" x="603" y="-96" font-family="Helvetica,sans-Serif" font-size="10.00">_nonce</text>
</a>
</g>
</g>
<!-- Node7&#45;&gt;Node8 -->
<g id="edge7" class="edge"><title>Node7&#45;&gt;Node8</title>
<path fill="none" stroke="midnightblue" d="M504.066,-98.6831C512.939,-99.346 521.966,-100.02 530.771,-100.678"/>
<polygon fill="midnightblue" stroke="midnightblue" points="530.748,-104.186 540.981,-101.441 531.27,-97.2057 530.748,-104.186"/>
</g>
<!-- Node9 -->
<g id="node9" class="node"><title>Node9</title>
<g id="a_node9"><a xlink:href="class_o_auth_request.html#adfc6b936799f705d9a4442961a26e8cb" target="_top" xlink:title="util function: current timestamp ">
<polygon fill="white" stroke="black" points="541.074,-39 541.074,-71 664.926,-71 664.926,-39 541.074,-39"/>
<text text-anchor="start" x="549.074" y="-57" font-family="Helvetica,sans-Serif" font-size="10.00">OAuthRequest\generate</text>
<text text-anchor="middle" x="603" y="-45" font-family="Helvetica,sans-Serif" font-size="10.00">_timestamp</text>
</a>
</g>
</g>
<!-- Node7&#45;&gt;Node9 -->
<g id="edge8" class="edge"><title>Node7&#45;&gt;Node9</title>
<path fill="none" stroke="midnightblue" d="M501.287,-76.9947C511.076,-74.857 521.102,-72.6675 530.853,-70.5379"/>
<polygon fill="midnightblue" stroke="midnightblue" points="531.87,-73.8983 540.893,-68.3452 530.377,-67.0595 531.87,-73.8983"/>
</g>
<!-- Node11 -->
<g id="node11" class="node"><title>Node11</title>
<g id="a_node11"><a xlink:href="class_c_t_c_t_exception.html#a6a86531406328bbd2a6c6252b7fb3a70" target="_top" xlink:title="CTCTException\\logError">
<polygon fill="white" stroke="black" points="540.54,-0 540.54,-20 665.46,-20 665.46,-0 540.54,-0"/>
<text text-anchor="middle" x="603" y="-6" font-family="Helvetica,sans-Serif" font-size="10.00">CTCTException\logError</text>
</a>
</g>
</g>
<!-- Node10&#45;&gt;Node11 -->
<g id="edge10" class="edge"><title>Node10&#45;&gt;Node11</title>
<path fill="none" stroke="midnightblue" d="M497.77,-24.9756C508.446,-23.4417 519.482,-21.8561 530.2,-20.316"/>
<polygon fill="midnightblue" stroke="midnightblue" points="530.957,-23.7434 540.358,-18.8567 529.961,-16.8145 530.957,-23.7434"/>
</g>
</g>
</svg>
