<?xml version="1.0" encoding="UTF-8" standalone="no"?>
<!DOCTYPE svg PUBLIC "-//W3C//DTD SVG 1.1//EN"
 "http://www.w3.org/Graphics/SVG/1.1/DTD/svg11.dtd">
<!-- Generated by graphviz version 2.30.1 (20130221.2233)
 -->
<!-- Title: Schedule\createStruct Pages: 1 -->
<svg width="268pt" height="91pt"
 viewBox="0.00 0.00 268.00 91.00" xmlns="http://www.w3.org/2000/svg" xmlns:xlink="http://www.w3.org/1999/xlink">
<g id="graph0" class="graph" transform="scale(1 1) rotate(0) translate(4 87)">
<title>Schedule\createStruct</title>
<polygon fill="white" stroke="white" points="-4,5 -4,-87 265,-87 265,5 -4,5"/>
<!-- Node1 -->
<g id="node1" class="node"><title>Node1</title>
<polygon fill="#bfbfbf" stroke="black" points="-0.194336,-31 -0.194336,-51 114.194,-51 114.194,-31 -0.194336,-31"/>
<text text-anchor="middle" x="57" y="-37" font-family="Helvetica,sans-Serif" font-size="10.00">Schedule\createStruct</text>
</g>
<!-- Node2 -->
<g id="node2" class="node"><title>Node2</title>
<g id="a_node2"><a xlink:href="class_campaigns_collection.html#a7b245605bb0707dfec9d384521a39ad6" target="_top" xlink:title="Get a schedule for an email. ">
<polygon fill="white" stroke="black" points="149.754,-51 149.754,-83 260.246,-83 260.246,-51 149.754,-51"/>
<text text-anchor="start" x="157.754" y="-69" font-family="Helvetica,sans-Serif" font-size="10.00">CampaignsCollection</text>
<text text-anchor="middle" x="205" y="-57" font-family="Helvetica,sans-Serif" font-size="10.00">\getSchedule</text>
</a>
</g>
</g>
<!-- Node1&#45;&gt;Node2 -->
<g id="edge1" class="edge"><title>Node1&#45;&gt;Node2</title>
<path fill="none" stroke="midnightblue" d="M124.308,-52.8083C132.779,-54.3167 141.37,-55.8468 149.622,-57.3162"/>
<polygon fill="midnightblue" stroke="midnightblue" points="124.906,-49.3598 114.447,-51.0523 123.679,-56.2514 124.906,-49.3598"/>
</g>
<!-- Node3 -->
<g id="node3" class="node"><title>Node3</title>
<g id="a_node3"><a xlink:href="class_campaigns_collection.html#a0d5df67f0dd50c64257c8b0135196509" target="_top" xlink:title="Schedule an email for delivery. ">
<polygon fill="white" stroke="black" points="149.754,-0 149.754,-32 260.246,-32 260.246,-0 149.754,-0"/>
<text text-anchor="start" x="157.754" y="-18" font-family="Helvetica,sans-Serif" font-size="10.00">CampaignsCollection</text>
<text text-anchor="middle" x="205" y="-6" font-family="Helvetica,sans-Serif" font-size="10.00">\scheduleCampaign</text>
</a>
</g>
</g>
<!-- Node1&#45;&gt;Node3 -->
<g id="edge2" class="edge"><title>Node1&#45;&gt;Node3</title>
<path fill="none" stroke="midnightblue" d="M124.308,-29.6459C132.779,-28.1955 141.37,-26.7243 149.622,-25.3113"/>
<polygon fill="midnightblue" stroke="midnightblue" points="123.713,-26.1967 114.447,-31.3343 124.895,-33.0963 123.713,-26.1967"/>
</g>
</g>
</svg>
