<?xml version="1.0" encoding="UTF-8" standalone="no"?>
<!DOCTYPE svg PUBLIC "-//W3C//DTD SVG 1.1//EN"
 "http://www.w3.org/Graphics/SVG/1.1/DTD/svg11.dtd">
<!-- Generated by graphviz version 2.30.1 (20130221.2233)
 -->
<!-- Title: CTCTOAuth\getAccessToken Pages: 1 -->
<svg width="504pt" height="104pt"
 viewBox="0.00 0.00 504.00 104.00" xmlns="http://www.w3.org/2000/svg" xmlns:xlink="http://www.w3.org/1999/xlink">
<g id="graph0" class="graph" transform="scale(1 1) rotate(0) translate(4 100)">
<title>CTCTOAuth\getAccessToken</title>
<polygon fill="white" stroke="white" points="-4,5 -4,-100 501,-100 501,5 -4,5"/>
<!-- Node1 -->
<g id="node1" class="node"><title>Node1</title>
<polygon fill="#bfbfbf" stroke="black" points="-0.214844,-22 -0.214844,-42 146.215,-42 146.215,-22 -0.214844,-22"/>
<text text-anchor="middle" x="73" y="-28" font-family="Helvetica,sans-Serif" font-size="10.00">CTCTOAuth\getAccessToken</text>
</g>
<!-- Node2 -->
<g id="node2" class="node"><title>Node2</title>
<g id="a_node2"><a xlink:href="class_o_auth_request.html#afe9d0f6cb8e0dadb1c0faeea9ecafe45" target="_top" xlink:title="pretty much a helper function to set up the request ">
<polygon fill="white" stroke="black" points="182.079,-39 182.079,-71 335.921,-71 335.921,-39 182.079,-39"/>
<text text-anchor="start" x="190.079" y="-57" font-family="Helvetica,sans-Serif" font-size="10.00">OAuthRequest\from_consumer</text>
<text text-anchor="middle" x="259" y="-45" font-family="Helvetica,sans-Serif" font-size="10.00">_and_token</text>
</a>
</g>
</g>
<!-- Node1&#45;&gt;Node2 -->
<g id="edge1" class="edge"><title>Node1&#45;&gt;Node2</title>
<path fill="none" stroke="midnightblue" d="M146.458,-41.0572C154.842,-42.1053 163.454,-43.1818 171.997,-44.2496"/>
<polygon fill="midnightblue" stroke="midnightblue" points="171.618,-47.7295 181.975,-45.4969 172.487,-40.7835 171.618,-47.7295"/>
</g>
<!-- Node5 -->
<g id="node5" class="node"><title>Node5</title>
<g id="a_node5"><a xlink:href="class_c_t_c_t_o_auth.html#ab7c2df8064e085ae8f2ee50a1aef5697" target="_top" xlink:title="CTCTOAuth\\httpRequest">
<polygon fill="white" stroke="black" points="195.231,-0 195.231,-20 322.769,-20 322.769,-0 195.231,-0"/>
<text text-anchor="middle" x="259" y="-6" font-family="Helvetica,sans-Serif" font-size="10.00">CTCTOAuth\httpRequest</text>
</a>
</g>
</g>
<!-- Node1&#45;&gt;Node5 -->
<g id="edge4" class="edge"><title>Node1&#45;&gt;Node5</title>
<path fill="none" stroke="midnightblue" d="M146.458,-23.3366C159.154,-21.8185 172.371,-20.2382 185.08,-18.7187"/>
<polygon fill="midnightblue" stroke="midnightblue" points="185.63,-22.1779 195.144,-17.5154 184.799,-15.2274 185.63,-22.1779"/>
</g>
<!-- Node3 -->
<g id="node3" class="node"><title>Node3</title>
<g id="a_node3"><a xlink:href="class_o_auth_request.html#ae544b1c10b82d5a82dcc259064763420" target="_top" xlink:title="util function: current nonce ">
<polygon fill="white" stroke="black" points="372.074,-64 372.074,-96 495.926,-96 495.926,-64 372.074,-64"/>
<text text-anchor="start" x="380.074" y="-82" font-family="Helvetica,sans-Serif" font-size="10.00">OAuthRequest\generate</text>
<text text-anchor="middle" x="434" y="-70" font-family="Helvetica,sans-Serif" font-size="10.00">_nonce</text>
</a>
</g>
</g>
<!-- Node2&#45;&gt;Node3 -->
<g id="edge2" class="edge"><title>Node2&#45;&gt;Node3</title>
<path fill="none" stroke="midnightblue" d="M336.132,-66.0017C344.733,-67.2446 353.472,-68.5075 362.003,-69.7404"/>
<polygon fill="midnightblue" stroke="midnightblue" points="361.504,-73.2045 371.902,-71.1708 362.506,-66.2765 361.504,-73.2045"/>
</g>
<!-- Node4 -->
<g id="node4" class="node"><title>Node4</title>
<g id="a_node4"><a xlink:href="class_o_auth_request.html#adfc6b936799f705d9a4442961a26e8cb" target="_top" xlink:title="util function: current timestamp ">
<polygon fill="white" stroke="black" points="372.074,-13 372.074,-45 495.926,-45 495.926,-13 372.074,-13"/>
<text text-anchor="start" x="380.074" y="-31" font-family="Helvetica,sans-Serif" font-size="10.00">OAuthRequest\generate</text>
<text text-anchor="middle" x="434" y="-19" font-family="Helvetica,sans-Serif" font-size="10.00">_timestamp</text>
</a>
</g>
</g>
<!-- Node2&#45;&gt;Node4 -->
<g id="edge3" class="edge"><title>Node2&#45;&gt;Node4</title>
<path fill="none" stroke="midnightblue" d="M336.132,-43.5582C344.733,-42.2656 353.472,-40.9522 362.003,-39.67"/>
<polygon fill="midnightblue" stroke="midnightblue" points="362.533,-43.1298 371.902,-38.1823 361.493,-36.2075 362.533,-43.1298"/>
</g>
</g>
</svg>
