<?xml version="1.0" encoding="UTF-8" standalone="no"?>
<!DOCTYPE svg PUBLIC "-//W3C//DTD SVG 1.1//EN"
 "http://www.w3.org/Graphics/SVG/1.1/DTD/svg11.dtd">
<!-- Generated by graphviz version 2.30.1 (20130221.2233)
 -->
<!-- Title: JsonLoader\getSends Pages: 1 -->
<svg width="310pt" height="91pt"
 viewBox="0.00 0.00 310.00 91.00" xmlns="http://www.w3.org/2000/svg" xmlns:xlink="http://www.w3.org/1999/xlink">
<g id="graph0" class="graph" transform="scale(1 1) rotate(0) translate(4 87)">
<title>JsonLoader\getSends</title>
<polygon fill="white" stroke="white" points="-4,5 -4,-87 307,-87 307,5 -4,5"/>
<!-- Node1 -->
<g id="node1" class="node"><title>Node1</title>
<polygon fill="#bfbfbf" stroke="black" points="0.352539,-31 0.352539,-51 113.647,-51 113.647,-31 0.352539,-31"/>
<text text-anchor="middle" x="57" y="-37" font-family="Helvetica,sans-Serif" font-size="10.00">JsonLoader\getSends</text>
</g>
<!-- Node2 -->
<g id="node2" class="node"><title>Node2</title>
<g id="a_node2"><a xlink:href="class_contact_tracking_service_unit_test.html#a45ce7706ca9d9c75b6de5ce1436893e7" target="_top" xlink:title="ContactTrackingServiceUnit\lTest\\testGetSends">
<polygon fill="white" stroke="black" points="156.215,-51 156.215,-83 295.785,-83 295.785,-51 156.215,-51"/>
<text text-anchor="start" x="164.215" y="-69" font-family="Helvetica,sans-Serif" font-size="10.00">ContactTrackingServiceUnit</text>
<text text-anchor="middle" x="226" y="-57" font-family="Helvetica,sans-Serif" font-size="10.00">Test\testGetSends</text>
</a>
</g>
</g>
<!-- Node1&#45;&gt;Node2 -->
<g id="edge1" class="edge"><title>Node1&#45;&gt;Node2</title>
<path fill="none" stroke="midnightblue" d="M124.014,-51.2777C134.531,-52.915 145.435,-54.6126 156.018,-56.2603"/>
<polygon fill="midnightblue" stroke="midnightblue" points="124.493,-47.8101 114.073,-49.73 123.416,-54.7267 124.493,-47.8101"/>
</g>
<!-- Node3 -->
<g id="node3" class="node"><title>Node3</title>
<g id="a_node3"><a xlink:href="class_campaign_tracking_service_unit_test.html#ac7d30581742bfa0180dde779e7fda8e1" target="_top" xlink:title="CampaignTrackingServiceUnit\lTest\\testGetSends">
<polygon fill="white" stroke="black" points="150.656,-0 150.656,-32 301.344,-32 301.344,-0 150.656,-0"/>
<text text-anchor="start" x="158.656" y="-18" font-family="Helvetica,sans-Serif" font-size="10.00">CampaignTrackingServiceUnit</text>
<text text-anchor="middle" x="226" y="-6" font-family="Helvetica,sans-Serif" font-size="10.00">Test\testGetSends</text>
</a>
</g>
</g>
<!-- Node1&#45;&gt;Node3 -->
<g id="edge2" class="edge"><title>Node1&#45;&gt;Node3</title>
<path fill="none" stroke="midnightblue" d="M124.074,-31.1087C132.715,-29.8151 141.617,-28.4825 150.386,-27.1697"/>
<polygon fill="midnightblue" stroke="midnightblue" points="123.445,-27.6638 114.073,-32.6058 124.481,-34.5867 123.445,-27.6638"/>
</g>
</g>
</svg>
