<?xml version="1.0" encoding="UTF-8" standalone="no"?>
<!DOCTYPE svg PUBLIC "-//W3C//DTD SVG 1.1//EN"
 "http://www.w3.org/Graphics/SVG/1.1/DTD/svg11.dtd">
<!-- Generated by graphviz version 2.30.1 (20130221.2233)
 -->
<!-- Title: OAuthRequest\get_signable_parameters Pages: 1 -->
<svg width="332pt" height="40pt"
 viewBox="0.00 0.00 332.00 40.00" xmlns="http://www.w3.org/2000/svg" xmlns:xlink="http://www.w3.org/1999/xlink">
<g id="graph0" class="graph" transform="scale(1 1) rotate(0) translate(4 36)">
<title>OAuthRequest\get_signable_parameters</title>
<polygon fill="white" stroke="white" points="-4,5 -4,-36 329,-36 329,5 -4,5"/>
<!-- Node1 -->
<g id="node1" class="node"><title>Node1</title>
<polygon fill="#bfbfbf" stroke="black" points="0.456055,-0 0.456055,-32 141.544,-32 141.544,-0 0.456055,-0"/>
<text text-anchor="start" x="8.45605" y="-18" font-family="Helvetica,sans-Serif" font-size="10.00">OAuthRequest\get_signable</text>
<text text-anchor="middle" x="71" y="-6" font-family="Helvetica,sans-Serif" font-size="10.00">_parameters</text>
</g>
<!-- Node2 -->
<g id="node2" class="node"><title>Node2</title>
<g id="a_node2"><a xlink:href="class_o_auth_request.html#a91adca76e918ade136d9c56a46695e46" target="_top" xlink:title="Returns the base string of this request. ">
<polygon fill="white" stroke="black" points="178.513,-0 178.513,-32 323.487,-32 323.487,-0 178.513,-0"/>
<text text-anchor="start" x="186.513" y="-18" font-family="Helvetica,sans-Serif" font-size="10.00">OAuthRequest\get_signature</text>
<text text-anchor="middle" x="251" y="-6" font-family="Helvetica,sans-Serif" font-size="10.00">_base_string</text>
</a>
</g>
</g>
<!-- Node1&#45;&gt;Node2 -->
<g id="edge1" class="edge"><title>Node1&#45;&gt;Node2</title>
<path fill="none" stroke="midnightblue" d="M151.596,-16C160.529,-16 169.589,-16 178.412,-16"/>
<polygon fill="midnightblue" stroke="midnightblue" points="151.584,-12.5001 141.584,-16 151.584,-19.5001 151.584,-12.5001"/>
</g>
</g>
</svg>
