<?xml version="1.0" encoding="UTF-8" standalone="no"?>
<!DOCTYPE svg PUBLIC "-//W3C//DTD SVG 1.1//EN"
 "http://www.w3.org/Graphics/SVG/1.1/DTD/svg11.dtd">
<!-- Generated by graphviz version 2.30.1 (20130221.2233)
 -->
<!-- Title: CTCTRequest\makeRequest Pages: 1 -->
<!--zoomable 1705 -->
<svg id="main" version="1.1" xmlns="http://www.w3.org/2000/svg" xmlns:xlink="http://www.w3.org/1999/xlink" xml:space="preserve" onload="init(evt)">
<style type="text/css"><![CDATA[
.edge:hover path { stroke: red; }
.edge:hover polygon { stroke: red; fill: red; }
]]></style>
<script type="text/javascript"><![CDATA[
var edges = document.getElementsByTagName('g');
if (edges && edges.length) {
  for (var i=0;i<edges.length;i++) {
    if (edges[i].id.substr(0,4)=='edge') {
      edges[i].setAttribute('class','edge');
    }
  }
}
]]></script>
        <defs>
                <circle id="rim" cx="0" cy="0" r="7"/>
                <circle id="rim2" cx="0" cy="0" r="3.5"/>
                <g id="zoomPlus">
                        <use xlink:href="#rim" fill="#404040">
                                <set attributeName="fill" to="#808080" begin="zoomplus.mouseover" end="zoomplus.mouseout"/>
                        </use>
                        <path d="M-4,0h8M0,-4v8" fill="none" stroke="white" stroke-width="1.5" pointer-events="none"/>
                </g>
                <g id="zoomMin">
                        <use xlink:href="#rim" fill="#404040">
                                <set attributeName="fill" to="#808080" begin="zoomminus.mouseover" end="zoomminus.mouseout"/>
                        </use>
                        <path d="M-4,0h8" fill="none" stroke="white" stroke-width="1.5" pointer-events="none"/>
                </g>
                <g id="dirArrow">
                        <path fill="none" stroke="white" stroke-width="1.5" d="M0,-3.0v7 M-2.5,-0.5L0,-3.0L2.5,-0.5"/>
                </g>
               <g id="resetDef">
                       <use xlink:href="#rim2" fill="#404040">
                               <set attributeName="fill" to="#808080" begin="reset.mouseover" end="reset.mouseout"/>
                       </use>
               </g>
        </defs>

<script type="text/javascript">
var viewWidth = 534;
var viewHeight = 1705;
var sectionId = 'dynsection-3';
</script>
<script xlink:href="svgpan.js"/>
<svg id="graph" class="graph">
<g id="viewport">
<title>CTCTRequest\makeRequest</title>
<polygon fill="white" stroke="white" points="-4,5 -4,-1701 531,-1701 531,5 -4,5"/>
<!-- Node1 -->
<g id="node1" class="node"><title>Node1</title>
<polygon fill="#bfbfbf" stroke="black" points="-0.191895,-814 -0.191895,-834 144.192,-834 144.192,-814 -0.191895,-814"/>
<text text-anchor="middle" x="72" y="-820" font-family="Helvetica,sans-Serif" font-size="10.00">CTCTRequest\makeRequest</text>
</g>
<!-- Node2 -->
<g id="node2" class="node"><title>Node2</title>
<g id="a_node2"><a xlink:href="class_campaigns_collection.html#a4bbf8266fa150e04a4bff5a8052967a6" target="_top" xlink:title="Add a new Campaign. ">
<polygon fill="white" stroke="black" points="203.754,-1665 203.754,-1697 314.246,-1697 314.246,-1665 203.754,-1665"/>
<text text-anchor="start" x="211.754" y="-1683" font-family="Helvetica,sans-Serif" font-size="10.00">CampaignsCollection</text>
<text text-anchor="middle" x="259" y="-1671" font-family="Helvetica,sans-Serif" font-size="10.00">\addCampaign</text>
</a>
</g>
</g>
<!-- Node1&#45;&gt;Node2 -->
<g id="edge1" class="edge"><title>Node1&#45;&gt;Node2</title>
<path fill="none" stroke="midnightblue" d="M72.7962,-844.192C72.0419,-958.699 73.773,-1525.91 180,-1655 186.168,-1662.49 194.562,-1667.84 203.565,-1671.66"/>
<polygon fill="midnightblue" stroke="midnightblue" points="76.2973,-844.06 72.8786,-834.032 69.2976,-844.003 76.2973,-844.06"/>
</g>
<!-- Node3 -->
<g id="node3" class="node"><title>Node3</title>
<g id="a_node3"><a xlink:href="class_contacts_collection.html#a58610b21a633bfe30cc66a5f54a107a7" target="_top" xlink:title="Add a contact to account. ">
<polygon fill="white" stroke="black" points="209.313,-1614 209.313,-1646 308.687,-1646 308.687,-1614 209.313,-1614"/>
<text text-anchor="start" x="217.313" y="-1632" font-family="Helvetica,sans-Serif" font-size="10.00">ContactsCollection</text>
<text text-anchor="middle" x="259" y="-1620" font-family="Helvetica,sans-Serif" font-size="10.00">\addContact</text>
</a>
</g>
</g>
<!-- Node1&#45;&gt;Node3 -->
<g id="edge2" class="edge"><title>Node1&#45;&gt;Node3</title>
<path fill="none" stroke="midnightblue" d="M72.9848,-844.326C73.3039,-954.915 80.0992,-1483.62 180,-1604 187.475,-1613.01 198.164,-1618.91 209.241,-1622.78"/>
<polygon fill="midnightblue" stroke="midnightblue" points="76.4847,-844.188 72.9714,-834.192 69.4847,-844.197 76.4847,-844.188"/>
</g>
<!-- Node4 -->
<g id="node4" class="node"><title>Node4</title>
<g id="a_node4"><a xlink:href="class_library_collection.html#affc91465d0f01c4ede19c149424ea7f2" target="_top" xlink:title="Add a new Folder. ">
<polygon fill="white" stroke="black" points="189.857,-1575 189.857,-1595 328.143,-1595 328.143,-1575 189.857,-1575"/>
<text text-anchor="middle" x="259" y="-1581" font-family="Helvetica,sans-Serif" font-size="10.00">LibraryCollection\addFolder</text>
</a>
</g>
</g>
<!-- Node1&#45;&gt;Node4 -->
<g id="edge3" class="edge"><title>Node1&#45;&gt;Node4</title>
<path fill="none" stroke="midnightblue" d="M73.0063,-844.433C73.4596,-952.293 80.9278,-1454.65 180,-1565 183.642,-1569.06 187.985,-1572.34 192.731,-1575"/>
<polygon fill="midnightblue" stroke="midnightblue" points="76.5059,-844.244 72.9806,-834.252 69.5059,-844.261 76.5059,-844.244"/>
</g>
<!-- Node5 -->
<g id="node5" class="node"><title>Node5</title>
<g id="a_node5"><a xlink:href="class_lists_collection.html#ae86ac9787cede610e609395c71d9180c" target="_top" xlink:title="Add a new list to Constant Contact account. ">
<polygon fill="white" stroke="black" points="201.251,-1536 201.251,-1556 316.749,-1556 316.749,-1536 201.251,-1536"/>
<text text-anchor="middle" x="259" y="-1542" font-family="Helvetica,sans-Serif" font-size="10.00">ListsCollection\addList</text>
</a>
</g>
</g>
<!-- Node1&#45;&gt;Node5 -->
<g id="edge4" class="edge"><title>Node1&#45;&gt;Node5</title>
<path fill="none" stroke="midnightblue" d="M73.1851,-844.336C74.5502,-948.566 85.9176,-1422.03 180,-1526 185.722,-1532.32 193.146,-1536.77 201.135,-1539.87"/>
<polygon fill="midnightblue" stroke="midnightblue" points="76.6835,-844.169 73.0699,-834.209 69.684,-844.249 76.6835,-844.169"/>
</g>
<!-- Node6 -->
<g id="node6" class="node"><title>Node6</title>
<g id="a_node6"><a xlink:href="class_activities_collection.html#aa5373dc495a33732f64bc330fc86f8f3" target="_top" xlink:title="Add multiple contacts at once. ">
<polygon fill="white" stroke="black" points="209.318,-1485 209.318,-1517 308.682,-1517 308.682,-1485 209.318,-1485"/>
<text text-anchor="start" x="217.318" y="-1503" font-family="Helvetica,sans-Serif" font-size="10.00">ActivitiesCollection</text>
<text text-anchor="middle" x="259" y="-1491" font-family="Helvetica,sans-Serif" font-size="10.00">\bulkAddContacts</text>
</a>
</g>
</g>
<!-- Node1&#45;&gt;Node6 -->
<g id="edge5" class="edge"><title>Node1&#45;&gt;Node6</title>
<path fill="none" stroke="midnightblue" d="M73.6022,-844.601C76.92,-944.364 96.0122,-1376.49 180,-1475 187.501,-1483.8 198.064,-1489.63 209.001,-1493.5"/>
<polygon fill="midnightblue" stroke="midnightblue" points="77.0927,-844.241 73.2793,-834.356 70.0962,-844.461 77.0927,-844.241"/>
</g>
<!-- Node7 -->
<g id="node7" class="node"><title>Node7</title>
<g id="a_node7"><a xlink:href="class_campaigns_collection.html#af8bbae16c19c800f6fe4e5e605c57812" target="_top" xlink:title="Delete a Campaign. ">
<polygon fill="white" stroke="black" points="203.754,-1434 203.754,-1466 314.246,-1466 314.246,-1434 203.754,-1434"/>
<text text-anchor="start" x="211.754" y="-1452" font-family="Helvetica,sans-Serif" font-size="10.00">CampaignsCollection</text>
<text text-anchor="middle" x="259" y="-1440" font-family="Helvetica,sans-Serif" font-size="10.00">\deleteCampaign</text>
</a>
</g>
</g>
<!-- Node1&#45;&gt;Node7 -->
<g id="edge6" class="edge"><title>Node1&#45;&gt;Node7</title>
<path fill="none" stroke="midnightblue" d="M73.9114,-844.479C78.5225,-939.197 102.208,-1334 180,-1424 186.254,-1431.24 194.577,-1436.46 203.458,-1440.24"/>
<polygon fill="midnightblue" stroke="midnightblue" points="77.406,-844.282 73.4412,-834.457 70.4137,-844.61 77.406,-844.282"/>
</g>
<!-- Node8 -->
<g id="node8" class="node"><title>Node8</title>
<g id="a_node8"><a xlink:href="class_contacts_collection.html#a9d6f8953c0599fd35b49bbb1b72614b8" target="_top" xlink:title="Delete a Contact. ">
<polygon fill="white" stroke="black" points="209.313,-1383 209.313,-1415 308.687,-1415 308.687,-1383 209.313,-1383"/>
<text text-anchor="start" x="217.313" y="-1401" font-family="Helvetica,sans-Serif" font-size="10.00">ContactsCollection</text>
<text text-anchor="middle" x="259" y="-1389" font-family="Helvetica,sans-Serif" font-size="10.00">\deleteContact</text>
</a>
</g>
</g>
<!-- Node1&#45;&gt;Node8 -->
<g id="edge7" class="edge"><title>Node1&#45;&gt;Node8</title>
<path fill="none" stroke="midnightblue" d="M74.2574,-844.123C80.2106,-933.222 108.321,-1291.4 180,-1373 187.631,-1381.69 198.241,-1387.48 209.182,-1391.34"/>
<polygon fill="midnightblue" stroke="midnightblue" points="77.741,-843.756 73.6004,-834.003 70.7557,-844.209 77.741,-843.756"/>
</g>
<!-- Node9 -->
<g id="node9" class="node"><title>Node9</title>
<g id="a_node9"><a xlink:href="class_library_collection.html#abd5ce3c42f1924c16ae8e1ab2f0b506f" target="_top" xlink:title="Delete image from an account. ">
<polygon fill="white" stroke="black" points="198.749,-1332 198.749,-1364 319.251,-1364 319.251,-1332 198.749,-1332"/>
<text text-anchor="start" x="206.749" y="-1350" font-family="Helvetica,sans-Serif" font-size="10.00">LibraryCollection\delete</text>
<text text-anchor="middle" x="259" y="-1338" font-family="Helvetica,sans-Serif" font-size="10.00">Image</text>
</a>
</g>
</g>
<!-- Node1&#45;&gt;Node9 -->
<g id="edge8" class="edge"><title>Node1&#45;&gt;Node9</title>
<path fill="none" stroke="midnightblue" d="M74.7153,-844.372C82.1972,-928.638 114.573,-1248.94 180,-1322 185.142,-1327.74 191.586,-1332.22 198.553,-1335.71"/>
<polygon fill="midnightblue" stroke="midnightblue" points="78.1923,-843.955 73.8405,-834.295 71.2186,-844.561 78.1923,-843.955"/>
</g>
<!-- Node10 -->
<g id="node10" class="node"><title>Node10</title>
<g id="a_node10"><a xlink:href="class_library_collection.html#a35b66eb41a8bf5de0430efcf903457e2" target="_top" xlink:title="Delete all the images from a folder. ">
<polygon fill="white" stroke="black" points="198.749,-1281 198.749,-1313 319.251,-1313 319.251,-1281 198.749,-1281"/>
<text text-anchor="start" x="206.749" y="-1299" font-family="Helvetica,sans-Serif" font-size="10.00">LibraryCollection\delete</text>
<text text-anchor="middle" x="259" y="-1287" font-family="Helvetica,sans-Serif" font-size="10.00">ImagesFromFolder</text>
</a>
</g>
</g>
<!-- Node1&#45;&gt;Node10 -->
<g id="edge9" class="edge"><title>Node1&#45;&gt;Node10</title>
<path fill="none" stroke="midnightblue" d="M75.2126,-844.011C84.2383,-922.239 120.638,-1206.25 180,-1271 185.209,-1276.68 191.691,-1281.12 198.677,-1284.6"/>
<polygon fill="midnightblue" stroke="midnightblue" points="78.6835,-843.555 74.0801,-834.012 71.728,-844.343 78.6835,-843.555"/>
</g>
<!-- Node11 -->
<g id="node11" class="node"><title>Node11</title>
<g id="a_node11"><a xlink:href="class_lists_collection.html#afcdccd2d9b3c7c33046a6951b8c501d3" target="_top" xlink:title="Delete a ContactList from an account. ">
<polygon fill="white" stroke="black" points="195.971,-1242 195.971,-1262 322.029,-1262 322.029,-1242 195.971,-1242"/>
<text text-anchor="middle" x="259" y="-1248" font-family="Helvetica,sans-Serif" font-size="10.00">ListsCollection\deleteList</text>
</a>
</g>
</g>
<!-- Node1&#45;&gt;Node11 -->
<g id="edge10" class="edge"><title>Node1&#45;&gt;Node11</title>
<path fill="none" stroke="midnightblue" d="M75.5917,-844.278C85.5045,-918.734 123.329,-1175.64 180,-1232 184.56,-1236.53 189.999,-1240.09 195.855,-1242.86"/>
<polygon fill="midnightblue" stroke="midnightblue" points="79.0548,-843.767 74.287,-834.306 72.1139,-844.675 79.0548,-843.767"/>
</g>
<!-- Node12 -->
<g id="node12" class="node"><title>Node12</title>
<g id="a_node12"><a xlink:href="class_campaigns_collection.html#a69b0afca8af93253a4d8e5e96eaaf875" target="_top" xlink:title="Delete a schedule from a campaign (prevent from sending) ">
<polygon fill="white" stroke="black" points="203.754,-1191 203.754,-1223 314.246,-1223 314.246,-1191 203.754,-1191"/>
<text text-anchor="start" x="211.754" y="-1209" font-family="Helvetica,sans-Serif" font-size="10.00">CampaignsCollection</text>
<text text-anchor="middle" x="259" y="-1197" font-family="Helvetica,sans-Serif" font-size="10.00">\deleteSchedule</text>
</a>
</g>
</g>
<!-- Node1&#45;&gt;Node12 -->
<g id="edge11" class="edge"><title>Node1&#45;&gt;Node12</title>
<path fill="none" stroke="midnightblue" d="M72.9466,-844.21C73.9044,-904.181 84.9908,-1083.04 180,-1181 186.559,-1187.76 194.921,-1192.77 203.719,-1196.47"/>
<polygon fill="midnightblue" stroke="midnightblue" points="76.4461,-844.121 72.8678,-834.149 69.4463,-844.176 76.4461,-844.121"/>
</g>
<!-- Node13 -->
<g id="node13" class="node"><title>Node13</title>
<g id="a_node13"><a xlink:href="class_settings_collection.html#a5b55d829b678ff6e8ef61cb7c3af3afe" target="_top" xlink:title="Get a list of verified email addresses for an account. ">
<polygon fill="white" stroke="black" points="210.978,-1140 210.978,-1172 307.022,-1172 307.022,-1140 210.978,-1140"/>
<text text-anchor="start" x="218.978" y="-1158" font-family="Helvetica,sans-Serif" font-size="10.00">SettingsCollection</text>
<text text-anchor="middle" x="259" y="-1146" font-family="Helvetica,sans-Serif" font-size="10.00">\getAddresses</text>
</a>
</g>
</g>
<!-- Node1&#45;&gt;Node13 -->
<g id="edge12" class="edge"><title>Node1&#45;&gt;Node13</title>
<path fill="none" stroke="midnightblue" d="M74.1243,-844.151C78.2296,-898.254 96.9197,-1048.13 180,-1130 188.439,-1138.32 199.604,-1143.97 210.842,-1147.82"/>
<polygon fill="midnightblue" stroke="midnightblue" points="77.6129,-843.862 73.4517,-834.118 70.6286,-844.33 77.6129,-843.862"/>
</g>
<!-- Node14 -->
<g id="node14" class="node"><title>Node14</title>
<g id="a_node14"><a xlink:href="class_campaigns_collection.html#ac411f9b4976e489a0433606367a6d329" target="_top" xlink:title="Get detailed Campaign object. ">
<polygon fill="white" stroke="black" points="203.754,-1089 203.754,-1121 314.246,-1121 314.246,-1089 203.754,-1089"/>
<text text-anchor="start" x="211.754" y="-1107" font-family="Helvetica,sans-Serif" font-size="10.00">CampaignsCollection</text>
<text text-anchor="middle" x="259" y="-1095" font-family="Helvetica,sans-Serif" font-size="10.00">\getCampaignDetails</text>
</a>
</g>
</g>
<!-- Node1&#45;&gt;Node14 -->
<g id="edge13" class="edge"><title>Node1&#45;&gt;Node14</title>
<path fill="none" stroke="midnightblue" d="M75.7495,-844.249C83.306,-892.076 108.784,-1012.97 180,-1079 186.699,-1085.21 194.924,-1089.94 203.492,-1093.54"/>
<polygon fill="midnightblue" stroke="midnightblue" points="79.1916,-843.6 74.2633,-834.221 72.2672,-844.626 79.1916,-843.6"/>
</g>
<!-- Node15 -->
<g id="node15" class="node"><title>Node15</title>
<g id="a_node15"><a xlink:href="class_campaigns_collection.html#ab3a63de718c94ce760ebf19f59170f0c" target="_top" xlink:title="CampaignsCollection\l\\getCampaignEvents">
<polygon fill="white" stroke="black" points="203.754,-1038 203.754,-1070 314.246,-1070 314.246,-1038 203.754,-1038"/>
<text text-anchor="start" x="211.754" y="-1056" font-family="Helvetica,sans-Serif" font-size="10.00">CampaignsCollection</text>
<text text-anchor="middle" x="259" y="-1044" font-family="Helvetica,sans-Serif" font-size="10.00">\getCampaignEvents</text>
</a>
</g>
</g>
<!-- Node1&#45;&gt;Node15 -->
<g id="edge14" class="edge"><title>Node1&#45;&gt;Node15</title>
<path fill="none" stroke="midnightblue" d="M78.0328,-843.98C89.2796,-884.589 120.279,-977.212 180,-1028 186.85,-1033.83 195.053,-1038.36 203.527,-1041.88"/>
<polygon fill="midnightblue" stroke="midnightblue" points="81.383,-842.959 75.4306,-834.194 74.6181,-844.758 81.383,-842.959"/>
</g>
<!-- Node16 -->
<g id="node16" class="node"><title>Node16</title>
<g id="a_node16"><a xlink:href="class_campaigns_collection.html#a2ec4b8a52341c840c56881d98d0bfdd6" target="_top" xlink:title="Get a page of Campaigns. ">
<polygon fill="white" stroke="black" points="203.754,-987 203.754,-1019 314.246,-1019 314.246,-987 203.754,-987"/>
<text text-anchor="start" x="211.754" y="-1005" font-family="Helvetica,sans-Serif" font-size="10.00">CampaignsCollection</text>
<text text-anchor="middle" x="259" y="-993" font-family="Helvetica,sans-Serif" font-size="10.00">\getCampaigns</text>
</a>
</g>
</g>
<!-- Node1&#45;&gt;Node16 -->
<g id="edge15" class="edge"><title>Node1&#45;&gt;Node16</title>
<path fill="none" stroke="midnightblue" d="M81.5949,-843.564C96.8002,-875.968 131.479,-940.789 180,-977 187.093,-982.293 195.325,-986.548 203.729,-989.956"/>
<polygon fill="midnightblue" stroke="midnightblue" points="84.6849,-841.904 77.3495,-834.26 78.3165,-844.81 84.6849,-841.904"/>
</g>
<!-- Node17 -->
<g id="node17" class="node"><title>Node17</title>
<g id="a_node17"><a xlink:href="class_campaigns_collection.html#a60d74f76a35500fc9bb792fd98d94b3c" target="_top" xlink:title="Get a page of campaigns by status. ">
<polygon fill="white" stroke="black" points="197.36,-936 197.36,-968 320.64,-968 320.64,-936 197.36,-936"/>
<text text-anchor="start" x="205.36" y="-954" font-family="Helvetica,sans-Serif" font-size="10.00">CampaignsCollection</text>
<text text-anchor="middle" x="259" y="-942" font-family="Helvetica,sans-Serif" font-size="10.00">\getCampaignsByStatus</text>
</a>
</g>
</g>
<!-- Node1&#45;&gt;Node17 -->
<g id="edge16" class="edge"><title>Node1&#45;&gt;Node17</title>
<path fill="none" stroke="midnightblue" d="M87.4815,-842.031C106.502,-864.617 141.975,-903.123 180,-926 186.238,-929.753 193.086,-933.042 200.054,-935.904"/>
<polygon fill="midnightblue" stroke="midnightblue" points="90.0944,-839.698 81.026,-834.22 84.6987,-844.158 90.0944,-839.698"/>
</g>
<!-- Node18 -->
<g id="node18" class="node"><title>Node18</title>
<g id="a_node18"><a xlink:href="class_contacts_collection.html#a55c54d5be74863ecc8dfa0f53a4f430f" target="_top" xlink:title="Get detailed Contact object for a given contact. ">
<polygon fill="white" stroke="black" points="209.313,-885 209.313,-917 308.687,-917 308.687,-885 209.313,-885"/>
<text text-anchor="start" x="217.313" y="-903" font-family="Helvetica,sans-Serif" font-size="10.00">ContactsCollection</text>
<text text-anchor="middle" x="259" y="-891" font-family="Helvetica,sans-Serif" font-size="10.00">\getContactDetails</text>
</a>
</g>
</g>
<!-- Node1&#45;&gt;Node18 -->
<g id="edge17" class="edge"><title>Node1&#45;&gt;Node18</title>
<path fill="none" stroke="midnightblue" d="M101.536,-838.783C122.849,-849.531 152.857,-864.056 180,-875 189.267,-878.736 199.298,-882.374 208.982,-885.686"/>
<polygon fill="midnightblue" stroke="midnightblue" points="102.898,-835.548 92.3974,-834.136 99.7251,-841.788 102.898,-835.548"/>
</g>
<!-- Node19 -->
<g id="node19" class="node"><title>Node19</title>
<g id="a_node19"><a xlink:href="class_contacts_collection.html#a8c5270d8d9d42b17b119c41b64b2e991" target="_top" xlink:title="Get events for a given Contact. ">
<polygon fill="white" stroke="black" points="209.313,-834 209.313,-866 308.687,-866 308.687,-834 209.313,-834"/>
<text text-anchor="start" x="217.313" y="-852" font-family="Helvetica,sans-Serif" font-size="10.00">ContactsCollection</text>
<text text-anchor="middle" x="259" y="-840" font-family="Helvetica,sans-Serif" font-size="10.00">\getContactEvents</text>
</a>
</g>
</g>
<!-- Node1&#45;&gt;Node19 -->
<g id="edge18" class="edge"><title>Node1&#45;&gt;Node19</title>
<path fill="none" stroke="midnightblue" d="M154.266,-835.421C172.969,-838.05 192.292,-840.765 209.119,-843.13"/>
<polygon fill="midnightblue" stroke="midnightblue" points="154.651,-831.941 144.261,-834.015 153.677,-838.873 154.651,-831.941"/>
</g>
<!-- Node20 -->
<g id="node20" class="node"><title>Node20</title>
<g id="a_node20"><a xlink:href="class_contacts_collection.html#a9dcfa1067f115ee7ba5f231b5433e912" target="_top" xlink:title="ContactsCollection\l\\getContacts">
<polygon fill="white" stroke="black" points="209.313,-783 209.313,-815 308.687,-815 308.687,-783 209.313,-783"/>
<text text-anchor="start" x="217.313" y="-801" font-family="Helvetica,sans-Serif" font-size="10.00">ContactsCollection</text>
<text text-anchor="middle" x="259" y="-789" font-family="Helvetica,sans-Serif" font-size="10.00">\getContacts</text>
</a>
</g>
</g>
<!-- Node1&#45;&gt;Node20 -->
<g id="edge19" class="edge"><title>Node1&#45;&gt;Node20</title>
<path fill="none" stroke="midnightblue" d="M154.266,-813.018C172.969,-810.491 192.292,-807.879 209.119,-805.606"/>
<polygon fill="midnightblue" stroke="midnightblue" points="153.702,-809.562 144.261,-814.37 154.64,-816.499 153.702,-809.562"/>
</g>
<!-- Node22 -->
<g id="node22" class="node"><title>Node22</title>
<g id="a_node22"><a xlink:href="class_events_collection.html#afb1f27cb72007acfd6f901d743c8acad" target="_top" xlink:title="Get full details for an Event object. ">
<polygon fill="white" stroke="black" points="192.633,-732 192.633,-764 325.367,-764 325.367,-732 192.633,-732"/>
<text text-anchor="start" x="200.633" y="-750" font-family="Helvetica,sans-Serif" font-size="10.00">EventsCollection\getEvent</text>
<text text-anchor="middle" x="259" y="-738" font-family="Helvetica,sans-Serif" font-size="10.00">Details</text>
</a>
</g>
</g>
<!-- Node1&#45;&gt;Node22 -->
<g id="edge21" class="edge"><title>Node1&#45;&gt;Node22</title>
<path fill="none" stroke="midnightblue" d="M101.961,-809.357C123.265,-798.86 153.078,-784.736 180,-774 188.618,-770.563 197.889,-767.196 206.924,-764.083"/>
<polygon fill="midnightblue" stroke="midnightblue" points="100.212,-806.317 92.8122,-813.9 103.325,-812.587 100.212,-806.317"/>
</g>
<!-- Node23 -->
<g id="node23" class="node"><title>Node23</title>
<g id="a_node23"><a xlink:href="class_events_collection.html#ad0ab949e45693fd1d72baed5d5e5d552" target="_top" xlink:title="Get a page of Events. ">
<polygon fill="white" stroke="black" points="190.133,-693 190.133,-713 327.867,-713 327.867,-693 190.133,-693"/>
<text text-anchor="middle" x="259" y="-699" font-family="Helvetica,sans-Serif" font-size="10.00">EventsCollection\getEvents</text>
</a>
</g>
</g>
<!-- Node1&#45;&gt;Node23 -->
<g id="edge22" class="edge"><title>Node1&#45;&gt;Node23</title>
<path fill="none" stroke="midnightblue" d="M86.9858,-806.075C105.714,-783.314 141.119,-744.432 180,-723 187.346,-718.951 195.533,-715.701 203.763,-713.098"/>
<polygon fill="midnightblue" stroke="midnightblue" points="84.1988,-803.956 80.652,-813.939 89.6505,-808.347 84.1988,-803.956"/>
</g>
<!-- Node24 -->
<g id="node24" class="node"><title>Node24</title>
<g id="a_node24"><a xlink:href="class_library_collection.html#a9a59624475132d58b8d356ff17cc3d71" target="_top" xlink:title="Get a page of Folders. ">
<polygon fill="white" stroke="black" points="188.749,-654 188.749,-674 329.251,-674 329.251,-654 188.749,-654"/>
<text text-anchor="middle" x="259" y="-660" font-family="Helvetica,sans-Serif" font-size="10.00">LibraryCollection\getFolders</text>
</a>
</g>
</g>
<!-- Node1&#45;&gt;Node24 -->
<g id="edge23" class="edge"><title>Node1&#45;&gt;Node24</title>
<path fill="none" stroke="midnightblue" d="M82.4452,-804.468C98.2518,-773.913 133.014,-715.094 180,-684 186.179,-679.911 193.142,-676.658 200.301,-674.07"/>
<polygon fill="midnightblue" stroke="midnightblue" points="79.1857,-803.159 77.8211,-813.666 85.4399,-806.303 79.1857,-803.159"/>
</g>
<!-- Node25 -->
<g id="node25" class="node"><title>Node25</title>
<g id="a_node25"><a xlink:href="class_library_collection.html#a058e0d1ce52b8880b71a6203a106ed9d" target="_top" xlink:title="Get details for an image. ">
<polygon fill="white" stroke="black" points="191.525,-603 191.525,-635 326.475,-635 326.475,-603 191.525,-603"/>
<text text-anchor="start" x="199.525" y="-621" font-family="Helvetica,sans-Serif" font-size="10.00">LibraryCollection\getImage</text>
<text text-anchor="middle" x="259" y="-609" font-family="Helvetica,sans-Serif" font-size="10.00">Details</text>
</a>
</g>
</g>
<!-- Node1&#45;&gt;Node25 -->
<g id="edge24" class="edge"><title>Node1&#45;&gt;Node25</title>
<path fill="none" stroke="midnightblue" d="M79.5496,-804.22C92.7036,-767.494 125.8,-688.551 180,-645 184.785,-641.155 190.163,-637.869 195.8,-635.061"/>
<polygon fill="midnightblue" stroke="midnightblue" points="76.2016,-803.192 76.2361,-813.787 82.8161,-805.483 76.2016,-803.192"/>
</g>
<!-- Node26 -->
<g id="node26" class="node"><title>Node26</title>
<g id="a_node26"><a xlink:href="class_library_collection.html#aae2790279001240056f5385ea247c80a" target="_top" xlink:title="Gets a page of images from a folder. ">
<polygon fill="white" stroke="black" points="189.025,-552 189.025,-584 328.975,-584 328.975,-552 189.025,-552"/>
<text text-anchor="start" x="197.025" y="-570" font-family="Helvetica,sans-Serif" font-size="10.00">LibraryCollection\getImages</text>
<text text-anchor="middle" x="259" y="-558" font-family="Helvetica,sans-Serif" font-size="10.00">FromFolder</text>
</a>
</g>
</g>
<!-- Node1&#45;&gt;Node26 -->
<g id="edge25" class="edge"><title>Node1&#45;&gt;Node26</title>
<path fill="none" stroke="midnightblue" d="M76.8085,-803.633C86.1886,-759.098 114.568,-652.387 180,-594 184.26,-590.199 189.093,-586.95 194.216,-584.175"/>
<polygon fill="midnightblue" stroke="midnightblue" points="73.3547,-803.055 74.822,-813.548 80.2183,-804.43 73.3547,-803.055"/>
</g>
<!-- Node27 -->
<g id="node27" class="node"><title>Node27</title>
<g id="a_node27"><a xlink:href="class_lists_collection.html#a4f6e3afda3ab2734a175e1735a0e6e0a" target="_top" xlink:title="Get full details for a ContactList. ">
<polygon fill="white" stroke="black" points="187.36,-513 187.36,-533 330.64,-533 330.64,-513 187.36,-513"/>
<text text-anchor="middle" x="259" y="-519" font-family="Helvetica,sans-Serif" font-size="10.00">ListsCollection\getListDetails</text>
</a>
</g>
</g>
<!-- Node1&#45;&gt;Node27 -->
<g id="edge26" class="edge"><title>Node1&#45;&gt;Node27</title>
<path fill="none" stroke="midnightblue" d="M74.5108,-803.822C79.492,-752.211 100.004,-614.443 180,-543 184.588,-538.903 189.903,-535.623 195.559,-533.001"/>
<polygon fill="midnightblue" stroke="midnightblue" points="71.0064,-803.723 73.6281,-813.988 77.9801,-804.328 71.0064,-803.723"/>
</g>
<!-- Node28 -->
<g id="node28" class="node"><title>Node28</title>
<g id="a_node28"><a xlink:href="class_lists_collection.html#a6669dd5849b06b88788089506f656af5" target="_top" xlink:title="Get a page of contacts from a given list. ">
<polygon fill="white" stroke="black" points="181.806,-474 181.806,-494 336.194,-494 336.194,-474 181.806,-474"/>
<text text-anchor="middle" x="259" y="-480" font-family="Helvetica,sans-Serif" font-size="10.00">ListsCollection\getListMembers</text>
</a>
</g>
</g>
<!-- Node1&#45;&gt;Node28 -->
<g id="edge27" class="edge"><title>Node1&#45;&gt;Node28</title>
<path fill="none" stroke="midnightblue" d="M73.446,-803.735C75.8283,-747.342 90.5421,-587.264 180,-504 184.298,-500 189.285,-496.774 194.62,-494.175"/>
<polygon fill="midnightblue" stroke="midnightblue" points="69.9439,-803.744 73.1089,-813.855 76.94,-803.978 69.9439,-803.744"/>
</g>
<!-- Node29 -->
<g id="node29" class="node"><title>Node29</title>
<g id="a_node29"><a xlink:href="class_lists_collection.html#a81d8be6f107777e34fc2384b2c4b3150" target="_top" xlink:title="Get an array of ContactList objects. ">
<polygon fill="white" stroke="black" points="200.143,-435 200.143,-455 317.857,-455 317.857,-435 200.143,-435"/>
<text text-anchor="middle" x="259" y="-441" font-family="Helvetica,sans-Serif" font-size="10.00">ListsCollection\getLists</text>
</a>
</g>
</g>
<!-- Node1&#45;&gt;Node29 -->
<g id="edge28" class="edge"><title>Node1&#45;&gt;Node29</title>
<path fill="none" stroke="midnightblue" d="M72.5897,-803.767C72.5144,-742.98 80.9325,-560.309 180,-465 185.642,-459.572 192.548,-455.562 199.895,-452.609"/>
<polygon fill="midnightblue" stroke="midnightblue" points="69.0915,-803.979 72.6881,-813.945 76.0912,-803.912 69.0915,-803.979"/>
</g>
<!-- Node30 -->
<g id="node30" class="node"><title>Node30</title>
<g id="a_node30"><a xlink:href="class_events_collection.html#a7ab04dcbb2dd3baed275acf7cf658055" target="_top" xlink:title="Get details for an Event Registrant. ">
<polygon fill="white" stroke="black" points="182.631,-384 182.631,-416 335.369,-416 335.369,-384 182.631,-384"/>
<text text-anchor="start" x="190.631" y="-402" font-family="Helvetica,sans-Serif" font-size="10.00">EventsCollection\getRegistrant</text>
<text text-anchor="middle" x="259" y="-390" font-family="Helvetica,sans-Serif" font-size="10.00">Details</text>
</a>
</g>
</g>
<!-- Node1&#45;&gt;Node30 -->
<g id="edge29" class="edge"><title>Node1&#45;&gt;Node30</title>
<path fill="none" stroke="midnightblue" d="M72.1985,-803.653C70.8012,-739.16 75.3689,-537.007 180,-426 183.623,-422.157 187.827,-418.881 192.37,-416.09"/>
<polygon fill="midnightblue" stroke="midnightblue" points="68.7024,-803.839 72.4944,-813.732 75.6994,-803.633 68.7024,-803.839"/>
</g>
<!-- Node31 -->
<g id="node31" class="node"><title>Node31</title>
<g id="a_node31"><a xlink:href="class_events_collection.html#a6baab87fc0a58669c4b88cb2625c4b8a" target="_top" xlink:title="Get a page of Registrants for an Event. ">
<polygon fill="white" stroke="black" points="180.131,-345 180.131,-365 337.869,-365 337.869,-345 180.131,-345"/>
<text text-anchor="middle" x="259" y="-351" font-family="Helvetica,sans-Serif" font-size="10.00">EventsCollection\getRegistrants</text>
</a>
</g>
</g>
<!-- Node1&#45;&gt;Node31 -->
<g id="edge30" class="edge"><title>Node1&#45;&gt;Node31</title>
<path fill="none" stroke="midnightblue" d="M75.0668,-803.775C83.5436,-724.725 118.156,-437.908 180,-375 183.92,-371.012 188.52,-367.783 193.49,-365.171"/>
<polygon fill="midnightblue" stroke="midnightblue" points="71.5693,-803.568 74.0056,-813.879 78.531,-804.299 71.5693,-803.568"/>
</g>
<!-- Node32 -->
<g id="node32" class="node"><title>Node32</title>
<g id="a_node32"><a xlink:href="class_campaigns_collection.html#a7b245605bb0707dfec9d384521a39ad6" target="_top" xlink:title="Get a schedule for an email. ">
<polygon fill="white" stroke="black" points="203.754,-294 203.754,-326 314.246,-326 314.246,-294 203.754,-294"/>
<text text-anchor="start" x="211.754" y="-312" font-family="Helvetica,sans-Serif" font-size="10.00">CampaignsCollection</text>
<text text-anchor="middle" x="259" y="-300" font-family="Helvetica,sans-Serif" font-size="10.00">\getSchedule</text>
</a>
</g>
</g>
<!-- Node1&#45;&gt;Node32 -->
<g id="edge31" class="edge"><title>Node1&#45;&gt;Node32</title>
<path fill="none" stroke="midnightblue" d="M74.7981,-803.779C82.5602,-720.804 115.744,-407.449 180,-336 186.395,-328.889 194.786,-323.719 203.689,-319.962"/>
<polygon fill="midnightblue" stroke="midnightblue" points="71.2971,-803.632 73.871,-813.91 78.2679,-804.27 71.2971,-803.632"/>
</g>
<!-- Node33 -->
<g id="node33" class="node"><title>Node33</title>
<g id="a_node33"><a xlink:href="class_campaigns_collection.html#a0d5df67f0dd50c64257c8b0135196509" target="_top" xlink:title="Schedule an email for delivery. ">
<polygon fill="white" stroke="black" points="203.754,-243 203.754,-275 314.246,-275 314.246,-243 203.754,-243"/>
<text text-anchor="start" x="211.754" y="-261" font-family="Helvetica,sans-Serif" font-size="10.00">CampaignsCollection</text>
<text text-anchor="middle" x="259" y="-249" font-family="Helvetica,sans-Serif" font-size="10.00">\scheduleCampaign</text>
</a>
</g>
</g>
<!-- Node1&#45;&gt;Node33 -->
<g id="edge32" class="edge"><title>Node1&#45;&gt;Node33</title>
<path fill="none" stroke="midnightblue" d="M74.3508,-803.675C80.617,-715.245 109.59,-364.874 180,-285 186.324,-277.826 194.681,-272.626 203.573,-268.858"/>
<polygon fill="midnightblue" stroke="midnightblue" points="70.8525,-803.531 73.6561,-813.748 77.8359,-804.013 70.8525,-803.531"/>
</g>
<!-- Node34 -->
<g id="node34" class="node"><title>Node34</title>
<g id="a_node34"><a xlink:href="class_contacts_collection.html#a607e64e75eef78c7e3d22362d6400541" target="_top" xlink:title="Search for Contacts by email addresses. ">
<polygon fill="white" stroke="black" points="196.535,-192 196.535,-224 321.465,-224 321.465,-192 196.535,-192"/>
<text text-anchor="start" x="204.535" y="-210" font-family="Helvetica,sans-Serif" font-size="10.00">ContactsCollection</text>
<text text-anchor="middle" x="259" y="-198" font-family="Helvetica,sans-Serif" font-size="10.00">\searchContactsByEmail</text>
</a>
</g>
</g>
<!-- Node1&#45;&gt;Node34 -->
<g id="edge33" class="edge"><title>Node1&#45;&gt;Node34</title>
<path fill="none" stroke="midnightblue" d="M73.9762,-803.574C78.8466,-709.918 103.412,-322.346 180,-234 184.582,-228.715 190.267,-224.501 196.465,-221.141"/>
<polygon fill="midnightblue" stroke="midnightblue" points="70.4729,-803.553 73.4672,-813.716 77.4641,-803.904 70.4729,-803.553"/>
</g>
<!-- Node35 -->
<g id="node35" class="node"><title>Node35</title>
<g id="a_node35"><a xlink:href="class_campaigns_collection.html#a9c9715edb4f23ba515ce7b53a38cfdbb" target="_top" xlink:title="Update a campaign with it&#39;s current properties. ">
<polygon fill="white" stroke="black" points="203.754,-141 203.754,-173 314.246,-173 314.246,-141 203.754,-141"/>
<text text-anchor="start" x="211.754" y="-159" font-family="Helvetica,sans-Serif" font-size="10.00">CampaignsCollection</text>
<text text-anchor="middle" x="259" y="-147" font-family="Helvetica,sans-Serif" font-size="10.00">\updateCampaign</text>
</a>
</g>
</g>
<!-- Node1&#45;&gt;Node35 -->
<g id="edge34" class="edge"><title>Node1&#45;&gt;Node35</title>
<path fill="none" stroke="midnightblue" d="M73.6488,-803.713C77.1855,-705.47 97.1471,-279.937 180,-183 186.214,-175.73 194.518,-170.484 203.392,-166.702"/>
<polygon fill="midnightblue" stroke="midnightblue" points="70.1477,-803.688 73.3031,-813.802 77.1436,-803.928 70.1477,-803.688"/>
</g>
<!-- Node36 -->
<g id="node36" class="node"><title>Node36</title>
<g id="a_node36"><a xlink:href="class_contacts_collection.html#a7b797f7d3ca86f6ade7c4266f56e3699" target="_top" xlink:title="Update a Contact. ">
<polygon fill="white" stroke="black" points="209.313,-90 209.313,-122 308.687,-122 308.687,-90 209.313,-90"/>
<text text-anchor="start" x="217.313" y="-108" font-family="Helvetica,sans-Serif" font-size="10.00">ContactsCollection</text>
<text text-anchor="middle" x="259" y="-96" font-family="Helvetica,sans-Serif" font-size="10.00">\updateContact</text>
</a>
</g>
</g>
<!-- Node1&#45;&gt;Node36 -->
<g id="edge35" class="edge"><title>Node1&#45;&gt;Node36</title>
<path fill="none" stroke="midnightblue" d="M73.3738,-803.76C75.6686,-700.971 90.8876,-237.535 180,-132 187.459,-123.166 198.007,-117.319 208.942,-113.454"/>
<polygon fill="midnightblue" stroke="midnightblue" points="69.8697,-803.926 73.1626,-813.996 76.8683,-804.07 69.8697,-803.926"/>
</g>
<!-- Node37 -->
<g id="node37" class="node"><title>Node37</title>
<g id="a_node37"><a xlink:href="class_lists_collection.html#a3694026dd4e0ecd253a4232a00ef11e8" target="_top" xlink:title="Update a ContactList. ">
<polygon fill="white" stroke="black" points="194.301,-51 194.301,-71 323.699,-71 323.699,-51 194.301,-51"/>
<text text-anchor="middle" x="259" y="-57" font-family="Helvetica,sans-Serif" font-size="10.00">ListsCollection\updateList</text>
</a>
</g>
</g>
<!-- Node1&#45;&gt;Node37 -->
<g id="edge36" class="edge"><title>Node1&#45;&gt;Node37</title>
<path fill="none" stroke="midnightblue" d="M72.9965,-803.854C73.392,-696.429 80.582,-191.777 180,-81 184.015,-76.5262 188.882,-72.991 194.201,-70.2054"/>
<polygon fill="midnightblue" stroke="midnightblue" points="69.4963,-803.969 72.9762,-813.976 76.4963,-803.983 69.4963,-803.969"/>
</g>
<!-- Node38 -->
<g id="node38" class="node"><title>Node38</title>
<g id="a_node38"><a xlink:href="class_library_collection.html#af84484f3dd033f05f78425a0a367ec82" target="_top" xlink:title="Upload an image to a folder. ">
<polygon fill="white" stroke="black" points="197.357,-0 197.357,-32 320.643,-32 320.643,-0 197.357,-0"/>
<text text-anchor="start" x="205.357" y="-18" font-family="Helvetica,sans-Serif" font-size="10.00">LibraryCollection\upload</text>
<text text-anchor="middle" x="259" y="-6" font-family="Helvetica,sans-Serif" font-size="10.00">Image</text>
</a>
</g>
</g>
<!-- Node1&#45;&gt;Node38 -->
<g id="edge37" class="edge"><title>Node1&#45;&gt;Node38</title>
<path fill="none" stroke="midnightblue" d="M72.977,-803.623C73.2551,-692.752 79.8685,-162.702 180,-42 184.648,-36.3971 190.54,-31.9948 196.995,-28.5369"/>
<polygon fill="midnightblue" stroke="midnightblue" points="69.477,-803.779 72.9675,-813.782 76.477,-803.785 69.477,-803.779"/>
</g>
<!-- Node21 -->
<g id="node21" class="node"><title>Node21</title>
<g id="a_node21"><a xlink:href="class_contacts_collection.html#a5b3e93e3981dcec723292446f678f053" target="_top" xlink:title="Search for contacts that have been updated since a specific date. ">
<polygon fill="white" stroke="black" points="374.463,-783 374.463,-815 525.537,-815 525.537,-783 374.463,-783"/>
<text text-anchor="start" x="382.463" y="-801" font-family="Helvetica,sans-Serif" font-size="10.00">ContactsCollection</text>
<text text-anchor="middle" x="450" y="-789" font-family="Helvetica,sans-Serif" font-size="10.00">\searchContactsByLastUpdate</text>
</a>
</g>
</g>
<!-- Node20&#45;&gt;Node21 -->
<g id="edge20" class="edge"><title>Node20&#45;&gt;Node21</title>
<path fill="none" stroke="midnightblue" d="M319.224,-799C336.716,-799 356.091,-799 374.419,-799"/>
<polygon fill="midnightblue" stroke="midnightblue" points="319.164,-795.5 309.164,-799 319.164,-802.5 319.164,-795.5"/>
</g>
</g>
</svg>
        <g id="navigator" transform="translate(0 0)" fill="#404254">
                <rect fill="#f2f5e9" fill-opacity="0.5" stroke="#606060" stroke-width=".5" x="0" y="0" width="60" height="60"/>
                <use id="zoomplus" xlink:href="#zoomPlus" x="17" y="9" onmousedown="handleZoom(evt,'in')"/>
                <use id="zoomminus" xlink:href="#zoomMin" x="42" y="9" onmousedown="handleZoom(evt,'out')"/>
                <use id="reset" xlink:href="#resetDef" x="30" y="36" onmousedown="handleReset()"/>
                <g id="arrowUp" xlink:href="#dirArrow" transform="translate(30 24)" onmousedown="handlePan(0,-1)">
                  <use xlink:href="#rim" fill="#404040">
                        <set attributeName="fill" to="#808080" begin="arrowUp.mouseover" end="arrowUp.mouseout"/>
                  </use>
                  <path fill="none" stroke="white" stroke-width="1.5" d="M0,-3.0v7 M-2.5,-0.5L0,-3.0L2.5,-0.5"/>
                </g>
                <g id="arrowRight" xlink:href="#dirArrow" transform="rotate(90) translate(36 -43)" onmousedown="handlePan(1,0)">
                  <use xlink:href="#rim" fill="#404040">
                        <set attributeName="fill" to="#808080" begin="arrowRight.mouseover" end="arrowRight.mouseout"/>
                  </use>
                  <path fill="none" stroke="white" stroke-width="1.5" d="M0,-3.0v7 M-2.5,-0.5L0,-3.0L2.5,-0.5"/>
                </g>
                <g id="arrowDown" xlink:href="#dirArrow" transform="rotate(180) translate(-30 -48)" onmousedown="handlePan(0,1)">
                  <use xlink:href="#rim" fill="#404040">
                        <set attributeName="fill" to="#808080" begin="arrowDown.mouseover" end="arrowDown.mouseout"/>
                  </use>
                  <path fill="none" stroke="white" stroke-width="1.5" d="M0,-3.0v7 M-2.5,-0.5L0,-3.0L2.5,-0.5"/>
                </g>
                <g id="arrowLeft" xlink:href="#dirArrow" transform="rotate(270) translate(-36 17)" onmousedown="handlePan(-1,0)">
                  <use xlink:href="#rim" fill="#404040">
                        <set attributeName="fill" to="#808080" begin="arrowLeft.mouseover" end="arrowLeft.mouseout"/>
                  </use>
                  <path fill="none" stroke="white" stroke-width="1.5" d="M0,-3.0v7 M-2.5,-0.5L0,-3.0L2.5,-0.5"/>
                </g>
        </g>
        <svg viewBox="0 0 15 15" width="100%" height="30px" preserveAspectRatio="xMaxYMin meet">
         <g id="arrow_out" transform="scale(0.3 0.3)">
          <a xlink:href="class_c_t_c_t_request_aad92e5787f6d3fdf00760d99505aa6db_icgraph_org.svg" target="_base">
           <rect id="button" ry="5" rx="5" y="6" x="6" height="38" width="38"
                fill="#f2f5e9" fill-opacity="0.5" stroke="#606060" stroke-width="1.0"/>
           <path id="arrow"
             d="M 11.500037,31.436501 C 11.940474,20.09759 22.043105,11.32322 32.158766,21.979434 L 37.068811,17.246167 C 37.068811,17.246167 37.088388,32 37.088388,32 L 22.160133,31.978069 C 22.160133,31.978069 26.997745,27.140456 26.997745,27.140456 C 18.528582,18.264221 13.291696,25.230495 11.500037,31.436501 z"
             style="fill:#404040;"/>
          </a>
         </g>
        </svg>
</svg>
