<?xml version="1.0" encoding="UTF-8" standalone="no"?>
<!DOCTYPE svg PUBLIC "-//W3C//DTD SVG 1.1//EN"
 "http://www.w3.org/Graphics/SVG/1.1/DTD/svg11.dtd">
<!-- Generated by graphviz version 2.30.1 (20130221.2233)
 -->
<!-- Title: Net_DNS_Resolver\axfr_next Pages: 1 -->
<svg width="494pt" height="28pt"
 viewBox="0.00 0.00 494.00 28.00" xmlns="http://www.w3.org/2000/svg" xmlns:xlink="http://www.w3.org/1999/xlink">
<g id="graph0" class="graph" transform="scale(1 1) rotate(0) translate(4 24)">
<title>Net_DNS_Resolver\axfr_next</title>
<polygon fill="white" stroke="white" points="-4,5 -4,-24 491,-24 491,5 -4,5"/>
<!-- Node1 -->
<g id="node1" class="node"><title>Node1</title>
<polygon fill="#bfbfbf" stroke="black" points="0.416504,-0 0.416504,-20 147.583,-20 147.583,-0 0.416504,-0"/>
<text text-anchor="middle" x="74" y="-6" font-family="Helvetica,sans-Serif" font-size="10.00">Net_DNS_Resolver\axfr_next</text>
</g>
<!-- Node2 -->
<g id="node2" class="node"><title>Node2</title>
<g id="a_node2"><a xlink:href="class_net___d_n_s___resolver.html#a9a745e4f5009dac279562318bb927370" target="_top" xlink:title="Performs an AXFR query (zone transfer) ">
<polygon fill="white" stroke="black" points="184.648,-0 184.648,-20 307.352,-20 307.352,-0 184.648,-0"/>
<text text-anchor="middle" x="246" y="-6" font-family="Helvetica,sans-Serif" font-size="10.00">Net_DNS_Resolver\axfr</text>
</a>
</g>
</g>
<!-- Node1&#45;&gt;Node2 -->
<g id="edge1" class="edge"><title>Node1&#45;&gt;Node2</title>
<path fill="none" stroke="midnightblue" d="M157.714,-10C166.714,-10 175.749,-10 184.413,-10"/>
<polygon fill="midnightblue" stroke="midnightblue" points="157.588,-6.5001 147.588,-10 157.588,-13.5001 157.588,-6.5001"/>
</g>
<!-- Node3 -->
<g id="node3" class="node"><title>Node3</title>
<g id="a_node3"><a xlink:href="class_net___d_n_s___resolver.html#a73f7861954f4990bc8d18d6a82f7334d" target="_top" xlink:title="Performs an AXFR query (zone transfer) (OLD BUGGY STYLE) ">
<polygon fill="white" stroke="black" points="344.195,-0 344.195,-20 485.805,-20 485.805,-0 344.195,-0"/>
<text text-anchor="middle" x="415" y="-6" font-family="Helvetica,sans-Serif" font-size="10.00">Net_DNS_Resolver\axfr_old</text>
</a>
</g>
</g>
<!-- Node2&#45;&gt;Node3 -->
<g id="edge2" class="edge"><title>Node2&#45;&gt;Node3</title>
<path fill="none" stroke="midnightblue" d="M317.809,-10C326.46,-10 335.296,-10 343.935,-10"/>
<polygon fill="midnightblue" stroke="midnightblue" points="317.763,-6.5001 307.763,-10 317.763,-13.5001 317.763,-6.5001"/>
</g>
</g>
</svg>
