<?xml version="1.0" encoding="UTF-8" standalone="no"?>
<!DOCTYPE svg PUBLIC "-//W3C//DTD SVG 1.1//EN"
 "http://www.w3.org/Graphics/SVG/1.1/DTD/svg11.dtd">
<!-- Generated by graphviz version 2.30.1 (20130221.2233)
 -->
<!-- Title: KWSConstantContact\getContactByEmail Pages: 1 -->
<svg width="272pt" height="91pt"
 viewBox="0.00 0.00 272.00 91.00" xmlns="http://www.w3.org/2000/svg" xmlns:xlink="http://www.w3.org/1999/xlink">
<g id="graph0" class="graph" transform="scale(1 1) rotate(0) translate(4 87)">
<title>KWSConstantContact\getContactByEmail</title>
<polygon fill="white" stroke="white" points="-4,5 -4,-87 269,-87 269,5 -4,5"/>
<!-- Node1 -->
<g id="node1" class="node"><title>Node1</title>
<polygon fill="#bfbfbf" stroke="black" points="0.367188,-25 0.367188,-57 113.633,-57 113.633,-25 0.367188,-25"/>
<text text-anchor="start" x="8.36719" y="-43" font-family="Helvetica,sans-Serif" font-size="10.00">KWSConstantContact</text>
<text text-anchor="middle" x="57" y="-31" font-family="Helvetica,sans-Serif" font-size="10.00">\getContactByEmail</text>
</g>
<!-- Node2 -->
<g id="node2" class="node"><title>Node2</title>
<g id="a_node2"><a xlink:href="class_k_w_s_constant_contact.html#affa7a9ab01ddbf0d89537237c8da5459" target="_top" xlink:title="Add a contact if it doesn&#39;t exist and update it if it does. ">
<polygon fill="white" stroke="black" points="150.367,-51 150.367,-83 263.633,-83 263.633,-51 150.367,-51"/>
<text text-anchor="start" x="158.367" y="-69" font-family="Helvetica,sans-Serif" font-size="10.00">KWSConstantContact</text>
<text text-anchor="middle" x="207" y="-57" font-family="Helvetica,sans-Serif" font-size="10.00">\addUpdateContact</text>
</a>
</g>
</g>
<!-- Node1&#45;&gt;Node2 -->
<g id="edge1" class="edge"><title>Node1&#45;&gt;Node2</title>
<path fill="none" stroke="midnightblue" d="M124.024,-52.5987C132.685,-54.1204 141.494,-55.6679 149.968,-57.1566"/>
<polygon fill="midnightblue" stroke="midnightblue" points="124.407,-49.1126 113.952,-50.8295 123.196,-56.007 124.407,-49.1126"/>
</g>
<!-- Node3 -->
<g id="node3" class="node"><title>Node3</title>
<g id="a_node3"><a xlink:href="class_k_w_s_constant_contact.html#a4731d675e5fdb15dda2133027550cb91" target="_top" xlink:title="Check whether the plugin is configured with an active account. ">
<polygon fill="white" stroke="black" points="150.367,-0 150.367,-32 263.633,-32 263.633,-0 150.367,-0"/>
<text text-anchor="start" x="158.367" y="-18" font-family="Helvetica,sans-Serif" font-size="10.00">KWSConstantContact</text>
<text text-anchor="middle" x="207" y="-6" font-family="Helvetica,sans-Serif" font-size="10.00">\isConfigured</text>
</a>
</g>
</g>
<!-- Node1&#45;&gt;Node3 -->
<g id="edge2" class="edge"><title>Node1&#45;&gt;Node3</title>
<path fill="none" stroke="midnightblue" d="M124.024,-29.8474C132.685,-28.3843 141.494,-26.8963 149.968,-25.4648"/>
<polygon fill="midnightblue" stroke="midnightblue" points="123.23,-26.4318 113.952,-31.5486 124.396,-33.334 123.23,-26.4318"/>
</g>
</g>
</svg>
