<?xml version="1.0" encoding="UTF-8" standalone="no"?>
<!DOCTYPE svg PUBLIC "-//W3C//DTD SVG 1.1//EN"
 "http://www.w3.org/Graphics/SVG/1.1/DTD/svg11.dtd">
<!-- Generated by graphviz version 2.30.1 (20130221.2233)
 -->
<!-- Title: OAuthRequest\from_request Pages: 1 -->
<svg width="474pt" height="106pt"
 viewBox="0.00 0.00 474.00 106.00" xmlns="http://www.w3.org/2000/svg" xmlns:xlink="http://www.w3.org/1999/xlink">
<g id="graph0" class="graph" transform="scale(1 1) rotate(0) translate(4 102)">
<title>OAuthRequest\from_request</title>
<polygon fill="white" stroke="white" points="-4,5 -4,-102 471,-102 471,5 -4,5"/>
<!-- Node1 -->
<g id="node1" class="node"><title>Node1</title>
<polygon fill="#bfbfbf" stroke="black" points="0.35498,-39 0.35498,-59 143.645,-59 143.645,-39 0.35498,-39"/>
<text text-anchor="middle" x="72" y="-45" font-family="Helvetica,sans-Serif" font-size="10.00">OAuthRequest\from_request</text>
</g>
<!-- Node2 -->
<g id="node2" class="node"><title>Node2</title>
<g id="a_node2"><a xlink:href="class_o_auth_util.html#a0c926e2af081c6f9c35be9792b2d7f99" target="_top" xlink:title="OAuthUtil\\get_headers">
<polygon fill="white" stroke="black" points="193.414,-78 193.414,-98 310.586,-98 310.586,-78 193.414,-78"/>
<text text-anchor="middle" x="252" y="-84" font-family="Helvetica,sans-Serif" font-size="10.00">OAuthUtil\get_headers</text>
</a>
</g>
</g>
<!-- Node1&#45;&gt;Node2 -->
<g id="edge1" class="edge"><title>Node1&#45;&gt;Node2</title>
<path fill="none" stroke="midnightblue" d="M118.839,-59.0435C142.197,-64.1612 170.788,-70.4256 195.396,-75.8171"/>
<polygon fill="midnightblue" stroke="midnightblue" points="194.799,-79.2691 205.316,-77.9906 196.297,-72.4313 194.799,-79.2691"/>
</g>
<!-- Node3 -->
<g id="node3" class="node"><title>Node3</title>
<g id="a_node3"><a xlink:href="class_o_auth_util.html#af051ff3956c8d8d7260e15166d392947" target="_top" xlink:title="OAuthUtil\\parse_parameters">
<polygon fill="white" stroke="black" points="180.638,-39 180.638,-59 323.362,-59 323.362,-39 180.638,-39"/>
<text text-anchor="middle" x="252" y="-45" font-family="Helvetica,sans-Serif" font-size="10.00">OAuthUtil\parse_parameters</text>
</a>
</g>
</g>
<!-- Node1&#45;&gt;Node3 -->
<g id="edge2" class="edge"><title>Node1&#45;&gt;Node3</title>
<path fill="none" stroke="midnightblue" d="M143.862,-49C152.502,-49 161.381,-49 170.154,-49"/>
<polygon fill="midnightblue" stroke="midnightblue" points="170.382,-52.5001 180.382,-49 170.382,-45.5001 170.382,-52.5001"/>
</g>
<!-- Node5 -->
<g id="node5" class="node"><title>Node5</title>
<g id="a_node5"><a xlink:href="class_o_auth_util.html#a33c67362886c81064f7c21df11cf6f6f" target="_top" xlink:title="OAuthUtil\\split_header">
<polygon fill="white" stroke="black" points="193.973,-0 193.973,-20 310.027,-20 310.027,-0 193.973,-0"/>
<text text-anchor="middle" x="252" y="-6" font-family="Helvetica,sans-Serif" font-size="10.00">OAuthUtil\split_header</text>
</a>
</g>
</g>
<!-- Node1&#45;&gt;Node5 -->
<g id="edge4" class="edge"><title>Node1&#45;&gt;Node5</title>
<path fill="none" stroke="midnightblue" d="M118.839,-38.9565C142.197,-33.8388 170.788,-27.5744 195.396,-22.1829"/>
<polygon fill="midnightblue" stroke="midnightblue" points="196.297,-25.5687 205.316,-20.0094 194.799,-18.7309 196.297,-25.5687"/>
</g>
<!-- Node4 -->
<g id="node4" class="node"><title>Node4</title>
<g id="a_node4"><a xlink:href="class_o_auth_util.html#aa538116f9d9363b898929c51fc58c3d4" target="_top" xlink:title="OAuthUtil\\urldecode\l_rfc3986">
<polygon fill="white" stroke="black" points="360.254,-13 360.254,-45 465.746,-45 465.746,-13 360.254,-13"/>
<text text-anchor="start" x="368.254" y="-31" font-family="Helvetica,sans-Serif" font-size="10.00">OAuthUtil\urldecode</text>
<text text-anchor="middle" x="413" y="-19" font-family="Helvetica,sans-Serif" font-size="10.00">_rfc3986</text>
</a>
</g>
</g>
<!-- Node3&#45;&gt;Node4 -->
<g id="edge3" class="edge"><title>Node3&#45;&gt;Node4</title>
<path fill="none" stroke="midnightblue" d="M323.666,-40.1112C332.488,-39.0015 341.458,-37.8732 350.133,-36.7821"/>
<polygon fill="midnightblue" stroke="midnightblue" points="350.669,-40.2423 360.154,-35.5215 349.795,-33.297 350.669,-40.2423"/>
</g>
<!-- Node5&#45;&gt;Node4 -->
<g id="edge5" class="edge"><title>Node5&#45;&gt;Node4</title>
<path fill="none" stroke="midnightblue" d="M310.403,-16.8594C323.247,-18.3943 336.928,-20.0291 349.951,-21.5854"/>
<polygon fill="midnightblue" stroke="midnightblue" points="349.881,-25.1019 360.226,-22.8132 350.712,-18.1513 349.881,-25.1019"/>
</g>
</g>
</svg>
