<?xml version="1.0" encoding="UTF-8" standalone="no"?>
<!DOCTYPE svg PUBLIC "-//W3C//DTD SVG 1.1//EN"
 "http://www.w3.org/Graphics/SVG/1.1/DTD/svg11.dtd">
<!-- Generated by graphviz version 2.30.1 (20130221.2233)
 -->
<!-- Title: LibraryCollection\getFolders Pages: 1 -->
<svg width="682pt" height="130pt"
 viewBox="0.00 0.00 682.00 130.00" xmlns="http://www.w3.org/2000/svg" xmlns:xlink="http://www.w3.org/1999/xlink">
<g id="graph0" class="graph" transform="scale(1 1) rotate(0) translate(4 126)">
<title>LibraryCollection\getFolders</title>
<polygon fill="white" stroke="white" points="-4,5 -4,-126 679,-126 679,5 -4,5"/>
<!-- Node1 -->
<g id="node1" class="node"><title>Node1</title>
<polygon fill="#bfbfbf" stroke="black" points="0.749023,-61 0.749023,-81 141.251,-81 141.251,-61 0.749023,-61"/>
<text text-anchor="middle" x="71" y="-67" font-family="Helvetica,sans-Serif" font-size="10.00">LibraryCollection\getFolders</text>
</g>
<!-- Node2 -->
<g id="node2" class="node"><title>Node2</title>
<g id="a_node2"><a xlink:href="class_folder.html#a4b50124607d4d87b5f626b4598141b8e" target="_top" xlink:title="Create associate array of object from XML. ">
<polygon fill="white" stroke="black" points="199.483,-100 199.483,-120 300.517,-120 300.517,-100 199.483,-100"/>
<text text-anchor="middle" x="250" y="-106" font-family="Helvetica,sans-Serif" font-size="10.00">Folder\createStruct</text>
</a>
</g>
</g>
<!-- Node1&#45;&gt;Node2 -->
<g id="edge1" class="edge"><title>Node1&#45;&gt;Node2</title>
<path fill="none" stroke="midnightblue" d="M117.582,-81.0435C140.809,-86.1612 169.239,-92.4256 193.708,-97.8171"/>
<polygon fill="midnightblue" stroke="midnightblue" points="193.054,-101.257 203.573,-99.9906 194.56,-94.4207 193.054,-101.257"/>
</g>
<!-- Node3 -->
<g id="node3" class="node"><title>Node3</title>
<g id="a_node3"><a xlink:href="class_utility.html#a50ac241bcff31b7348d0f623f2ab3d4c" target="_top" xlink:title="Find the next link from collection XML. ">
<polygon fill="white" stroke="black" points="200.875,-61 200.875,-81 299.125,-81 299.125,-61 200.875,-61"/>
<text text-anchor="middle" x="250" y="-67" font-family="Helvetica,sans-Serif" font-size="10.00">Utility\findNextLink</text>
</a>
</g>
</g>
<!-- Node1&#45;&gt;Node3 -->
<g id="edge2" class="edge"><title>Node1&#45;&gt;Node3</title>
<path fill="none" stroke="midnightblue" d="M141.447,-71C157.734,-71 174.924,-71 190.668,-71"/>
<polygon fill="midnightblue" stroke="midnightblue" points="190.781,-74.5001 200.781,-71 190.781,-67.5001 190.781,-74.5001"/>
</g>
<!-- Node4 -->
<g id="node4" class="node"><title>Node4</title>
<g id="a_node4"><a xlink:href="class_c_t_c_t_request.html#aad92e5787f6d3fdf00760d99505aa6db" target="_top" xlink:title="CTCTRequest\\makeRequest">
<polygon fill="white" stroke="black" points="177.808,-22 177.808,-42 322.192,-42 322.192,-22 177.808,-22"/>
<text text-anchor="middle" x="250" y="-28" font-family="Helvetica,sans-Serif" font-size="10.00">CTCTRequest\makeRequest</text>
</a>
</g>
</g>
<!-- Node1&#45;&gt;Node4 -->
<g id="edge3" class="edge"><title>Node1&#45;&gt;Node4</title>
<path fill="none" stroke="midnightblue" d="M117.582,-60.9565C140.809,-55.8388 169.239,-49.5744 193.708,-44.1829"/>
<polygon fill="midnightblue" stroke="midnightblue" points="194.56,-47.5793 203.573,-42.0094 193.054,-40.7433 194.56,-47.5793"/>
</g>
<!-- Node5 -->
<g id="node5" class="node"><title>Node5</title>
<g id="a_node5"><a xlink:href="class_o_auth_request.html#afe9d0f6cb8e0dadb1c0faeea9ecafe45" target="_top" xlink:title="pretty much a helper function to set up the request ">
<polygon fill="white" stroke="black" points="358.079,-39 358.079,-71 511.921,-71 511.921,-39 358.079,-39"/>
<text text-anchor="start" x="366.079" y="-57" font-family="Helvetica,sans-Serif" font-size="10.00">OAuthRequest\from_consumer</text>
<text text-anchor="middle" x="435" y="-45" font-family="Helvetica,sans-Serif" font-size="10.00">_and_token</text>
</a>
</g>
</g>
<!-- Node4&#45;&gt;Node5 -->
<g id="edge4" class="edge"><title>Node4&#45;&gt;Node5</title>
<path fill="none" stroke="midnightblue" d="M322.277,-40.9583C330.716,-42.019 339.397,-43.11 348.013,-44.1929"/>
<polygon fill="midnightblue" stroke="midnightblue" points="347.72,-47.6835 358.079,-45.458 348.593,-40.7382 347.72,-47.6835"/>
</g>
<!-- Node8 -->
<g id="node8" class="node"><title>Node8</title>
<g id="a_node8"><a xlink:href="class_c_t_c_t_exception.html#adc8307ec7d7a2c730b0dac678d0e7fcb" target="_top" xlink:title="CTCTException\\generateError">
<polygon fill="white" stroke="black" points="359.473,-0 359.473,-20 510.527,-20 510.527,-0 359.473,-0"/>
<text text-anchor="middle" x="435" y="-6" font-family="Helvetica,sans-Serif" font-size="10.00">CTCTException\generateError</text>
</a>
</g>
</g>
<!-- Node4&#45;&gt;Node8 -->
<g id="edge7" class="edge"><title>Node4&#45;&gt;Node8</title>
<path fill="none" stroke="midnightblue" d="M322.277,-23.4312C331.099,-22.3706 340.186,-21.2781 349.187,-20.1961"/>
<polygon fill="midnightblue" stroke="midnightblue" points="349.782,-23.6499 359.293,-18.9812 348.946,-16.6999 349.782,-23.6499"/>
</g>
<!-- Node6 -->
<g id="node6" class="node"><title>Node6</title>
<g id="a_node6"><a xlink:href="class_o_auth_request.html#ae544b1c10b82d5a82dcc259064763420" target="_top" xlink:title="util function: current nonce ">
<polygon fill="white" stroke="black" points="549.074,-90 549.074,-122 672.926,-122 672.926,-90 549.074,-90"/>
<text text-anchor="start" x="557.074" y="-108" font-family="Helvetica,sans-Serif" font-size="10.00">OAuthRequest\generate</text>
<text text-anchor="middle" x="611" y="-96" font-family="Helvetica,sans-Serif" font-size="10.00">_nonce</text>
</a>
</g>
</g>
<!-- Node5&#45;&gt;Node6 -->
<g id="edge5" class="edge"><title>Node5&#45;&gt;Node6</title>
<path fill="none" stroke="midnightblue" d="M491.055,-71.1367C508.36,-76.209 527.624,-81.8552 545.522,-87.1012"/>
<polygon fill="midnightblue" stroke="midnightblue" points="544.723,-90.5142 555.303,-89.9683 546.692,-83.7968 544.723,-90.5142"/>
</g>
<!-- Node7 -->
<g id="node7" class="node"><title>Node7</title>
<g id="a_node7"><a xlink:href="class_o_auth_request.html#adfc6b936799f705d9a4442961a26e8cb" target="_top" xlink:title="util function: current timestamp ">
<polygon fill="white" stroke="black" points="549.074,-39 549.074,-71 672.926,-71 672.926,-39 549.074,-39"/>
<text text-anchor="start" x="557.074" y="-57" font-family="Helvetica,sans-Serif" font-size="10.00">OAuthRequest\generate</text>
<text text-anchor="middle" x="611" y="-45" font-family="Helvetica,sans-Serif" font-size="10.00">_timestamp</text>
</a>
</g>
</g>
<!-- Node5&#45;&gt;Node7 -->
<g id="edge6" class="edge"><title>Node5&#45;&gt;Node7</title>
<path fill="none" stroke="midnightblue" d="M512.066,-55C520.939,-55 529.966,-55 538.771,-55"/>
<polygon fill="midnightblue" stroke="midnightblue" points="538.981,-58.5001 548.981,-55 538.981,-51.5001 538.981,-58.5001"/>
</g>
<!-- Node9 -->
<g id="node9" class="node"><title>Node9</title>
<g id="a_node9"><a xlink:href="class_c_t_c_t_exception.html#a6a86531406328bbd2a6c6252b7fb3a70" target="_top" xlink:title="CTCTException\\logError">
<polygon fill="white" stroke="black" points="548.54,-0 548.54,-20 673.46,-20 673.46,-0 548.54,-0"/>
<text text-anchor="middle" x="611" y="-6" font-family="Helvetica,sans-Serif" font-size="10.00">CTCTException\logError</text>
</a>
</g>
</g>
<!-- Node8&#45;&gt;Node9 -->
<g id="edge8" class="edge"><title>Node8&#45;&gt;Node9</title>
<path fill="none" stroke="midnightblue" d="M510.549,-10C519.73,-10 529.101,-10 538.239,-10"/>
<polygon fill="midnightblue" stroke="midnightblue" points="538.437,-13.5001 548.437,-10 538.436,-6.5001 538.437,-13.5001"/>
</g>
</g>
</svg>
