<?xml version="1.0" encoding="UTF-8" standalone="no"?>
<!DOCTYPE svg PUBLIC "-//W3C//DTD SVG 1.1//EN"
 "http://www.w3.org/Graphics/SVG/1.1/DTD/svg11.dtd">
<!-- Generated by graphviz version 2.30.1 (20130221.2233)
 -->
<!-- Title: CTCTException\generateError Pages: 1 -->
<svg width="904pt" height="1770pt"
 viewBox="0.00 0.00 904.00 1770.00" xmlns="http://www.w3.org/2000/svg" xmlns:xlink="http://www.w3.org/1999/xlink">
<g id="graph0" class="graph" transform="scale(1 1) rotate(0) translate(4 1766)">
<title>CTCTException\generateError</title>
<polygon fill="white" stroke="white" points="-4,5 -4,-1766 901,-1766 901,5 -4,5"/>
<!-- Node1 -->
<g id="node1" class="node"><title>Node1</title>
<polygon fill="#bfbfbf" stroke="black" points="0.473145,-915 0.473145,-935 151.527,-935 151.527,-915 0.473145,-915"/>
<text text-anchor="middle" x="76" y="-921" font-family="Helvetica,sans-Serif" font-size="10.00">CTCTException\generateError</text>
</g>
<!-- Node2 -->
<g id="node2" class="node"><title>Node2</title>
<g id="a_node2"><a xlink:href="class_constant_contact.html#ab5110252e42ae1e8074eab4bb737769e" target="_top" xlink:title="ConstantContact constructor. ">
<polygon fill="white" stroke="black" points="188.52,-1423 188.52,-1443 333.48,-1443 333.48,-1423 188.52,-1423"/>
<text text-anchor="middle" x="261" y="-1429" font-family="Helvetica,sans-Serif" font-size="10.00">ConstantContact\__construct</text>
</a>
</g>
</g>
<!-- Node1&#45;&gt;Node2 -->
<g id="edge1" class="edge"><title>Node1&#45;&gt;Node2</title>
<path fill="none" stroke="midnightblue" d="M78.8773,-945.318C86.9768,-1028.68 121.562,-1343.34 188,-1413 191.85,-1417.04 196.438,-1420.28 201.408,-1422.89"/>
<polygon fill="midnightblue" stroke="midnightblue" points="82.3405,-944.764 77.9097,-935.14 75.3719,-945.426 82.3405,-944.764"/>
</g>
<!-- Node3 -->
<g id="node3" class="node"><title>Node3</title>
<g id="a_node3"><a xlink:href="class_utility.html#a8dfdbab72e87fd98e63e148c651abaff" target="_top" xlink:title="Find the URL of the provided object. ">
<polygon fill="white" stroke="black" points="224.941,-1384 224.941,-1404 297.059,-1404 297.059,-1384 224.941,-1384"/>
<text text-anchor="middle" x="261" y="-1390" font-family="Helvetica,sans-Serif" font-size="10.00">Utility\findUrl</text>
</a>
</g>
</g>
<!-- Node1&#45;&gt;Node3 -->
<g id="edge2" class="edge"><title>Node1&#45;&gt;Node3</title>
<path fill="none" stroke="midnightblue" d="M79.5101,-945.37C89.544,-1023.73 129.097,-1304.59 188,-1369 197.555,-1379.45 211.701,-1385.53 224.931,-1389.07"/>
<polygon fill="midnightblue" stroke="midnightblue" points="82.9675,-944.811 78.2451,-935.327 76.0223,-945.686 82.9675,-944.811"/>
</g>
<!-- Node4 -->
<g id="node4" class="node"><title>Node4</title>
<g id="a_node4"><a xlink:href="class_campaigns_collection.html#a60d74f76a35500fc9bb792fd98d94b3c" target="_top" xlink:title="Get a page of campaigns by status. ">
<polygon fill="white" stroke="black" points="567.36,-1730 567.36,-1762 690.64,-1762 690.64,-1730 567.36,-1730"/>
<text text-anchor="start" x="575.36" y="-1748" font-family="Helvetica,sans-Serif" font-size="10.00">CampaignsCollection</text>
<text text-anchor="middle" x="629" y="-1736" font-family="Helvetica,sans-Serif" font-size="10.00">\getCampaignsByStatus</text>
</a>
</g>
</g>
<!-- Node1&#45;&gt;Node4 -->
<g id="edge3" class="edge"><title>Node1&#45;&gt;Node4</title>
<path fill="none" stroke="midnightblue" d="M87.7543,-943.914C154.795,-1061.71 513.727,-1690.79 550,-1720 555.114,-1724.12 560.909,-1727.6 566.975,-1730.53"/>
<polygon fill="midnightblue" stroke="midnightblue" points="90.793,-942.177 82.806,-935.216 84.7087,-945.639 90.793,-942.177"/>
</g>
<!-- Node5 -->
<g id="node5" class="node"><title>Node5</title>
<g id="a_node5"><a xlink:href="class_c_t_c_t_request.html#aad92e5787f6d3fdf00760d99505aa6db" target="_top" xlink:title="CTCTRequest\\makeRequest">
<polygon fill="white" stroke="black" points="369.808,-915 369.808,-935 514.192,-935 514.192,-915 369.808,-915"/>
<text text-anchor="middle" x="442" y="-921" font-family="Helvetica,sans-Serif" font-size="10.00">CTCTRequest\makeRequest</text>
</a>
</g>
</g>
<!-- Node1&#45;&gt;Node5 -->
<g id="edge4" class="edge"><title>Node1&#45;&gt;Node5</title>
<path fill="none" stroke="midnightblue" d="M161.862,-925C224.949,-925 310.06,-925 369.657,-925"/>
<polygon fill="midnightblue" stroke="midnightblue" points="161.539,-921.5 151.539,-925 161.539,-928.5 161.539,-921.5"/>
</g>
<!-- Node14 -->
<g id="node14" class="node"><title>Node14</title>
<g id="a_node14"><a xlink:href="class_contacts_collection.html#a5b3e93e3981dcec723292446f678f053" target="_top" xlink:title="Search for contacts that have been updated since a specific date. ">
<polygon fill="white" stroke="black" points="744.463,-656 744.463,-688 895.537,-688 895.537,-656 744.463,-656"/>
<text text-anchor="start" x="752.463" y="-674" font-family="Helvetica,sans-Serif" font-size="10.00">ContactsCollection</text>
<text text-anchor="middle" x="820" y="-662" font-family="Helvetica,sans-Serif" font-size="10.00">\searchContactsByLastUpdate</text>
</a>
</g>
</g>
<!-- Node1&#45;&gt;Node14 -->
<g id="edge42" class="edge"><title>Node1&#45;&gt;Node14</title>
<path fill="none" stroke="midnightblue" d="M80.3342,-904.819C96.3782,-813.095 173.106,-429.911 370,-196 418.451,-138.44 459.435,-158.801 514,-107 534.386,-87.6468 525.102,-68.0456 550,-55 612.201,-22.4094 654.129,-9.95531 708,-55 803.707,-135.025 817.016,-566.517 818.752,-655.819"/>
<polygon fill="midnightblue" stroke="midnightblue" points="76.8728,-904.296 78.639,-914.743 83.7729,-905.475 76.8728,-904.296"/>
</g>
<!-- Node36 -->
<g id="node36" class="node"><title>Node36</title>
<g id="a_node36"><a xlink:href="class_library_collection.html#af84484f3dd033f05f78425a0a367ec82" target="_top" xlink:title="Upload an image to a folder. ">
<polygon fill="white" stroke="black" points="567.357,-104 567.357,-136 690.643,-136 690.643,-104 567.357,-104"/>
<text text-anchor="start" x="575.357" y="-122" font-family="Helvetica,sans-Serif" font-size="10.00">LibraryCollection\upload</text>
<text text-anchor="middle" x="629" y="-110" font-family="Helvetica,sans-Serif" font-size="10.00">Image</text>
</a>
</g>
</g>
<!-- Node1&#45;&gt;Node36 -->
<g id="edge43" class="edge"><title>Node1&#45;&gt;Node36</title>
<path fill="none" stroke="midnightblue" d="M78.8124,-905.029C88.4893,-810.349 142.511,-402.699 370,-196 424.518,-146.465 509.813,-129.119 567.254,-123.102"/>
<polygon fill="midnightblue" stroke="midnightblue" points="75.3282,-904.698 77.8434,-914.99 82.2953,-905.375 75.3282,-904.698"/>
</g>
<!-- Node42 -->
<g id="node42" class="node"><title>Node42</title>
<g id="a_node42"><a xlink:href="class_c_c_object.html#a2175b643672414fd5dd302e8feb7bc55" target="_top" xlink:title="Validate an object to check that all required fields have been supplied &#160;array $params &#45; object prope...">
<polygon fill="white" stroke="black" points="212.705,-78 212.705,-98 309.295,-98 309.295,-78 212.705,-78"/>
<text text-anchor="middle" x="261" y="-84" font-family="Helvetica,sans-Serif" font-size="10.00">CCObject\validate</text>
</a>
</g>
</g>
<!-- Node1&#45;&gt;Node42 -->
<g id="edge44" class="edge"><title>Node1&#45;&gt;Node42</title>
<path fill="none" stroke="midnightblue" d="M76.9958,-904.927C77.3662,-792.292 84.4968,-239.375 188,-113 194.288,-105.322 203.072,-99.9975 212.349,-96.3059"/>
<polygon fill="midnightblue" stroke="midnightblue" points="73.4959,-904.933 76.978,-914.939 80.4959,-904.946 73.4959,-904.933"/>
</g>
<!-- Node6 -->
<g id="node6" class="node"><title>Node6</title>
<g id="a_node6"><a xlink:href="class_activities_collection.html#aa5373dc495a33732f64bc330fc86f8f3" target="_top" xlink:title="Add multiple contacts at once. ">
<polygon fill="white" stroke="black" points="579.318,-1499 579.318,-1531 678.682,-1531 678.682,-1499 579.318,-1499"/>
<text text-anchor="start" x="587.318" y="-1517" font-family="Helvetica,sans-Serif" font-size="10.00">ActivitiesCollection</text>
<text text-anchor="middle" x="629" y="-1505" font-family="Helvetica,sans-Serif" font-size="10.00">\bulkAddContacts</text>
</a>
</g>
</g>
<!-- Node5&#45;&gt;Node6 -->
<g id="edge5" class="edge"><title>Node5&#45;&gt;Node6</title>
<path fill="none" stroke="midnightblue" d="M447.64,-944.871C459.582,-996.391 491.981,-1138.58 514,-1258 523.42,-1309.09 516.459,-1449.33 550,-1489 557.465,-1497.83 568.014,-1503.67 578.95,-1507.54"/>
<polygon fill="midnightblue" stroke="midnightblue" points="451.028,-943.987 445.354,-935.04 444.21,-945.573 451.028,-943.987"/>
</g>
<!-- Node7 -->
<g id="node7" class="node"><title>Node7</title>
<g id="a_node7"><a xlink:href="class_lists_collection.html#a81d8be6f107777e34fc2384b2c4b3150" target="_top" xlink:title="Get an array of ContactList objects. ">
<polygon fill="white" stroke="black" points="570.143,-1460 570.143,-1480 687.857,-1480 687.857,-1460 570.143,-1460"/>
<text text-anchor="middle" x="629" y="-1466" font-family="Helvetica,sans-Serif" font-size="10.00">ListsCollection\getLists</text>
</a>
</g>
</g>
<!-- Node5&#45;&gt;Node7 -->
<g id="edge6" class="edge"><title>Node5&#45;&gt;Node7</title>
<path fill="none" stroke="midnightblue" d="M447.425,-944.913C458.857,-996.53 490.148,-1138.93 514,-1258 531.053,-1343.13 490.657,-1386.63 550,-1450 555.447,-1455.82 562.335,-1460.03 569.752,-1463.08"/>
<polygon fill="midnightblue" stroke="midnightblue" points="450.823,-944.067 445.24,-935.062 443.989,-945.582 450.823,-944.067"/>
</g>
<!-- Node8 -->
<g id="node8" class="node"><title>Node8</title>
<g id="a_node8"><a xlink:href="class_lists_collection.html#ae86ac9787cede610e609395c71d9180c" target="_top" xlink:title="Add a new list to Constant Contact account. ">
<polygon fill="white" stroke="black" points="571.251,-1691 571.251,-1711 686.749,-1711 686.749,-1691 571.251,-1691"/>
<text text-anchor="middle" x="629" y="-1697" font-family="Helvetica,sans-Serif" font-size="10.00">ListsCollection\addList</text>
</a>
</g>
</g>
<!-- Node5&#45;&gt;Node8 -->
<g id="edge7" class="edge"><title>Node5&#45;&gt;Node8</title>
<path fill="none" stroke="midnightblue" d="M448.218,-945.141C461.389,-996.759 496.196,-1138.16 514,-1258 527.863,-1351.32 489.055,-1608.99 550,-1681 555.599,-1687.62 563.061,-1692.2 571.156,-1695.35"/>
<polygon fill="midnightblue" stroke="midnightblue" points="451.561,-944.087 445.684,-935.272 444.781,-945.828 451.561,-944.087"/>
</g>
<!-- Node9 -->
<g id="node9" class="node"><title>Node9</title>
<g id="a_node9"><a xlink:href="class_lists_collection.html#a6669dd5849b06b88788089506f656af5" target="_top" xlink:title="Get a page of contacts from a given list. ">
<polygon fill="white" stroke="black" points="551.806,-1421 551.806,-1441 706.194,-1441 706.194,-1421 551.806,-1421"/>
<text text-anchor="middle" x="629" y="-1427" font-family="Helvetica,sans-Serif" font-size="10.00">ListsCollection\getListMembers</text>
</a>
</g>
</g>
<!-- Node5&#45;&gt;Node9 -->
<g id="edge8" class="edge"><title>Node5&#45;&gt;Node9</title>
<path fill="none" stroke="midnightblue" d="M447.236,-944.907C466.583,-1035.74 545.786,-1406.64 550,-1411 553.886,-1415.02 558.461,-1418.27 563.417,-1420.9"/>
<polygon fill="midnightblue" stroke="midnightblue" points="450.643,-944.102 445.138,-935.05 443.797,-945.56 450.643,-944.102"/>
</g>
<!-- Node10 -->
<g id="node10" class="node"><title>Node10</title>
<g id="a_node10"><a xlink:href="class_lists_collection.html#a4f6e3afda3ab2734a175e1735a0e6e0a" target="_top" xlink:title="Get full details for a ContactList. ">
<polygon fill="white" stroke="black" points="557.36,-1382 557.36,-1402 700.64,-1402 700.64,-1382 557.36,-1382"/>
<text text-anchor="middle" x="629" y="-1388" font-family="Helvetica,sans-Serif" font-size="10.00">ListsCollection\getListDetails</text>
</a>
</g>
</g>
<!-- Node5&#45;&gt;Node10 -->
<g id="edge9" class="edge"><title>Node5&#45;&gt;Node10</title>
<path fill="none" stroke="midnightblue" d="M447.215,-945.136C465.091,-1030.17 534.433,-1356.18 550,-1372 553.922,-1375.99 558.523,-1379.21 563.495,-1381.82"/>
<polygon fill="midnightblue" stroke="midnightblue" points="450.607,-944.259 445.128,-935.191 443.757,-945.696 450.607,-944.259"/>
</g>
<!-- Node11 -->
<g id="node11" class="node"><title>Node11</title>
<g id="a_node11"><a xlink:href="class_lists_collection.html#afcdccd2d9b3c7c33046a6951b8c501d3" target="_top" xlink:title="Delete a ContactList from an account. ">
<polygon fill="white" stroke="black" points="565.971,-1343 565.971,-1363 692.029,-1363 692.029,-1343 565.971,-1343"/>
<text text-anchor="middle" x="629" y="-1349" font-family="Helvetica,sans-Serif" font-size="10.00">ListsCollection\deleteList</text>
</a>
</g>
</g>
<!-- Node5&#45;&gt;Node11 -->
<g id="edge10" class="edge"><title>Node5&#45;&gt;Node11</title>
<path fill="none" stroke="midnightblue" d="M447.021,-945.067C462.855,-1023.25 521.421,-1304.58 550,-1333 554.56,-1337.53 559.999,-1341.09 565.855,-1343.86"/>
<polygon fill="midnightblue" stroke="midnightblue" points="450.411,-944.171 445.004,-935.06 443.549,-945.554 450.411,-944.171"/>
</g>
<!-- Node12 -->
<g id="node12" class="node"><title>Node12</title>
<g id="a_node12"><a xlink:href="class_lists_collection.html#a3694026dd4e0ecd253a4232a00ef11e8" target="_top" xlink:title="Update a ContactList. ">
<polygon fill="white" stroke="black" points="564.301,-1652 564.301,-1672 693.699,-1672 693.699,-1652 564.301,-1652"/>
<text text-anchor="middle" x="629" y="-1658" font-family="Helvetica,sans-Serif" font-size="10.00">ListsCollection\updateList</text>
</a>
</g>
</g>
<!-- Node5&#45;&gt;Node12 -->
<g id="edge11" class="edge"><title>Node5&#45;&gt;Node12</title>
<path fill="none" stroke="midnightblue" d="M448.068,-944.799C461.028,-996.147 495.641,-1137.96 514,-1258 526.958,-1342.72 494.352,-1576.82 550,-1642 553.903,-1646.57 558.695,-1650.17 563.969,-1653"/>
<polygon fill="midnightblue" stroke="midnightblue" points="451.434,-943.833 445.58,-935.002 444.649,-945.556 451.434,-943.833"/>
</g>
<!-- Node13 -->
<g id="node13" class="node"><title>Node13</title>
<g id="a_node13"><a xlink:href="class_contacts_collection.html#a9dcfa1067f115ee7ba5f231b5433e912" target="_top" xlink:title="ContactsCollection\l\\getContacts">
<polygon fill="white" stroke="black" points="579.313,-1292 579.313,-1324 678.687,-1324 678.687,-1292 579.313,-1292"/>
<text text-anchor="start" x="587.313" y="-1310" font-family="Helvetica,sans-Serif" font-size="10.00">ContactsCollection</text>
<text text-anchor="middle" x="629" y="-1298" font-family="Helvetica,sans-Serif" font-size="10.00">\getContacts</text>
</a>
</g>
</g>
<!-- Node5&#45;&gt;Node13 -->
<g id="edge12" class="edge"><title>Node5&#45;&gt;Node13</title>
<path fill="none" stroke="midnightblue" d="M442.947,-945.21C443.904,-1005.18 454.991,-1184.04 550,-1282 557.851,-1290.09 568.284,-1295.67 578.959,-1299.51"/>
<polygon fill="midnightblue" stroke="midnightblue" points="446.446,-945.121 442.868,-935.149 439.446,-945.176 446.446,-945.121"/>
</g>
<!-- Node15 -->
<g id="node15" class="node"><title>Node15</title>
<g id="a_node15"><a xlink:href="class_contacts_collection.html#a55c54d5be74863ecc8dfa0f53a4f430f" target="_top" xlink:title="Get detailed Contact object for a given contact. ">
<polygon fill="white" stroke="black" points="579.313,-1241 579.313,-1273 678.687,-1273 678.687,-1241 579.313,-1241"/>
<text text-anchor="start" x="587.313" y="-1259" font-family="Helvetica,sans-Serif" font-size="10.00">ContactsCollection</text>
<text text-anchor="middle" x="629" y="-1247" font-family="Helvetica,sans-Serif" font-size="10.00">\getContactDetails</text>
</a>
</g>
</g>
<!-- Node5&#45;&gt;Node15 -->
<g id="edge14" class="edge"><title>Node5&#45;&gt;Node15</title>
<path fill="none" stroke="midnightblue" d="M444.124,-945.151C448.23,-999.254 466.92,-1149.13 550,-1231 558.032,-1238.92 568.535,-1244.42 579.218,-1248.25"/>
<polygon fill="midnightblue" stroke="midnightblue" points="447.613,-944.862 443.452,-935.118 440.629,-945.33 447.613,-944.862"/>
</g>
<!-- Node16 -->
<g id="node16" class="node"><title>Node16</title>
<g id="a_node16"><a xlink:href="class_contacts_collection.html#a8c5270d8d9d42b17b119c41b64b2e991" target="_top" xlink:title="Get events for a given Contact. ">
<polygon fill="white" stroke="black" points="579.313,-1190 579.313,-1222 678.687,-1222 678.687,-1190 579.313,-1190"/>
<text text-anchor="start" x="587.313" y="-1208" font-family="Helvetica,sans-Serif" font-size="10.00">ContactsCollection</text>
<text text-anchor="middle" x="629" y="-1196" font-family="Helvetica,sans-Serif" font-size="10.00">\getContactEvents</text>
</a>
</g>
</g>
<!-- Node5&#45;&gt;Node16 -->
<g id="edge15" class="edge"><title>Node5&#45;&gt;Node16</title>
<path fill="none" stroke="midnightblue" d="M445.75,-945.249C453.306,-993.076 478.784,-1113.97 550,-1180 558.165,-1187.57 568.595,-1192.94 579.152,-1196.75"/>
<polygon fill="midnightblue" stroke="midnightblue" points="449.192,-944.6 444.263,-935.221 442.267,-945.626 449.192,-944.6"/>
</g>
<!-- Node17 -->
<g id="node17" class="node"><title>Node17</title>
<g id="a_node17"><a xlink:href="class_contacts_collection.html#a58610b21a633bfe30cc66a5f54a107a7" target="_top" xlink:title="Add a contact to account. ">
<polygon fill="white" stroke="black" points="579.313,-1601 579.313,-1633 678.687,-1633 678.687,-1601 579.313,-1601"/>
<text text-anchor="start" x="587.313" y="-1619" font-family="Helvetica,sans-Serif" font-size="10.00">ContactsCollection</text>
<text text-anchor="middle" x="629" y="-1607" font-family="Helvetica,sans-Serif" font-size="10.00">\addContact</text>
</a>
</g>
</g>
<!-- Node5&#45;&gt;Node17 -->
<g id="edge16" class="edge"><title>Node5&#45;&gt;Node17</title>
<path fill="none" stroke="midnightblue" d="M447.969,-944.815C460.691,-996.2 494.788,-1138.1 514,-1258 525.776,-1331.49 503.293,-1533.05 550,-1591 557.345,-1600.11 567.987,-1606.06 579.061,-1609.92"/>
<polygon fill="midnightblue" stroke="midnightblue" points="451.34,-943.868 445.528,-935.01 444.547,-945.559 451.34,-943.868"/>
</g>
<!-- Node18 -->
<g id="node18" class="node"><title>Node18</title>
<g id="a_node18"><a xlink:href="class_contacts_collection.html#a7b797f7d3ca86f6ade7c4266f56e3699" target="_top" xlink:title="Update a Contact. ">
<polygon fill="white" stroke="black" points="579.313,-1550 579.313,-1582 678.687,-1582 678.687,-1550 579.313,-1550"/>
<text text-anchor="start" x="587.313" y="-1568" font-family="Helvetica,sans-Serif" font-size="10.00">ContactsCollection</text>
<text text-anchor="middle" x="629" y="-1556" font-family="Helvetica,sans-Serif" font-size="10.00">\updateContact</text>
</a>
</g>
</g>
<!-- Node5&#45;&gt;Node18 -->
<g id="edge17" class="edge"><title>Node5&#45;&gt;Node18</title>
<path fill="none" stroke="midnightblue" d="M447.833,-944.837C460.234,-996.275 493.633,-1138.29 514,-1258 524.596,-1320.28 509.884,-1491.2 550,-1540 557.433,-1549.04 568.106,-1554.96 579.183,-1558.83"/>
<polygon fill="midnightblue" stroke="midnightblue" points="451.212,-943.917 445.456,-935.022 444.408,-945.565 451.212,-943.917"/>
</g>
<!-- Node19 -->
<g id="node19" class="node"><title>Node19</title>
<g id="a_node19"><a xlink:href="class_contacts_collection.html#a9d6f8953c0599fd35b49bbb1b72614b8" target="_top" xlink:title="Delete a Contact. ">
<polygon fill="white" stroke="black" points="579.313,-1139 579.313,-1171 678.687,-1171 678.687,-1139 579.313,-1139"/>
<text text-anchor="start" x="587.313" y="-1157" font-family="Helvetica,sans-Serif" font-size="10.00">ContactsCollection</text>
<text text-anchor="middle" x="629" y="-1145" font-family="Helvetica,sans-Serif" font-size="10.00">\deleteContact</text>
</a>
</g>
</g>
<!-- Node5&#45;&gt;Node19 -->
<g id="edge18" class="edge"><title>Node5&#45;&gt;Node19</title>
<path fill="none" stroke="midnightblue" d="M448.033,-944.98C459.28,-985.589 490.279,-1078.21 550,-1129 558.373,-1136.12 568.765,-1141.31 579.205,-1145.09"/>
<polygon fill="midnightblue" stroke="midnightblue" points="451.383,-943.959 445.431,-935.194 444.618,-945.758 451.383,-943.959"/>
</g>
<!-- Node20 -->
<g id="node20" class="node"><title>Node20</title>
<g id="a_node20"><a xlink:href="class_contacts_collection.html#a607e64e75eef78c7e3d22362d6400541" target="_top" xlink:title="Search for Contacts by email addresses. ">
<polygon fill="white" stroke="black" points="566.535,-1088 566.535,-1120 691.465,-1120 691.465,-1088 566.535,-1088"/>
<text text-anchor="start" x="574.535" y="-1106" font-family="Helvetica,sans-Serif" font-size="10.00">ContactsCollection</text>
<text text-anchor="middle" x="629" y="-1094" font-family="Helvetica,sans-Serif" font-size="10.00">\searchContactsByEmail</text>
</a>
</g>
</g>
<!-- Node5&#45;&gt;Node20 -->
<g id="edge19" class="edge"><title>Node5&#45;&gt;Node20</title>
<path fill="none" stroke="midnightblue" d="M451.595,-944.564C466.8,-976.968 501.479,-1041.79 550,-1078 555.148,-1081.84 560.896,-1085.14 566.874,-1087.96"/>
<polygon fill="midnightblue" stroke="midnightblue" points="454.685,-942.904 447.35,-935.26 448.316,-945.81 454.685,-942.904"/>
</g>
<!-- Node21 -->
<g id="node21" class="node"><title>Node21</title>
<g id="a_node21"><a xlink:href="class_campaigns_collection.html#a2ec4b8a52341c840c56881d98d0bfdd6" target="_top" xlink:title="Get a page of Campaigns. ">
<polygon fill="white" stroke="black" points="573.754,-1037 573.754,-1069 684.246,-1069 684.246,-1037 573.754,-1037"/>
<text text-anchor="start" x="581.754" y="-1055" font-family="Helvetica,sans-Serif" font-size="10.00">CampaignsCollection</text>
<text text-anchor="middle" x="629" y="-1043" font-family="Helvetica,sans-Serif" font-size="10.00">\getCampaigns</text>
</a>
</g>
</g>
<!-- Node5&#45;&gt;Node21 -->
<g id="edge20" class="edge"><title>Node5&#45;&gt;Node21</title>
<path fill="none" stroke="midnightblue" d="M457.481,-943.031C476.502,-965.617 511.975,-1004.12 550,-1027 557.339,-1031.42 565.522,-1035.19 573.751,-1038.38"/>
<polygon fill="midnightblue" stroke="midnightblue" points="460.094,-940.698 451.026,-935.22 454.699,-945.158 460.094,-940.698"/>
</g>
<!-- Node22 -->
<g id="node22" class="node"><title>Node22</title>
<g id="a_node22"><a xlink:href="class_campaigns_collection.html#ac411f9b4976e489a0433606367a6d329" target="_top" xlink:title="Get detailed Campaign object. ">
<polygon fill="white" stroke="black" points="573.754,-986 573.754,-1018 684.246,-1018 684.246,-986 573.754,-986"/>
<text text-anchor="start" x="581.754" y="-1004" font-family="Helvetica,sans-Serif" font-size="10.00">CampaignsCollection</text>
<text text-anchor="middle" x="629" y="-992" font-family="Helvetica,sans-Serif" font-size="10.00">\getCampaignDetails</text>
</a>
</g>
</g>
<!-- Node5&#45;&gt;Node22 -->
<g id="edge21" class="edge"><title>Node5&#45;&gt;Node22</title>
<path fill="none" stroke="midnightblue" d="M471.536,-939.783C492.849,-950.531 522.857,-965.056 550,-976 558.605,-979.47 567.869,-982.853 576.902,-985.971"/>
<polygon fill="midnightblue" stroke="midnightblue" points="472.898,-936.548 462.397,-935.136 469.725,-942.788 472.898,-936.548"/>
</g>
<!-- Node23 -->
<g id="node23" class="node"><title>Node23</title>
<g id="a_node23"><a xlink:href="class_campaigns_collection.html#a9c9715edb4f23ba515ce7b53a38cfdbb" target="_top" xlink:title="Update a campaign with it&#39;s current properties. ">
<polygon fill="white" stroke="black" points="573.754,-257 573.754,-289 684.246,-289 684.246,-257 573.754,-257"/>
<text text-anchor="start" x="581.754" y="-275" font-family="Helvetica,sans-Serif" font-size="10.00">CampaignsCollection</text>
<text text-anchor="middle" x="629" y="-263" font-family="Helvetica,sans-Serif" font-size="10.00">\updateCampaign</text>
</a>
</g>
</g>
<!-- Node5&#45;&gt;Node23 -->
<g id="edge22" class="edge"><title>Node5&#45;&gt;Node23</title>
<path fill="none" stroke="midnightblue" d="M443.716,-904.514C447.518,-807.156 468.362,-392.058 550,-298 556.245,-290.805 564.564,-285.663 573.444,-281.994"/>
<polygon fill="midnightblue" stroke="midnightblue" points="440.217,-904.421 443.342,-914.545 447.212,-904.682 440.217,-904.421"/>
</g>
<!-- Node5&#45;&gt;Node4 -->
<g id="edge23" class="edge"><title>Node5&#45;&gt;Node4</title>
<path fill="none" stroke="midnightblue" d="M448.269,-945.133C461.56,-996.734 496.624,-1138.1 514,-1258 521.385,-1308.96 518.293,-1679.43 550,-1720 554.571,-1725.85 560.503,-1730.39 567.055,-1733.92"/>
<polygon fill="midnightblue" stroke="midnightblue" points="451.609,-944.069 445.711,-935.268 444.833,-945.827 451.609,-944.069"/>
</g>
<!-- Node24 -->
<g id="node24" class="node"><title>Node24</title>
<g id="a_node24"><a xlink:href="class_campaigns_collection.html#a0d5df67f0dd50c64257c8b0135196509" target="_top" xlink:title="Schedule an email for delivery. ">
<polygon fill="white" stroke="black" points="573.754,-206 573.754,-238 684.246,-238 684.246,-206 573.754,-206"/>
<text text-anchor="start" x="581.754" y="-224" font-family="Helvetica,sans-Serif" font-size="10.00">CampaignsCollection</text>
<text text-anchor="middle" x="629" y="-212" font-family="Helvetica,sans-Serif" font-size="10.00">\scheduleCampaign</text>
</a>
</g>
</g>
<!-- Node5&#45;&gt;Node24 -->
<g id="edge24" class="edge"><title>Node5&#45;&gt;Node24</title>
<path fill="none" stroke="midnightblue" d="M443.428,-904.501C445.962,-802.402 462.077,-349.587 550,-247 556.2,-239.766 564.498,-234.606 573.37,-230.93"/>
<polygon fill="midnightblue" stroke="midnightblue" points="439.924,-904.625 443.192,-914.703 446.922,-904.786 439.924,-904.625"/>
</g>
<!-- Node25 -->
<g id="node25" class="node"><title>Node25</title>
<g id="a_node25"><a xlink:href="class_campaigns_collection.html#a7b245605bb0707dfec9d384521a39ad6" target="_top" xlink:title="Get a schedule for an email. ">
<polygon fill="white" stroke="black" points="573.754,-935 573.754,-967 684.246,-967 684.246,-935 573.754,-935"/>
<text text-anchor="start" x="581.754" y="-953" font-family="Helvetica,sans-Serif" font-size="10.00">CampaignsCollection</text>
<text text-anchor="middle" x="629" y="-941" font-family="Helvetica,sans-Serif" font-size="10.00">\getSchedule</text>
</a>
</g>
</g>
<!-- Node5&#45;&gt;Node25 -->
<g id="edge25" class="edge"><title>Node5&#45;&gt;Node25</title>
<path fill="none" stroke="midnightblue" d="M524.544,-936.46C541.191,-938.8 558.318,-941.207 573.727,-943.372"/>
<polygon fill="midnightblue" stroke="midnightblue" points="524.651,-932.941 514.261,-935.015 523.677,-939.873 524.651,-932.941"/>
</g>
<!-- Node26 -->
<g id="node26" class="node"><title>Node26</title>
<g id="a_node26"><a xlink:href="class_campaigns_collection.html#a69b0afca8af93253a4d8e5e96eaaf875" target="_top" xlink:title="Delete a schedule from a campaign (prevent from sending) ">
<polygon fill="white" stroke="black" points="573.754,-884 573.754,-916 684.246,-916 684.246,-884 573.754,-884"/>
<text text-anchor="start" x="581.754" y="-902" font-family="Helvetica,sans-Serif" font-size="10.00">CampaignsCollection</text>
<text text-anchor="middle" x="629" y="-890" font-family="Helvetica,sans-Serif" font-size="10.00">\deleteSchedule</text>
</a>
</g>
</g>
<!-- Node5&#45;&gt;Node26 -->
<g id="edge26" class="edge"><title>Node5&#45;&gt;Node26</title>
<path fill="none" stroke="midnightblue" d="M524.544,-913.98C541.191,-911.731 558.318,-909.416 573.727,-907.334"/>
<polygon fill="midnightblue" stroke="midnightblue" points="523.702,-910.562 514.261,-915.37 524.64,-917.499 523.702,-910.562"/>
</g>
<!-- Node27 -->
<g id="node27" class="node"><title>Node27</title>
<g id="a_node27"><a xlink:href="class_campaigns_collection.html#ab3a63de718c94ce760ebf19f59170f0c" target="_top" xlink:title="CampaignsCollection\l\\getCampaignEvents">
<polygon fill="white" stroke="black" points="573.754,-833 573.754,-865 684.246,-865 684.246,-833 573.754,-833"/>
<text text-anchor="start" x="581.754" y="-851" font-family="Helvetica,sans-Serif" font-size="10.00">CampaignsCollection</text>
<text text-anchor="middle" x="629" y="-839" font-family="Helvetica,sans-Serif" font-size="10.00">\getCampaignEvents</text>
</a>
</g>
</g>
<!-- Node5&#45;&gt;Node27 -->
<g id="edge27" class="edge"><title>Node5&#45;&gt;Node27</title>
<path fill="none" stroke="midnightblue" d="M471.11,-910.321C492.427,-899.506 522.628,-884.853 550,-874 557.799,-870.908 566.147,-867.913 574.375,-865.135"/>
<polygon fill="midnightblue" stroke="midnightblue" points="469.291,-907.321 461.984,-914.993 472.48,-913.552 469.291,-907.321"/>
</g>
<!-- Node28 -->
<g id="node28" class="node"><title>Node28</title>
<g id="a_node28"><a xlink:href="class_campaigns_collection.html#af8bbae16c19c800f6fe4e5e605c57812" target="_top" xlink:title="Delete a Campaign. ">
<polygon fill="white" stroke="black" points="573.754,-782 573.754,-814 684.246,-814 684.246,-782 573.754,-782"/>
<text text-anchor="start" x="581.754" y="-800" font-family="Helvetica,sans-Serif" font-size="10.00">CampaignsCollection</text>
<text text-anchor="middle" x="629" y="-788" font-family="Helvetica,sans-Serif" font-size="10.00">\deleteCampaign</text>
</a>
</g>
</g>
<!-- Node5&#45;&gt;Node28 -->
<g id="edge28" class="edge"><title>Node5&#45;&gt;Node28</title>
<path fill="none" stroke="midnightblue" d="M457.44,-906.9C476.417,-884.24 511.843,-845.656 550,-823 557.336,-818.644 565.518,-814.956 573.747,-811.864"/>
<polygon fill="midnightblue" stroke="midnightblue" points="454.644,-904.789 451.001,-914.738 460.053,-909.233 454.644,-904.789"/>
</g>
<!-- Node29 -->
<g id="node29" class="node"><title>Node29</title>
<g id="a_node29"><a xlink:href="class_campaigns_collection.html#a4bbf8266fa150e04a4bff5a8052967a6" target="_top" xlink:title="Add a new Campaign. ">
<polygon fill="white" stroke="black" points="573.754,-155 573.754,-187 684.246,-187 684.246,-155 573.754,-155"/>
<text text-anchor="start" x="581.754" y="-173" font-family="Helvetica,sans-Serif" font-size="10.00">CampaignsCollection</text>
<text text-anchor="middle" x="629" y="-161" font-family="Helvetica,sans-Serif" font-size="10.00">\addCampaign</text>
</a>
</g>
</g>
<!-- Node5&#45;&gt;Node29 -->
<g id="edge29" class="edge"><title>Node5&#45;&gt;Node29</title>
<path fill="none" stroke="midnightblue" d="M443.177,-904.673C444.503,-798.389 455.72,-307.213 550,-196 556.253,-188.624 564.687,-183.403 573.703,-179.712"/>
<polygon fill="midnightblue" stroke="midnightblue" points="439.674,-904.926 443.065,-914.963 446.673,-905.002 439.674,-904.926"/>
</g>
<!-- Node30 -->
<g id="node30" class="node"><title>Node30</title>
<g id="a_node30"><a xlink:href="class_library_collection.html#affc91465d0f01c4ede19c149424ea7f2" target="_top" xlink:title="Add a new Folder. ">
<polygon fill="white" stroke="black" points="559.857,-65 559.857,-85 698.143,-85 698.143,-65 559.857,-65"/>
<text text-anchor="middle" x="629" y="-71" font-family="Helvetica,sans-Serif" font-size="10.00">LibraryCollection\addFolder</text>
</a>
</g>
</g>
<!-- Node5&#45;&gt;Node30 -->
<g id="edge30" class="edge"><title>Node5&#45;&gt;Node30</title>
<path fill="none" stroke="midnightblue" d="M444.94,-904.912C456.98,-781.053 521.899,-125.404 550,-94 553.16,-90.4686 556.856,-87.5402 560.891,-85.1167"/>
<polygon fill="midnightblue" stroke="midnightblue" points="441.451,-904.63 443.97,-914.922 448.418,-905.306 441.451,-904.63"/>
</g>
<!-- Node31 -->
<g id="node31" class="node"><title>Node31</title>
<g id="a_node31"><a xlink:href="class_library_collection.html#a9a59624475132d58b8d356ff17cc3d71" target="_top" xlink:title="Get a page of Folders. ">
<polygon fill="white" stroke="black" points="558.749,-743 558.749,-763 699.251,-763 699.251,-743 558.749,-743"/>
<text text-anchor="middle" x="629" y="-749" font-family="Helvetica,sans-Serif" font-size="10.00">LibraryCollection\getFolders</text>
</a>
</g>
</g>
<!-- Node5&#45;&gt;Node31 -->
<g id="edge31" class="edge"><title>Node5&#45;&gt;Node31</title>
<path fill="none" stroke="midnightblue" d="M451.063,-905.466C465.684,-872.565 499.78,-806.337 550,-772 555.292,-768.381 561.201,-765.45 567.334,-763.075"/>
<polygon fill="midnightblue" stroke="midnightblue" points="447.744,-904.325 447.005,-914.894 454.173,-907.092 447.744,-904.325"/>
</g>
<!-- Node32 -->
<g id="node32" class="node"><title>Node32</title>
<g id="a_node32"><a xlink:href="class_library_collection.html#aae2790279001240056f5385ea247c80a" target="_top" xlink:title="Gets a page of images from a folder. ">
<polygon fill="white" stroke="black" points="559.025,-692 559.025,-724 698.975,-724 698.975,-692 559.025,-692"/>
<text text-anchor="start" x="567.025" y="-710" font-family="Helvetica,sans-Serif" font-size="10.00">LibraryCollection\getImages</text>
<text text-anchor="middle" x="629" y="-698" font-family="Helvetica,sans-Serif" font-size="10.00">FromFolder</text>
</a>
</g>
</g>
<!-- Node5&#45;&gt;Node32 -->
<g id="edge32" class="edge"><title>Node5&#45;&gt;Node32</title>
<path fill="none" stroke="midnightblue" d="M448.581,-905.341C460.583,-866.601 492.524,-780.078 550,-733 554.18,-729.576 558.838,-726.618 563.74,-724.062"/>
<polygon fill="midnightblue" stroke="midnightblue" points="445.226,-904.345 445.72,-914.928 451.934,-906.347 445.226,-904.345"/>
</g>
<!-- Node33 -->
<g id="node33" class="node"><title>Node33</title>
<g id="a_node33"><a xlink:href="class_library_collection.html#a058e0d1ce52b8880b71a6203a106ed9d" target="_top" xlink:title="Get details for an image. ">
<polygon fill="white" stroke="black" points="561.525,-641 561.525,-673 696.475,-673 696.475,-641 561.525,-641"/>
<text text-anchor="start" x="569.525" y="-659" font-family="Helvetica,sans-Serif" font-size="10.00">LibraryCollection\getImage</text>
<text text-anchor="middle" x="629" y="-647" font-family="Helvetica,sans-Serif" font-size="10.00">Details</text>
</a>
</g>
</g>
<!-- Node5&#45;&gt;Node33 -->
<g id="edge33" class="edge"><title>Node5&#45;&gt;Node33</title>
<path fill="none" stroke="midnightblue" d="M446.112,-905.028C454.348,-858.893 481.013,-744.123 550,-682 553.804,-678.574 558.081,-675.618 562.622,-673.066"/>
<polygon fill="midnightblue" stroke="midnightblue" points="442.646,-904.529 444.437,-914.972 449.549,-905.692 442.646,-904.529"/>
</g>
<!-- Node34 -->
<g id="node34" class="node"><title>Node34</title>
<g id="a_node34"><a xlink:href="class_library_collection.html#abd5ce3c42f1924c16ae8e1ab2f0b506f" target="_top" xlink:title="Delete image from an account. ">
<polygon fill="white" stroke="black" points="568.749,-590 568.749,-622 689.251,-622 689.251,-590 568.749,-590"/>
<text text-anchor="start" x="576.749" y="-608" font-family="Helvetica,sans-Serif" font-size="10.00">LibraryCollection\delete</text>
<text text-anchor="middle" x="629" y="-596" font-family="Helvetica,sans-Serif" font-size="10.00">Image</text>
</a>
</g>
</g>
<!-- Node5&#45;&gt;Node34 -->
<g id="edge34" class="edge"><title>Node5&#45;&gt;Node34</title>
<path fill="none" stroke="midnightblue" d="M444.397,-904.888C449.144,-852.169 469.217,-708.702 550,-631 555.329,-625.874 561.712,-621.799 568.5,-618.559"/>
<polygon fill="midnightblue" stroke="midnightblue" points="440.9,-904.715 443.582,-914.965 447.877,-905.28 440.9,-904.715"/>
</g>
<!-- Node35 -->
<g id="node35" class="node"><title>Node35</title>
<g id="a_node35"><a xlink:href="class_library_collection.html#a35b66eb41a8bf5de0430efcf903457e2" target="_top" xlink:title="Delete all the images from a folder. ">
<polygon fill="white" stroke="black" points="568.749,-539 568.749,-571 689.251,-571 689.251,-539 568.749,-539"/>
<text text-anchor="start" x="576.749" y="-557" font-family="Helvetica,sans-Serif" font-size="10.00">LibraryCollection\delete</text>
<text text-anchor="middle" x="629" y="-545" font-family="Helvetica,sans-Serif" font-size="10.00">ImagesFromFolder</text>
</a>
</g>
</g>
<!-- Node5&#45;&gt;Node35 -->
<g id="edge35" class="edge"><title>Node5&#45;&gt;Node35</title>
<path fill="none" stroke="midnightblue" d="M443.146,-904.648C444.691,-845.777 457.32,-673.558 550,-580 555.304,-574.646 561.755,-570.437 568.651,-567.129"/>
<polygon fill="midnightblue" stroke="midnightblue" points="439.642,-904.793 442.964,-914.854 446.641,-904.918 439.642,-904.793"/>
</g>
<!-- Node5&#45;&gt;Node36 -->
<g id="edge36" class="edge"><title>Node5&#45;&gt;Node36</title>
<path fill="none" stroke="midnightblue" d="M444.485,-904.863C453.232,-788.505 499.387,-205.275 550,-145 554.664,-139.446 560.565,-135.113 567.025,-131.734"/>
<polygon fill="midnightblue" stroke="midnightblue" points="440.99,-904.665 443.737,-914.897 447.971,-905.185 440.99,-904.665"/>
</g>
<!-- Node37 -->
<g id="node37" class="node"><title>Node37</title>
<g id="a_node37"><a xlink:href="class_settings_collection.html#a5b55d829b678ff6e8ef61cb7c3af3afe" target="_top" xlink:title="Get a list of verified email addresses for an account. ">
<polygon fill="white" stroke="black" points="580.978,-488 580.978,-520 677.022,-520 677.022,-488 580.978,-488"/>
<text text-anchor="start" x="588.978" y="-506" font-family="Helvetica,sans-Serif" font-size="10.00">SettingsCollection</text>
<text text-anchor="middle" x="629" y="-494" font-family="Helvetica,sans-Serif" font-size="10.00">\getAddresses</text>
</a>
</g>
</g>
<!-- Node5&#45;&gt;Node37 -->
<g id="edge37" class="edge"><title>Node5&#45;&gt;Node37</title>
<path fill="none" stroke="midnightblue" d="M445.923,-904.495C456.724,-831.403 496.55,-584.982 550,-529 558.249,-520.36 569.482,-514.699 580.854,-510.991"/>
<polygon fill="midnightblue" stroke="midnightblue" points="442.417,-904.283 444.441,-914.682 449.344,-905.291 442.417,-904.283"/>
</g>
<!-- Node38 -->
<g id="node38" class="node"><title>Node38</title>
<g id="a_node38"><a xlink:href="class_events_collection.html#ad0ab949e45693fd1d72baed5d5e5d552" target="_top" xlink:title="Get a page of Events. ">
<polygon fill="white" stroke="black" points="560.133,-449 560.133,-469 697.867,-469 697.867,-449 560.133,-449"/>
<text text-anchor="middle" x="629" y="-455" font-family="Helvetica,sans-Serif" font-size="10.00">EventsCollection\getEvents</text>
</a>
</g>
</g>
<!-- Node5&#45;&gt;Node38 -->
<g id="edge38" class="edge"><title>Node5&#45;&gt;Node38</title>
<path fill="none" stroke="midnightblue" d="M445.058,-904.842C453.502,-826.058 488.008,-540.239 550,-478 553.541,-474.445 557.628,-471.514 562.039,-469.102"/>
<polygon fill="midnightblue" stroke="midnightblue" points="441.564,-904.601 444.001,-914.912 448.526,-905.332 441.564,-904.601"/>
</g>
<!-- Node39 -->
<g id="node39" class="node"><title>Node39</title>
<g id="a_node39"><a xlink:href="class_events_collection.html#afb1f27cb72007acfd6f901d743c8acad" target="_top" xlink:title="Get full details for an Event object. ">
<polygon fill="white" stroke="black" points="562.633,-398 562.633,-430 695.367,-430 695.367,-398 562.633,-398"/>
<text text-anchor="start" x="570.633" y="-416" font-family="Helvetica,sans-Serif" font-size="10.00">EventsCollection\getEvent</text>
<text text-anchor="middle" x="629" y="-404" font-family="Helvetica,sans-Serif" font-size="10.00">Details</text>
</a>
</g>
</g>
<!-- Node5&#45;&gt;Node39 -->
<g id="edge39" class="edge"><title>Node5&#45;&gt;Node39</title>
<path fill="none" stroke="midnightblue" d="M444.788,-904.841C452.509,-822.123 485.553,-509.77 550,-439 553.638,-435.005 557.915,-431.645 562.561,-428.819"/>
<polygon fill="midnightblue" stroke="midnightblue" points="441.29,-904.663 443.866,-914.94 448.261,-905.3 441.29,-904.663"/>
</g>
<!-- Node40 -->
<g id="node40" class="node"><title>Node40</title>
<g id="a_node40"><a xlink:href="class_events_collection.html#a6baab87fc0a58669c4b88cb2625c4b8a" target="_top" xlink:title="Get a page of Registrants for an Event. ">
<polygon fill="white" stroke="black" points="550.131,-359 550.131,-379 707.869,-379 707.869,-359 550.131,-359"/>
<text text-anchor="middle" x="629" y="-365" font-family="Helvetica,sans-Serif" font-size="10.00">EventsCollection\getRegistrants</text>
</a>
</g>
</g>
<!-- Node5&#45;&gt;Node40 -->
<g id="edge40" class="edge"><title>Node5&#45;&gt;Node40</title>
<path fill="none" stroke="midnightblue" d="M444.203,-904.603C449.846,-815.884 476.58,-464.59 550,-388 553.376,-384.479 557.286,-381.565 561.523,-379.158"/>
<polygon fill="midnightblue" stroke="midnightblue" points="440.702,-904.515 443.58,-914.711 447.688,-904.945 440.702,-904.515"/>
</g>
<!-- Node41 -->
<g id="node41" class="node"><title>Node41</title>
<g id="a_node41"><a xlink:href="class_events_collection.html#a7ab04dcbb2dd3baed275acf7cf658055" target="_top" xlink:title="Get details for an Event Registrant. ">
<polygon fill="white" stroke="black" points="552.631,-308 552.631,-340 705.369,-340 705.369,-308 552.631,-308"/>
<text text-anchor="start" x="560.631" y="-326" font-family="Helvetica,sans-Serif" font-size="10.00">EventsCollection\getRegistrant</text>
<text text-anchor="middle" x="629" y="-314" font-family="Helvetica,sans-Serif" font-size="10.00">Details</text>
</a>
</g>
</g>
<!-- Node5&#45;&gt;Node41 -->
<g id="edge41" class="edge"><title>Node5&#45;&gt;Node41</title>
<path fill="none" stroke="midnightblue" d="M444.04,-904.755C449.162,-812.725 474.566,-434.635 550,-349 553.008,-345.585 556.482,-342.634 560.26,-340.083"/>
<polygon fill="midnightblue" stroke="midnightblue" points="440.534,-904.774 443.492,-914.948 447.524,-905.15 440.534,-904.774"/>
</g>
<!-- Node13&#45;&gt;Node14 -->
<g id="edge13" class="edge"><title>Node13&#45;&gt;Node14</title>
<path fill="none" stroke="midnightblue" d="M688.475,-1296.43C695.856,-1292.84 702.673,-1288.14 708,-1282 788.672,-1189 813.801,-775.152 818.237,-688.102"/>
<polygon fill="midnightblue" stroke="midnightblue" points="686.786,-1293.34 678.894,-1300.41 689.472,-1299.8 686.786,-1293.34"/>
</g>
<!-- Node43 -->
<g id="node43" class="node"><title>Node43</title>
<g id="a_node43"><a xlink:href="class_contact_list.html#a89e0e4f328baaf6e8e5bca2bd2df7c2c" target="_top" xlink:title="Create XML Representation of the object. ">
<polygon fill="white" stroke="black" points="385.091,-1306 385.091,-1326 498.909,-1326 498.909,-1306 385.091,-1306"/>
<text text-anchor="middle" x="442" y="-1312" font-family="Helvetica,sans-Serif" font-size="10.00">ContactList\createXml</text>
</a>
</g>
</g>
<!-- Node42&#45;&gt;Node43 -->
<g id="edge45" class="edge"><title>Node42&#45;&gt;Node43</title>
<path fill="none" stroke="midnightblue" d="M262.45,-108.416C265.953,-259.499 290.878,-1200.66 370,-1296 374.089,-1300.93 379.289,-1304.69 385.011,-1307.56"/>
<polygon fill="midnightblue" stroke="midnightblue" points="265.945,-108.164 262.219,-98.2458 258.947,-108.323 265.945,-108.164"/>
</g>
<!-- Node44 -->
<g id="node44" class="node"><title>Node44</title>
<g id="a_node44"><a xlink:href="class_contact.html#a80e6087c0b49cfa360ec7c1bbee70103" target="_top" xlink:title="Create XML Representation of the object. ">
<polygon fill="white" stroke="black" points="392.872,-1267 392.872,-1287 491.128,-1287 491.128,-1267 392.872,-1267"/>
<text text-anchor="middle" x="442" y="-1273" font-family="Helvetica,sans-Serif" font-size="10.00">Contact\createXml</text>
</a>
</g>
</g>
<!-- Node42&#45;&gt;Node44 -->
<g id="edge48" class="edge"><title>Node42&#45;&gt;Node44</title>
<path fill="none" stroke="midnightblue" d="M263.936,-108.465C273.075,-203.626 313.809,-612.252 370,-944 391.767,-1072.51 428.711,-1226.69 438.538,-1266.98"/>
<polygon fill="midnightblue" stroke="midnightblue" points="267.393,-107.844 262.959,-98.2221 260.425,-108.509 267.393,-107.844"/>
</g>
<!-- Node45 -->
<g id="node45" class="node"><title>Node45</title>
<g id="a_node45"><a xlink:href="class_campaign.html#aa4d8bd6f5325907af5125ec983d51e99" target="_top" xlink:title="Create XML Representation of the object. ">
<polygon fill="white" stroke="black" points="387.313,-206 387.313,-226 496.687,-226 496.687,-206 387.313,-206"/>
<text text-anchor="middle" x="442" y="-212" font-family="Helvetica,sans-Serif" font-size="10.00">Campaign\createXml</text>
</a>
</g>
</g>
<!-- Node42&#45;&gt;Node45 -->
<g id="edge51" class="edge"><title>Node42&#45;&gt;Node45</title>
<path fill="none" stroke="midnightblue" d="M284.248,-103.909C321.456,-130.516 395.3,-183.32 426.522,-205.647"/>
<polygon fill="midnightblue" stroke="midnightblue" points="286.216,-101.014 276.046,-98.0439 282.144,-106.708 286.216,-101.014"/>
</g>
<!-- Node46 -->
<g id="node46" class="node"><title>Node46</title>
<g id="a_node46"><a xlink:href="class_folder.html#a39af774e4006f51baaa7e350db3ec8d6" target="_top" xlink:title="Create XML Representation of the object. ">
<polygon fill="white" stroke="black" points="395.931,-78 395.931,-98 488.069,-98 488.069,-78 395.931,-78"/>
<text text-anchor="middle" x="442" y="-84" font-family="Helvetica,sans-Serif" font-size="10.00">Folder\createXml</text>
</a>
</g>
</g>
<!-- Node42&#45;&gt;Node46 -->
<g id="edge55" class="edge"><title>Node42&#45;&gt;Node46</title>
<path fill="none" stroke="midnightblue" d="M319.796,-88C344.409,-88 372.696,-88 395.749,-88"/>
<polygon fill="midnightblue" stroke="midnightblue" points="319.499,-84.5001 309.499,-88 319.499,-91.5001 319.499,-84.5001"/>
</g>
<!-- Node47 -->
<g id="node47" class="node"><title>Node47</title>
<g id="a_node47"><a xlink:href="class_image.html#a6e5a2e05265867312278ead99b66556f" target="_top" xlink:title="Create XML Representation of the object. ">
<polygon fill="white" stroke="black" points="396.207,-39 396.207,-59 487.793,-59 487.793,-39 396.207,-39"/>
<text text-anchor="middle" x="442" y="-45" font-family="Helvetica,sans-Serif" font-size="10.00">Image\createXml</text>
</a>
</g>
</g>
<!-- Node42&#45;&gt;Node47 -->
<g id="edge57" class="edge"><title>Node42&#45;&gt;Node47</title>
<path fill="none" stroke="midnightblue" d="M318.2,-75.7552C343.264,-70.2943 372.392,-63.948 395.988,-58.8071"/>
<polygon fill="midnightblue" stroke="midnightblue" points="317.123,-72.4079 308.097,-77.9565 318.613,-79.2474 317.123,-72.4079"/>
</g>
<!-- Node48 -->
<g id="node48" class="node"><title>Node48</title>
<g id="a_node48"><a xlink:href="class_schedule.html#a2d0d675bfae098ed8c87fc0f473f8ad6" target="_top" xlink:title="Schedule\\createXml">
<polygon fill="white" stroke="black" points="389.254,-0 389.254,-20 494.746,-20 494.746,-0 389.254,-0"/>
<text text-anchor="middle" x="442" y="-6" font-family="Helvetica,sans-Serif" font-size="10.00">Schedule\createXml</text>
</a>
</g>
</g>
<!-- Node42&#45;&gt;Node48 -->
<g id="edge58" class="edge"><title>Node42&#45;&gt;Node48</title>
<path fill="none" stroke="midnightblue" d="M286.244,-72.5638C307.612,-59.5003 339.935,-41.0339 370,-29 378.529,-25.586 387.877,-22.5894 396.908,-20.0455"/>
<polygon fill="midnightblue" stroke="midnightblue" points="284.177,-69.7272 277.52,-77.9699 287.864,-75.6773 284.177,-69.7272"/>
</g>
<!-- Node43&#45;&gt;Node8 -->
<g id="edge46" class="edge"><title>Node43&#45;&gt;Node8</title>
<path fill="none" stroke="midnightblue" d="M503.072,-1331.04C507.191,-1333.81 510.921,-1337.1 514,-1341 608.227,-1460.21 450.646,-1566.02 550,-1681 555.576,-1687.45 562.923,-1691.97 570.881,-1695.1"/>
<polygon fill="midnightblue" stroke="midnightblue" points="504.586,-1327.87 494.154,-1326.02 501.156,-1333.97 504.586,-1327.87"/>
</g>
<!-- Node43&#45;&gt;Node12 -->
<g id="edge47" class="edge"><title>Node43&#45;&gt;Node12</title>
<path fill="none" stroke="midnightblue" d="M503.015,-1331.08C507.146,-1333.85 510.894,-1337.13 514,-1341 598.26,-1446.13 461.22,-1540.66 550,-1642 553.961,-1646.52 558.792,-1650.09 564.089,-1652.89"/>
<polygon fill="midnightblue" stroke="midnightblue" points="504.515,-1327.91 494.08,-1326.08 501.097,-1334.02 504.515,-1327.91"/>
</g>
<!-- Node44&#45;&gt;Node17 -->
<g id="edge49" class="edge"><title>Node44&#45;&gt;Node17</title>
<path fill="none" stroke="midnightblue" d="M500.754,-1286.56C505.749,-1289.27 510.3,-1292.69 514,-1297 599.712,-1396.92 466.668,-1489.09 550,-1591 557.409,-1600.06 568.075,-1605.99 579.15,-1609.85"/>
<polygon fill="midnightblue" stroke="midnightblue" points="501.933,-1283.26 491.371,-1282.43 499.109,-1289.66 501.933,-1283.26"/>
</g>
<!-- Node44&#45;&gt;Node18 -->
<g id="edge50" class="edge"><title>Node44&#45;&gt;Node18</title>
<path fill="none" stroke="midnightblue" d="M500.643,-1286.66C505.66,-1289.35 510.246,-1292.73 514,-1297 586.126,-1378.96 479.827,-1456.36 550,-1540 557.523,-1548.97 568.23,-1554.86 579.308,-1558.72"/>
<polygon fill="midnightblue" stroke="midnightblue" points="501.799,-1283.35 491.235,-1282.54 498.994,-1289.76 501.799,-1283.35"/>
</g>
<!-- Node45&#45;&gt;Node29 -->
<g id="edge52" class="edge"><title>Node45&#45;&gt;Node29</title>
<path fill="none" stroke="midnightblue" d="M494.404,-203.496C519.057,-197.5 548.597,-190.314 573.624,-184.227"/>
<polygon fill="midnightblue" stroke="midnightblue" points="493.407,-200.137 484.518,-205.901 495.062,-206.938 493.407,-200.137"/>
</g>
<!-- Node45&#45;&gt;Node24 -->
<g id="edge53" class="edge"><title>Node45&#45;&gt;Node24</title>
<path fill="none" stroke="midnightblue" d="M507.109,-218.079C528.783,-218.782 552.759,-219.56 573.606,-220.236"/>
<polygon fill="midnightblue" stroke="midnightblue" points="507.115,-214.578 497.007,-217.752 506.888,-221.574 507.115,-214.578"/>
</g>
<!-- Node45&#45;&gt;Node23 -->
<g id="edge54" class="edge"><title>Node45&#45;&gt;Node23</title>
<path fill="none" stroke="midnightblue" d="M485.514,-229.099C512.358,-237.37 547.23,-248.114 575.756,-256.903"/>
<polygon fill="midnightblue" stroke="midnightblue" points="486.236,-225.659 475.648,-226.059 484.175,-232.349 486.236,-225.659"/>
</g>
<!-- Node46&#45;&gt;Node30 -->
<g id="edge56" class="edge"><title>Node46&#45;&gt;Node30</title>
<path fill="none" stroke="midnightblue" d="M498.382,-84.1083C517.673,-82.7527 539.546,-81.2157 559.756,-79.7955"/>
<polygon fill="midnightblue" stroke="midnightblue" points="497.986,-80.6274 488.256,-84.8198 498.477,-87.6102 497.986,-80.6274"/>
</g>
</g>
</svg>
