<?xml version="1.0" encoding="UTF-8" standalone="no"?>
<!DOCTYPE svg PUBLIC "-//W3C//DTD SVG 1.1//EN"
 "http://www.w3.org/Graphics/SVG/1.1/DTD/svg11.dtd">
<!-- Generated by graphviz version 2.30.1 (20130221.2233)
 -->
<!-- Title: Net_DNS_RR\data Pages: 1 -->
<svg width="274pt" height="67pt"
 viewBox="0.00 0.00 274.00 67.00" xmlns="http://www.w3.org/2000/svg" xmlns:xlink="http://www.w3.org/1999/xlink">
<g id="graph0" class="graph" transform="scale(1 1) rotate(0) translate(4 63)">
<title>Net_DNS_RR\data</title>
<polygon fill="white" stroke="white" points="-4,5 -4,-63 271,-63 271,5 -4,5"/>
<!-- Node1 -->
<g id="node1" class="node"><title>Node1</title>
<polygon fill="#bfbfbf" stroke="black" points="-0.241211,-19 -0.241211,-39 100.241,-39 100.241,-19 -0.241211,-19"/>
<text text-anchor="middle" x="50" y="-25" font-family="Helvetica,sans-Serif" font-size="10.00">Net_DNS_RR\data</text>
</g>
<!-- Node2 -->
<g id="node2" class="node"><title>Node2</title>
<g id="a_node2"><a xlink:href="class_net___d_n_s.html#a1e086e94cfa4b747b481b1e5859a1caf" target="_top" xlink:title="translates a DNS class from it&#39;s name to it&#39;s integer value. ">
<polygon fill="white" stroke="black" points="136.032,-39 136.032,-59 265.968,-59 265.968,-39 136.032,-39"/>
<text text-anchor="middle" x="201" y="-45" font-family="Helvetica,sans-Serif" font-size="10.00">Net_DNS\classesbyname</text>
</a>
</g>
</g>
<!-- Node1&#45;&gt;Node2 -->
<g id="edge1" class="edge"><title>Node1&#45;&gt;Node2</title>
<path fill="none" stroke="midnightblue" d="M100.615,-35.6597C108.768,-36.7541 117.371,-37.9089 125.966,-39.0625"/>
<polygon fill="midnightblue" stroke="midnightblue" points="125.647,-42.551 136.024,-40.4126 126.578,-35.6132 125.647,-42.551"/>
</g>
<!-- Node3 -->
<g id="node3" class="node"><title>Node3</title>
<g id="a_node3"><a xlink:href="class_net___d_n_s.html#a1420f63422265cad4ceb1899647e53e6" target="_top" xlink:title="Translates RR type names into integers. ">
<polygon fill="white" stroke="black" points="140.754,-0 140.754,-20 261.246,-20 261.246,-0 140.754,-0"/>
<text text-anchor="middle" x="201" y="-6" font-family="Helvetica,sans-Serif" font-size="10.00">Net_DNS\typesbyname</text>
</a>
</g>
</g>
<!-- Node1&#45;&gt;Node3 -->
<g id="edge2" class="edge"><title>Node1&#45;&gt;Node3</title>
<path fill="none" stroke="midnightblue" d="M100.615,-22.6733C110.202,-21.4507 120.411,-20.149 130.497,-18.8628"/>
<polygon fill="midnightblue" stroke="midnightblue" points="131.037,-22.3224 140.514,-17.5855 130.152,-15.3786 131.037,-22.3224"/>
</g>
</g>
</svg>
