<?xml version="1.0" encoding="UTF-8" standalone="no"?>
<!DOCTYPE svg PUBLIC "-//W3C//DTD SVG 1.1//EN"
 "http://www.w3.org/Graphics/SVG/1.1/DTD/svg11.dtd">
<!-- Generated by graphviz version 2.30.1 (20130221.2233)
 -->
<!-- Title: Campaign\createXml Pages: 1 -->
<svg width="602pt" height="28pt"
 viewBox="0.00 0.00 602.00 28.00" xmlns="http://www.w3.org/2000/svg" xmlns:xlink="http://www.w3.org/1999/xlink">
<g id="graph0" class="graph" transform="scale(1 1) rotate(0) translate(4 24)">
<title>Campaign\createXml</title>
<polygon fill="white" stroke="white" points="-4,5 -4,-24 599,-24 599,5 -4,5"/>
<!-- Node1 -->
<g id="node1" class="node"><title>Node1</title>
<polygon fill="#bfbfbf" stroke="black" points="0.312988,-0 0.312988,-20 109.687,-20 109.687,-0 0.312988,-0"/>
<text text-anchor="middle" x="55" y="-6" font-family="Helvetica,sans-Serif" font-size="10.00">Campaign\createXml</text>
</g>
<!-- Node2 -->
<g id="node2" class="node"><title>Node2</title>
<g id="a_node2"><a xlink:href="class_c_c_object.html#a2175b643672414fd5dd302e8feb7bc55" target="_top" xlink:title="Validate an object to check that all required fields have been supplied &#160;array $params &#45; object prope...">
<polygon fill="white" stroke="black" points="146.705,-0 146.705,-20 243.295,-20 243.295,-0 146.705,-0"/>
<text text-anchor="middle" x="195" y="-6" font-family="Helvetica,sans-Serif" font-size="10.00">CCObject\validate</text>
</a>
</g>
</g>
<!-- Node1&#45;&gt;Node2 -->
<g id="edge1" class="edge"><title>Node1&#45;&gt;Node2</title>
<path fill="none" stroke="midnightblue" d="M109.75,-10C118.453,-10 127.497,-10 136.289,-10"/>
<polygon fill="midnightblue" stroke="midnightblue" points="136.46,-13.5001 146.46,-10 136.46,-6.5001 136.46,-13.5001"/>
</g>
<!-- Node3 -->
<g id="node3" class="node"><title>Node3</title>
<g id="a_node3"><a xlink:href="class_c_t_c_t_exception.html#adc8307ec7d7a2c730b0dac678d0e7fcb" target="_top" xlink:title="CTCTException\\generateError">
<polygon fill="white" stroke="black" points="280.473,-0 280.473,-20 431.527,-20 431.527,-0 280.473,-0"/>
<text text-anchor="middle" x="356" y="-6" font-family="Helvetica,sans-Serif" font-size="10.00">CTCTException\generateError</text>
</a>
</g>
</g>
<!-- Node2&#45;&gt;Node3 -->
<g id="edge2" class="edge"><title>Node2&#45;&gt;Node3</title>
<path fill="none" stroke="midnightblue" d="M243.705,-10C252.079,-10 261.017,-10 270.049,-10"/>
<polygon fill="midnightblue" stroke="midnightblue" points="270.261,-13.5001 280.261,-10 270.261,-6.5001 270.261,-13.5001"/>
</g>
<!-- Node4 -->
<g id="node4" class="node"><title>Node4</title>
<g id="a_node4"><a xlink:href="class_c_t_c_t_exception.html#a6a86531406328bbd2a6c6252b7fb3a70" target="_top" xlink:title="CTCTException\\logError">
<polygon fill="white" stroke="black" points="468.54,-0 468.54,-20 593.46,-20 593.46,-0 468.54,-0"/>
<text text-anchor="middle" x="531" y="-6" font-family="Helvetica,sans-Serif" font-size="10.00">CTCTException\logError</text>
</a>
</g>
</g>
<!-- Node3&#45;&gt;Node4 -->
<g id="edge3" class="edge"><title>Node3&#45;&gt;Node4</title>
<path fill="none" stroke="midnightblue" d="M431.623,-10C440.431,-10 449.406,-10 458.174,-10"/>
<polygon fill="midnightblue" stroke="midnightblue" points="458.349,-13.5001 468.349,-10 458.349,-6.5001 458.349,-13.5001"/>
</g>
</g>
</svg>
