<?xml version="1.0" encoding="UTF-8" standalone="no"?>
<!DOCTYPE svg PUBLIC "-//W3C//DTD SVG 1.1//EN"
 "http://www.w3.org/Graphics/SVG/1.1/DTD/svg11.dtd">
<!-- Generated by graphviz version 2.30.1 (20130221.2233)
 -->
<!-- Title: Ctct\Services\EmailMarketingService\getCampaign Pages: 1 -->
<svg width="560pt" height="193pt"
 viewBox="0.00 0.00 560.00 193.00" xmlns="http://www.w3.org/2000/svg" xmlns:xlink="http://www.w3.org/1999/xlink">
<g id="graph0" class="graph" transform="scale(1 1) rotate(0) translate(4 189)">
<title>Ctct\Services\EmailMarketingService\getCampaign</title>
<polygon fill="white" stroke="white" points="-4,5 -4,-189 557,-189 557,5 -4,5"/>
<!-- Node1 -->
<g id="node1" class="node"><title>Node1</title>
<polygon fill="#bfbfbf" stroke="black" points="0.70459,-76 0.70459,-108 147.295,-108 147.295,-76 0.70459,-76"/>
<text text-anchor="start" x="8.70459" y="-94" font-family="Helvetica,sans-Serif" font-size="10.00">Ctct\Services\EmailMarketing</text>
<text text-anchor="middle" x="74" y="-82" font-family="Helvetica,sans-Serif" font-size="10.00">Service\getCampaign</text>
</g>
<!-- Node2 -->
<g id="node2" class="node"><title>Node2</title>
<g id="a_node2"><a xlink:href="class_ctct_1_1_services_1_1_base_service.html#a5c4ae0795fcc06c137b6e761963c4df6" target="_top" xlink:title="Build a url from the base url and query parameters array. ">
<polygon fill="white" stroke="black" points="200.091,-127 200.091,-159 333.909,-159 333.909,-127 200.091,-127"/>
<text text-anchor="start" x="208.091" y="-145" font-family="Helvetica,sans-Serif" font-size="10.00">Ctct\Services\BaseService</text>
<text text-anchor="middle" x="267" y="-133" font-family="Helvetica,sans-Serif" font-size="10.00">\buildUrl</text>
</a>
</g>
</g>
<!-- Node1&#45;&gt;Node2 -->
<g id="edge1" class="edge"><title>Node1&#45;&gt;Node2</title>
<path fill="none" stroke="midnightblue" d="M135.171,-108.067C154.529,-113.236 176.142,-119.006 196.135,-124.345"/>
<polygon fill="midnightblue" stroke="midnightblue" points="195.239,-127.728 205.803,-126.926 197.044,-120.965 195.239,-127.728"/>
</g>
<!-- Node3 -->
<g id="node3" class="node"><title>Node3</title>
<g id="a_node3"><a xlink:href="class_ctct_1_1_components_1_1_email_marketing_1_1_campaign.html#afbeef4aaccb7fd7be77f5e497e0fbc5f" target="_top" xlink:title="Factory method to create a Campaign object from an array. ">
<polygon fill="white" stroke="black" points="184.527,-76 184.527,-108 349.473,-108 349.473,-76 184.527,-76"/>
<text text-anchor="start" x="192.527" y="-94" font-family="Helvetica,sans-Serif" font-size="10.00">Ctct\Components\EmailMarketing</text>
<text text-anchor="middle" x="267" y="-82" font-family="Helvetica,sans-Serif" font-size="10.00">\Campaign\create</text>
</a>
</g>
</g>
<!-- Node1&#45;&gt;Node3 -->
<g id="edge2" class="edge"><title>Node1&#45;&gt;Node3</title>
<path fill="none" stroke="midnightblue" d="M147.481,-92C156.222,-92 165.237,-92 174.208,-92"/>
<polygon fill="midnightblue" stroke="midnightblue" points="174.301,-95.5001 184.301,-92 174.301,-88.5001 174.301,-95.5001"/>
</g>
<!-- Node8 -->
<g id="node8" class="node"><title>Node8</title>
<g id="a_node8"><a xlink:href="class_ctct_1_1_util_1_1_config.html#ab224fae1ce1a1993c1ac42c708dc7de9" target="_top" xlink:title="Get a configuration property given a specified location, example usage: Config::get(&#39;auth.token_endpoint&#39;) ">
<polygon fill="white" stroke="black" points="217.318,-37 217.318,-57 316.682,-57 316.682,-37 217.318,-37"/>
<text text-anchor="middle" x="267" y="-43" font-family="Helvetica,sans-Serif" font-size="10.00">Ctct\Util\Config\get</text>
</a>
</g>
</g>
<!-- Node1&#45;&gt;Node8 -->
<g id="edge7" class="edge"><title>Node1&#45;&gt;Node8</title>
<path fill="none" stroke="midnightblue" d="M143.146,-75.9445C166.268,-70.497 191.726,-64.4991 213.442,-59.3827"/>
<polygon fill="midnightblue" stroke="midnightblue" points="214.523,-62.7239 223.454,-57.0239 212.918,-55.9104 214.523,-62.7239"/>
</g>
<!-- Node4 -->
<g id="node4" class="node"><title>Node4</title>
<g id="a_node4"><a xlink:href="class_ctct_1_1_components_1_1_tracking_1_1_tracking_summary.html#a2559d62ef3c0e3a457df0c50043311d4" target="_top" xlink:title="Factory method to create a TrackingSummary object from an array. ">
<polygon fill="white" stroke="black" points="401.994,-153 401.994,-185 536.006,-185 536.006,-153 401.994,-153"/>
<text text-anchor="start" x="409.994" y="-171" font-family="Helvetica,sans-Serif" font-size="10.00">Ctct\Components\Tracking</text>
<text text-anchor="middle" x="469" y="-159" font-family="Helvetica,sans-Serif" font-size="10.00">\TrackingSummary\create</text>
</a>
</g>
</g>
<!-- Node3&#45;&gt;Node4 -->
<g id="edge3" class="edge"><title>Node3&#45;&gt;Node4</title>
<path fill="none" stroke="midnightblue" d="M326.203,-108.054C334.35,-110.989 342.495,-114.309 350,-118 367.481,-126.596 368.519,-134.404 386,-143 390.573,-145.249 395.385,-147.36 400.289,-149.331"/>
<polygon fill="midnightblue" stroke="midnightblue" points="399.206,-152.663 409.797,-152.946 401.694,-146.12 399.206,-152.663"/>
</g>
<!-- Node5 -->
<g id="node5" class="node"><title>Node5</title>
<g id="a_node5"><a xlink:href="class_ctct_1_1_components_1_1_email_marketing_1_1_message_footer.html#a6e4143e459132449e4ad848e0d66a0e5" target="_top" xlink:title="Factory method to create a MessageFooter object from an array. ">
<polygon fill="white" stroke="black" points="386.527,-102 386.527,-134 551.473,-134 551.473,-102 386.527,-102"/>
<text text-anchor="start" x="394.527" y="-120" font-family="Helvetica,sans-Serif" font-size="10.00">Ctct\Components\EmailMarketing</text>
<text text-anchor="middle" x="469" y="-108" font-family="Helvetica,sans-Serif" font-size="10.00">\MessageFooter\create</text>
</a>
</g>
</g>
<!-- Node3&#45;&gt;Node5 -->
<g id="edge4" class="edge"><title>Node3&#45;&gt;Node5</title>
<path fill="none" stroke="midnightblue" d="M349.636,-102.613C358.426,-103.755 367.411,-104.923 376.308,-106.08"/>
<polygon fill="midnightblue" stroke="midnightblue" points="375.933,-109.561 386.301,-107.379 376.835,-102.619 375.933,-109.561"/>
</g>
<!-- Node6 -->
<g id="node6" class="node"><title>Node6</title>
<g id="a_node6"><a xlink:href="class_ctct_1_1_components_1_1_email_marketing_1_1_click_through_details.html#a21bbd4ba0873831d3cc03d8dc2e8ebe0" target="_top" xlink:title="Factory method to create a ClickThroughDetails object from an array. ">
<polygon fill="white" stroke="black" points="386.527,-51 386.527,-83 551.473,-83 551.473,-51 386.527,-51"/>
<text text-anchor="start" x="394.527" y="-69" font-family="Helvetica,sans-Serif" font-size="10.00">Ctct\Components\EmailMarketing</text>
<text text-anchor="middle" x="469" y="-57" font-family="Helvetica,sans-Serif" font-size="10.00">\ClickThroughDetails\create</text>
</a>
</g>
</g>
<!-- Node3&#45;&gt;Node6 -->
<g id="edge5" class="edge"><title>Node3&#45;&gt;Node6</title>
<path fill="none" stroke="midnightblue" d="M349.636,-81.7955C358.426,-80.6968 367.411,-79.5736 376.308,-78.4615"/>
<polygon fill="midnightblue" stroke="midnightblue" points="376.812,-81.9258 386.301,-77.2124 375.944,-74.9799 376.812,-81.9258"/>
</g>
<!-- Node7 -->
<g id="node7" class="node"><title>Node7</title>
<g id="a_node7"><a xlink:href="class_ctct_1_1_components_1_1_contacts_1_1_contact_list.html#a3fc8e0d47e974d0ba80d1ff92ec48d5c" target="_top" xlink:title="Factory method to create a ContactList object from an array. ">
<polygon fill="white" stroke="black" points="401.251,-0 401.251,-32 536.749,-32 536.749,-0 401.251,-0"/>
<text text-anchor="start" x="409.251" y="-18" font-family="Helvetica,sans-Serif" font-size="10.00">Ctct\Components\Contacts</text>
<text text-anchor="middle" x="469" y="-6" font-family="Helvetica,sans-Serif" font-size="10.00">\ContactList\create</text>
</a>
</g>
</g>
<!-- Node3&#45;&gt;Node7 -->
<g id="edge6" class="edge"><title>Node3&#45;&gt;Node7</title>
<path fill="none" stroke="midnightblue" d="M325.703,-75.9708C334.003,-73.0161 342.326,-69.6837 350,-66 367.336,-57.6787 368.664,-50.3213 386,-42 390.677,-39.7552 395.594,-37.6409 400.6,-35.6631"/>
<polygon fill="midnightblue" stroke="midnightblue" points="402.161,-38.8157 410.297,-32.0292 399.705,-32.2608 402.161,-38.8157"/>
</g>
</g>
</svg>
