<?xml version="1.0" encoding="UTF-8" standalone="no"?>
<!DOCTYPE svg PUBLIC "-//W3C//DTD SVG 1.1//EN"
 "http://www.w3.org/Graphics/SVG/1.1/DTD/svg11.dtd">
<!-- Generated by graphviz version 2.30.1 (20130221.2233)
 -->
<!-- Title: JsonLoader\getOptOuts Pages: 1 -->
<svg width="318pt" height="91pt"
 viewBox="0.00 0.00 318.00 91.00" xmlns="http://www.w3.org/2000/svg" xmlns:xlink="http://www.w3.org/1999/xlink">
<g id="graph0" class="graph" transform="scale(1 1) rotate(0) translate(4 87)">
<title>JsonLoader\getOptOuts</title>
<polygon fill="white" stroke="white" points="-4,5 -4,-87 315,-87 315,5 -4,5"/>
<!-- Node1 -->
<g id="node1" class="node"><title>Node1</title>
<polygon fill="#bfbfbf" stroke="black" points="-0.0883789,-31 -0.0883789,-51 122.088,-51 122.088,-31 -0.0883789,-31"/>
<text text-anchor="middle" x="61" y="-37" font-family="Helvetica,sans-Serif" font-size="10.00">JsonLoader\getOptOuts</text>
</g>
<!-- Node2 -->
<g id="node2" class="node"><title>Node2</title>
<g id="a_node2"><a xlink:href="class_campaign_tracking_service_unit_test.html#ab4ae3f05cfa06c976b0fe340c3127e13" target="_top" xlink:title="CampaignTrackingServiceUnit\lTest\\testGetUnsubscribes">
<polygon fill="white" stroke="black" points="158.656,-51 158.656,-83 309.344,-83 309.344,-51 158.656,-51"/>
<text text-anchor="start" x="166.656" y="-69" font-family="Helvetica,sans-Serif" font-size="10.00">CampaignTrackingServiceUnit</text>
<text text-anchor="middle" x="234" y="-57" font-family="Helvetica,sans-Serif" font-size="10.00">Test\testGetUnsubscribes</text>
</a>
</g>
</g>
<!-- Node1&#45;&gt;Node2 -->
<g id="edge1" class="edge"><title>Node1&#45;&gt;Node2</title>
<path fill="none" stroke="midnightblue" d="M132.329,-51.6933C140.985,-53.0095 149.856,-54.3582 158.57,-55.6832"/>
<polygon fill="midnightblue" stroke="midnightblue" points="132.701,-48.2097 122.288,-50.1666 131.648,-55.1301 132.701,-48.2097"/>
</g>
<!-- Node3 -->
<g id="node3" class="node"><title>Node3</title>
<g id="a_node3"><a xlink:href="class_contact_tracking_service_unit_test.html#ae2927f62a42a72951151e47061c3bba3" target="_top" xlink:title="ContactTrackingServiceUnit\lTest\\testGetUnsubscribes">
<polygon fill="white" stroke="black" points="164.215,-0 164.215,-32 303.785,-32 303.785,-0 164.215,-0"/>
<text text-anchor="start" x="172.215" y="-18" font-family="Helvetica,sans-Serif" font-size="10.00">ContactTrackingServiceUnit</text>
<text text-anchor="middle" x="234" y="-6" font-family="Helvetica,sans-Serif" font-size="10.00">Test\testGetUnsubscribes</text>
</a>
</g>
</g>
<!-- Node1&#45;&gt;Node3 -->
<g id="edge2" class="edge"><title>Node1&#45;&gt;Node3</title>
<path fill="none" stroke="midnightblue" d="M132.281,-30.7251C142.827,-29.1831 153.694,-27.5945 164.209,-26.0572"/>
<polygon fill="midnightblue" stroke="midnightblue" points="131.677,-27.2761 122.288,-32.1859 132.689,-34.2024 131.677,-27.2761"/>
</g>
</g>
</svg>
