<?xml version="1.0" encoding="UTF-8" standalone="no"?>
<!DOCTYPE svg PUBLIC "-//W3C//DTD SVG 1.1//EN"
 "http://www.w3.org/Graphics/SVG/1.1/DTD/svg11.dtd">
<!-- Generated by graphviz version 2.30.1 (20130221.2233)
 -->
<!-- Title: Net_DNS_RR_AAAA\rr_rdata Pages: 1 -->
<svg width="296pt" height="40pt"
 viewBox="0.00 0.00 296.00 40.00" xmlns="http://www.w3.org/2000/svg" xmlns:xlink="http://www.w3.org/1999/xlink">
<g id="graph0" class="graph" transform="scale(1 1) rotate(0) translate(4 36)">
<title>Net_DNS_RR_AAAA\rr_rdata</title>
<polygon fill="white" stroke="white" points="-4,5 -4,-36 293,-36 293,5 -4,5"/>
<!-- Node1 -->
<g id="node1" class="node"><title>Node1</title>
<polygon fill="#bfbfbf" stroke="black" points="0.0395508,-0 0.0395508,-32 119.96,-32 119.96,-0 0.0395508,-0"/>
<text text-anchor="start" x="8.03955" y="-18" font-family="Helvetica,sans-Serif" font-size="10.00">Net_DNS_RR_AAAA\rr</text>
<text text-anchor="middle" x="60" y="-6" font-family="Helvetica,sans-Serif" font-size="10.00">_rdata</text>
</g>
<!-- Node2 -->
<g id="node2" class="node"><title>Node2</title>
<g id="a_node2"><a xlink:href="class_net___d_n_s___r_r___a_a_a_a.html#a5583b437b8ca5916e09c9e91b8d19337" target="_top" xlink:title="Net_DNS_RR_AAAA\\ipv6\l_compress">
<polygon fill="white" stroke="black" points="156.197,-0 156.197,-32 287.803,-32 287.803,-0 156.197,-0"/>
<text text-anchor="start" x="164.197" y="-18" font-family="Helvetica,sans-Serif" font-size="10.00">Net_DNS_RR_AAAA\ipv6</text>
<text text-anchor="middle" x="222" y="-6" font-family="Helvetica,sans-Serif" font-size="10.00">_compress</text>
</a>
</g>
</g>
<!-- Node1&#45;&gt;Node2 -->
<g id="edge1" class="edge"><title>Node1&#45;&gt;Node2</title>
<path fill="none" stroke="midnightblue" d="M120.124,-16C128.505,-16 137.216,-16 145.851,-16"/>
<polygon fill="midnightblue" stroke="midnightblue" points="145.928,-19.5001 155.928,-16 145.928,-12.5001 145.928,-19.5001"/>
</g>
</g>
</svg>
