<?xml version="1.0" encoding="UTF-8" standalone="no"?>
<!DOCTYPE svg PUBLIC "-//W3C//DTD SVG 1.1//EN"
 "http://www.w3.org/Graphics/SVG/1.1/DTD/svg11.dtd">
<!-- Generated by graphviz version 2.30.1 (20130221.2233)
 -->
<!-- Title: Net_DNS\classesbyval Pages: 1 -->
<svg width="454pt" height="79pt"
 viewBox="0.00 0.00 454.00 79.00" xmlns="http://www.w3.org/2000/svg" xmlns:xlink="http://www.w3.org/1999/xlink">
<g id="graph0" class="graph" transform="scale(1 1) rotate(0) translate(4 75)">
<title>Net_DNS\classesbyval</title>
<polygon fill="white" stroke="white" points="-4,5 -4,-75 451,-75 451,5 -4,5"/>
<!-- Node1 -->
<g id="node1" class="node"><title>Node1</title>
<polygon fill="#bfbfbf" stroke="black" points="0.147949,-22 0.147949,-42 117.852,-42 117.852,-22 0.147949,-22"/>
<text text-anchor="middle" x="59" y="-28" font-family="Helvetica,sans-Serif" font-size="10.00">Net_DNS\classesbyval</text>
</g>
<!-- Node2 -->
<g id="node2" class="node"><title>Node2</title>
<g id="a_node2"><a xlink:href="class_net___d_n_s___packet.html#a91c880534c4ed4f43098627b5c829ef2" target="_top" xlink:title="Parses the question section of a packet. ">
<polygon fill="white" stroke="black" points="159.919,-39 159.919,-71 282.081,-71 282.081,-39 159.919,-39"/>
<text text-anchor="start" x="167.919" y="-57" font-family="Helvetica,sans-Serif" font-size="10.00">Net_DNS_Packet\parse</text>
<text text-anchor="middle" x="221" y="-45" font-family="Helvetica,sans-Serif" font-size="10.00">_question</text>
</a>
</g>
</g>
<!-- Node1&#45;&gt;Node2 -->
<g id="edge1" class="edge"><title>Node1&#45;&gt;Node2</title>
<path fill="none" stroke="midnightblue" d="M128.152,-41.7969C138.63,-43.303 149.384,-44.849 159.676,-46.3284"/>
<polygon fill="midnightblue" stroke="midnightblue" points="128.613,-38.3272 118.216,-40.3686 127.617,-45.2559 128.613,-38.3272"/>
</g>
<!-- Node4 -->
<g id="node4" class="node"><title>Node4</title>
<g id="a_node4"><a xlink:href="class_net___d_n_s___packet.html#a8684f7ece05b01f65ec45160cca1852d" target="_top" xlink:title="Parses a resource record section of a packet. ">
<polygon fill="white" stroke="black" points="153.808,-0 153.808,-20 288.192,-20 288.192,-0 153.808,-0"/>
<text text-anchor="middle" x="221" y="-6" font-family="Helvetica,sans-Serif" font-size="10.00">Net_DNS_Packet\parse_rr</text>
</a>
</g>
</g>
<!-- Node1&#45;&gt;Node4 -->
<g id="edge3" class="edge"><title>Node1&#45;&gt;Node4</title>
<path fill="none" stroke="midnightblue" d="M128.35,-22.6019C136.75,-21.4469 145.325,-20.2678 153.694,-19.1171"/>
<polygon fill="midnightblue" stroke="midnightblue" points="127.646,-19.1656 118.216,-23.9953 128.6,-26.1004 127.646,-19.1656"/>
</g>
<!-- Node3 -->
<g id="node3" class="node"><title>Node3</title>
<g id="a_node3"><a xlink:href="class_net___d_n_s___packet.html#a108461c26b058bf6aed5e4bcae9da3e6" target="_top" xlink:title="Parses a DNS packet returned by a DNS server. ">
<polygon fill="white" stroke="black" points="323.919,-22 323.919,-42 446.081,-42 446.081,-22 323.919,-22"/>
<text text-anchor="middle" x="385" y="-28" font-family="Helvetica,sans-Serif" font-size="10.00">Net_DNS_Packet\parse</text>
</a>
</g>
</g>
<!-- Node2&#45;&gt;Node3 -->
<g id="edge2" class="edge"><title>Node2&#45;&gt;Node3</title>
<path fill="none" stroke="midnightblue" d="M292.315,-45.017C302.84,-43.5228 313.609,-41.9937 323.897,-40.5332"/>
<polygon fill="midnightblue" stroke="midnightblue" points="291.732,-41.5647 282.323,-46.4356 292.716,-48.4952 291.732,-41.5647"/>
</g>
<!-- Node4&#45;&gt;Node3 -->
<g id="edge4" class="edge"><title>Node4&#45;&gt;Node3</title>
<path fill="none" stroke="midnightblue" d="M298.316,-20.3639C306.844,-21.522 315.442,-22.6896 323.729,-23.8151"/>
<polygon fill="midnightblue" stroke="midnightblue" points="298.739,-16.8893 288.359,-19.0117 297.797,-23.8256 298.739,-16.8893"/>
</g>
</g>
</svg>
