<?xml version="1.0" encoding="UTF-8" standalone="no"?>
<!DOCTYPE svg PUBLIC "-//W3C//DTD SVG 1.1//EN"
 "http://www.w3.org/Graphics/SVG/1.1/DTD/svg11.dtd">
<!-- Generated by graphviz version 2.30.1 (20130221.2233)
 -->
<!-- Title: JsonLoader\getForwards Pages: 1 -->
<svg width="324pt" height="91pt"
 viewBox="0.00 0.00 324.00 91.00" xmlns="http://www.w3.org/2000/svg" xmlns:xlink="http://www.w3.org/1999/xlink">
<g id="graph0" class="graph" transform="scale(1 1) rotate(0) translate(4 87)">
<title>JsonLoader\getForwards</title>
<polygon fill="white" stroke="white" points="-4,5 -4,-87 321,-87 321,5 -4,5"/>
<!-- Node1 -->
<g id="node1" class="node"><title>Node1</title>
<polygon fill="#bfbfbf" stroke="black" points="0.692383,-31 0.692383,-51 127.308,-51 127.308,-31 0.692383,-31"/>
<text text-anchor="middle" x="64" y="-37" font-family="Helvetica,sans-Serif" font-size="10.00">JsonLoader\getForwards</text>
</g>
<!-- Node2 -->
<g id="node2" class="node"><title>Node2</title>
<g id="a_node2"><a xlink:href="class_campaign_tracking_service_unit_test.html#a1a98ed6ec0e4d0667f6af5327ce08351" target="_top" xlink:title="CampaignTrackingServiceUnit\lTest\\testGetForwards">
<polygon fill="white" stroke="black" points="164.656,-51 164.656,-83 315.344,-83 315.344,-51 164.656,-51"/>
<text text-anchor="start" x="172.656" y="-69" font-family="Helvetica,sans-Serif" font-size="10.00">CampaignTrackingServiceUnit</text>
<text text-anchor="middle" x="240" y="-57" font-family="Helvetica,sans-Serif" font-size="10.00">Test\testGetForwards</text>
</a>
</g>
</g>
<!-- Node1&#45;&gt;Node2 -->
<g id="edge1" class="edge"><title>Node1&#45;&gt;Node2</title>
<path fill="none" stroke="midnightblue" d="M137.38,-51.8154C146.384,-53.1608 155.603,-54.5384 164.637,-55.8882"/>
<polygon fill="midnightblue" stroke="midnightblue" points="137.734,-48.3295 127.327,-50.3132 136.699,-55.2527 137.734,-48.3295"/>
</g>
<!-- Node3 -->
<g id="node3" class="node"><title>Node3</title>
<g id="a_node3"><a xlink:href="class_contact_tracking_service_unit_test.html#a9fcd540409c50b94355b453423d85ba4" target="_top" xlink:title="ContactTrackingServiceUnit\lTest\\testGetForwards">
<polygon fill="white" stroke="black" points="170.215,-0 170.215,-32 309.785,-32 309.785,-0 170.215,-0"/>
<text text-anchor="start" x="178.215" y="-18" font-family="Helvetica,sans-Serif" font-size="10.00">ContactTrackingServiceUnit</text>
<text text-anchor="middle" x="240" y="-6" font-family="Helvetica,sans-Serif" font-size="10.00">Test\testGetForwards</text>
</a>
</g>
</g>
<!-- Node1&#45;&gt;Node3 -->
<g id="edge2" class="edge"><title>Node1&#45;&gt;Node3</title>
<path fill="none" stroke="midnightblue" d="M137.525,-30.5797C148.282,-29.0341 159.344,-27.4449 170.026,-25.9101"/>
<polygon fill="midnightblue" stroke="midnightblue" points="136.727,-27.1584 127.327,-32.045 137.723,-34.0872 136.727,-27.1584"/>
</g>
</g>
</svg>
