<?xml version="1.0" encoding="UTF-8" standalone="no"?>
<!DOCTYPE svg PUBLIC "-//W3C//DTD SVG 1.1//EN"
 "http://www.w3.org/Graphics/SVG/1.1/DTD/svg11.dtd">
<!-- Generated by graphviz version 2.30.1 (20130221.2233)
 -->
<!-- Title: CTCT_Admin_Contacts\processForms Pages: 1 -->
<svg width="288pt" height="40pt"
 viewBox="0.00 0.00 288.00 40.00" xmlns="http://www.w3.org/2000/svg" xmlns:xlink="http://www.w3.org/1999/xlink">
<g id="graph0" class="graph" transform="scale(1 1) rotate(0) translate(4 36)">
<title>CTCT_Admin_Contacts\processForms</title>
<polygon fill="white" stroke="white" points="-4,5 -4,-36 285,-36 285,5 -4,5"/>
<!-- Node1 -->
<g id="node1" class="node"><title>Node1</title>
<polygon fill="#bfbfbf" stroke="black" points="0.20459,-0 0.20459,-32 121.795,-32 121.795,-0 0.20459,-0"/>
<text text-anchor="start" x="8.20459" y="-18" font-family="Helvetica,sans-Serif" font-size="10.00">CTCT_Admin_Contacts</text>
<text text-anchor="middle" x="61" y="-6" font-family="Helvetica,sans-Serif" font-size="10.00">\processForms</text>
</g>
<!-- Node2 -->
<g id="node2" class="node"><title>Node2</title>
<g id="a_node2"><a xlink:href="class_c_t_c_t___admin___contacts.html#ab2fcec542cf96c6e125b2b20d5216aac" target="_top" xlink:title="CTCT_Admin_Contacts\l\\getKey">
<polygon fill="white" stroke="black" points="158.205,-0 158.205,-32 279.795,-32 279.795,-0 158.205,-0"/>
<text text-anchor="start" x="166.205" y="-18" font-family="Helvetica,sans-Serif" font-size="10.00">CTCT_Admin_Contacts</text>
<text text-anchor="middle" x="219" y="-6" font-family="Helvetica,sans-Serif" font-size="10.00">\getKey</text>
</a>
</g>
</g>
<!-- Node1&#45;&gt;Node2 -->
<g id="edge1" class="edge"><title>Node1&#45;&gt;Node2</title>
<path fill="none" stroke="midnightblue" d="M121.868,-16C130.39,-16 139.218,-16 147.914,-16"/>
<polygon fill="midnightblue" stroke="midnightblue" points="148.035,-19.5001 158.035,-16 148.035,-12.5001 148.035,-19.5001"/>
</g>
</g>
</svg>
