<?xml version="1.0" encoding="UTF-8" standalone="no"?>
<!DOCTYPE svg PUBLIC "-//W3C//DTD SVG 1.1//EN"
 "http://www.w3.org/Graphics/SVG/1.1/DTD/svg11.dtd">
<!-- Generated by graphviz version 2.30.1 (20130221.2233)
 -->
<!-- Title: JsonLoader\getClearListsActivity Pages: 1 -->
<svg width="304pt" height="40pt"
 viewBox="0.00 0.00 304.00 40.00" xmlns="http://www.w3.org/2000/svg" xmlns:xlink="http://www.w3.org/1999/xlink">
<g id="graph0" class="graph" transform="scale(1 1) rotate(0) translate(4 36)">
<title>JsonLoader\getClearListsActivity</title>
<polygon fill="white" stroke="white" points="-4,5 -4,-36 301,-36 301,5 -4,5"/>
<!-- Node1 -->
<g id="node1" class="node"><title>Node1</title>
<polygon fill="#bfbfbf" stroke="black" points="0.300781,-0 0.300781,-32 129.699,-32 129.699,-0 0.300781,-0"/>
<text text-anchor="start" x="8.30078" y="-18" font-family="Helvetica,sans-Serif" font-size="10.00">JsonLoader\getClearLists</text>
<text text-anchor="middle" x="65" y="-6" font-family="Helvetica,sans-Serif" font-size="10.00">Activity</text>
</g>
<!-- Node2 -->
<g id="node2" class="node"><title>Node2</title>
<g id="a_node2"><a xlink:href="class_activity_service_unit_test.html#aa186ae22fb84d48e8c3242ed77e13a23" target="_top" xlink:title="ActivityServiceUnitTest\l\\testAddClearListsActivity">
<polygon fill="white" stroke="black" points="166.591,-0 166.591,-32 295.409,-32 295.409,-0 166.591,-0"/>
<text text-anchor="start" x="174.591" y="-18" font-family="Helvetica,sans-Serif" font-size="10.00">ActivityServiceUnitTest</text>
<text text-anchor="middle" x="231" y="-6" font-family="Helvetica,sans-Serif" font-size="10.00">\testAddClearListsActivity</text>
</a>
</g>
</g>
<!-- Node1&#45;&gt;Node2 -->
<g id="edge1" class="edge"><title>Node1&#45;&gt;Node2</title>
<path fill="none" stroke="midnightblue" d="M140.151,-16C148.972,-16 157.915,-16 166.568,-16"/>
<polygon fill="midnightblue" stroke="midnightblue" points="139.876,-12.5001 129.876,-16 139.876,-19.5001 139.876,-12.5001"/>
</g>
</g>
</svg>
