<?xml version="1.0" encoding="UTF-8" standalone="no"?>
<!DOCTYPE svg PUBLIC "-//W3C//DTD SVG 1.1//EN"
 "http://www.w3.org/Graphics/SVG/1.1/DTD/svg11.dtd">
<!-- Generated by graphviz version 2.30.1 (20130221.2233)
 -->
<!-- Title: KWSLog\log_page Pages: 1 -->
<svg width="448pt" height="28pt"
 viewBox="0.00 0.00 448.00 28.00" xmlns="http://www.w3.org/2000/svg" xmlns:xlink="http://www.w3.org/1999/xlink">
<g id="graph0" class="graph" transform="scale(1 1) rotate(0) translate(4 24)">
<title>KWSLog\log_page</title>
<polygon fill="white" stroke="white" points="-4,5 -4,-24 445,-24 445,5 -4,5"/>
<!-- Node1 -->
<g id="node1" class="node"><title>Node1</title>
<polygon fill="#bfbfbf" stroke="black" points="0.303223,-0 0.303223,-20 99.6968,-20 99.6968,-0 0.303223,-0"/>
<text text-anchor="middle" x="50" y="-6" font-family="Helvetica,sans-Serif" font-size="10.00">KWSLog\log_page</text>
</g>
<!-- Node2 -->
<g id="node2" class="node"><title>Node2</title>
<g id="a_node2"><a xlink:href="class_k_w_s_log.html#a0c83104a09638b06337e41294ead9617" target="_top" xlink:title="KWSLog\\get_log_messages">
<polygon fill="white" stroke="black" points="135.907,-0 135.907,-20 278.093,-20 278.093,-0 135.907,-0"/>
<text text-anchor="middle" x="207" y="-6" font-family="Helvetica,sans-Serif" font-size="10.00">KWSLog\get_log_messages</text>
</a>
</g>
</g>
<!-- Node1&#45;&gt;Node2 -->
<g id="edge1" class="edge"><title>Node1&#45;&gt;Node2</title>
<path fill="none" stroke="midnightblue" d="M100.043,-10C108.203,-10 116.851,-10 125.549,-10"/>
<polygon fill="midnightblue" stroke="midnightblue" points="125.756,-13.5001 135.756,-10 125.756,-6.5001 125.756,-13.5001"/>
</g>
<!-- Node3 -->
<g id="node3" class="node"><title>Node3</title>
<g id="a_node3"><a xlink:href="class_k_w_s_log.html#ac9d608f87d136d01a64b543071a6ce46" target="_top" xlink:title="KWSLog\\activate_plugin">
<polygon fill="white" stroke="black" points="314.522,-0 314.522,-20 439.478,-20 439.478,-0 314.522,-0"/>
<text text-anchor="middle" x="377" y="-6" font-family="Helvetica,sans-Serif" font-size="10.00">KWSLog\activate_plugin</text>
</a>
</g>
</g>
<!-- Node2&#45;&gt;Node3 -->
<g id="edge2" class="edge"><title>Node2&#45;&gt;Node3</title>
<path fill="none" stroke="midnightblue" d="M278.274,-10C286.869,-10 295.661,-10 304.278,-10"/>
<polygon fill="midnightblue" stroke="midnightblue" points="304.289,-13.5001 314.289,-10 304.289,-6.5001 304.289,-13.5001"/>
</g>
</g>
</svg>
