<?xml version="1.0" encoding="UTF-8" standalone="no"?>
<!DOCTYPE svg PUBLIC "-//W3C//DTD SVG 1.1//EN"
 "http://www.w3.org/Graphics/SVG/1.1/DTD/svg11.dtd">
<!-- Generated by graphviz version 2.30.1 (20130221.2233)
 -->
<!-- Title: ListsCollection\getListMembers Pages: 1 -->
<svg width="694pt" height="140pt"
 viewBox="0.00 0.00 694.00 140.00" xmlns="http://www.w3.org/2000/svg" xmlns:xlink="http://www.w3.org/1999/xlink">
<g id="graph0" class="graph" transform="scale(1 1) rotate(0) translate(4 136)">
<title>ListsCollection\getListMembers</title>
<polygon fill="white" stroke="white" points="-4,5 -4,-136 691,-136 691,5 -4,5"/>
<!-- Node1 -->
<g id="node1" class="node"><title>Node1</title>
<polygon fill="#bfbfbf" stroke="black" points="-0.194336,-61 -0.194336,-81 154.194,-81 154.194,-61 -0.194336,-61"/>
<text text-anchor="middle" x="77" y="-67" font-family="Helvetica,sans-Serif" font-size="10.00">ListsCollection\getListMembers</text>
</g>
<!-- Node2 -->
<g id="node2" class="node"><title>Node2</title>
<g id="a_node2"><a xlink:href="class_contact_list.html#a898782b778bb190743a719db8d27edcb" target="_top" xlink:title="ContactList\\createMember\lStruct">
<polygon fill="white" stroke="black" points="195.365,-100 195.365,-132 328.635,-132 328.635,-100 195.365,-100"/>
<text text-anchor="start" x="203.365" y="-118" font-family="Helvetica,sans-Serif" font-size="10.00">ContactList\createMember</text>
<text text-anchor="middle" x="262" y="-106" font-family="Helvetica,sans-Serif" font-size="10.00">Struct</text>
</a>
</g>
</g>
<!-- Node1&#45;&gt;Node2 -->
<g id="edge1" class="edge"><title>Node1&#45;&gt;Node2</title>
<path fill="none" stroke="midnightblue" d="M119.069,-81.0989C138.713,-85.9294 162.867,-91.869 185.644,-97.4697"/>
<polygon fill="midnightblue" stroke="midnightblue" points="185.099,-100.94 195.645,-99.9292 186.77,-94.1425 185.099,-100.94"/>
</g>
<!-- Node3 -->
<g id="node3" class="node"><title>Node3</title>
<g id="a_node3"><a xlink:href="class_utility.html#a50ac241bcff31b7348d0f623f2ab3d4c" target="_top" xlink:title="Find the next link from collection XML. ">
<polygon fill="white" stroke="black" points="212.875,-61 212.875,-81 311.125,-81 311.125,-61 212.875,-61"/>
<text text-anchor="middle" x="262" y="-67" font-family="Helvetica,sans-Serif" font-size="10.00">Utility\findNextLink</text>
</a>
</g>
</g>
<!-- Node1&#45;&gt;Node3 -->
<g id="edge2" class="edge"><title>Node1&#45;&gt;Node3</title>
<path fill="none" stroke="midnightblue" d="M154.283,-71C170.379,-71 187.122,-71 202.443,-71"/>
<polygon fill="midnightblue" stroke="midnightblue" points="202.796,-74.5001 212.796,-71 202.796,-67.5001 202.796,-74.5001"/>
</g>
<!-- Node4 -->
<g id="node4" class="node"><title>Node4</title>
<g id="a_node4"><a xlink:href="class_c_t_c_t_request.html#aad92e5787f6d3fdf00760d99505aa6db" target="_top" xlink:title="CTCTRequest\\makeRequest">
<polygon fill="white" stroke="black" points="189.808,-22 189.808,-42 334.192,-42 334.192,-22 189.808,-22"/>
<text text-anchor="middle" x="262" y="-28" font-family="Helvetica,sans-Serif" font-size="10.00">CTCTRequest\makeRequest</text>
</a>
</g>
</g>
<!-- Node1&#45;&gt;Node4 -->
<g id="edge3" class="edge"><title>Node1&#45;&gt;Node4</title>
<path fill="none" stroke="midnightblue" d="M125.127,-60.9565C149.248,-55.816 178.797,-49.5187 204.171,-44.1111"/>
<polygon fill="midnightblue" stroke="midnightblue" points="204.982,-47.517 214.033,-42.0094 203.523,-40.6707 204.982,-47.517"/>
</g>
<!-- Node5 -->
<g id="node5" class="node"><title>Node5</title>
<g id="a_node5"><a xlink:href="class_o_auth_request.html#afe9d0f6cb8e0dadb1c0faeea9ecafe45" target="_top" xlink:title="pretty much a helper function to set up the request ">
<polygon fill="white" stroke="black" points="370.079,-39 370.079,-71 523.921,-71 523.921,-39 370.079,-39"/>
<text text-anchor="start" x="378.079" y="-57" font-family="Helvetica,sans-Serif" font-size="10.00">OAuthRequest\from_consumer</text>
<text text-anchor="middle" x="447" y="-45" font-family="Helvetica,sans-Serif" font-size="10.00">_and_token</text>
</a>
</g>
</g>
<!-- Node4&#45;&gt;Node5 -->
<g id="edge4" class="edge"><title>Node4&#45;&gt;Node5</title>
<path fill="none" stroke="midnightblue" d="M334.277,-40.9583C342.716,-42.019 351.397,-43.11 360.013,-44.1929"/>
<polygon fill="midnightblue" stroke="midnightblue" points="359.72,-47.6835 370.079,-45.458 360.593,-40.7382 359.72,-47.6835"/>
</g>
<!-- Node8 -->
<g id="node8" class="node"><title>Node8</title>
<g id="a_node8"><a xlink:href="class_c_t_c_t_exception.html#adc8307ec7d7a2c730b0dac678d0e7fcb" target="_top" xlink:title="CTCTException\\generateError">
<polygon fill="white" stroke="black" points="371.473,-0 371.473,-20 522.527,-20 522.527,-0 371.473,-0"/>
<text text-anchor="middle" x="447" y="-6" font-family="Helvetica,sans-Serif" font-size="10.00">CTCTException\generateError</text>
</a>
</g>
</g>
<!-- Node4&#45;&gt;Node8 -->
<g id="edge7" class="edge"><title>Node4&#45;&gt;Node8</title>
<path fill="none" stroke="midnightblue" d="M334.277,-23.4312C343.099,-22.3706 352.186,-21.2781 361.187,-20.1961"/>
<polygon fill="midnightblue" stroke="midnightblue" points="361.782,-23.6499 371.293,-18.9812 360.946,-16.6999 361.782,-23.6499"/>
</g>
<!-- Node6 -->
<g id="node6" class="node"><title>Node6</title>
<g id="a_node6"><a xlink:href="class_o_auth_request.html#ae544b1c10b82d5a82dcc259064763420" target="_top" xlink:title="util function: current nonce ">
<polygon fill="white" stroke="black" points="561.074,-90 561.074,-122 684.926,-122 684.926,-90 561.074,-90"/>
<text text-anchor="start" x="569.074" y="-108" font-family="Helvetica,sans-Serif" font-size="10.00">OAuthRequest\generate</text>
<text text-anchor="middle" x="623" y="-96" font-family="Helvetica,sans-Serif" font-size="10.00">_nonce</text>
</a>
</g>
</g>
<!-- Node5&#45;&gt;Node6 -->
<g id="edge5" class="edge"><title>Node5&#45;&gt;Node6</title>
<path fill="none" stroke="midnightblue" d="M503.055,-71.1367C520.36,-76.209 539.624,-81.8552 557.522,-87.1012"/>
<polygon fill="midnightblue" stroke="midnightblue" points="556.723,-90.5142 567.303,-89.9683 558.692,-83.7968 556.723,-90.5142"/>
</g>
<!-- Node7 -->
<g id="node7" class="node"><title>Node7</title>
<g id="a_node7"><a xlink:href="class_o_auth_request.html#adfc6b936799f705d9a4442961a26e8cb" target="_top" xlink:title="util function: current timestamp ">
<polygon fill="white" stroke="black" points="561.074,-39 561.074,-71 684.926,-71 684.926,-39 561.074,-39"/>
<text text-anchor="start" x="569.074" y="-57" font-family="Helvetica,sans-Serif" font-size="10.00">OAuthRequest\generate</text>
<text text-anchor="middle" x="623" y="-45" font-family="Helvetica,sans-Serif" font-size="10.00">_timestamp</text>
</a>
</g>
</g>
<!-- Node5&#45;&gt;Node7 -->
<g id="edge6" class="edge"><title>Node5&#45;&gt;Node7</title>
<path fill="none" stroke="midnightblue" d="M524.066,-55C532.939,-55 541.966,-55 550.771,-55"/>
<polygon fill="midnightblue" stroke="midnightblue" points="550.981,-58.5001 560.981,-55 550.981,-51.5001 550.981,-58.5001"/>
</g>
<!-- Node9 -->
<g id="node9" class="node"><title>Node9</title>
<g id="a_node9"><a xlink:href="class_c_t_c_t_exception.html#a6a86531406328bbd2a6c6252b7fb3a70" target="_top" xlink:title="CTCTException\\logError">
<polygon fill="white" stroke="black" points="560.54,-0 560.54,-20 685.46,-20 685.46,-0 560.54,-0"/>
<text text-anchor="middle" x="623" y="-6" font-family="Helvetica,sans-Serif" font-size="10.00">CTCTException\logError</text>
</a>
</g>
</g>
<!-- Node8&#45;&gt;Node9 -->
<g id="edge8" class="edge"><title>Node8&#45;&gt;Node9</title>
<path fill="none" stroke="midnightblue" d="M522.549,-10C531.73,-10 541.101,-10 550.239,-10"/>
<polygon fill="midnightblue" stroke="midnightblue" points="550.437,-13.5001 560.437,-10 550.436,-6.5001 550.437,-13.5001"/>
</g>
</g>
</svg>
