<?xml version="1.0" encoding="UTF-8" standalone="no"?>
<!DOCTYPE svg PUBLIC "-//W3C//DTD SVG 1.1//EN"
 "http://www.w3.org/Graphics/SVG/1.1/DTD/svg11.dtd">
<!-- Generated by graphviz version 2.30.1 (20130221.2233)
 -->
<!-- Title: Net_DNS_RR_SOA\Net_DNS_RR_SOA Pages: 1 -->
<svg width="316pt" height="67pt"
 viewBox="0.00 0.00 316.00 67.00" xmlns="http://www.w3.org/2000/svg" xmlns:xlink="http://www.w3.org/1999/xlink">
<g id="graph0" class="graph" transform="scale(1 1) rotate(0) translate(4 63)">
<title>Net_DNS_RR_SOA\Net_DNS_RR_SOA</title>
<polygon fill="white" stroke="white" points="-4,5 -4,-63 313,-63 313,5 -4,5"/>
<!-- Node1 -->
<g id="node1" class="node"><title>Node1</title>
<polygon fill="#bfbfbf" stroke="black" points="0.369629,-13 0.369629,-45 123.63,-45 123.63,-13 0.369629,-13"/>
<text text-anchor="start" x="8.36963" y="-31" font-family="Helvetica,sans-Serif" font-size="10.00">Net_DNS_RR_SOA\Net</text>
<text text-anchor="middle" x="62" y="-19" font-family="Helvetica,sans-Serif" font-size="10.00">_DNS_RR_SOA</text>
</g>
<!-- Node2 -->
<g id="node2" class="node"><title>Node2</title>
<g id="a_node2"><a xlink:href="class_net___d_n_s___packet.html#a9844b7ce62cb096db44f58882f8ca403" target="_top" xlink:title="DNS packet decompression method. ">
<polygon fill="white" stroke="black" points="160.68,-39 160.68,-59 307.32,-59 307.32,-39 160.68,-39"/>
<text text-anchor="middle" x="234" y="-45" font-family="Helvetica,sans-Serif" font-size="10.00">Net_DNS_Packet\dn_expand</text>
</a>
</g>
</g>
<!-- Node1&#45;&gt;Node2 -->
<g id="edge1" class="edge"><title>Node1&#45;&gt;Node2</title>
<path fill="none" stroke="midnightblue" d="M123.894,-36.164C132.546,-37.1819 141.562,-38.2426 150.541,-39.2989"/>
<polygon fill="midnightblue" stroke="midnightblue" points="150.299,-42.7946 160.64,-40.487 151.117,-35.8425 150.299,-42.7946"/>
</g>
<!-- Node3 -->
<g id="node3" class="node"><title>Node3</title>
<g id="a_node3"><a xlink:href="class_net___d_n_s___r_r.html#aa9da23331d654752fc950d474aa4c88d" target="_top" xlink:title="Net_DNS_RR\\rdata">
<polygon fill="white" stroke="black" points="182.094,-0 182.094,-20 285.906,-20 285.906,-0 182.094,-0"/>
<text text-anchor="middle" x="234" y="-6" font-family="Helvetica,sans-Serif" font-size="10.00">Net_DNS_RR\rdata</text>
</a>
</g>
</g>
<!-- Node1&#45;&gt;Node3 -->
<g id="edge2" class="edge"><title>Node1&#45;&gt;Node3</title>
<path fill="none" stroke="midnightblue" d="M123.894,-22.1942C139.524,-20.4473 156.341,-18.5678 171.978,-16.8201"/>
<polygon fill="midnightblue" stroke="midnightblue" points="172.51,-20.2825 182.059,-15.6934 171.732,-13.3259 172.51,-20.2825"/>
</g>
</g>
</svg>
