<?xml version="1.0" encoding="UTF-8" standalone="no"?>
<!DOCTYPE svg PUBLIC "-//W3C//DTD SVG 1.1//EN"
 "http://www.w3.org/Graphics/SVG/1.1/DTD/svg11.dtd">
<!-- Generated by graphviz version 2.30.1 (20130221.2233)
 -->
<!-- Title: Net_DNS_Resolver\string Pages: 1 -->
<svg width="894pt" height="144pt"
 viewBox="0.00 0.00 894.00 144.44" xmlns="http://www.w3.org/2000/svg" xmlns:xlink="http://www.w3.org/1999/xlink">
<g id="graph0" class="graph" transform="scale(1 1) rotate(0) translate(4 140.44)">
<title>Net_DNS_Resolver\string</title>
<polygon fill="white" stroke="white" points="-4,5 -4,-140.44 891,-140.44 891,5 -4,5"/>
<!-- Node1 -->
<g id="node1" class="node"><title>Node1</title>
<polygon fill="#bfbfbf" stroke="black" points="-0.243652,-54.4397 -0.243652,-74.4397 130.244,-74.4397 130.244,-54.4397 -0.243652,-54.4397"/>
<text text-anchor="middle" x="65" y="-60.4397" font-family="Helvetica,sans-Serif" font-size="10.00">Net_DNS_Resolver\string</text>
</g>
<!-- Node2 -->
<g id="node2" class="node"><title>Node2</title>
<g id="a_node2"><a xlink:href="class_net___d_n_s___resolver.html#a3bf22a7a58480dd7a6fd0dd17807fc70" target="_top" xlink:title="Gets or sets the nameservers to be queried. ">
<polygon fill="white" stroke="black" points="166.084,-54.4397 166.084,-74.4397 329.916,-74.4397 329.916,-54.4397 166.084,-54.4397"/>
<text text-anchor="middle" x="248" y="-60.4397" font-family="Helvetica,sans-Serif" font-size="10.00">Net_DNS_Resolver\nameservers</text>
</a>
</g>
</g>
<!-- Node1&#45;&gt;Node2 -->
<g id="edge1" class="edge"><title>Node1&#45;&gt;Node2</title>
<path fill="none" stroke="midnightblue" d="M130.323,-64.4397C138.576,-64.4397 147.147,-64.4397 155.726,-64.4397"/>
<polygon fill="midnightblue" stroke="midnightblue" points="155.784,-67.9398 165.784,-64.4397 155.784,-60.9398 155.784,-67.9398"/>
</g>
<!-- Node3 -->
<g id="node3" class="node"><title>Node3</title>
<g id="a_node3"><a xlink:href="class_net___d_n_s___resolver.html#ae1bb14089519fe774d025156114aae4f" target="_top" xlink:title="Net_DNS_Resolver\\cname_addr">
<polygon fill="white" stroke="black" points="366.188,-116.44 366.188,-136.44 527.812,-136.44 527.812,-116.44 366.188,-116.44"/>
<text text-anchor="middle" x="447" y="-122.44" font-family="Helvetica,sans-Serif" font-size="10.00">Net_DNS_Resolver\cname_addr</text>
</a>
</g>
</g>
<!-- Node2&#45;&gt;Node3 -->
<g id="edge2" class="edge"><title>Node2&#45;&gt;Node3</title>
<path fill="none" stroke="midnightblue" d="M280.772,-74.5194C304.299,-81.9755 337.141,-92.3672 366,-101.44 378.377,-105.331 391.838,-109.544 404.125,-113.383"/>
<polygon fill="midnightblue" stroke="midnightblue" points="403.096,-116.728 413.684,-116.368 405.182,-110.047 403.096,-116.728"/>
</g>
<!-- Node4 -->
<g id="node4" class="node"><title>Node4</title>
<g id="a_node4"><a xlink:href="class_net___d_n_s___resolver.html#a4358663ec326e406c398f6cb09bd5544" target="_top" xlink:title="Initializes the Resolver Object. ">
<polygon fill="white" stroke="black" points="386.202,-26.4397 386.202,-58.4397 507.798,-58.4397 507.798,-26.4397 386.202,-26.4397"/>
<text text-anchor="start" x="394.202" y="-44.4397" font-family="Helvetica,sans-Serif" font-size="10.00">Net_DNS_Resolver\Net</text>
<text text-anchor="middle" x="447" y="-32.4397" font-family="Helvetica,sans-Serif" font-size="10.00">_DNS_Resolver</text>
</a>
</g>
</g>
<!-- Node2&#45;&gt;Node4 -->
<g id="edge3" class="edge"><title>Node2&#45;&gt;Node4</title>
<path fill="none" stroke="midnightblue" d="M329.98,-55.3962C345.242,-53.6918 361.084,-51.9227 375.976,-50.2597"/>
<polygon fill="midnightblue" stroke="midnightblue" points="376.565,-53.7157 386.115,-49.1274 375.788,-46.7589 376.565,-53.7157"/>
</g>
<!-- Node5 -->
<g id="node5" class="node"><title>Node5</title>
<g id="a_node5"><a xlink:href="class_net___d_n_s___resolver.html#aa2e8d58074354b1f9292500119470431" target="_top" xlink:title="Initalizes the resolver library. ">
<polygon fill="white" stroke="black" points="563.865,-32.4397 563.865,-52.4397 702.135,-52.4397 702.135,-32.4397 563.865,-32.4397"/>
<text text-anchor="middle" x="633" y="-38.4397" font-family="Helvetica,sans-Serif" font-size="10.00">Net_DNS_Resolver\res_init</text>
</a>
</g>
</g>
<!-- Node4&#45;&gt;Node5 -->
<g id="edge4" class="edge"><title>Node4&#45;&gt;Node5</title>
<path fill="none" stroke="midnightblue" d="M507.994,-42.4397C522.479,-42.4397 538.174,-42.4397 553.372,-42.4397"/>
<polygon fill="midnightblue" stroke="midnightblue" points="553.793,-45.9398 563.793,-42.4397 553.793,-38.9398 553.793,-45.9398"/>
</g>
<!-- Node6 -->
<g id="node6" class="node"><title>Node6</title>
<g id="a_node6"><a xlink:href="class_net___d_n_s___resolver.html#ae4def11574ad6e93176670c726541bed" target="_top" xlink:title="Reads and parses a resolver configuration file. ">
<polygon fill="white" stroke="black" points="748.976,-59.4397 748.976,-91.4397 875.024,-91.4397 875.024,-59.4397 748.976,-59.4397"/>
<text text-anchor="start" x="756.976" y="-77.4397" font-family="Helvetica,sans-Serif" font-size="10.00">Net_DNS_Resolver\read</text>
<text text-anchor="middle" x="812" y="-65.4397" font-family="Helvetica,sans-Serif" font-size="10.00">_config</text>
</a>
</g>
</g>
<!-- Node5&#45;&gt;Node6 -->
<g id="edge5" class="edge"><title>Node5&#45;&gt;Node6</title>
<path fill="none" stroke="midnightblue" d="M688.068,-52.5201C704.13,-55.5147 721.985,-58.8436 738.997,-62.0154"/>
<polygon fill="midnightblue" stroke="midnightblue" points="738.424,-65.4687 748.896,-63.8609 739.707,-58.5873 738.424,-65.4687"/>
</g>
<!-- Node7 -->
<g id="node7" class="node"><title>Node7</title>
<g id="a_node7"><a xlink:href="class_net___d_n_s___resolver.html#a2a3d25c5dd2b1810b60ad05b84787855" target="_top" xlink:title="Examines the environment for resolver config information. ">
<polygon fill="white" stroke="black" points="738.133,-9.43968 738.133,-29.4397 885.867,-29.4397 885.867,-9.43968 738.133,-9.43968"/>
<text text-anchor="middle" x="812" y="-15.4397" font-family="Helvetica,sans-Serif" font-size="10.00">Net_DNS_Resolver\read_env</text>
</a>
</g>
</g>
<!-- Node5&#45;&gt;Node7 -->
<g id="edge7" class="edge"><title>Node5&#45;&gt;Node7</title>
<path fill="none" stroke="midnightblue" d="M702.18,-33.5802C710.579,-32.4887 719.237,-31.3637 727.827,-30.2474"/>
<polygon fill="midnightblue" stroke="midnightblue" points="728.396,-33.7031 737.862,-28.9436 727.494,-26.7614 728.396,-33.7031"/>
</g>
<!-- Node6&#45;&gt;Node2 -->
<g id="edge6" class="edge"><title>Node6&#45;&gt;Node2</title>
<path fill="none" stroke="midnightblue" d="M748.722,-74.4705C662.667,-73.0969 502.541,-70.4175 366,-67.4397 357.677,-67.2582 349.022,-67.0579 340.354,-66.8496"/>
<polygon fill="midnightblue" stroke="midnightblue" points="340.274,-63.3467 330.191,-66.6019 340.103,-70.3446 340.274,-63.3467"/>
</g>
<!-- Node7&#45;&gt;Node2 -->
<g id="edge8" class="edge"><title>Node7&#45;&gt;Node2</title>
<path fill="none" stroke="midnightblue" d="M738.1,-10.0915C649.266,-0.721964 495.049,9.00291 366,-16.4397 333.958,-22.7569 299.65,-37.9388 276.528,-49.5508"/>
<polygon fill="midnightblue" stroke="midnightblue" points="274.636,-46.5879 267.342,-54.2726 277.836,-52.8136 274.636,-46.5879"/>
</g>
</g>
</svg>
