<?xml version="1.0" encoding="UTF-8" standalone="no"?>
<!DOCTYPE svg PUBLIC "-//W3C//DTD SVG 1.1//EN"
 "http://www.w3.org/Graphics/SVG/1.1/DTD/svg11.dtd">
<!-- Generated by graphviz version 2.30.1 (20130221.2233)
 -->
<!-- Title: CTCTRequest\makeRequest Pages: 1 -->
<svg width="504pt" height="130pt"
 viewBox="0.00 0.00 504.00 130.00" xmlns="http://www.w3.org/2000/svg" xmlns:xlink="http://www.w3.org/1999/xlink">
<g id="graph0" class="graph" transform="scale(1 1) rotate(0) translate(4 126)">
<title>CTCTRequest\makeRequest</title>
<polygon fill="white" stroke="white" points="-4,5 -4,-126 501,-126 501,5 -4,5"/>
<!-- Node1 -->
<g id="node1" class="node"><title>Node1</title>
<polygon fill="#bfbfbf" stroke="black" points="-0.191895,-22 -0.191895,-42 144.192,-42 144.192,-22 -0.191895,-22"/>
<text text-anchor="middle" x="72" y="-28" font-family="Helvetica,sans-Serif" font-size="10.00">CTCTRequest\makeRequest</text>
</g>
<!-- Node2 -->
<g id="node2" class="node"><title>Node2</title>
<g id="a_node2"><a xlink:href="class_o_auth_request.html#afe9d0f6cb8e0dadb1c0faeea9ecafe45" target="_top" xlink:title="pretty much a helper function to set up the request ">
<polygon fill="white" stroke="black" points="180.079,-39 180.079,-71 333.921,-71 333.921,-39 180.079,-39"/>
<text text-anchor="start" x="188.079" y="-57" font-family="Helvetica,sans-Serif" font-size="10.00">OAuthRequest\from_consumer</text>
<text text-anchor="middle" x="257" y="-45" font-family="Helvetica,sans-Serif" font-size="10.00">_and_token</text>
</a>
</g>
</g>
<!-- Node1&#45;&gt;Node2 -->
<g id="edge1" class="edge"><title>Node1&#45;&gt;Node2</title>
<path fill="none" stroke="midnightblue" d="M144.277,-40.9583C152.716,-42.019 161.397,-43.11 170.013,-44.1929"/>
<polygon fill="midnightblue" stroke="midnightblue" points="169.72,-47.6835 180.079,-45.458 170.593,-40.7382 169.72,-47.6835"/>
</g>
<!-- Node5 -->
<g id="node5" class="node"><title>Node5</title>
<g id="a_node5"><a xlink:href="class_c_t_c_t_exception.html#adc8307ec7d7a2c730b0dac678d0e7fcb" target="_top" xlink:title="CTCTException\\generateError">
<polygon fill="white" stroke="black" points="181.473,-0 181.473,-20 332.527,-20 332.527,-0 181.473,-0"/>
<text text-anchor="middle" x="257" y="-6" font-family="Helvetica,sans-Serif" font-size="10.00">CTCTException\generateError</text>
</a>
</g>
</g>
<!-- Node1&#45;&gt;Node5 -->
<g id="edge4" class="edge"><title>Node1&#45;&gt;Node5</title>
<path fill="none" stroke="midnightblue" d="M144.277,-23.4312C153.099,-22.3706 162.186,-21.2781 171.187,-20.1961"/>
<polygon fill="midnightblue" stroke="midnightblue" points="171.782,-23.6499 181.293,-18.9812 170.946,-16.6999 171.782,-23.6499"/>
</g>
<!-- Node3 -->
<g id="node3" class="node"><title>Node3</title>
<g id="a_node3"><a xlink:href="class_o_auth_request.html#ae544b1c10b82d5a82dcc259064763420" target="_top" xlink:title="util function: current nonce ">
<polygon fill="white" stroke="black" points="371.074,-90 371.074,-122 494.926,-122 494.926,-90 371.074,-90"/>
<text text-anchor="start" x="379.074" y="-108" font-family="Helvetica,sans-Serif" font-size="10.00">OAuthRequest\generate</text>
<text text-anchor="middle" x="433" y="-96" font-family="Helvetica,sans-Serif" font-size="10.00">_nonce</text>
</a>
</g>
</g>
<!-- Node2&#45;&gt;Node3 -->
<g id="edge2" class="edge"><title>Node2&#45;&gt;Node3</title>
<path fill="none" stroke="midnightblue" d="M313.055,-71.1367C330.36,-76.209 349.624,-81.8552 367.522,-87.1012"/>
<polygon fill="midnightblue" stroke="midnightblue" points="366.723,-90.5142 377.303,-89.9683 368.692,-83.7968 366.723,-90.5142"/>
</g>
<!-- Node4 -->
<g id="node4" class="node"><title>Node4</title>
<g id="a_node4"><a xlink:href="class_o_auth_request.html#adfc6b936799f705d9a4442961a26e8cb" target="_top" xlink:title="util function: current timestamp ">
<polygon fill="white" stroke="black" points="371.074,-39 371.074,-71 494.926,-71 494.926,-39 371.074,-39"/>
<text text-anchor="start" x="379.074" y="-57" font-family="Helvetica,sans-Serif" font-size="10.00">OAuthRequest\generate</text>
<text text-anchor="middle" x="433" y="-45" font-family="Helvetica,sans-Serif" font-size="10.00">_timestamp</text>
</a>
</g>
</g>
<!-- Node2&#45;&gt;Node4 -->
<g id="edge3" class="edge"><title>Node2&#45;&gt;Node4</title>
<path fill="none" stroke="midnightblue" d="M334.066,-55C342.939,-55 351.966,-55 360.771,-55"/>
<polygon fill="midnightblue" stroke="midnightblue" points="360.981,-58.5001 370.981,-55 360.981,-51.5001 360.981,-58.5001"/>
</g>
<!-- Node6 -->
<g id="node6" class="node"><title>Node6</title>
<g id="a_node6"><a xlink:href="class_c_t_c_t_exception.html#a6a86531406328bbd2a6c6252b7fb3a70" target="_top" xlink:title="CTCTException\\logError">
<polygon fill="white" stroke="black" points="370.54,-0 370.54,-20 495.46,-20 495.46,-0 370.54,-0"/>
<text text-anchor="middle" x="433" y="-6" font-family="Helvetica,sans-Serif" font-size="10.00">CTCTException\logError</text>
</a>
</g>
</g>
<!-- Node5&#45;&gt;Node6 -->
<g id="edge5" class="edge"><title>Node5&#45;&gt;Node6</title>
<path fill="none" stroke="midnightblue" d="M332.549,-10C341.73,-10 351.101,-10 360.239,-10"/>
<polygon fill="midnightblue" stroke="midnightblue" points="360.437,-13.5001 370.437,-10 360.436,-6.5001 360.437,-13.5001"/>
</g>
</g>
</svg>
