<?xml version="1.0" encoding="UTF-8" standalone="no"?>
<!DOCTYPE svg PUBLIC "-//W3C//DTD SVG 1.1//EN"
 "http://www.w3.org/Graphics/SVG/1.1/DTD/svg11.dtd">
<!-- Generated by graphviz version 2.30.1 (20130221.2233)
 -->
<!-- Title: CTCT_Constant_Analytics\show_ga_auth_error Pages: 1 -->
<svg width="482pt" height="91pt"
 viewBox="0.00 0.00 482.00 91.00" xmlns="http://www.w3.org/2000/svg" xmlns:xlink="http://www.w3.org/1999/xlink">
<g id="graph0" class="graph" transform="scale(1 1) rotate(0) translate(4 87)">
<title>CTCT_Constant_Analytics\show_ga_auth_error</title>
<polygon fill="white" stroke="white" points="-4,5 -4,-87 479,-87 479,5 -4,5"/>
<!-- Node1 -->
<g id="node1" class="node"><title>Node1</title>
<polygon fill="#bfbfbf" stroke="black" points="0.0888672,-25 0.0888672,-57 133.911,-57 133.911,-25 0.0888672,-25"/>
<text text-anchor="start" x="8.08887" y="-43" font-family="Helvetica,sans-Serif" font-size="10.00">CTCT_Constant_Analytics</text>
<text text-anchor="middle" x="67" y="-31" font-family="Helvetica,sans-Serif" font-size="10.00">\show_ga_auth_error</text>
</g>
<!-- Node2 -->
<g id="node2" class="node"><title>Node2</title>
<g id="a_node2"><a xlink:href="class_c_t_c_t___constant___analytics.html#a5a4aa1b1d76fcf26e45d6072e58855a6" target="_top" xlink:title="CTCT_Constant_Analytics\l\\config_warnings">
<polygon fill="white" stroke="black" points="170.089,-51 170.089,-83 303.911,-83 303.911,-51 170.089,-51"/>
<text text-anchor="start" x="178.089" y="-69" font-family="Helvetica,sans-Serif" font-size="10.00">CTCT_Constant_Analytics</text>
<text text-anchor="middle" x="237" y="-57" font-family="Helvetica,sans-Serif" font-size="10.00">\config_warnings</text>
</a>
</g>
</g>
<!-- Node1&#45;&gt;Node2 -->
<g id="edge1" class="edge"><title>Node1&#45;&gt;Node2</title>
<path fill="none" stroke="midnightblue" d="M133.916,-51.2013C142.439,-52.5203 151.223,-53.8798 159.894,-55.2217"/>
<polygon fill="midnightblue" stroke="midnightblue" points="159.581,-58.7148 169.998,-56.7855 160.651,-51.7972 159.581,-58.7148"/>
</g>
<!-- Node4 -->
<g id="node4" class="node"><title>Node4</title>
<g id="a_node4"><a xlink:href="class_c_t_c_t___constant___analytics.html#a87d1d185561b762fad430b71272cb7db" target="_top" xlink:title="CTCT_Constant_Analytics\l\\warning_box">
<polygon fill="white" stroke="black" points="170.089,-0 170.089,-32 303.911,-32 303.911,-0 170.089,-0"/>
<text text-anchor="start" x="178.089" y="-18" font-family="Helvetica,sans-Serif" font-size="10.00">CTCT_Constant_Analytics</text>
<text text-anchor="middle" x="237" y="-6" font-family="Helvetica,sans-Serif" font-size="10.00">\warning_box</text>
</a>
</g>
</g>
<!-- Node1&#45;&gt;Node4 -->
<g id="edge3" class="edge"><title>Node1&#45;&gt;Node4</title>
<path fill="none" stroke="midnightblue" d="M133.916,-31.1911C142.439,-29.9227 151.223,-28.6156 159.894,-27.3253"/>
<polygon fill="midnightblue" stroke="midnightblue" points="160.623,-30.7555 169.998,-25.8217 159.592,-23.8317 160.623,-30.7555"/>
</g>
<!-- Node3 -->
<g id="node3" class="node"><title>Node3</title>
<g id="a_node3"><a xlink:href="class_c_t_c_t___constant___analytics.html#a9fa88000a3aacc7d0876bf8046911c8f" target="_top" xlink:title="CTCT_Constant_Analytics\l\\check_config">
<polygon fill="white" stroke="black" points="340.089,-51 340.089,-83 473.911,-83 473.911,-51 340.089,-51"/>
<text text-anchor="start" x="348.089" y="-69" font-family="Helvetica,sans-Serif" font-size="10.00">CTCT_Constant_Analytics</text>
<text text-anchor="middle" x="407" y="-57" font-family="Helvetica,sans-Serif" font-size="10.00">\check_config</text>
</a>
</g>
</g>
<!-- Node2&#45;&gt;Node3 -->
<g id="edge2" class="edge"><title>Node2&#45;&gt;Node3</title>
<path fill="none" stroke="midnightblue" d="M303.916,-67C312.439,-67 321.223,-67 329.894,-67"/>
<polygon fill="midnightblue" stroke="midnightblue" points="329.999,-70.5001 339.998,-67 329.998,-63.5001 329.999,-70.5001"/>
</g>
<!-- Node5 -->
<g id="node5" class="node"><title>Node5</title>
<g id="a_node5"><a xlink:href="class_c_t_c_t___constant___analytics.html#ae4c05df504f829cf696783b0443dd2a5" target="_top" xlink:title="CTCT_Constant_Analytics\l\\troubleshoot_message">
<polygon fill="white" stroke="black" points="340.089,-0 340.089,-32 473.911,-32 473.911,-0 340.089,-0"/>
<text text-anchor="start" x="348.089" y="-18" font-family="Helvetica,sans-Serif" font-size="10.00">CTCT_Constant_Analytics</text>
<text text-anchor="middle" x="407" y="-6" font-family="Helvetica,sans-Serif" font-size="10.00">\troubleshoot_message</text>
</a>
</g>
</g>
<!-- Node4&#45;&gt;Node5 -->
<g id="edge4" class="edge"><title>Node4&#45;&gt;Node5</title>
<path fill="none" stroke="midnightblue" d="M303.916,-16C312.439,-16 321.223,-16 329.894,-16"/>
<polygon fill="midnightblue" stroke="midnightblue" points="329.999,-19.5001 339.998,-16 329.998,-12.5001 329.999,-19.5001"/>
</g>
</g>
</svg>
