<?xml version="1.0" encoding="UTF-8" standalone="no"?>
<!DOCTYPE svg PUBLIC "-//W3C//DTD SVG 1.1//EN"
 "http://www.w3.org/Graphics/SVG/1.1/DTD/svg11.dtd">
<!-- Generated by graphviz version 2.30.1 (20130221.2233)
 -->
<!-- Title: Net_DNS_Header\Net_DNS_Header Pages: 1 -->
<svg width="294pt" height="106pt"
 viewBox="0.00 0.00 294.00 106.00" xmlns="http://www.w3.org/2000/svg" xmlns:xlink="http://www.w3.org/1999/xlink">
<g id="graph0" class="graph" transform="scale(1 1) rotate(0) translate(4 102)">
<title>Net_DNS_Header\Net_DNS_Header</title>
<polygon fill="white" stroke="white" points="-4,5 -4,-102 291,-102 291,5 -4,5"/>
<!-- Node1 -->
<g id="node1" class="node"><title>Node1</title>
<polygon fill="#bfbfbf" stroke="black" points="0.532227,-33 0.532227,-65 115.468,-65 115.468,-33 0.532227,-33"/>
<text text-anchor="start" x="8.53223" y="-51" font-family="Helvetica,sans-Serif" font-size="10.00">Net_DNS_Header\Net</text>
<text text-anchor="middle" x="58" y="-39" font-family="Helvetica,sans-Serif" font-size="10.00">_DNS_Header</text>
</g>
<!-- Node2 -->
<g id="node2" class="node"><title>Node2</title>
<g id="a_node2"><a xlink:href="class_net___d_n_s___resolver.html#a30e6ce6780c7a603b235ec3feda5aa01" target="_top" xlink:title="Returns the next request Id to be used for the DNS packet header. ">
<polygon fill="white" stroke="black" points="152.641,-78 152.641,-98 285.359,-98 285.359,-78 152.641,-78"/>
<text text-anchor="middle" x="219" y="-84" font-family="Helvetica,sans-Serif" font-size="10.00">Net_DNS_Resolver\nextid</text>
</a>
</g>
</g>
<!-- Node1&#45;&gt;Node2 -->
<g id="edge1" class="edge"><title>Node1&#45;&gt;Node2</title>
<path fill="none" stroke="midnightblue" d="M115.505,-62.8598C132.359,-66.9936 150.721,-71.4975 167.186,-75.5363"/>
<polygon fill="midnightblue" stroke="midnightblue" points="166.617,-79.0004 177.163,-77.9834 168.285,-72.2019 166.617,-79.0004"/>
</g>
<!-- Node3 -->
<g id="node3" class="node"><title>Node3</title>
<g id="a_node3"><a xlink:href="class_net___d_n_s.html#a8007ac36fa5ed03220ddbb90b956f01a" target="_top" xlink:title="Translates opcode integers into names. ">
<polygon fill="white" stroke="black" points="157.917,-39 157.917,-59 280.083,-59 280.083,-39 157.917,-39"/>
<text text-anchor="middle" x="219" y="-45" font-family="Helvetica,sans-Serif" font-size="10.00">Net_DNS\opcodesbyval</text>
</a>
</g>
</g>
<!-- Node1&#45;&gt;Node3 -->
<g id="edge2" class="edge"><title>Node1&#45;&gt;Node3</title>
<path fill="none" stroke="midnightblue" d="M115.505,-49C125.922,-49 136.915,-49 147.681,-49"/>
<polygon fill="midnightblue" stroke="midnightblue" points="147.907,-52.5001 157.907,-49 147.907,-45.5001 147.907,-52.5001"/>
</g>
<!-- Node4 -->
<g id="node4" class="node"><title>Node4</title>
<g id="a_node4"><a xlink:href="class_net___d_n_s.html#ac6fb33bbed78aa908d67df566bd83dfb" target="_top" xlink:title="Translates rcode integers into names. ">
<polygon fill="white" stroke="black" points="161.813,-0 161.813,-20 276.187,-20 276.187,-0 161.813,-0"/>
<text text-anchor="middle" x="219" y="-6" font-family="Helvetica,sans-Serif" font-size="10.00">Net_DNS\rcodesbyval</text>
</a>
</g>
</g>
<!-- Node1&#45;&gt;Node4 -->
<g id="edge3" class="edge"><title>Node1&#45;&gt;Node4</title>
<path fill="none" stroke="midnightblue" d="M115.505,-35.1402C132.359,-31.0064 150.721,-26.5025 167.186,-22.4637"/>
<polygon fill="midnightblue" stroke="midnightblue" points="168.285,-25.7981 177.163,-20.0166 166.617,-18.9996 168.285,-25.7981"/>
</g>
</g>
</svg>
