<?xml version="1.0" encoding="UTF-8" standalone="no"?>
<!DOCTYPE svg PUBLIC "-//W3C//DTD SVG 1.1//EN"
 "http://www.w3.org/Graphics/SVG/1.1/DTD/svg11.dtd">
<!-- Generated by graphviz version 2.30.1 (20130221.2233)
 -->
<!-- Title: Cache_WP_HTTP\getCacheTime Pages: 1 -->
<svg width="348pt" height="91pt"
 viewBox="0.00 0.00 348.00 91.00" xmlns="http://www.w3.org/2000/svg" xmlns:xlink="http://www.w3.org/1999/xlink">
<g id="graph0" class="graph" transform="scale(1 1) rotate(0) translate(4 87)">
<title>Cache_WP_HTTP\getCacheTime</title>
<polygon fill="white" stroke="white" points="-4,5 -4,-87 345,-87 345,5 -4,5"/>
<!-- Node1 -->
<g id="node1" class="node"><title>Node1</title>
<polygon fill="#bfbfbf" stroke="black" points="0.15625,-31 0.15625,-51 165.844,-51 165.844,-31 0.15625,-31"/>
<text text-anchor="middle" x="83" y="-37" font-family="Helvetica,sans-Serif" font-size="10.00">Cache_WP_HTTP\getCacheTime</text>
</g>
<!-- Node2 -->
<g id="node2" class="node"><title>Node2</title>
<g id="a_node2"><a xlink:href="class_cache___w_p___h_t_t_p.html#a935ab46ecf5fb5799bf1bec0f29f48a8" target="_top" xlink:title="Filter the response from WP_HTTP class. ">
<polygon fill="white" stroke="black" points="212.148,-51 212.148,-83 329.852,-83 329.852,-51 212.148,-51"/>
<text text-anchor="start" x="220.148" y="-69" font-family="Helvetica,sans-Serif" font-size="10.00">Cache_WP_HTTP\http</text>
<text text-anchor="middle" x="271" y="-57" font-family="Helvetica,sans-Serif" font-size="10.00">_response</text>
</a>
</g>
</g>
<!-- Node1&#45;&gt;Node2 -->
<g id="edge1" class="edge"><title>Node1&#45;&gt;Node2</title>
<path fill="none" stroke="midnightblue" d="M165.785,-52.4323C181.335,-54.6059 197.309,-56.8389 211.934,-58.8833"/>
<polygon fill="midnightblue" stroke="midnightblue" points="166.035,-48.9333 155.646,-51.0151 165.066,-55.8659 166.035,-48.9333"/>
</g>
<!-- Node3 -->
<g id="node3" class="node"><title>Node3</title>
<g id="a_node3"><a xlink:href="class_cache___w_p___h_t_t_p.html#a6f97da37d9fbbfc35d2f63188b020a01" target="_top" xlink:title="Cache_WP_HTTP\\pre_http\l_request">
<polygon fill="white" stroke="black" points="202.141,-0 202.141,-32 339.859,-32 339.859,-0 202.141,-0"/>
<text text-anchor="start" x="210.141" y="-18" font-family="Helvetica,sans-Serif" font-size="10.00">Cache_WP_HTTP\pre_http</text>
<text text-anchor="middle" x="271" y="-6" font-family="Helvetica,sans-Serif" font-size="10.00">_request</text>
</a>
</g>
</g>
<!-- Node1&#45;&gt;Node3 -->
<g id="edge2" class="edge"><title>Node1&#45;&gt;Node3</title>
<path fill="none" stroke="midnightblue" d="M168.754,-29.6083C179.901,-28.1101 191.206,-26.5906 202.023,-25.1367"/>
<polygon fill="midnightblue" stroke="midnightblue" points="168.026,-26.1746 158.582,-30.9756 168.959,-33.1122 168.026,-26.1746"/>
</g>
</g>
</svg>
