<?xml version="1.0" encoding="UTF-8" standalone="no"?>
<!DOCTYPE svg PUBLIC "-//W3C//DTD SVG 1.1//EN"
 "http://www.w3.org/Graphics/SVG/1.1/DTD/svg11.dtd">
<!-- Generated by graphviz version 2.30.1 (20130221.2233)
 -->
<!-- Title: Net_DNS_Resolver\send_tcp Pages: 1 -->
<svg width="912pt" height="144pt"
 viewBox="0.00 0.00 912.00 144.44" xmlns="http://www.w3.org/2000/svg" xmlns:xlink="http://www.w3.org/1999/xlink">
<g id="graph0" class="graph" transform="scale(1 1) rotate(0) translate(4 140.44)">
<title>Net_DNS_Resolver\send_tcp</title>
<polygon fill="white" stroke="white" points="-4,5 -4,-140.44 909,-140.44 909,5 -4,5"/>
<!-- Node1 -->
<g id="node1" class="node"><title>Node1</title>
<polygon fill="#bfbfbf" stroke="black" points="0.689941,-54.4397 0.689941,-74.4397 147.31,-74.4397 147.31,-54.4397 0.689941,-54.4397"/>
<text text-anchor="middle" x="74" y="-60.4397" font-family="Helvetica,sans-Serif" font-size="10.00">Net_DNS_Resolver\send_tcp</text>
</g>
<!-- Node2 -->
<g id="node2" class="node"><title>Node2</title>
<g id="a_node2"><a xlink:href="class_net___d_n_s___resolver.html#a3bf22a7a58480dd7a6fd0dd17807fc70" target="_top" xlink:title="Gets or sets the nameservers to be queried. ">
<polygon fill="white" stroke="black" points="184.084,-54.4397 184.084,-74.4397 347.916,-74.4397 347.916,-54.4397 184.084,-54.4397"/>
<text text-anchor="middle" x="266" y="-60.4397" font-family="Helvetica,sans-Serif" font-size="10.00">Net_DNS_Resolver\nameservers</text>
</a>
</g>
</g>
<!-- Node1&#45;&gt;Node2 -->
<g id="edge1" class="edge"><title>Node1&#45;&gt;Node2</title>
<path fill="none" stroke="midnightblue" d="M147.373,-64.4397C156.059,-64.4397 165.013,-64.4397 173.922,-64.4397"/>
<polygon fill="midnightblue" stroke="midnightblue" points="173.943,-67.9398 183.943,-64.4397 173.943,-60.9398 173.943,-67.9398"/>
</g>
<!-- Node3 -->
<g id="node3" class="node"><title>Node3</title>
<g id="a_node3"><a xlink:href="class_net___d_n_s___resolver.html#ae1bb14089519fe774d025156114aae4f" target="_top" xlink:title="Net_DNS_Resolver\\cname_addr">
<polygon fill="white" stroke="black" points="384.188,-116.44 384.188,-136.44 545.812,-136.44 545.812,-116.44 384.188,-116.44"/>
<text text-anchor="middle" x="465" y="-122.44" font-family="Helvetica,sans-Serif" font-size="10.00">Net_DNS_Resolver\cname_addr</text>
</a>
</g>
</g>
<!-- Node2&#45;&gt;Node3 -->
<g id="edge2" class="edge"><title>Node2&#45;&gt;Node3</title>
<path fill="none" stroke="midnightblue" d="M298.772,-74.5194C322.299,-81.9755 355.141,-92.3672 384,-101.44 396.377,-105.331 409.838,-109.544 422.125,-113.383"/>
<polygon fill="midnightblue" stroke="midnightblue" points="421.096,-116.728 431.684,-116.368 423.182,-110.047 421.096,-116.728"/>
</g>
<!-- Node4 -->
<g id="node4" class="node"><title>Node4</title>
<g id="a_node4"><a xlink:href="class_net___d_n_s___resolver.html#a4358663ec326e406c398f6cb09bd5544" target="_top" xlink:title="Initializes the Resolver Object. ">
<polygon fill="white" stroke="black" points="404.202,-26.4397 404.202,-58.4397 525.798,-58.4397 525.798,-26.4397 404.202,-26.4397"/>
<text text-anchor="start" x="412.202" y="-44.4397" font-family="Helvetica,sans-Serif" font-size="10.00">Net_DNS_Resolver\Net</text>
<text text-anchor="middle" x="465" y="-32.4397" font-family="Helvetica,sans-Serif" font-size="10.00">_DNS_Resolver</text>
</a>
</g>
</g>
<!-- Node2&#45;&gt;Node4 -->
<g id="edge3" class="edge"><title>Node2&#45;&gt;Node4</title>
<path fill="none" stroke="midnightblue" d="M347.98,-55.3962C363.242,-53.6918 379.084,-51.9227 393.976,-50.2597"/>
<polygon fill="midnightblue" stroke="midnightblue" points="394.565,-53.7157 404.115,-49.1274 393.788,-46.7589 394.565,-53.7157"/>
</g>
<!-- Node5 -->
<g id="node5" class="node"><title>Node5</title>
<g id="a_node5"><a xlink:href="class_net___d_n_s___resolver.html#aa2e8d58074354b1f9292500119470431" target="_top" xlink:title="Initalizes the resolver library. ">
<polygon fill="white" stroke="black" points="581.865,-32.4397 581.865,-52.4397 720.135,-52.4397 720.135,-32.4397 581.865,-32.4397"/>
<text text-anchor="middle" x="651" y="-38.4397" font-family="Helvetica,sans-Serif" font-size="10.00">Net_DNS_Resolver\res_init</text>
</a>
</g>
</g>
<!-- Node4&#45;&gt;Node5 -->
<g id="edge4" class="edge"><title>Node4&#45;&gt;Node5</title>
<path fill="none" stroke="midnightblue" d="M525.994,-42.4397C540.479,-42.4397 556.174,-42.4397 571.372,-42.4397"/>
<polygon fill="midnightblue" stroke="midnightblue" points="571.793,-45.9398 581.793,-42.4397 571.793,-38.9398 571.793,-45.9398"/>
</g>
<!-- Node6 -->
<g id="node6" class="node"><title>Node6</title>
<g id="a_node6"><a xlink:href="class_net___d_n_s___resolver.html#ae4def11574ad6e93176670c726541bed" target="_top" xlink:title="Reads and parses a resolver configuration file. ">
<polygon fill="white" stroke="black" points="766.976,-59.4397 766.976,-91.4397 893.024,-91.4397 893.024,-59.4397 766.976,-59.4397"/>
<text text-anchor="start" x="774.976" y="-77.4397" font-family="Helvetica,sans-Serif" font-size="10.00">Net_DNS_Resolver\read</text>
<text text-anchor="middle" x="830" y="-65.4397" font-family="Helvetica,sans-Serif" font-size="10.00">_config</text>
</a>
</g>
</g>
<!-- Node5&#45;&gt;Node6 -->
<g id="edge5" class="edge"><title>Node5&#45;&gt;Node6</title>
<path fill="none" stroke="midnightblue" d="M706.068,-52.5201C722.13,-55.5147 739.985,-58.8436 756.997,-62.0154"/>
<polygon fill="midnightblue" stroke="midnightblue" points="756.424,-65.4687 766.896,-63.8609 757.707,-58.5873 756.424,-65.4687"/>
</g>
<!-- Node7 -->
<g id="node7" class="node"><title>Node7</title>
<g id="a_node7"><a xlink:href="class_net___d_n_s___resolver.html#a2a3d25c5dd2b1810b60ad05b84787855" target="_top" xlink:title="Examines the environment for resolver config information. ">
<polygon fill="white" stroke="black" points="756.133,-9.43968 756.133,-29.4397 903.867,-29.4397 903.867,-9.43968 756.133,-9.43968"/>
<text text-anchor="middle" x="830" y="-15.4397" font-family="Helvetica,sans-Serif" font-size="10.00">Net_DNS_Resolver\read_env</text>
</a>
</g>
</g>
<!-- Node5&#45;&gt;Node7 -->
<g id="edge7" class="edge"><title>Node5&#45;&gt;Node7</title>
<path fill="none" stroke="midnightblue" d="M720.18,-33.5802C728.579,-32.4887 737.237,-31.3637 745.827,-30.2474"/>
<polygon fill="midnightblue" stroke="midnightblue" points="746.396,-33.7031 755.862,-28.9436 745.494,-26.7614 746.396,-33.7031"/>
</g>
<!-- Node6&#45;&gt;Node2 -->
<g id="edge6" class="edge"><title>Node6&#45;&gt;Node2</title>
<path fill="none" stroke="midnightblue" d="M766.722,-74.4705C680.667,-73.0969 520.541,-70.4175 384,-67.4397 375.677,-67.2582 367.022,-67.0579 358.354,-66.8496"/>
<polygon fill="midnightblue" stroke="midnightblue" points="358.274,-63.3467 348.191,-66.6019 358.103,-70.3446 358.274,-63.3467"/>
</g>
<!-- Node7&#45;&gt;Node2 -->
<g id="edge8" class="edge"><title>Node7&#45;&gt;Node2</title>
<path fill="none" stroke="midnightblue" d="M756.1,-10.0915C667.266,-0.721964 513.049,9.00291 384,-16.4397 351.958,-22.7569 317.65,-37.9388 294.528,-49.5508"/>
<polygon fill="midnightblue" stroke="midnightblue" points="292.636,-46.5879 285.342,-54.2726 295.836,-52.8136 292.636,-46.5879"/>
</g>
</g>
</svg>
