<?xml version="1.0" encoding="UTF-8" standalone="no"?>
<!DOCTYPE svg PUBLIC "-//W3C//DTD SVG 1.1//EN"
 "http://www.w3.org/Graphics/SVG/1.1/DTD/svg11.dtd">
<!-- Generated by graphviz version 2.30.1 (20130221.2233)
 -->
<!-- Title: Exceptional\handle_exception Pages: 1 -->
<svg width="274pt" height="40pt"
 viewBox="0.00 0.00 274.00 40.00" xmlns="http://www.w3.org/2000/svg" xmlns:xlink="http://www.w3.org/1999/xlink">
<g id="graph0" class="graph" transform="scale(1 1) rotate(0) translate(4 36)">
<title>Exceptional\handle_exception</title>
<polygon fill="white" stroke="white" points="-4,5 -4,-36 271,-36 271,5 -4,5"/>
<!-- Node1 -->
<g id="node1" class="node"><title>Node1</title>
<polygon fill="#bfbfbf" stroke="black" points="0.746582,-0 0.746582,-32 101.253,-32 101.253,-0 0.746582,-0"/>
<text text-anchor="start" x="8.74658" y="-18" font-family="Helvetica,sans-Serif" font-size="10.00">Exceptional\handle</text>
<text text-anchor="middle" x="51" y="-6" font-family="Helvetica,sans-Serif" font-size="10.00">_exception</text>
</g>
<!-- Node2 -->
<g id="node2" class="node"><title>Node2</title>
<g id="a_node2"><a xlink:href="class_exceptional_remote.html#a457fbb66fea16ab74eb6b0cfca4f1f84" target="_top" xlink:title="ExceptionalRemote\\send\l_exception">
<polygon fill="white" stroke="black" points="138.412,-0 138.412,-32 265.588,-32 265.588,-0 138.412,-0"/>
<text text-anchor="start" x="146.412" y="-18" font-family="Helvetica,sans-Serif" font-size="10.00">ExceptionalRemote\send</text>
<text text-anchor="middle" x="202" y="-6" font-family="Helvetica,sans-Serif" font-size="10.00">_exception</text>
</a>
</g>
</g>
<!-- Node1&#45;&gt;Node2 -->
<g id="edge1" class="edge"><title>Node1&#45;&gt;Node2</title>
<path fill="none" stroke="midnightblue" d="M101.615,-16C110.164,-16 119.208,-16 128.218,-16"/>
<polygon fill="midnightblue" stroke="midnightblue" points="128.349,-19.5001 138.349,-16 128.349,-12.5001 128.349,-19.5001"/>
</g>
</g>
</svg>
