<?xml version="1.0" encoding="UTF-8" standalone="no"?>
<!DOCTYPE svg PUBLIC "-//W3C//DTD SVG 1.1//EN"
 "http://www.w3.org/Graphics/SVG/1.1/DTD/svg11.dtd">
<!-- Generated by graphviz version 2.30.1 (20130221.2233)
 -->
<!-- Title: Image\createStruct Pages: 1 -->
<svg width="284pt" height="142pt"
 viewBox="0.00 0.00 284.00 142.00" xmlns="http://www.w3.org/2000/svg" xmlns:xlink="http://www.w3.org/1999/xlink">
<g id="graph0" class="graph" transform="scale(1 1) rotate(0) translate(4 138)">
<title>Image\createStruct</title>
<polygon fill="white" stroke="white" points="-4,5 -4,-138 281,-138 281,5 -4,5"/>
<!-- Node1 -->
<g id="node1" class="node"><title>Node1</title>
<polygon fill="#bfbfbf" stroke="black" points="-0.241211,-57 -0.241211,-77 100.241,-77 100.241,-57 -0.241211,-57"/>
<text text-anchor="middle" x="50" y="-63" font-family="Helvetica,sans-Serif" font-size="10.00">Image\createStruct</text>
</g>
<!-- Node2 -->
<g id="node2" class="node"><title>Node2</title>
<g id="a_node2"><a xlink:href="class_library_collection.html#a058e0d1ce52b8880b71a6203a106ed9d" target="_top" xlink:title="Get details for an image. ">
<polygon fill="white" stroke="black" points="138.525,-102 138.525,-134 273.475,-134 273.475,-102 138.525,-102"/>
<text text-anchor="start" x="146.525" y="-120" font-family="Helvetica,sans-Serif" font-size="10.00">LibraryCollection\getImage</text>
<text text-anchor="middle" x="206" y="-108" font-family="Helvetica,sans-Serif" font-size="10.00">Details</text>
</a>
</g>
</g>
<!-- Node1&#45;&gt;Node2 -->
<g id="edge1" class="edge"><title>Node1&#45;&gt;Node2</title>
<path fill="none" stroke="midnightblue" d="M91.1438,-80.2944C111.122,-86.9106 135.433,-94.9615 156.452,-101.922"/>
<polygon fill="midnightblue" stroke="midnightblue" points="92.0188,-76.8973 81.4254,-77.076 89.8181,-83.5423 92.0188,-76.8973"/>
</g>
<!-- Node3 -->
<g id="node3" class="node"><title>Node3</title>
<g id="a_node3"><a xlink:href="class_library_collection.html#aae2790279001240056f5385ea247c80a" target="_top" xlink:title="Gets a page of images from a folder. ">
<polygon fill="white" stroke="black" points="136.025,-51 136.025,-83 275.975,-83 275.975,-51 136.025,-51"/>
<text text-anchor="start" x="144.025" y="-69" font-family="Helvetica,sans-Serif" font-size="10.00">LibraryCollection\getImages</text>
<text text-anchor="middle" x="206" y="-57" font-family="Helvetica,sans-Serif" font-size="10.00">FromFolder</text>
</a>
</g>
</g>
<!-- Node1&#45;&gt;Node3 -->
<g id="edge2" class="edge"><title>Node1&#45;&gt;Node3</title>
<path fill="none" stroke="midnightblue" d="M110.806,-67C119.023,-67 127.516,-67 135.883,-67"/>
<polygon fill="midnightblue" stroke="midnightblue" points="110.574,-63.5001 100.574,-67 110.574,-70.5001 110.574,-63.5001"/>
</g>
<!-- Node4 -->
<g id="node4" class="node"><title>Node4</title>
<g id="a_node4"><a xlink:href="class_library_collection.html#af84484f3dd033f05f78425a0a367ec82" target="_top" xlink:title="Upload an image to a folder. ">
<polygon fill="white" stroke="black" points="144.357,-0 144.357,-32 267.643,-32 267.643,-0 144.357,-0"/>
<text text-anchor="start" x="152.357" y="-18" font-family="Helvetica,sans-Serif" font-size="10.00">LibraryCollection\upload</text>
<text text-anchor="middle" x="206" y="-6" font-family="Helvetica,sans-Serif" font-size="10.00">Image</text>
</a>
</g>
</g>
<!-- Node1&#45;&gt;Node4 -->
<g id="edge3" class="edge"><title>Node1&#45;&gt;Node4</title>
<path fill="none" stroke="midnightblue" d="M91.1438,-53.7056C111.122,-47.0894 135.433,-39.0385 156.452,-32.0777"/>
<polygon fill="midnightblue" stroke="midnightblue" points="89.8181,-50.4577 81.4254,-56.924 92.0188,-57.1027 89.8181,-50.4577"/>
</g>
</g>
</svg>
