<?xml version="1.0" encoding="UTF-8" standalone="no"?>
<!DOCTYPE svg PUBLIC "-//W3C//DTD SVG 1.1//EN"
 "http://www.w3.org/Graphics/SVG/1.1/DTD/svg11.dtd">
<!-- Generated by graphviz version 2.30.1 (20130221.2233)
 -->
<!-- Title: Net_DNS_Packet\dn_expand Pages: 1 -->
<svg width="494pt" height="487pt"
 viewBox="0.00 0.00 494.00 487.00" xmlns="http://www.w3.org/2000/svg" xmlns:xlink="http://www.w3.org/1999/xlink">
<g id="graph0" class="graph" transform="scale(1 1) rotate(0) translate(4 483)">
<title>Net_DNS_Packet\dn_expand</title>
<polygon fill="white" stroke="white" points="-4,5 -4,-483 491,-483 491,5 -4,5"/>
<!-- Node1 -->
<g id="node1" class="node"><title>Node1</title>
<polygon fill="#bfbfbf" stroke="black" points="0.680176,-223 0.680176,-243 147.32,-243 147.32,-223 0.680176,-223"/>
<text text-anchor="middle" x="74" y="-229" font-family="Helvetica,sans-Serif" font-size="10.00">Net_DNS_Packet\dn_expand</text>
</g>
<!-- Node2 -->
<g id="node2" class="node"><title>Node2</title>
<g id="a_node2"><a xlink:href="class_net___d_n_s___r_r___c_n_a_m_e.html#a9350cf8c56601f5da2424d04501efada" target="_top" xlink:title="Net_DNS_RR_CNAME\\Net\l_DNS_RR_CNAME">
<polygon fill="white" stroke="black" points="186.872,-447 186.872,-479 325.128,-479 325.128,-447 186.872,-447"/>
<text text-anchor="start" x="194.872" y="-465" font-family="Helvetica,sans-Serif" font-size="10.00">Net_DNS_RR_CNAME\Net</text>
<text text-anchor="middle" x="256" y="-453" font-family="Helvetica,sans-Serif" font-size="10.00">_DNS_RR_CNAME</text>
</a>
</g>
</g>
<!-- Node1&#45;&gt;Node2 -->
<g id="edge1" class="edge"><title>Node1&#45;&gt;Node2</title>
<path fill="none" stroke="midnightblue" d="M80.3621,-252.84C92.2532,-293.19 124.591,-385.36 184,-437 188.359,-440.789 193.317,-444.044 198.54,-446.836"/>
<polygon fill="midnightblue" stroke="midnightblue" points="83.7004,-251.783 77.6019,-243.119 76.9666,-253.695 83.7004,-251.783"/>
</g>
<!-- Node3 -->
<g id="node3" class="node"><title>Node3</title>
<g id="a_node3"><a xlink:href="class_net___d_n_s___r_r___m_x.html#afc6faea6aaada59a4caea68ca32c307b" target="_top" xlink:title="Net_DNS_RR_MX\\Net_DNS\l_RR_MX">
<polygon fill="white" stroke="black" points="184.091,-396 184.091,-428 327.909,-428 327.909,-396 184.091,-396"/>
<text text-anchor="start" x="192.091" y="-414" font-family="Helvetica,sans-Serif" font-size="10.00">Net_DNS_RR_MX\Net_DNS</text>
<text text-anchor="middle" x="256" y="-402" font-family="Helvetica,sans-Serif" font-size="10.00">_RR_MX</text>
</a>
</g>
</g>
<!-- Node1&#45;&gt;Node3 -->
<g id="edge2" class="edge"><title>Node1&#45;&gt;Node3</title>
<path fill="none" stroke="midnightblue" d="M83.9714,-252.405C99.7772,-284.577 135.556,-349.065 184,-386 189.011,-389.82 194.638,-393.122 200.476,-395.965"/>
<polygon fill="midnightblue" stroke="midnightblue" points="87.0258,-250.68 79.5507,-243.171 80.712,-253.702 87.0258,-250.68"/>
</g>
<!-- Node4 -->
<g id="node4" class="node"><title>Node4</title>
<g id="a_node4"><a xlink:href="class_net___d_n_s___r_r___n_a_p_t_r.html#aef963fabca0af3b3b10d881552cd9835" target="_top" xlink:title="Net_DNS_RR_NAPTR\\Net\l_DNS_RR_NAPTR">
<polygon fill="white" stroke="black" points="187.983,-345 187.983,-377 324.017,-377 324.017,-345 187.983,-345"/>
<text text-anchor="start" x="195.983" y="-363" font-family="Helvetica,sans-Serif" font-size="10.00">Net_DNS_RR_NAPTR\Net</text>
<text text-anchor="middle" x="256" y="-351" font-family="Helvetica,sans-Serif" font-size="10.00">_DNS_RR_NAPTR</text>
</a>
</g>
</g>
<!-- Node1&#45;&gt;Node4 -->
<g id="edge3" class="edge"><title>Node1&#45;&gt;Node4</title>
<path fill="none" stroke="midnightblue" d="M89.9323,-250.838C109.499,-273.222 145.834,-311.514 184,-335 190.037,-338.715 196.686,-342.02 203.421,-344.922"/>
<polygon fill="midnightblue" stroke="midnightblue" points="92.4573,-248.406 83.2856,-243.103 87.148,-252.968 92.4573,-248.406"/>
</g>
<!-- Node5 -->
<g id="node5" class="node"><title>Node5</title>
<g id="a_node5"><a xlink:href="class_net___d_n_s___r_r___n_s.html#abc249a0f63fe561a948778a2ce0a4473" target="_top" xlink:title="Net_DNS_RR_NS\\Net_DNS\l_RR_NS">
<polygon fill="white" stroke="black" points="184.646,-294 184.646,-326 327.354,-326 327.354,-294 184.646,-294"/>
<text text-anchor="start" x="192.646" y="-312" font-family="Helvetica,sans-Serif" font-size="10.00">Net_DNS_RR_NS\Net_DNS</text>
<text text-anchor="middle" x="256" y="-300" font-family="Helvetica,sans-Serif" font-size="10.00">_RR_NS</text>
</a>
</g>
</g>
<!-- Node1&#45;&gt;Node5 -->
<g id="edge4" class="edge"><title>Node1&#45;&gt;Node5</title>
<path fill="none" stroke="midnightblue" d="M104.305,-247.555C126.073,-258.159 156.612,-272.603 184,-284 192.12,-287.379 200.853,-290.77 209.322,-293.936"/>
<polygon fill="midnightblue" stroke="midnightblue" points="105.775,-244.378 95.2554,-243.122 102.696,-250.664 105.775,-244.378"/>
</g>
<!-- Node6 -->
<g id="node6" class="node"><title>Node6</title>
<g id="a_node6"><a xlink:href="class_net___d_n_s___r_r___p_t_r.html#ac4516534181433b3be00d672bbadfe3c" target="_top" xlink:title="Net_DNS_RR_PTR\\Net\l_DNS_RR_PTR">
<polygon fill="white" stroke="black" points="194.929,-243 194.929,-275 317.071,-275 317.071,-243 194.929,-243"/>
<text text-anchor="start" x="202.929" y="-261" font-family="Helvetica,sans-Serif" font-size="10.00">Net_DNS_RR_PTR\Net</text>
<text text-anchor="middle" x="256" y="-249" font-family="Helvetica,sans-Serif" font-size="10.00">_DNS_RR_PTR</text>
</a>
</g>
</g>
<!-- Node1&#45;&gt;Node6 -->
<g id="edge5" class="edge"><title>Node1&#45;&gt;Node6</title>
<path fill="none" stroke="midnightblue" d="M154.577,-244.494C168.077,-246.445 181.895,-248.44 194.793,-250.303"/>
<polygon fill="midnightblue" stroke="midnightblue" points="154.733,-240.981 144.335,-243.015 153.732,-247.909 154.733,-240.981"/>
</g>
<!-- Node7 -->
<g id="node7" class="node"><title>Node7</title>
<g id="a_node7"><a xlink:href="class_net___d_n_s___r_r___s_o_a.html#a93588a59c57c2bc2d72a9b12559d0908" target="_top" xlink:title="Net_DNS_RR_SOA\\Net\l_DNS_RR_SOA">
<polygon fill="white" stroke="black" points="194.37,-192 194.37,-224 317.63,-224 317.63,-192 194.37,-192"/>
<text text-anchor="start" x="202.37" y="-210" font-family="Helvetica,sans-Serif" font-size="10.00">Net_DNS_RR_SOA\Net</text>
<text text-anchor="middle" x="256" y="-198" font-family="Helvetica,sans-Serif" font-size="10.00">_DNS_RR_SOA</text>
</a>
</g>
</g>
<!-- Node1&#45;&gt;Node7 -->
<g id="edge6" class="edge"><title>Node1&#45;&gt;Node7</title>
<path fill="none" stroke="midnightblue" d="M157.097,-221.598C169.546,-219.869 182.197,-218.111 194.09,-216.46"/>
<polygon fill="midnightblue" stroke="midnightblue" points="156.599,-218.133 147.176,-222.976 157.562,-225.067 156.599,-218.133"/>
</g>
<!-- Node8 -->
<g id="node8" class="node"><title>Node8</title>
<g id="a_node8"><a xlink:href="class_net___d_n_s___r_r___s_r_v.html#a68e66732ecc66840ec2625b954c3d639" target="_top" xlink:title="Net_DNS_RR_SRV\\Net\l_DNS_RR_SRV">
<polygon fill="white" stroke="black" points="194.736,-141 194.736,-173 317.264,-173 317.264,-141 194.736,-141"/>
<text text-anchor="start" x="202.736" y="-159" font-family="Helvetica,sans-Serif" font-size="10.00">Net_DNS_RR_SRV\Net</text>
<text text-anchor="middle" x="256" y="-147" font-family="Helvetica,sans-Serif" font-size="10.00">_DNS_RR_SRV</text>
</a>
</g>
</g>
<!-- Node1&#45;&gt;Node8 -->
<g id="edge7" class="edge"><title>Node1&#45;&gt;Node8</title>
<path fill="none" stroke="midnightblue" d="M104.738,-218.587C126.495,-208.232 156.832,-194.185 184,-183 192.133,-179.652 200.872,-176.275 209.343,-173.114"/>
<polygon fill="midnightblue" stroke="midnightblue" points="103.191,-215.447 95.681,-222.92 106.212,-221.762 103.191,-215.447"/>
</g>
<!-- Node9 -->
<g id="node9" class="node"><title>Node9</title>
<g id="a_node9"><a xlink:href="class_net___d_n_s___r_r___t_s_i_g.html#af65963492a03361a69f7f2695e3366d4" target="_top" xlink:title="Net_DNS_RR_TSIG\\Net\l_DNS_RR_TSIG">
<polygon fill="white" stroke="black" points="193.261,-90 193.261,-122 318.739,-122 318.739,-90 193.261,-90"/>
<text text-anchor="start" x="201.261" y="-108" font-family="Helvetica,sans-Serif" font-size="10.00">Net_DNS_RR_TSIG\Net</text>
<text text-anchor="middle" x="256" y="-96" font-family="Helvetica,sans-Serif" font-size="10.00">_DNS_RR_TSIG</text>
</a>
</g>
</g>
<!-- Node1&#45;&gt;Node9 -->
<g id="edge8" class="edge"><title>Node1&#45;&gt;Node9</title>
<path fill="none" stroke="midnightblue" d="M90.2722,-215.004C109.948,-192.804 146.146,-155.166 184,-132 190.046,-128.3 196.701,-125.004 203.438,-122.106"/>
<polygon fill="midnightblue" stroke="midnightblue" points="87.502,-212.855 83.5714,-222.694 92.7797,-217.454 87.502,-212.855"/>
</g>
<!-- Node10 -->
<g id="node10" class="node"><title>Node10</title>
<g id="a_node10"><a xlink:href="class_net___d_n_s___packet.html#a91c880534c4ed4f43098627b5c829ef2" target="_top" xlink:title="Parses the question section of a packet. ">
<polygon fill="white" stroke="black" points="194.919,-39 194.919,-71 317.081,-71 317.081,-39 194.919,-39"/>
<text text-anchor="start" x="202.919" y="-57" font-family="Helvetica,sans-Serif" font-size="10.00">Net_DNS_Packet\parse</text>
<text text-anchor="middle" x="256" y="-45" font-family="Helvetica,sans-Serif" font-size="10.00">_question</text>
</a>
</g>
</g>
<!-- Node1&#45;&gt;Node10 -->
<g id="edge9" class="edge"><title>Node1&#45;&gt;Node10</title>
<path fill="none" stroke="midnightblue" d="M84.0049,-213.723C99.8599,-181.764 135.709,-117.7 184,-81 189.017,-77.1875 194.648,-73.8906 200.487,-71.05"/>
<polygon fill="midnightblue" stroke="midnightblue" points="80.7717,-212.369 79.5693,-222.896 87.0736,-215.417 80.7717,-212.369"/>
</g>
<!-- Node12 -->
<g id="node12" class="node"><title>Node12</title>
<g id="a_node12"><a xlink:href="class_net___d_n_s___packet.html#a8684f7ece05b01f65ec45160cca1852d" target="_top" xlink:title="Parses a resource record section of a packet. ">
<polygon fill="white" stroke="black" points="188.808,-0 188.808,-20 323.192,-20 323.192,-0 188.808,-0"/>
<text text-anchor="middle" x="256" y="-6" font-family="Helvetica,sans-Serif" font-size="10.00">Net_DNS_Packet\parse_rr</text>
</a>
</g>
</g>
<!-- Node1&#45;&gt;Node12 -->
<g id="edge11" class="edge"><title>Node1&#45;&gt;Node12</title>
<path fill="none" stroke="midnightblue" d="M80.0745,-212.878C91.4348,-172.024 122.845,-79.0812 184,-30 189.094,-25.9121 194.976,-22.6592 201.13,-20.0708"/>
<polygon fill="midnightblue" stroke="midnightblue" points="76.6429,-212.163 77.448,-222.727 83.4065,-213.967 76.6429,-212.163"/>
</g>
<!-- Node11 -->
<g id="node11" class="node"><title>Node11</title>
<g id="a_node11"><a xlink:href="class_net___d_n_s___packet.html#a108461c26b058bf6aed5e4bcae9da3e6" target="_top" xlink:title="Parses a DNS packet returned by a DNS server. ">
<polygon fill="white" stroke="black" points="363.919,-22 363.919,-42 486.081,-42 486.081,-22 363.919,-22"/>
<text text-anchor="middle" x="425" y="-28" font-family="Helvetica,sans-Serif" font-size="10.00">Net_DNS_Packet\parse</text>
</a>
</g>
</g>
<!-- Node10&#45;&gt;Node11 -->
<g id="edge10" class="edge"><title>Node10&#45;&gt;Node11</title>
<path fill="none" stroke="midnightblue" d="M327.359,-45.3099C339.478,-43.6407 351.977,-41.9194 363.798,-40.2913"/>
<polygon fill="midnightblue" stroke="midnightblue" points="326.72,-41.8647 317.291,-46.6965 327.675,-48.7993 326.72,-41.8647"/>
</g>
<!-- Node12&#45;&gt;Node11 -->
<g id="edge12" class="edge"><title>Node12&#45;&gt;Node11</title>
<path fill="none" stroke="midnightblue" d="M333.533,-20.0822C343.651,-21.4151 353.907,-22.7662 363.7,-24.0563"/>
<polygon fill="midnightblue" stroke="midnightblue" points="333.854,-16.5943 323.483,-18.7582 332.94,-23.5344 333.854,-16.5943"/>
</g>
</g>
</svg>
