<?xml version="1.0" encoding="UTF-8" standalone="no"?>
<!DOCTYPE svg PUBLIC "-//W3C//DTD SVG 1.1//EN"
 "http://www.w3.org/Graphics/SVG/1.1/DTD/svg11.dtd">
<!-- Generated by graphviz version 2.30.1 (20130221.2233)
 -->
<!-- Title: OAuthServer\check_signature Pages: 1 -->
<svg width="332pt" height="142pt"
 viewBox="0.00 0.00 332.00 142.00" xmlns="http://www.w3.org/2000/svg" xmlns:xlink="http://www.w3.org/1999/xlink">
<g id="graph0" class="graph" transform="scale(1 1) rotate(0) translate(4 138)">
<title>OAuthServer\check_signature</title>
<polygon fill="white" stroke="white" points="-4,5 -4,-138 329,-138 329,5 -4,5"/>
<!-- Node1 -->
<g id="node1" class="node"><title>Node1</title>
<polygon fill="#bfbfbf" stroke="black" points="0.29834,-57 0.29834,-77 149.702,-77 149.702,-57 0.29834,-57"/>
<text text-anchor="middle" x="75" y="-63" font-family="Helvetica,sans-Serif" font-size="10.00">OAuthServer\check_signature</text>
</g>
<!-- Node2 -->
<g id="node2" class="node"><title>Node2</title>
<g id="a_node2"><a xlink:href="class_o_auth_server.html#a5c76359726e685013d2e0cb8a1abe09a" target="_top" xlink:title="process an access_token request returns the access token on success ">
<polygon fill="white" stroke="black" points="187.527,-102 187.527,-134 322.473,-134 322.473,-102 187.527,-102"/>
<text text-anchor="start" x="195.527" y="-120" font-family="Helvetica,sans-Serif" font-size="10.00">OAuthServer\fetch_access</text>
<text text-anchor="middle" x="255" y="-108" font-family="Helvetica,sans-Serif" font-size="10.00">_token</text>
</a>
</g>
</g>
<!-- Node1&#45;&gt;Node2 -->
<g id="edge1" class="edge"><title>Node1&#45;&gt;Node2</title>
<path fill="none" stroke="midnightblue" d="M120.826,-79.8435C144.207,-86.5424 173.036,-94.8026 197.886,-101.922"/>
<polygon fill="midnightblue" stroke="midnightblue" points="121.744,-76.4658 111.167,-77.076 119.816,-83.195 121.744,-76.4658"/>
</g>
<!-- Node3 -->
<g id="node3" class="node"><title>Node3</title>
<g id="a_node3"><a xlink:href="class_o_auth_server.html#aa91f1a763ab36c576ebf9319ac4751f6" target="_top" xlink:title="process a request_token request returns the request token on success ">
<polygon fill="white" stroke="black" points="186.412,-51 186.412,-83 323.588,-83 323.588,-51 186.412,-51"/>
<text text-anchor="start" x="194.412" y="-69" font-family="Helvetica,sans-Serif" font-size="10.00">OAuthServer\fetch_request</text>
<text text-anchor="middle" x="255" y="-57" font-family="Helvetica,sans-Serif" font-size="10.00">_token</text>
</a>
</g>
</g>
<!-- Node1&#45;&gt;Node3 -->
<g id="edge2" class="edge"><title>Node1&#45;&gt;Node3</title>
<path fill="none" stroke="midnightblue" d="M160.166,-67C168.917,-67 177.731,-67 186.268,-67"/>
<polygon fill="midnightblue" stroke="midnightblue" points="159.942,-63.5001 149.942,-67 159.942,-70.5001 159.942,-63.5001"/>
</g>
<!-- Node4 -->
<g id="node4" class="node"><title>Node4</title>
<g id="a_node4"><a xlink:href="class_o_auth_server.html#ad31e95096adeac980a8a99f59c4cadc6" target="_top" xlink:title="verify an api call, checks all the parameters ">
<polygon fill="white" stroke="black" points="204.764,-0 204.764,-32 305.236,-32 305.236,-0 204.764,-0"/>
<text text-anchor="start" x="212.764" y="-18" font-family="Helvetica,sans-Serif" font-size="10.00">OAuthServer\verify</text>
<text text-anchor="middle" x="255" y="-6" font-family="Helvetica,sans-Serif" font-size="10.00">_request</text>
</a>
</g>
</g>
<!-- Node1&#45;&gt;Node4 -->
<g id="edge3" class="edge"><title>Node1&#45;&gt;Node4</title>
<path fill="none" stroke="midnightblue" d="M120.97,-54.1153C146.517,-46.7956 178.535,-37.6221 204.757,-30.109"/>
<polygon fill="midnightblue" stroke="midnightblue" points="119.816,-50.805 111.167,-56.924 121.744,-57.5342 119.816,-50.805"/>
</g>
</g>
</svg>
