<?xml version="1.0" encoding="UTF-8" standalone="no"?>
<!DOCTYPE svg PUBLIC "-//W3C//DTD SVG 1.1//EN"
 "http://www.w3.org/Graphics/SVG/1.1/DTD/svg11.dtd">
<!-- Generated by graphviz version 2.30.1 (20130221.2233)
 -->
<!-- Title: Net_DNS_RR_CNAME\Net_DNS_RR_CNAME Pages: 1 -->
<svg width="330pt" height="67pt"
 viewBox="0.00 0.00 330.00 67.00" xmlns="http://www.w3.org/2000/svg" xmlns:xlink="http://www.w3.org/1999/xlink">
<g id="graph0" class="graph" transform="scale(1 1) rotate(0) translate(4 63)">
<title>Net_DNS_RR_CNAME\Net_DNS_RR_CNAME</title>
<polygon fill="white" stroke="white" points="-4,5 -4,-63 327,-63 327,5 -4,5"/>
<!-- Node1 -->
<g id="node1" class="node"><title>Node1</title>
<polygon fill="#bfbfbf" stroke="black" points="-0.12793,-13 -0.12793,-45 138.128,-45 138.128,-13 -0.12793,-13"/>
<text text-anchor="start" x="7.87207" y="-31" font-family="Helvetica,sans-Serif" font-size="10.00">Net_DNS_RR_CNAME\Net</text>
<text text-anchor="middle" x="69" y="-19" font-family="Helvetica,sans-Serif" font-size="10.00">_DNS_RR_CNAME</text>
</g>
<!-- Node2 -->
<g id="node2" class="node"><title>Node2</title>
<g id="a_node2"><a xlink:href="class_net___d_n_s___packet.html#a9844b7ce62cb096db44f58882f8ca403" target="_top" xlink:title="DNS packet decompression method. ">
<polygon fill="white" stroke="black" points="174.68,-39 174.68,-59 321.32,-59 321.32,-39 174.68,-39"/>
<text text-anchor="middle" x="248" y="-45" font-family="Helvetica,sans-Serif" font-size="10.00">Net_DNS_Packet\dn_expand</text>
</a>
</g>
</g>
<!-- Node1&#45;&gt;Node2 -->
<g id="edge1" class="edge"><title>Node1&#45;&gt;Node2</title>
<path fill="none" stroke="midnightblue" d="M138.18,-36.7039C146.719,-37.6688 155.526,-38.6639 164.257,-39.6505"/>
<polygon fill="midnightblue" stroke="midnightblue" points="164.122,-43.1574 174.452,-40.8025 164.908,-36.2017 164.122,-43.1574"/>
</g>
<!-- Node3 -->
<g id="node3" class="node"><title>Node3</title>
<g id="a_node3"><a xlink:href="class_net___d_n_s___r_r.html#aa9da23331d654752fc950d474aa4c88d" target="_top" xlink:title="Net_DNS_RR\\rdata">
<polygon fill="white" stroke="black" points="196.094,-0 196.094,-20 299.906,-20 299.906,-0 196.094,-0"/>
<text text-anchor="middle" x="248" y="-6" font-family="Helvetica,sans-Serif" font-size="10.00">Net_DNS_RR\rdata</text>
</a>
</g>
</g>
<!-- Node1&#45;&gt;Node3 -->
<g id="edge2" class="edge"><title>Node1&#45;&gt;Node3</title>
<path fill="none" stroke="midnightblue" d="M138.18,-21.6813C153.767,-20.008 170.244,-18.2393 185.531,-16.5984"/>
<polygon fill="midnightblue" stroke="midnightblue" points="186.329,-20.0329 195.898,-15.4855 185.582,-13.0729 186.329,-20.0329"/>
</g>
</g>
</svg>
