<?xml version="1.0" encoding="UTF-8" standalone="no"?>
<!DOCTYPE svg PUBLIC "-//W3C//DTD SVG 1.1//EN"
 "http://www.w3.org/Graphics/SVG/1.1/DTD/svg11.dtd">
<!-- Generated by graphviz version 2.30.1 (20130221.2233)
 -->
<!-- Title: Ctct\Components\EmailMarketing\Schedule\toJson Pages: 1 -->
<svg width="376pt" height="91pt"
 viewBox="0.00 0.00 376.00 91.00" xmlns="http://www.w3.org/2000/svg" xmlns:xlink="http://www.w3.org/1999/xlink">
<g id="graph0" class="graph" transform="scale(1 1) rotate(0) translate(4 87)">
<title>Ctct\Components\EmailMarketing\Schedule\toJson</title>
<polygon fill="white" stroke="white" points="-4,5 -4,-87 373,-87 373,5 -4,5"/>
<!-- Node1 -->
<g id="node1" class="node"><title>Node1</title>
<polygon fill="#bfbfbf" stroke="black" points="0.527344,-25 0.527344,-57 165.473,-57 165.473,-25 0.527344,-25"/>
<text text-anchor="start" x="8.52734" y="-43" font-family="Helvetica,sans-Serif" font-size="10.00">Ctct\Components\EmailMarketing</text>
<text text-anchor="middle" x="83" y="-31" font-family="Helvetica,sans-Serif" font-size="10.00">\Schedule\toJson</text>
</g>
<!-- Node2 -->
<g id="node2" class="node"><title>Node2</title>
<g id="a_node2"><a xlink:href="class_ctct_1_1_services_1_1_campaign_schedule_service.html#a2bcc5ee12d91827d7ca93eaf01ae3be7" target="_top" xlink:title="Create a new schedule for a campaign. ">
<polygon fill="white" stroke="black" points="202.52,-51 202.52,-83 367.48,-83 367.48,-51 202.52,-51"/>
<text text-anchor="start" x="210.52" y="-69" font-family="Helvetica,sans-Serif" font-size="10.00">Ctct\Services\CampaignSchedule</text>
<text text-anchor="middle" x="285" y="-57" font-family="Helvetica,sans-Serif" font-size="10.00">Service\addSchedule</text>
</a>
</g>
</g>
<!-- Node1&#45;&gt;Node2 -->
<g id="edge1" class="edge"><title>Node1&#45;&gt;Node2</title>
<path fill="none" stroke="midnightblue" d="M175.628,-52.9116C184.525,-54.0682 193.51,-55.2363 202.301,-56.3791"/>
<polygon fill="midnightblue" stroke="midnightblue" points="176.004,-49.4311 165.636,-51.6127 175.101,-56.3727 176.004,-49.4311"/>
</g>
<!-- Node3 -->
<g id="node3" class="node"><title>Node3</title>
<g id="a_node3"><a xlink:href="class_ctct_1_1_services_1_1_campaign_schedule_service.html#a9f260b3737372bd05a280a265545fc58" target="_top" xlink:title="Update a specific schedule for a campaign. ">
<polygon fill="white" stroke="black" points="202.52,-0 202.52,-32 367.48,-32 367.48,-0 202.52,-0"/>
<text text-anchor="start" x="210.52" y="-18" font-family="Helvetica,sans-Serif" font-size="10.00">Ctct\Services\CampaignSchedule</text>
<text text-anchor="middle" x="285" y="-6" font-family="Helvetica,sans-Serif" font-size="10.00">Service\updateSchedule</text>
</a>
</g>
</g>
<!-- Node1&#45;&gt;Node3 -->
<g id="edge2" class="edge"><title>Node1&#45;&gt;Node3</title>
<path fill="none" stroke="midnightblue" d="M175.628,-29.5465C184.525,-28.4344 193.51,-27.3112 202.301,-26.2124"/>
<polygon fill="midnightblue" stroke="midnightblue" points="175.125,-26.0821 165.636,-30.7955 175.993,-33.028 175.125,-26.0821"/>
</g>
</g>
</svg>
