<?xml version="1.0" encoding="UTF-8" standalone="no"?>
<!DOCTYPE svg PUBLIC "-//W3C//DTD SVG 1.1//EN"
 "http://www.w3.org/Graphics/SVG/1.1/DTD/svg11.dtd">
<!-- Generated by graphviz version 2.30.1 (20130221.2233)
 -->
<!-- Title: ExceptionalRemote\send_exception Pages: 1 -->
<svg width="274pt" height="40pt"
 viewBox="0.00 0.00 274.00 40.00" xmlns="http://www.w3.org/2000/svg" xmlns:xlink="http://www.w3.org/1999/xlink">
<g id="graph0" class="graph" transform="scale(1 1) rotate(0) translate(4 36)">
<title>ExceptionalRemote\send_exception</title>
<polygon fill="white" stroke="white" points="-4,5 -4,-36 271,-36 271,5 -4,5"/>
<!-- Node1 -->
<g id="node1" class="node"><title>Node1</title>
<polygon fill="#bfbfbf" stroke="black" points="0.411621,-0 0.411621,-32 127.588,-32 127.588,-0 0.411621,-0"/>
<text text-anchor="start" x="8.41162" y="-18" font-family="Helvetica,sans-Serif" font-size="10.00">ExceptionalRemote\send</text>
<text text-anchor="middle" x="64" y="-6" font-family="Helvetica,sans-Serif" font-size="10.00">_exception</text>
</g>
<!-- Node2 -->
<g id="node2" class="node"><title>Node2</title>
<g id="a_node2"><a xlink:href="class_exceptional.html#ae29dd62218f9e0170f9c96055b0f2198" target="_top" xlink:title="Exceptional\\handle\l_exception">
<polygon fill="white" stroke="black" points="164.747,-0 164.747,-32 265.253,-32 265.253,-0 164.747,-0"/>
<text text-anchor="start" x="172.747" y="-18" font-family="Helvetica,sans-Serif" font-size="10.00">Exceptional\handle</text>
<text text-anchor="middle" x="215" y="-6" font-family="Helvetica,sans-Serif" font-size="10.00">_exception</text>
</a>
</g>
</g>
<!-- Node1&#45;&gt;Node2 -->
<g id="edge1" class="edge"><title>Node1&#45;&gt;Node2</title>
<path fill="none" stroke="midnightblue" d="M137.874,-16C146.871,-16 155.9,-16 164.435,-16"/>
<polygon fill="midnightblue" stroke="midnightblue" points="137.758,-12.5001 127.758,-16 137.758,-19.5001 137.758,-12.5001"/>
</g>
</g>
</svg>
