<?xml version="1.0" encoding="UTF-8" standalone="no"?>
<!DOCTYPE svg PUBLIC "-//W3C//DTD SVG 1.1//EN"
 "http://www.w3.org/Graphics/SVG/1.1/DTD/svg11.dtd">
<!-- Generated by graphviz version 2.30.1 (20130221.2233)
 -->
<!-- Title: CTCT_Settings\settings_init Pages: 1 -->
<svg width="488pt" height="28pt"
 viewBox="0.00 0.00 488.00 28.00" xmlns="http://www.w3.org/2000/svg" xmlns:xlink="http://www.w3.org/1999/xlink">
<g id="graph0" class="graph" transform="scale(1 1) rotate(0) translate(4 24)">
<title>CTCT_Settings\settings_init</title>
<polygon fill="white" stroke="white" points="-4,5 -4,-24 485,-24 485,5 -4,5"/>
<!-- Node1 -->
<g id="node1" class="node"><title>Node1</title>
<polygon fill="#bfbfbf" stroke="black" points="0.0297852,-0 0.0297852,-20 139.97,-20 139.97,-0 0.0297852,-0"/>
<text text-anchor="middle" x="70" y="-6" font-family="Helvetica,sans-Serif" font-size="10.00">CTCT_Settings\settings_init</text>
</g>
<!-- Node2 -->
<g id="node2" class="node"><title>Node2</title>
<g id="a_node2"><a xlink:href="class_k_w_s_contact_list.html#a83039abeb7dce624539df46bebd0b3a2" target="_top" xlink:title="Convert an array of List objects into HTML output. ">
<polygon fill="white" stroke="black" points="176.697,-0 176.697,-20 323.303,-20 323.303,-0 176.697,-0"/>
<text text-anchor="middle" x="250" y="-6" font-family="Helvetica,sans-Serif" font-size="10.00">KWSContactList\outputHTML</text>
</a>
</g>
</g>
<!-- Node1&#45;&gt;Node2 -->
<g id="edge1" class="edge"><title>Node1&#45;&gt;Node2</title>
<path fill="none" stroke="midnightblue" d="M140.074,-10C148.643,-10 157.472,-10 166.221,-10"/>
<polygon fill="midnightblue" stroke="midnightblue" points="166.433,-13.5001 176.433,-10 166.433,-6.5001 166.433,-13.5001"/>
</g>
<!-- Node3 -->
<g id="node3" class="node"><title>Node3</title>
<g id="a_node3"><a xlink:href="class_w_p___c_t_c_t.html#a485eac1e69d12c9e2ecac70bf3295c3f" target="_top" xlink:title="WP_CTCT\\getInstance">
<polygon fill="white" stroke="black" points="360.594,-0 360.594,-20 479.406,-20 479.406,-0 360.594,-0"/>
<text text-anchor="middle" x="420" y="-6" font-family="Helvetica,sans-Serif" font-size="10.00">WP_CTCT\getInstance</text>
</a>
</g>
</g>
<!-- Node2&#45;&gt;Node3 -->
<g id="edge2" class="edge"><title>Node2&#45;&gt;Node3</title>
<path fill="none" stroke="midnightblue" d="M323.71,-10C332.57,-10 341.6,-10 350.397,-10"/>
<polygon fill="midnightblue" stroke="midnightblue" points="350.593,-13.5001 360.593,-10 350.593,-6.5001 350.593,-13.5001"/>
</g>
</g>
</svg>
