<?xml version="1.0" encoding="UTF-8" standalone="no"?>
<!DOCTYPE svg PUBLIC "-//W3C//DTD SVG 1.1//EN"
 "http://www.w3.org/Graphics/SVG/1.1/DTD/svg11.dtd">
<!-- Generated by graphviz version 2.30.1 (20130221.2233)
 -->
<!-- Title: LibraryCollection\getImagesFromFolder Pages: 1 -->
<svg width="680pt" height="130pt"
 viewBox="0.00 0.00 680.00 130.00" xmlns="http://www.w3.org/2000/svg" xmlns:xlink="http://www.w3.org/1999/xlink">
<g id="graph0" class="graph" transform="scale(1 1) rotate(0) translate(4 126)">
<title>LibraryCollection\getImagesFromFolder</title>
<polygon fill="white" stroke="white" points="-4,5 -4,-126 677,-126 677,5 -4,5"/>
<!-- Node1 -->
<g id="node1" class="node"><title>Node1</title>
<polygon fill="#bfbfbf" stroke="black" points="0.0249023,-35 0.0249023,-67 139.975,-67 139.975,-35 0.0249023,-35"/>
<text text-anchor="start" x="8.0249" y="-53" font-family="Helvetica,sans-Serif" font-size="10.00">LibraryCollection\getImages</text>
<text text-anchor="middle" x="70" y="-41" font-family="Helvetica,sans-Serif" font-size="10.00">FromFolder</text>
</g>
<!-- Node2 -->
<g id="node2" class="node"><title>Node2</title>
<g id="a_node2"><a xlink:href="class_image.html#ae7d8e411a8a8ee99c6d7acbfb842963a" target="_top" xlink:title="Create associate array of object from XML. ">
<polygon fill="white" stroke="black" points="197.759,-61 197.759,-81 298.241,-81 298.241,-61 197.759,-61"/>
<text text-anchor="middle" x="248" y="-67" font-family="Helvetica,sans-Serif" font-size="10.00">Image\createStruct</text>
</a>
</g>
</g>
<!-- Node1&#45;&gt;Node2 -->
<g id="edge1" class="edge"><title>Node1&#45;&gt;Node2</title>
<path fill="none" stroke="midnightblue" d="M140.055,-58.8471C155.704,-60.6255 172.193,-62.4991 187.411,-64.2285"/>
<polygon fill="midnightblue" stroke="midnightblue" points="187.387,-67.7482 197.718,-65.3998 188.177,-60.793 187.387,-67.7482"/>
</g>
<!-- Node3 -->
<g id="node3" class="node"><title>Node3</title>
<g id="a_node3"><a xlink:href="class_c_t_c_t_request.html#aad92e5787f6d3fdf00760d99505aa6db" target="_top" xlink:title="CTCTRequest\\makeRequest">
<polygon fill="white" stroke="black" points="175.808,-22 175.808,-42 320.192,-42 320.192,-22 175.808,-22"/>
<text text-anchor="middle" x="248" y="-28" font-family="Helvetica,sans-Serif" font-size="10.00">CTCTRequest\makeRequest</text>
</a>
</g>
</g>
<!-- Node1&#45;&gt;Node3 -->
<g id="edge2" class="edge"><title>Node1&#45;&gt;Node3</title>
<path fill="none" stroke="midnightblue" d="M140.055,-43.5452C148.43,-42.6411 157.046,-41.711 165.579,-40.7898"/>
<polygon fill="midnightblue" stroke="midnightblue" points="165.971,-44.2678 175.538,-39.7147 165.22,-37.3083 165.971,-44.2678"/>
</g>
<!-- Node4 -->
<g id="node4" class="node"><title>Node4</title>
<g id="a_node4"><a xlink:href="class_o_auth_request.html#afe9d0f6cb8e0dadb1c0faeea9ecafe45" target="_top" xlink:title="pretty much a helper function to set up the request ">
<polygon fill="white" stroke="black" points="356.079,-39 356.079,-71 509.921,-71 509.921,-39 356.079,-39"/>
<text text-anchor="start" x="364.079" y="-57" font-family="Helvetica,sans-Serif" font-size="10.00">OAuthRequest\from_consumer</text>
<text text-anchor="middle" x="433" y="-45" font-family="Helvetica,sans-Serif" font-size="10.00">_and_token</text>
</a>
</g>
</g>
<!-- Node3&#45;&gt;Node4 -->
<g id="edge3" class="edge"><title>Node3&#45;&gt;Node4</title>
<path fill="none" stroke="midnightblue" d="M320.277,-40.9583C328.716,-42.019 337.397,-43.11 346.013,-44.1929"/>
<polygon fill="midnightblue" stroke="midnightblue" points="345.72,-47.6835 356.079,-45.458 346.593,-40.7382 345.72,-47.6835"/>
</g>
<!-- Node7 -->
<g id="node7" class="node"><title>Node7</title>
<g id="a_node7"><a xlink:href="class_c_t_c_t_exception.html#adc8307ec7d7a2c730b0dac678d0e7fcb" target="_top" xlink:title="CTCTException\\generateError">
<polygon fill="white" stroke="black" points="357.473,-0 357.473,-20 508.527,-20 508.527,-0 357.473,-0"/>
<text text-anchor="middle" x="433" y="-6" font-family="Helvetica,sans-Serif" font-size="10.00">CTCTException\generateError</text>
</a>
</g>
</g>
<!-- Node3&#45;&gt;Node7 -->
<g id="edge6" class="edge"><title>Node3&#45;&gt;Node7</title>
<path fill="none" stroke="midnightblue" d="M320.277,-23.4312C329.099,-22.3706 338.186,-21.2781 347.187,-20.1961"/>
<polygon fill="midnightblue" stroke="midnightblue" points="347.782,-23.6499 357.293,-18.9812 346.946,-16.6999 347.782,-23.6499"/>
</g>
<!-- Node5 -->
<g id="node5" class="node"><title>Node5</title>
<g id="a_node5"><a xlink:href="class_o_auth_request.html#ae544b1c10b82d5a82dcc259064763420" target="_top" xlink:title="util function: current nonce ">
<polygon fill="white" stroke="black" points="547.074,-90 547.074,-122 670.926,-122 670.926,-90 547.074,-90"/>
<text text-anchor="start" x="555.074" y="-108" font-family="Helvetica,sans-Serif" font-size="10.00">OAuthRequest\generate</text>
<text text-anchor="middle" x="609" y="-96" font-family="Helvetica,sans-Serif" font-size="10.00">_nonce</text>
</a>
</g>
</g>
<!-- Node4&#45;&gt;Node5 -->
<g id="edge4" class="edge"><title>Node4&#45;&gt;Node5</title>
<path fill="none" stroke="midnightblue" d="M489.055,-71.1367C506.36,-76.209 525.624,-81.8552 543.522,-87.1012"/>
<polygon fill="midnightblue" stroke="midnightblue" points="542.723,-90.5142 553.303,-89.9683 544.692,-83.7968 542.723,-90.5142"/>
</g>
<!-- Node6 -->
<g id="node6" class="node"><title>Node6</title>
<g id="a_node6"><a xlink:href="class_o_auth_request.html#adfc6b936799f705d9a4442961a26e8cb" target="_top" xlink:title="util function: current timestamp ">
<polygon fill="white" stroke="black" points="547.074,-39 547.074,-71 670.926,-71 670.926,-39 547.074,-39"/>
<text text-anchor="start" x="555.074" y="-57" font-family="Helvetica,sans-Serif" font-size="10.00">OAuthRequest\generate</text>
<text text-anchor="middle" x="609" y="-45" font-family="Helvetica,sans-Serif" font-size="10.00">_timestamp</text>
</a>
</g>
</g>
<!-- Node4&#45;&gt;Node6 -->
<g id="edge5" class="edge"><title>Node4&#45;&gt;Node6</title>
<path fill="none" stroke="midnightblue" d="M510.066,-55C518.939,-55 527.966,-55 536.771,-55"/>
<polygon fill="midnightblue" stroke="midnightblue" points="536.981,-58.5001 546.981,-55 536.981,-51.5001 536.981,-58.5001"/>
</g>
<!-- Node8 -->
<g id="node8" class="node"><title>Node8</title>
<g id="a_node8"><a xlink:href="class_c_t_c_t_exception.html#a6a86531406328bbd2a6c6252b7fb3a70" target="_top" xlink:title="CTCTException\\logError">
<polygon fill="white" stroke="black" points="546.54,-0 546.54,-20 671.46,-20 671.46,-0 546.54,-0"/>
<text text-anchor="middle" x="609" y="-6" font-family="Helvetica,sans-Serif" font-size="10.00">CTCTException\logError</text>
</a>
</g>
</g>
<!-- Node7&#45;&gt;Node8 -->
<g id="edge7" class="edge"><title>Node7&#45;&gt;Node8</title>
<path fill="none" stroke="midnightblue" d="M508.549,-10C517.73,-10 527.101,-10 536.239,-10"/>
<polygon fill="midnightblue" stroke="midnightblue" points="536.437,-13.5001 546.437,-10 536.436,-6.5001 536.437,-13.5001"/>
</g>
</g>
</svg>
