<?xml version="1.0" encoding="UTF-8" standalone="no"?>
<!DOCTYPE svg PUBLIC "-//W3C//DTD SVG 1.1//EN"
 "http://www.w3.org/Graphics/SVG/1.1/DTD/svg11.dtd">
<!-- Generated by graphviz version 2.30.1 (20130221.2233)
 -->
<!-- Title: Ctct\Services\ContactTrackingService\getSummary Pages: 1 -->
<svg width="328pt" height="130pt"
 viewBox="0.00 0.00 328.00 130.00" xmlns="http://www.w3.org/2000/svg" xmlns:xlink="http://www.w3.org/1999/xlink">
<g id="graph0" class="graph" transform="scale(1 1) rotate(0) translate(4 126)">
<title>Ctct\Services\ContactTrackingService\getSummary</title>
<polygon fill="white" stroke="white" points="-4,5 -4,-126 325,-126 325,5 -4,5"/>
<!-- Node1 -->
<g id="node1" class="node"><title>Node1</title>
<polygon fill="#bfbfbf" stroke="black" points="-0.0605469,-39 -0.0605469,-71 150.061,-71 150.061,-39 -0.0605469,-39"/>
<text text-anchor="start" x="7.93945" y="-57" font-family="Helvetica,sans-Serif" font-size="10.00">Ctct\Services\ContactTracking</text>
<text text-anchor="middle" x="75" y="-45" font-family="Helvetica,sans-Serif" font-size="10.00">Service\getSummary</text>
</g>
<!-- Node2 -->
<g id="node2" class="node"><title>Node2</title>
<g id="a_node2"><a xlink:href="class_ctct_1_1_services_1_1_base_service.html#a5c4ae0795fcc06c137b6e761963c4df6" target="_top" xlink:title="Build a url from the base url and query parameters array. ">
<polygon fill="white" stroke="black" points="186.091,-90 186.091,-122 319.909,-122 319.909,-90 186.091,-90"/>
<text text-anchor="start" x="194.091" y="-108" font-family="Helvetica,sans-Serif" font-size="10.00">Ctct\Services\BaseService</text>
<text text-anchor="middle" x="253" y="-96" font-family="Helvetica,sans-Serif" font-size="10.00">\buildUrl</text>
</a>
</g>
</g>
<!-- Node1&#45;&gt;Node2 -->
<g id="edge1" class="edge"><title>Node1&#45;&gt;Node2</title>
<path fill="none" stroke="midnightblue" d="M131.688,-71.1367C149.273,-76.2325 168.857,-81.9075 187.032,-87.174"/>
<polygon fill="midnightblue" stroke="midnightblue" points="186.096,-90.5467 196.675,-89.9683 188.044,-83.8232 186.096,-90.5467"/>
</g>
<!-- Node3 -->
<g id="node3" class="node"><title>Node3</title>
<g id="a_node3"><a xlink:href="class_ctct_1_1_components_1_1_tracking_1_1_tracking_summary.html#a2559d62ef3c0e3a457df0c50043311d4" target="_top" xlink:title="Factory method to create a TrackingSummary object from an array. ">
<polygon fill="white" stroke="black" points="185.994,-39 185.994,-71 320.006,-71 320.006,-39 185.994,-39"/>
<text text-anchor="start" x="193.994" y="-57" font-family="Helvetica,sans-Serif" font-size="10.00">Ctct\Components\Tracking</text>
<text text-anchor="middle" x="253" y="-45" font-family="Helvetica,sans-Serif" font-size="10.00">\TrackingSummary\create</text>
</a>
</g>
</g>
<!-- Node1&#45;&gt;Node3 -->
<g id="edge2" class="edge"><title>Node1&#45;&gt;Node3</title>
<path fill="none" stroke="midnightblue" d="M150.13,-55C158.545,-55 167.134,-55 175.578,-55"/>
<polygon fill="midnightblue" stroke="midnightblue" points="175.785,-58.5001 185.785,-55 175.785,-51.5001 175.785,-58.5001"/>
</g>
<!-- Node4 -->
<g id="node4" class="node"><title>Node4</title>
<g id="a_node4"><a xlink:href="class_ctct_1_1_util_1_1_config.html#ab224fae1ce1a1993c1ac42c708dc7de9" target="_top" xlink:title="Get a configuration property given a specified location, example usage: Config::get(&#39;auth.token_endpoint&#39;) ">
<polygon fill="white" stroke="black" points="203.318,-0 203.318,-20 302.682,-20 302.682,-0 203.318,-0"/>
<text text-anchor="middle" x="253" y="-6" font-family="Helvetica,sans-Serif" font-size="10.00">Ctct\Util\Config\get</text>
</a>
</g>
</g>
<!-- Node1&#45;&gt;Node4 -->
<g id="edge3" class="edge"><title>Node1&#45;&gt;Node4</title>
<path fill="none" stroke="midnightblue" d="M139.043,-38.8811C160.053,-33.5091 183.133,-27.608 202.924,-22.548"/>
<polygon fill="midnightblue" stroke="midnightblue" points="203.826,-25.93 212.647,-20.0619 202.091,-19.1482 203.826,-25.93"/>
</g>
</g>
</svg>
