<?xml version="1.0" encoding="UTF-8" standalone="no"?>
<!DOCTYPE svg PUBLIC "-//W3C//DTD SVG 1.1//EN"
 "http://www.w3.org/Graphics/SVG/1.1/DTD/svg11.dtd">
<!-- Generated by graphviz version 2.30.1 (20130221.2233)
 -->
<!-- Title: Net_DNS\classesbyname Pages: 1 -->
<!--zoomable 220 -->
<svg id="main" version="1.1" xmlns="http://www.w3.org/2000/svg" xmlns:xlink="http://www.w3.org/1999/xlink" xml:space="preserve" onload="init(evt)">
<style type="text/css"><![CDATA[
.edge:hover path { stroke: red; }
.edge:hover polygon { stroke: red; fill: red; }
]]></style>
<script type="text/javascript"><![CDATA[
var edges = document.getElementsByTagName('g');
if (edges && edges.length) {
  for (var i=0;i<edges.length;i++) {
    if (edges[i].id.substr(0,4)=='edge') {
      edges[i].setAttribute('class','edge');
    }
  }
}
]]></script>
        <defs>
                <circle id="rim" cx="0" cy="0" r="7"/>
                <circle id="rim2" cx="0" cy="0" r="3.5"/>
                <g id="zoomPlus">
                        <use xlink:href="#rim" fill="#404040">
                                <set attributeName="fill" to="#808080" begin="zoomplus.mouseover" end="zoomplus.mouseout"/>
                        </use>
                        <path d="M-4,0h8M0,-4v8" fill="none" stroke="white" stroke-width="1.5" pointer-events="none"/>
                </g>
                <g id="zoomMin">
                        <use xlink:href="#rim" fill="#404040">
                                <set attributeName="fill" to="#808080" begin="zoomminus.mouseover" end="zoomminus.mouseout"/>
                        </use>
                        <path d="M-4,0h8" fill="none" stroke="white" stroke-width="1.5" pointer-events="none"/>
                </g>
                <g id="dirArrow">
                        <path fill="none" stroke="white" stroke-width="1.5" d="M0,-3.0v7 M-2.5,-0.5L0,-3.0L2.5,-0.5"/>
                </g>
               <g id="resetDef">
                       <use xlink:href="#rim2" fill="#404040">
                               <set attributeName="fill" to="#808080" begin="reset.mouseover" end="reset.mouseout"/>
                       </use>
               </g>
        </defs>

<script type="text/javascript">
var viewWidth = 776;
var viewHeight = 220;
var sectionId = 'dynsection-0';
</script>
<script xlink:href="svgpan.js"/>
<svg id="graph" class="graph">
<g id="viewport">
<title>Net_DNS\classesbyname</title>
<polygon fill="white" stroke="white" points="-4,5 -4,-216 773,-216 773,5 -4,5"/>
<!-- Node1 -->
<g id="node1" class="node"><title>Node1</title>
<polygon fill="#bfbfbf" stroke="black" points="0.0322266,-108 0.0322266,-128 129.968,-128 129.968,-108 0.0322266,-108"/>
<text text-anchor="middle" x="65" y="-114" font-family="Helvetica,sans-Serif" font-size="10.00">Net_DNS\classesbyname</text>
</g>
<!-- Node2 -->
<g id="node2" class="node"><title>Node2</title>
<g id="a_node2"><a xlink:href="class_net___d_n_s___question.html#af2289a48d2fc52b5619ae769a38860c5" target="_top" xlink:title="Net_DNS_Question\\data">
<polygon fill="white" stroke="black" points="165.968,-192 165.968,-212 292.032,-212 292.032,-192 165.968,-192"/>
<text text-anchor="middle" x="229" y="-198" font-family="Helvetica,sans-Serif" font-size="10.00">Net_DNS_Question\data</text>
</a>
</g>
</g>
<!-- Node1&#45;&gt;Node2 -->
<g id="edge1" class="edge"><title>Node1&#45;&gt;Node2</title>
<path fill="none" stroke="midnightblue" d="M87.4962,-134.075C107.134,-148.185 137.384,-168.505 166,-182 173.979,-185.763 182.852,-189.09 191.332,-191.896"/>
<polygon fill="midnightblue" stroke="midnightblue" points="89.4074,-131.137 79.2643,-128.077 85.2848,-136.795 89.4074,-131.137"/>
</g>
<!-- Node3 -->
<g id="node3" class="node"><title>Node3</title>
<g id="a_node3"><a xlink:href="class_net___d_n_s___r_r.html#a2ba8db7475430522d54c3eff8f4f54b4" target="_top" xlink:title="Net_DNS_RR\\data">
<polygon fill="white" stroke="black" points="178.759,-153 178.759,-173 279.241,-173 279.241,-153 178.759,-153"/>
<text text-anchor="middle" x="229" y="-159" font-family="Helvetica,sans-Serif" font-size="10.00">Net_DNS_RR\data</text>
</a>
</g>
</g>
<!-- Node1&#45;&gt;Node3 -->
<g id="edge2" class="edge"><title>Node1&#45;&gt;Node3</title>
<path fill="none" stroke="midnightblue" d="M112.093,-130.803C137.362,-137.823 168.237,-146.399 191.765,-152.935"/>
<polygon fill="midnightblue" stroke="midnightblue" points="112.928,-127.403 102.356,-128.099 111.054,-134.148 112.928,-127.403"/>
</g>
<!-- Node4 -->
<g id="node4" class="node"><title>Node4</title>
<g id="a_node4"><a xlink:href="class_net___d_n_s___question.html#a99a2a39439701505659336cfa10cfc25" target="_top" xlink:title="Net_DNS_Question\\Net\l_DNS_Question">
<polygon fill="white" stroke="black" points="167.919,-102 167.919,-134 290.081,-134 290.081,-102 167.919,-102"/>
<text text-anchor="start" x="175.919" y="-120" font-family="Helvetica,sans-Serif" font-size="10.00">Net_DNS_Question\Net</text>
<text text-anchor="middle" x="229" y="-108" font-family="Helvetica,sans-Serif" font-size="10.00">_DNS_Question</text>
</a>
</g>
</g>
<!-- Node1&#45;&gt;Node4 -->
<g id="edge3" class="edge"><title>Node1&#45;&gt;Node4</title>
<path fill="none" stroke="midnightblue" d="M140.059,-118C149.371,-118 158.807,-118 167.868,-118"/>
<polygon fill="midnightblue" stroke="midnightblue" points="140.027,-114.5 130.027,-118 140.027,-121.5 140.027,-114.5"/>
</g>
<!-- Node5 -->
<g id="node5" class="node"><title>Node5</title>
<g id="a_node5"><a xlink:href="class_net___d_n_s___r_r.html#a1654146cab0e22d9bae1dae01d42f9fd" target="_top" xlink:title="Net_DNS_RR\\new_from\l_string">
<polygon fill="white" stroke="black" points="166.537,-51 166.537,-83 291.463,-83 291.463,-51 166.537,-51"/>
<text text-anchor="start" x="174.537" y="-69" font-family="Helvetica,sans-Serif" font-size="10.00">Net_DNS_RR\new_from</text>
<text text-anchor="middle" x="229" y="-57" font-family="Helvetica,sans-Serif" font-size="10.00">_string</text>
</a>
</g>
</g>
<!-- Node1&#45;&gt;Node5 -->
<g id="edge4" class="edge"><title>Node1&#45;&gt;Node5</title>
<path fill="none" stroke="midnightblue" d="M107.655,-104.887C128.778,-98.2365 154.617,-90.1021 176.93,-83.0777"/>
<polygon fill="midnightblue" stroke="midnightblue" points="106.493,-101.583 98.006,-107.924 108.596,-108.26 106.493,-101.583"/>
</g>
<!-- Node9 -->
<g id="node9" class="node"><title>Node9</title>
<g id="a_node9"><a xlink:href="class_net___d_n_s___r_r___t_s_i_g.html#a34aa917d71dd9b645ecf8d4abb104a25" target="_top" xlink:title="Net_DNS_RR_TSIG\\rr\l_rdata">
<polygon fill="white" stroke="black" points="170.712,-0 170.712,-32 287.288,-32 287.288,-0 170.712,-0"/>
<text text-anchor="start" x="178.712" y="-18" font-family="Helvetica,sans-Serif" font-size="10.00">Net_DNS_RR_TSIG\rr</text>
<text text-anchor="middle" x="229" y="-6" font-family="Helvetica,sans-Serif" font-size="10.00">_rdata</text>
</a>
</g>
</g>
<!-- Node1&#45;&gt;Node9 -->
<g id="edge8" class="edge"><title>Node1&#45;&gt;Node9</title>
<path fill="none" stroke="midnightblue" d="M85.1075,-101.128C104.507,-84.5817 135.894,-59.3768 166,-42 172.166,-38.4408 178.914,-35.1015 185.617,-32.0795"/>
<polygon fill="midnightblue" stroke="midnightblue" points="82.6045,-98.6649 77.3258,-107.851 87.181,-103.962 82.6045,-98.6649"/>
</g>
<!-- Node6 -->
<g id="node6" class="node"><title>Node6</title>
<g id="a_node6"><a xlink:href="class_net___d_n_s___r_r.html#a135785ee6a8c1f0a5e0597d7f61465b5" target="_top" xlink:title="Net_DNS_RR\\factory">
<polygon fill="white" stroke="black" points="328.485,-57 328.485,-77 439.515,-77 439.515,-57 328.485,-57"/>
<text text-anchor="middle" x="384" y="-63" font-family="Helvetica,sans-Serif" font-size="10.00">Net_DNS_RR\factory</text>
</a>
</g>
</g>
<!-- Node5&#45;&gt;Node6 -->
<g id="edge5" class="edge"><title>Node5&#45;&gt;Node6</title>
<path fill="none" stroke="midnightblue" d="M301.811,-67C310.743,-67 319.76,-67 328.373,-67"/>
<polygon fill="midnightblue" stroke="midnightblue" points="301.79,-63.5001 291.79,-67 301.79,-70.5001 301.79,-63.5001"/>
</g>
<!-- Node7 -->
<g id="node7" class="node"><title>Node7</title>
<g id="a_node7"><a xlink:href="class_net___d_n_s___packet.html#a8684f7ece05b01f65ec45160cca1852d" target="_top" xlink:title="Parses a resource record section of a packet. ">
<polygon fill="white" stroke="black" points="475.808,-57 475.808,-77 610.192,-77 610.192,-57 475.808,-57"/>
<text text-anchor="middle" x="543" y="-63" font-family="Helvetica,sans-Serif" font-size="10.00">Net_DNS_Packet\parse_rr</text>
</a>
</g>
</g>
<!-- Node6&#45;&gt;Node7 -->
<g id="edge6" class="edge"><title>Node6&#45;&gt;Node7</title>
<path fill="none" stroke="midnightblue" d="M450.118,-67C458.596,-67 467.288,-67 475.784,-67"/>
<polygon fill="midnightblue" stroke="midnightblue" points="449.911,-63.5001 439.911,-67 449.911,-70.5001 449.911,-63.5001"/>
</g>
<!-- Node8 -->
<g id="node8" class="node"><title>Node8</title>
<g id="a_node8"><a xlink:href="class_net___d_n_s___packet.html#a108461c26b058bf6aed5e4bcae9da3e6" target="_top" xlink:title="Parses a DNS packet returned by a DNS server. ">
<polygon fill="white" stroke="black" points="645.919,-57 645.919,-77 768.081,-77 768.081,-57 645.919,-57"/>
<text text-anchor="middle" x="707" y="-63" font-family="Helvetica,sans-Serif" font-size="10.00">Net_DNS_Packet\parse</text>
</a>
</g>
</g>
<!-- Node7&#45;&gt;Node8 -->
<g id="edge7" class="edge"><title>Node7&#45;&gt;Node8</title>
<path fill="none" stroke="midnightblue" d="M620.594,-67C629.031,-67 637.532,-67 645.729,-67"/>
<polygon fill="midnightblue" stroke="midnightblue" points="620.359,-63.5001 610.359,-67 620.359,-70.5001 620.359,-63.5001"/>
</g>
</g>
</svg>
        <g id="navigator" transform="translate(0 0)" fill="#404254">
                <rect fill="#f2f5e9" fill-opacity="0.5" stroke="#606060" stroke-width=".5" x="0" y="0" width="60" height="60"/>
                <use id="zoomplus" xlink:href="#zoomPlus" x="17" y="9" onmousedown="handleZoom(evt,'in')"/>
                <use id="zoomminus" xlink:href="#zoomMin" x="42" y="9" onmousedown="handleZoom(evt,'out')"/>
                <use id="reset" xlink:href="#resetDef" x="30" y="36" onmousedown="handleReset()"/>
                <g id="arrowUp" xlink:href="#dirArrow" transform="translate(30 24)" onmousedown="handlePan(0,-1)">
                  <use xlink:href="#rim" fill="#404040">
                        <set attributeName="fill" to="#808080" begin="arrowUp.mouseover" end="arrowUp.mouseout"/>
                  </use>
                  <path fill="none" stroke="white" stroke-width="1.5" d="M0,-3.0v7 M-2.5,-0.5L0,-3.0L2.5,-0.5"/>
                </g>
                <g id="arrowRight" xlink:href="#dirArrow" transform="rotate(90) translate(36 -43)" onmousedown="handlePan(1,0)">
                  <use xlink:href="#rim" fill="#404040">
                        <set attributeName="fill" to="#808080" begin="arrowRight.mouseover" end="arrowRight.mouseout"/>
                  </use>
                  <path fill="none" stroke="white" stroke-width="1.5" d="M0,-3.0v7 M-2.5,-0.5L0,-3.0L2.5,-0.5"/>
                </g>
                <g id="arrowDown" xlink:href="#dirArrow" transform="rotate(180) translate(-30 -48)" onmousedown="handlePan(0,1)">
                  <use xlink:href="#rim" fill="#404040">
                        <set attributeName="fill" to="#808080" begin="arrowDown.mouseover" end="arrowDown.mouseout"/>
                  </use>
                  <path fill="none" stroke="white" stroke-width="1.5" d="M0,-3.0v7 M-2.5,-0.5L0,-3.0L2.5,-0.5"/>
                </g>
                <g id="arrowLeft" xlink:href="#dirArrow" transform="rotate(270) translate(-36 17)" onmousedown="handlePan(-1,0)">
                  <use xlink:href="#rim" fill="#404040">
                        <set attributeName="fill" to="#808080" begin="arrowLeft.mouseover" end="arrowLeft.mouseout"/>
                  </use>
                  <path fill="none" stroke="white" stroke-width="1.5" d="M0,-3.0v7 M-2.5,-0.5L0,-3.0L2.5,-0.5"/>
                </g>
        </g>
        <svg viewBox="0 0 15 15" width="100%" height="30px" preserveAspectRatio="xMaxYMin meet">
         <g id="arrow_out" transform="scale(0.3 0.3)">
          <a xlink:href="class_net___d_n_s_a1e086e94cfa4b747b481b1e5859a1caf_icgraph_org.svg" target="_base">
           <rect id="button" ry="5" rx="5" y="6" x="6" height="38" width="38"
                fill="#f2f5e9" fill-opacity="0.5" stroke="#606060" stroke-width="1.0"/>
           <path id="arrow"
             d="M 11.500037,31.436501 C 11.940474,20.09759 22.043105,11.32322 32.158766,21.979434 L 37.068811,17.246167 C 37.068811,17.246167 37.088388,32 37.088388,32 L 22.160133,31.978069 C 22.160133,31.978069 26.997745,27.140456 26.997745,27.140456 C 18.528582,18.264221 13.291696,25.230495 11.500037,31.436501 z"
             style="fill:#404040;"/>
          </a>
         </g>
        </svg>
</svg>
