<?xml version="1.0" encoding="UTF-8" standalone="no"?>
<!DOCTYPE svg PUBLIC "-//W3C//DTD SVG 1.1//EN"
 "http://www.w3.org/Graphics/SVG/1.1/DTD/svg11.dtd">
<!-- Generated by graphviz version 2.30.1 (20130221.2233)
 -->
<!-- Title: OAuthSignatureMethod_RSA_SHA1\fetch_private_cert Pages: 1 -->
<svg width="344pt" height="40pt"
 viewBox="0.00 0.00 344.00 40.00" xmlns="http://www.w3.org/2000/svg" xmlns:xlink="http://www.w3.org/1999/xlink">
<g id="graph0" class="graph" transform="scale(1 1) rotate(0) translate(4 36)">
<title>OAuthSignatureMethod_RSA_SHA1\fetch_private_cert</title>
<polygon fill="white" stroke="white" points="-4,5 -4,-36 341,-36 341,5 -4,5"/>
<!-- Node1 -->
<g id="node1" class="node"><title>Node1</title>
<polygon fill="#bfbfbf" stroke="black" points="-0.0366211,-0 -0.0366211,-32 156.037,-32 156.037,-0 -0.0366211,-0"/>
<text text-anchor="start" x="7.96338" y="-18" font-family="Helvetica,sans-Serif" font-size="10.00">OAuthSignatureMethod</text>
<text text-anchor="middle" x="78" y="-6" font-family="Helvetica,sans-Serif" font-size="10.00">_RSA_SHA1\fetch_private_cert</text>
</g>
<!-- Node2 -->
<g id="node2" class="node"><title>Node2</title>
<g id="a_node2"><a xlink:href="class_o_auth_signature_method___r_s_a___s_h_a1.html#a742734dce97f4ec149bdfe4fbfaa2afb" target="_top" xlink:title="OAuthSignatureMethod\l_RSA_SHA1\\build_signature">
<polygon fill="white" stroke="black" points="191.793,-0 191.793,-32 336.207,-32 336.207,-0 191.793,-0"/>
<text text-anchor="start" x="199.793" y="-18" font-family="Helvetica,sans-Serif" font-size="10.00">OAuthSignatureMethod</text>
<text text-anchor="middle" x="264" y="-6" font-family="Helvetica,sans-Serif" font-size="10.00">_RSA_SHA1\build_signature</text>
</a>
</g>
</g>
<!-- Node1&#45;&gt;Node2 -->
<g id="edge1" class="edge"><title>Node1&#45;&gt;Node2</title>
<path fill="none" stroke="midnightblue" d="M166.445,-16C174.853,-16 183.312,-16 191.54,-16"/>
<polygon fill="midnightblue" stroke="midnightblue" points="166.233,-12.5001 156.233,-16 166.233,-19.5001 166.233,-12.5001"/>
</g>
</g>
</svg>
