<?xml version="1.0" encoding="UTF-8" standalone="no"?>
<!DOCTYPE svg PUBLIC "-//W3C//DTD SVG 1.1//EN"
 "http://www.w3.org/Graphics/SVG/1.1/DTD/svg11.dtd">
<!-- Generated by graphviz version 2.30.1 (20130221.2233)
 -->
<!-- Title: ContactsCollection\getContacts Pages: 1 -->
<svg width="296pt" height="40pt"
 viewBox="0.00 0.00 296.00 40.00" xmlns="http://www.w3.org/2000/svg" xmlns:xlink="http://www.w3.org/1999/xlink">
<g id="graph0" class="graph" transform="scale(1 1) rotate(0) translate(4 36)">
<title>ContactsCollection\getContacts</title>
<polygon fill="white" stroke="white" points="-4,5 -4,-36 293,-36 293,5 -4,5"/>
<!-- Node1 -->
<g id="node1" class="node"><title>Node1</title>
<polygon fill="#bfbfbf" stroke="black" points="0.312988,-0 0.312988,-32 99.687,-32 99.687,-0 0.312988,-0"/>
<text text-anchor="start" x="8.31299" y="-18" font-family="Helvetica,sans-Serif" font-size="10.00">ContactsCollection</text>
<text text-anchor="middle" x="50" y="-6" font-family="Helvetica,sans-Serif" font-size="10.00">\getContacts</text>
</g>
<!-- Node2 -->
<g id="node2" class="node"><title>Node2</title>
<g id="a_node2"><a xlink:href="class_contacts_collection.html#a5b3e93e3981dcec723292446f678f053" target="_top" xlink:title="Search for contacts that have been updated since a specific date. ">
<polygon fill="white" stroke="black" points="136.463,-0 136.463,-32 287.537,-32 287.537,-0 136.463,-0"/>
<text text-anchor="start" x="144.463" y="-18" font-family="Helvetica,sans-Serif" font-size="10.00">ContactsCollection</text>
<text text-anchor="middle" x="212" y="-6" font-family="Helvetica,sans-Serif" font-size="10.00">\searchContactsByLastUpdate</text>
</a>
</g>
</g>
<!-- Node1&#45;&gt;Node2 -->
<g id="edge1" class="edge"><title>Node1&#45;&gt;Node2</title>
<path fill="none" stroke="midnightblue" d="M110.062,-16C118.576,-16 127.43,-16 136.201,-16"/>
<polygon fill="midnightblue" stroke="midnightblue" points="109.875,-12.5001 99.8747,-16 109.875,-19.5001 109.875,-12.5001"/>
</g>
</g>
</svg>
