<?xml version="1.0" encoding="UTF-8" standalone="no"?>
<!DOCTYPE svg PUBLIC "-//W3C//DTD SVG 1.1//EN"
 "http://www.w3.org/Graphics/SVG/1.1/DTD/svg11.dtd">
<!-- Generated by graphviz version 2.30.1 (20130221.2233)
 -->
<!-- Title: Net_DNS\typesbyval Pages: 1 -->
<svg width="444pt" height="79pt"
 viewBox="0.00 0.00 444.00 79.00" xmlns="http://www.w3.org/2000/svg" xmlns:xlink="http://www.w3.org/1999/xlink">
<g id="graph0" class="graph" transform="scale(1 1) rotate(0) translate(4 75)">
<title>Net_DNS\typesbyval</title>
<polygon fill="white" stroke="white" points="-4,5 -4,-75 441,-75 441,5 -4,5"/>
<!-- Node1 -->
<g id="node1" class="node"><title>Node1</title>
<polygon fill="#bfbfbf" stroke="black" points="-0.130371,-22 -0.130371,-42 108.13,-42 108.13,-22 -0.130371,-22"/>
<text text-anchor="middle" x="54" y="-28" font-family="Helvetica,sans-Serif" font-size="10.00">Net_DNS\typesbyval</text>
</g>
<!-- Node2 -->
<g id="node2" class="node"><title>Node2</title>
<g id="a_node2"><a xlink:href="class_net___d_n_s___packet.html#a91c880534c4ed4f43098627b5c829ef2" target="_top" xlink:title="Parses the question section of a packet. ">
<polygon fill="white" stroke="black" points="149.919,-39 149.919,-71 272.081,-71 272.081,-39 149.919,-39"/>
<text text-anchor="start" x="157.919" y="-57" font-family="Helvetica,sans-Serif" font-size="10.00">Net_DNS_Packet\parse</text>
<text text-anchor="middle" x="211" y="-45" font-family="Helvetica,sans-Serif" font-size="10.00">_question</text>
</a>
</g>
</g>
<!-- Node1&#45;&gt;Node2 -->
<g id="edge1" class="edge"><title>Node1&#45;&gt;Node2</title>
<path fill="none" stroke="midnightblue" d="M118.239,-41.3839C128.704,-42.9367 139.528,-44.5428 149.912,-46.0837"/>
<polygon fill="midnightblue" stroke="midnightblue" points="118.748,-37.9211 108.342,-39.9153 117.72,-44.8453 118.748,-37.9211"/>
</g>
<!-- Node4 -->
<g id="node4" class="node"><title>Node4</title>
<g id="a_node4"><a xlink:href="class_net___d_n_s___packet.html#a8684f7ece05b01f65ec45160cca1852d" target="_top" xlink:title="Parses a resource record section of a packet. ">
<polygon fill="white" stroke="black" points="143.808,-0 143.808,-20 278.192,-20 278.192,-0 143.808,-0"/>
<text text-anchor="middle" x="211" y="-6" font-family="Helvetica,sans-Serif" font-size="10.00">Net_DNS_Packet\parse_rr</text>
</a>
</g>
</g>
<!-- Node1&#45;&gt;Node4 -->
<g id="edge3" class="edge"><title>Node1&#45;&gt;Node4</title>
<path fill="none" stroke="midnightblue" d="M118.381,-23.004C126.725,-21.8197 135.295,-20.6033 143.686,-19.4122"/>
<polygon fill="midnightblue" stroke="midnightblue" points="117.751,-19.5582 108.342,-24.4288 118.735,-26.4888 117.751,-19.5582"/>
</g>
<!-- Node3 -->
<g id="node3" class="node"><title>Node3</title>
<g id="a_node3"><a xlink:href="class_net___d_n_s___packet.html#a108461c26b058bf6aed5e4bcae9da3e6" target="_top" xlink:title="Parses a DNS packet returned by a DNS server. ">
<polygon fill="white" stroke="black" points="313.919,-22 313.919,-42 436.081,-42 436.081,-22 313.919,-22"/>
<text text-anchor="middle" x="375" y="-28" font-family="Helvetica,sans-Serif" font-size="10.00">Net_DNS_Packet\parse</text>
</a>
</g>
</g>
<!-- Node2&#45;&gt;Node3 -->
<g id="edge2" class="edge"><title>Node2&#45;&gt;Node3</title>
<path fill="none" stroke="midnightblue" d="M282.315,-45.017C292.84,-43.5228 303.609,-41.9937 313.897,-40.5332"/>
<polygon fill="midnightblue" stroke="midnightblue" points="281.732,-41.5647 272.323,-46.4356 282.716,-48.4952 281.732,-41.5647"/>
</g>
<!-- Node4&#45;&gt;Node3 -->
<g id="edge4" class="edge"><title>Node4&#45;&gt;Node3</title>
<path fill="none" stroke="midnightblue" d="M288.316,-20.3639C296.844,-21.522 305.442,-22.6896 313.729,-23.8151"/>
<polygon fill="midnightblue" stroke="midnightblue" points="288.739,-16.8893 278.359,-19.0117 287.797,-23.8256 288.739,-16.8893"/>
</g>
</g>
</svg>
