<?xml version="1.0" encoding="UTF-8" standalone="no"?>
<!DOCTYPE svg PUBLIC "-//W3C//DTD SVG 1.1//EN"
 "http://www.w3.org/Graphics/SVG/1.1/DTD/svg11.dtd">
<!-- Generated by graphviz version 2.30.1 (20130221.2233)
 -->
<!-- Title: Ctct\Components\EmailMarketing\Campaign\createSummary Pages: 1 -->
<svg width="358pt" height="40pt"
 viewBox="0.00 0.00 358.00 40.00" xmlns="http://www.w3.org/2000/svg" xmlns:xlink="http://www.w3.org/1999/xlink">
<g id="graph0" class="graph" transform="scale(1 1) rotate(0) translate(4 36)">
<title>Ctct\Components\EmailMarketing\Campaign\createSummary</title>
<polygon fill="white" stroke="white" points="-4,5 -4,-36 355,-36 355,5 -4,5"/>
<!-- Node1 -->
<g id="node1" class="node"><title>Node1</title>
<polygon fill="#bfbfbf" stroke="black" points="0.527344,-0 0.527344,-32 165.473,-32 165.473,-0 0.527344,-0"/>
<text text-anchor="start" x="8.52734" y="-18" font-family="Helvetica,sans-Serif" font-size="10.00">Ctct\Components\EmailMarketing</text>
<text text-anchor="middle" x="83" y="-6" font-family="Helvetica,sans-Serif" font-size="10.00">\Campaign\createSummary</text>
</g>
<!-- Node2 -->
<g id="node2" class="node"><title>Node2</title>
<g id="a_node2"><a xlink:href="class_ctct_1_1_services_1_1_email_marketing_service.html#a7beca984990d659a778ae2549d4f9790" target="_top" xlink:title="Get a set of campaigns. ">
<polygon fill="white" stroke="black" points="202.705,-0 202.705,-32 349.295,-32 349.295,-0 202.705,-0"/>
<text text-anchor="start" x="210.705" y="-18" font-family="Helvetica,sans-Serif" font-size="10.00">Ctct\Services\EmailMarketing</text>
<text text-anchor="middle" x="276" y="-6" font-family="Helvetica,sans-Serif" font-size="10.00">Service\getCampaigns</text>
</a>
</g>
</g>
<!-- Node1&#45;&gt;Node2 -->
<g id="edge1" class="edge"><title>Node1&#45;&gt;Node2</title>
<path fill="none" stroke="midnightblue" d="M175.673,-16C184.666,-16 193.704,-16 202.469,-16"/>
<polygon fill="midnightblue" stroke="midnightblue" points="175.555,-12.5001 165.555,-16 175.555,-19.5001 175.555,-12.5001"/>
</g>
</g>
</svg>
