<?xml version="1.0" encoding="UTF-8" standalone="no"?>
<!DOCTYPE svg PUBLIC "-//W3C//DTD SVG 1.1//EN"
 "http://www.w3.org/Graphics/SVG/1.1/DTD/svg11.dtd">
<!-- Generated by graphviz version 2.30.1 (20130221.2233)
 -->
<!-- Title: KWS_V1API\refreshCache Pages: 1 -->
<svg width="346pt" height="67pt"
 viewBox="0.00 0.00 346.00 67.00" xmlns="http://www.w3.org/2000/svg" xmlns:xlink="http://www.w3.org/1999/xlink">
<g id="graph0" class="graph" transform="scale(1 1) rotate(0) translate(4 63)">
<title>KWS_V1API\refreshCache</title>
<polygon fill="white" stroke="white" points="-4,5 -4,-63 343,-63 343,5 -4,5"/>
<!-- Node1 -->
<g id="node1" class="node"><title>Node1</title>
<polygon fill="#bfbfbf" stroke="black" points="0.251465,-19 0.251465,-39 135.749,-39 135.749,-19 0.251465,-19"/>
<text text-anchor="middle" x="68" y="-25" font-family="Helvetica,sans-Serif" font-size="10.00">KWS_V1API\refreshCache</text>
</g>
<!-- Node2 -->
<g id="node2" class="node"><title>Node2</title>
<g id="a_node2"><a xlink:href="class_k_w_s___v1_a_p_i.html#a9f3d3785dca1f1946bc9376661b16ac7" target="_top" xlink:title="Get all details for an event. ">
<polygon fill="white" stroke="black" points="182.247,-39 182.247,-59 327.753,-59 327.753,-39 182.247,-39"/>
<text text-anchor="middle" x="255" y="-45" font-family="Helvetica,sans-Serif" font-size="10.00">KWS_V1API\getEventDetails</text>
</a>
</g>
</g>
<!-- Node1&#45;&gt;Node2 -->
<g id="edge1" class="edge"><title>Node1&#45;&gt;Node2</title>
<path fill="none" stroke="midnightblue" d="M145.76,-37.2984C157.754,-38.595 170.112,-39.931 181.994,-41.2156"/>
<polygon fill="midnightblue" stroke="midnightblue" points="146.108,-33.8156 135.789,-36.2205 145.355,-40.7751 146.108,-33.8156"/>
</g>
<!-- Node3 -->
<g id="node3" class="node"><title>Node3</title>
<g id="a_node3"><a xlink:href="class_k_w_s___v1_a_p_i.html#a6ccc61af777b86a8873ec8a3e116c00e" target="_top" xlink:title="Get detailed information on a Registrant. ">
<polygon fill="white" stroke="black" points="172.244,-0 172.244,-20 337.756,-20 337.756,-0 172.244,-0"/>
<text text-anchor="middle" x="255" y="-6" font-family="Helvetica,sans-Serif" font-size="10.00">KWS_V1API\getRegistrantDetails</text>
</a>
</g>
</g>
<!-- Node1&#45;&gt;Node3 -->
<g id="edge2" class="edge"><title>Node1&#45;&gt;Node3</title>
<path fill="none" stroke="midnightblue" d="M145.869,-21.1053C154.546,-20.2142 163.412,-19.3036 172.149,-18.4063"/>
<polygon fill="midnightblue" stroke="midnightblue" points="145.379,-17.6371 135.789,-22.1406 146.095,-24.6005 145.379,-17.6371"/>
</g>
</g>
</svg>
