<?xml version="1.0" encoding="UTF-8" standalone="no"?>
<!DOCTYPE svg PUBLIC "-//W3C//DTD SVG 1.1//EN"
 "http://www.w3.org/Graphics/SVG/1.1/DTD/svg11.dtd">
<!-- Generated by graphviz version 2.30.1 (20130221.2233)
 -->
<!-- Title: LibraryCollection\deleteImagesFromFolder Pages: 1 -->
<svg width="662pt" height="130pt"
 viewBox="0.00 0.00 662.00 130.00" xmlns="http://www.w3.org/2000/svg" xmlns:xlink="http://www.w3.org/1999/xlink">
<g id="graph0" class="graph" transform="scale(1 1) rotate(0) translate(4 126)">
<title>LibraryCollection\deleteImagesFromFolder</title>
<polygon fill="white" stroke="white" points="-4,5 -4,-126 659,-126 659,5 -4,5"/>
<!-- Node1 -->
<g id="node1" class="node"><title>Node1</title>
<polygon fill="#bfbfbf" stroke="black" points="0.749023,-16 0.749023,-48 121.251,-48 121.251,-16 0.749023,-16"/>
<text text-anchor="start" x="8.74902" y="-34" font-family="Helvetica,sans-Serif" font-size="10.00">LibraryCollection\delete</text>
<text text-anchor="middle" x="61" y="-22" font-family="Helvetica,sans-Serif" font-size="10.00">ImagesFromFolder</text>
</g>
<!-- Node2 -->
<g id="node2" class="node"><title>Node2</title>
<g id="a_node2"><a xlink:href="class_c_t_c_t_request.html#aad92e5787f6d3fdf00760d99505aa6db" target="_top" xlink:title="CTCTRequest\\makeRequest">
<polygon fill="white" stroke="black" points="157.808,-22 157.808,-42 302.192,-42 302.192,-22 157.808,-22"/>
<text text-anchor="middle" x="230" y="-28" font-family="Helvetica,sans-Serif" font-size="10.00">CTCTRequest\makeRequest</text>
</a>
</g>
</g>
<!-- Node1&#45;&gt;Node2 -->
<g id="edge1" class="edge"><title>Node1&#45;&gt;Node2</title>
<path fill="none" stroke="midnightblue" d="M121.348,-32C129.771,-32 138.553,-32 147.308,-32"/>
<polygon fill="midnightblue" stroke="midnightblue" points="147.551,-35.5001 157.551,-32 147.551,-28.5001 147.551,-35.5001"/>
</g>
<!-- Node3 -->
<g id="node3" class="node"><title>Node3</title>
<g id="a_node3"><a xlink:href="class_o_auth_request.html#afe9d0f6cb8e0dadb1c0faeea9ecafe45" target="_top" xlink:title="pretty much a helper function to set up the request ">
<polygon fill="white" stroke="black" points="338.079,-39 338.079,-71 491.921,-71 491.921,-39 338.079,-39"/>
<text text-anchor="start" x="346.079" y="-57" font-family="Helvetica,sans-Serif" font-size="10.00">OAuthRequest\from_consumer</text>
<text text-anchor="middle" x="415" y="-45" font-family="Helvetica,sans-Serif" font-size="10.00">_and_token</text>
</a>
</g>
</g>
<!-- Node2&#45;&gt;Node3 -->
<g id="edge2" class="edge"><title>Node2&#45;&gt;Node3</title>
<path fill="none" stroke="midnightblue" d="M302.277,-40.9583C310.716,-42.019 319.397,-43.11 328.013,-44.1929"/>
<polygon fill="midnightblue" stroke="midnightblue" points="327.72,-47.6835 338.079,-45.458 328.593,-40.7382 327.72,-47.6835"/>
</g>
<!-- Node6 -->
<g id="node6" class="node"><title>Node6</title>
<g id="a_node6"><a xlink:href="class_c_t_c_t_exception.html#adc8307ec7d7a2c730b0dac678d0e7fcb" target="_top" xlink:title="CTCTException\\generateError">
<polygon fill="white" stroke="black" points="339.473,-0 339.473,-20 490.527,-20 490.527,-0 339.473,-0"/>
<text text-anchor="middle" x="415" y="-6" font-family="Helvetica,sans-Serif" font-size="10.00">CTCTException\generateError</text>
</a>
</g>
</g>
<!-- Node2&#45;&gt;Node6 -->
<g id="edge5" class="edge"><title>Node2&#45;&gt;Node6</title>
<path fill="none" stroke="midnightblue" d="M302.277,-23.4312C311.099,-22.3706 320.186,-21.2781 329.187,-20.1961"/>
<polygon fill="midnightblue" stroke="midnightblue" points="329.782,-23.6499 339.293,-18.9812 328.946,-16.6999 329.782,-23.6499"/>
</g>
<!-- Node4 -->
<g id="node4" class="node"><title>Node4</title>
<g id="a_node4"><a xlink:href="class_o_auth_request.html#ae544b1c10b82d5a82dcc259064763420" target="_top" xlink:title="util function: current nonce ">
<polygon fill="white" stroke="black" points="529.074,-90 529.074,-122 652.926,-122 652.926,-90 529.074,-90"/>
<text text-anchor="start" x="537.074" y="-108" font-family="Helvetica,sans-Serif" font-size="10.00">OAuthRequest\generate</text>
<text text-anchor="middle" x="591" y="-96" font-family="Helvetica,sans-Serif" font-size="10.00">_nonce</text>
</a>
</g>
</g>
<!-- Node3&#45;&gt;Node4 -->
<g id="edge3" class="edge"><title>Node3&#45;&gt;Node4</title>
<path fill="none" stroke="midnightblue" d="M471.055,-71.1367C488.36,-76.209 507.624,-81.8552 525.522,-87.1012"/>
<polygon fill="midnightblue" stroke="midnightblue" points="524.723,-90.5142 535.303,-89.9683 526.692,-83.7968 524.723,-90.5142"/>
</g>
<!-- Node5 -->
<g id="node5" class="node"><title>Node5</title>
<g id="a_node5"><a xlink:href="class_o_auth_request.html#adfc6b936799f705d9a4442961a26e8cb" target="_top" xlink:title="util function: current timestamp ">
<polygon fill="white" stroke="black" points="529.074,-39 529.074,-71 652.926,-71 652.926,-39 529.074,-39"/>
<text text-anchor="start" x="537.074" y="-57" font-family="Helvetica,sans-Serif" font-size="10.00">OAuthRequest\generate</text>
<text text-anchor="middle" x="591" y="-45" font-family="Helvetica,sans-Serif" font-size="10.00">_timestamp</text>
</a>
</g>
</g>
<!-- Node3&#45;&gt;Node5 -->
<g id="edge4" class="edge"><title>Node3&#45;&gt;Node5</title>
<path fill="none" stroke="midnightblue" d="M492.066,-55C500.939,-55 509.966,-55 518.771,-55"/>
<polygon fill="midnightblue" stroke="midnightblue" points="518.981,-58.5001 528.981,-55 518.981,-51.5001 518.981,-58.5001"/>
</g>
<!-- Node7 -->
<g id="node7" class="node"><title>Node7</title>
<g id="a_node7"><a xlink:href="class_c_t_c_t_exception.html#a6a86531406328bbd2a6c6252b7fb3a70" target="_top" xlink:title="CTCTException\\logError">
<polygon fill="white" stroke="black" points="528.54,-0 528.54,-20 653.46,-20 653.46,-0 528.54,-0"/>
<text text-anchor="middle" x="591" y="-6" font-family="Helvetica,sans-Serif" font-size="10.00">CTCTException\logError</text>
</a>
</g>
</g>
<!-- Node6&#45;&gt;Node7 -->
<g id="edge6" class="edge"><title>Node6&#45;&gt;Node7</title>
<path fill="none" stroke="midnightblue" d="M490.549,-10C499.73,-10 509.101,-10 518.239,-10"/>
<polygon fill="midnightblue" stroke="midnightblue" points="518.437,-13.5001 528.437,-10 518.436,-6.5001 518.437,-13.5001"/>
</g>
</g>
</svg>
