<?xml version="1.0" encoding="UTF-8" standalone="no"?>
<!DOCTYPE svg PUBLIC "-//W3C//DTD SVG 1.1//EN"
 "http://www.w3.org/Graphics/SVG/1.1/DTD/svg11.dtd">
<!-- Generated by graphviz version 2.30.1 (20130221.2233)
 -->
<!-- Title: Net_DNS_Resolver\Net_DNS_Resolver Pages: 1 -->
<svg width="886pt" height="105pt"
 viewBox="0.00 0.00 886.00 105.00" xmlns="http://www.w3.org/2000/svg" xmlns:xlink="http://www.w3.org/1999/xlink">
<g id="graph0" class="graph" transform="scale(1 1) rotate(0) translate(4 101)">
<title>Net_DNS_Resolver\Net_DNS_Resolver</title>
<polygon fill="white" stroke="white" points="-4,5 -4,-101 883,-101 883,5 -4,5"/>
<!-- Node1 -->
<g id="node1" class="node"><title>Node1</title>
<polygon fill="#bfbfbf" stroke="black" points="0.202148,-0 0.202148,-32 121.798,-32 121.798,-0 0.202148,-0"/>
<text text-anchor="start" x="8.20215" y="-18" font-family="Helvetica,sans-Serif" font-size="10.00">Net_DNS_Resolver\Net</text>
<text text-anchor="middle" x="61" y="-6" font-family="Helvetica,sans-Serif" font-size="10.00">_DNS_Resolver</text>
</g>
<!-- Node2 -->
<g id="node2" class="node"><title>Node2</title>
<g id="a_node2"><a xlink:href="class_net___d_n_s___resolver.html#aa2e8d58074354b1f9292500119470431" target="_top" xlink:title="Initalizes the resolver library. ">
<polygon fill="white" stroke="black" points="157.865,-26 157.865,-46 296.135,-46 296.135,-26 157.865,-26"/>
<text text-anchor="middle" x="227" y="-32" font-family="Helvetica,sans-Serif" font-size="10.00">Net_DNS_Resolver\res_init</text>
</a>
</g>
</g>
<!-- Node1&#45;&gt;Node2 -->
<g id="edge1" class="edge"><title>Node1&#45;&gt;Node2</title>
<path fill="none" stroke="midnightblue" d="M122.136,-23.3337C130.481,-24.3513 139.152,-25.4087 147.767,-26.4593"/>
<polygon fill="midnightblue" stroke="midnightblue" points="147.481,-29.9504 157.831,-27.6868 148.329,-23.0019 147.481,-29.9504"/>
</g>
<!-- Node3 -->
<g id="node3" class="node"><title>Node3</title>
<g id="a_node3"><a xlink:href="class_net___d_n_s___resolver.html#ae4def11574ad6e93176670c726541bed" target="_top" xlink:title="Reads and parses a resolver configuration file. ">
<polygon fill="white" stroke="black" points="342.976,-65 342.976,-97 469.024,-97 469.024,-65 342.976,-65"/>
<text text-anchor="start" x="350.976" y="-83" font-family="Helvetica,sans-Serif" font-size="10.00">Net_DNS_Resolver\read</text>
<text text-anchor="middle" x="406" y="-71" font-family="Helvetica,sans-Serif" font-size="10.00">_config</text>
</a>
</g>
</g>
<!-- Node2&#45;&gt;Node3 -->
<g id="edge2" class="edge"><title>Node2&#45;&gt;Node3</title>
<path fill="none" stroke="midnightblue" d="M267.722,-46.0989C286.989,-50.9972 310.741,-57.0358 333.04,-62.7051"/>
<polygon fill="midnightblue" stroke="midnightblue" points="332.271,-66.1208 342.825,-65.1928 333.996,-59.3366 332.271,-66.1208"/>
</g>
<!-- Node6 -->
<g id="node6" class="node"><title>Node6</title>
<g id="a_node6"><a xlink:href="class_net___d_n_s___resolver.html#a2a3d25c5dd2b1810b60ad05b84787855" target="_top" xlink:title="Examines the environment for resolver config information. ">
<polygon fill="white" stroke="black" points="332.133,-26 332.133,-46 479.867,-46 479.867,-26 332.133,-26"/>
<text text-anchor="middle" x="406" y="-32" font-family="Helvetica,sans-Serif" font-size="10.00">Net_DNS_Resolver\read_env</text>
</a>
</g>
</g>
<!-- Node2&#45;&gt;Node6 -->
<g id="edge6" class="edge"><title>Node2&#45;&gt;Node6</title>
<path fill="none" stroke="midnightblue" d="M296.18,-36C304.579,-36 313.237,-36 321.827,-36"/>
<polygon fill="midnightblue" stroke="midnightblue" points="321.862,-39.5001 331.862,-36 321.862,-32.5001 321.862,-39.5001"/>
</g>
<!-- Node4 -->
<g id="node4" class="node"><title>Node4</title>
<g id="a_node4"><a xlink:href="class_net___d_n_s___resolver.html#a3bf22a7a58480dd7a6fd0dd17807fc70" target="_top" xlink:title="Gets or sets the nameservers to be queried. ">
<polygon fill="white" stroke="black" points="516.084,-26 516.084,-46 679.916,-46 679.916,-26 516.084,-26"/>
<text text-anchor="middle" x="598" y="-32" font-family="Helvetica,sans-Serif" font-size="10.00">Net_DNS_Resolver\nameservers</text>
</a>
</g>
</g>
<!-- Node3&#45;&gt;Node4 -->
<g id="edge3" class="edge"><title>Node3&#45;&gt;Node4</title>
<path fill="none" stroke="midnightblue" d="M469.213,-66.2653C493.74,-60.4563 521.59,-53.8602 545.016,-48.3119"/>
<polygon fill="midnightblue" stroke="midnightblue" points="545.839,-51.7141 554.763,-46.0035 544.225,-44.9025 545.839,-51.7141"/>
</g>
<!-- Node5 -->
<g id="node5" class="node"><title>Node5</title>
<g id="a_node5"><a xlink:href="class_net___d_n_s___resolver.html#ae1bb14089519fe774d025156114aae4f" target="_top" xlink:title="Net_DNS_Resolver\\cname_addr">
<polygon fill="white" stroke="black" points="716.188,-26 716.188,-46 877.812,-46 877.812,-26 716.188,-26"/>
<text text-anchor="middle" x="797" y="-32" font-family="Helvetica,sans-Serif" font-size="10.00">Net_DNS_Resolver\cname_addr</text>
</a>
</g>
</g>
<!-- Node4&#45;&gt;Node5 -->
<g id="edge4" class="edge"><title>Node4&#45;&gt;Node5</title>
<path fill="none" stroke="midnightblue" d="M679.98,-36C688.523,-36 697.248,-36 705.886,-36"/>
<polygon fill="midnightblue" stroke="midnightblue" points="705.97,-39.5001 715.97,-36 705.97,-32.5001 705.97,-39.5001"/>
</g>
<!-- Node4&#45;&gt;Node1 -->
<g id="edge5" class="edge"><title>Node4&#45;&gt;Node1</title>
<path fill="none" stroke="midnightblue" d="M549.418,-25.9871C528.267,-22.0235 502.997,-17.9514 480,-16 358.004,-5.64809 215.258,-8.94074 132.099,-12.3896"/>
<polygon fill="midnightblue" stroke="midnightblue" points="131.851,-8.89685 122.01,-12.8209 132.151,-15.8905 131.851,-8.89685"/>
</g>
<!-- Node6&#45;&gt;Node4 -->
<g id="edge7" class="edge"><title>Node6&#45;&gt;Node4</title>
<path fill="none" stroke="midnightblue" d="M479.916,-36C488.415,-36 497.164,-36 505.87,-36"/>
<polygon fill="midnightblue" stroke="midnightblue" points="506.053,-39.5001 516.053,-36 506.053,-32.5001 506.053,-39.5001"/>
</g>
</g>
</svg>
