<?xml version="1.0" encoding="UTF-8" standalone="no"?>
<!DOCTYPE svg PUBLIC "-//W3C//DTD SVG 1.1//EN"
 "http://www.w3.org/Graphics/SVG/1.1/DTD/svg11.dtd">
<!-- Generated by graphviz version 2.30.1 (20130221.2233)
 -->
<!-- Title: OAuthRequest\get_signable_parameters Pages: 1 -->
<svg width="434pt" height="40pt"
 viewBox="0.00 0.00 434.00 40.00" xmlns="http://www.w3.org/2000/svg" xmlns:xlink="http://www.w3.org/1999/xlink">
<g id="graph0" class="graph" transform="scale(1 1) rotate(0) translate(4 36)">
<title>OAuthRequest\get_signable_parameters</title>
<polygon fill="white" stroke="white" points="-4,5 -4,-36 431,-36 431,5 -4,5"/>
<!-- Node1 -->
<g id="node1" class="node"><title>Node1</title>
<polygon fill="#bfbfbf" stroke="black" points="0.456055,-0 0.456055,-32 141.544,-32 141.544,-0 0.456055,-0"/>
<text text-anchor="start" x="8.45605" y="-18" font-family="Helvetica,sans-Serif" font-size="10.00">OAuthRequest\get_signable</text>
<text text-anchor="middle" x="71" y="-6" font-family="Helvetica,sans-Serif" font-size="10.00">_parameters</text>
</g>
<!-- Node2 -->
<g id="node2" class="node"><title>Node2</title>
<g id="a_node2"><a xlink:href="class_o_auth_util.html#afa225b04225a3b8abe804ee294e0d631" target="_top" xlink:title="OAuthUtil\\build_http\l_query">
<polygon fill="white" stroke="black" points="178.53,-0 178.53,-32 283.47,-32 283.47,-0 178.53,-0"/>
<text text-anchor="start" x="186.53" y="-18" font-family="Helvetica,sans-Serif" font-size="10.00">OAuthUtil\build_http</text>
<text text-anchor="middle" x="231" y="-6" font-family="Helvetica,sans-Serif" font-size="10.00">_query</text>
</a>
</g>
</g>
<!-- Node1&#45;&gt;Node2 -->
<g id="edge1" class="edge"><title>Node1&#45;&gt;Node2</title>
<path fill="none" stroke="midnightblue" d="M141.761,-16C150.555,-16 159.503,-16 168.163,-16"/>
<polygon fill="midnightblue" stroke="midnightblue" points="168.169,-19.5001 178.169,-16 168.169,-12.5001 168.169,-19.5001"/>
</g>
<!-- Node3 -->
<g id="node3" class="node"><title>Node3</title>
<g id="a_node3"><a xlink:href="class_o_auth_util.html#adcb789bfefc729678d5188f05d19b5ba" target="_top" xlink:title="OAuthUtil\\urlencode\l_rfc3986">
<polygon fill="white" stroke="black" points="320.254,-0 320.254,-32 425.746,-32 425.746,-0 320.254,-0"/>
<text text-anchor="start" x="328.254" y="-18" font-family="Helvetica,sans-Serif" font-size="10.00">OAuthUtil\urlencode</text>
<text text-anchor="middle" x="373" y="-6" font-family="Helvetica,sans-Serif" font-size="10.00">_rfc3986</text>
</a>
</g>
</g>
<!-- Node2&#45;&gt;Node3 -->
<g id="edge2" class="edge"><title>Node2&#45;&gt;Node3</title>
<path fill="none" stroke="midnightblue" d="M283.733,-16C292.243,-16 301.14,-16 309.871,-16"/>
<polygon fill="midnightblue" stroke="midnightblue" points="310.012,-19.5001 320.012,-16 310.012,-12.5001 310.012,-19.5001"/>
</g>
</g>
</svg>
