<?xml version="1.0" encoding="UTF-8" standalone="no"?>
<!DOCTYPE svg PUBLIC "-//W3C//DTD SVG 1.1//EN"
 "http://www.w3.org/Graphics/SVG/1.1/DTD/svg11.dtd">
<!-- Generated by graphviz version 2.30.1 (20130221.2233)
 -->
<!-- Title: JsonLoader\getContactsJson Pages: 1 -->
<svg width="320pt" height="142pt"
 viewBox="0.00 0.00 320.00 142.00" xmlns="http://www.w3.org/2000/svg" xmlns:xlink="http://www.w3.org/1999/xlink">
<g id="graph0" class="graph" transform="scale(1 1) rotate(0) translate(4 138)">
<title>JsonLoader\getContactsJson</title>
<polygon fill="white" stroke="white" points="-4,5 -4,-138 317,-138 317,5 -4,5"/>
<!-- Node1 -->
<g id="node1" class="node"><title>Node1</title>
<polygon fill="#bfbfbf" stroke="black" points="0.236816,-57 0.236816,-77 145.763,-77 145.763,-57 0.236816,-57"/>
<text text-anchor="middle" x="73" y="-63" font-family="Helvetica,sans-Serif" font-size="10.00">JsonLoader\getContactsJson</text>
</g>
<!-- Node2 -->
<g id="node2" class="node"><title>Node2</title>
<g id="a_node2"><a xlink:href="class_contact_service_unit_test.html#a5b7f172215fa57d07ce88c53ea31a912" target="_top" xlink:title="ContactServiceUnitTest\l\\testGetContactByEmail">
<polygon fill="white" stroke="black" points="185.924,-102 185.924,-134 308.076,-134 308.076,-102 185.924,-102"/>
<text text-anchor="start" x="193.924" y="-120" font-family="Helvetica,sans-Serif" font-size="10.00">ContactServiceUnitTest</text>
<text text-anchor="middle" x="247" y="-108" font-family="Helvetica,sans-Serif" font-size="10.00">\testGetContactByEmail</text>
</a>
</g>
</g>
<!-- Node1&#45;&gt;Node2 -->
<g id="edge1" class="edge"><title>Node1&#45;&gt;Node2</title>
<path fill="none" stroke="midnightblue" d="M117.618,-79.9333C140.156,-86.6161 167.873,-94.8343 191.777,-101.922"/>
<polygon fill="midnightblue" stroke="midnightblue" points="118.564,-76.5632 107.982,-77.076 116.574,-83.2744 118.564,-76.5632"/>
</g>
<!-- Node3 -->
<g id="node3" class="node"><title>Node3</title>
<g id="a_node3"><a xlink:href="class_contact_service_unit_test.html#abe414fdbcca5d682e765939de50df3a3" target="_top" xlink:title="ContactServiceUnitTest\l\\testGetContacts">
<polygon fill="white" stroke="black" points="187.035,-51 187.035,-83 306.965,-83 306.965,-51 187.035,-51"/>
<text text-anchor="start" x="195.035" y="-69" font-family="Helvetica,sans-Serif" font-size="10.00">ContactServiceUnitTest</text>
<text text-anchor="middle" x="247" y="-57" font-family="Helvetica,sans-Serif" font-size="10.00">\testGetContacts</text>
</a>
</g>
</g>
<!-- Node1&#45;&gt;Node3 -->
<g id="edge2" class="edge"><title>Node1&#45;&gt;Node3</title>
<path fill="none" stroke="midnightblue" d="M156.234,-67C166.567,-67 176.972,-67 186.852,-67"/>
<polygon fill="midnightblue" stroke="midnightblue" points="155.947,-63.5001 145.947,-67 155.947,-70.5001 155.947,-63.5001"/>
</g>
<!-- Node4 -->
<g id="node4" class="node"><title>Node4</title>
<g id="a_node4"><a xlink:href="class_list_service_unit_test.html#ab006965a239294c8fc20e0818172be6d" target="_top" xlink:title="ListServiceUnitTest\l\\testGetContactsFromList">
<polygon fill="white" stroke="black" points="182.315,-0 182.315,-32 311.685,-32 311.685,-0 182.315,-0"/>
<text text-anchor="start" x="190.315" y="-18" font-family="Helvetica,sans-Serif" font-size="10.00">ListServiceUnitTest</text>
<text text-anchor="middle" x="247" y="-6" font-family="Helvetica,sans-Serif" font-size="10.00">\testGetContactsFromList</text>
</a>
</g>
</g>
<!-- Node1&#45;&gt;Node4 -->
<g id="edge3" class="edge"><title>Node1&#45;&gt;Node4</title>
<path fill="none" stroke="midnightblue" d="M117.618,-54.0667C140.156,-47.3839 167.873,-39.1657 191.777,-32.0777"/>
<polygon fill="midnightblue" stroke="midnightblue" points="116.574,-50.7256 107.982,-56.924 118.564,-57.4368 116.574,-50.7256"/>
</g>
</g>
</svg>
