<?xml version="1.0" encoding="UTF-8" standalone="no"?>
<!DOCTYPE svg PUBLIC "-//W3C//DTD SVG 1.1//EN"
 "http://www.w3.org/Graphics/SVG/1.1/DTD/svg11.dtd">
<!-- Generated by graphviz version 2.30.1 (20130221.2233)
 -->
<!-- Title: Net_DNS_RR\rdata Pages: 1 -->
<svg width="316pt" height="628pt"
 viewBox="0.00 0.00 316.00 628.00" xmlns="http://www.w3.org/2000/svg" xmlns:xlink="http://www.w3.org/1999/xlink">
<g id="graph0" class="graph" transform="scale(1 1) rotate(0) translate(4 624)">
<title>Net_DNS_RR\rdata</title>
<polygon fill="white" stroke="white" points="-4,5 -4,-624 313,-624 313,5 -4,5"/>
<!-- Node1 -->
<g id="node1" class="node"><title>Node1</title>
<polygon fill="#bfbfbf" stroke="black" points="0.09375,-300 0.09375,-320 103.906,-320 103.906,-300 0.09375,-300"/>
<text text-anchor="middle" x="52" y="-306" font-family="Helvetica,sans-Serif" font-size="10.00">Net_DNS_RR\rdata</text>
</g>
<!-- Node2 -->
<g id="node2" class="node"><title>Node2</title>
<g id="a_node2"><a xlink:href="class_net___d_n_s___r_r___a.html#a454980a916cd6bfaee571ee4874d8da4" target="_top" xlink:title="Net_DNS_RR_A\\Net_DNS_RR_A">
<polygon fill="white" stroke="black" points="140.138,-600 140.138,-620 307.862,-620 307.862,-600 140.138,-600"/>
<text text-anchor="middle" x="224" y="-606" font-family="Helvetica,sans-Serif" font-size="10.00">Net_DNS_RR_A\Net_DNS_RR_A</text>
</a>
</g>
</g>
<!-- Node1&#45;&gt;Node2 -->
<g id="edge1" class="edge"><title>Node1&#45;&gt;Node2</title>
<path fill="none" stroke="midnightblue" d="M52.9174,-330.417C53.8746,-382.023 63.8615,-518.642 140,-590 144.326,-594.054 149.326,-597.33 154.685,-599.971"/>
<polygon fill="midnightblue" stroke="midnightblue" points="56.4157,-330.202 52.8304,-320.232 49.416,-330.261 56.4157,-330.202"/>
</g>
<!-- Node3 -->
<g id="node3" class="node"><title>Node3</title>
<g id="a_node3"><a xlink:href="class_net___d_n_s___r_r___a_a_a_a.html#a0ddf9d4178565b2e924f6b1d437c5ad0" target="_top" xlink:title="Net_DNS_RR_AAAA\\Net\l_DNS_RR_AAAA">
<polygon fill="white" stroke="black" points="159.589,-549 159.589,-581 288.411,-581 288.411,-549 159.589,-549"/>
<text text-anchor="start" x="167.589" y="-567" font-family="Helvetica,sans-Serif" font-size="10.00">Net_DNS_RR_AAAA\Net</text>
<text text-anchor="middle" x="224" y="-555" font-family="Helvetica,sans-Serif" font-size="10.00">_DNS_RR_AAAA</text>
</a>
</g>
</g>
<!-- Node1&#45;&gt;Node3 -->
<g id="edge2" class="edge"><title>Node1&#45;&gt;Node3</title>
<path fill="none" stroke="midnightblue" d="M54.8803,-330.57C60.0535,-375.095 78.4933,-481.048 140,-539 145.605,-544.281 152.271,-548.49 159.353,-551.844"/>
<polygon fill="midnightblue" stroke="midnightblue" points="58.3387,-329.99 53.8113,-320.411 51.3771,-330.723 58.3387,-329.99"/>
</g>
<!-- Node4 -->
<g id="node4" class="node"><title>Node4</title>
<g id="a_node4"><a xlink:href="class_net___d_n_s___r_r___c_n_a_m_e.html#a9350cf8c56601f5da2424d04501efada" target="_top" xlink:title="Net_DNS_RR_CNAME\\Net\l_DNS_RR_CNAME">
<polygon fill="white" stroke="black" points="154.872,-498 154.872,-530 293.128,-530 293.128,-498 154.872,-498"/>
<text text-anchor="start" x="162.872" y="-516" font-family="Helvetica,sans-Serif" font-size="10.00">Net_DNS_RR_CNAME\Net</text>
<text text-anchor="middle" x="224" y="-504" font-family="Helvetica,sans-Serif" font-size="10.00">_DNS_RR_CNAME</text>
</a>
</g>
</g>
<!-- Node1&#45;&gt;Node4 -->
<g id="edge3" class="edge"><title>Node1&#45;&gt;Node4</title>
<path fill="none" stroke="midnightblue" d="M57.3105,-330.191C66.2131,-366.993 90.1152,-445.134 140,-488 144.467,-491.838 149.498,-495.11 154.82,-497.9"/>
<polygon fill="midnightblue" stroke="midnightblue" points="60.6621,-329.147 55.017,-320.182 53.839,-330.711 60.6621,-329.147"/>
</g>
<!-- Node5 -->
<g id="node5" class="node"><title>Node5</title>
<g id="a_node5"><a xlink:href="class_net___d_n_s___r_r___h_i_n_f_o.html#aafd311cd5e67b4227ace59a2d3d2511e" target="_top" xlink:title="Net_DNS_RR_HINFO\\Net\l_DNS_RR_HINFO">
<polygon fill="white" stroke="black" points="157.375,-447 157.375,-479 290.625,-479 290.625,-447 157.375,-447"/>
<text text-anchor="start" x="165.375" y="-465" font-family="Helvetica,sans-Serif" font-size="10.00">Net_DNS_RR_HINFO\Net</text>
<text text-anchor="middle" x="224" y="-453" font-family="Helvetica,sans-Serif" font-size="10.00">_DNS_RR_HINFO</text>
</a>
</g>
</g>
<!-- Node1&#45;&gt;Node5 -->
<g id="edge4" class="edge"><title>Node1&#45;&gt;Node5</title>
<path fill="none" stroke="midnightblue" d="M61.4138,-329.781C74.2928,-357.728 101.514,-408.532 140,-437 145.22,-440.861 151.028,-444.159 157.08,-446.974"/>
<polygon fill="midnightblue" stroke="midnightblue" points="64.4504,-327.996 57.1864,-320.283 58.0552,-330.842 64.4504,-327.996"/>
</g>
<!-- Node6 -->
<g id="node6" class="node"><title>Node6</title>
<g id="a_node6"><a xlink:href="class_net___d_n_s___r_r___m_x.html#afc6faea6aaada59a4caea68ca32c307b" target="_top" xlink:title="Net_DNS_RR_MX\\Net_DNS\l_RR_MX">
<polygon fill="white" stroke="black" points="152.091,-396 152.091,-428 295.909,-428 295.909,-396 152.091,-396"/>
<text text-anchor="start" x="160.091" y="-414" font-family="Helvetica,sans-Serif" font-size="10.00">Net_DNS_RR_MX\Net_DNS</text>
<text text-anchor="middle" x="224" y="-402" font-family="Helvetica,sans-Serif" font-size="10.00">_RR_MX</text>
</a>
</g>
</g>
<!-- Node1&#45;&gt;Node6 -->
<g id="edge5" class="edge"><title>Node1&#45;&gt;Node6</title>
<path fill="none" stroke="midnightblue" d="M69.0295,-327.756C85.3634,-344.874 112.185,-370.412 140,-386 146.718,-389.765 154.054,-393.061 161.494,-395.927"/>
<polygon fill="midnightblue" stroke="midnightblue" points="71.2762,-325.033 61.8951,-320.109 66.1581,-329.809 71.2762,-325.033"/>
</g>
<!-- Node7 -->
<g id="node7" class="node"><title>Node7</title>
<g id="a_node7"><a xlink:href="class_net___d_n_s___r_r___n_a_p_t_r.html#aef963fabca0af3b3b10d881552cd9835" target="_top" xlink:title="Net_DNS_RR_NAPTR\\Net\l_DNS_RR_NAPTR">
<polygon fill="white" stroke="black" points="155.983,-345 155.983,-377 292.017,-377 292.017,-345 155.983,-345"/>
<text text-anchor="start" x="163.983" y="-363" font-family="Helvetica,sans-Serif" font-size="10.00">Net_DNS_RR_NAPTR\Net</text>
<text text-anchor="middle" x="224" y="-351" font-family="Helvetica,sans-Serif" font-size="10.00">_DNS_RR_NAPTR</text>
</a>
</g>
</g>
<!-- Node1&#45;&gt;Node7 -->
<g id="edge6" class="edge"><title>Node1&#45;&gt;Node7</title>
<path fill="none" stroke="midnightblue" d="M96.4109,-323.023C118.633,-329.69 145.887,-337.866 169.408,-344.922"/>
<polygon fill="midnightblue" stroke="midnightblue" points="97.1705,-319.597 86.5865,-320.076 95.1591,-326.302 97.1705,-319.597"/>
</g>
<!-- Node8 -->
<g id="node8" class="node"><title>Node8</title>
<g id="a_node8"><a xlink:href="class_net___d_n_s___r_r___n_s.html#abc249a0f63fe561a948778a2ce0a4473" target="_top" xlink:title="Net_DNS_RR_NS\\Net_DNS\l_RR_NS">
<polygon fill="white" stroke="black" points="152.646,-294 152.646,-326 295.354,-326 295.354,-294 152.646,-294"/>
<text text-anchor="start" x="160.646" y="-312" font-family="Helvetica,sans-Serif" font-size="10.00">Net_DNS_RR_NS\Net_DNS</text>
<text text-anchor="middle" x="224" y="-300" font-family="Helvetica,sans-Serif" font-size="10.00">_RR_NS</text>
</a>
</g>
</g>
<!-- Node1&#45;&gt;Node8 -->
<g id="edge7" class="edge"><title>Node1&#45;&gt;Node8</title>
<path fill="none" stroke="midnightblue" d="M114.243,-310C126.668,-310 139.829,-310 152.543,-310"/>
<polygon fill="midnightblue" stroke="midnightblue" points="114.006,-306.5 104.006,-310 114.006,-313.5 114.006,-306.5"/>
</g>
<!-- Node9 -->
<g id="node9" class="node"><title>Node9</title>
<g id="a_node9"><a xlink:href="class_net___d_n_s___r_r___p_t_r.html#ac4516534181433b3be00d672bbadfe3c" target="_top" xlink:title="Net_DNS_RR_PTR\\Net\l_DNS_RR_PTR">
<polygon fill="white" stroke="black" points="162.929,-243 162.929,-275 285.071,-275 285.071,-243 162.929,-243"/>
<text text-anchor="start" x="170.929" y="-261" font-family="Helvetica,sans-Serif" font-size="10.00">Net_DNS_RR_PTR\Net</text>
<text text-anchor="middle" x="224" y="-249" font-family="Helvetica,sans-Serif" font-size="10.00">_DNS_RR_PTR</text>
</a>
</g>
</g>
<!-- Node1&#45;&gt;Node9 -->
<g id="edge8" class="edge"><title>Node1&#45;&gt;Node9</title>
<path fill="none" stroke="midnightblue" d="M96.4109,-296.977C118.633,-290.31 145.887,-282.134 169.408,-275.078"/>
<polygon fill="midnightblue" stroke="midnightblue" points="95.1591,-293.698 86.5865,-299.924 97.1705,-300.403 95.1591,-293.698"/>
</g>
<!-- Node10 -->
<g id="node10" class="node"><title>Node10</title>
<g id="a_node10"><a xlink:href="class_net___d_n_s___r_r___s_o_a.html#a93588a59c57c2bc2d72a9b12559d0908" target="_top" xlink:title="Net_DNS_RR_SOA\\Net\l_DNS_RR_SOA">
<polygon fill="white" stroke="black" points="162.37,-192 162.37,-224 285.63,-224 285.63,-192 162.37,-192"/>
<text text-anchor="start" x="170.37" y="-210" font-family="Helvetica,sans-Serif" font-size="10.00">Net_DNS_RR_SOA\Net</text>
<text text-anchor="middle" x="224" y="-198" font-family="Helvetica,sans-Serif" font-size="10.00">_DNS_RR_SOA</text>
</a>
</g>
</g>
<!-- Node1&#45;&gt;Node10 -->
<g id="edge9" class="edge"><title>Node1&#45;&gt;Node10</title>
<path fill="none" stroke="midnightblue" d="M69.0295,-292.244C85.3634,-275.126 112.185,-249.588 140,-234 146.982,-230.088 154.63,-226.681 162.37,-223.738"/>
<polygon fill="midnightblue" stroke="midnightblue" points="66.1581,-290.191 61.8951,-299.891 71.2762,-294.967 66.1581,-290.191"/>
</g>
<!-- Node11 -->
<g id="node11" class="node"><title>Node11</title>
<g id="a_node11"><a xlink:href="class_net___d_n_s___r_r___s_r_v.html#a68e66732ecc66840ec2625b954c3d639" target="_top" xlink:title="Net_DNS_RR_SRV\\Net\l_DNS_RR_SRV">
<polygon fill="white" stroke="black" points="162.736,-141 162.736,-173 285.264,-173 285.264,-141 162.736,-141"/>
<text text-anchor="start" x="170.736" y="-159" font-family="Helvetica,sans-Serif" font-size="10.00">Net_DNS_RR_SRV\Net</text>
<text text-anchor="middle" x="224" y="-147" font-family="Helvetica,sans-Serif" font-size="10.00">_DNS_RR_SRV</text>
</a>
</g>
</g>
<!-- Node1&#45;&gt;Node11 -->
<g id="edge10" class="edge"><title>Node1&#45;&gt;Node11</title>
<path fill="none" stroke="midnightblue" d="M61.4138,-290.219C74.2928,-262.272 101.514,-211.468 140,-183 146.798,-177.971 154.594,-173.898 162.626,-170.604"/>
<polygon fill="midnightblue" stroke="midnightblue" points="58.0552,-289.158 57.1864,-299.717 64.4504,-292.004 58.0552,-289.158"/>
</g>
<!-- Node12 -->
<g id="node12" class="node"><title>Node12</title>
<g id="a_node12"><a xlink:href="class_net___d_n_s___r_r___t_s_i_g.html#af65963492a03361a69f7f2695e3366d4" target="_top" xlink:title="Net_DNS_RR_TSIG\\Net\l_DNS_RR_TSIG">
<polygon fill="white" stroke="black" points="161.261,-90 161.261,-122 286.739,-122 286.739,-90 161.261,-90"/>
<text text-anchor="start" x="169.261" y="-108" font-family="Helvetica,sans-Serif" font-size="10.00">Net_DNS_RR_TSIG\Net</text>
<text text-anchor="middle" x="224" y="-96" font-family="Helvetica,sans-Serif" font-size="10.00">_DNS_RR_TSIG</text>
</a>
</g>
</g>
<!-- Node1&#45;&gt;Node12 -->
<g id="edge11" class="edge"><title>Node1&#45;&gt;Node12</title>
<path fill="none" stroke="midnightblue" d="M57.3105,-289.809C66.2131,-253.007 90.1152,-174.866 140,-132 146.184,-126.686 153.453,-122.456 161.073,-119.091"/>
<polygon fill="midnightblue" stroke="midnightblue" points="53.839,-289.289 55.017,-299.818 60.6621,-290.853 53.839,-289.289"/>
</g>
<!-- Node13 -->
<g id="node13" class="node"><title>Node13</title>
<g id="a_node13"><a xlink:href="class_net___d_n_s___r_r___t_x_t.html#a557c2b7a227b3a9d04f1f821798d816f" target="_top" xlink:title="Net_DNS_RR_TXT\\Net\l_DNS_RR_TXT">
<polygon fill="white" stroke="black" points="163.485,-39 163.485,-71 284.515,-71 284.515,-39 163.485,-39"/>
<text text-anchor="start" x="171.485" y="-57" font-family="Helvetica,sans-Serif" font-size="10.00">Net_DNS_RR_TXT\Net</text>
<text text-anchor="middle" x="224" y="-45" font-family="Helvetica,sans-Serif" font-size="10.00">_DNS_RR_TXT</text>
</a>
</g>
</g>
<!-- Node1&#45;&gt;Node13 -->
<g id="edge12" class="edge"><title>Node1&#45;&gt;Node13</title>
<path fill="none" stroke="midnightblue" d="M54.8803,-289.43C60.0535,-244.905 78.4933,-138.952 140,-81 146.594,-74.7869 154.657,-70.058 163.137,-66.4589"/>
<polygon fill="midnightblue" stroke="midnightblue" points="51.3771,-289.277 53.8113,-299.589 58.3387,-290.01 51.3771,-289.277"/>
</g>
<!-- Node14 -->
<g id="node14" class="node"><title>Node14</title>
<g id="a_node14"><a xlink:href="class_net___d_n_s___r_r___n_a_p_t_r.html#a534b2040b91eb231741e8965a336fa31" target="_top" xlink:title="Net_DNS_RR_NAPTR\\rdatastr">
<polygon fill="white" stroke="black" points="146.813,-0 146.813,-20 301.187,-20 301.187,-0 146.813,-0"/>
<text text-anchor="middle" x="224" y="-6" font-family="Helvetica,sans-Serif" font-size="10.00">Net_DNS_RR_NAPTR\rdatastr</text>
</a>
</g>
</g>
<!-- Node1&#45;&gt;Node14 -->
<g id="edge13" class="edge"><title>Node1&#45;&gt;Node14</title>
<path fill="none" stroke="midnightblue" d="M52.9174,-289.583C53.8746,-237.977 63.8615,-101.358 140,-30 144.326,-25.9457 149.326,-22.67 154.685,-20.0287"/>
<polygon fill="midnightblue" stroke="midnightblue" points="49.416,-289.739 52.8304,-299.768 56.4157,-289.798 49.416,-289.739"/>
</g>
</g>
</svg>
