<?xml version="1.0" encoding="UTF-8" standalone="no"?>
<!DOCTYPE svg PUBLIC "-//W3C//DTD SVG 1.1//EN"
 "http://www.w3.org/Graphics/SVG/1.1/DTD/svg11.dtd">
<!-- Generated by graphviz version 2.30.1 (20130221.2233)
 -->
<!-- Title: Cache_WP_HTTP\getKey Pages: 1 -->
<svg width="314pt" height="91pt"
 viewBox="0.00 0.00 314.00 91.00" xmlns="http://www.w3.org/2000/svg" xmlns:xlink="http://www.w3.org/1999/xlink">
<g id="graph0" class="graph" transform="scale(1 1) rotate(0) translate(4 87)">
<title>Cache_WP_HTTP\getKey</title>
<polygon fill="white" stroke="white" points="-4,5 -4,-87 311,-87 311,5 -4,5"/>
<!-- Node1 -->
<g id="node1" class="node"><title>Node1</title>
<polygon fill="#bfbfbf" stroke="black" points="-0.0786133,-31 -0.0786133,-51 132.079,-51 132.079,-31 -0.0786133,-31"/>
<text text-anchor="middle" x="66" y="-37" font-family="Helvetica,sans-Serif" font-size="10.00">Cache_WP_HTTP\getKey</text>
</g>
<!-- Node2 -->
<g id="node2" class="node"><title>Node2</title>
<g id="a_node2"><a xlink:href="class_cache___w_p___h_t_t_p.html#a935ab46ecf5fb5799bf1bec0f29f48a8" target="_top" xlink:title="Filter the response from WP_HTTP class. ">
<polygon fill="white" stroke="black" points="178.148,-51 178.148,-83 295.852,-83 295.852,-51 178.148,-51"/>
<text text-anchor="start" x="186.148" y="-69" font-family="Helvetica,sans-Serif" font-size="10.00">Cache_WP_HTTP\http</text>
<text text-anchor="middle" x="237" y="-57" font-family="Helvetica,sans-Serif" font-size="10.00">_response</text>
</a>
</g>
</g>
<!-- Node1&#45;&gt;Node2 -->
<g id="edge1" class="edge"><title>Node1&#45;&gt;Node2</title>
<path fill="none" stroke="midnightblue" d="M142.316,-52.5871C154.287,-54.4288 166.508,-56.3089 178.001,-58.077"/>
<polygon fill="midnightblue" stroke="midnightblue" points="142.756,-49.1136 132.34,-51.0523 141.691,-56.0322 142.756,-49.1136"/>
</g>
<!-- Node3 -->
<g id="node3" class="node"><title>Node3</title>
<g id="a_node3"><a xlink:href="class_cache___w_p___h_t_t_p.html#a6f97da37d9fbbfc35d2f63188b020a01" target="_top" xlink:title="Cache_WP_HTTP\\pre_http\l_request">
<polygon fill="white" stroke="black" points="168.141,-0 168.141,-32 305.859,-32 305.859,-0 168.141,-0"/>
<text text-anchor="start" x="176.141" y="-18" font-family="Helvetica,sans-Serif" font-size="10.00">Cache_WP_HTTP\pre_http</text>
<text text-anchor="middle" x="237" y="-6" font-family="Helvetica,sans-Serif" font-size="10.00">_request</text>
</a>
</g>
</g>
<!-- Node1&#45;&gt;Node3 -->
<g id="edge2" class="edge"><title>Node1&#45;&gt;Node3</title>
<path fill="none" stroke="midnightblue" d="M142.316,-29.8586C150.882,-28.5914 159.576,-27.3053 168.039,-26.0534"/>
<polygon fill="midnightblue" stroke="midnightblue" points="141.72,-26.4086 132.34,-31.3343 142.744,-33.3332 141.72,-26.4086"/>
</g>
</g>
</svg>
