<?xml version="1.0" encoding="UTF-8" standalone="no"?>
<!DOCTYPE svg PUBLIC "-//W3C//DTD SVG 1.1//EN"
 "http://www.w3.org/Graphics/SVG/1.1/DTD/svg11.dtd">
<!-- Generated by graphviz version 2.30.1 (20130221.2233)
 -->
<!-- Title: Ctct\Services\ListService\getList Pages: 1 -->
<svg width="308pt" height="130pt"
 viewBox="0.00 0.00 308.00 130.00" xmlns="http://www.w3.org/2000/svg" xmlns:xlink="http://www.w3.org/1999/xlink">
<g id="graph0" class="graph" transform="scale(1 1) rotate(0) translate(4 126)">
<title>Ctct\Services\ListService\getList</title>
<polygon fill="white" stroke="white" points="-4,5 -4,-126 305,-126 305,5 -4,5"/>
<!-- Node1 -->
<g id="node1" class="node"><title>Node1</title>
<polygon fill="#bfbfbf" stroke="black" points="0.707031,-39 0.707031,-71 127.293,-71 127.293,-39 0.707031,-39"/>
<text text-anchor="start" x="8.70703" y="-57" font-family="Helvetica,sans-Serif" font-size="10.00">Ctct\Services\ListService</text>
<text text-anchor="middle" x="64" y="-45" font-family="Helvetica,sans-Serif" font-size="10.00">\getList</text>
</g>
<!-- Node2 -->
<g id="node2" class="node"><title>Node2</title>
<g id="a_node2"><a xlink:href="class_ctct_1_1_services_1_1_base_service.html#a5c4ae0795fcc06c137b6e761963c4df6" target="_top" xlink:title="Build a url from the base url and query parameters array. ">
<polygon fill="white" stroke="black" points="165.091,-90 165.091,-122 298.909,-122 298.909,-90 165.091,-90"/>
<text text-anchor="start" x="173.091" y="-108" font-family="Helvetica,sans-Serif" font-size="10.00">Ctct\Services\BaseService</text>
<text text-anchor="middle" x="232" y="-96" font-family="Helvetica,sans-Serif" font-size="10.00">\buildUrl</text>
</a>
</g>
</g>
<!-- Node1&#45;&gt;Node2 -->
<g id="edge1" class="edge"><title>Node1&#45;&gt;Node2</title>
<path fill="none" stroke="midnightblue" d="M117.523,-71.1367C133.88,-76.162 152.071,-81.7507 169.012,-86.9554"/>
<polygon fill="midnightblue" stroke="midnightblue" points="168.231,-90.377 178.818,-89.9683 170.287,-83.6857 168.231,-90.377"/>
</g>
<!-- Node3 -->
<g id="node3" class="node"><title>Node3</title>
<g id="a_node3"><a xlink:href="class_ctct_1_1_components_1_1_contacts_1_1_contact_list.html#a3fc8e0d47e974d0ba80d1ff92ec48d5c" target="_top" xlink:title="Factory method to create a ContactList object from an array. ">
<polygon fill="white" stroke="black" points="164.251,-39 164.251,-71 299.749,-71 299.749,-39 164.251,-39"/>
<text text-anchor="start" x="172.251" y="-57" font-family="Helvetica,sans-Serif" font-size="10.00">Ctct\Components\Contacts</text>
<text text-anchor="middle" x="232" y="-45" font-family="Helvetica,sans-Serif" font-size="10.00">\ContactList\create</text>
</a>
</g>
</g>
<!-- Node1&#45;&gt;Node3 -->
<g id="edge2" class="edge"><title>Node1&#45;&gt;Node3</title>
<path fill="none" stroke="midnightblue" d="M127.757,-55C136.27,-55 145.086,-55 153.815,-55"/>
<polygon fill="midnightblue" stroke="midnightblue" points="153.999,-58.5001 163.999,-55 153.999,-51.5001 153.999,-58.5001"/>
</g>
<!-- Node4 -->
<g id="node4" class="node"><title>Node4</title>
<g id="a_node4"><a xlink:href="class_ctct_1_1_util_1_1_config.html#ab224fae1ce1a1993c1ac42c708dc7de9" target="_top" xlink:title="Get a configuration property given a specified location, example usage: Config::get(&#39;auth.token_endpoint&#39;) ">
<polygon fill="white" stroke="black" points="182.318,-0 182.318,-20 281.682,-20 281.682,-0 182.318,-0"/>
<text text-anchor="middle" x="232" y="-6" font-family="Helvetica,sans-Serif" font-size="10.00">Ctct\Util\Config\get</text>
</a>
</g>
</g>
<!-- Node1&#45;&gt;Node4 -->
<g id="edge3" class="edge"><title>Node1&#45;&gt;Node4</title>
<path fill="none" stroke="midnightblue" d="M124.461,-38.8811C144.018,-33.5795 165.475,-27.7627 183.976,-22.7474"/>
<polygon fill="midnightblue" stroke="midnightblue" points="184.901,-26.1232 193.636,-20.1287 183.069,-19.3671 184.901,-26.1232"/>
</g>
</g>
</svg>
