<?xml version="1.0" encoding="UTF-8" standalone="no"?>
<!DOCTYPE svg PUBLIC "-//W3C//DTD SVG 1.1//EN"
 "http://www.w3.org/Graphics/SVG/1.1/DTD/svg11.dtd">
<!-- Generated by graphviz version 2.30.1 (20130221.2233)
 -->
<!-- Title: LibraryCollection\getImageDetails Pages: 1 -->
<svg width="676pt" height="130pt"
 viewBox="0.00 0.00 676.00 130.00" xmlns="http://www.w3.org/2000/svg" xmlns:xlink="http://www.w3.org/1999/xlink">
<g id="graph0" class="graph" transform="scale(1 1) rotate(0) translate(4 126)">
<title>LibraryCollection\getImageDetails</title>
<polygon fill="white" stroke="white" points="-4,5 -4,-126 673,-126 673,5 -4,5"/>
<!-- Node1 -->
<g id="node1" class="node"><title>Node1</title>
<polygon fill="#bfbfbf" stroke="black" points="0.524902,-35 0.524902,-67 135.475,-67 135.475,-35 0.524902,-35"/>
<text text-anchor="start" x="8.5249" y="-53" font-family="Helvetica,sans-Serif" font-size="10.00">LibraryCollection\getImage</text>
<text text-anchor="middle" x="68" y="-41" font-family="Helvetica,sans-Serif" font-size="10.00">Details</text>
</g>
<!-- Node2 -->
<g id="node2" class="node"><title>Node2</title>
<g id="a_node2"><a xlink:href="class_image.html#ae7d8e411a8a8ee99c6d7acbfb842963a" target="_top" xlink:title="Create associate array of object from XML. ">
<polygon fill="white" stroke="black" points="193.759,-61 193.759,-81 294.241,-81 294.241,-61 193.759,-61"/>
<text text-anchor="middle" x="244" y="-67" font-family="Helvetica,sans-Serif" font-size="10.00">Image\createStruct</text>
</a>
</g>
</g>
<!-- Node1&#45;&gt;Node2 -->
<g id="edge1" class="edge"><title>Node1&#45;&gt;Node2</title>
<path fill="none" stroke="midnightblue" d="M135.775,-58.6753C151.577,-60.4916 168.322,-62.4163 183.763,-64.1911"/>
<polygon fill="midnightblue" stroke="midnightblue" points="183.364,-67.6683 193.698,-65.3332 184.164,-60.714 183.364,-67.6683"/>
</g>
<!-- Node3 -->
<g id="node3" class="node"><title>Node3</title>
<g id="a_node3"><a xlink:href="class_c_t_c_t_request.html#aad92e5787f6d3fdf00760d99505aa6db" target="_top" xlink:title="CTCTRequest\\makeRequest">
<polygon fill="white" stroke="black" points="171.808,-22 171.808,-42 316.192,-42 316.192,-22 171.808,-22"/>
<text text-anchor="middle" x="244" y="-28" font-family="Helvetica,sans-Serif" font-size="10.00">CTCTRequest\makeRequest</text>
</a>
</g>
</g>
<!-- Node1&#45;&gt;Node3 -->
<g id="edge2" class="edge"><title>Node1&#45;&gt;Node3</title>
<path fill="none" stroke="midnightblue" d="M135.775,-43.7084C144.248,-42.7833 152.992,-41.8285 161.66,-40.882"/>
<polygon fill="midnightblue" stroke="midnightblue" points="162.219,-44.3418 171.78,-39.7768 161.46,-37.3831 162.219,-44.3418"/>
</g>
<!-- Node4 -->
<g id="node4" class="node"><title>Node4</title>
<g id="a_node4"><a xlink:href="class_o_auth_request.html#afe9d0f6cb8e0dadb1c0faeea9ecafe45" target="_top" xlink:title="pretty much a helper function to set up the request ">
<polygon fill="white" stroke="black" points="352.079,-39 352.079,-71 505.921,-71 505.921,-39 352.079,-39"/>
<text text-anchor="start" x="360.079" y="-57" font-family="Helvetica,sans-Serif" font-size="10.00">OAuthRequest\from_consumer</text>
<text text-anchor="middle" x="429" y="-45" font-family="Helvetica,sans-Serif" font-size="10.00">_and_token</text>
</a>
</g>
</g>
<!-- Node3&#45;&gt;Node4 -->
<g id="edge3" class="edge"><title>Node3&#45;&gt;Node4</title>
<path fill="none" stroke="midnightblue" d="M316.277,-40.9583C324.716,-42.019 333.397,-43.11 342.013,-44.1929"/>
<polygon fill="midnightblue" stroke="midnightblue" points="341.72,-47.6835 352.079,-45.458 342.593,-40.7382 341.72,-47.6835"/>
</g>
<!-- Node7 -->
<g id="node7" class="node"><title>Node7</title>
<g id="a_node7"><a xlink:href="class_c_t_c_t_exception.html#adc8307ec7d7a2c730b0dac678d0e7fcb" target="_top" xlink:title="CTCTException\\generateError">
<polygon fill="white" stroke="black" points="353.473,-0 353.473,-20 504.527,-20 504.527,-0 353.473,-0"/>
<text text-anchor="middle" x="429" y="-6" font-family="Helvetica,sans-Serif" font-size="10.00">CTCTException\generateError</text>
</a>
</g>
</g>
<!-- Node3&#45;&gt;Node7 -->
<g id="edge6" class="edge"><title>Node3&#45;&gt;Node7</title>
<path fill="none" stroke="midnightblue" d="M316.277,-23.4312C325.099,-22.3706 334.186,-21.2781 343.187,-20.1961"/>
<polygon fill="midnightblue" stroke="midnightblue" points="343.782,-23.6499 353.293,-18.9812 342.946,-16.6999 343.782,-23.6499"/>
</g>
<!-- Node5 -->
<g id="node5" class="node"><title>Node5</title>
<g id="a_node5"><a xlink:href="class_o_auth_request.html#ae544b1c10b82d5a82dcc259064763420" target="_top" xlink:title="util function: current nonce ">
<polygon fill="white" stroke="black" points="543.074,-90 543.074,-122 666.926,-122 666.926,-90 543.074,-90"/>
<text text-anchor="start" x="551.074" y="-108" font-family="Helvetica,sans-Serif" font-size="10.00">OAuthRequest\generate</text>
<text text-anchor="middle" x="605" y="-96" font-family="Helvetica,sans-Serif" font-size="10.00">_nonce</text>
</a>
</g>
</g>
<!-- Node4&#45;&gt;Node5 -->
<g id="edge4" class="edge"><title>Node4&#45;&gt;Node5</title>
<path fill="none" stroke="midnightblue" d="M485.055,-71.1367C502.36,-76.209 521.624,-81.8552 539.522,-87.1012"/>
<polygon fill="midnightblue" stroke="midnightblue" points="538.723,-90.5142 549.303,-89.9683 540.692,-83.7968 538.723,-90.5142"/>
</g>
<!-- Node6 -->
<g id="node6" class="node"><title>Node6</title>
<g id="a_node6"><a xlink:href="class_o_auth_request.html#adfc6b936799f705d9a4442961a26e8cb" target="_top" xlink:title="util function: current timestamp ">
<polygon fill="white" stroke="black" points="543.074,-39 543.074,-71 666.926,-71 666.926,-39 543.074,-39"/>
<text text-anchor="start" x="551.074" y="-57" font-family="Helvetica,sans-Serif" font-size="10.00">OAuthRequest\generate</text>
<text text-anchor="middle" x="605" y="-45" font-family="Helvetica,sans-Serif" font-size="10.00">_timestamp</text>
</a>
</g>
</g>
<!-- Node4&#45;&gt;Node6 -->
<g id="edge5" class="edge"><title>Node4&#45;&gt;Node6</title>
<path fill="none" stroke="midnightblue" d="M506.066,-55C514.939,-55 523.966,-55 532.771,-55"/>
<polygon fill="midnightblue" stroke="midnightblue" points="532.981,-58.5001 542.981,-55 532.981,-51.5001 532.981,-58.5001"/>
</g>
<!-- Node8 -->
<g id="node8" class="node"><title>Node8</title>
<g id="a_node8"><a xlink:href="class_c_t_c_t_exception.html#a6a86531406328bbd2a6c6252b7fb3a70" target="_top" xlink:title="CTCTException\\logError">
<polygon fill="white" stroke="black" points="542.54,-0 542.54,-20 667.46,-20 667.46,-0 542.54,-0"/>
<text text-anchor="middle" x="605" y="-6" font-family="Helvetica,sans-Serif" font-size="10.00">CTCTException\logError</text>
</a>
</g>
</g>
<!-- Node7&#45;&gt;Node8 -->
<g id="edge7" class="edge"><title>Node7&#45;&gt;Node8</title>
<path fill="none" stroke="midnightblue" d="M504.549,-10C513.73,-10 523.101,-10 532.239,-10"/>
<polygon fill="midnightblue" stroke="midnightblue" points="532.437,-13.5001 542.437,-10 532.436,-6.5001 532.437,-13.5001"/>
</g>
</g>
</svg>
