<?xml version="1.0" encoding="UTF-8" standalone="no"?>
<!DOCTYPE svg PUBLIC "-//W3C//DTD SVG 1.1//EN"
 "http://www.w3.org/Graphics/SVG/1.1/DTD/svg11.dtd">
<!-- Generated by graphviz version 2.30.1 (20130221.2233)
 -->
<!-- Title: JsonLoader\getListsJson Pages: 1 -->
<svg width="306pt" height="91pt"
 viewBox="0.00 0.00 306.00 91.00" xmlns="http://www.w3.org/2000/svg" xmlns:xlink="http://www.w3.org/1999/xlink">
<g id="graph0" class="graph" transform="scale(1 1) rotate(0) translate(4 87)">
<title>JsonLoader\getListsJson</title>
<polygon fill="white" stroke="white" points="-4,5 -4,-87 303,-87 303,5 -4,5"/>
<!-- Node1 -->
<g id="node1" class="node"><title>Node1</title>
<polygon fill="#bfbfbf" stroke="black" points="0.6875,-31 0.6875,-51 127.312,-51 127.312,-31 0.6875,-31"/>
<text text-anchor="middle" x="64" y="-37" font-family="Helvetica,sans-Serif" font-size="10.00">JsonLoader\getListsJson</text>
</g>
<!-- Node2 -->
<g id="node2" class="node"><title>Node2</title>
<g id="a_node2"><a xlink:href="class_list_service_unit_test.html#af2281ecde5199ab215613fd8bee916c4" target="_top" xlink:title="ListServiceUnitTest\l\\testGetLists">
<polygon fill="white" stroke="black" points="180.485,-51 180.485,-83 281.515,-83 281.515,-51 180.485,-51"/>
<text text-anchor="start" x="188.485" y="-69" font-family="Helvetica,sans-Serif" font-size="10.00">ListServiceUnitTest</text>
<text text-anchor="middle" x="231" y="-57" font-family="Helvetica,sans-Serif" font-size="10.00">\testGetLists</text>
</a>
</g>
</g>
<!-- Node1&#45;&gt;Node2 -->
<g id="edge1" class="edge"><title>Node1&#45;&gt;Node2</title>
<path fill="none" stroke="midnightblue" d="M137.349,-52.4004C151.88,-54.6902 166.838,-57.0473 180.383,-59.1815"/>
<polygon fill="midnightblue" stroke="midnightblue" points="137.802,-48.9288 127.379,-50.8295 136.713,-55.8435 137.802,-48.9288"/>
</g>
<!-- Node3 -->
<g id="node3" class="node"><title>Node3</title>
<g id="a_node3"><a xlink:href="class_list_service_unit_test.html#a7a8c6187e858ec2ec55aad15c5c63956" target="_top" xlink:title="ListServiceUnitTest\l\\testGetListsModifiedSince">
<polygon fill="white" stroke="black" points="163.806,-0 163.806,-32 298.194,-32 298.194,-0 163.806,-0"/>
<text text-anchor="start" x="171.806" y="-18" font-family="Helvetica,sans-Serif" font-size="10.00">ListServiceUnitTest</text>
<text text-anchor="middle" x="231" y="-6" font-family="Helvetica,sans-Serif" font-size="10.00">\testGetListsModifiedSince</text>
</a>
</g>
</g>
<!-- Node1&#45;&gt;Node3 -->
<g id="edge2" class="edge"><title>Node1&#45;&gt;Node3</title>
<path fill="none" stroke="midnightblue" d="M137.506,-30.0142C146.212,-28.6952 155.068,-27.3533 163.679,-26.0486"/>
<polygon fill="midnightblue" stroke="midnightblue" points="136.742,-26.5899 127.379,-31.5486 137.791,-33.5109 136.742,-26.5899"/>
</g>
</g>
</svg>
