<?xml version="1.0" encoding="UTF-8" standalone="no"?>
<!DOCTYPE svg PUBLIC "-//W3C//DTD SVG 1.1//EN"
 "http://www.w3.org/Graphics/SVG/1.1/DTD/svg11.dtd">
<!-- Generated by graphviz version 2.30.1 (20130221.2233)
 -->
<!-- Title: WP_CTCT\__construct Pages: 1 -->
<svg width="260pt" height="67pt"
 viewBox="0.00 0.00 260.00 67.00" xmlns="http://www.w3.org/2000/svg" xmlns:xlink="http://www.w3.org/1999/xlink">
<g id="graph0" class="graph" transform="scale(1 1) rotate(0) translate(4 63)">
<title>WP_CTCT\__construct</title>
<polygon fill="white" stroke="white" points="-4,5 -4,-63 257,-63 257,5 -4,5"/>
<!-- Node1 -->
<g id="node1" class="node"><title>Node1</title>
<polygon fill="#bfbfbf" stroke="black" points="0.598633,-19 0.598633,-39 119.401,-39 119.401,-19 0.598633,-19"/>
<text text-anchor="middle" x="60" y="-25" font-family="Helvetica,sans-Serif" font-size="10.00">WP_CTCT\__construct</text>
</g>
<!-- Node2 -->
<g id="node2" class="node"><title>Node2</title>
<g id="a_node2"><a xlink:href="class_exceptional.html#ab42943a9bf51feb7f3790680b0f1489c" target="_top" xlink:title="Exceptional\\setup">
<polygon fill="white" stroke="black" points="156.53,-39 156.53,-59 251.47,-59 251.47,-39 156.53,-39"/>
<text text-anchor="middle" x="204" y="-45" font-family="Helvetica,sans-Serif" font-size="10.00">Exceptional\setup</text>
</a>
</g>
</g>
<!-- Node1&#45;&gt;Node2 -->
<g id="edge1" class="edge"><title>Node1&#45;&gt;Node2</title>
<path fill="none" stroke="midnightblue" d="M119.577,-37.2502C128.362,-38.4877 137.41,-39.762 146.159,-40.9942"/>
<polygon fill="midnightblue" stroke="midnightblue" points="145.868,-44.4876 156.258,-42.4166 146.844,-37.5561 145.868,-44.4876"/>
</g>
<!-- Node3 -->
<g id="node3" class="node"><title>Node3</title>
<g id="a_node3"><a xlink:href="class_w_p___c_t_c_t.html#a3f205c224e9c08358d885fe489c8d82e" target="_top" xlink:title="WP_CTCT\\setup">
<polygon fill="white" stroke="black" points="158.214,-0 158.214,-20 249.786,-20 249.786,-0 158.214,-0"/>
<text text-anchor="middle" x="204" y="-6" font-family="Helvetica,sans-Serif" font-size="10.00">WP_CTCT\setup</text>
</a>
</g>
</g>
<!-- Node1&#45;&gt;Node3 -->
<g id="edge2" class="edge"><title>Node1&#45;&gt;Node3</title>
<path fill="none" stroke="midnightblue" d="M119.577,-21.1623C129.002,-19.9011 138.729,-18.5996 148.065,-17.3504"/>
<polygon fill="midnightblue" stroke="midnightblue" points="148.562,-20.8153 158.009,-16.0199 147.633,-13.8771 148.562,-20.8153"/>
</g>
</g>
</svg>
