<?xml version="1.0" encoding="UTF-8" standalone="no"?>
<!DOCTYPE svg PUBLIC "-//W3C//DTD SVG 1.1//EN"
 "http://www.w3.org/Graphics/SVG/1.1/DTD/svg11.dtd">
<!-- Generated by graphviz version 2.30.1 (20130221.2233)
 -->
<!-- Title: CTCT_Admin_Page\getTitle Pages: 1 -->
<svg width="516pt" height="175pt"
 viewBox="0.00 0.00 516.00 175.00" xmlns="http://www.w3.org/2000/svg" xmlns:xlink="http://www.w3.org/1999/xlink">
<g id="graph0" class="graph" transform="scale(1 1) rotate(0) translate(4 171)">
<title>CTCT_Admin_Page\getTitle</title>
<polygon fill="white" stroke="white" points="-4,5 -4,-171 513,-171 513,5 -4,5"/>
<!-- Node1 -->
<g id="node1" class="node"><title>Node1</title>
<polygon fill="#bfbfbf" stroke="black" points="0.65625,-102 0.65625,-122 141.344,-122 141.344,-102 0.65625,-102"/>
<text text-anchor="middle" x="71" y="-108" font-family="Helvetica,sans-Serif" font-size="10.00">CTCT_Admin_Page\getTitle</text>
</g>
<!-- Node2 -->
<g id="node2" class="node"><title>Node2</title>
<g id="a_node2"><a xlink:href="class_c_t_c_t___admin___page.html#af158e902eb69d577d08a4272d187509f" target="_top" xlink:title="CTCT_Admin_Page\\__construct">
<polygon fill="white" stroke="black" points="178.022,-147 178.022,-167 337.978,-167 337.978,-147 178.022,-147"/>
<text text-anchor="middle" x="258" y="-153" font-family="Helvetica,sans-Serif" font-size="10.00">CTCT_Admin_Page\__construct</text>
</a>
</g>
</g>
<!-- Node1&#45;&gt;Node2 -->
<g id="edge1" class="edge"><title>Node1&#45;&gt;Node2</title>
<path fill="none" stroke="midnightblue" d="M123.491,-124.525C152.556,-131.595 188.396,-140.312 215.621,-146.935"/>
<polygon fill="midnightblue" stroke="midnightblue" points="124.062,-121.062 113.518,-122.099 122.407,-127.863 124.062,-121.062"/>
</g>
<!-- Node3 -->
<g id="node3" class="node"><title>Node3</title>
<g id="a_node3"><a xlink:href="class_c_t_c_t___admin___campaigns.html#af6d682264815e597f9f7bc4510845b9e" target="_top" xlink:title="CTCT_Admin_Campaigns\l\\getNavTitle">
<polygon fill="white" stroke="black" points="191.646,-96 191.646,-128 324.354,-128 324.354,-96 191.646,-96"/>
<text text-anchor="start" x="199.646" y="-114" font-family="Helvetica,sans-Serif" font-size="10.00">CTCT_Admin_Campaigns</text>
<text text-anchor="middle" x="258" y="-102" font-family="Helvetica,sans-Serif" font-size="10.00">\getNavTitle</text>
</a>
</g>
</g>
<!-- Node1&#45;&gt;Node3 -->
<g id="edge2" class="edge"><title>Node1&#45;&gt;Node3</title>
<path fill="none" stroke="midnightblue" d="M151.519,-112C164.853,-112 178.553,-112 191.483,-112"/>
<polygon fill="midnightblue" stroke="midnightblue" points="151.414,-108.5 141.414,-112 151.413,-115.5 151.414,-108.5"/>
</g>
<!-- Node4 -->
<g id="node4" class="node"><title>Node4</title>
<g id="a_node4"><a xlink:href="class_c_t_c_t___admin___page.html#ad4d8edcfbf3023f7f18a6d188adaf99c" target="_top" xlink:title="CTCT_Admin_Page\\page">
<polygon fill="white" stroke="black" points="192.747,-57 192.747,-77 323.253,-77 323.253,-57 192.747,-57"/>
<text text-anchor="middle" x="258" y="-63" font-family="Helvetica,sans-Serif" font-size="10.00">CTCT_Admin_Page\page</text>
</a>
</g>
</g>
<!-- Node1&#45;&gt;Node4 -->
<g id="edge3" class="edge"><title>Node1&#45;&gt;Node4</title>
<path fill="none" stroke="midnightblue" d="M123.491,-99.4752C152.556,-92.4052 188.396,-83.6876 215.621,-77.0652"/>
<polygon fill="midnightblue" stroke="midnightblue" points="122.407,-96.1367 113.518,-101.901 124.062,-102.938 122.407,-96.1367"/>
</g>
<!-- Node5 -->
<g id="node5" class="node"><title>Node5</title>
<g id="a_node5"><a xlink:href="class_c_t_c_t___constant___analytics.html#ad379ea8b9d4f8c7735b0f3adeac838fe" target="_top" xlink:title="CTCT_Constant_Analytics\l\\addActions">
<polygon fill="white" stroke="black" points="374.089,-102 374.089,-134 507.911,-134 507.911,-102 374.089,-102"/>
<text text-anchor="start" x="382.089" y="-120" font-family="Helvetica,sans-Serif" font-size="10.00">CTCT_Constant_Analytics</text>
<text text-anchor="middle" x="441" y="-108" font-family="Helvetica,sans-Serif" font-size="10.00">\addActions</text>
</a>
</g>
</g>
<!-- Node4&#45;&gt;Node5 -->
<g id="edge4" class="edge"><title>Node4&#45;&gt;Node5</title>
<path fill="none" stroke="midnightblue" d="M310.05,-79.549C319.369,-81.9463 328.992,-84.4923 338,-87 354.671,-91.6409 372.771,-97.027 389.032,-101.995"/>
<polygon fill="midnightblue" stroke="midnightblue" points="310.654,-76.0913 300.1,-77.0149 308.926,-82.8747 310.654,-76.0913"/>
</g>
<!-- Node6 -->
<g id="node6" class="node"><title>Node6</title>
<g id="a_node6"><a xlink:href="class_c_t_c_t___constant___analytics.html#a0b5589251b3a6cd9cf457fed695c885c" target="_top" xlink:title="CTCT_Constant_Analytics\l\\enqueue_scripts">
<polygon fill="white" stroke="black" points="374.089,-51 374.089,-83 507.911,-83 507.911,-51 374.089,-51"/>
<text text-anchor="start" x="382.089" y="-69" font-family="Helvetica,sans-Serif" font-size="10.00">CTCT_Constant_Analytics</text>
<text text-anchor="middle" x="441" y="-57" font-family="Helvetica,sans-Serif" font-size="10.00">\enqueue_scripts</text>
</a>
</g>
</g>
<!-- Node4&#45;&gt;Node6 -->
<g id="edge5" class="edge"><title>Node4&#45;&gt;Node6</title>
<path fill="none" stroke="midnightblue" d="M333.49,-67C346.936,-67 360.869,-67 374.051,-67"/>
<polygon fill="midnightblue" stroke="midnightblue" points="333.324,-63.5001 323.323,-67 333.323,-70.5001 333.324,-63.5001"/>
</g>
<!-- Node7 -->
<g id="node7" class="node"><title>Node7</title>
<g id="a_node7"><a xlink:href="class_c_t_c_t___constant___analytics.html#a835b6b00979fb3965d01a93767d5199e" target="_top" xlink:title="CTCT_Constant_Analytics\l\\admin_head">
<polygon fill="white" stroke="black" points="374.089,-0 374.089,-32 507.911,-32 507.911,-0 374.089,-0"/>
<text text-anchor="start" x="382.089" y="-18" font-family="Helvetica,sans-Serif" font-size="10.00">CTCT_Constant_Analytics</text>
<text text-anchor="middle" x="441" y="-6" font-family="Helvetica,sans-Serif" font-size="10.00">\admin_head</text>
</a>
</g>
</g>
<!-- Node4&#45;&gt;Node7 -->
<g id="edge6" class="edge"><title>Node4&#45;&gt;Node7</title>
<path fill="none" stroke="midnightblue" d="M304.582,-54.1565C328.356,-47.4576 357.672,-39.1974 382.94,-32.0777"/>
<polygon fill="midnightblue" stroke="midnightblue" points="303.436,-50.8431 294.76,-56.924 305.334,-57.5807 303.436,-50.8431"/>
</g>
</g>
</svg>
