<?xml version="1.0" encoding="UTF-8" standalone="no"?>
<!DOCTYPE svg PUBLIC "-//W3C//DTD SVG 1.1//EN"
 "http://www.w3.org/Graphics/SVG/1.1/DTD/svg11.dtd">
<!-- Generated by graphviz version 2.30.1 (20130221.2233)
 -->
<!-- Title: Composer\Autoload\ClassLoader\loadClass Pages: 1 -->
<svg width="372pt" height="40pt"
 viewBox="0.00 0.00 372.00 40.00" xmlns="http://www.w3.org/2000/svg" xmlns:xlink="http://www.w3.org/1999/xlink">
<g id="graph0" class="graph" transform="scale(1 1) rotate(0) translate(4 36)">
<title>Composer\Autoload\ClassLoader\loadClass</title>
<polygon fill="white" stroke="white" points="-4,5 -4,-36 369,-36 369,5 -4,5"/>
<!-- Node1 -->
<g id="node1" class="node"><title>Node1</title>
<polygon fill="#bfbfbf" stroke="black" points="0.347656,-0 0.347656,-32 163.652,-32 163.652,-0 0.347656,-0"/>
<text text-anchor="start" x="8.34766" y="-18" font-family="Helvetica,sans-Serif" font-size="10.00">Composer\Autoload\ClassLoader</text>
<text text-anchor="middle" x="82" y="-6" font-family="Helvetica,sans-Serif" font-size="10.00">\loadClass</text>
</g>
<!-- Node2 -->
<g id="node2" class="node"><title>Node2</title>
<g id="a_node2"><a xlink:href="class_composer_1_1_autoload_1_1_class_loader.html#a505e9f4e4a29f6bd47bc694e78ae46c3" target="_top" xlink:title="Finds the path to the file where the class is defined. ">
<polygon fill="white" stroke="black" points="200.348,-0 200.348,-32 363.652,-32 363.652,-0 200.348,-0"/>
<text text-anchor="start" x="208.348" y="-18" font-family="Helvetica,sans-Serif" font-size="10.00">Composer\Autoload\ClassLoader</text>
<text text-anchor="middle" x="282" y="-6" font-family="Helvetica,sans-Serif" font-size="10.00">\findFile</text>
</a>
</g>
</g>
<!-- Node1&#45;&gt;Node2 -->
<g id="edge1" class="edge"><title>Node1&#45;&gt;Node2</title>
<path fill="none" stroke="midnightblue" d="M163.82,-16C172.428,-16 181.226,-16 189.941,-16"/>
<polygon fill="midnightblue" stroke="midnightblue" points="190.118,-19.5001 200.118,-16 190.118,-12.5001 190.118,-19.5001"/>
</g>
</g>
</svg>
