<?xml version="1.0" encoding="UTF-8" standalone="no"?>
<!DOCTYPE svg PUBLIC "-//W3C//DTD SVG 1.1//EN"
 "http://www.w3.org/Graphics/SVG/1.1/DTD/svg11.dtd">
<!-- Generated by graphviz version 2.30.1 (20130221.2233)
 -->
<!-- Title: JsonLoader\getContactsTextContents Pages: 1 -->
<svg width="342pt" height="52pt"
 viewBox="0.00 0.00 342.00 52.00" xmlns="http://www.w3.org/2000/svg" xmlns:xlink="http://www.w3.org/1999/xlink">
<g id="graph0" class="graph" transform="scale(1 1) rotate(0) translate(4 48)">
<title>JsonLoader\getContactsTextContents</title>
<polygon fill="white" stroke="white" points="-4,5 -4,-48 339,-48 339,5 -4,5"/>
<!-- Node1 -->
<g id="node1" class="node"><title>Node1</title>
<polygon fill="#bfbfbf" stroke="black" points="0.628418,-6 0.628418,-38 143.372,-38 143.372,-6 0.628418,-6"/>
<text text-anchor="start" x="8.62842" y="-24" font-family="Helvetica,sans-Serif" font-size="10.00">JsonLoader\getContactsText</text>
<text text-anchor="middle" x="72" y="-12" font-family="Helvetica,sans-Serif" font-size="10.00">Contents</text>
</g>
<!-- Node2 -->
<g id="node2" class="node"><title>Node2</title>
<g id="a_node2"><a xlink:href="class_activity_service_unit_test.html#a86b77e0acbb7c271d0784686c0070a99" target="_top" xlink:title="ActivityServiceUnitTest\l\\testAddCreateContactsActivity\lFromFile">
<polygon fill="white" stroke="black" points="180.082,-0 180.082,-44 333.918,-44 333.918,-0 180.082,-0"/>
<text text-anchor="start" x="188.082" y="-30" font-family="Helvetica,sans-Serif" font-size="10.00">ActivityServiceUnitTest</text>
<text text-anchor="start" x="188.082" y="-18" font-family="Helvetica,sans-Serif" font-size="10.00">\testAddCreateContactsActivity</text>
<text text-anchor="middle" x="257" y="-6" font-family="Helvetica,sans-Serif" font-size="10.00">FromFile</text>
</a>
</g>
</g>
<!-- Node1&#45;&gt;Node2 -->
<g id="edge1" class="edge"><title>Node1&#45;&gt;Node2</title>
<path fill="none" stroke="midnightblue" d="M153.701,-22C162.468,-22 171.37,-22 180.077,-22"/>
<polygon fill="midnightblue" stroke="midnightblue" points="153.491,-18.5001 143.491,-22 153.491,-25.5001 153.491,-18.5001"/>
</g>
</g>
</svg>
