<?xml version="1.0" encoding="UTF-8" standalone="no"?>
<!DOCTYPE svg PUBLIC "-//W3C//DTD SVG 1.1//EN"
 "http://www.w3.org/Graphics/SVG/1.1/DTD/svg11.dtd">
<!-- Generated by graphviz version 2.30.1 (20130221.2233)
 -->
<!-- Title: Ctct\Components\Activities\AddContacts\toJson Pages: 1 -->
<svg width="324pt" height="40pt"
 viewBox="0.00 0.00 324.00 40.00" xmlns="http://www.w3.org/2000/svg" xmlns:xlink="http://www.w3.org/1999/xlink">
<g id="graph0" class="graph" transform="scale(1 1) rotate(0) translate(4 36)">
<title>Ctct\Components\Activities\AddContacts\toJson</title>
<polygon fill="white" stroke="white" points="-4,5 -4,-36 321,-36 321,5 -4,5"/>
<!-- Node1 -->
<g id="node1" class="node"><title>Node1</title>
<polygon fill="#bfbfbf" stroke="black" points="0.256348,-0 0.256348,-32 135.744,-32 135.744,-0 0.256348,-0"/>
<text text-anchor="start" x="8.25635" y="-18" font-family="Helvetica,sans-Serif" font-size="10.00">Ctct\Components\Activities</text>
<text text-anchor="middle" x="68" y="-6" font-family="Helvetica,sans-Serif" font-size="10.00">\AddContacts\toJson</text>
</g>
<!-- Node2 -->
<g id="node2" class="node"><title>Node2</title>
<g id="a_node2"><a xlink:href="class_ctct_1_1_services_1_1_activity_service.html#a7585bd43669c8f9c4e1b6884e58322f6" target="_top" xlink:title="Create an Add Contacts Activity. ">
<polygon fill="white" stroke="black" points="172.653,-0 172.653,-32 315.347,-32 315.347,-0 172.653,-0"/>
<text text-anchor="start" x="180.653" y="-18" font-family="Helvetica,sans-Serif" font-size="10.00">Ctct\Services\ActivityService</text>
<text text-anchor="middle" x="244" y="-6" font-family="Helvetica,sans-Serif" font-size="10.00">\createAddContactsActivity</text>
</a>
</g>
</g>
<!-- Node1&#45;&gt;Node2 -->
<g id="edge1" class="edge"><title>Node1&#45;&gt;Node2</title>
<path fill="none" stroke="midnightblue" d="M145.784,-16C154.722,-16 163.806,-16 172.651,-16"/>
<polygon fill="midnightblue" stroke="midnightblue" points="145.775,-12.5001 135.775,-16 145.775,-19.5001 145.775,-12.5001"/>
</g>
</g>
</svg>
