<?xml version="1.0" encoding="UTF-8" standalone="no"?>
<!DOCTYPE svg PUBLIC "-//W3C//DTD SVG 1.1//EN"
 "http://www.w3.org/Graphics/SVG/1.1/DTD/svg11.dtd">
<!-- Generated by graphviz version 2.30.1 (20130221.2233)
 -->
<!-- Title: OAuthServer\get_signature_method Pages: 1 -->
<svg width="506pt" height="142pt"
 viewBox="0.00 0.00 506.00 142.00" xmlns="http://www.w3.org/2000/svg" xmlns:xlink="http://www.w3.org/1999/xlink">
<g id="graph0" class="graph" transform="scale(1 1) rotate(0) translate(4 138)">
<title>OAuthServer\get_signature_method</title>
<polygon fill="white" stroke="white" points="-4,5 -4,-138 503,-138 503,5 -4,5"/>
<!-- Node1 -->
<g id="node1" class="node"><title>Node1</title>
<polygon fill="#bfbfbf" stroke="black" points="0.40918,-51 0.40918,-83 137.591,-83 137.591,-51 0.40918,-51"/>
<text text-anchor="start" x="8.40918" y="-69" font-family="Helvetica,sans-Serif" font-size="10.00">OAuthServer\get_signature</text>
<text text-anchor="middle" x="69" y="-57" font-family="Helvetica,sans-Serif" font-size="10.00">_method</text>
</g>
<!-- Node2 -->
<g id="node2" class="node"><title>Node2</title>
<g id="a_node2"><a xlink:href="class_o_auth_server.html#a42f0158a9a4c166bc9372054626d93ca" target="_top" xlink:title="all&#45;in&#45;one function to check the signature on a request should guess the signature method appropriate...">
<polygon fill="white" stroke="black" points="174.298,-57 174.298,-77 323.702,-77 323.702,-57 174.298,-57"/>
<text text-anchor="middle" x="249" y="-63" font-family="Helvetica,sans-Serif" font-size="10.00">OAuthServer\check_signature</text>
</a>
</g>
</g>
<!-- Node1&#45;&gt;Node2 -->
<g id="edge1" class="edge"><title>Node1&#45;&gt;Node2</title>
<path fill="none" stroke="midnightblue" d="M147.939,-67C156.648,-67 165.5,-67 174.156,-67"/>
<polygon fill="midnightblue" stroke="midnightblue" points="147.802,-63.5001 137.802,-67 147.802,-70.5001 147.802,-63.5001"/>
</g>
<!-- Node3 -->
<g id="node3" class="node"><title>Node3</title>
<g id="a_node3"><a xlink:href="class_o_auth_server.html#a5c76359726e685013d2e0cb8a1abe09a" target="_top" xlink:title="process an access_token request returns the access token on success ">
<polygon fill="white" stroke="black" points="361.527,-102 361.527,-134 496.473,-134 496.473,-102 361.527,-102"/>
<text text-anchor="start" x="369.527" y="-120" font-family="Helvetica,sans-Serif" font-size="10.00">OAuthServer\fetch_access</text>
<text text-anchor="middle" x="429" y="-108" font-family="Helvetica,sans-Serif" font-size="10.00">_token</text>
</a>
</g>
</g>
<!-- Node2&#45;&gt;Node3 -->
<g id="edge2" class="edge"><title>Node2&#45;&gt;Node3</title>
<path fill="none" stroke="midnightblue" d="M294.826,-79.8435C318.207,-86.5424 347.036,-94.8026 371.886,-101.922"/>
<polygon fill="midnightblue" stroke="midnightblue" points="295.744,-76.4658 285.167,-77.076 293.816,-83.195 295.744,-76.4658"/>
</g>
<!-- Node4 -->
<g id="node4" class="node"><title>Node4</title>
<g id="a_node4"><a xlink:href="class_o_auth_server.html#aa91f1a763ab36c576ebf9319ac4751f6" target="_top" xlink:title="process a request_token request returns the request token on success ">
<polygon fill="white" stroke="black" points="360.412,-51 360.412,-83 497.588,-83 497.588,-51 360.412,-51"/>
<text text-anchor="start" x="368.412" y="-69" font-family="Helvetica,sans-Serif" font-size="10.00">OAuthServer\fetch_request</text>
<text text-anchor="middle" x="429" y="-57" font-family="Helvetica,sans-Serif" font-size="10.00">_token</text>
</a>
</g>
</g>
<!-- Node2&#45;&gt;Node4 -->
<g id="edge3" class="edge"><title>Node2&#45;&gt;Node4</title>
<path fill="none" stroke="midnightblue" d="M334.166,-67C342.917,-67 351.731,-67 360.268,-67"/>
<polygon fill="midnightblue" stroke="midnightblue" points="333.942,-63.5001 323.942,-67 333.942,-70.5001 333.942,-63.5001"/>
</g>
<!-- Node5 -->
<g id="node5" class="node"><title>Node5</title>
<g id="a_node5"><a xlink:href="class_o_auth_server.html#ad31e95096adeac980a8a99f59c4cadc6" target="_top" xlink:title="verify an api call, checks all the parameters ">
<polygon fill="white" stroke="black" points="378.764,-0 378.764,-32 479.236,-32 479.236,-0 378.764,-0"/>
<text text-anchor="start" x="386.764" y="-18" font-family="Helvetica,sans-Serif" font-size="10.00">OAuthServer\verify</text>
<text text-anchor="middle" x="429" y="-6" font-family="Helvetica,sans-Serif" font-size="10.00">_request</text>
</a>
</g>
</g>
<!-- Node2&#45;&gt;Node5 -->
<g id="edge4" class="edge"><title>Node2&#45;&gt;Node5</title>
<path fill="none" stroke="midnightblue" d="M294.97,-54.1153C320.517,-46.7956 352.535,-37.6221 378.757,-30.109"/>
<polygon fill="midnightblue" stroke="midnightblue" points="293.816,-50.805 285.167,-56.924 295.744,-57.5342 293.816,-50.805"/>
</g>
</g>
</svg>
