<?xml version="1.0" encoding="UTF-8" standalone="no"?>
<!DOCTYPE svg PUBLIC "-//W3C//DTD SVG 1.1//EN"
 "http://www.w3.org/Graphics/SVG/1.1/DTD/svg11.dtd">
<!-- Generated by graphviz version 2.30.1 (20130221.2233)
 -->
<!-- Title: Ctct\Services\ContactService\deleteContactFromList Pages: 1 -->
<svg width="324pt" height="79pt"
 viewBox="0.00 0.00 324.00 79.00" xmlns="http://www.w3.org/2000/svg" xmlns:xlink="http://www.w3.org/1999/xlink">
<g id="graph0" class="graph" transform="scale(1 1) rotate(0) translate(4 75)">
<title>Ctct\Services\ContactService\deleteContactFromList</title>
<polygon fill="white" stroke="white" points="-4,5 -4,-75 321,-75 321,5 -4,5"/>
<!-- Node1 -->
<g id="node1" class="node"><title>Node1</title>
<polygon fill="#bfbfbf" stroke="black" points="0.256348,-16 0.256348,-48 145.744,-48 145.744,-16 0.256348,-16"/>
<text text-anchor="start" x="8.25635" y="-34" font-family="Helvetica,sans-Serif" font-size="10.00">Ctct\Services\ContactService</text>
<text text-anchor="middle" x="73" y="-22" font-family="Helvetica,sans-Serif" font-size="10.00">\deleteContactFromList</text>
</g>
<!-- Node2 -->
<g id="node2" class="node"><title>Node2</title>
<g id="a_node2"><a xlink:href="class_ctct_1_1_services_1_1_base_service.html#a5c4ae0795fcc06c137b6e761963c4df6" target="_top" xlink:title="Build a url from the base url and query parameters array. ">
<polygon fill="white" stroke="black" points="182.091,-39 182.091,-71 315.909,-71 315.909,-39 182.091,-39"/>
<text text-anchor="start" x="190.091" y="-57" font-family="Helvetica,sans-Serif" font-size="10.00">Ctct\Services\BaseService</text>
<text text-anchor="middle" x="249" y="-45" font-family="Helvetica,sans-Serif" font-size="10.00">\buildUrl</text>
</a>
</g>
</g>
<!-- Node1&#45;&gt;Node2 -->
<g id="edge1" class="edge"><title>Node1&#45;&gt;Node2</title>
<path fill="none" stroke="midnightblue" d="M145.777,-41.4878C154.39,-42.6262 163.207,-43.7918 171.879,-44.938"/>
<polygon fill="midnightblue" stroke="midnightblue" points="171.598,-48.4312 181.97,-46.2719 172.515,-41.4915 171.598,-48.4312"/>
</g>
<!-- Node3 -->
<g id="node3" class="node"><title>Node3</title>
<g id="a_node3"><a xlink:href="class_ctct_1_1_util_1_1_config.html#ab224fae1ce1a1993c1ac42c708dc7de9" target="_top" xlink:title="Get a configuration property given a specified location, example usage: Config::get(&#39;auth.token_endpoint&#39;) ">
<polygon fill="white" stroke="black" points="199.318,-0 199.318,-20 298.682,-20 298.682,-0 199.318,-0"/>
<text text-anchor="middle" x="249" y="-6" font-family="Helvetica,sans-Serif" font-size="10.00">Ctct\Util\Config\get</text>
</a>
</g>
</g>
<!-- Node1&#45;&gt;Node3 -->
<g id="edge2" class="edge"><title>Node1&#45;&gt;Node3</title>
<path fill="none" stroke="midnightblue" d="M145.777,-22.9247C160.24,-21.096 175.283,-19.1941 189.238,-17.4296"/>
<polygon fill="midnightblue" stroke="midnightblue" points="189.702,-20.8989 199.184,-16.1721 188.824,-13.9542 189.702,-20.8989"/>
</g>
</g>
</svg>
