<?xml version="1.0" encoding="UTF-8" standalone="no"?>
<!DOCTYPE svg PUBLIC "-//W3C//DTD SVG 1.1//EN"
 "http://www.w3.org/Graphics/SVG/1.1/DTD/svg11.dtd">
<!-- Generated by graphviz version 2.30.1 (20130221.2233)
 -->
<!-- Title: CTCT_Admin_Page\print_scripts Pages: 1 -->
<svg width="508pt" height="67pt"
 viewBox="0.00 0.00 508.00 67.00" xmlns="http://www.w3.org/2000/svg" xmlns:xlink="http://www.w3.org/1999/xlink">
<g id="graph0" class="graph" transform="scale(1 1) rotate(0) translate(4 63)">
<title>CTCT_Admin_Page\print_scripts</title>
<polygon fill="white" stroke="white" points="-4,5 -4,-63 505,-63 505,5 -4,5"/>
<!-- Node1 -->
<g id="node1" class="node"><title>Node1</title>
<polygon fill="#bfbfbf" stroke="black" points="0.143066,-13 0.143066,-45 127.857,-45 127.857,-13 0.143066,-13"/>
<text text-anchor="start" x="8.14307" y="-31" font-family="Helvetica,sans-Serif" font-size="10.00">CTCT_Admin_Page\print</text>
<text text-anchor="middle" x="64" y="-19" font-family="Helvetica,sans-Serif" font-size="10.00">_scripts</text>
</g>
<!-- Node2 -->
<g id="node2" class="node"><title>Node2</title>
<g id="a_node2"><a xlink:href="class_c_t_c_t___admin___page.html#af221f8bc37ce02b340a1e3e3e15a066e" target="_top" xlink:title="CTCT_Admin_Page\\addScripts">
<polygon fill="white" stroke="black" points="166.247,-39 166.247,-59 321.753,-59 321.753,-39 166.247,-39"/>
<text text-anchor="middle" x="244" y="-45" font-family="Helvetica,sans-Serif" font-size="10.00">CTCT_Admin_Page\addScripts</text>
</a>
</g>
</g>
<!-- Node1&#45;&gt;Node2 -->
<g id="edge1" class="edge"><title>Node1&#45;&gt;Node2</title>
<path fill="none" stroke="midnightblue" d="M128.007,-36.0794C137.04,-37.0944 146.466,-38.1534 155.863,-39.2094"/>
<polygon fill="midnightblue" stroke="midnightblue" points="155.702,-42.7132 166.03,-40.3517 156.483,-35.7569 155.702,-42.7132"/>
</g>
<!-- Node3 -->
<g id="node3" class="node"><title>Node3</title>
<g id="a_node3"><a xlink:href="class_c_t_c_t___admin___page.html#a05b33ad05b2a8fb25be1f21015422239" target="_top" xlink:title="CTCT_Admin_Page\\getPointers">
<polygon fill="white" stroke="black" points="164.577,-0 164.577,-20 323.423,-20 323.423,-0 164.577,-0"/>
<text text-anchor="middle" x="244" y="-6" font-family="Helvetica,sans-Serif" font-size="10.00">CTCT_Admin_Page\getPointers</text>
</a>
</g>
</g>
<!-- Node1&#45;&gt;Node3 -->
<g id="edge2" class="edge"><title>Node1&#45;&gt;Node3</title>
<path fill="none" stroke="midnightblue" d="M128.007,-22.2746C136.581,-21.3593 145.508,-20.4064 154.429,-19.4542"/>
<polygon fill="midnightblue" stroke="midnightblue" points="154.908,-22.923 164.48,-18.3813 154.165,-15.9626 154.908,-22.923"/>
</g>
<!-- Node4 -->
<g id="node4" class="node"><title>Node4</title>
<g id="a_node4"><a xlink:href="class_c_t_c_t___admin___page.html#af75e5afacc1fcfff476e13e5de52eefe" target="_top" xlink:title="CTCT_Admin_Page\\getKey">
<polygon fill="white" stroke="black" points="360.303,-0 360.303,-20 499.697,-20 499.697,-0 360.303,-0"/>
<text text-anchor="middle" x="430" y="-6" font-family="Helvetica,sans-Serif" font-size="10.00">CTCT_Admin_Page\getKey</text>
</a>
</g>
</g>
<!-- Node3&#45;&gt;Node4 -->
<g id="edge3" class="edge"><title>Node3&#45;&gt;Node4</title>
<path fill="none" stroke="midnightblue" d="M323.566,-10C332.342,-10 341.284,-10 350.065,-10"/>
<polygon fill="midnightblue" stroke="midnightblue" points="350.278,-13.5001 360.278,-10 350.278,-6.5001 350.278,-13.5001"/>
</g>
</g>
</svg>
