<?xml version="1.0" encoding="UTF-8" standalone="no"?>
<!DOCTYPE svg PUBLIC "-//W3C//DTD SVG 1.1//EN"
 "http://www.w3.org/Graphics/SVG/1.1/DTD/svg11.dtd">
<!-- Generated by graphviz version 2.30.1 (20130221.2233)
 -->
<!-- Title: Net_DNS_RR\new_from_string Pages: 1 -->
<svg width="610pt" height="40pt"
 viewBox="0.00 0.00 610.00 40.00" xmlns="http://www.w3.org/2000/svg" xmlns:xlink="http://www.w3.org/1999/xlink">
<g id="graph0" class="graph" transform="scale(1 1) rotate(0) translate(4 36)">
<title>Net_DNS_RR\new_from_string</title>
<polygon fill="white" stroke="white" points="-4,5 -4,-36 607,-36 607,5 -4,5"/>
<!-- Node1 -->
<g id="node1" class="node"><title>Node1</title>
<polygon fill="#bfbfbf" stroke="black" points="0.537109,-0 0.537109,-32 125.463,-32 125.463,-0 0.537109,-0"/>
<text text-anchor="start" x="8.53711" y="-18" font-family="Helvetica,sans-Serif" font-size="10.00">Net_DNS_RR\new_from</text>
<text text-anchor="middle" x="63" y="-6" font-family="Helvetica,sans-Serif" font-size="10.00">_string</text>
</g>
<!-- Node2 -->
<g id="node2" class="node"><title>Node2</title>
<g id="a_node2"><a xlink:href="class_net___d_n_s___r_r.html#a135785ee6a8c1f0a5e0597d7f61465b5" target="_top" xlink:title="Net_DNS_RR\\factory">
<polygon fill="white" stroke="black" points="162.485,-6 162.485,-26 273.515,-26 273.515,-6 162.485,-6"/>
<text text-anchor="middle" x="218" y="-12" font-family="Helvetica,sans-Serif" font-size="10.00">Net_DNS_RR\factory</text>
</a>
</g>
</g>
<!-- Node1&#45;&gt;Node2 -->
<g id="edge1" class="edge"><title>Node1&#45;&gt;Node2</title>
<path fill="none" stroke="midnightblue" d="M135.811,-16C144.743,-16 153.76,-16 162.373,-16"/>
<polygon fill="midnightblue" stroke="midnightblue" points="135.79,-12.5001 125.79,-16 135.79,-19.5001 135.79,-12.5001"/>
</g>
<!-- Node3 -->
<g id="node3" class="node"><title>Node3</title>
<g id="a_node3"><a xlink:href="class_net___d_n_s___packet.html#a8684f7ece05b01f65ec45160cca1852d" target="_top" xlink:title="Parses a resource record section of a packet. ">
<polygon fill="white" stroke="black" points="309.808,-6 309.808,-26 444.192,-26 444.192,-6 309.808,-6"/>
<text text-anchor="middle" x="377" y="-12" font-family="Helvetica,sans-Serif" font-size="10.00">Net_DNS_Packet\parse_rr</text>
</a>
</g>
</g>
<!-- Node2&#45;&gt;Node3 -->
<g id="edge2" class="edge"><title>Node2&#45;&gt;Node3</title>
<path fill="none" stroke="midnightblue" d="M284.118,-16C292.596,-16 301.288,-16 309.784,-16"/>
<polygon fill="midnightblue" stroke="midnightblue" points="283.911,-12.5001 273.911,-16 283.911,-19.5001 283.911,-12.5001"/>
</g>
<!-- Node4 -->
<g id="node4" class="node"><title>Node4</title>
<g id="a_node4"><a xlink:href="class_net___d_n_s___packet.html#a108461c26b058bf6aed5e4bcae9da3e6" target="_top" xlink:title="Parses a DNS packet returned by a DNS server. ">
<polygon fill="white" stroke="black" points="479.919,-6 479.919,-26 602.081,-26 602.081,-6 479.919,-6"/>
<text text-anchor="middle" x="541" y="-12" font-family="Helvetica,sans-Serif" font-size="10.00">Net_DNS_Packet\parse</text>
</a>
</g>
</g>
<!-- Node3&#45;&gt;Node4 -->
<g id="edge3" class="edge"><title>Node3&#45;&gt;Node4</title>
<path fill="none" stroke="midnightblue" d="M454.594,-16C463.031,-16 471.532,-16 479.729,-16"/>
<polygon fill="midnightblue" stroke="midnightblue" points="454.359,-12.5001 444.359,-16 454.359,-19.5001 454.359,-12.5001"/>
</g>
</g>
</svg>
