<?xml version="1.0" encoding="UTF-8" standalone="no"?>
<!DOCTYPE svg PUBLIC "-//W3C//DTD SVG 1.1//EN"
 "http://www.w3.org/Graphics/SVG/1.1/DTD/svg11.dtd">
<!-- Generated by graphviz version 2.30.1 (20130221.2233)
 -->
<!-- Title: KWSContact\getReadOnly Pages: 1 -->
<svg width="442pt" height="40pt"
 viewBox="0.00 0.00 442.00 40.00" xmlns="http://www.w3.org/2000/svg" xmlns:xlink="http://www.w3.org/1999/xlink">
<g id="graph0" class="graph" transform="scale(1 1) rotate(0) translate(4 36)">
<title>KWSContact\getReadOnly</title>
<polygon fill="white" stroke="white" points="-4,5 -4,-36 439,-36 439,5 -4,5"/>
<!-- Node1 -->
<g id="node1" class="node"><title>Node1</title>
<polygon fill="#bfbfbf" stroke="black" points="-0.194336,-6 -0.194336,-26 134.194,-26 134.194,-6 -0.194336,-6"/>
<text text-anchor="middle" x="67" y="-12" font-family="Helvetica,sans-Serif" font-size="10.00">KWSContact\getReadOnly</text>
</g>
<!-- Node2 -->
<g id="node2" class="node"><title>Node2</title>
<g id="a_node2"><a xlink:href="class_k_w_s_constant_contact.html#ab2beb4f9243e4865485c0035ec842364" target="_top" xlink:title="Add a new contact to an account. ">
<polygon fill="white" stroke="black" points="170.367,-0 170.367,-32 283.633,-32 283.633,-0 170.367,-0"/>
<text text-anchor="start" x="178.367" y="-18" font-family="Helvetica,sans-Serif" font-size="10.00">KWSConstantContact</text>
<text text-anchor="middle" x="227" y="-6" font-family="Helvetica,sans-Serif" font-size="10.00">\addContact</text>
</a>
</g>
</g>
<!-- Node1&#45;&gt;Node2 -->
<g id="edge1" class="edge"><title>Node1&#45;&gt;Node2</title>
<path fill="none" stroke="midnightblue" d="M144.577,-16C153.155,-16 161.771,-16 170.021,-16"/>
<polygon fill="midnightblue" stroke="midnightblue" points="144.548,-12.5001 134.548,-16 144.548,-19.5001 144.548,-12.5001"/>
</g>
<!-- Node3 -->
<g id="node3" class="node"><title>Node3</title>
<g id="a_node3"><a xlink:href="class_k_w_s_constant_contact.html#affa7a9ab01ddbf0d89537237c8da5459" target="_top" xlink:title="Add a contact if it doesn&#39;t exist and update it if it does. ">
<polygon fill="white" stroke="black" points="320.367,-0 320.367,-32 433.633,-32 433.633,-0 320.367,-0"/>
<text text-anchor="start" x="328.367" y="-18" font-family="Helvetica,sans-Serif" font-size="10.00">KWSConstantContact</text>
<text text-anchor="middle" x="377" y="-6" font-family="Helvetica,sans-Serif" font-size="10.00">\addUpdateContact</text>
</a>
</g>
</g>
<!-- Node2&#45;&gt;Node3 -->
<g id="edge2" class="edge"><title>Node2&#45;&gt;Node3</title>
<path fill="none" stroke="midnightblue" d="M294.024,-16C302.685,-16 311.494,-16 319.968,-16"/>
<polygon fill="midnightblue" stroke="midnightblue" points="293.952,-12.5001 283.952,-16 293.952,-19.5001 293.952,-12.5001"/>
</g>
</g>
</svg>
