<?xml version="1.0" encoding="UTF-8" standalone="no"?>
<!DOCTYPE svg PUBLIC "-//W3C//DTD SVG 1.1//EN"
 "http://www.w3.org/Graphics/SVG/1.1/DTD/svg11.dtd">
<!-- Generated by graphviz version 2.30.1 (20130221.2233)
 -->
<!-- Title: Ctct\Components\Activities\ActivityError\create Pages: 1 -->
<svg width="540pt" height="295pt"
 viewBox="0.00 0.00 540.00 295.00" xmlns="http://www.w3.org/2000/svg" xmlns:xlink="http://www.w3.org/1999/xlink">
<g id="graph0" class="graph" transform="scale(1 1) rotate(0) translate(4 291)">
<title>Ctct\Components\Activities\ActivityError\create</title>
<polygon fill="white" stroke="white" points="-4,5 -4,-291 537,-291 537,5 -4,5"/>
<!-- Node1 -->
<g id="node1" class="node"><title>Node1</title>
<polygon fill="#bfbfbf" stroke="black" points="0.256348,-127 0.256348,-159 135.744,-159 135.744,-127 0.256348,-127"/>
<text text-anchor="start" x="8.25635" y="-145" font-family="Helvetica,sans-Serif" font-size="10.00">Ctct\Components\Activities</text>
<text text-anchor="middle" x="68" y="-133" font-family="Helvetica,sans-Serif" font-size="10.00">\ActivityError\create</text>
</g>
<!-- Node2 -->
<g id="node2" class="node"><title>Node2</title>
<g id="a_node2"><a xlink:href="class_ctct_1_1_components_1_1_activities_1_1_activity.html#ad67770e21bcf6b61eef2f6c519763d03" target="_top" xlink:title="Factory method to create an Activity object from an array. ">
<polygon fill="white" stroke="black" points="172.256,-127 172.256,-159 307.744,-159 307.744,-127 172.256,-127"/>
<text text-anchor="start" x="180.256" y="-145" font-family="Helvetica,sans-Serif" font-size="10.00">Ctct\Components\Activities</text>
<text text-anchor="middle" x="240" y="-133" font-family="Helvetica,sans-Serif" font-size="10.00">\Activity\create</text>
</a>
</g>
</g>
<!-- Node1&#45;&gt;Node2 -->
<g id="edge1" class="edge"><title>Node1&#45;&gt;Node2</title>
<path fill="none" stroke="midnightblue" d="M146.226,-143C154.836,-143 163.554,-143 172.021,-143"/>
<polygon fill="midnightblue" stroke="midnightblue" points="146.189,-139.5 136.189,-143 146.188,-146.5 146.189,-139.5"/>
</g>
<!-- Node3 -->
<g id="node3" class="node"><title>Node3</title>
<g id="a_node3"><a xlink:href="class_ctct_1_1_services_1_1_activity_service.html#a30d4ffe1d8324873b1940dbcd172ce11" target="_top" xlink:title="Create a Clear Lists Activity. ">
<polygon fill="white" stroke="black" points="366.653,-255 366.653,-287 509.347,-287 509.347,-255 366.653,-255"/>
<text text-anchor="start" x="374.653" y="-273" font-family="Helvetica,sans-Serif" font-size="10.00">Ctct\Services\ActivityService</text>
<text text-anchor="middle" x="438" y="-261" font-family="Helvetica,sans-Serif" font-size="10.00">\addClearListsActivity</text>
</a>
</g>
</g>
<!-- Node2&#45;&gt;Node3 -->
<g id="edge2" class="edge"><title>Node2&#45;&gt;Node3</title>
<path fill="none" stroke="midnightblue" d="M259.423,-167.379C278.236,-190.616 309.508,-224.949 344,-245 350.957,-249.044 358.575,-252.486 366.361,-255.409"/>
<polygon fill="midnightblue" stroke="midnightblue" points="262.028,-165.03 253.073,-159.367 256.542,-169.378 262.028,-165.03"/>
</g>
<!-- Node4 -->
<g id="node4" class="node"><title>Node4</title>
<g id="a_node4"><a xlink:href="class_ctct_1_1_services_1_1_activity_service.html#a063acad0b025be72ea770afc58d5cd74" target="_top" xlink:title="Create an Export Contacts Activity. ">
<polygon fill="white" stroke="black" points="366.653,-204 366.653,-236 509.347,-236 509.347,-204 366.653,-204"/>
<text text-anchor="start" x="374.653" y="-222" font-family="Helvetica,sans-Serif" font-size="10.00">Ctct\Services\ActivityService</text>
<text text-anchor="middle" x="438" y="-210" font-family="Helvetica,sans-Serif" font-size="10.00">\addExportContactsActivity</text>
</a>
</g>
</g>
<!-- Node2&#45;&gt;Node4 -->
<g id="edge3" class="edge"><title>Node2&#45;&gt;Node4</title>
<path fill="none" stroke="midnightblue" d="M279.07,-163.983C298.177,-173.959 321.905,-185.527 344,-194 353.392,-197.602 363.49,-200.943 373.448,-203.949"/>
<polygon fill="midnightblue" stroke="midnightblue" points="280.566,-160.814 270.089,-159.233 277.293,-167.002 280.566,-160.814"/>
</g>
<!-- Node5 -->
<g id="node5" class="node"><title>Node5</title>
<g id="a_node5"><a xlink:href="class_ctct_1_1_services_1_1_activity_service.html#a0e0d8c43b0b569687ff2c1113c96a769" target="_top" xlink:title="Create a Remove Contacts From Lists Activity. ">
<polygon fill="white" stroke="black" points="344.138,-153 344.138,-185 531.862,-185 531.862,-153 344.138,-153"/>
<text text-anchor="start" x="352.138" y="-171" font-family="Helvetica,sans-Serif" font-size="10.00">Ctct\Services\ActivityService</text>
<text text-anchor="middle" x="438" y="-159" font-family="Helvetica,sans-Serif" font-size="10.00">\addRemoveContactsFromListsActivity</text>
</a>
</g>
</g>
<!-- Node2&#45;&gt;Node5 -->
<g id="edge4" class="edge"><title>Node2&#45;&gt;Node5</title>
<path fill="none" stroke="midnightblue" d="M317.867,-153.197C326.457,-154.336 335.275,-155.506 344.039,-156.668"/>
<polygon fill="midnightblue" stroke="midnightblue" points="318.277,-149.72 307.904,-151.875 317.357,-156.66 318.277,-149.72"/>
</g>
<!-- Node6 -->
<g id="node6" class="node"><title>Node6</title>
<g id="a_node6"><a xlink:href="class_ctct_1_1_services_1_1_activity_service.html#a7585bd43669c8f9c4e1b6884e58322f6" target="_top" xlink:title="Create an Add Contacts Activity. ">
<polygon fill="white" stroke="black" points="366.653,-102 366.653,-134 509.347,-134 509.347,-102 366.653,-102"/>
<text text-anchor="start" x="374.653" y="-120" font-family="Helvetica,sans-Serif" font-size="10.00">Ctct\Services\ActivityService</text>
<text text-anchor="middle" x="438" y="-108" font-family="Helvetica,sans-Serif" font-size="10.00">\createAddContactsActivity</text>
</a>
</g>
</g>
<!-- Node2&#45;&gt;Node6 -->
<g id="edge5" class="edge"><title>Node2&#45;&gt;Node6</title>
<path fill="none" stroke="midnightblue" d="M318.214,-133.151C334.099,-131.125 350.747,-129.002 366.384,-127.007"/>
<polygon fill="midnightblue" stroke="midnightblue" points="317.381,-129.729 307.904,-134.466 318.266,-136.673 317.381,-129.729"/>
</g>
<!-- Node7 -->
<g id="node7" class="node"><title>Node7</title>
<g id="a_node7"><a xlink:href="class_ctct_1_1_services_1_1_activity_service.html#afffe78c9da3d893eee3d31e947de0992" target="_top" xlink:title="Get an array of activities. ">
<polygon fill="white" stroke="black" points="366.653,-51 366.653,-83 509.347,-83 509.347,-51 366.653,-51"/>
<text text-anchor="start" x="374.653" y="-69" font-family="Helvetica,sans-Serif" font-size="10.00">Ctct\Services\ActivityService</text>
<text text-anchor="middle" x="438" y="-57" font-family="Helvetica,sans-Serif" font-size="10.00">\getActivities</text>
</a>
</g>
</g>
<!-- Node2&#45;&gt;Node7 -->
<g id="edge6" class="edge"><title>Node2&#45;&gt;Node7</title>
<path fill="none" stroke="midnightblue" d="M279.531,-122.257C298.576,-112.534 322.116,-101.294 344,-93 353.406,-89.4351 363.512,-86.1131 373.472,-83.1158"/>
<polygon fill="midnightblue" stroke="midnightblue" points="277.847,-119.188 270.57,-126.889 281.061,-125.406 277.847,-119.188"/>
</g>
<!-- Node8 -->
<g id="node8" class="node"><title>Node8</title>
<g id="a_node8"><a xlink:href="class_ctct_1_1_services_1_1_activity_service.html#a29a275be3f87a87150f225f939e07637" target="_top" xlink:title="Get an array of activities. ">
<polygon fill="white" stroke="black" points="366.653,-0 366.653,-32 509.347,-32 509.347,-0 366.653,-0"/>
<text text-anchor="start" x="374.653" y="-18" font-family="Helvetica,sans-Serif" font-size="10.00">Ctct\Services\ActivityService</text>
<text text-anchor="middle" x="438" y="-6" font-family="Helvetica,sans-Serif" font-size="10.00">\getActivity</text>
</a>
</g>
</g>
<!-- Node2&#45;&gt;Node8 -->
<g id="edge7" class="edge"><title>Node2&#45;&gt;Node8</title>
<path fill="none" stroke="midnightblue" d="M259.475,-118.866C278.326,-95.8619 309.626,-61.869 344,-42 350.967,-37.9729 358.591,-34.5419 366.38,-31.6251"/>
<polygon fill="midnightblue" stroke="midnightblue" points="256.639,-116.808 253.11,-126.798 262.098,-121.189 256.639,-116.808"/>
</g>
</g>
</svg>
