<?xml version="1.0" encoding="UTF-8" standalone="no"?>
<!DOCTYPE svg PUBLIC "-//W3C//DTD SVG 1.1//EN"
 "http://www.w3.org/Graphics/SVG/1.1/DTD/svg11.dtd">
<!-- Generated by graphviz version 2.30.1 (20130221.2233)
 -->
<!-- Title: CTCT_Widget_Simple\form Pages: 1 -->
<svg width="486pt" height="28pt"
 viewBox="0.00 0.00 486.00 28.00" xmlns="http://www.w3.org/2000/svg" xmlns:xlink="http://www.w3.org/1999/xlink">
<g id="graph0" class="graph" transform="scale(1 1) rotate(0) translate(4 24)">
<title>CTCT_Widget_Simple\form</title>
<polygon fill="white" stroke="white" points="-4,5 -4,-24 483,-24 483,5 -4,5"/>
<!-- Node1 -->
<g id="node1" class="node"><title>Node1</title>
<polygon fill="#bfbfbf" stroke="black" points="-0.125488,-0 -0.125488,-20 138.125,-20 138.125,-0 -0.125488,-0"/>
<text text-anchor="middle" x="69" y="-6" font-family="Helvetica,sans-Serif" font-size="10.00">CTCT_Widget_Simple\form</text>
</g>
<!-- Node2 -->
<g id="node2" class="node"><title>Node2</title>
<g id="a_node2"><a xlink:href="class_k_w_s_contact_list.html#a83039abeb7dce624539df46bebd0b3a2" target="_top" xlink:title="Convert an array of List objects into HTML output. ">
<polygon fill="white" stroke="black" points="174.697,-0 174.697,-20 321.303,-20 321.303,-0 174.697,-0"/>
<text text-anchor="middle" x="248" y="-6" font-family="Helvetica,sans-Serif" font-size="10.00">KWSContactList\outputHTML</text>
</a>
</g>
</g>
<!-- Node1&#45;&gt;Node2 -->
<g id="edge1" class="edge"><title>Node1&#45;&gt;Node2</title>
<path fill="none" stroke="midnightblue" d="M138.18,-10C146.719,-10 155.526,-10 164.257,-10"/>
<polygon fill="midnightblue" stroke="midnightblue" points="164.452,-13.5001 174.452,-10 164.452,-6.5001 164.452,-13.5001"/>
</g>
<!-- Node3 -->
<g id="node3" class="node"><title>Node3</title>
<g id="a_node3"><a xlink:href="class_w_p___c_t_c_t.html#a485eac1e69d12c9e2ecac70bf3295c3f" target="_top" xlink:title="WP_CTCT\\getInstance">
<polygon fill="white" stroke="black" points="358.594,-0 358.594,-20 477.406,-20 477.406,-0 358.594,-0"/>
<text text-anchor="middle" x="418" y="-6" font-family="Helvetica,sans-Serif" font-size="10.00">WP_CTCT\getInstance</text>
</a>
</g>
</g>
<!-- Node2&#45;&gt;Node3 -->
<g id="edge2" class="edge"><title>Node2&#45;&gt;Node3</title>
<path fill="none" stroke="midnightblue" d="M321.71,-10C330.57,-10 339.6,-10 348.397,-10"/>
<polygon fill="midnightblue" stroke="midnightblue" points="348.593,-13.5001 358.593,-10 348.593,-6.5001 348.593,-13.5001"/>
</g>
</g>
</svg>
