<?xml version="1.0" encoding="UTF-8" standalone="no"?>
<!DOCTYPE svg PUBLIC "-//W3C//DTD SVG 1.1//EN"
 "http://www.w3.org/Graphics/SVG/1.1/DTD/svg11.dtd">
<!-- Generated by graphviz version 2.30.1 (20130221.2233)
 -->
<!-- Title: constant_contact_form_widget\get_form_list_select Pages: 1 -->
<svg width="280pt" height="52pt"
 viewBox="0.00 0.00 280.00 52.00" xmlns="http://www.w3.org/2000/svg" xmlns:xlink="http://www.w3.org/1999/xlink">
<g id="graph0" class="graph" transform="scale(1 1) rotate(0) translate(4 48)">
<title>constant_contact_form_widget\get_form_list_select</title>
<polygon fill="white" stroke="white" points="-4,5 -4,-48 277,-48 277,5 -4,5"/>
<!-- Node1 -->
<g id="node1" class="node"><title>Node1</title>
<polygon fill="#bfbfbf" stroke="black" points="0.416504,-0 0.416504,-44 117.583,-44 117.583,-0 0.416504,-0"/>
<text text-anchor="start" x="8.4165" y="-30" font-family="Helvetica,sans-Serif" font-size="10.00">constant_contact_form</text>
<text text-anchor="start" x="8.4165" y="-18" font-family="Helvetica,sans-Serif" font-size="10.00">_widget\get_form_list</text>
<text text-anchor="middle" x="59" y="-6" font-family="Helvetica,sans-Serif" font-size="10.00">_select</text>
</g>
<!-- Node2 -->
<g id="node2" class="node"><title>Node2</title>
<g id="a_node2"><a xlink:href="classconstant__contact__form__widget.html#a2407c13cc44eb5580efda36b3d2d008f" target="_top" xlink:title="constant_contact_form\l_widget\\get_value">
<polygon fill="white" stroke="black" points="154.417,-6 154.417,-38 271.583,-38 271.583,-6 154.417,-6"/>
<text text-anchor="start" x="162.417" y="-24" font-family="Helvetica,sans-Serif" font-size="10.00">constant_contact_form</text>
<text text-anchor="middle" x="213" y="-12" font-family="Helvetica,sans-Serif" font-size="10.00">_widget\get_value</text>
</a>
</g>
</g>
<!-- Node1&#45;&gt;Node2 -->
<g id="edge1" class="edge"><title>Node1&#45;&gt;Node2</title>
<path fill="none" stroke="midnightblue" d="M117.898,-22C126.461,-22 135.349,-22 144.093,-22"/>
<polygon fill="midnightblue" stroke="midnightblue" points="144.263,-25.5001 154.263,-22 144.263,-18.5001 144.263,-25.5001"/>
</g>
</g>
</svg>
