<?xml version="1.0" encoding="UTF-8" standalone="no"?>
<!DOCTYPE svg PUBLIC "-//W3C//DTD SVG 1.1//EN"
 "http://www.w3.org/Graphics/SVG/1.1/DTD/svg11.dtd">
<!-- Generated by graphviz version 2.30.1 (20130221.2233)
 -->
<!-- Title: OAuthRequest\get_normalized_http_method Pages: 1 -->
<svg width="344pt" height="40pt"
 viewBox="0.00 0.00 344.00 40.00" xmlns="http://www.w3.org/2000/svg" xmlns:xlink="http://www.w3.org/1999/xlink">
<g id="graph0" class="graph" transform="scale(1 1) rotate(0) translate(4 36)">
<title>OAuthRequest\get_normalized_http_method</title>
<polygon fill="white" stroke="white" points="-4,5 -4,-36 341,-36 341,5 -4,5"/>
<!-- Node1 -->
<g id="node1" class="node"><title>Node1</title>
<polygon fill="#bfbfbf" stroke="black" points="0.625977,-0 0.625977,-32 153.374,-32 153.374,-0 0.625977,-0"/>
<text text-anchor="start" x="8.62598" y="-18" font-family="Helvetica,sans-Serif" font-size="10.00">OAuthRequest\get_normalized</text>
<text text-anchor="middle" x="77" y="-6" font-family="Helvetica,sans-Serif" font-size="10.00">_http_method</text>
</g>
<!-- Node2 -->
<g id="node2" class="node"><title>Node2</title>
<g id="a_node2"><a xlink:href="class_o_auth_request.html#a91adca76e918ade136d9c56a46695e46" target="_top" xlink:title="Returns the base string of this request. ">
<polygon fill="white" stroke="black" points="190.513,-0 190.513,-32 335.487,-32 335.487,-0 190.513,-0"/>
<text text-anchor="start" x="198.513" y="-18" font-family="Helvetica,sans-Serif" font-size="10.00">OAuthRequest\get_signature</text>
<text text-anchor="middle" x="263" y="-6" font-family="Helvetica,sans-Serif" font-size="10.00">_base_string</text>
</a>
</g>
</g>
<!-- Node1&#45;&gt;Node2 -->
<g id="edge1" class="edge"><title>Node1&#45;&gt;Node2</title>
<path fill="none" stroke="midnightblue" d="M163.708,-16C172.675,-16 181.722,-16 190.506,-16"/>
<polygon fill="midnightblue" stroke="midnightblue" points="163.636,-12.5001 153.636,-16 163.636,-19.5001 163.636,-12.5001"/>
</g>
</g>
</svg>
