<?xml version="1.0" encoding="UTF-8" standalone="no"?>
<!DOCTYPE svg PUBLIC "-//W3C//DTD SVG 1.1//EN"
 "http://www.w3.org/Graphics/SVG/1.1/DTD/svg11.dtd">
<!-- Generated by graphviz version 2.30.1 (20130221.2233)
 -->
<!-- Title: OAuthSignatureMethod_RSA_SHA1\build_signature Pages: 1 -->
<svg width="344pt" height="40pt"
 viewBox="0.00 0.00 344.00 40.00" xmlns="http://www.w3.org/2000/svg" xmlns:xlink="http://www.w3.org/1999/xlink">
<g id="graph0" class="graph" transform="scale(1 1) rotate(0) translate(4 36)">
<title>OAuthSignatureMethod_RSA_SHA1\build_signature</title>
<polygon fill="white" stroke="white" points="-4,5 -4,-36 341,-36 341,5 -4,5"/>
<!-- Node1 -->
<g id="node1" class="node"><title>Node1</title>
<polygon fill="#bfbfbf" stroke="black" points="-0.206543,-0 -0.206543,-32 144.207,-32 144.207,-0 -0.206543,-0"/>
<text text-anchor="start" x="7.79346" y="-18" font-family="Helvetica,sans-Serif" font-size="10.00">OAuthSignatureMethod</text>
<text text-anchor="middle" x="72" y="-6" font-family="Helvetica,sans-Serif" font-size="10.00">_RSA_SHA1\build_signature</text>
</g>
<!-- Node2 -->
<g id="node2" class="node"><title>Node2</title>
<g id="a_node2"><a xlink:href="class_o_auth_signature_method___r_s_a___s_h_a1.html#a6c859af490dcd88e0cdb04cb07051f22" target="_top" xlink:title="OAuthSignatureMethod\l_RSA_SHA1\\fetch_private_cert">
<polygon fill="white" stroke="black" points="179.963,-0 179.963,-32 336.037,-32 336.037,-0 179.963,-0"/>
<text text-anchor="start" x="187.963" y="-18" font-family="Helvetica,sans-Serif" font-size="10.00">OAuthSignatureMethod</text>
<text text-anchor="middle" x="258" y="-6" font-family="Helvetica,sans-Serif" font-size="10.00">_RSA_SHA1\fetch_private_cert</text>
</a>
</g>
</g>
<!-- Node1&#45;&gt;Node2 -->
<g id="edge1" class="edge"><title>Node1&#45;&gt;Node2</title>
<path fill="none" stroke="midnightblue" d="M144.403,-16C152.662,-16 161.154,-16 169.595,-16"/>
<polygon fill="midnightblue" stroke="midnightblue" points="169.846,-19.5001 179.846,-16 169.846,-12.5001 169.846,-19.5001"/>
</g>
</g>
</svg>
