<?xml version="1.0" encoding="UTF-8" standalone="no"?>
<!DOCTYPE svg PUBLIC "-//W3C//DTD SVG 1.1//EN"
 "http://www.w3.org/Graphics/SVG/1.1/DTD/svg11.dtd">
<!-- Generated by graphviz version 2.30.1 (20130221.2233)
 -->
<!-- Title: Net_DNS_Resolver\Net_DNS_Resolver Pages: 1 -->
<svg width="1404pt" height="360pt"
 viewBox="0.00 0.00 1404.00 359.84" xmlns="http://www.w3.org/2000/svg" xmlns:xlink="http://www.w3.org/1999/xlink">
<g id="graph0" class="graph" transform="scale(1 1) rotate(0) translate(4 355.84)">
<title>Net_DNS_Resolver\Net_DNS_Resolver</title>
<polygon fill="white" stroke="white" points="-4,5 -4,-355.84 1401,-355.84 1401,5 -4,5"/>
<!-- Node1 -->
<g id="node1" class="node"><title>Node1</title>
<polygon fill="#bfbfbf" stroke="black" points="0.202148,-64.1447 0.202148,-96.1447 121.798,-96.1447 121.798,-64.1447 0.202148,-64.1447"/>
<text text-anchor="start" x="8.20215" y="-82.1447" font-family="Helvetica,sans-Serif" font-size="10.00">Net_DNS_Resolver\Net</text>
<text text-anchor="middle" x="61" y="-70.1447" font-family="Helvetica,sans-Serif" font-size="10.00">_DNS_Resolver</text>
</g>
<!-- Node2 -->
<g id="node2" class="node"><title>Node2</title>
<g id="a_node2"><a xlink:href="class_net___d_n_s___resolver.html#a3bf22a7a58480dd7a6fd0dd17807fc70" target="_top" xlink:title="Gets or sets the nameservers to be queried. ">
<polygon fill="white" stroke="black" points="158.084,-157.145 158.084,-177.145 321.916,-177.145 321.916,-157.145 158.084,-157.145"/>
<text text-anchor="middle" x="240" y="-163.145" font-family="Helvetica,sans-Serif" font-size="10.00">Net_DNS_Resolver\nameservers</text>
</a>
</g>
</g>
<!-- Node1&#45;&gt;Node2 -->
<g id="edge1" class="edge"><title>Node1&#45;&gt;Node2</title>
<path fill="none" stroke="midnightblue" d="M104.179,-100.877C140.25,-118.607 190.617,-143.363 218.457,-157.047"/>
<polygon fill="midnightblue" stroke="midnightblue" points="105.396,-97.575 94.8775,-96.3048 102.308,-103.857 105.396,-97.575"/>
</g>
<!-- Node3 -->
<g id="node3" class="node"><title>Node3</title>
<g id="a_node3"><a xlink:href="class_net___d_n_s___resolver.html#a9a745e4f5009dac279562318bb927370" target="_top" xlink:title="Performs an AXFR query (zone transfer) ">
<polygon fill="white" stroke="black" points="555.648,-298.145 555.648,-318.145 678.352,-318.145 678.352,-298.145 555.648,-298.145"/>
<text text-anchor="middle" x="617" y="-304.145" font-family="Helvetica,sans-Serif" font-size="10.00">Net_DNS_Resolver\axfr</text>
</a>
</g>
</g>
<!-- Node2&#45;&gt;Node3 -->
<g id="edge2" class="edge"><title>Node2&#45;&gt;Node3</title>
<path fill="none" stroke="midnightblue" d="M248.004,-187.214C262.124,-224.152 297.891,-301.972 358,-333.145 436.499,-373.855 546.497,-337.339 593.389,-318.166"/>
<polygon fill="midnightblue" stroke="midnightblue" points="251.188,-185.732 244.453,-177.554 244.618,-188.148 251.188,-185.732"/>
</g>
<!-- Node5 -->
<g id="node5" class="node"><title>Node5</title>
<g id="a_node5"><a xlink:href="class_net___d_n_s___resolver.html#a068e8e173ff40d4a3b74193792bed4e0" target="_top" xlink:title="Sends a packet via TCP to the list of name servers. ">
<polygon fill="white" stroke="black" points="370.648,-292.145 370.648,-324.145 493.352,-324.145 493.352,-292.145 370.648,-292.145"/>
<text text-anchor="start" x="378.648" y="-310.145" font-family="Helvetica,sans-Serif" font-size="10.00">Net_DNS_Resolver\axfr</text>
<text text-anchor="middle" x="432" y="-298.145" font-family="Helvetica,sans-Serif" font-size="10.00">_start</text>
</a>
</g>
</g>
<!-- Node2&#45;&gt;Node5 -->
<g id="edge4" class="edge"><title>Node2&#45;&gt;Node5</title>
<path fill="none" stroke="midnightblue" d="M254.995,-185.168C275.246,-210.144 315.029,-255.236 358,-282.145 363.929,-285.858 370.462,-289.135 377.108,-292"/>
<polygon fill="midnightblue" stroke="midnightblue" points="257.643,-182.875 248.674,-177.236 252.169,-187.237 257.643,-182.875"/>
</g>
<!-- Node6 -->
<g id="node6" class="node"><title>Node6</title>
<g id="a_node6"><a xlink:href="class_net___d_n_s___resolver.html#ae4def11574ad6e93176670c726541bed" target="_top" xlink:title="Reads and parses a resolver configuration file. ">
<polygon fill="white" stroke="black" points="368.976,-100.145 368.976,-132.145 495.024,-132.145 495.024,-100.145 368.976,-100.145"/>
<text text-anchor="start" x="376.976" y="-118.145" font-family="Helvetica,sans-Serif" font-size="10.00">Net_DNS_Resolver\read</text>
<text text-anchor="middle" x="432" y="-106.145" font-family="Helvetica,sans-Serif" font-size="10.00">_config</text>
</a>
</g>
</g>
<!-- Node2&#45;&gt;Node6 -->
<g id="edge6" class="edge"><title>Node2&#45;&gt;Node6</title>
<path fill="none" stroke="midnightblue" d="M288.514,-154.391C313.53,-147.676 344.46,-139.374 371.103,-132.222"/>
<polygon fill="midnightblue" stroke="midnightblue" points="287.289,-151.096 278.538,-157.069 289.103,-157.857 287.289,-151.096"/>
</g>
<!-- Node8 -->
<g id="node8" class="node"><title>Node8</title>
<g id="a_node8"><a xlink:href="class_net___d_n_s___resolver.html#a2a3d25c5dd2b1810b60ad05b84787855" target="_top" xlink:title="Examines the environment for resolver config information. ">
<polygon fill="white" stroke="black" points="358.133,-61.1447 358.133,-81.1447 505.867,-81.1447 505.867,-61.1447 358.133,-61.1447"/>
<text text-anchor="middle" x="432" y="-67.1447" font-family="Helvetica,sans-Serif" font-size="10.00">Net_DNS_Resolver\read_env</text>
</a>
</g>
</g>
<!-- Node2&#45;&gt;Node8 -->
<g id="edge9" class="edge"><title>Node2&#45;&gt;Node8</title>
<path fill="none" stroke="midnightblue" d="M261.269,-150.8C283.698,-133.457 321.515,-106.366 358,-90.1447 365.898,-86.6334 374.576,-83.6697 383.106,-81.2047"/>
<polygon fill="midnightblue" stroke="midnightblue" points="258.894,-148.215 253.189,-157.143 263.216,-153.721 258.894,-148.215"/>
</g>
<!-- Node9 -->
<g id="node9" class="node"><title>Node9</title>
<g id="a_node9"><a xlink:href="class_net___d_n_s___resolver.html#a5ff32917a5f06e5eba819c0fb4e7196a" target="_top" xlink:title="Sends a packet via TCP to the list of name servers. ">
<polygon fill="white" stroke="black" points="358.69,-253.145 358.69,-273.145 505.31,-273.145 505.31,-253.145 358.69,-253.145"/>
<text text-anchor="middle" x="432" y="-259.145" font-family="Helvetica,sans-Serif" font-size="10.00">Net_DNS_Resolver\send_tcp</text>
</a>
</g>
</g>
<!-- Node2&#45;&gt;Node9 -->
<g id="edge11" class="edge"><title>Node2&#45;&gt;Node9</title>
<path fill="none" stroke="midnightblue" d="M261.709,-183.448C284.247,-200.487 321.907,-226.951 358,-243.145 366.752,-247.071 376.449,-250.385 385.84,-253.116"/>
<polygon fill="midnightblue" stroke="midnightblue" points="263.637,-180.516 253.573,-177.207 259.377,-186.07 263.637,-180.516"/>
</g>
<!-- Node14 -->
<g id="node14" class="node"><title>Node14</title>
<g id="a_node14"><a xlink:href="class_net___d_n_s___resolver.html#a31d4b4651960d0fb08aa07990d21ce39" target="_top" xlink:title="Sends a packet via UDP to the list of name servers. ">
<polygon fill="white" stroke="black" points="368.141,-202.145 368.141,-234.145 495.859,-234.145 495.859,-202.145 368.141,-202.145"/>
<text text-anchor="start" x="376.141" y="-220.145" font-family="Helvetica,sans-Serif" font-size="10.00">Net_DNS_Resolver\send</text>
<text text-anchor="middle" x="432" y="-208.145" font-family="Helvetica,sans-Serif" font-size="10.00">_udp_no_sock_lib</text>
</a>
</g>
</g>
<!-- Node2&#45;&gt;Node14 -->
<g id="edge17" class="edge"><title>Node2&#45;&gt;Node14</title>
<path fill="none" stroke="midnightblue" d="M288.514,-179.899C313.53,-186.613 344.46,-194.915 371.103,-202.067"/>
<polygon fill="midnightblue" stroke="midnightblue" points="289.103,-176.433 278.538,-177.221 287.289,-183.193 289.103,-176.433"/>
</g>
<!-- Node16 -->
<g id="node16" class="node"><title>Node16</title>
<g id="a_node16"><a xlink:href="class_net___d_n_s___resolver.html#a6f7a0d5aaecc4824d9e59c9eb2597a62" target="_top" xlink:title="Sends a packet via UDP to the list of name servers. ">
<polygon fill="white" stroke="black" points="368.141,-151.145 368.141,-183.145 495.859,-183.145 495.859,-151.145 368.141,-151.145"/>
<text text-anchor="start" x="376.141" y="-169.145" font-family="Helvetica,sans-Serif" font-size="10.00">Net_DNS_Resolver\send</text>
<text text-anchor="middle" x="432" y="-157.145" font-family="Helvetica,sans-Serif" font-size="10.00">_udp_with_sock_lib</text>
</a>
</g>
</g>
<!-- Node2&#45;&gt;Node16 -->
<g id="edge20" class="edge"><title>Node2&#45;&gt;Node16</title>
<path fill="none" stroke="midnightblue" d="M332.243,-167.145C344.327,-167.145 356.493,-167.145 367.955,-167.145"/>
<polygon fill="midnightblue" stroke="midnightblue" points="332.128,-163.645 322.128,-167.145 332.128,-170.645 332.128,-163.645"/>
</g>
<!-- Node17 -->
<g id="node17" class="node"><title>Node17</title>
<g id="a_node17"><a xlink:href="class_net___d_n_s___resolver.html#a848934658b6a75720a71e286500fcc40" target="_top" xlink:title="Builds a string containing the current state of the resolver. ">
<polygon fill="white" stroke="black" points="366.756,-22.1447 366.756,-42.1447 497.244,-42.1447 497.244,-22.1447 366.756,-22.1447"/>
<text text-anchor="middle" x="432" y="-28.1447" font-family="Helvetica,sans-Serif" font-size="10.00">Net_DNS_Resolver\string</text>
</a>
</g>
</g>
<!-- Node2&#45;&gt;Node17 -->
<g id="edge22" class="edge"><title>Node2&#45;&gt;Node17</title>
<path fill="none" stroke="midnightblue" d="M254.344,-148.813C274.077,-123.056 313.536,-76.4771 358,-51.1447 364.372,-47.5143 371.45,-44.563 378.619,-42.1675"/>
<polygon fill="midnightblue" stroke="midnightblue" points="251.414,-146.887 248.211,-156.986 257.012,-151.088 251.414,-146.887"/>
</g>
<!-- Node4 -->
<g id="node4" class="node"><title>Node4</title>
<g id="a_node4"><a xlink:href="class_net___d_n_s___resolver.html#a73f7861954f4990bc8d18d6a82f7334d" target="_top" xlink:title="Performs an AXFR query (zone transfer) (OLD BUGGY STYLE) ">
<polygon fill="white" stroke="black" points="728.195,-298.145 728.195,-318.145 869.805,-318.145 869.805,-298.145 728.195,-298.145"/>
<text text-anchor="middle" x="799" y="-304.145" font-family="Helvetica,sans-Serif" font-size="10.00">Net_DNS_Resolver\axfr_old</text>
</a>
</g>
</g>
<!-- Node3&#45;&gt;Node4 -->
<g id="edge3" class="edge"><title>Node3&#45;&gt;Node4</title>
<path fill="none" stroke="midnightblue" d="M688.684,-308.145C701.637,-308.145 715.151,-308.145 728.081,-308.145"/>
<polygon fill="midnightblue" stroke="midnightblue" points="688.438,-304.645 678.438,-308.145 688.438,-311.645 688.438,-304.645"/>
</g>
<!-- Node5&#45;&gt;Node3 -->
<g id="edge5" class="edge"><title>Node5&#45;&gt;Node3</title>
<path fill="none" stroke="midnightblue" d="M503.911,-308.145C520.994,-308.145 539.086,-308.145 555.635,-308.145"/>
<polygon fill="midnightblue" stroke="midnightblue" points="503.428,-304.645 493.428,-308.145 503.428,-311.645 503.428,-304.645"/>
</g>
<!-- Node7 -->
<g id="node7" class="node"><title>Node7</title>
<g id="a_node7"><a xlink:href="class_net___d_n_s___resolver.html#aa2e8d58074354b1f9292500119470431" target="_top" xlink:title="Initalizes the resolver library. ">
<polygon fill="white" stroke="black" points="547.865,-61.1447 547.865,-81.1447 686.135,-81.1447 686.135,-61.1447 547.865,-61.1447"/>
<text text-anchor="middle" x="617" y="-67.1447" font-family="Helvetica,sans-Serif" font-size="10.00">Net_DNS_Resolver\res_init</text>
</a>
</g>
</g>
<!-- Node6&#45;&gt;Node7 -->
<g id="edge7" class="edge"><title>Node6&#45;&gt;Node7</title>
<path fill="none" stroke="midnightblue" d="M504.952,-98.4516C528.819,-92.5827 554.547,-86.2561 575.223,-81.1717"/>
<polygon fill="midnightblue" stroke="midnightblue" points="504.086,-95.0602 495.211,-100.847 505.757,-101.858 504.086,-95.0602"/>
</g>
<!-- Node7&#45;&gt;Node1 -->
<g id="edge8" class="edge"><title>Node7&#45;&gt;Node1</title>
<path fill="none" stroke="midnightblue" d="M594.023,-55.1144C572.732,-40.6508 538.919,-20.4156 506,-12.1447 358.519,24.9103 178.1,-33.9403 100.493,-64.0902"/>
<polygon fill="midnightblue" stroke="midnightblue" points="592.136,-58.0651 602.342,-60.908 596.137,-52.3209 592.136,-58.0651"/>
</g>
<!-- Node8&#45;&gt;Node7 -->
<g id="edge10" class="edge"><title>Node8&#45;&gt;Node7</title>
<path fill="none" stroke="midnightblue" d="M516.18,-71.1447C526.745,-71.1447 537.459,-71.1447 547.753,-71.1447"/>
<polygon fill="midnightblue" stroke="midnightblue" points="516.115,-67.6448 506.115,-71.1447 516.115,-74.6448 516.115,-67.6448"/>
</g>
<!-- Node10 -->
<g id="node10" class="node"><title>Node10</title>
<g id="a_node10"><a xlink:href="class_net___d_n_s___resolver.html#aaabc96cbbb5bce627d31583d0e6af3d5" target="_top" xlink:title="Sends a packet to a nameserver. ">
<polygon fill="white" stroke="black" points="735.141,-229.145 735.141,-249.145 862.859,-249.145 862.859,-229.145 735.141,-229.145"/>
<text text-anchor="middle" x="799" y="-235.145" font-family="Helvetica,sans-Serif" font-size="10.00">Net_DNS_Resolver\send</text>
</a>
</g>
</g>
<!-- Node9&#45;&gt;Node10 -->
<g id="edge12" class="edge"><title>Node9&#45;&gt;Node10</title>
<path fill="none" stroke="midnightblue" d="M515.588,-257.714C582.144,-253.338 674.326,-247.277 735.023,-243.286"/>
<polygon fill="midnightblue" stroke="midnightblue" points="515.297,-254.226 505.549,-258.374 515.757,-261.211 515.297,-254.226"/>
</g>
<!-- Node9&#45;&gt;Node3 -->
<g id="edge16" class="edge"><title>Node9&#45;&gt;Node3</title>
<path fill="none" stroke="midnightblue" d="M483.934,-275.669C512.686,-282.739 548.137,-291.457 575.068,-298.079"/>
<polygon fill="midnightblue" stroke="midnightblue" points="484.615,-272.233 474.069,-273.244 482.944,-279.03 484.615,-272.233"/>
</g>
<!-- Node11 -->
<g id="node11" class="node"><title>Node11</title>
<g id="a_node11"><a xlink:href="class_net___d_n_s___resolver.html#ab00f28a838dbaebffe986b2fb81b4e8f" target="_top" xlink:title="Queries nameservers for an answer. ">
<polygon fill="white" stroke="black" points="906.311,-229.145 906.311,-249.145 1055.69,-249.145 1055.69,-229.145 906.311,-229.145"/>
<text text-anchor="middle" x="981" y="-235.145" font-family="Helvetica,sans-Serif" font-size="10.00">Net_DNS_Resolver\rawQuery</text>
</a>
</g>
</g>
<!-- Node10&#45;&gt;Node11 -->
<g id="edge13" class="edge"><title>Node10&#45;&gt;Node11</title>
<path fill="none" stroke="midnightblue" d="M873.268,-239.145C884.154,-239.145 895.38,-239.145 906.276,-239.145"/>
<polygon fill="midnightblue" stroke="midnightblue" points="872.955,-235.645 862.955,-239.145 872.955,-242.645 872.955,-235.645"/>
</g>
<!-- Node12 -->
<g id="node12" class="node"><title>Node12</title>
<g id="a_node12"><a xlink:href="class_net___d_n_s___resolver.html#a433200f56099815168ddd63a715e8ac5" target="_top" xlink:title="Queries nameservers for an answer. ">
<polygon fill="white" stroke="black" points="1092.48,-229.145 1092.48,-249.145 1223.52,-249.145 1223.52,-229.145 1092.48,-229.145"/>
<text text-anchor="middle" x="1158" y="-235.145" font-family="Helvetica,sans-Serif" font-size="10.00">Net_DNS_Resolver\query</text>
</a>
</g>
</g>
<!-- Node11&#45;&gt;Node12 -->
<g id="edge14" class="edge"><title>Node11&#45;&gt;Node12</title>
<path fill="none" stroke="midnightblue" d="M1065.73,-239.145C1074.65,-239.145 1083.61,-239.145 1092.26,-239.145"/>
<polygon fill="midnightblue" stroke="midnightblue" points="1065.71,-235.645 1055.71,-239.145 1065.71,-242.645 1065.71,-235.645"/>
</g>
<!-- Node13 -->
<g id="node13" class="node"><title>Node13</title>
<g id="a_node13"><a xlink:href="class_net___d_n_s___resolver.html#a13ee3a449b00b1a0e2f36bb1404e4291" target="_top" xlink:title="Searches nameservers for an answer. ">
<polygon fill="white" stroke="black" points="1259.98,-229.145 1259.98,-249.145 1396.02,-249.145 1396.02,-229.145 1259.98,-229.145"/>
<text text-anchor="middle" x="1328" y="-235.145" font-family="Helvetica,sans-Serif" font-size="10.00">Net_DNS_Resolver\search</text>
</a>
</g>
</g>
<!-- Node12&#45;&gt;Node13 -->
<g id="edge15" class="edge"><title>Node12&#45;&gt;Node13</title>
<path fill="none" stroke="midnightblue" d="M1234.23,-239.145C1242.72,-239.145 1251.34,-239.145 1259.72,-239.145"/>
<polygon fill="midnightblue" stroke="midnightblue" points="1233.95,-235.645 1223.95,-239.145 1233.95,-242.645 1233.95,-235.645"/>
</g>
<!-- Node15 -->
<g id="node15" class="node"><title>Node15</title>
<g id="a_node15"><a xlink:href="class_net___d_n_s___resolver.html#a77e292f0bf9e3cadf36d26b76b02a733" target="_top" xlink:title="Sends a packet via UDP to the list of name servers. ">
<polygon fill="white" stroke="black" points="542.018,-208.145 542.018,-228.145 691.982,-228.145 691.982,-208.145 542.018,-208.145"/>
<text text-anchor="middle" x="617" y="-214.145" font-family="Helvetica,sans-Serif" font-size="10.00">Net_DNS_Resolver\send_udp</text>
</a>
</g>
</g>
<!-- Node14&#45;&gt;Node15 -->
<g id="edge18" class="edge"><title>Node14&#45;&gt;Node15</title>
<path fill="none" stroke="midnightblue" d="M506.177,-218.145C517.928,-218.145 530.1,-218.145 541.874,-218.145"/>
<polygon fill="midnightblue" stroke="midnightblue" points="505.978,-214.645 495.978,-218.145 505.978,-221.645 505.978,-214.645"/>
</g>
<!-- Node15&#45;&gt;Node10 -->
<g id="edge19" class="edge"><title>Node15&#45;&gt;Node10</title>
<path fill="none" stroke="midnightblue" d="M702.086,-227.955C713.136,-229.244 724.304,-230.547 734.922,-231.786"/>
<polygon fill="midnightblue" stroke="midnightblue" points="702.33,-224.46 691.992,-226.777 701.519,-231.412 702.33,-224.46"/>
</g>
<!-- Node16&#45;&gt;Node15 -->
<g id="edge21" class="edge"><title>Node16&#45;&gt;Node15</title>
<path fill="none" stroke="midnightblue" d="M500.416,-185.933C527.339,-193.436 557.258,-201.774 579.91,-208.087"/>
<polygon fill="midnightblue" stroke="midnightblue" points="501.224,-182.525 490.651,-183.211 499.344,-189.268 501.224,-182.525"/>
</g>
</g>
</svg>
