<?xml version="1.0" encoding="UTF-8" standalone="no"?>
<!DOCTYPE svg PUBLIC "-//W3C//DTD SVG 1.1//EN"
 "http://www.w3.org/Graphics/SVG/1.1/DTD/svg11.dtd">
<!-- Generated by graphviz version 2.30.1 (20130221.2233)
 -->
<!-- Title: KWSContact\get Pages: 1 -->
<svg width="472pt" height="40pt"
 viewBox="0.00 0.00 472.00 40.00" xmlns="http://www.w3.org/2000/svg" xmlns:xlink="http://www.w3.org/1999/xlink">
<g id="graph0" class="graph" transform="scale(1 1) rotate(0) translate(4 36)">
<title>KWSContact\get</title>
<polygon fill="white" stroke="white" points="-4,5 -4,-36 469,-36 469,5 -4,5"/>
<!-- Node1 -->
<g id="node1" class="node"><title>Node1</title>
<polygon fill="#bfbfbf" stroke="black" points="0.0395508,-6 0.0395508,-26 89.9604,-26 89.9604,-6 0.0395508,-6"/>
<text text-anchor="middle" x="45" y="-12" font-family="Helvetica,sans-Serif" font-size="10.00">KWSContact\get</text>
</g>
<!-- Node2 -->
<g id="node2" class="node"><title>Node2</title>
<g id="a_node2"><a xlink:href="class_c_t_c_t___process___form.html#aaafc23302889bc63c66db53deeb8aef3" target="_top" xlink:title="Validate email based on user settings. ">
<polygon fill="white" stroke="black" points="125.759,-0 125.759,-32 276.241,-32 276.241,-0 125.759,-0"/>
<text text-anchor="start" x="133.759" y="-18" font-family="Helvetica,sans-Serif" font-size="10.00">CTCT_Process_Form\validate</text>
<text text-anchor="middle" x="201" y="-6" font-family="Helvetica,sans-Serif" font-size="10.00">Email</text>
</a>
</g>
</g>
<!-- Node1&#45;&gt;Node2 -->
<g id="edge1" class="edge"><title>Node1&#45;&gt;Node2</title>
<path fill="none" stroke="midnightblue" d="M100.291,-16C108.496,-16 117.08,-16 125.621,-16"/>
<polygon fill="midnightblue" stroke="midnightblue" points="100.13,-12.5001 90.1302,-16 100.13,-19.5001 100.13,-12.5001"/>
</g>
<!-- Node3 -->
<g id="node3" class="node"><title>Node3</title>
<g id="a_node3"><a xlink:href="class_c_t_c_t___process___form.html#a28276123b47f4a19d7e0c965462f6b3c" target="_top" xlink:title="Process the form if there is a $_POST[&#39;uniqueformid&#39;] set. ">
<polygon fill="white" stroke="black" points="312.485,-6 312.485,-26 463.515,-26 463.515,-6 312.485,-6"/>
<text text-anchor="middle" x="388" y="-12" font-family="Helvetica,sans-Serif" font-size="10.00">CTCT_Process_Form\process</text>
</a>
</g>
</g>
<!-- Node2&#45;&gt;Node3 -->
<g id="edge2" class="edge"><title>Node2&#45;&gt;Node3</title>
<path fill="none" stroke="midnightblue" d="M286.523,-16C295.158,-16 303.886,-16 312.404,-16"/>
<polygon fill="midnightblue" stroke="midnightblue" points="286.447,-12.5001 276.447,-16 286.447,-19.5001 286.447,-12.5001"/>
</g>
</g>
</svg>
