<?xml version="1.0" encoding="UTF-8" standalone="no"?>
<!DOCTYPE svg PUBLIC "-//W3C//DTD SVG 1.1//EN"
 "http://www.w3.org/Graphics/SVG/1.1/DTD/svg11.dtd">
<!-- Generated by graphviz version 2.30.1 (20130221.2233)
 -->
<!-- Title: OAuthServer\get_consumer Pages: 1 -->
<svg width="322pt" height="142pt"
 viewBox="0.00 0.00 322.00 142.00" xmlns="http://www.w3.org/2000/svg" xmlns:xlink="http://www.w3.org/1999/xlink">
<g id="graph0" class="graph" transform="scale(1 1) rotate(0) translate(4 138)">
<title>OAuthServer\get_consumer</title>
<polygon fill="white" stroke="white" points="-4,5 -4,-138 319,-138 319,5 -4,5"/>
<!-- Node1 -->
<g id="node1" class="node"><title>Node1</title>
<polygon fill="#bfbfbf" stroke="black" points="0.0249023,-57 0.0249023,-77 139.975,-77 139.975,-57 0.0249023,-57"/>
<text text-anchor="middle" x="70" y="-63" font-family="Helvetica,sans-Serif" font-size="10.00">OAuthServer\get_consumer</text>
</g>
<!-- Node2 -->
<g id="node2" class="node"><title>Node2</title>
<g id="a_node2"><a xlink:href="class_o_auth_server.html#a5c76359726e685013d2e0cb8a1abe09a" target="_top" xlink:title="process an access_token request returns the access token on success ">
<polygon fill="white" stroke="black" points="177.527,-102 177.527,-134 312.473,-134 312.473,-102 177.527,-102"/>
<text text-anchor="start" x="185.527" y="-120" font-family="Helvetica,sans-Serif" font-size="10.00">OAuthServer\fetch_access</text>
<text text-anchor="middle" x="245" y="-108" font-family="Helvetica,sans-Serif" font-size="10.00">_token</text>
</a>
</g>
</g>
<!-- Node1&#45;&gt;Node2 -->
<g id="edge1" class="edge"><title>Node1&#45;&gt;Node2</title>
<path fill="none" stroke="midnightblue" d="M114.872,-79.9333C137.541,-86.6161 165.418,-94.8343 189.462,-101.922"/>
<polygon fill="midnightblue" stroke="midnightblue" points="115.761,-76.5465 105.179,-77.076 113.781,-83.2609 115.761,-76.5465"/>
</g>
<!-- Node3 -->
<g id="node3" class="node"><title>Node3</title>
<g id="a_node3"><a xlink:href="class_o_auth_server.html#aa91f1a763ab36c576ebf9319ac4751f6" target="_top" xlink:title="process a request_token request returns the request token on success ">
<polygon fill="white" stroke="black" points="176.412,-51 176.412,-83 313.588,-83 313.588,-51 176.412,-51"/>
<text text-anchor="start" x="184.412" y="-69" font-family="Helvetica,sans-Serif" font-size="10.00">OAuthServer\fetch_request</text>
<text text-anchor="middle" x="245" y="-57" font-family="Helvetica,sans-Serif" font-size="10.00">_token</text>
</a>
</g>
</g>
<!-- Node1&#45;&gt;Node3 -->
<g id="edge2" class="edge"><title>Node1&#45;&gt;Node3</title>
<path fill="none" stroke="midnightblue" d="M150.448,-67C159.088,-67 167.823,-67 176.305,-67"/>
<polygon fill="midnightblue" stroke="midnightblue" points="150.369,-63.5001 140.369,-67 150.369,-70.5001 150.369,-63.5001"/>
</g>
<!-- Node4 -->
<g id="node4" class="node"><title>Node4</title>
<g id="a_node4"><a xlink:href="class_o_auth_server.html#ad31e95096adeac980a8a99f59c4cadc6" target="_top" xlink:title="verify an api call, checks all the parameters ">
<polygon fill="white" stroke="black" points="194.764,-0 194.764,-32 295.236,-32 295.236,-0 194.764,-0"/>
<text text-anchor="start" x="202.764" y="-18" font-family="Helvetica,sans-Serif" font-size="10.00">OAuthServer\verify</text>
<text text-anchor="middle" x="245" y="-6" font-family="Helvetica,sans-Serif" font-size="10.00">_request</text>
</a>
</g>
</g>
<!-- Node1&#45;&gt;Node4 -->
<g id="edge3" class="edge"><title>Node1&#45;&gt;Node4</title>
<path fill="none" stroke="midnightblue" d="M114.843,-54.0752C139.117,-46.9193 169.369,-38.001 194.492,-30.5948"/>
<polygon fill="midnightblue" stroke="midnightblue" points="113.781,-50.7391 105.179,-56.924 115.761,-57.4535 113.781,-50.7391"/>
</g>
</g>
</svg>
