<?xml version="1.0" encoding="UTF-8" standalone="no"?>
<!DOCTYPE svg PUBLIC "-//W3C//DTD SVG 1.1//EN"
 "http://www.w3.org/Graphics/SVG/1.1/DTD/svg11.dtd">
<!-- Generated by graphviz version 2.30.1 (20130221.2233)
 -->
<!-- Title: JsonLoader\getCampaignModifiedSinceJson Pages: 1 -->
<svg width="396pt" height="40pt"
 viewBox="0.00 0.00 396.00 40.00" xmlns="http://www.w3.org/2000/svg" xmlns:xlink="http://www.w3.org/1999/xlink">
<g id="graph0" class="graph" transform="scale(1 1) rotate(0) translate(4 36)">
<title>JsonLoader\getCampaignModifiedSinceJson</title>
<polygon fill="white" stroke="white" points="-4,5 -4,-36 393,-36 393,5 -4,5"/>
<!-- Node1 -->
<g id="node1" class="node"><title>Node1</title>
<polygon fill="#bfbfbf" stroke="black" points="-0.159668,-0 -0.159668,-32 168.16,-32 168.16,-0 -0.159668,-0"/>
<text text-anchor="start" x="7.84033" y="-18" font-family="Helvetica,sans-Serif" font-size="10.00">JsonLoader\getCampaignModified</text>
<text text-anchor="middle" x="84" y="-6" font-family="Helvetica,sans-Serif" font-size="10.00">SinceJson</text>
</g>
<!-- Node2 -->
<g id="node2" class="node"><title>Node2</title>
<g id="a_node2"><a xlink:href="class_email_marketing_service_unit_test.html#aef210f86e3b75e061117bfb38586e74f" target="_top" xlink:title="EmailMarketingServiceUnit\lTest\\testGetCampaignsModifiedSince">
<polygon fill="white" stroke="black" points="204.626,-0 204.626,-32 387.374,-32 387.374,-0 204.626,-0"/>
<text text-anchor="start" x="212.626" y="-18" font-family="Helvetica,sans-Serif" font-size="10.00">EmailMarketingServiceUnit</text>
<text text-anchor="middle" x="296" y="-6" font-family="Helvetica,sans-Serif" font-size="10.00">Test\testGetCampaignsModifiedSince</text>
</a>
</g>
</g>
<!-- Node1&#45;&gt;Node2 -->
<g id="edge1" class="edge"><title>Node1&#45;&gt;Node2</title>
<path fill="none" stroke="midnightblue" d="M178.426,-16C187.106,-16 195.893,-16 204.546,-16"/>
<polygon fill="midnightblue" stroke="midnightblue" points="178.299,-12.5001 168.299,-16 178.299,-19.5001 178.299,-12.5001"/>
</g>
</g>
</svg>
