<?xml version="1.0" encoding="UTF-8" standalone="no"?>
<!DOCTYPE svg PUBLIC "-//W3C//DTD SVG 1.1//EN"
 "http://www.w3.org/Graphics/SVG/1.1/DTD/svg11.dtd">
<!-- Generated by graphviz version 2.30.1 (20130221.2233)
 -->
<!-- Title: OAuthRequest\generate_timestamp Pages: 1 -->
<!--zoomable 1705 -->
<svg id="main" version="1.1" xmlns="http://www.w3.org/2000/svg" xmlns:xlink="http://www.w3.org/1999/xlink" xml:space="preserve" onload="init(evt)">
<style type="text/css"><![CDATA[
.edge:hover path { stroke: red; }
.edge:hover polygon { stroke: red; fill: red; }
]]></style>
<script type="text/javascript"><![CDATA[
var edges = document.getElementsByTagName('g');
if (edges && edges.length) {
  for (var i=0;i<edges.length;i++) {
    if (edges[i].id.substr(0,4)=='edge') {
      edges[i].setAttribute('class','edge');
    }
  }
}
]]></script>
        <defs>
                <circle id="rim" cx="0" cy="0" r="7"/>
                <circle id="rim2" cx="0" cy="0" r="3.5"/>
                <g id="zoomPlus">
                        <use xlink:href="#rim" fill="#404040">
                                <set attributeName="fill" to="#808080" begin="zoomplus.mouseover" end="zoomplus.mouseout"/>
                        </use>
                        <path d="M-4,0h8M0,-4v8" fill="none" stroke="white" stroke-width="1.5" pointer-events="none"/>
                </g>
                <g id="zoomMin">
                        <use xlink:href="#rim" fill="#404040">
                                <set attributeName="fill" to="#808080" begin="zoomminus.mouseover" end="zoomminus.mouseout"/>
                        </use>
                        <path d="M-4,0h8" fill="none" stroke="white" stroke-width="1.5" pointer-events="none"/>
                </g>
                <g id="dirArrow">
                        <path fill="none" stroke="white" stroke-width="1.5" d="M0,-3.0v7 M-2.5,-0.5L0,-3.0L2.5,-0.5"/>
                </g>
               <g id="resetDef">
                       <use xlink:href="#rim2" fill="#404040">
                               <set attributeName="fill" to="#808080" begin="reset.mouseover" end="reset.mouseout"/>
                       </use>
               </g>
        </defs>

<script type="text/javascript">
var viewWidth = 892;
var viewHeight = 1705;
var sectionId = 'dynsection-7';
</script>
<script xlink:href="svgpan.js"/>
<svg id="graph" class="graph">
<g id="viewport">
<title>OAuthRequest\generate_timestamp</title>
<polygon fill="white" stroke="white" points="-4,5 -4,-1701 889,-1701 889,5 -4,5"/>
<!-- Node1 -->
<g id="node1" class="node"><title>Node1</title>
<polygon fill="#bfbfbf" stroke="black" points="0.0742188,-847 0.0742188,-879 123.926,-879 123.926,-847 0.0742188,-847"/>
<text text-anchor="start" x="8.07422" y="-865" font-family="Helvetica,sans-Serif" font-size="10.00">OAuthRequest\generate</text>
<text text-anchor="middle" x="62" y="-853" font-family="Helvetica,sans-Serif" font-size="10.00">_timestamp</text>
</g>
<!-- Node2 -->
<g id="node2" class="node"><title>Node2</title>
<g id="a_node2"><a xlink:href="class_o_auth_request.html#afe9d0f6cb8e0dadb1c0faeea9ecafe45" target="_top" xlink:title="pretty much a helper function to set up the request ">
<polygon fill="white" stroke="black" points="160.079,-847 160.079,-879 313.921,-879 313.921,-847 160.079,-847"/>
<text text-anchor="start" x="168.079" y="-865" font-family="Helvetica,sans-Serif" font-size="10.00">OAuthRequest\from_consumer</text>
<text text-anchor="middle" x="237" y="-853" font-family="Helvetica,sans-Serif" font-size="10.00">_and_token</text>
</a>
</g>
</g>
<!-- Node1&#45;&gt;Node2 -->
<g id="edge1" class="edge"><title>Node1&#45;&gt;Node2</title>
<path fill="none" stroke="midnightblue" d="M134.177,-863C142.627,-863 151.278,-863 159.794,-863"/>
<polygon fill="midnightblue" stroke="midnightblue" points="133.993,-859.5 123.993,-863 133.993,-866.5 133.993,-859.5"/>
</g>
<!-- Node3 -->
<g id="node3" class="node"><title>Node3</title>
<g id="a_node3"><a xlink:href="class_c_t_c_t_o_auth.html#a3189b740e032071bc27e198f7cb53b4d" target="_top" xlink:title="CTCTOAuth\\getAccessToken">
<polygon fill="white" stroke="black" points="352.785,-892 352.785,-912 499.215,-912 499.215,-892 352.785,-892"/>
<text text-anchor="middle" x="426" y="-898" font-family="Helvetica,sans-Serif" font-size="10.00">CTCTOAuth\getAccessToken</text>
</a>
</g>
</g>
<!-- Node2&#45;&gt;Node3 -->
<g id="edge2" class="edge"><title>Node2&#45;&gt;Node3</title>
<path fill="none" stroke="midnightblue" d="M324.087,-880.954C342.238,-884.739 360.763,-888.603 376.904,-891.969"/>
<polygon fill="midnightblue" stroke="midnightblue" points="324.564,-877.478 314.06,-878.863 323.135,-884.331 324.564,-877.478"/>
</g>
<!-- Node4 -->
<g id="node4" class="node"><title>Node4</title>
<g id="a_node4"><a xlink:href="class_c_t_c_t_o_auth.html#aa66e4b0a64267580fc458805504756d3" target="_top" xlink:title="CTCTOAuth\\getRequestToken">
<polygon fill="white" stroke="black" points="350.278,-853 350.278,-873 501.722,-873 501.722,-853 350.278,-853"/>
<text text-anchor="middle" x="426" y="-859" font-family="Helvetica,sans-Serif" font-size="10.00">CTCTOAuth\getRequestToken</text>
</a>
</g>
</g>
<!-- Node2&#45;&gt;Node4 -->
<g id="edge3" class="edge"><title>Node2&#45;&gt;Node4</title>
<path fill="none" stroke="midnightblue" d="M324.203,-863C332.891,-863 341.664,-863 350.219,-863"/>
<polygon fill="midnightblue" stroke="midnightblue" points="324.06,-859.5 314.06,-863 324.06,-866.5 324.06,-859.5"/>
</g>
<!-- Node5 -->
<g id="node5" class="node"><title>Node5</title>
<g id="a_node5"><a xlink:href="class_c_t_c_t_request.html#aad92e5787f6d3fdf00760d99505aa6db" target="_top" xlink:title="CTCTRequest\\makeRequest">
<polygon fill="white" stroke="black" points="353.808,-814 353.808,-834 498.192,-834 498.192,-814 353.808,-814"/>
<text text-anchor="middle" x="426" y="-820" font-family="Helvetica,sans-Serif" font-size="10.00">CTCTRequest\makeRequest</text>
</a>
</g>
</g>
<!-- Node2&#45;&gt;Node5 -->
<g id="edge4" class="edge"><title>Node2&#45;&gt;Node5</title>
<path fill="none" stroke="midnightblue" d="M324.087,-845.046C342.238,-841.261 360.763,-837.397 376.904,-834.031"/>
<polygon fill="midnightblue" stroke="midnightblue" points="323.135,-841.669 314.06,-847.137 324.564,-848.522 323.135,-841.669"/>
</g>
<!-- Node6 -->
<g id="node6" class="node"><title>Node6</title>
<g id="a_node6"><a xlink:href="class_campaigns_collection.html#a4bbf8266fa150e04a4bff5a8052967a6" target="_top" xlink:title="Add a new Campaign. ">
<polygon fill="white" stroke="black" points="561.754,-1665 561.754,-1697 672.246,-1697 672.246,-1665 561.754,-1665"/>
<text text-anchor="start" x="569.754" y="-1683" font-family="Helvetica,sans-Serif" font-size="10.00">CampaignsCollection</text>
<text text-anchor="middle" x="617" y="-1671" font-family="Helvetica,sans-Serif" font-size="10.00">\addCampaign</text>
</a>
</g>
</g>
<!-- Node5&#45;&gt;Node6 -->
<g id="edge5" class="edge"><title>Node5&#45;&gt;Node6</title>
<path fill="none" stroke="midnightblue" d="M498.795,-840.473C499.926,-841.579 500.997,-842.753 502,-844 558.526,-914.291 483.649,-1583.01 538,-1655 543.935,-1662.86 552.337,-1668.37 561.445,-1672.23"/>
<polygon fill="midnightblue" stroke="midnightblue" points="500.611,-837.454 490.552,-834.127 496.341,-843.001 500.611,-837.454"/>
</g>
<!-- Node7 -->
<g id="node7" class="node"><title>Node7</title>
<g id="a_node7"><a xlink:href="class_contacts_collection.html#a58610b21a633bfe30cc66a5f54a107a7" target="_top" xlink:title="Add a contact to account. ">
<polygon fill="white" stroke="black" points="567.313,-1614 567.313,-1646 666.687,-1646 666.687,-1614 567.313,-1614"/>
<text text-anchor="start" x="575.313" y="-1632" font-family="Helvetica,sans-Serif" font-size="10.00">ContactsCollection</text>
<text text-anchor="middle" x="617" y="-1620" font-family="Helvetica,sans-Serif" font-size="10.00">\addContact</text>
</a>
</g>
</g>
<!-- Node5&#45;&gt;Node7 -->
<g id="edge6" class="edge"><title>Node5&#45;&gt;Node7</title>
<path fill="none" stroke="midnightblue" d="M498.79,-840.477C499.922,-841.581 500.995,-842.754 502,-844 555.076,-909.801 486.96,-1536.61 538,-1604 545.153,-1613.44 555.867,-1619.5 567.081,-1623.37"/>
<polygon fill="midnightblue" stroke="midnightblue" points="500.601,-837.455 490.539,-834.138 496.336,-843.006 500.601,-837.455"/>
</g>
<!-- Node8 -->
<g id="node8" class="node"><title>Node8</title>
<g id="a_node8"><a xlink:href="class_library_collection.html#affc91465d0f01c4ede19c149424ea7f2" target="_top" xlink:title="Add a new Folder. ">
<polygon fill="white" stroke="black" points="547.857,-1575 547.857,-1595 686.143,-1595 686.143,-1575 547.857,-1575"/>
<text text-anchor="middle" x="617" y="-1581" font-family="Helvetica,sans-Serif" font-size="10.00">LibraryCollection\addFolder</text>
</a>
</g>
</g>
<!-- Node5&#45;&gt;Node8 -->
<g id="edge7" class="edge"><title>Node5&#45;&gt;Node8</title>
<path fill="none" stroke="midnightblue" d="M498.786,-840.48C499.919,-841.584 500.994,-842.756 502,-844 602.877,-968.735 436.525,-1440.75 538,-1565 541.272,-1569.01 545.227,-1572.27 549.6,-1574.93"/>
<polygon fill="midnightblue" stroke="midnightblue" points="500.593,-837.455 490.528,-834.147 496.333,-843.01 500.593,-837.455"/>
</g>
<!-- Node9 -->
<g id="node9" class="node"><title>Node9</title>
<g id="a_node9"><a xlink:href="class_lists_collection.html#ae86ac9787cede610e609395c71d9180c" target="_top" xlink:title="Add a new list to Constant Contact account. ">
<polygon fill="white" stroke="black" points="559.251,-1536 559.251,-1556 674.749,-1556 674.749,-1536 559.251,-1536"/>
<text text-anchor="middle" x="617" y="-1542" font-family="Helvetica,sans-Serif" font-size="10.00">ListsCollection\addList</text>
</a>
</g>
</g>
<!-- Node5&#45;&gt;Node9 -->
<g id="edge8" class="edge"><title>Node5&#45;&gt;Node9</title>
<path fill="none" stroke="midnightblue" d="M498.781,-840.484C499.916,-841.587 500.992,-842.757 502,-844 597.603,-961.87 441.833,-1408.59 538,-1526 543.492,-1532.71 550.899,-1537.34 558.971,-1540.5"/>
<polygon fill="midnightblue" stroke="midnightblue" points="500.583,-837.456 490.515,-834.157 496.328,-843.015 500.583,-837.456"/>
</g>
<!-- Node10 -->
<g id="node10" class="node"><title>Node10</title>
<g id="a_node10"><a xlink:href="class_activities_collection.html#aa5373dc495a33732f64bc330fc86f8f3" target="_top" xlink:title="Add multiple contacts at once. ">
<polygon fill="white" stroke="black" points="567.318,-1485 567.318,-1517 666.682,-1517 666.682,-1485 567.318,-1485"/>
<text text-anchor="start" x="575.318" y="-1503" font-family="Helvetica,sans-Serif" font-size="10.00">ActivitiesCollection</text>
<text text-anchor="middle" x="617" y="-1491" font-family="Helvetica,sans-Serif" font-size="10.00">\bulkAddContacts</text>
</a>
</g>
</g>
<!-- Node5&#45;&gt;Node10 -->
<g id="edge9" class="edge"><title>Node5&#45;&gt;Node10</title>
<path fill="none" stroke="midnightblue" d="M498.774,-840.49C499.911,-841.591 500.989,-842.759 502,-844 590.706,-952.892 452.664,-1363.45 538,-1475 545.198,-1484.41 555.928,-1490.45 567.143,-1494.32"/>
<polygon fill="midnightblue" stroke="midnightblue" points="500.569,-837.458 490.497,-834.172 496.322,-843.022 500.569,-837.458"/>
</g>
<!-- Node11 -->
<g id="node11" class="node"><title>Node11</title>
<g id="a_node11"><a xlink:href="class_campaigns_collection.html#af8bbae16c19c800f6fe4e5e605c57812" target="_top" xlink:title="Delete a Campaign. ">
<polygon fill="white" stroke="black" points="561.754,-1434 561.754,-1466 672.246,-1466 672.246,-1434 561.754,-1434"/>
<text text-anchor="start" x="569.754" y="-1452" font-family="Helvetica,sans-Serif" font-size="10.00">CampaignsCollection</text>
<text text-anchor="middle" x="617" y="-1440" font-family="Helvetica,sans-Serif" font-size="10.00">\deleteCampaign</text>
</a>
</g>
</g>
<!-- Node5&#45;&gt;Node11 -->
<g id="edge10" class="edge"><title>Node5&#45;&gt;Node11</title>
<path fill="none" stroke="midnightblue" d="M498.765,-840.497C499.905,-841.596 500.986,-842.762 502,-844 583.811,-943.917 459.282,-1321.63 538,-1424 544.004,-1431.81 552.438,-1437.3 561.555,-1441.15"/>
<polygon fill="midnightblue" stroke="midnightblue" points="500.553,-837.459 490.475,-834.189 496.314,-843.03 500.553,-837.459"/>
</g>
<!-- Node12 -->
<g id="node12" class="node"><title>Node12</title>
<g id="a_node12"><a xlink:href="class_contacts_collection.html#a9d6f8953c0599fd35b49bbb1b72614b8" target="_top" xlink:title="Delete a Contact. ">
<polygon fill="white" stroke="black" points="567.313,-1383 567.313,-1415 666.687,-1415 666.687,-1383 567.313,-1383"/>
<text text-anchor="start" x="575.313" y="-1401" font-family="Helvetica,sans-Serif" font-size="10.00">ContactsCollection</text>
<text text-anchor="middle" x="617" y="-1389" font-family="Helvetica,sans-Serif" font-size="10.00">\deleteContact</text>
</a>
</g>
</g>
<!-- Node5&#45;&gt;Node12 -->
<g id="edge11" class="edge"><title>Node5&#45;&gt;Node12</title>
<path fill="none" stroke="midnightblue" d="M498.31,-840.085C499.617,-841.302 500.851,-842.606 502,-844 576.917,-934.944 465.898,-1279.81 538,-1373 545.25,-1382.37 555.998,-1388.4 567.214,-1392.26"/>
<polygon fill="midnightblue" stroke="midnightblue" points="500.224,-837.147 490.105,-834.005 496.056,-842.771 500.224,-837.147"/>
</g>
<!-- Node13 -->
<g id="node13" class="node"><title>Node13</title>
<g id="a_node13"><a xlink:href="class_library_collection.html#abd5ce3c42f1924c16ae8e1ab2f0b506f" target="_top" xlink:title="Delete image from an account. ">
<polygon fill="white" stroke="black" points="556.749,-1332 556.749,-1364 677.251,-1364 677.251,-1332 556.749,-1332"/>
<text text-anchor="start" x="564.749" y="-1350" font-family="Helvetica,sans-Serif" font-size="10.00">LibraryCollection\delete</text>
<text text-anchor="middle" x="617" y="-1338" font-family="Helvetica,sans-Serif" font-size="10.00">Image</text>
</a>
</g>
</g>
<!-- Node5&#45;&gt;Node13 -->
<g id="edge12" class="edge"><title>Node5&#45;&gt;Node13</title>
<path fill="none" stroke="midnightblue" d="M498.296,-840.096C499.608,-841.31 500.846,-842.61 502,-844 570.026,-925.973 472.512,-1237.99 538,-1322 542.914,-1328.3 549.411,-1333.09 556.563,-1336.73"/>
<polygon fill="midnightblue" stroke="midnightblue" points="500.199,-837.15 490.074,-834.031 496.044,-842.784 500.199,-837.15"/>
</g>
<!-- Node14 -->
<g id="node14" class="node"><title>Node14</title>
<g id="a_node14"><a xlink:href="class_library_collection.html#a35b66eb41a8bf5de0430efcf903457e2" target="_top" xlink:title="Delete all the images from a folder. ">
<polygon fill="white" stroke="black" points="556.749,-1281 556.749,-1313 677.251,-1313 677.251,-1281 556.749,-1281"/>
<text text-anchor="start" x="564.749" y="-1299" font-family="Helvetica,sans-Serif" font-size="10.00">LibraryCollection\delete</text>
<text text-anchor="middle" x="617" y="-1287" font-family="Helvetica,sans-Serif" font-size="10.00">ImagesFromFolder</text>
</a>
</g>
</g>
<!-- Node5&#45;&gt;Node14 -->
<g id="edge13" class="edge"><title>Node5&#45;&gt;Node14</title>
<path fill="none" stroke="midnightblue" d="M498.28,-840.11C499.596,-841.32 500.84,-842.615 502,-844 563.138,-917.007 479.122,-1196.16 538,-1271 542.942,-1277.28 549.455,-1282.06 556.614,-1285.69"/>
<polygon fill="midnightblue" stroke="midnightblue" points="500.169,-837.155 490.035,-834.063 496.029,-842.8 500.169,-837.155"/>
</g>
<!-- Node15 -->
<g id="node15" class="node"><title>Node15</title>
<g id="a_node15"><a xlink:href="class_lists_collection.html#afcdccd2d9b3c7c33046a6951b8c501d3" target="_top" xlink:title="Delete a ContactList from an account. ">
<polygon fill="white" stroke="black" points="553.971,-1242 553.971,-1262 680.029,-1262 680.029,-1242 553.971,-1242"/>
<text text-anchor="middle" x="617" y="-1248" font-family="Helvetica,sans-Serif" font-size="10.00">ListsCollection\deleteList</text>
</a>
</g>
</g>
<!-- Node5&#45;&gt;Node15 -->
<g id="edge14" class="edge"><title>Node5&#45;&gt;Node15</title>
<path fill="none" stroke="midnightblue" d="M498.264,-840.123C499.585,-841.329 500.834,-842.62 502,-844 557.874,-910.154 481.809,-1166.12 538,-1232 542.354,-1237.11 547.818,-1241 553.822,-1243.96"/>
<polygon fill="midnightblue" stroke="midnightblue" points="500.14,-837.159 489.998,-834.094 496.015,-842.815 500.14,-837.159"/>
</g>
<!-- Node16 -->
<g id="node16" class="node"><title>Node16</title>
<g id="a_node16"><a xlink:href="class_campaigns_collection.html#a69b0afca8af93253a4d8e5e96eaaf875" target="_top" xlink:title="Delete a schedule from a campaign (prevent from sending) ">
<polygon fill="white" stroke="black" points="561.754,-1191 561.754,-1223 672.246,-1223 672.246,-1191 561.754,-1191"/>
<text text-anchor="start" x="569.754" y="-1209" font-family="Helvetica,sans-Serif" font-size="10.00">CampaignsCollection</text>
<text text-anchor="middle" x="617" y="-1197" font-family="Helvetica,sans-Serif" font-size="10.00">\deleteSchedule</text>
</a>
</g>
</g>
<!-- Node5&#45;&gt;Node16 -->
<g id="edge15" class="edge"><title>Node5&#45;&gt;Node16</title>
<path fill="none" stroke="midnightblue" d="M498.238,-840.145C499.567,-841.345 500.825,-842.628 502,-844 599.992,-958.398 443.551,-1063.66 538,-1181 544.086,-1188.56 552.443,-1193.94 561.434,-1197.76"/>
<polygon fill="midnightblue" stroke="midnightblue" points="500.093,-837.167 489.939,-834.145 495.992,-842.84 500.093,-837.167"/>
</g>
<!-- Node17 -->
<g id="node17" class="node"><title>Node17</title>
<g id="a_node17"><a xlink:href="class_settings_collection.html#a5b55d829b678ff6e8ef61cb7c3af3afe" target="_top" xlink:title="Get a list of verified email addresses for an account. ">
<polygon fill="white" stroke="black" points="568.978,-1140 568.978,-1172 665.022,-1172 665.022,-1140 568.978,-1140"/>
<text text-anchor="start" x="576.978" y="-1158" font-family="Helvetica,sans-Serif" font-size="10.00">SettingsCollection</text>
<text text-anchor="middle" x="617" y="-1146" font-family="Helvetica,sans-Serif" font-size="10.00">\getAddresses</text>
</a>
</g>
</g>
<!-- Node5&#45;&gt;Node17 -->
<g id="edge16" class="edge"><title>Node5&#45;&gt;Node17</title>
<path fill="none" stroke="midnightblue" d="M497.723,-839.753C499.24,-841.064 500.671,-842.477 502,-844 586.255,-940.511 456.734,-1030.96 538,-1130 545.787,-1139.49 557.144,-1145.54 568.795,-1149.39"/>
<polygon fill="midnightblue" stroke="midnightblue" points="499.71,-836.872 489.508,-834.015 495.702,-842.611 499.71,-836.872"/>
</g>
<!-- Node18 -->
<g id="node18" class="node"><title>Node18</title>
<g id="a_node18"><a xlink:href="class_campaigns_collection.html#ac411f9b4976e489a0433606367a6d329" target="_top" xlink:title="Get detailed Campaign object. ">
<polygon fill="white" stroke="black" points="561.754,-1089 561.754,-1121 672.246,-1121 672.246,-1089 561.754,-1089"/>
<text text-anchor="start" x="569.754" y="-1107" font-family="Helvetica,sans-Serif" font-size="10.00">CampaignsCollection</text>
<text text-anchor="middle" x="617" y="-1095" font-family="Helvetica,sans-Serif" font-size="10.00">\getCampaignDetails</text>
</a>
</g>
</g>
<!-- Node5&#45;&gt;Node18 -->
<g id="edge17" class="edge"><title>Node5&#45;&gt;Node18</title>
<path fill="none" stroke="midnightblue" d="M497.669,-839.801C499.201,-841.098 500.65,-842.495 502,-844 572.55,-922.66 469.887,-998.221 538,-1079 544.257,-1086.42 552.693,-1091.73 561.71,-1095.53"/>
<polygon fill="midnightblue" stroke="midnightblue" points="499.617,-836.893 489.392,-834.117 495.655,-842.664 499.617,-836.893"/>
</g>
<!-- Node19 -->
<g id="node19" class="node"><title>Node19</title>
<g id="a_node19"><a xlink:href="class_campaigns_collection.html#ab3a63de718c94ce760ebf19f59170f0c" target="_top" xlink:title="CampaignsCollection\l\\getCampaignEvents">
<polygon fill="white" stroke="black" points="561.754,-1038 561.754,-1070 672.246,-1070 672.246,-1038 561.754,-1038"/>
<text text-anchor="start" x="569.754" y="-1056" font-family="Helvetica,sans-Serif" font-size="10.00">CampaignsCollection</text>
<text text-anchor="middle" x="617" y="-1044" font-family="Helvetica,sans-Serif" font-size="10.00">\getCampaignEvents</text>
</a>
</g>
</g>
<!-- Node5&#45;&gt;Node19 -->
<g id="edge18" class="edge"><title>Node5&#45;&gt;Node19</title>
<path fill="none" stroke="midnightblue" d="M497.471,-839.781C499.07,-841.082 500.585,-842.486 502,-844 558.904,-904.874 482.984,-965.415 538,-1028 544.314,-1035.18 552.666,-1040.39 561.557,-1044.16"/>
<polygon fill="midnightblue" stroke="midnightblue" points="499.132,-836.683 488.861,-834.085 495.27,-842.521 499.132,-836.683"/>
</g>
<!-- Node20 -->
<g id="node20" class="node"><title>Node20</title>
<g id="a_node20"><a xlink:href="class_campaigns_collection.html#a2ec4b8a52341c840c56881d98d0bfdd6" target="_top" xlink:title="Get a page of Campaigns. ">
<polygon fill="white" stroke="black" points="561.754,-987 561.754,-1019 672.246,-1019 672.246,-987 561.754,-987"/>
<text text-anchor="start" x="569.754" y="-1005" font-family="Helvetica,sans-Serif" font-size="10.00">CampaignsCollection</text>
<text text-anchor="middle" x="617" y="-993" font-family="Helvetica,sans-Serif" font-size="10.00">\getCampaigns</text>
</a>
</g>
</g>
<!-- Node5&#45;&gt;Node20 -->
<g id="edge19" class="edge"><title>Node5&#45;&gt;Node20</title>
<path fill="none" stroke="midnightblue" d="M496.656,-839.406C498.543,-840.811 500.332,-842.339 502,-844 545.383,-887.221 495.959,-932.473 538,-977 544.468,-983.85 552.785,-988.896 561.568,-992.613"/>
<polygon fill="midnightblue" stroke="midnightblue" points="498.193,-836.243 487.837,-834.003 494.536,-842.212 498.193,-836.243"/>
</g>
<!-- Node21 -->
<g id="node21" class="node"><title>Node21</title>
<g id="a_node21"><a xlink:href="class_campaigns_collection.html#a60d74f76a35500fc9bb792fd98d94b3c" target="_top" xlink:title="Get a page of campaigns by status. ">
<polygon fill="white" stroke="black" points="555.36,-936 555.36,-968 678.64,-968 678.64,-936 555.36,-936"/>
<text text-anchor="start" x="563.36" y="-954" font-family="Helvetica,sans-Serif" font-size="10.00">CampaignsCollection</text>
<text text-anchor="middle" x="617" y="-942" font-family="Helvetica,sans-Serif" font-size="10.00">\getCampaignsByStatus</text>
</a>
</g>
</g>
<!-- Node5&#45;&gt;Node21 -->
<g id="edge20" class="edge"><title>Node5&#45;&gt;Node21</title>
<path fill="none" stroke="midnightblue" d="M494.944,-838.839C497.428,-840.394 499.794,-842.108 502,-844 532.214,-869.91 508.592,-899.179 538,-926 543.062,-930.617 548.968,-934.417 555.224,-937.543"/>
<polygon fill="midnightblue" stroke="midnightblue" points="496.58,-835.745 486.106,-834.149 493.298,-841.928 496.58,-835.745"/>
</g>
<!-- Node22 -->
<g id="node22" class="node"><title>Node22</title>
<g id="a_node22"><a xlink:href="class_contacts_collection.html#a55c54d5be74863ecc8dfa0f53a4f430f" target="_top" xlink:title="Get detailed Contact object for a given contact. ">
<polygon fill="white" stroke="black" points="567.313,-885 567.313,-917 666.687,-917 666.687,-885 567.313,-885"/>
<text text-anchor="start" x="575.313" y="-903" font-family="Helvetica,sans-Serif" font-size="10.00">ContactsCollection</text>
<text text-anchor="middle" x="617" y="-891" font-family="Helvetica,sans-Serif" font-size="10.00">\getContactDetails</text>
</a>
</g>
</g>
<!-- Node5&#45;&gt;Node22 -->
<g id="edge21" class="edge"><title>Node5&#45;&gt;Node22</title>
<path fill="none" stroke="midnightblue" d="M486.898,-837.313C492.125,-839.265 497.233,-841.483 502,-844 520.672,-853.858 519.638,-864.576 538,-875 547.062,-880.144 557.298,-884.469 567.302,-888.023"/>
<polygon fill="midnightblue" stroke="midnightblue" points="488.005,-833.993 477.411,-834.08 485.748,-840.618 488.005,-833.993"/>
</g>
<!-- Node23 -->
<g id="node23" class="node"><title>Node23</title>
<g id="a_node23"><a xlink:href="class_contacts_collection.html#a8c5270d8d9d42b17b119c41b64b2e991" target="_top" xlink:title="Get events for a given Contact. ">
<polygon fill="white" stroke="black" points="567.313,-834 567.313,-866 666.687,-866 666.687,-834 567.313,-834"/>
<text text-anchor="start" x="575.313" y="-852" font-family="Helvetica,sans-Serif" font-size="10.00">ContactsCollection</text>
<text text-anchor="middle" x="617" y="-840" font-family="Helvetica,sans-Serif" font-size="10.00">\getContactEvents</text>
</a>
</g>
</g>
<!-- Node5&#45;&gt;Node23 -->
<g id="edge22" class="edge"><title>Node5&#45;&gt;Node23</title>
<path fill="none" stroke="midnightblue" d="M508.482,-835.209C528.437,-837.954 549.182,-840.808 567.065,-843.268"/>
<polygon fill="midnightblue" stroke="midnightblue" points="508.837,-831.725 498.453,-833.829 507.882,-838.66 508.837,-831.725"/>
</g>
<!-- Node24 -->
<g id="node24" class="node"><title>Node24</title>
<g id="a_node24"><a xlink:href="class_contacts_collection.html#a9dcfa1067f115ee7ba5f231b5433e912" target="_top" xlink:title="ContactsCollection\l\\getContacts">
<polygon fill="white" stroke="black" points="567.313,-783 567.313,-815 666.687,-815 666.687,-783 567.313,-783"/>
<text text-anchor="start" x="575.313" y="-801" font-family="Helvetica,sans-Serif" font-size="10.00">ContactsCollection</text>
<text text-anchor="middle" x="617" y="-789" font-family="Helvetica,sans-Serif" font-size="10.00">\getContacts</text>
</a>
</g>
</g>
<!-- Node5&#45;&gt;Node24 -->
<g id="edge23" class="edge"><title>Node5&#45;&gt;Node24</title>
<path fill="none" stroke="midnightblue" d="M508.482,-813.222C528.437,-810.582 549.182,-807.838 567.065,-805.473"/>
<polygon fill="midnightblue" stroke="midnightblue" points="507.907,-809.767 498.453,-814.549 508.825,-816.707 507.907,-809.767"/>
</g>
<!-- Node26 -->
<g id="node26" class="node"><title>Node26</title>
<g id="a_node26"><a xlink:href="class_events_collection.html#afb1f27cb72007acfd6f901d743c8acad" target="_top" xlink:title="Get full details for an Event object. ">
<polygon fill="white" stroke="black" points="550.633,-732 550.633,-764 683.367,-764 683.367,-732 550.633,-732"/>
<text text-anchor="start" x="558.633" y="-750" font-family="Helvetica,sans-Serif" font-size="10.00">EventsCollection\getEvent</text>
<text text-anchor="middle" x="617" y="-738" font-family="Helvetica,sans-Serif" font-size="10.00">Details</text>
</a>
</g>
</g>
<!-- Node5&#45;&gt;Node26 -->
<g id="edge25" class="edge"><title>Node5&#45;&gt;Node26</title>
<path fill="none" stroke="midnightblue" d="M456.806,-809.581C478.956,-799.11 510.048,-784.922 538,-774 546.775,-770.571 556.21,-767.182 565.381,-764.041"/>
<polygon fill="midnightblue" stroke="midnightblue" points="455.125,-806.505 447.599,-813.962 458.133,-812.825 455.125,-806.505"/>
</g>
<!-- Node27 -->
<g id="node27" class="node"><title>Node27</title>
<g id="a_node27"><a xlink:href="class_events_collection.html#ad0ab949e45693fd1d72baed5d5e5d552" target="_top" xlink:title="Get a page of Events. ">
<polygon fill="white" stroke="black" points="548.133,-693 548.133,-713 685.867,-713 685.867,-693 548.133,-693"/>
<text text-anchor="middle" x="617" y="-699" font-family="Helvetica,sans-Serif" font-size="10.00">EventsCollection\getEvents</text>
</a>
</g>
</g>
<!-- Node5&#45;&gt;Node27 -->
<g id="edge26" class="edge"><title>Node5&#45;&gt;Node27</title>
<path fill="none" stroke="midnightblue" d="M441.657,-806.095C461.245,-783.355 498.146,-744.496 538,-723 545.506,-718.952 553.863,-715.697 562.24,-713.088"/>
<polygon fill="midnightblue" stroke="midnightblue" points="438.802,-804.052 435.027,-813.951 444.151,-808.566 438.802,-804.052"/>
</g>
<!-- Node28 -->
<g id="node28" class="node"><title>Node28</title>
<g id="a_node28"><a xlink:href="class_library_collection.html#a9a59624475132d58b8d356ff17cc3d71" target="_top" xlink:title="Get a page of Folders. ">
<polygon fill="white" stroke="black" points="546.749,-654 546.749,-674 687.251,-674 687.251,-654 546.749,-654"/>
<text text-anchor="middle" x="617" y="-660" font-family="Helvetica,sans-Serif" font-size="10.00">LibraryCollection\getFolders</text>
</a>
</g>
</g>
<!-- Node5&#45;&gt;Node28 -->
<g id="edge27" class="edge"><title>Node5&#45;&gt;Node28</title>
<path fill="none" stroke="midnightblue" d="M436.993,-804.47C453.657,-773.917 490.08,-715.103 538,-684 544.332,-679.89 551.464,-676.624 558.775,-674.029"/>
<polygon fill="midnightblue" stroke="midnightblue" points="433.708,-803.193 432.11,-813.667 439.891,-806.475 433.708,-803.193"/>
</g>
<!-- Node29 -->
<g id="node29" class="node"><title>Node29</title>
<g id="a_node29"><a xlink:href="class_library_collection.html#a058e0d1ce52b8880b71a6203a106ed9d" target="_top" xlink:title="Get details for an image. ">
<polygon fill="white" stroke="black" points="549.525,-603 549.525,-635 684.475,-635 684.475,-603 549.525,-603"/>
<text text-anchor="start" x="557.525" y="-621" font-family="Helvetica,sans-Serif" font-size="10.00">LibraryCollection\getImage</text>
<text text-anchor="middle" x="617" y="-609" font-family="Helvetica,sans-Serif" font-size="10.00">Details</text>
</a>
</g>
</g>
<!-- Node5&#45;&gt;Node29 -->
<g id="edge28" class="edge"><title>Node5&#45;&gt;Node29</title>
<path fill="none" stroke="midnightblue" d="M434.006,-804.217C448.004,-767.487 482.902,-688.538 538,-645 542.816,-641.195 548.214,-637.934 553.864,-635.142"/>
<polygon fill="midnightblue" stroke="midnightblue" points="430.653,-803.193 430.472,-813.786 437.22,-805.618 430.653,-803.193"/>
</g>
<!-- Node30 -->
<g id="node30" class="node"><title>Node30</title>
<g id="a_node30"><a xlink:href="class_library_collection.html#aae2790279001240056f5385ea247c80a" target="_top" xlink:title="Gets a page of images from a folder. ">
<polygon fill="white" stroke="black" points="547.025,-552 547.025,-584 686.975,-584 686.975,-552 547.025,-552"/>
<text text-anchor="start" x="555.025" y="-570" font-family="Helvetica,sans-Serif" font-size="10.00">LibraryCollection\getImages</text>
<text text-anchor="middle" x="617" y="-558" font-family="Helvetica,sans-Serif" font-size="10.00">FromFolder</text>
</a>
</g>
</g>
<!-- Node5&#45;&gt;Node30 -->
<g id="edge29" class="edge"><title>Node5&#45;&gt;Node30</title>
<path fill="none" stroke="midnightblue" d="M431.186,-803.621C441.387,-759.065 471.71,-652.312 538,-594 542.394,-590.135 547.382,-586.84 552.66,-584.034"/>
<polygon fill="midnightblue" stroke="midnightblue" points="427.734,-803.025 429.016,-813.542 434.572,-804.521 427.734,-803.025"/>
</g>
<!-- Node31 -->
<g id="node31" class="node"><title>Node31</title>
<g id="a_node31"><a xlink:href="class_lists_collection.html#a4f6e3afda3ab2734a175e1735a0e6e0a" target="_top" xlink:title="Get full details for a ContactList. ">
<polygon fill="white" stroke="black" points="545.36,-513 545.36,-533 688.64,-533 688.64,-513 545.36,-513"/>
<text text-anchor="middle" x="617" y="-519" font-family="Helvetica,sans-Serif" font-size="10.00">ListsCollection\getListDetails</text>
</a>
</g>
</g>
<!-- Node5&#45;&gt;Node31 -->
<g id="edge30" class="edge"><title>Node5&#45;&gt;Node31</title>
<path fill="none" stroke="midnightblue" d="M428.82,-803.804C434.589,-752.15 457.177,-614.289 538,-543 542.613,-538.931 547.945,-535.67 553.611,-533.059"/>
<polygon fill="midnightblue" stroke="midnightblue" points="425.315,-803.675 427.782,-813.979 432.279,-804.386 425.315,-803.675"/>
</g>
<!-- Node32 -->
<g id="node32" class="node"><title>Node32</title>
<g id="a_node32"><a xlink:href="class_lists_collection.html#a6669dd5849b06b88788089506f656af5" target="_top" xlink:title="Get a page of contacts from a given list. ">
<polygon fill="white" stroke="black" points="539.806,-474 539.806,-494 694.194,-494 694.194,-474 539.806,-474"/>
<text text-anchor="middle" x="617" y="-480" font-family="Helvetica,sans-Serif" font-size="10.00">ListsCollection\getListMembers</text>
</a>
</g>
</g>
<!-- Node5&#45;&gt;Node32 -->
<g id="edge31" class="edge"><title>Node5&#45;&gt;Node32</title>
<path fill="none" stroke="midnightblue" d="M427.723,-803.716C430.872,-747.273 447.733,-587.079 538,-504 542.423,-499.929 547.561,-496.662 553.049,-494.042"/>
<polygon fill="midnightblue" stroke="midnightblue" points="424.221,-803.693 427.248,-813.846 431.213,-804.021 424.221,-803.693"/>
</g>
<!-- Node33 -->
<g id="node33" class="node"><title>Node33</title>
<g id="a_node33"><a xlink:href="class_lists_collection.html#a81d8be6f107777e34fc2384b2c4b3150" target="_top" xlink:title="Get an array of ContactList objects. ">
<polygon fill="white" stroke="black" points="558.143,-435 558.143,-455 675.857,-455 675.857,-435 558.143,-435"/>
<text text-anchor="middle" x="617" y="-441" font-family="Helvetica,sans-Serif" font-size="10.00">ListsCollection\getLists</text>
</a>
</g>
</g>
<!-- Node5&#45;&gt;Node33 -->
<g id="edge32" class="edge"><title>Node5&#45;&gt;Node33</title>
<path fill="none" stroke="midnightblue" d="M426.84,-803.748C427.511,-742.906 438.139,-560.097 538,-465 543.669,-459.601 550.591,-455.607 557.945,-452.662"/>
<polygon fill="midnightblue" stroke="midnightblue" points="423.339,-803.926 426.813,-813.935 430.339,-803.944 423.339,-803.926"/>
</g>
<!-- Node34 -->
<g id="node34" class="node"><title>Node34</title>
<g id="a_node34"><a xlink:href="class_events_collection.html#a7ab04dcbb2dd3baed275acf7cf658055" target="_top" xlink:title="Get details for an Event Registrant. ">
<polygon fill="white" stroke="black" points="540.631,-384 540.631,-416 693.369,-416 693.369,-384 540.631,-384"/>
<text text-anchor="start" x="548.631" y="-402" font-family="Helvetica,sans-Serif" font-size="10.00">EventsCollection\getRegistrant</text>
<text text-anchor="middle" x="617" y="-390" font-family="Helvetica,sans-Serif" font-size="10.00">Details</text>
</a>
</g>
</g>
<!-- Node5&#45;&gt;Node34 -->
<g id="edge33" class="edge"><title>Node5&#45;&gt;Node34</title>
<path fill="none" stroke="midnightblue" d="M426.431,-803.636C425.764,-739.091 432.582,-536.8 538,-426 541.64,-422.174 545.858,-418.91 550.41,-416.127"/>
<polygon fill="midnightblue" stroke="midnightblue" points="422.933,-803.787 426.612,-813.723 429.931,-803.661 422.933,-803.787"/>
</g>
<!-- Node35 -->
<g id="node35" class="node"><title>Node35</title>
<g id="a_node35"><a xlink:href="class_events_collection.html#a6baab87fc0a58669c4b88cb2625c4b8a" target="_top" xlink:title="Get a page of Registrants for an Event. ">
<polygon fill="white" stroke="black" points="538.131,-345 538.131,-365 695.869,-365 695.869,-345 538.131,-345"/>
<text text-anchor="middle" x="617" y="-351" font-family="Helvetica,sans-Serif" font-size="10.00">EventsCollection\getRegistrants</text>
</a>
</g>
</g>
<!-- Node5&#45;&gt;Node35 -->
<g id="edge34" class="edge"><title>Node5&#45;&gt;Node35</title>
<path fill="none" stroke="midnightblue" d="M429.257,-803.767C438.475,-724.688 475.765,-437.776 538,-375 542.035,-370.93 546.779,-367.65 551.9,-365.012"/>
<polygon fill="midnightblue" stroke="midnightblue" points="425.76,-803.542 428.101,-813.875 432.715,-804.337 425.76,-803.542"/>
</g>
<!-- Node36 -->
<g id="node36" class="node"><title>Node36</title>
<g id="a_node36"><a xlink:href="class_campaigns_collection.html#a7b245605bb0707dfec9d384521a39ad6" target="_top" xlink:title="Get a schedule for an email. ">
<polygon fill="white" stroke="black" points="561.754,-294 561.754,-326 672.246,-326 672.246,-294 561.754,-294"/>
<text text-anchor="start" x="569.754" y="-312" font-family="Helvetica,sans-Serif" font-size="10.00">CampaignsCollection</text>
<text text-anchor="middle" x="617" y="-300" font-family="Helvetica,sans-Serif" font-size="10.00">\getSchedule</text>
</a>
</g>
</g>
<!-- Node5&#45;&gt;Node36 -->
<g id="edge35" class="edge"><title>Node5&#45;&gt;Node36</title>
<path fill="none" stroke="midnightblue" d="M428.974,-803.773C437.458,-720.769 473.353,-407.322 538,-336 544.423,-328.914 552.826,-323.756 561.734,-320.003"/>
<polygon fill="midnightblue" stroke="midnightblue" points="425.474,-803.607 427.959,-813.906 432.439,-804.305 425.474,-803.607"/>
</g>
<!-- Node37 -->
<g id="node37" class="node"><title>Node37</title>
<g id="a_node37"><a xlink:href="class_campaigns_collection.html#a0d5df67f0dd50c64257c8b0135196509" target="_top" xlink:title="Schedule an email for delivery. ">
<polygon fill="white" stroke="black" points="561.754,-243 561.754,-275 672.246,-275 672.246,-243 561.754,-243"/>
<text text-anchor="start" x="569.754" y="-261" font-family="Helvetica,sans-Serif" font-size="10.00">CampaignsCollection</text>
<text text-anchor="middle" x="617" y="-249" font-family="Helvetica,sans-Serif" font-size="10.00">\scheduleCampaign</text>
</a>
</g>
</g>
<!-- Node5&#45;&gt;Node37 -->
<g id="edge36" class="edge"><title>Node5&#45;&gt;Node37</title>
<path fill="none" stroke="midnightblue" d="M428.512,-803.668C435.477,-715.21 467.204,-364.737 538,-285 544.35,-277.848 552.718,-272.659 561.615,-268.895"/>
<polygon fill="midnightblue" stroke="midnightblue" points="425.014,-803.506 427.737,-813.745 431.993,-804.043 425.014,-803.506"/>
</g>
<!-- Node38 -->
<g id="node38" class="node"><title>Node38</title>
<g id="a_node38"><a xlink:href="class_contacts_collection.html#a607e64e75eef78c7e3d22362d6400541" target="_top" xlink:title="Search for Contacts by email addresses. ">
<polygon fill="white" stroke="black" points="554.535,-192 554.535,-224 679.465,-224 679.465,-192 554.535,-192"/>
<text text-anchor="start" x="562.535" y="-210" font-family="Helvetica,sans-Serif" font-size="10.00">ContactsCollection</text>
<text text-anchor="middle" x="617" y="-198" font-family="Helvetica,sans-Serif" font-size="10.00">\searchContactsByEmail</text>
</a>
</g>
</g>
<!-- Node5&#45;&gt;Node38 -->
<g id="edge37" class="edge"><title>Node5&#45;&gt;Node38</title>
<path fill="none" stroke="midnightblue" d="M428.124,-803.568C433.673,-709.882 461.03,-322.202 538,-234 542.599,-228.73 548.295,-224.525 554.499,-221.17"/>
<polygon fill="midnightblue" stroke="midnightblue" points="424.621,-803.528 427.542,-813.713 431.609,-803.93 424.621,-803.528"/>
</g>
<!-- Node39 -->
<g id="node39" class="node"><title>Node39</title>
<g id="a_node39"><a xlink:href="class_campaigns_collection.html#a9c9715edb4f23ba515ce7b53a38cfdbb" target="_top" xlink:title="Update a campaign with it&#39;s current properties. ">
<polygon fill="white" stroke="black" points="561.754,-141 561.754,-173 672.246,-173 672.246,-141 561.754,-141"/>
<text text-anchor="start" x="569.754" y="-159" font-family="Helvetica,sans-Serif" font-size="10.00">CampaignsCollection</text>
<text text-anchor="middle" x="617" y="-147" font-family="Helvetica,sans-Serif" font-size="10.00">\updateCampaign</text>
</a>
</g>
</g>
<!-- Node5&#45;&gt;Node39 -->
<g id="edge38" class="edge"><title>Node5&#45;&gt;Node39</title>
<path fill="none" stroke="midnightblue" d="M427.785,-803.706C431.978,-705.435 454.768,-279.785 538,-183 544.236,-175.749 552.55,-170.512 561.428,-166.733"/>
<polygon fill="midnightblue" stroke="midnightblue" points="424.284,-803.664 427.371,-813.799 431.278,-803.95 424.284,-803.664"/>
</g>
<!-- Node40 -->
<g id="node40" class="node"><title>Node40</title>
<g id="a_node40"><a xlink:href="class_contacts_collection.html#a7b797f7d3ca86f6ade7c4266f56e3699" target="_top" xlink:title="Update a Contact. ">
<polygon fill="white" stroke="black" points="567.313,-90 567.313,-122 666.687,-122 666.687,-90 567.313,-90"/>
<text text-anchor="start" x="575.313" y="-108" font-family="Helvetica,sans-Serif" font-size="10.00">ContactsCollection</text>
<text text-anchor="middle" x="617" y="-96" font-family="Helvetica,sans-Serif" font-size="10.00">\updateContact</text>
</a>
</g>
</g>
<!-- Node5&#45;&gt;Node40 -->
<g id="edge39" class="edge"><title>Node5&#45;&gt;Node40</title>
<path fill="none" stroke="midnightblue" d="M427.5,-803.754C430.432,-700.936 448.511,-237.377 538,-132 545.484,-123.187 556.041,-117.348 566.977,-113.483"/>
<polygon fill="midnightblue" stroke="midnightblue" points="423.994,-803.903 427.225,-813.993 430.992,-804.09 423.994,-803.903"/>
</g>
<!-- Node41 -->
<g id="node41" class="node"><title>Node41</title>
<g id="a_node41"><a xlink:href="class_lists_collection.html#a3694026dd4e0ecd253a4232a00ef11e8" target="_top" xlink:title="Update a ContactList. ">
<polygon fill="white" stroke="black" points="552.301,-51 552.301,-71 681.699,-71 681.699,-51 552.301,-51"/>
<text text-anchor="middle" x="617" y="-57" font-family="Helvetica,sans-Serif" font-size="10.00">ListsCollection\updateList</text>
</a>
</g>
</g>
<!-- Node5&#45;&gt;Node41 -->
<g id="edge40" class="edge"><title>Node5&#45;&gt;Node41</title>
<path fill="none" stroke="midnightblue" d="M427.113,-803.847C428.128,-696.391 438.213,-191.6 538,-81 542.027,-76.5368 546.902,-73.0087 552.226,-70.2274"/>
<polygon fill="midnightblue" stroke="midnightblue" points="423.612,-803.946 427.034,-813.973 430.612,-804 423.612,-803.946"/>
</g>
<!-- Node42 -->
<g id="node42" class="node"><title>Node42</title>
<g id="a_node42"><a xlink:href="class_library_collection.html#af84484f3dd033f05f78425a0a367ec82" target="_top" xlink:title="Upload an image to a folder. ">
<polygon fill="white" stroke="black" points="555.357,-0 555.357,-32 678.643,-32 678.643,-0 555.357,-0"/>
<text text-anchor="start" x="563.357" y="-18" font-family="Helvetica,sans-Serif" font-size="10.00">LibraryCollection\upload</text>
<text text-anchor="middle" x="617" y="-6" font-family="Helvetica,sans-Serif" font-size="10.00">Image</text>
</a>
</g>
</g>
<!-- Node5&#45;&gt;Node42 -->
<g id="edge41" class="edge"><title>Node5&#45;&gt;Node42</title>
<path fill="none" stroke="midnightblue" d="M427.089,-803.617C427.978,-692.716 437.496,-162.535 538,-42 542.662,-36.4088 548.562,-32.0135 555.022,-28.5594"/>
<polygon fill="midnightblue" stroke="midnightblue" points="423.589,-803.757 427.024,-813.779 430.588,-803.802 423.589,-803.757"/>
</g>
<!-- Node25 -->
<g id="node25" class="node"><title>Node25</title>
<g id="a_node25"><a xlink:href="class_contacts_collection.html#a5b3e93e3981dcec723292446f678f053" target="_top" xlink:title="Search for contacts that have been updated since a specific date. ">
<polygon fill="white" stroke="black" points="732.463,-783 732.463,-815 883.537,-815 883.537,-783 732.463,-783"/>
<text text-anchor="start" x="740.463" y="-801" font-family="Helvetica,sans-Serif" font-size="10.00">ContactsCollection</text>
<text text-anchor="middle" x="808" y="-789" font-family="Helvetica,sans-Serif" font-size="10.00">\searchContactsByLastUpdate</text>
</a>
</g>
</g>
<!-- Node24&#45;&gt;Node25 -->
<g id="edge24" class="edge"><title>Node24&#45;&gt;Node25</title>
<path fill="none" stroke="midnightblue" d="M677.224,-799C694.716,-799 714.091,-799 732.419,-799"/>
<polygon fill="midnightblue" stroke="midnightblue" points="677.164,-795.5 667.164,-799 677.164,-802.5 677.164,-795.5"/>
</g>
</g>
</svg>
        <g id="navigator" transform="translate(0 0)" fill="#404254">
                <rect fill="#f2f5e9" fill-opacity="0.5" stroke="#606060" stroke-width=".5" x="0" y="0" width="60" height="60"/>
                <use id="zoomplus" xlink:href="#zoomPlus" x="17" y="9" onmousedown="handleZoom(evt,'in')"/>
                <use id="zoomminus" xlink:href="#zoomMin" x="42" y="9" onmousedown="handleZoom(evt,'out')"/>
                <use id="reset" xlink:href="#resetDef" x="30" y="36" onmousedown="handleReset()"/>
                <g id="arrowUp" xlink:href="#dirArrow" transform="translate(30 24)" onmousedown="handlePan(0,-1)">
                  <use xlink:href="#rim" fill="#404040">
                        <set attributeName="fill" to="#808080" begin="arrowUp.mouseover" end="arrowUp.mouseout"/>
                  </use>
                  <path fill="none" stroke="white" stroke-width="1.5" d="M0,-3.0v7 M-2.5,-0.5L0,-3.0L2.5,-0.5"/>
                </g>
                <g id="arrowRight" xlink:href="#dirArrow" transform="rotate(90) translate(36 -43)" onmousedown="handlePan(1,0)">
                  <use xlink:href="#rim" fill="#404040">
                        <set attributeName="fill" to="#808080" begin="arrowRight.mouseover" end="arrowRight.mouseout"/>
                  </use>
                  <path fill="none" stroke="white" stroke-width="1.5" d="M0,-3.0v7 M-2.5,-0.5L0,-3.0L2.5,-0.5"/>
                </g>
                <g id="arrowDown" xlink:href="#dirArrow" transform="rotate(180) translate(-30 -48)" onmousedown="handlePan(0,1)">
                  <use xlink:href="#rim" fill="#404040">
                        <set attributeName="fill" to="#808080" begin="arrowDown.mouseover" end="arrowDown.mouseout"/>
                  </use>
                  <path fill="none" stroke="white" stroke-width="1.5" d="M0,-3.0v7 M-2.5,-0.5L0,-3.0L2.5,-0.5"/>
                </g>
                <g id="arrowLeft" xlink:href="#dirArrow" transform="rotate(270) translate(-36 17)" onmousedown="handlePan(-1,0)">
                  <use xlink:href="#rim" fill="#404040">
                        <set attributeName="fill" to="#808080" begin="arrowLeft.mouseover" end="arrowLeft.mouseout"/>
                  </use>
                  <path fill="none" stroke="white" stroke-width="1.5" d="M0,-3.0v7 M-2.5,-0.5L0,-3.0L2.5,-0.5"/>
                </g>
        </g>
        <svg viewBox="0 0 15 15" width="100%" height="30px" preserveAspectRatio="xMaxYMin meet">
         <g id="arrow_out" transform="scale(0.3 0.3)">
          <a xlink:href="class_o_auth_request_adfc6b936799f705d9a4442961a26e8cb_icgraph_org.svg" target="_base">
           <rect id="button" ry="5" rx="5" y="6" x="6" height="38" width="38"
                fill="#f2f5e9" fill-opacity="0.5" stroke="#606060" stroke-width="1.0"/>
           <path id="arrow"
             d="M 11.500037,31.436501 C 11.940474,20.09759 22.043105,11.32322 32.158766,21.979434 L 37.068811,17.246167 C 37.068811,17.246167 37.088388,32 37.088388,32 L 22.160133,31.978069 C 22.160133,31.978069 26.997745,27.140456 26.997745,27.140456 C 18.528582,18.264221 13.291696,25.230495 11.500037,31.436501 z"
             style="fill:#404040;"/>
          </a>
         </g>
        </svg>
</svg>
