<?xml version="1.0" encoding="UTF-8" standalone="no"?>
<!DOCTYPE svg PUBLIC "-//W3C//DTD SVG 1.1//EN"
 "http://www.w3.org/Graphics/SVG/1.1/DTD/svg11.dtd">
<!-- Generated by graphviz version 2.30.1 (20130221.2233)
 -->
<!-- Title: Net_DNS_Packet\parse_question Pages: 1 -->
<svg width="314pt" height="106pt"
 viewBox="0.00 0.00 314.00 106.00" xmlns="http://www.w3.org/2000/svg" xmlns:xlink="http://www.w3.org/1999/xlink">
<g id="graph0" class="graph" transform="scale(1 1) rotate(0) translate(4 102)">
<title>Net_DNS_Packet\parse_question</title>
<polygon fill="white" stroke="white" points="-4,5 -4,-102 311,-102 311,5 -4,5"/>
<!-- Node1 -->
<g id="node1" class="node"><title>Node1</title>
<polygon fill="#bfbfbf" stroke="black" points="-0.0810547,-33 -0.0810547,-65 122.081,-65 122.081,-33 -0.0810547,-33"/>
<text text-anchor="start" x="7.91895" y="-51" font-family="Helvetica,sans-Serif" font-size="10.00">Net_DNS_Packet\parse</text>
<text text-anchor="middle" x="61" y="-39" font-family="Helvetica,sans-Serif" font-size="10.00">_question</text>
</g>
<!-- Node2 -->
<g id="node2" class="node"><title>Node2</title>
<g id="a_node2"><a xlink:href="class_net___d_n_s.html#aa174e141c3f35c55667c426f4e14fdbf" target="_top" xlink:title="Translates RR class integers into names. ">
<polygon fill="white" stroke="black" points="173.148,-78 173.148,-98 290.852,-98 290.852,-78 173.148,-78"/>
<text text-anchor="middle" x="232" y="-84" font-family="Helvetica,sans-Serif" font-size="10.00">Net_DNS\classesbyval</text>
</a>
</g>
</g>
<!-- Node1&#45;&gt;Node2 -->
<g id="edge1" class="edge"><title>Node1&#45;&gt;Node2</title>
<path fill="none" stroke="midnightblue" d="M122.536,-62.9697C140.508,-67.1172 160.057,-71.6286 177.546,-75.6644"/>
<polygon fill="midnightblue" stroke="midnightblue" points="177.046,-79.141 187.577,-77.9793 178.62,-72.3203 177.046,-79.141"/>
</g>
<!-- Node3 -->
<g id="node3" class="node"><title>Node3</title>
<g id="a_node3"><a xlink:href="class_net___d_n_s___packet.html#a9844b7ce62cb096db44f58882f8ca403" target="_top" xlink:title="DNS packet decompression method. ">
<polygon fill="white" stroke="black" points="158.68,-39 158.68,-59 305.32,-59 305.32,-39 158.68,-39"/>
<text text-anchor="middle" x="232" y="-45" font-family="Helvetica,sans-Serif" font-size="10.00">Net_DNS_Packet\dn_expand</text>
</a>
</g>
</g>
<!-- Node1&#45;&gt;Node3 -->
<g id="edge2" class="edge"><title>Node1&#45;&gt;Node3</title>
<path fill="none" stroke="midnightblue" d="M122.536,-49C130.909,-49 139.624,-49 148.314,-49"/>
<polygon fill="midnightblue" stroke="midnightblue" points="148.481,-52.5001 158.481,-49 148.481,-45.5001 148.481,-52.5001"/>
</g>
<!-- Node4 -->
<g id="node4" class="node"><title>Node4</title>
<g id="a_node4"><a xlink:href="class_net___d_n_s.html#a861c4a9129fe2a4993108b6925d58f93" target="_top" xlink:title="Translates RR type integers into names. ">
<polygon fill="white" stroke="black" points="177.87,-0 177.87,-20 286.13,-20 286.13,-0 177.87,-0"/>
<text text-anchor="middle" x="232" y="-6" font-family="Helvetica,sans-Serif" font-size="10.00">Net_DNS\typesbyval</text>
</a>
</g>
</g>
<!-- Node1&#45;&gt;Node4 -->
<g id="edge3" class="edge"><title>Node1&#45;&gt;Node4</title>
<path fill="none" stroke="midnightblue" d="M122.536,-35.0303C140.508,-30.8828 160.057,-26.3714 177.546,-22.3356"/>
<polygon fill="midnightblue" stroke="midnightblue" points="178.62,-25.6797 187.577,-20.0207 177.046,-18.859 178.62,-25.6797"/>
</g>
</g>
</svg>
