<?xml version="1.0" encoding="UTF-8" standalone="no"?>
<!DOCTYPE svg PUBLIC "-//W3C//DTD SVG 1.1//EN"
 "http://www.w3.org/Graphics/SVG/1.1/DTD/svg11.dtd">
<!-- Generated by graphviz version 2.30.1 (20130221.2233)
 -->
<!-- Title: Ctct\Services\CampaignScheduleService\updateSchedule Pages: 1 -->
<svg width="376pt" height="181pt"
 viewBox="0.00 0.00 376.00 181.00" xmlns="http://www.w3.org/2000/svg" xmlns:xlink="http://www.w3.org/1999/xlink">
<g id="graph0" class="graph" transform="scale(1 1) rotate(0) translate(4 177)">
<title>Ctct\Services\CampaignScheduleService\updateSchedule</title>
<polygon fill="white" stroke="white" points="-4,5 -4,-177 373,-177 373,5 -4,5"/>
<!-- Node1 -->
<g id="node1" class="node"><title>Node1</title>
<polygon fill="#bfbfbf" stroke="black" points="0.52002,-67 0.52002,-99 165.48,-99 165.48,-67 0.52002,-67"/>
<text text-anchor="start" x="8.52002" y="-85" font-family="Helvetica,sans-Serif" font-size="10.00">Ctct\Services\CampaignSchedule</text>
<text text-anchor="middle" x="83" y="-73" font-family="Helvetica,sans-Serif" font-size="10.00">Service\updateSchedule</text>
</g>
<!-- Node2 -->
<g id="node2" class="node"><title>Node2</title>
<g id="a_node2"><a xlink:href="class_ctct_1_1_services_1_1_base_service.html#a5c4ae0795fcc06c137b6e761963c4df6" target="_top" xlink:title="Build a url from the base url and query parameters array. ">
<polygon fill="white" stroke="black" points="218.091,-141 218.091,-173 351.909,-173 351.909,-141 218.091,-141"/>
<text text-anchor="start" x="226.091" y="-159" font-family="Helvetica,sans-Serif" font-size="10.00">Ctct\Services\BaseService</text>
<text text-anchor="middle" x="285" y="-147" font-family="Helvetica,sans-Serif" font-size="10.00">\buildUrl</text>
</a>
</g>
</g>
<!-- Node1&#45;&gt;Node2 -->
<g id="edge1" class="edge"><title>Node1&#45;&gt;Node2</title>
<path fill="none" stroke="midnightblue" d="M121.173,-99.0042C144.26,-108.723 174.648,-121.118 202,-131 208.323,-133.284 214.958,-135.569 221.599,-137.784"/>
<polygon fill="midnightblue" stroke="midnightblue" points="220.706,-141.174 231.299,-140.97 222.89,-134.524 220.706,-141.174"/>
</g>
<!-- Node3 -->
<g id="node3" class="node"><title>Node3</title>
<g id="a_node3"><a xlink:href="class_ctct_1_1_components_1_1_email_marketing_1_1_schedule.html#ab39b6eeb65b3d502ea1f2b5ad9a89254" target="_top" xlink:title="Factory method to create a Schedule object from an array. ">
<polygon fill="white" stroke="black" points="202.527,-90 202.527,-122 367.473,-122 367.473,-90 202.527,-90"/>
<text text-anchor="start" x="210.527" y="-108" font-family="Helvetica,sans-Serif" font-size="10.00">Ctct\Components\EmailMarketing</text>
<text text-anchor="middle" x="285" y="-96" font-family="Helvetica,sans-Serif" font-size="10.00">\Schedule\create</text>
</a>
</g>
</g>
<!-- Node1&#45;&gt;Node3 -->
<g id="edge2" class="edge"><title>Node1&#45;&gt;Node3</title>
<path fill="none" stroke="midnightblue" d="M165.636,-92.3882C174.426,-93.3989 183.411,-94.4323 192.308,-95.4554"/>
<polygon fill="midnightblue" stroke="midnightblue" points="191.966,-98.9391 202.301,-96.6046 192.766,-91.9849 191.966,-98.9391"/>
</g>
<!-- Node4 -->
<g id="node4" class="node"><title>Node4</title>
<g id="a_node4"><a xlink:href="class_ctct_1_1_util_1_1_config.html#ab224fae1ce1a1993c1ac42c708dc7de9" target="_top" xlink:title="Get a configuration property given a specified location, example usage: Config::get(&#39;auth.token_endpoint&#39;) ">
<polygon fill="white" stroke="black" points="235.318,-51 235.318,-71 334.682,-71 334.682,-51 235.318,-51"/>
<text text-anchor="middle" x="285" y="-57" font-family="Helvetica,sans-Serif" font-size="10.00">Ctct\Util\Config\get</text>
</a>
</g>
</g>
<!-- Node1&#45;&gt;Node4 -->
<g id="edge3" class="edge"><title>Node1&#45;&gt;Node4</title>
<path fill="none" stroke="midnightblue" d="M165.636,-74.02C185.595,-71.8246 206.564,-69.518 225.215,-67.4664"/>
<polygon fill="midnightblue" stroke="midnightblue" points="225.759,-70.9277 235.317,-66.3552 224.994,-63.9696 225.759,-70.9277"/>
</g>
<!-- Node5 -->
<g id="node5" class="node"><title>Node5</title>
<g id="a_node5"><a xlink:href="class_ctct_1_1_components_1_1_email_marketing_1_1_schedule.html#a6f3bbde473f67f78967e0dee8e79c99f" target="_top" xlink:title="Create json used for a POST/PUT request, also handles removing attributes that will cause errors if s...">
<polygon fill="white" stroke="black" points="202.527,-0 202.527,-32 367.473,-32 367.473,-0 202.527,-0"/>
<text text-anchor="start" x="210.527" y="-18" font-family="Helvetica,sans-Serif" font-size="10.00">Ctct\Components\EmailMarketing</text>
<text text-anchor="middle" x="285" y="-6" font-family="Helvetica,sans-Serif" font-size="10.00">\Schedule\toJson</text>
</a>
</g>
</g>
<!-- Node1&#45;&gt;Node5 -->
<g id="edge4" class="edge"><title>Node1&#45;&gt;Node5</title>
<path fill="none" stroke="midnightblue" d="M129.289,-66.939C151.203,-59.2509 177.92,-49.9994 202,-42 208.821,-39.7342 215.975,-37.4014 223.096,-35.1069"/>
<polygon fill="midnightblue" stroke="midnightblue" points="224.298,-38.3973 232.752,-32.0118 222.161,-31.7314 224.298,-38.3973"/>
</g>
</g>
</svg>
