<?xml version="1.0" encoding="UTF-8" standalone="no"?>
<!DOCTYPE svg PUBLIC "-//W3C//DTD SVG 1.1//EN"
 "http://www.w3.org/Graphics/SVG/1.1/DTD/svg11.dtd">
<!-- Generated by graphviz version 2.30.1 (20130221.2233)
 -->
<!-- Title: CTCT_Admin_Page\single Pages: 1 -->
<svg width="658pt" height="142pt"
 viewBox="0.00 0.00 658.00 142.00" xmlns="http://www.w3.org/2000/svg" xmlns:xlink="http://www.w3.org/1999/xlink">
<g id="graph0" class="graph" transform="scale(1 1) rotate(0) translate(4 138)">
<title>CTCT_Admin_Page\single</title>
<polygon fill="white" stroke="white" points="-4,5 -4,-138 655,-138 655,5 -4,5"/>
<!-- Node1 -->
<g id="node1" class="node"><title>Node1</title>
<polygon fill="#bfbfbf" stroke="black" points="-0.194336,-57 -0.194336,-77 134.194,-77 134.194,-57 -0.194336,-57"/>
<text text-anchor="middle" x="67" y="-63" font-family="Helvetica,sans-Serif" font-size="10.00">CTCT_Admin_Page\single</text>
</g>
<!-- Node2 -->
<g id="node2" class="node"><title>Node2</title>
<g id="a_node2"><a xlink:href="class_c_t_c_t___admin___page.html#acdbed2f16a36a9384b2fa5f01073024d" target="_top" xlink:title="CTCT_Admin_Page\\content">
<polygon fill="white" stroke="black" points="170.468,-57 170.468,-77 311.532,-77 311.532,-57 170.468,-57"/>
<text text-anchor="middle" x="241" y="-63" font-family="Helvetica,sans-Serif" font-size="10.00">CTCT_Admin_Page\content</text>
</a>
</g>
</g>
<!-- Node1&#45;&gt;Node2 -->
<g id="edge1" class="edge"><title>Node1&#45;&gt;Node2</title>
<path fill="none" stroke="midnightblue" d="M144.77,-67C153.258,-67 161.867,-67 170.262,-67"/>
<polygon fill="midnightblue" stroke="midnightblue" points="144.5,-63.5001 134.5,-67 144.5,-70.5001 144.5,-63.5001"/>
</g>
<!-- Node3 -->
<g id="node3" class="node"><title>Node3</title>
<g id="a_node3"><a xlink:href="class_c_t_c_t___admin___page.html#ad4d8edcfbf3023f7f18a6d188adaf99c" target="_top" xlink:title="CTCT_Admin_Page\\page">
<polygon fill="white" stroke="black" points="348.747,-57 348.747,-77 479.253,-77 479.253,-57 348.747,-57"/>
<text text-anchor="middle" x="414" y="-63" font-family="Helvetica,sans-Serif" font-size="10.00">CTCT_Admin_Page\page</text>
</a>
</g>
</g>
<!-- Node2&#45;&gt;Node3 -->
<g id="edge2" class="edge"><title>Node2&#45;&gt;Node3</title>
<path fill="none" stroke="midnightblue" d="M321.644,-67C330.634,-67 339.711,-67 348.474,-67"/>
<polygon fill="midnightblue" stroke="midnightblue" points="321.552,-63.5001 311.552,-67 321.552,-70.5001 321.552,-63.5001"/>
</g>
<!-- Node4 -->
<g id="node4" class="node"><title>Node4</title>
<g id="a_node4"><a xlink:href="class_c_t_c_t___constant___analytics.html#ad379ea8b9d4f8c7735b0f3adeac838fe" target="_top" xlink:title="CTCT_Constant_Analytics\l\\addActions">
<polygon fill="white" stroke="black" points="516.089,-102 516.089,-134 649.911,-134 649.911,-102 516.089,-102"/>
<text text-anchor="start" x="524.089" y="-120" font-family="Helvetica,sans-Serif" font-size="10.00">CTCT_Constant_Analytics</text>
<text text-anchor="middle" x="583" y="-108" font-family="Helvetica,sans-Serif" font-size="10.00">\addActions</text>
</a>
</g>
</g>
<!-- Node3&#45;&gt;Node4 -->
<g id="edge3" class="edge"><title>Node3&#45;&gt;Node4</title>
<path fill="none" stroke="midnightblue" d="M457.645,-80.0233C479.474,-86.6898 506.248,-94.8661 529.354,-101.922"/>
<polygon fill="midnightblue" stroke="midnightblue" points="458.58,-76.6494 447.994,-77.076 456.536,-83.3441 458.58,-76.6494"/>
</g>
<!-- Node5 -->
<g id="node5" class="node"><title>Node5</title>
<g id="a_node5"><a xlink:href="class_c_t_c_t___constant___analytics.html#a835b6b00979fb3965d01a93767d5199e" target="_top" xlink:title="CTCT_Constant_Analytics\l\\admin_head">
<polygon fill="white" stroke="black" points="516.089,-51 516.089,-83 649.911,-83 649.911,-51 516.089,-51"/>
<text text-anchor="start" x="524.089" y="-69" font-family="Helvetica,sans-Serif" font-size="10.00">CTCT_Constant_Analytics</text>
<text text-anchor="middle" x="583" y="-57" font-family="Helvetica,sans-Serif" font-size="10.00">\admin_head</text>
</a>
</g>
</g>
<!-- Node3&#45;&gt;Node5 -->
<g id="edge4" class="edge"><title>Node3&#45;&gt;Node5</title>
<path fill="none" stroke="midnightblue" d="M489.74,-67C498.477,-67 507.343,-67 515.95,-67"/>
<polygon fill="midnightblue" stroke="midnightblue" points="489.567,-63.5001 479.567,-67 489.567,-70.5001 489.567,-63.5001"/>
</g>
<!-- Node6 -->
<g id="node6" class="node"><title>Node6</title>
<g id="a_node6"><a xlink:href="class_c_t_c_t___constant___analytics.html#a0b5589251b3a6cd9cf457fed695c885c" target="_top" xlink:title="CTCT_Constant_Analytics\l\\enqueue_scripts">
<polygon fill="white" stroke="black" points="516.089,-0 516.089,-32 649.911,-32 649.911,-0 516.089,-0"/>
<text text-anchor="start" x="524.089" y="-18" font-family="Helvetica,sans-Serif" font-size="10.00">CTCT_Constant_Analytics</text>
<text text-anchor="middle" x="583" y="-6" font-family="Helvetica,sans-Serif" font-size="10.00">\enqueue_scripts</text>
</a>
</g>
</g>
<!-- Node3&#45;&gt;Node6 -->
<g id="edge5" class="edge"><title>Node3&#45;&gt;Node6</title>
<path fill="none" stroke="midnightblue" d="M457.645,-53.9767C479.474,-47.3102 506.248,-39.1339 529.354,-32.0777"/>
<polygon fill="midnightblue" stroke="midnightblue" points="456.536,-50.6559 447.994,-56.924 458.58,-57.3506 456.536,-50.6559"/>
</g>
</g>
</svg>
