<?xml version="1.0" encoding="UTF-8" standalone="no"?>
<!DOCTYPE svg PUBLIC "-//W3C//DTD SVG 1.1//EN"
 "http://www.w3.org/Graphics/SVG/1.1/DTD/svg11.dtd">
<!-- Generated by graphviz version 2.30.1 (20130221.2233)
 -->
<!-- Title: ContactsCollection\updateContact Pages: 1 -->
<svg width="828pt" height="159pt"
 viewBox="0.00 0.00 828.00 159.00" xmlns="http://www.w3.org/2000/svg" xmlns:xlink="http://www.w3.org/1999/xlink">
<g id="graph0" class="graph" transform="scale(1 1) rotate(0) translate(4 155)">
<title>ContactsCollection\updateContact</title>
<polygon fill="white" stroke="white" points="-4,5 -4,-155 825,-155 825,5 -4,5"/>
<!-- Node1 -->
<g id="node1" class="node"><title>Node1</title>
<polygon fill="#bfbfbf" stroke="black" points="0.312988,-105 0.312988,-137 99.687,-137 99.687,-105 0.312988,-105"/>
<text text-anchor="start" x="8.31299" y="-123" font-family="Helvetica,sans-Serif" font-size="10.00">ContactsCollection</text>
<text text-anchor="middle" x="50" y="-111" font-family="Helvetica,sans-Serif" font-size="10.00">\updateContact</text>
</g>
<!-- Node2 -->
<g id="node2" class="node"><title>Node2</title>
<g id="a_node2"><a xlink:href="class_contact.html#a80e6087c0b49cfa360ec7c1bbee70103" target="_top" xlink:title="Create XML Representation of the object. ">
<polygon fill="white" stroke="black" points="158.872,-131 158.872,-151 257.128,-151 257.128,-131 158.872,-131"/>
<text text-anchor="middle" x="208" y="-137" font-family="Helvetica,sans-Serif" font-size="10.00">Contact\createXml</text>
</a>
</g>
</g>
<!-- Node1&#45;&gt;Node2 -->
<g id="edge1" class="edge"><title>Node1&#45;&gt;Node2</title>
<path fill="none" stroke="midnightblue" d="M99.9314,-127.273C115.324,-129.247 132.479,-131.446 148.469,-133.496"/>
<polygon fill="midnightblue" stroke="midnightblue" points="148.413,-137.017 158.777,-134.818 149.303,-130.074 148.413,-137.017"/>
</g>
<!-- Node6 -->
<g id="node6" class="node"><title>Node6</title>
<g id="a_node6"><a xlink:href="class_c_t_c_t_request.html#aad92e5787f6d3fdf00760d99505aa6db" target="_top" xlink:title="CTCTRequest\\makeRequest">
<polygon fill="white" stroke="black" points="135.808,-92 135.808,-112 280.192,-112 280.192,-92 135.808,-92"/>
<text text-anchor="middle" x="208" y="-98" font-family="Helvetica,sans-Serif" font-size="10.00">CTCTRequest\makeRequest</text>
</a>
</g>
</g>
<!-- Node1&#45;&gt;Node6 -->
<g id="edge5" class="edge"><title>Node1&#45;&gt;Node6</title>
<path fill="none" stroke="midnightblue" d="M99.9314,-115.04C108.176,-114.036 116.927,-112.97 125.734,-111.898"/>
<polygon fill="midnightblue" stroke="midnightblue" points="126.172,-115.37 135.676,-110.687 125.326,-108.422 126.172,-115.37"/>
</g>
<!-- Node3 -->
<g id="node3" class="node"><title>Node3</title>
<g id="a_node3"><a xlink:href="class_c_c_object.html#a2175b643672414fd5dd302e8feb7bc55" target="_top" xlink:title="Validate an object to check that all required fields have been supplied &#160;array $params &#45; object prope...">
<polygon fill="white" stroke="black" points="344.705,-131 344.705,-151 441.295,-151 441.295,-131 344.705,-131"/>
<text text-anchor="middle" x="393" y="-137" font-family="Helvetica,sans-Serif" font-size="10.00">CCObject\validate</text>
</a>
</g>
</g>
<!-- Node2&#45;&gt;Node3 -->
<g id="edge2" class="edge"><title>Node2&#45;&gt;Node3</title>
<path fill="none" stroke="midnightblue" d="M257.56,-141C281.094,-141 309.528,-141 334.175,-141"/>
<polygon fill="midnightblue" stroke="midnightblue" points="334.48,-144.5 344.48,-141 334.48,-137.5 334.48,-144.5"/>
</g>
<!-- Node4 -->
<g id="node4" class="node"><title>Node4</title>
<g id="a_node4"><a xlink:href="class_c_t_c_t_exception.html#adc8307ec7d7a2c730b0dac678d0e7fcb" target="_top" xlink:title="CTCTException\\generateError">
<polygon fill="white" stroke="black" points="506.473,-112 506.473,-132 657.527,-132 657.527,-112 506.473,-112"/>
<text text-anchor="middle" x="582" y="-118" font-family="Helvetica,sans-Serif" font-size="10.00">CTCTException\generateError</text>
</a>
</g>
</g>
<!-- Node3&#45;&gt;Node4 -->
<g id="edge3" class="edge"><title>Node3&#45;&gt;Node4</title>
<path fill="none" stroke="midnightblue" d="M441.672,-136.156C458.274,-134.469 477.437,-132.522 496.136,-130.623"/>
<polygon fill="midnightblue" stroke="midnightblue" points="496.56,-134.098 506.155,-129.605 495.853,-127.133 496.56,-134.098"/>
</g>
<!-- Node5 -->
<g id="node5" class="node"><title>Node5</title>
<g id="a_node5"><a xlink:href="class_c_t_c_t_exception.html#a6a86531406328bbd2a6c6252b7fb3a70" target="_top" xlink:title="CTCTException\\logError">
<polygon fill="white" stroke="black" points="694.54,-112 694.54,-132 819.46,-132 819.46,-112 694.54,-112"/>
<text text-anchor="middle" x="757" y="-118" font-family="Helvetica,sans-Serif" font-size="10.00">CTCTException\logError</text>
</a>
</g>
</g>
<!-- Node4&#45;&gt;Node5 -->
<g id="edge4" class="edge"><title>Node4&#45;&gt;Node5</title>
<path fill="none" stroke="midnightblue" d="M657.623,-122C666.431,-122 675.406,-122 684.174,-122"/>
<polygon fill="midnightblue" stroke="midnightblue" points="684.349,-125.5 694.349,-122 684.349,-118.5 684.349,-125.5"/>
</g>
<!-- Node7 -->
<g id="node7" class="node"><title>Node7</title>
<g id="a_node7"><a xlink:href="class_o_auth_request.html#afe9d0f6cb8e0dadb1c0faeea9ecafe45" target="_top" xlink:title="pretty much a helper function to set up the request ">
<polygon fill="white" stroke="black" points="316.079,-41 316.079,-73 469.921,-73 469.921,-41 316.079,-41"/>
<text text-anchor="start" x="324.079" y="-59" font-family="Helvetica,sans-Serif" font-size="10.00">OAuthRequest\from_consumer</text>
<text text-anchor="middle" x="393" y="-47" font-family="Helvetica,sans-Serif" font-size="10.00">_and_token</text>
</a>
</g>
</g>
<!-- Node6&#45;&gt;Node7 -->
<g id="edge6" class="edge"><title>Node6&#45;&gt;Node7</title>
<path fill="none" stroke="midnightblue" d="M250.069,-91.9011C269.713,-87.0706 293.867,-81.131 316.644,-75.5303"/>
<polygon fill="midnightblue" stroke="midnightblue" points="317.77,-78.8575 326.645,-73.0708 316.099,-72.06 317.77,-78.8575"/>
</g>
<!-- Node6&#45;&gt;Node4 -->
<g id="edge9" class="edge"><title>Node6&#45;&gt;Node4</title>
<path fill="none" stroke="midnightblue" d="M280.285,-105.833C341.864,-109.143 430.964,-113.934 496.194,-117.441"/>
<polygon fill="midnightblue" stroke="midnightblue" points="496.276,-120.95 506.45,-117.992 496.652,-113.96 496.276,-120.95"/>
</g>
<!-- Node8 -->
<g id="node8" class="node"><title>Node8</title>
<g id="a_node8"><a xlink:href="class_o_auth_request.html#ae544b1c10b82d5a82dcc259064763420" target="_top" xlink:title="util function: current nonce ">
<polygon fill="white" stroke="black" points="520.074,-51 520.074,-83 643.926,-83 643.926,-51 520.074,-51"/>
<text text-anchor="start" x="528.074" y="-69" font-family="Helvetica,sans-Serif" font-size="10.00">OAuthRequest\generate</text>
<text text-anchor="middle" x="582" y="-57" font-family="Helvetica,sans-Serif" font-size="10.00">_nonce</text>
</a>
</g>
</g>
<!-- Node7&#45;&gt;Node8 -->
<g id="edge7" class="edge"><title>Node7&#45;&gt;Node8</title>
<path fill="none" stroke="midnightblue" d="M470.06,-61.0674C483.145,-61.7671 496.703,-62.4921 509.658,-63.1849"/>
<polygon fill="midnightblue" stroke="midnightblue" points="509.726,-66.6935 519.899,-63.7325 510.1,-59.7035 509.726,-66.6935"/>
</g>
<!-- Node9 -->
<g id="node9" class="node"><title>Node9</title>
<g id="a_node9"><a xlink:href="class_o_auth_request.html#adfc6b936799f705d9a4442961a26e8cb" target="_top" xlink:title="util function: current timestamp ">
<polygon fill="white" stroke="black" points="520.074,-0 520.074,-32 643.926,-32 643.926,-0 520.074,-0"/>
<text text-anchor="start" x="528.074" y="-18" font-family="Helvetica,sans-Serif" font-size="10.00">OAuthRequest\generate</text>
<text text-anchor="middle" x="582" y="-6" font-family="Helvetica,sans-Serif" font-size="10.00">_timestamp</text>
</a>
</g>
</g>
<!-- Node7&#45;&gt;Node9 -->
<g id="edge8" class="edge"><title>Node7&#45;&gt;Node9</title>
<path fill="none" stroke="midnightblue" d="M467.103,-40.9722C481.198,-37.8817 495.944,-34.6487 509.972,-31.573"/>
<polygon fill="midnightblue" stroke="midnightblue" points="511.022,-34.9259 520.041,-29.3654 509.523,-28.0884 511.022,-34.9259"/>
</g>
</g>
</svg>
