<?xml version="1.0" encoding="UTF-8" standalone="no"?>
<!DOCTYPE svg PUBLIC "-//W3C//DTD SVG 1.1//EN"
 "http://www.w3.org/Graphics/SVG/1.1/DTD/svg11.dtd">
<!-- Generated by graphviz version 2.30.1 (20130221.2233)
 -->
<!-- Title: CTCT_Admin_Lists\getTitle Pages: 1 -->
<svg width="326pt" height="67pt"
 viewBox="0.00 0.00 326.00 67.00" xmlns="http://www.w3.org/2000/svg" xmlns:xlink="http://www.w3.org/1999/xlink">
<g id="graph0" class="graph" transform="scale(1 1) rotate(0) translate(4 63)">
<title>CTCT_Admin_Lists\getTitle</title>
<polygon fill="white" stroke="white" points="-4,5 -4,-63 323,-63 323,5 -4,5"/>
<!-- Node1 -->
<g id="node1" class="node"><title>Node1</title>
<polygon fill="#bfbfbf" stroke="black" points="0.0527344,-19 0.0527344,-39 137.947,-39 137.947,-19 0.0527344,-19"/>
<text text-anchor="middle" x="69" y="-25" font-family="Helvetica,sans-Serif" font-size="10.00">CTCT_Admin_Lists\getTitle</text>
</g>
<!-- Node2 -->
<g id="node2" class="node"><title>Node2</title>
<g id="a_node2"><a xlink:href="class_c_t_c_t___admin___page.html#a3022d3649afef42fe8a14b1f34f50a11" target="_top" xlink:title="CTCT_Admin_Page\\isEdit">
<polygon fill="white" stroke="black" points="179.643,-39 179.643,-59 312.357,-59 312.357,-39 179.643,-39"/>
<text text-anchor="middle" x="246" y="-45" font-family="Helvetica,sans-Serif" font-size="10.00">CTCT_Admin_Page\isEdit</text>
</a>
</g>
</g>
<!-- Node1&#45;&gt;Node2 -->
<g id="edge1" class="edge"><title>Node1&#45;&gt;Node2</title>
<path fill="none" stroke="midnightblue" d="M138.161,-36.7898C148.488,-37.9701 159.194,-39.1936 169.663,-40.39"/>
<polygon fill="midnightblue" stroke="midnightblue" points="169.274,-43.8683 179.607,-41.5265 170.069,-36.9136 169.274,-43.8683"/>
</g>
<!-- Node3 -->
<g id="node3" class="node"><title>Node3</title>
<g id="a_node3"><a xlink:href="class_c_t_c_t___admin___page.html#a79cac52351cd72e5cb0269ad98ac9a82" target="_top" xlink:title="CTCT_Admin_Page\\isSingle">
<polygon fill="white" stroke="black" points="174.36,-0 174.36,-20 317.64,-20 317.64,-0 174.36,-0"/>
<text text-anchor="middle" x="246" y="-6" font-family="Helvetica,sans-Serif" font-size="10.00">CTCT_Admin_Page\isSingle</text>
</a>
</g>
</g>
<!-- Node1&#45;&gt;Node3 -->
<g id="edge2" class="edge"><title>Node1&#45;&gt;Node3</title>
<path fill="none" stroke="midnightblue" d="M138.161,-21.5997C146.645,-20.6785 155.385,-19.7296 164.039,-18.7901"/>
<polygon fill="midnightblue" stroke="midnightblue" points="164.574,-22.2526 174.138,-17.6936 163.819,-15.2935 164.574,-22.2526"/>
</g>
</g>
</svg>
