<?xml version="1.0" encoding="UTF-8" standalone="no"?>
<!DOCTYPE svg PUBLIC "-//W3C//DTD SVG 1.1//EN"
 "http://www.w3.org/Graphics/SVG/1.1/DTD/svg11.dtd">
<!-- Generated by graphviz version 2.30.1 (20130221.2233)
 -->
<!-- Title: CTCT_EventSpot\events_dashboard Pages: 1 -->
<svg width="316pt" height="40pt"
 viewBox="0.00 0.00 316.00 40.00" xmlns="http://www.w3.org/2000/svg" xmlns:xlink="http://www.w3.org/1999/xlink">
<g id="graph0" class="graph" transform="scale(1 1) rotate(0) translate(4 36)">
<title>CTCT_EventSpot\events_dashboard</title>
<polygon fill="white" stroke="white" points="-4,5 -4,-36 313,-36 313,5 -4,5"/>
<!-- Node1 -->
<g id="node1" class="node"><title>Node1</title>
<polygon fill="#bfbfbf" stroke="black" points="0.697266,-0 0.697266,-32 127.303,-32 127.303,-0 0.697266,-0"/>
<text text-anchor="start" x="8.69727" y="-18" font-family="Helvetica,sans-Serif" font-size="10.00">CTCT_EventSpot\events</text>
<text text-anchor="middle" x="64" y="-6" font-family="Helvetica,sans-Serif" font-size="10.00">_dashboard</text>
</g>
<!-- Node2 -->
<g id="node2" class="node"><title>Node2</title>
<g id="a_node2"><a xlink:href="class_c_t_c_t___event_spot.html#a3f8f680cd78f2ff0bf70ea177148e143" target="_top" xlink:title="CTCT_EventSpot\\dashboard\l_make_table">
<polygon fill="white" stroke="black" points="163.798,-0 163.798,-32 308.202,-32 308.202,-0 163.798,-0"/>
<text text-anchor="start" x="171.798" y="-18" font-family="Helvetica,sans-Serif" font-size="10.00">CTCT_EventSpot\dashboard</text>
<text text-anchor="middle" x="236" y="-6" font-family="Helvetica,sans-Serif" font-size="10.00">_make_table</text>
</a>
</g>
</g>
<!-- Node1&#45;&gt;Node2 -->
<g id="edge1" class="edge"><title>Node1&#45;&gt;Node2</title>
<path fill="none" stroke="midnightblue" d="M127.336,-16C135.85,-16 144.691,-16 153.482,-16"/>
<polygon fill="midnightblue" stroke="midnightblue" points="153.757,-19.5001 163.757,-16 153.757,-12.5001 153.757,-19.5001"/>
</g>
</g>
</svg>
