<?xml version="1.0" encoding="UTF-8" standalone="no"?>
<!DOCTYPE svg PUBLIC "-//W3C//DTD SVG 1.1//EN"
 "http://www.w3.org/Graphics/SVG/1.1/DTD/svg11.dtd">
<!-- Generated by graphviz version 2.30.1 (20130221.2233)
 -->
<!-- Title: Ctct\Services\EmailMarketingService\getCampaigns Pages: 1 -->
<svg width="358pt" height="130pt"
 viewBox="0.00 0.00 358.00 130.00" xmlns="http://www.w3.org/2000/svg" xmlns:xlink="http://www.w3.org/1999/xlink">
<g id="graph0" class="graph" transform="scale(1 1) rotate(0) translate(4 126)">
<title>Ctct\Services\EmailMarketingService\getCampaigns</title>
<polygon fill="white" stroke="white" points="-4,5 -4,-126 355,-126 355,5 -4,5"/>
<!-- Node1 -->
<g id="node1" class="node"><title>Node1</title>
<polygon fill="#bfbfbf" stroke="black" points="0.70459,-39 0.70459,-71 147.295,-71 147.295,-39 0.70459,-39"/>
<text text-anchor="start" x="8.70459" y="-57" font-family="Helvetica,sans-Serif" font-size="10.00">Ctct\Services\EmailMarketing</text>
<text text-anchor="middle" x="74" y="-45" font-family="Helvetica,sans-Serif" font-size="10.00">Service\getCampaigns</text>
</g>
<!-- Node2 -->
<g id="node2" class="node"><title>Node2</title>
<g id="a_node2"><a xlink:href="class_ctct_1_1_services_1_1_base_service.html#a5c4ae0795fcc06c137b6e761963c4df6" target="_top" xlink:title="Build a url from the base url and query parameters array. ">
<polygon fill="white" stroke="black" points="200.091,-90 200.091,-122 333.909,-122 333.909,-90 200.091,-90"/>
<text text-anchor="start" x="208.091" y="-108" font-family="Helvetica,sans-Serif" font-size="10.00">Ctct\Services\BaseService</text>
<text text-anchor="middle" x="267" y="-96" font-family="Helvetica,sans-Serif" font-size="10.00">\buildUrl</text>
</a>
</g>
</g>
<!-- Node1&#45;&gt;Node2 -->
<g id="edge1" class="edge"><title>Node1&#45;&gt;Node2</title>
<path fill="none" stroke="midnightblue" d="M135.171,-71.0667C154.529,-76.2356 176.142,-82.0064 196.135,-87.345"/>
<polygon fill="midnightblue" stroke="midnightblue" points="195.239,-90.7281 205.803,-89.9264 197.044,-83.9651 195.239,-90.7281"/>
</g>
<!-- Node3 -->
<g id="node3" class="node"><title>Node3</title>
<g id="a_node3"><a xlink:href="class_ctct_1_1_components_1_1_email_marketing_1_1_campaign.html#abb3d7426f96344e6146a1bce6d83f7dd" target="_top" xlink:title="Factory method to create a Campaign object from an array. ">
<polygon fill="white" stroke="black" points="184.527,-39 184.527,-71 349.473,-71 349.473,-39 184.527,-39"/>
<text text-anchor="start" x="192.527" y="-57" font-family="Helvetica,sans-Serif" font-size="10.00">Ctct\Components\EmailMarketing</text>
<text text-anchor="middle" x="267" y="-45" font-family="Helvetica,sans-Serif" font-size="10.00">\Campaign\createSummary</text>
</a>
</g>
</g>
<!-- Node1&#45;&gt;Node3 -->
<g id="edge2" class="edge"><title>Node1&#45;&gt;Node3</title>
<path fill="none" stroke="midnightblue" d="M147.481,-55C156.222,-55 165.237,-55 174.208,-55"/>
<polygon fill="midnightblue" stroke="midnightblue" points="174.301,-58.5001 184.301,-55 174.301,-51.5001 174.301,-58.5001"/>
</g>
<!-- Node4 -->
<g id="node4" class="node"><title>Node4</title>
<g id="a_node4"><a xlink:href="class_ctct_1_1_util_1_1_config.html#ab224fae1ce1a1993c1ac42c708dc7de9" target="_top" xlink:title="Get a configuration property given a specified location, example usage: Config::get(&#39;auth.token_endpoint&#39;) ">
<polygon fill="white" stroke="black" points="217.318,-0 217.318,-20 316.682,-20 316.682,-0 217.318,-0"/>
<text text-anchor="middle" x="267" y="-6" font-family="Helvetica,sans-Serif" font-size="10.00">Ctct\Util\Config\get</text>
</a>
</g>
</g>
<!-- Node1&#45;&gt;Node4 -->
<g id="edge3" class="edge"><title>Node1&#45;&gt;Node4</title>
<path fill="none" stroke="midnightblue" d="M143.146,-38.9445C166.268,-33.497 191.726,-27.4991 213.442,-22.3827"/>
<polygon fill="midnightblue" stroke="midnightblue" points="214.523,-25.7239 223.454,-20.0239 212.918,-18.9104 214.523,-25.7239"/>
</g>
</g>
</svg>
