<?xml version="1.0" encoding="UTF-8" standalone="no"?>
<!DOCTYPE svg PUBLIC "-//W3C//DTD SVG 1.1//EN"
 "http://www.w3.org/Graphics/SVG/1.1/DTD/svg11.dtd">
<!-- Generated by graphviz version 2.30.1 (20130221.2233)
 -->
<!-- Title: Ctct\Components\EmailMarketing\Campaign Pages: 1 -->
<svg width="172pt" height="158pt"
 viewBox="0.00 0.00 172.00 158.00" xmlns="http://www.w3.org/2000/svg" xmlns:xlink="http://www.w3.org/1999/xlink">
<g id="graph0" class="graph" transform="scale(1 1) rotate(0) translate(4 154)">
<title>Ctct\Components\EmailMarketing\Campaign</title>
<polygon fill="white" stroke="white" points="-4,5 -4,-154 169,-154 169,5 -4,5"/>
<!-- Node1 -->
<g id="node1" class="node"><title>Node1</title>
<polygon fill="#bfbfbf" stroke="black" points="-0.472656,-59 -0.472656,-91 164.473,-91 164.473,-59 -0.472656,-59"/>
<text text-anchor="start" x="7.52734" y="-77" font-family="Helvetica,sans-Serif" font-size="10.00">Ctct\Components\EmailMarketing</text>
<text text-anchor="middle" x="82" y="-65" font-family="Helvetica,sans-Serif" font-size="10.00">\Campaign</text>
</g>
<!-- Node3 -->
<g id="node3" class="node"><title>Node3</title>
<g id="a_node3"><a xlink:href="class_k_w_s_campaign.html" target="_top" xlink:title="KWSCampaign">
<polygon fill="white" stroke="black" points="39.8203,-1 39.8203,-21 124.18,-21 124.18,-1 39.8203,-1"/>
<text text-anchor="middle" x="82" y="-7" font-family="Helvetica,sans-Serif" font-size="10.00">KWSCampaign</text>
</a>
</g>
</g>
<!-- Node1&#45;&gt;Node3 -->
<g id="edge2" class="edge"><title>Node1&#45;&gt;Node3</title>
<path fill="none" stroke="midnightblue" d="M82,-48.922C82,-39.1719 82,-28.6099 82,-21.2904"/>
<polygon fill="midnightblue" stroke="midnightblue" points="78.5001,-48.9915 82,-58.9915 85.5001,-48.9916 78.5001,-48.9915"/>
</g>
<!-- Node2 -->
<g id="node2" class="node"><title>Node2</title>
<g id="a_node2"><a xlink:href="class_ctct_1_1_components_1_1_component.html" target="_top" xlink:title="Super class for all components. ">
<polygon fill="white" stroke="black" points="8.1333,-129 8.1333,-149 155.867,-149 155.867,-129 8.1333,-129"/>
<text text-anchor="middle" x="82" y="-135" font-family="Helvetica,sans-Serif" font-size="10.00">Ctct\Components\Component</text>
</a>
</g>
</g>
<!-- Node2&#45;&gt;Node1 -->
<g id="edge1" class="edge"><title>Node2&#45;&gt;Node1</title>
<path fill="none" stroke="midnightblue" d="M82,-118.775C82,-109.986 82,-99.715 82,-91.4404"/>
<polygon fill="midnightblue" stroke="midnightblue" points="78.5001,-118.852 82,-128.852 85.5001,-118.852 78.5001,-118.852"/>
</g>
</g>
</svg>
