<?xml version="1.0" encoding="UTF-8" standalone="no"?>
<!DOCTYPE svg PUBLIC "-//W3C//DTD SVG 1.1//EN"
 "http://www.w3.org/Graphics/SVG/1.1/DTD/svg11.dtd">
<!-- Generated by graphviz version 2.30.1 (20130221.2233)
 -->
<!-- Title: CampaignsCollection\getCampaignsByStatus Pages: 1 -->
<svg width="680pt" height="208pt"
 viewBox="0.00 0.00 680.00 208.00" xmlns="http://www.w3.org/2000/svg" xmlns:xlink="http://www.w3.org/1999/xlink">
<g id="graph0" class="graph" transform="scale(1 1) rotate(0) translate(4 204)">
<title>CampaignsCollection\getCampaignsByStatus</title>
<polygon fill="white" stroke="white" points="-4,5 -4,-204 677,-204 677,5 -4,5"/>
<!-- Node1 -->
<g id="node1" class="node"><title>Node1</title>
<polygon fill="#bfbfbf" stroke="black" points="0.359863,-115 0.359863,-147 123.64,-147 123.64,-115 0.359863,-115"/>
<text text-anchor="start" x="8.35986" y="-133" font-family="Helvetica,sans-Serif" font-size="10.00">CampaignsCollection</text>
<text text-anchor="middle" x="62" y="-121" font-family="Helvetica,sans-Serif" font-size="10.00">\getCampaignsByStatus</text>
</g>
<!-- Node2 -->
<g id="node2" class="node"><title>Node2</title>
<g id="a_node2"><a xlink:href="class_campaign.html#ad584fb13431fe94bf4541e8151a6e573" target="_top" xlink:title="Create associate array of object from XML. ">
<polygon fill="white" stroke="black" points="160.027,-180 160.027,-200 319.973,-200 319.973,-180 160.027,-180"/>
<text text-anchor="middle" x="240" y="-186" font-family="Helvetica,sans-Serif" font-size="10.00">Campaign\createOverviewStruct</text>
</a>
</g>
</g>
<!-- Node1&#45;&gt;Node2 -->
<g id="edge1" class="edge"><title>Node1&#45;&gt;Node2</title>
<path fill="none" stroke="midnightblue" d="M99.8793,-147.186C117.813,-154.706 139.81,-163.418 160,-170 168.025,-172.616 176.599,-175.099 185.032,-177.368"/>
<polygon fill="midnightblue" stroke="midnightblue" points="184.264,-180.785 194.824,-179.93 186.035,-174.013 184.264,-180.785"/>
</g>
<!-- Node3 -->
<g id="node3" class="node"><title>Node3</title>
<g id="a_node3"><a xlink:href="class_utility.html#a50ac241bcff31b7348d0f623f2ab3d4c" target="_top" xlink:title="Find the next link from collection XML. ">
<polygon fill="white" stroke="black" points="190.875,-141 190.875,-161 289.125,-161 289.125,-141 190.875,-141"/>
<text text-anchor="middle" x="240" y="-147" font-family="Helvetica,sans-Serif" font-size="10.00">Utility\findNextLink</text>
</a>
</g>
</g>
<!-- Node1&#45;&gt;Node3 -->
<g id="edge2" class="edge"><title>Node1&#45;&gt;Node3</title>
<path fill="none" stroke="midnightblue" d="M124.062,-137.939C142.406,-140.023 162.479,-142.304 180.643,-144.369"/>
<polygon fill="midnightblue" stroke="midnightblue" points="180.471,-147.871 190.802,-145.523 181.261,-140.916 180.471,-147.871"/>
</g>
<!-- Node4 -->
<g id="node4" class="node"><title>Node4</title>
<g id="a_node4"><a xlink:href="class_c_t_c_t_exception.html#adc8307ec7d7a2c730b0dac678d0e7fcb" target="_top" xlink:title="CTCTException\\generateError">
<polygon fill="white" stroke="black" points="357.473,-102 357.473,-122 508.527,-122 508.527,-102 357.473,-102"/>
<text text-anchor="middle" x="433" y="-108" font-family="Helvetica,sans-Serif" font-size="10.00">CTCTException\generateError</text>
</a>
</g>
</g>
<!-- Node1&#45;&gt;Node4 -->
<g id="edge3" class="edge"><title>Node1&#45;&gt;Node4</title>
<path fill="none" stroke="midnightblue" d="M123.933,-127.863C184.778,-124.73 278.806,-119.888 346.981,-116.378"/>
<polygon fill="midnightblue" stroke="midnightblue" points="347.462,-119.858 357.268,-115.848 347.102,-112.867 347.462,-119.858"/>
</g>
<!-- Node6 -->
<g id="node6" class="node"><title>Node6</title>
<g id="a_node6"><a xlink:href="class_c_t_c_t_request.html#aad92e5787f6d3fdf00760d99505aa6db" target="_top" xlink:title="CTCTRequest\\makeRequest">
<polygon fill="white" stroke="black" points="167.808,-63 167.808,-83 312.192,-83 312.192,-63 167.808,-63"/>
<text text-anchor="middle" x="240" y="-69" font-family="Helvetica,sans-Serif" font-size="10.00">CTCTRequest\makeRequest</text>
</a>
</g>
</g>
<!-- Node1&#45;&gt;Node6 -->
<g id="edge5" class="edge"><title>Node1&#45;&gt;Node6</title>
<path fill="none" stroke="midnightblue" d="M109.803,-114.851C125.71,-109.423 143.606,-103.382 160,-98 171.959,-94.0738 184.973,-89.9109 196.922,-86.1318"/>
<polygon fill="midnightblue" stroke="midnightblue" points="198.178,-89.4058 206.663,-83.0613 196.073,-82.7297 198.178,-89.4058"/>
</g>
<!-- Node5 -->
<g id="node5" class="node"><title>Node5</title>
<g id="a_node5"><a xlink:href="class_c_t_c_t_exception.html#a6a86531406328bbd2a6c6252b7fb3a70" target="_top" xlink:title="CTCTException\\logError">
<polygon fill="white" stroke="black" points="546.54,-102 546.54,-122 671.46,-122 671.46,-102 546.54,-102"/>
<text text-anchor="middle" x="609" y="-108" font-family="Helvetica,sans-Serif" font-size="10.00">CTCTException\logError</text>
</a>
</g>
</g>
<!-- Node4&#45;&gt;Node5 -->
<g id="edge4" class="edge"><title>Node4&#45;&gt;Node5</title>
<path fill="none" stroke="midnightblue" d="M508.549,-112C517.73,-112 527.101,-112 536.239,-112"/>
<polygon fill="midnightblue" stroke="midnightblue" points="536.437,-115.5 546.437,-112 536.436,-108.5 536.437,-115.5"/>
</g>
<!-- Node7 -->
<g id="node7" class="node"><title>Node7</title>
<g id="a_node7"><a xlink:href="class_o_auth_request.html#afe9d0f6cb8e0dadb1c0faeea9ecafe45" target="_top" xlink:title="pretty much a helper function to set up the request ">
<polygon fill="white" stroke="black" points="356.079,-51 356.079,-83 509.921,-83 509.921,-51 356.079,-51"/>
<text text-anchor="start" x="364.079" y="-69" font-family="Helvetica,sans-Serif" font-size="10.00">OAuthRequest\from_consumer</text>
<text text-anchor="middle" x="433" y="-57" font-family="Helvetica,sans-Serif" font-size="10.00">_and_token</text>
</a>
</g>
</g>
<!-- Node6&#45;&gt;Node7 -->
<g id="edge6" class="edge"><title>Node6&#45;&gt;Node7</title>
<path fill="none" stroke="midnightblue" d="M312.393,-70.7573C323.264,-70.4158 334.58,-70.0603 345.728,-69.7101"/>
<polygon fill="midnightblue" stroke="midnightblue" points="346.015,-73.2029 355.9,-69.3906 345.795,-66.2064 346.015,-73.2029"/>
</g>
<!-- Node6&#45;&gt;Node4 -->
<g id="edge9" class="edge"><title>Node6&#45;&gt;Node4</title>
<path fill="none" stroke="midnightblue" d="M290.187,-83.0435C315.474,-88.2067 346.476,-94.537 373.038,-99.9606"/>
<polygon fill="midnightblue" stroke="midnightblue" points="372.481,-103.419 382.979,-101.991 373.882,-96.5606 372.481,-103.419"/>
</g>
<!-- Node8 -->
<g id="node8" class="node"><title>Node8</title>
<g id="a_node8"><a xlink:href="class_o_auth_request.html#ae544b1c10b82d5a82dcc259064763420" target="_top" xlink:title="util function: current nonce ">
<polygon fill="white" stroke="black" points="547.074,-51 547.074,-83 670.926,-83 670.926,-51 547.074,-51"/>
<text text-anchor="start" x="555.074" y="-69" font-family="Helvetica,sans-Serif" font-size="10.00">OAuthRequest\generate</text>
<text text-anchor="middle" x="609" y="-57" font-family="Helvetica,sans-Serif" font-size="10.00">_nonce</text>
</a>
</g>
</g>
<!-- Node7&#45;&gt;Node8 -->
<g id="edge7" class="edge"><title>Node7&#45;&gt;Node8</title>
<path fill="none" stroke="midnightblue" d="M510.066,-67C518.939,-67 527.966,-67 536.771,-67"/>
<polygon fill="midnightblue" stroke="midnightblue" points="536.981,-70.5001 546.981,-67 536.981,-63.5001 536.981,-70.5001"/>
</g>
<!-- Node9 -->
<g id="node9" class="node"><title>Node9</title>
<g id="a_node9"><a xlink:href="class_o_auth_request.html#adfc6b936799f705d9a4442961a26e8cb" target="_top" xlink:title="util function: current timestamp ">
<polygon fill="white" stroke="black" points="547.074,-0 547.074,-32 670.926,-32 670.926,-0 547.074,-0"/>
<text text-anchor="start" x="555.074" y="-18" font-family="Helvetica,sans-Serif" font-size="10.00">OAuthRequest\generate</text>
<text text-anchor="middle" x="609" y="-6" font-family="Helvetica,sans-Serif" font-size="10.00">_timestamp</text>
</a>
</g>
</g>
<!-- Node7&#45;&gt;Node9 -->
<g id="edge8" class="edge"><title>Node7&#45;&gt;Node9</title>
<path fill="none" stroke="midnightblue" d="M489.055,-50.8633C506.36,-45.791 525.624,-40.1448 543.522,-34.8988"/>
<polygon fill="midnightblue" stroke="midnightblue" points="544.692,-38.2032 553.303,-32.0317 542.723,-31.4858 544.692,-38.2032"/>
</g>
</g>
</svg>
