<?xml version="1.0" encoding="UTF-8" standalone="no"?>
<!DOCTYPE svg PUBLIC "-//W3C//DTD SVG 1.1//EN"
 "http://www.w3.org/Graphics/SVG/1.1/DTD/svg11.dtd">
<!-- Generated by graphviz version 2.30.1 (20130221.2233)
 -->
<!-- Title: Net_DNS_RR\new_from_data Pages: 1 -->
<svg width="634pt" height="28pt"
 viewBox="0.00 0.00 634.00 28.00" xmlns="http://www.w3.org/2000/svg" xmlns:xlink="http://www.w3.org/1999/xlink">
<g id="graph0" class="graph" transform="scale(1 1) rotate(0) translate(4 24)">
<title>Net_DNS_RR\new_from_data</title>
<polygon fill="white" stroke="white" points="-4,5 -4,-24 631,-24 631,5 -4,5"/>
<!-- Node1 -->
<g id="node1" class="node"><title>Node1</title>
<polygon fill="#bfbfbf" stroke="black" points="0.0249023,-0 0.0249023,-20 149.975,-20 149.975,-0 0.0249023,-0"/>
<text text-anchor="middle" x="75" y="-6" font-family="Helvetica,sans-Serif" font-size="10.00">Net_DNS_RR\new_from_data</text>
</g>
<!-- Node2 -->
<g id="node2" class="node"><title>Node2</title>
<g id="a_node2"><a xlink:href="class_net___d_n_s___r_r.html#a135785ee6a8c1f0a5e0597d7f61465b5" target="_top" xlink:title="Net_DNS_RR\\factory">
<polygon fill="white" stroke="black" points="186.485,-0 186.485,-20 297.515,-20 297.515,-0 186.485,-0"/>
<text text-anchor="middle" x="242" y="-6" font-family="Helvetica,sans-Serif" font-size="10.00">Net_DNS_RR\factory</text>
</a>
</g>
</g>
<!-- Node1&#45;&gt;Node2 -->
<g id="edge1" class="edge"><title>Node1&#45;&gt;Node2</title>
<path fill="none" stroke="midnightblue" d="M160.576,-10C169.342,-10 178.077,-10 186.385,-10"/>
<polygon fill="midnightblue" stroke="midnightblue" points="160.294,-6.5001 150.294,-10 160.294,-13.5001 160.294,-6.5001"/>
</g>
<!-- Node3 -->
<g id="node3" class="node"><title>Node3</title>
<g id="a_node3"><a xlink:href="class_net___d_n_s___packet.html#a8684f7ece05b01f65ec45160cca1852d" target="_top" xlink:title="Parses a resource record section of a packet. ">
<polygon fill="white" stroke="black" points="333.808,-0 333.808,-20 468.192,-20 468.192,-0 333.808,-0"/>
<text text-anchor="middle" x="401" y="-6" font-family="Helvetica,sans-Serif" font-size="10.00">Net_DNS_Packet\parse_rr</text>
</a>
</g>
</g>
<!-- Node2&#45;&gt;Node3 -->
<g id="edge2" class="edge"><title>Node2&#45;&gt;Node3</title>
<path fill="none" stroke="midnightblue" d="M308.118,-10C316.596,-10 325.288,-10 333.784,-10"/>
<polygon fill="midnightblue" stroke="midnightblue" points="307.911,-6.5001 297.911,-10 307.911,-13.5001 307.911,-6.5001"/>
</g>
<!-- Node4 -->
<g id="node4" class="node"><title>Node4</title>
<g id="a_node4"><a xlink:href="class_net___d_n_s___packet.html#a108461c26b058bf6aed5e4bcae9da3e6" target="_top" xlink:title="Parses a DNS packet returned by a DNS server. ">
<polygon fill="white" stroke="black" points="503.919,-0 503.919,-20 626.081,-20 626.081,-0 503.919,-0"/>
<text text-anchor="middle" x="565" y="-6" font-family="Helvetica,sans-Serif" font-size="10.00">Net_DNS_Packet\parse</text>
</a>
</g>
</g>
<!-- Node3&#45;&gt;Node4 -->
<g id="edge3" class="edge"><title>Node3&#45;&gt;Node4</title>
<path fill="none" stroke="midnightblue" d="M478.594,-10C487.031,-10 495.532,-10 503.729,-10"/>
<polygon fill="midnightblue" stroke="midnightblue" points="478.359,-6.5001 468.359,-10 478.359,-13.5001 478.359,-6.5001"/>
</g>
</g>
</svg>
