<?xml version="1.0" encoding="UTF-8" standalone="no"?>
<!DOCTYPE svg PUBLIC "-//W3C//DTD SVG 1.1//EN"
 "http://www.w3.org/Graphics/SVG/1.1/DTD/svg11.dtd">
<!-- Generated by graphviz version 2.30.1 (20130221.2233)
 -->
<!-- Title: CTCT_Admin_Page\isEdit Pages: 1 -->
<svg width="658pt" height="234pt"
 viewBox="0.00 0.00 658.00 233.52" xmlns="http://www.w3.org/2000/svg" xmlns:xlink="http://www.w3.org/1999/xlink">
<g id="graph0" class="graph" transform="scale(1 1) rotate(0) translate(4 229.524)">
<title>CTCT_Admin_Page\isEdit</title>
<polygon fill="white" stroke="white" points="-4,5 -4,-229.524 655,-229.524 655,5 -4,5"/>
<!-- Node1 -->
<g id="node1" class="node"><title>Node1</title>
<polygon fill="#bfbfbf" stroke="black" points="0.643066,-92.524 0.643066,-112.524 133.357,-112.524 133.357,-92.524 0.643066,-92.524"/>
<text text-anchor="middle" x="67" y="-98.524" font-family="Helvetica,sans-Serif" font-size="10.00">CTCT_Admin_Page\isEdit</text>
</g>
<!-- Node2 -->
<g id="node2" class="node"><title>Node2</title>
<g id="a_node2"><a xlink:href="class_c_t_c_t___admin___page.html#acdbed2f16a36a9384b2fa5f01073024d" target="_top" xlink:title="CTCT_Admin_Page\\content">
<polygon fill="white" stroke="black" points="170.468,-205.524 170.468,-225.524 311.532,-225.524 311.532,-205.524 170.468,-205.524"/>
<text text-anchor="middle" x="241" y="-211.524" font-family="Helvetica,sans-Serif" font-size="10.00">CTCT_Admin_Page\content</text>
</a>
</g>
</g>
<!-- Node1&#45;&gt;Node2 -->
<g id="edge1" class="edge"><title>Node1&#45;&gt;Node2</title>
<path fill="none" stroke="midnightblue" d="M82.8742,-120.377C101.261,-141.33 134.499,-175.723 170,-195.524 177.175,-199.526 185.219,-202.785 193.228,-205.42"/>
<polygon fill="midnightblue" stroke="midnightblue" points="85.3248,-117.859 76.1529,-112.555 80.0156,-122.421 85.3248,-117.859"/>
</g>
<!-- Node7 -->
<g id="node7" class="node"><title>Node7</title>
<g id="a_node7"><a xlink:href="class_c_t_c_t___admin___contacts.html#ab66e13c1d6644f2ef4fbbf5a3264d257" target="_top" xlink:title="CTCT_Admin_Contacts\l\\getTitle">
<polygon fill="white" stroke="black" points="180.205,-154.524 180.205,-186.524 301.795,-186.524 301.795,-154.524 180.205,-154.524"/>
<text text-anchor="start" x="188.205" y="-172.524" font-family="Helvetica,sans-Serif" font-size="10.00">CTCT_Admin_Contacts</text>
<text text-anchor="middle" x="241" y="-160.524" font-family="Helvetica,sans-Serif" font-size="10.00">\getTitle</text>
</a>
</g>
</g>
<!-- Node1&#45;&gt;Node7 -->
<g id="edge6" class="edge"><title>Node1&#45;&gt;Node7</title>
<path fill="none" stroke="midnightblue" d="M101.064,-116.482C120.97,-124.798 146.859,-135.465 170,-144.524 178.33,-147.785 187.254,-151.177 195.848,-154.392"/>
<polygon fill="midnightblue" stroke="midnightblue" points="102.387,-113.241 91.8117,-112.605 99.6823,-119.697 102.387,-113.241"/>
</g>
<!-- Node8 -->
<g id="node8" class="node"><title>Node8</title>
<g id="a_node8"><a xlink:href="class_c_t_c_t___admin___lists.html#a944774faa0877f7240828362c33add71" target="_top" xlink:title="CTCT_Admin_Lists\\getTitle">
<polygon fill="white" stroke="black" points="172.053,-115.524 172.053,-135.524 309.947,-135.524 309.947,-115.524 172.053,-115.524"/>
<text text-anchor="middle" x="241" y="-121.524" font-family="Helvetica,sans-Serif" font-size="10.00">CTCT_Admin_Lists\getTitle</text>
</a>
</g>
</g>
<!-- Node1&#45;&gt;Node8 -->
<g id="edge7" class="edge"><title>Node1&#45;&gt;Node8</title>
<path fill="none" stroke="midnightblue" d="M143.611,-112.635C152.995,-113.89 162.546,-115.167 171.809,-116.405"/>
<polygon fill="midnightblue" stroke="midnightblue" points="143.892,-109.141 133.516,-111.285 142.964,-116.08 143.892,-109.141"/>
</g>
<!-- Node9 -->
<g id="node9" class="node"><title>Node9</title>
<g id="a_node9"><a xlink:href="class_c_t_c_t___admin___campaigns.html#ad6242d9a9105b91d0a3f23045e2a3d25" target="_top" xlink:title="CTCT_Admin_Campaigns\l\\getTitle">
<polygon fill="white" stroke="black" points="174.646,-64.524 174.646,-96.524 307.354,-96.524 307.354,-64.524 174.646,-64.524"/>
<text text-anchor="start" x="182.646" y="-82.524" font-family="Helvetica,sans-Serif" font-size="10.00">CTCT_Admin_Campaigns</text>
<text text-anchor="middle" x="241" y="-70.524" font-family="Helvetica,sans-Serif" font-size="10.00">\getTitle</text>
</a>
</g>
</g>
<!-- Node1&#45;&gt;Node9 -->
<g id="edge8" class="edge"><title>Node1&#45;&gt;Node9</title>
<path fill="none" stroke="midnightblue" d="M143.666,-92.8458C153.903,-91.5364 164.339,-90.2016 174.381,-88.9172"/>
<polygon fill="midnightblue" stroke="midnightblue" points="142.992,-89.4035 133.516,-94.144 143.88,-96.3469 142.992,-89.4035"/>
</g>
<!-- Node10 -->
<g id="node10" class="node"><title>Node10</title>
<g id="a_node10"><a xlink:href="class_c_t_c_t___event_spot.html#acdbdce321684577624cec73d36cbf622" target="_top" xlink:title="CTCT_EventSpot\\getTitle">
<polygon fill="white" stroke="black" points="176.215,-25.524 176.215,-45.524 305.785,-45.524 305.785,-25.524 176.215,-25.524"/>
<text text-anchor="middle" x="241" y="-31.524" font-family="Helvetica,sans-Serif" font-size="10.00">CTCT_EventSpot\getTitle</text>
</a>
</g>
</g>
<!-- Node1&#45;&gt;Node10 -->
<g id="edge9" class="edge"><title>Node1&#45;&gt;Node10</title>
<path fill="none" stroke="midnightblue" d="M96.5233,-87.9471C116.706,-77.9899 144.59,-64.9447 170,-55.524 179.836,-51.8772 190.652,-48.4928 200.779,-45.5839"/>
<polygon fill="midnightblue" stroke="midnightblue" points="94.9419,-84.8246 87.5543,-92.4189 98.0654,-91.0891 94.9419,-84.8246"/>
</g>
<!-- Node3 -->
<g id="node3" class="node"><title>Node3</title>
<g id="a_node3"><a xlink:href="class_c_t_c_t___admin___page.html#ad4d8edcfbf3023f7f18a6d188adaf99c" target="_top" xlink:title="CTCT_Admin_Page\\page">
<polygon fill="white" stroke="black" points="348.747,-95.524 348.747,-115.524 479.253,-115.524 479.253,-95.524 348.747,-95.524"/>
<text text-anchor="middle" x="414" y="-101.524" font-family="Helvetica,sans-Serif" font-size="10.00">CTCT_Admin_Page\page</text>
</a>
</g>
</g>
<!-- Node1&#45;&gt;Node3 -->
<g id="edge10" class="edge"><title>Node1&#45;&gt;Node3</title>
<path fill="none" stroke="midnightblue" d="M82.3947,-84.3654C100.314,-63.38 133.095,-30.0058 170,-16.524 229.279,5.13137 252.96,5.77703 312,-16.524 354.634,-32.628 390.919,-75.8378 405.791,-95.5155"/>
<polygon fill="midnightblue" stroke="midnightblue" points="79.5475,-82.316 75.8626,-92.2494 84.9378,-86.782 79.5475,-82.316"/>
</g>
<!-- Node2&#45;&gt;Node3 -->
<g id="edge2" class="edge"><title>Node2&#45;&gt;Node3</title>
<path fill="none" stroke="midnightblue" d="M297.868,-202.074C302.765,-200.149 307.547,-197.975 312,-195.524 351.301,-173.896 388.18,-134.442 404.374,-115.801"/>
<polygon fill="midnightblue" stroke="midnightblue" points="296.601,-198.809 288.364,-205.473 298.958,-205.4 296.601,-198.809"/>
</g>
<!-- Node4 -->
<g id="node4" class="node"><title>Node4</title>
<g id="a_node4"><a xlink:href="class_c_t_c_t___constant___analytics.html#ad379ea8b9d4f8c7735b0f3adeac838fe" target="_top" xlink:title="CTCT_Constant_Analytics\l\\addActions">
<polygon fill="white" stroke="black" points="516.089,-140.524 516.089,-172.524 649.911,-172.524 649.911,-140.524 516.089,-140.524"/>
<text text-anchor="start" x="524.089" y="-158.524" font-family="Helvetica,sans-Serif" font-size="10.00">CTCT_Constant_Analytics</text>
<text text-anchor="middle" x="583" y="-146.524" font-family="Helvetica,sans-Serif" font-size="10.00">\addActions</text>
</a>
</g>
</g>
<!-- Node3&#45;&gt;Node4 -->
<g id="edge3" class="edge"><title>Node3&#45;&gt;Node4</title>
<path fill="none" stroke="midnightblue" d="M457.645,-118.547C479.474,-125.214 506.248,-133.39 529.354,-140.446"/>
<polygon fill="midnightblue" stroke="midnightblue" points="458.58,-115.173 447.994,-115.6 456.536,-121.868 458.58,-115.173"/>
</g>
<!-- Node5 -->
<g id="node5" class="node"><title>Node5</title>
<g id="a_node5"><a xlink:href="class_c_t_c_t___constant___analytics.html#a0b5589251b3a6cd9cf457fed695c885c" target="_top" xlink:title="CTCT_Constant_Analytics\l\\enqueue_scripts">
<polygon fill="white" stroke="black" points="516.089,-89.524 516.089,-121.524 649.911,-121.524 649.911,-89.524 516.089,-89.524"/>
<text text-anchor="start" x="524.089" y="-107.524" font-family="Helvetica,sans-Serif" font-size="10.00">CTCT_Constant_Analytics</text>
<text text-anchor="middle" x="583" y="-95.524" font-family="Helvetica,sans-Serif" font-size="10.00">\enqueue_scripts</text>
</a>
</g>
</g>
<!-- Node3&#45;&gt;Node5 -->
<g id="edge4" class="edge"><title>Node3&#45;&gt;Node5</title>
<path fill="none" stroke="midnightblue" d="M489.74,-105.524C498.477,-105.524 507.343,-105.524 515.95,-105.524"/>
<polygon fill="midnightblue" stroke="midnightblue" points="489.567,-102.024 479.567,-105.524 489.567,-109.024 489.567,-102.024"/>
</g>
<!-- Node6 -->
<g id="node6" class="node"><title>Node6</title>
<g id="a_node6"><a xlink:href="class_c_t_c_t___constant___analytics.html#a835b6b00979fb3965d01a93767d5199e" target="_top" xlink:title="CTCT_Constant_Analytics\l\\admin_head">
<polygon fill="white" stroke="black" points="516.089,-38.524 516.089,-70.524 649.911,-70.524 649.911,-38.524 516.089,-38.524"/>
<text text-anchor="start" x="524.089" y="-56.524" font-family="Helvetica,sans-Serif" font-size="10.00">CTCT_Constant_Analytics</text>
<text text-anchor="middle" x="583" y="-44.524" font-family="Helvetica,sans-Serif" font-size="10.00">\admin_head</text>
</a>
</g>
</g>
<!-- Node3&#45;&gt;Node6 -->
<g id="edge5" class="edge"><title>Node3&#45;&gt;Node6</title>
<path fill="none" stroke="midnightblue" d="M457.645,-92.5007C479.474,-85.8342 506.248,-77.6579 529.354,-70.6017"/>
<polygon fill="midnightblue" stroke="midnightblue" points="456.536,-89.1799 447.994,-95.4481 458.58,-95.8746 456.536,-89.1799"/>
</g>
</g>
</svg>
