<?xml version="1.0" encoding="UTF-8" standalone="no"?>
<!DOCTYPE svg PUBLIC "-//W3C//DTD SVG 1.1//EN"
 "http://www.w3.org/Graphics/SVG/1.1/DTD/svg11.dtd">
<!-- Generated by graphviz version 2.30.1 (20130221.2233)
 -->
<!-- Title: JsonLoader\getContactsNoNextJson Pages: 1 -->
<svg width="324pt" height="40pt"
 viewBox="0.00 0.00 324.00 40.00" xmlns="http://www.w3.org/2000/svg" xmlns:xlink="http://www.w3.org/1999/xlink">
<g id="graph0" class="graph" transform="scale(1 1) rotate(0) translate(4 36)">
<title>JsonLoader\getContactsNoNextJson</title>
<polygon fill="white" stroke="white" points="-4,5 -4,-36 321,-36 321,5 -4,5"/>
<!-- Node1 -->
<g id="node1" class="node"><title>Node1</title>
<polygon fill="#bfbfbf" stroke="black" points="0.406738,-0 0.406738,-32 137.593,-32 137.593,-0 0.406738,-0"/>
<text text-anchor="start" x="8.40674" y="-18" font-family="Helvetica,sans-Serif" font-size="10.00">JsonLoader\getContactsNo</text>
<text text-anchor="middle" x="69" y="-6" font-family="Helvetica,sans-Serif" font-size="10.00">NextJson</text>
</g>
<!-- Node2 -->
<g id="node2" class="node"><title>Node2</title>
<g id="a_node2"><a xlink:href="class_contact_service_unit_test.html#a7e198acea4d32b09f407c9b42bd1b0c5" target="_top" xlink:title="ContactServiceUnitTest\l\\testGetContactsNoNextLink">
<polygon fill="white" stroke="black" points="173.917,-0 173.917,-32 316.083,-32 316.083,-0 173.917,-0"/>
<text text-anchor="start" x="181.917" y="-18" font-family="Helvetica,sans-Serif" font-size="10.00">ContactServiceUnitTest</text>
<text text-anchor="middle" x="245" y="-6" font-family="Helvetica,sans-Serif" font-size="10.00">\testGetContactsNoNextLink</text>
</a>
</g>
</g>
<!-- Node1&#45;&gt;Node2 -->
<g id="edge1" class="edge"><title>Node1&#45;&gt;Node2</title>
<path fill="none" stroke="midnightblue" d="M147.852,-16C156.506,-16 165.281,-16 173.831,-16"/>
<polygon fill="midnightblue" stroke="midnightblue" points="147.771,-12.5001 137.771,-16 147.771,-19.5001 147.771,-12.5001"/>
</g>
</g>
</svg>
