<?xml version="1.0" encoding="UTF-8" standalone="no"?>
<!DOCTYPE svg PUBLIC "-//W3C//DTD SVG 1.1//EN"
 "http://www.w3.org/Graphics/SVG/1.1/DTD/svg11.dtd">
<!-- Generated by graphviz version 2.30.1 (20130221.2233)
 -->
<!-- Title: Ctct\Services\ActivityService\addExportContactsActivity Pages: 1 -->
<svg width="496pt" height="130pt"
 viewBox="0.00 0.00 496.00 130.00" xmlns="http://www.w3.org/2000/svg" xmlns:xlink="http://www.w3.org/1999/xlink">
<g id="graph0" class="graph" transform="scale(1 1) rotate(0) translate(4 126)">
<title>Ctct\Services\ActivityService\addExportContactsActivity</title>
<polygon fill="white" stroke="white" points="-4,5 -4,-126 493,-126 493,5 -4,5"/>
<!-- Node1 -->
<g id="node1" class="node"><title>Node1</title>
<polygon fill="#bfbfbf" stroke="black" points="0.652832,-39 0.652832,-71 143.347,-71 143.347,-39 0.652832,-39"/>
<text text-anchor="start" x="8.65283" y="-57" font-family="Helvetica,sans-Serif" font-size="10.00">Ctct\Services\ActivityService</text>
<text text-anchor="middle" x="72" y="-45" font-family="Helvetica,sans-Serif" font-size="10.00">\addExportContactsActivity</text>
</g>
<!-- Node2 -->
<g id="node2" class="node"><title>Node2</title>
<g id="a_node2"><a xlink:href="class_ctct_1_1_services_1_1_base_service.html#a5c4ae0795fcc06c137b6e761963c4df6" target="_top" xlink:title="Build a url from the base url and query parameters array. ">
<polygon fill="white" stroke="black" points="181.091,-90 181.091,-122 314.909,-122 314.909,-90 181.091,-90"/>
<text text-anchor="start" x="189.091" y="-108" font-family="Helvetica,sans-Serif" font-size="10.00">Ctct\Services\BaseService</text>
<text text-anchor="middle" x="248" y="-96" font-family="Helvetica,sans-Serif" font-size="10.00">\buildUrl</text>
</a>
</g>
</g>
<!-- Node1&#45;&gt;Node2 -->
<g id="edge1" class="edge"><title>Node1&#45;&gt;Node2</title>
<path fill="none" stroke="midnightblue" d="M128.055,-71.1367C145.36,-76.209 164.624,-81.8552 182.522,-87.1012"/>
<polygon fill="midnightblue" stroke="midnightblue" points="181.723,-90.5142 192.303,-89.9683 183.692,-83.7968 181.723,-90.5142"/>
</g>
<!-- Node3 -->
<g id="node3" class="node"><title>Node3</title>
<g id="a_node3"><a xlink:href="class_ctct_1_1_components_1_1_activities_1_1_activity.html#ad67770e21bcf6b61eef2f6c519763d03" target="_top" xlink:title="Factory method to create an Activity object from an array. ">
<polygon fill="white" stroke="black" points="180.256,-39 180.256,-71 315.744,-71 315.744,-39 180.256,-39"/>
<text text-anchor="start" x="188.256" y="-57" font-family="Helvetica,sans-Serif" font-size="10.00">Ctct\Components\Activities</text>
<text text-anchor="middle" x="248" y="-45" font-family="Helvetica,sans-Serif" font-size="10.00">\Activity\create</text>
</a>
</g>
</g>
<!-- Node1&#45;&gt;Node3 -->
<g id="edge2" class="edge"><title>Node1&#45;&gt;Node3</title>
<path fill="none" stroke="midnightblue" d="M143.522,-55C152.188,-55 161.082,-55 169.84,-55"/>
<polygon fill="midnightblue" stroke="midnightblue" points="170.038,-58.5001 180.038,-55 170.038,-51.5001 170.038,-58.5001"/>
</g>
<!-- Node5 -->
<g id="node5" class="node"><title>Node5</title>
<g id="a_node5"><a xlink:href="class_ctct_1_1_util_1_1_config.html#ab224fae1ce1a1993c1ac42c708dc7de9" target="_top" xlink:title="Get a configuration property given a specified location, example usage: Config::get(&#39;auth.token_endpoint&#39;) ">
<polygon fill="white" stroke="black" points="198.318,-0 198.318,-20 297.682,-20 297.682,-0 198.318,-0"/>
<text text-anchor="middle" x="248" y="-6" font-family="Helvetica,sans-Serif" font-size="10.00">Ctct\Util\Config\get</text>
</a>
</g>
</g>
<!-- Node1&#45;&gt;Node5 -->
<g id="edge4" class="edge"><title>Node1&#45;&gt;Node5</title>
<path fill="none" stroke="midnightblue" d="M135.327,-38.8811C156.003,-33.5336 178.707,-27.6619 198.213,-22.6173"/>
<polygon fill="midnightblue" stroke="midnightblue" points="199.289,-25.9543 208.094,-20.0619 197.536,-19.1773 199.289,-25.9543"/>
</g>
<!-- Node4 -->
<g id="node4" class="node"><title>Node4</title>
<g id="a_node4"><a xlink:href="class_ctct_1_1_components_1_1_activities_1_1_activity_error.html#aa9bc6b634f25fd213c068cbf97e966ec" target="_top" xlink:title="Factory method to create an object from an array. ">
<polygon fill="white" stroke="black" points="352.256,-39 352.256,-71 487.744,-71 487.744,-39 352.256,-39"/>
<text text-anchor="start" x="360.256" y="-57" font-family="Helvetica,sans-Serif" font-size="10.00">Ctct\Components\Activities</text>
<text text-anchor="middle" x="420" y="-45" font-family="Helvetica,sans-Serif" font-size="10.00">\ActivityError\create</text>
</a>
</g>
</g>
<!-- Node3&#45;&gt;Node4 -->
<g id="edge3" class="edge"><title>Node3&#45;&gt;Node4</title>
<path fill="none" stroke="midnightblue" d="M316.189,-55C324.66,-55 333.379,-55 341.988,-55"/>
<polygon fill="midnightblue" stroke="midnightblue" points="342.021,-58.5001 352.021,-55 342.021,-51.5001 342.021,-58.5001"/>
</g>
</g>
</svg>
