<?xml version="1.0" encoding="UTF-8" standalone="no"?>
<!DOCTYPE svg PUBLIC "-//W3C//DTD SVG 1.1//EN"
 "http://www.w3.org/Graphics/SVG/1.1/DTD/svg11.dtd">
<!-- Generated by graphviz version 2.30.1 (20130221.2233)
 -->
<!-- Title: Ctct\Services\AccountService\getVerifiedEmailAddresses Pages: 1 -->
<svg width="326pt" height="142pt"
 viewBox="0.00 0.00 326.00 142.00" xmlns="http://www.w3.org/2000/svg" xmlns:xlink="http://www.w3.org/1999/xlink">
<g id="graph0" class="graph" transform="scale(1 1) rotate(0) translate(4 138)">
<title>Ctct\Services\AccountService\getVerifiedEmailAddresses</title>
<polygon fill="white" stroke="white" points="-4,5 -4,-138 323,-138 323,5 -4,5"/>
<!-- Node1 -->
<g id="node1" class="node"><title>Node1</title>
<polygon fill="#bfbfbf" stroke="black" points="0.421387,-45 0.421387,-77 147.579,-77 147.579,-45 0.421387,-45"/>
<text text-anchor="start" x="8.42139" y="-63" font-family="Helvetica,sans-Serif" font-size="10.00">Ctct\Services\AccountService</text>
<text text-anchor="middle" x="74" y="-51" font-family="Helvetica,sans-Serif" font-size="10.00">\getVerifiedEmailAddresses</text>
</g>
<!-- Node2 -->
<g id="node2" class="node"><title>Node2</title>
<g id="a_node2"><a xlink:href="class_ctct_1_1_services_1_1_base_service.html#a5c4ae0795fcc06c137b6e761963c4df6" target="_top" xlink:title="Build a url from the base url and query parameters array. ">
<polygon fill="white" stroke="black" points="184.091,-102 184.091,-134 317.909,-134 317.909,-102 184.091,-102"/>
<text text-anchor="start" x="192.091" y="-120" font-family="Helvetica,sans-Serif" font-size="10.00">Ctct\Services\BaseService</text>
<text text-anchor="middle" x="251" y="-108" font-family="Helvetica,sans-Serif" font-size="10.00">\buildUrl</text>
</a>
</g>
</g>
<!-- Node1&#45;&gt;Node2 -->
<g id="edge1" class="edge"><title>Node1&#45;&gt;Node2</title>
<path fill="none" stroke="midnightblue" d="M124.213,-77.0294C144.99,-83.7969 169.355,-91.7329 191.08,-98.8089"/>
<polygon fill="midnightblue" stroke="midnightblue" points="190.261,-102.223 200.854,-101.992 192.429,-95.5673 190.261,-102.223"/>
</g>
<!-- Node3 -->
<g id="node3" class="node"><title>Node3</title>
<g id="a_node3"><a xlink:href="class_ctct_1_1_components_1_1_account_1_1_verified_email_address.html#a52406eba65a18e2dc5f953fa582bb784" target="_top" xlink:title="Factory method to create an VerifiedEmail object from an array. ">
<polygon fill="white" stroke="black" points="184.917,-39 184.917,-83 317.083,-83 317.083,-39 184.917,-39"/>
<text text-anchor="start" x="192.917" y="-69" font-family="Helvetica,sans-Serif" font-size="10.00">Ctct\Components\Account</text>
<text text-anchor="start" x="192.917" y="-57" font-family="Helvetica,sans-Serif" font-size="10.00">\VerifiedEmailAddress</text>
<text text-anchor="middle" x="251" y="-45" font-family="Helvetica,sans-Serif" font-size="10.00">\create</text>
</a>
</g>
</g>
<!-- Node1&#45;&gt;Node3 -->
<g id="edge2" class="edge"><title>Node1&#45;&gt;Node3</title>
<path fill="none" stroke="midnightblue" d="M147.695,-61C156.634,-61 165.784,-61 174.759,-61"/>
<polygon fill="midnightblue" stroke="midnightblue" points="174.797,-64.5001 184.797,-61 174.797,-57.5001 174.797,-64.5001"/>
</g>
<!-- Node4 -->
<g id="node4" class="node"><title>Node4</title>
<g id="a_node4"><a xlink:href="class_ctct_1_1_util_1_1_config.html#ab224fae1ce1a1993c1ac42c708dc7de9" target="_top" xlink:title="Get a configuration property given a specified location, example usage: Config::get(&#39;auth.token_endpoint&#39;) ">
<polygon fill="white" stroke="black" points="201.318,-0 201.318,-20 300.682,-20 300.682,-0 201.318,-0"/>
<text text-anchor="middle" x="251" y="-6" font-family="Helvetica,sans-Serif" font-size="10.00">Ctct\Util\Config\get</text>
</a>
</g>
</g>
<!-- Node1&#45;&gt;Node4 -->
<g id="edge3" class="edge"><title>Node1&#45;&gt;Node4</title>
<path fill="none" stroke="midnightblue" d="M130.371,-44.8633C154.708,-37.7709 182.895,-29.5564 205.794,-22.883"/>
<polygon fill="midnightblue" stroke="midnightblue" points="206.961,-26.1885 215.582,-20.0303 205.002,-19.4681 206.961,-26.1885"/>
</g>
</g>
</svg>
