<?xml version="1.0" encoding="UTF-8" standalone="no"?>
<!DOCTYPE svg PUBLIC "-//W3C//DTD SVG 1.1//EN"
 "http://www.w3.org/Graphics/SVG/1.1/DTD/svg11.dtd">
<!-- Generated by graphviz version 2.30.1 (20130221.2233)
 -->
<!-- Title: Net_DNS_Resolver\res_init Pages: 1 -->
<svg width="728pt" height="124pt"
 viewBox="0.00 0.00 728.00 124.00" xmlns="http://www.w3.org/2000/svg" xmlns:xlink="http://www.w3.org/1999/xlink">
<g id="graph0" class="graph" transform="scale(1 1) rotate(0) translate(4 120)">
<title>Net_DNS_Resolver\res_init</title>
<polygon fill="white" stroke="white" points="-4,5 -4,-120 725,-120 725,5 -4,5"/>
<!-- Node1 -->
<g id="node1" class="node"><title>Node1</title>
<polygon fill="#bfbfbf" stroke="black" points="-0.135254,-45 -0.135254,-65 138.135,-65 138.135,-45 -0.135254,-45"/>
<text text-anchor="middle" x="69" y="-51" font-family="Helvetica,sans-Serif" font-size="10.00">Net_DNS_Resolver\res_init</text>
</g>
<!-- Node2 -->
<g id="node2" class="node"><title>Node2</title>
<g id="a_node2"><a xlink:href="class_net___d_n_s___resolver.html#ae4def11574ad6e93176670c726541bed" target="_top" xlink:title="Reads and parses a resolver configuration file. ">
<polygon fill="white" stroke="black" points="184.976,-84 184.976,-116 311.024,-116 311.024,-84 184.976,-84"/>
<text text-anchor="start" x="192.976" y="-102" font-family="Helvetica,sans-Serif" font-size="10.00">Net_DNS_Resolver\read</text>
<text text-anchor="middle" x="248" y="-90" font-family="Helvetica,sans-Serif" font-size="10.00">_config</text>
</a>
</g>
</g>
<!-- Node1&#45;&gt;Node2 -->
<g id="edge1" class="edge"><title>Node1&#45;&gt;Node2</title>
<path fill="none" stroke="midnightblue" d="M109.722,-65.0989C128.989,-69.9972 152.741,-76.0358 175.04,-81.7051"/>
<polygon fill="midnightblue" stroke="midnightblue" points="174.271,-85.1208 184.825,-84.1928 175.996,-78.3366 174.271,-85.1208"/>
</g>
<!-- Node6 -->
<g id="node6" class="node"><title>Node6</title>
<g id="a_node6"><a xlink:href="class_net___d_n_s___resolver.html#a2a3d25c5dd2b1810b60ad05b84787855" target="_top" xlink:title="Examines the environment for resolver config information. ">
<polygon fill="white" stroke="black" points="174.133,-45 174.133,-65 321.867,-65 321.867,-45 174.133,-45"/>
<text text-anchor="middle" x="248" y="-51" font-family="Helvetica,sans-Serif" font-size="10.00">Net_DNS_Resolver\read_env</text>
</a>
</g>
</g>
<!-- Node1&#45;&gt;Node6 -->
<g id="edge6" class="edge"><title>Node1&#45;&gt;Node6</title>
<path fill="none" stroke="midnightblue" d="M138.18,-55C146.579,-55 155.237,-55 163.827,-55"/>
<polygon fill="midnightblue" stroke="midnightblue" points="163.862,-58.5001 173.862,-55 163.862,-51.5001 163.862,-58.5001"/>
</g>
<!-- Node3 -->
<g id="node3" class="node"><title>Node3</title>
<g id="a_node3"><a xlink:href="class_net___d_n_s___resolver.html#a3bf22a7a58480dd7a6fd0dd17807fc70" target="_top" xlink:title="Gets or sets the nameservers to be queried. ">
<polygon fill="white" stroke="black" points="358.084,-48 358.084,-68 521.916,-68 521.916,-48 358.084,-48"/>
<text text-anchor="middle" x="440" y="-54" font-family="Helvetica,sans-Serif" font-size="10.00">Net_DNS_Resolver\nameservers</text>
</a>
</g>
</g>
<!-- Node2&#45;&gt;Node3 -->
<g id="edge2" class="edge"><title>Node2&#45;&gt;Node3</title>
<path fill="none" stroke="midnightblue" d="M311.213,-86.2476C334.593,-81.0793 360.994,-75.2435 383.703,-70.2236"/>
<polygon fill="midnightblue" stroke="midnightblue" points="384.512,-73.6294 393.52,-68.0534 383.001,-66.7944 384.512,-73.6294"/>
</g>
<!-- Node4 -->
<g id="node4" class="node"><title>Node4</title>
<g id="a_node4"><a xlink:href="class_net___d_n_s___resolver.html#ae1bb14089519fe774d025156114aae4f" target="_top" xlink:title="Net_DNS_Resolver\\cname_addr">
<polygon fill="white" stroke="black" points="558.188,-51 558.188,-71 719.812,-71 719.812,-51 558.188,-51"/>
<text text-anchor="middle" x="639" y="-57" font-family="Helvetica,sans-Serif" font-size="10.00">Net_DNS_Resolver\cname_addr</text>
</a>
</g>
</g>
<!-- Node3&#45;&gt;Node4 -->
<g id="edge3" class="edge"><title>Node3&#45;&gt;Node4</title>
<path fill="none" stroke="midnightblue" d="M521.98,-59.2332C530.523,-59.3633 539.248,-59.4962 547.886,-59.6277"/>
<polygon fill="midnightblue" stroke="midnightblue" points="547.918,-63.1285 557.97,-59.7813 548.025,-56.1293 547.918,-63.1285"/>
</g>
<!-- Node5 -->
<g id="node5" class="node"><title>Node5</title>
<g id="a_node5"><a xlink:href="class_net___d_n_s___resolver.html#a4358663ec326e406c398f6cb09bd5544" target="_top" xlink:title="Initializes the Resolver Object. ">
<polygon fill="white" stroke="black" points="578.202,-0 578.202,-32 699.798,-32 699.798,-0 578.202,-0"/>
<text text-anchor="start" x="586.202" y="-18" font-family="Helvetica,sans-Serif" font-size="10.00">Net_DNS_Resolver\Net</text>
<text text-anchor="middle" x="639" y="-6" font-family="Helvetica,sans-Serif" font-size="10.00">_DNS_Resolver</text>
</a>
</g>
</g>
<!-- Node3&#45;&gt;Node5 -->
<g id="edge4" class="edge"><title>Node3&#45;&gt;Node5</title>
<path fill="none" stroke="midnightblue" d="M487.936,-47.9933C511.853,-42.8944 541.418,-36.5912 567.965,-30.9314"/>
<polygon fill="midnightblue" stroke="midnightblue" points="568.923,-34.3058 577.973,-28.7976 567.463,-27.4597 568.923,-34.3058"/>
</g>
<!-- Node5&#45;&gt;Node1 -->
<g id="edge5" class="edge"><title>Node5&#45;&gt;Node1</title>
<path fill="none" stroke="midnightblue" d="M578.082,-15.6088C489.461,-15.6731 318.356,-18.2587 174,-35 157.819,-36.8765 140.382,-39.8495 124.497,-42.9353"/>
<polygon fill="midnightblue" stroke="midnightblue" points="123.431,-39.5788 114.31,-44.969 124.802,-46.4434 123.431,-39.5788"/>
</g>
<!-- Node6&#45;&gt;Node3 -->
<g id="edge7" class="edge"><title>Node6&#45;&gt;Node3</title>
<path fill="none" stroke="midnightblue" d="M321.916,-56.1513C330.415,-56.2855 339.164,-56.4236 347.87,-56.5611"/>
<polygon fill="midnightblue" stroke="midnightblue" points="347.999,-60.0635 358.053,-56.7219 348.109,-53.0643 347.999,-60.0635"/>
</g>
</g>
</svg>
