<?xml version="1.0" encoding="UTF-8" standalone="no"?>
<!DOCTYPE svg PUBLIC "-//W3C//DTD SVG 1.1//EN"
 "http://www.w3.org/Graphics/SVG/1.1/DTD/svg11.dtd">
<!-- Generated by graphviz version 2.30.1 (20130221.2233)
 -->
<!-- Title: Net_DNS_RR_TSIG\error Pages: 1 -->
<svg width="302pt" height="91pt"
 viewBox="0.00 0.00 302.00 91.00" xmlns="http://www.w3.org/2000/svg" xmlns:xlink="http://www.w3.org/1999/xlink">
<g id="graph0" class="graph" transform="scale(1 1) rotate(0) translate(4 87)">
<title>Net_DNS_RR_TSIG\error</title>
<polygon fill="white" stroke="white" points="-4,5 -4,-87 299,-87 299,5 -4,5"/>
<!-- Node1 -->
<g id="node1" class="node"><title>Node1</title>
<polygon fill="#bfbfbf" stroke="black" points="0.485352,-31 0.485352,-51 131.515,-51 131.515,-31 0.485352,-31"/>
<text text-anchor="middle" x="66" y="-37" font-family="Helvetica,sans-Serif" font-size="10.00">Net_DNS_RR_TSIG\error</text>
</g>
<!-- Node2 -->
<g id="node2" class="node"><title>Node2</title>
<g id="a_node2"><a xlink:href="class_net___d_n_s___r_r___t_s_i_g.html#af65963492a03361a69f7f2695e3366d4" target="_top" xlink:title="Net_DNS_RR_TSIG\\Net\l_DNS_RR_TSIG">
<polygon fill="white" stroke="black" points="168.261,-51 168.261,-83 293.739,-83 293.739,-51 168.261,-51"/>
<text text-anchor="start" x="176.261" y="-69" font-family="Helvetica,sans-Serif" font-size="10.00">Net_DNS_RR_TSIG\Net</text>
<text text-anchor="middle" x="231" y="-57" font-family="Helvetica,sans-Serif" font-size="10.00">_DNS_RR_TSIG</text>
</a>
</g>
</g>
<!-- Node1&#45;&gt;Node2 -->
<g id="edge1" class="edge"><title>Node1&#45;&gt;Node2</title>
<path fill="none" stroke="midnightblue" d="M140.121,-52.6635C149.506,-54.1605 159.041,-55.6814 168.221,-57.1456"/>
<polygon fill="midnightblue" stroke="midnightblue" points="140.447,-49.1712 130.02,-51.0523 139.344,-56.0838 140.447,-49.1712"/>
</g>
<!-- Node3 -->
<g id="node3" class="node"><title>Node3</title>
<g id="a_node3"><a xlink:href="class_net___d_n_s___r_r___t_s_i_g.html#a34aa917d71dd9b645ecf8d4abb104a25" target="_top" xlink:title="Net_DNS_RR_TSIG\\rr\l_rdata">
<polygon fill="white" stroke="black" points="172.712,-0 172.712,-32 289.288,-32 289.288,-0 172.712,-0"/>
<text text-anchor="start" x="180.712" y="-18" font-family="Helvetica,sans-Serif" font-size="10.00">Net_DNS_RR_TSIG\rr</text>
<text text-anchor="middle" x="231" y="-6" font-family="Helvetica,sans-Serif" font-size="10.00">_rdata</text>
</a>
</g>
</g>
<!-- Node1&#45;&gt;Node3 -->
<g id="edge2" class="edge"><title>Node1&#45;&gt;Node3</title>
<path fill="none" stroke="midnightblue" d="M141.784,-29.53C152.174,-27.9365 162.71,-26.3205 172.711,-24.7866"/>
<polygon fill="midnightblue" stroke="midnightblue" points="141.244,-26.0719 131.89,-31.0475 142.305,-32.991 141.244,-26.0719"/>
</g>
</g>
</svg>
