<?xml version="1.0" encoding="UTF-8" standalone="no"?>
<!DOCTYPE svg PUBLIC "-//W3C//DTD SVG 1.1//EN"
 "http://www.w3.org/Graphics/SVG/1.1/DTD/svg11.dtd">
<!-- Generated by graphviz version 2.30.1 (20130221.2233)
 -->
<!-- Title: Contact\createStruct Pages: 1 -->
<svg width="466pt" height="193pt"
 viewBox="0.00 0.00 466.00 193.00" xmlns="http://www.w3.org/2000/svg" xmlns:xlink="http://www.w3.org/1999/xlink">
<g id="graph0" class="graph" transform="scale(1 1) rotate(0) translate(4 189)">
<title>Contact\createStruct</title>
<polygon fill="white" stroke="white" points="-4,5 -4,-189 463,-189 463,5 -4,5"/>
<!-- Node1 -->
<g id="node1" class="node"><title>Node1</title>
<polygon fill="#bfbfbf" stroke="black" points="0.423828,-82 0.423828,-102 107.576,-102 107.576,-82 0.423828,-82"/>
<text text-anchor="middle" x="54" y="-88" font-family="Helvetica,sans-Serif" font-size="10.00">Contact\createStruct</text>
</g>
<!-- Node2 -->
<g id="node2" class="node"><title>Node2</title>
<g id="a_node2"><a xlink:href="class_contacts_collection.html#a58610b21a633bfe30cc66a5f54a107a7" target="_top" xlink:title="Add a contact to account. ">
<polygon fill="white" stroke="black" points="157.313,-153 157.313,-185 256.687,-185 256.687,-153 157.313,-153"/>
<text text-anchor="start" x="165.313" y="-171" font-family="Helvetica,sans-Serif" font-size="10.00">ContactsCollection</text>
<text text-anchor="middle" x="207" y="-159" font-family="Helvetica,sans-Serif" font-size="10.00">\addContact</text>
</a>
</g>
</g>
<!-- Node1&#45;&gt;Node2 -->
<g id="edge1" class="edge"><title>Node1&#45;&gt;Node2</title>
<path fill="none" stroke="midnightblue" d="M80.1077,-107.496C97.6928,-118.072 121.905,-132.088 144,-143 150.907,-146.411 158.374,-149.792 165.652,-152.93"/>
<polygon fill="midnightblue" stroke="midnightblue" points="81.4405,-104.21 71.0755,-102.015 77.8092,-110.195 81.4405,-104.21"/>
</g>
<!-- Node3 -->
<g id="node3" class="node"><title>Node3</title>
<g id="a_node3"><a xlink:href="class_contacts_collection.html#a55c54d5be74863ecc8dfa0f53a4f430f" target="_top" xlink:title="Get detailed Contact object for a given contact. ">
<polygon fill="white" stroke="black" points="157.313,-102 157.313,-134 256.687,-134 256.687,-102 157.313,-102"/>
<text text-anchor="start" x="165.313" y="-120" font-family="Helvetica,sans-Serif" font-size="10.00">ContactsCollection</text>
<text text-anchor="middle" x="207" y="-108" font-family="Helvetica,sans-Serif" font-size="10.00">\getContactDetails</text>
</a>
</g>
</g>
<!-- Node1&#45;&gt;Node3 -->
<g id="edge2" class="edge"><title>Node1&#45;&gt;Node3</title>
<path fill="none" stroke="midnightblue" d="M117.767,-102.808C130.957,-105.079 144.68,-107.442 157.265,-109.608"/>
<polygon fill="midnightblue" stroke="midnightblue" points="118.261,-99.3413 107.812,-101.094 117.074,-106.24 118.261,-99.3413"/>
</g>
<!-- Node4 -->
<g id="node4" class="node"><title>Node4</title>
<g id="a_node4"><a xlink:href="class_contacts_collection.html#a9dcfa1067f115ee7ba5f231b5433e912" target="_top" xlink:title="ContactsCollection\l\\getContacts">
<polygon fill="white" stroke="black" points="157.313,-51 157.313,-83 256.687,-83 256.687,-51 157.313,-51"/>
<text text-anchor="start" x="165.313" y="-69" font-family="Helvetica,sans-Serif" font-size="10.00">ContactsCollection</text>
<text text-anchor="middle" x="207" y="-57" font-family="Helvetica,sans-Serif" font-size="10.00">\getContacts</text>
</a>
</g>
</g>
<!-- Node1&#45;&gt;Node4 -->
<g id="edge3" class="edge"><title>Node1&#45;&gt;Node4</title>
<path fill="none" stroke="midnightblue" d="M117.767,-81.6081C130.957,-79.4244 144.68,-77.1523 157.265,-75.0688"/>
<polygon fill="midnightblue" stroke="midnightblue" points="117.106,-78.1697 107.812,-83.2562 118.25,-85.0757 117.106,-78.1697"/>
</g>
<!-- Node6 -->
<g id="node6" class="node"><title>Node6</title>
<g id="a_node6"><a xlink:href="class_contacts_collection.html#a607e64e75eef78c7e3d22362d6400541" target="_top" xlink:title="Search for Contacts by email addresses. ">
<polygon fill="white" stroke="black" points="144.535,-0 144.535,-32 269.465,-32 269.465,-0 144.535,-0"/>
<text text-anchor="start" x="152.535" y="-18" font-family="Helvetica,sans-Serif" font-size="10.00">ContactsCollection</text>
<text text-anchor="middle" x="207" y="-6" font-family="Helvetica,sans-Serif" font-size="10.00">\searchContactsByEmail</text>
</a>
</g>
</g>
<!-- Node1&#45;&gt;Node6 -->
<g id="edge5" class="edge"><title>Node1&#45;&gt;Node6</title>
<path fill="none" stroke="midnightblue" d="M80.7929,-76.4711C98.3386,-66.1669 122.234,-52.6343 144,-42 150.922,-38.6183 158.395,-35.2521 165.676,-32.1182"/>
<polygon fill="midnightblue" stroke="midnightblue" points="78.5735,-73.7176 71.7523,-81.8246 82.1402,-79.7408 78.5735,-73.7176"/>
</g>
<!-- Node5 -->
<g id="node5" class="node"><title>Node5</title>
<g id="a_node5"><a xlink:href="class_contacts_collection.html#a5b3e93e3981dcec723292446f678f053" target="_top" xlink:title="Search for contacts that have been updated since a specific date. ">
<polygon fill="white" stroke="black" points="306.463,-51 306.463,-83 457.537,-83 457.537,-51 306.463,-51"/>
<text text-anchor="start" x="314.463" y="-69" font-family="Helvetica,sans-Serif" font-size="10.00">ContactsCollection</text>
<text text-anchor="middle" x="382" y="-57" font-family="Helvetica,sans-Serif" font-size="10.00">\searchContactsByLastUpdate</text>
</a>
</g>
</g>
<!-- Node4&#45;&gt;Node5 -->
<g id="edge4" class="edge"><title>Node4&#45;&gt;Node5</title>
<path fill="none" stroke="midnightblue" d="M267.393,-67C279.898,-67 293.245,-67 306.232,-67"/>
<polygon fill="midnightblue" stroke="midnightblue" points="267.112,-63.5001 257.112,-67 267.112,-70.5001 267.112,-63.5001"/>
</g>
</g>
</svg>
