<?xml version="1.0" encoding="UTF-8" standalone="no"?>
<!DOCTYPE svg PUBLIC "-//W3C//DTD SVG 1.1//EN"
 "http://www.w3.org/Graphics/SVG/1.1/DTD/svg11.dtd">
<!-- Generated by graphviz version 2.30.1 (20130221.2233)
 -->
<!-- Title: OAuthRequest\sign_request Pages: 1 -->
<svg width="336pt" height="79pt"
 viewBox="0.00 0.00 336.00 79.00" xmlns="http://www.w3.org/2000/svg" xmlns:xlink="http://www.w3.org/1999/xlink">
<g id="graph0" class="graph" transform="scale(1 1) rotate(0) translate(4 75)">
<title>OAuthRequest\sign_request</title>
<polygon fill="white" stroke="white" points="-4,5 -4,-75 333,-75 333,5 -4,5"/>
<!-- Node1 -->
<g id="node1" class="node"><title>Node1</title>
<polygon fill="#bfbfbf" stroke="black" points="0.182617,-22 0.182617,-42 141.817,-42 141.817,-22 0.182617,-22"/>
<text text-anchor="middle" x="71" y="-28" font-family="Helvetica,sans-Serif" font-size="10.00">OAuthRequest\sign_request</text>
</g>
<!-- Node2 -->
<g id="node2" class="node"><title>Node2</title>
<g id="a_node2"><a xlink:href="class_o_auth_request.html#ae4e15304729629262002ecfe432feda0" target="_top" xlink:title="OAuthRequest\\build\l_signature">
<polygon fill="white" stroke="black" points="200.249,-39 200.249,-71 305.751,-71 305.751,-39 200.249,-39"/>
<text text-anchor="start" x="208.249" y="-57" font-family="Helvetica,sans-Serif" font-size="10.00">OAuthRequest\build</text>
<text text-anchor="middle" x="253" y="-45" font-family="Helvetica,sans-Serif" font-size="10.00">_signature</text>
</a>
</g>
</g>
<!-- Node1&#45;&gt;Node2 -->
<g id="edge1" class="edge"><title>Node1&#45;&gt;Node2</title>
<path fill="none" stroke="midnightblue" d="M141.85,-40.9253C157.739,-42.9555 174.511,-45.0986 190.044,-47.0835"/>
<polygon fill="midnightblue" stroke="midnightblue" points="189.689,-50.5664 200.052,-48.3622 190.576,-43.6228 189.689,-50.5664"/>
</g>
<!-- Node3 -->
<g id="node3" class="node"><title>Node3</title>
<g id="a_node3"><a xlink:href="class_o_auth_request.html#a9dc47625ff1e4c79d742170adc96b7c9" target="_top" xlink:title="OAuthRequest\\set_parameter">
<polygon fill="white" stroke="black" points="178.574,-0 178.574,-20 327.426,-20 327.426,-0 178.574,-0"/>
<text text-anchor="middle" x="253" y="-6" font-family="Helvetica,sans-Serif" font-size="10.00">OAuthRequest\set_parameter</text>
</a>
</g>
</g>
<!-- Node1&#45;&gt;Node3 -->
<g id="edge2" class="edge"><title>Node1&#45;&gt;Node3</title>
<path fill="none" stroke="midnightblue" d="M141.85,-23.4627C150.538,-22.4009 159.49,-21.3068 168.359,-20.2228"/>
<polygon fill="midnightblue" stroke="midnightblue" points="168.818,-23.6929 178.319,-19.0055 167.968,-16.7446 168.818,-23.6929"/>
</g>
</g>
</svg>
