<?xml version="1.0" encoding="UTF-8" standalone="no"?>
<!DOCTYPE svg PUBLIC "-//W3C//DTD SVG 1.1//EN"
 "http://www.w3.org/Graphics/SVG/1.1/DTD/svg11.dtd">
<!-- Generated by graphviz version 2.30.1 (20130221.2233)
 -->
<!-- Title: Ctct\Services\ContactService\updateContact Pages: 1 -->
<svg width="498pt" height="244pt"
 viewBox="0.00 0.00 498.00 244.00" xmlns="http://www.w3.org/2000/svg" xmlns:xlink="http://www.w3.org/1999/xlink">
<g id="graph0" class="graph" transform="scale(1 1) rotate(0) translate(4 240)">
<title>Ctct\Services\ContactService\updateContact</title>
<polygon fill="white" stroke="white" points="-4,5 -4,-240 495,-240 495,5 -4,5"/>
<!-- Node1 -->
<g id="node1" class="node"><title>Node1</title>
<polygon fill="#bfbfbf" stroke="black" points="0.256348,-79 0.256348,-111 145.744,-111 145.744,-79 0.256348,-79"/>
<text text-anchor="start" x="8.25635" y="-97" font-family="Helvetica,sans-Serif" font-size="10.00">Ctct\Services\ContactService</text>
<text text-anchor="middle" x="73" y="-85" font-family="Helvetica,sans-Serif" font-size="10.00">\updateContact</text>
</g>
<!-- Node2 -->
<g id="node2" class="node"><title>Node2</title>
<g id="a_node2"><a xlink:href="class_ctct_1_1_services_1_1_base_service.html#a5c4ae0795fcc06c137b6e761963c4df6" target="_top" xlink:title="Build a url from the base url and query parameters array. ">
<polygon fill="white" stroke="black" points="183.091,-153 183.091,-185 316.909,-185 316.909,-153 183.091,-153"/>
<text text-anchor="start" x="191.091" y="-171" font-family="Helvetica,sans-Serif" font-size="10.00">Ctct\Services\BaseService</text>
<text text-anchor="middle" x="250" y="-159" font-family="Helvetica,sans-Serif" font-size="10.00">\buildUrl</text>
</a>
</g>
</g>
<!-- Node1&#45;&gt;Node2 -->
<g id="edge1" class="edge"><title>Node1&#45;&gt;Node2</title>
<path fill="none" stroke="midnightblue" d="M109.323,-111.213C130.329,-120.725 157.561,-132.834 182,-143 186.968,-145.067 192.164,-147.175 197.369,-149.252"/>
<polygon fill="midnightblue" stroke="midnightblue" points="196.116,-152.52 206.702,-152.941 198.689,-146.01 196.116,-152.52"/>
</g>
<!-- Node3 -->
<g id="node3" class="node"><title>Node3</title>
<g id="a_node3"><a xlink:href="class_ctct_1_1_components_1_1_contacts_1_1_contact.html#aea94ae08d0308ccb24c030bd9d96e368" target="_top" xlink:title="Factory method to create a Contact object from an array. ">
<polygon fill="white" stroke="black" points="182.251,-102 182.251,-134 317.749,-134 317.749,-102 182.251,-102"/>
<text text-anchor="start" x="190.251" y="-120" font-family="Helvetica,sans-Serif" font-size="10.00">Ctct\Components\Contacts</text>
<text text-anchor="middle" x="250" y="-108" font-family="Helvetica,sans-Serif" font-size="10.00">\Contact\create</text>
</a>
</g>
</g>
<!-- Node1&#45;&gt;Node3 -->
<g id="edge2" class="edge"><title>Node1&#45;&gt;Node3</title>
<path fill="none" stroke="midnightblue" d="M145.937,-104.455C154.542,-105.586 163.355,-106.744 172.028,-107.884"/>
<polygon fill="midnightblue" stroke="midnightblue" points="171.753,-111.378 182.124,-109.211 172.665,-104.437 171.753,-111.378"/>
</g>
<!-- Node9 -->
<g id="node9" class="node"><title>Node9</title>
<g id="a_node9"><a xlink:href="class_ctct_1_1_util_1_1_config.html#ab224fae1ce1a1993c1ac42c708dc7de9" target="_top" xlink:title="Get a configuration property given a specified location, example usage: Config::get(&#39;auth.token_endpoint&#39;) ">
<polygon fill="white" stroke="black" points="200.318,-63 200.318,-83 299.682,-83 299.682,-63 200.318,-63"/>
<text text-anchor="middle" x="250" y="-69" font-family="Helvetica,sans-Serif" font-size="10.00">Ctct\Util\Config\get</text>
</a>
</g>
</g>
<!-- Node1&#45;&gt;Node9 -->
<g id="edge8" class="edge"><title>Node1&#45;&gt;Node9</title>
<path fill="none" stroke="midnightblue" d="M145.937,-85.9565C160.654,-84.1064 175.977,-82.18 190.17,-80.3958"/>
<polygon fill="midnightblue" stroke="midnightblue" points="190.794,-83.845 200.279,-79.1249 189.921,-76.8997 190.794,-83.845"/>
</g>
<!-- Node10 -->
<g id="node10" class="node"><title>Node10</title>
<g id="a_node10"><a xlink:href="class_ctct_1_1_components_1_1_contacts_1_1_contact.html#a364e62d83b19239d6074e87465ca145d" target="_top" xlink:title="Ctct\\Components\\Contacts\l\\Contact\\toJson">
<polygon fill="white" stroke="black" points="182.251,-12 182.251,-44 317.749,-44 317.749,-12 182.251,-12"/>
<text text-anchor="start" x="190.251" y="-30" font-family="Helvetica,sans-Serif" font-size="10.00">Ctct\Components\Contacts</text>
<text text-anchor="middle" x="250" y="-18" font-family="Helvetica,sans-Serif" font-size="10.00">\Contact\toJson</text>
</a>
</g>
</g>
<!-- Node1&#45;&gt;Node10 -->
<g id="edge9" class="edge"><title>Node1&#45;&gt;Node10</title>
<path fill="none" stroke="midnightblue" d="M115.917,-78.9518C140.395,-69.5803 171.476,-57.6807 197.444,-47.7385"/>
<polygon fill="midnightblue" stroke="midnightblue" points="199.035,-50.8774 207.122,-44.0332 196.532,-44.3401 199.035,-50.8774"/>
</g>
<!-- Node4 -->
<g id="node4" class="node"><title>Node4</title>
<g id="a_node4"><a xlink:href="class_ctct_1_1_components_1_1_contacts_1_1_custom_field.html#ae68b392692a27d65f007ca88378303ac" target="_top" xlink:title="Factory method to create a CustomField object from an array. ">
<polygon fill="white" stroke="black" points="354.251,-204 354.251,-236 489.749,-236 489.749,-204 354.251,-204"/>
<text text-anchor="start" x="362.251" y="-222" font-family="Helvetica,sans-Serif" font-size="10.00">Ctct\Components\Contacts</text>
<text text-anchor="middle" x="422" y="-210" font-family="Helvetica,sans-Serif" font-size="10.00">\CustomField\create</text>
</a>
</g>
</g>
<!-- Node3&#45;&gt;Node4 -->
<g id="edge3" class="edge"><title>Node3&#45;&gt;Node4</title>
<path fill="none" stroke="midnightblue" d="M302.091,-134.169C307.725,-136.997 313.164,-140.259 318,-144 339.658,-160.756 332.342,-177.244 354,-194 356.267,-195.754 358.666,-197.402 361.156,-198.95"/>
<polygon fill="midnightblue" stroke="midnightblue" points="359.471,-202.017 369.909,-203.831 362.88,-195.904 359.471,-202.017"/>
</g>
<!-- Node5 -->
<g id="node5" class="node"><title>Node5</title>
<g id="a_node5"><a xlink:href="class_ctct_1_1_components_1_1_contacts_1_1_note.html#a0f5c7143a592b1da1467efbeba73d715" target="_top" xlink:title="Factory method to create a Note object from an array. ">
<polygon fill="white" stroke="black" points="354.251,-153 354.251,-185 489.749,-185 489.749,-153 354.251,-153"/>
<text text-anchor="start" x="362.251" y="-171" font-family="Helvetica,sans-Serif" font-size="10.00">Ctct\Components\Contacts</text>
<text text-anchor="middle" x="422" y="-159" font-family="Helvetica,sans-Serif" font-size="10.00">\Note\create</text>
</a>
</g>
</g>
<!-- Node3&#45;&gt;Node5 -->
<g id="edge4" class="edge"><title>Node3&#45;&gt;Node5</title>
<path fill="none" stroke="midnightblue" d="M304.789,-134.137C321.54,-139.162 340.169,-144.751 357.518,-149.955"/>
<polygon fill="midnightblue" stroke="midnightblue" points="356.977,-153.447 367.561,-152.968 358.988,-146.742 356.977,-153.447"/>
</g>
<!-- Node6 -->
<g id="node6" class="node"><title>Node6</title>
<g id="a_node6"><a xlink:href="class_ctct_1_1_components_1_1_contacts_1_1_contact_list.html#a3fc8e0d47e974d0ba80d1ff92ec48d5c" target="_top" xlink:title="Factory method to create a ContactList object from an array. ">
<polygon fill="white" stroke="black" points="354.251,-102 354.251,-134 489.749,-134 489.749,-102 354.251,-102"/>
<text text-anchor="start" x="362.251" y="-120" font-family="Helvetica,sans-Serif" font-size="10.00">Ctct\Components\Contacts</text>
<text text-anchor="middle" x="422" y="-108" font-family="Helvetica,sans-Serif" font-size="10.00">\ContactList\create</text>
</a>
</g>
</g>
<!-- Node3&#45;&gt;Node6 -->
<g id="edge5" class="edge"><title>Node3&#45;&gt;Node6</title>
<path fill="none" stroke="midnightblue" d="M318.189,-118C326.66,-118 335.379,-118 343.988,-118"/>
<polygon fill="midnightblue" stroke="midnightblue" points="344.021,-121.5 354.021,-118 344.021,-114.5 344.021,-121.5"/>
</g>
<!-- Node7 -->
<g id="node7" class="node"><title>Node7</title>
<g id="a_node7"><a xlink:href="class_ctct_1_1_components_1_1_contacts_1_1_email_address.html#ad5ccee9c619500b3e61a3307c0635c89" target="_top" xlink:title="Factory method to create an EmailAddress object from an array. ">
<polygon fill="white" stroke="black" points="354.251,-51 354.251,-83 489.749,-83 489.749,-51 354.251,-51"/>
<text text-anchor="start" x="362.251" y="-69" font-family="Helvetica,sans-Serif" font-size="10.00">Ctct\Components\Contacts</text>
<text text-anchor="middle" x="422" y="-57" font-family="Helvetica,sans-Serif" font-size="10.00">\EmailAddress\create</text>
</a>
</g>
</g>
<!-- Node3&#45;&gt;Node7 -->
<g id="edge6" class="edge"><title>Node3&#45;&gt;Node7</title>
<path fill="none" stroke="midnightblue" d="M304.789,-101.863C321.54,-96.838 340.169,-91.2493 357.518,-86.0446"/>
<polygon fill="midnightblue" stroke="midnightblue" points="358.988,-89.2577 367.561,-83.0317 356.977,-82.5529 358.988,-89.2577"/>
</g>
<!-- Node8 -->
<g id="node8" class="node"><title>Node8</title>
<g id="a_node8"><a xlink:href="class_ctct_1_1_components_1_1_contacts_1_1_address.html#a0a1be46e7c7d87d63874c4d618ae3583" target="_top" xlink:title="Factory method to create an Address object from an array &#160;$props &#45; Associative array of initial prope...">
<polygon fill="white" stroke="black" points="354.251,-0 354.251,-32 489.749,-32 489.749,-0 354.251,-0"/>
<text text-anchor="start" x="362.251" y="-18" font-family="Helvetica,sans-Serif" font-size="10.00">Ctct\Components\Contacts</text>
<text text-anchor="middle" x="422" y="-6" font-family="Helvetica,sans-Serif" font-size="10.00">\Address\create</text>
</a>
</g>
</g>
<!-- Node3&#45;&gt;Node8 -->
<g id="edge7" class="edge"><title>Node3&#45;&gt;Node8</title>
<path fill="none" stroke="midnightblue" d="M302.091,-101.831C307.725,-99.0026 313.164,-95.7411 318,-92 339.658,-75.2441 332.342,-58.7559 354,-42 356.267,-40.2464 358.666,-38.5981 361.156,-37.0505"/>
<polygon fill="midnightblue" stroke="midnightblue" points="362.88,-40.0964 369.909,-32.169 359.471,-33.9828 362.88,-40.0964"/>
</g>
</g>
</svg>
