<?xml version="1.0" encoding="UTF-8" standalone="no"?>
<!DOCTYPE svg PUBLIC "-//W3C//DTD SVG 1.1//EN"
 "http://www.w3.org/Graphics/SVG/1.1/DTD/svg11.dtd">
<!-- Generated by graphviz version 2.30.1 (20130221.2233)
 -->
<!-- Title: OAuthServer\fetch_access_token Pages: 1 -->
<!--zoomable 184 -->
<svg id="main" version="1.1" xmlns="http://www.w3.org/2000/svg" xmlns:xlink="http://www.w3.org/1999/xlink" xml:space="preserve" onload="init(evt)">
<style type="text/css"><![CDATA[
.edge:hover path { stroke: red; }
.edge:hover polygon { stroke: red; fill: red; }
]]></style>
<script type="text/javascript"><![CDATA[
var edges = document.getElementsByTagName('g');
if (edges && edges.length) {
  for (var i=0;i<edges.length;i++) {
    if (edges[i].id.substr(0,4)=='edge') {
      edges[i].setAttribute('class','edge');
    }
  }
}
]]></script>
        <defs>
                <circle id="rim" cx="0" cy="0" r="7"/>
                <circle id="rim2" cx="0" cy="0" r="3.5"/>
                <g id="zoomPlus">
                        <use xlink:href="#rim" fill="#404040">
                                <set attributeName="fill" to="#808080" begin="zoomplus.mouseover" end="zoomplus.mouseout"/>
                        </use>
                        <path d="M-4,0h8M0,-4v8" fill="none" stroke="white" stroke-width="1.5" pointer-events="none"/>
                </g>
                <g id="zoomMin">
                        <use xlink:href="#rim" fill="#404040">
                                <set attributeName="fill" to="#808080" begin="zoomminus.mouseover" end="zoomminus.mouseout"/>
                        </use>
                        <path d="M-4,0h8" fill="none" stroke="white" stroke-width="1.5" pointer-events="none"/>
                </g>
                <g id="dirArrow">
                        <path fill="none" stroke="white" stroke-width="1.5" d="M0,-3.0v7 M-2.5,-0.5L0,-3.0L2.5,-0.5"/>
                </g>
               <g id="resetDef">
                       <use xlink:href="#rim2" fill="#404040">
                               <set attributeName="fill" to="#808080" begin="reset.mouseover" end="reset.mouseout"/>
                       </use>
               </g>
        </defs>

<script type="text/javascript">
var viewWidth = 520;
var viewHeight = 184;
var sectionId = 'dynsection-4';
</script>
<script xlink:href="svgpan.js"/>
<svg id="graph" class="graph">
<g id="viewport">
<title>OAuthServer\fetch_access_token</title>
<polygon fill="white" stroke="white" points="-4,5 -4,-180 517,-180 517,5 -4,5"/>
<!-- Node1 -->
<g id="node1" class="node"><title>Node1</title>
<polygon fill="#bfbfbf" stroke="black" points="0.527344,-52 0.527344,-84 135.473,-84 135.473,-52 0.527344,-52"/>
<text text-anchor="start" x="8.52734" y="-70" font-family="Helvetica,sans-Serif" font-size="10.00">OAuthServer\fetch_access</text>
<text text-anchor="middle" x="68" y="-58" font-family="Helvetica,sans-Serif" font-size="10.00">_token</text>
</g>
<!-- Node2 -->
<g id="node2" class="node"><title>Node2</title>
<g id="a_node2"><a xlink:href="class_o_auth_server.html#a42f0158a9a4c166bc9372054626d93ca" target="_top" xlink:title="all&#45;in&#45;one function to check the signature on a request should guess the signature method appropriate...">
<polygon fill="white" stroke="black" points="172.298,-117 172.298,-137 321.702,-137 321.702,-117 172.298,-117"/>
<text text-anchor="middle" x="247" y="-123" font-family="Helvetica,sans-Serif" font-size="10.00">OAuthServer\check_signature</text>
</a>
</g>
</g>
<!-- Node1&#45;&gt;Node2 -->
<g id="edge1" class="edge"><title>Node1&#45;&gt;Node2</title>
<path fill="none" stroke="midnightblue" d="M108.787,-84.1072C127.771,-91.5234 150.897,-100.171 172,-107 179.741,-109.505 188.006,-111.954 196.102,-114.232"/>
<polygon fill="midnightblue" stroke="midnightblue" points="195.278,-117.635 205.848,-116.916 197.137,-110.886 195.278,-117.635"/>
</g>
<!-- Node6 -->
<g id="node6" class="node"><title>Node6</title>
<g id="a_node6"><a xlink:href="class_o_auth_server.html#adc55d70d9f093aab5354db25f529ed5b" target="_top" xlink:title="try to find the consumer for the provided request&#39;s consumer key ">
<polygon fill="white" stroke="black" points="177.025,-78 177.025,-98 316.975,-98 316.975,-78 177.025,-78"/>
<text text-anchor="middle" x="247" y="-84" font-family="Helvetica,sans-Serif" font-size="10.00">OAuthServer\get_consumer</text>
</a>
</g>
</g>
<!-- Node1&#45;&gt;Node6 -->
<g id="edge5" class="edge"><title>Node1&#45;&gt;Node6</title>
<path fill="none" stroke="midnightblue" d="M135.664,-75.5326C145.733,-76.6704 156.204,-77.8536 166.511,-79.0182"/>
<polygon fill="midnightblue" stroke="midnightblue" points="166.412,-82.5292 176.742,-80.1742 167.198,-75.5735 166.412,-82.5292"/>
</g>
<!-- Node7 -->
<g id="node7" class="node"><title>Node7</title>
<g id="a_node7"><a xlink:href="class_o_auth_server.html#a7f197015a02e6f0d2029562ce1295f68" target="_top" xlink:title="try to find the token for the provided request&#39;s token key ">
<polygon fill="white" stroke="black" points="186.747,-39 186.747,-59 307.253,-59 307.253,-39 186.747,-39"/>
<text text-anchor="middle" x="247" y="-45" font-family="Helvetica,sans-Serif" font-size="10.00">OAuthServer\get_token</text>
</a>
</g>
</g>
<!-- Node1&#45;&gt;Node7 -->
<g id="edge6" class="edge"><title>Node1&#45;&gt;Node7</title>
<path fill="none" stroke="midnightblue" d="M135.664,-60.844C149.017,-59.4106 163.078,-57.9012 176.524,-56.4578"/>
<polygon fill="midnightblue" stroke="midnightblue" points="177.096,-59.9167 186.665,-55.3693 176.348,-52.9567 177.096,-59.9167"/>
</g>
<!-- Node8 -->
<g id="node8" class="node"><title>Node8</title>
<g id="a_node8"><a xlink:href="class_o_auth_server.html#af40ad9ca9242a0c3cd2b66c49b547945" target="_top" xlink:title="version 1 ">
<polygon fill="white" stroke="black" points="182.86,-0 182.86,-20 311.14,-20 311.14,-0 182.86,-0"/>
<text text-anchor="middle" x="247" y="-6" font-family="Helvetica,sans-Serif" font-size="10.00">OAuthServer\get_version</text>
</a>
</g>
</g>
<!-- Node1&#45;&gt;Node8 -->
<g id="edge7" class="edge"><title>Node1&#45;&gt;Node8</title>
<path fill="none" stroke="midnightblue" d="M108.259,-51.9652C127.325,-44.4796 150.672,-35.753 172,-29 178.955,-26.7979 186.337,-24.665 193.642,-22.6732"/>
<polygon fill="midnightblue" stroke="midnightblue" points="194.742,-26.0024 203.507,-20.0514 192.944,-19.2372 194.742,-26.0024"/>
</g>
<!-- Node3 -->
<g id="node3" class="node"><title>Node3</title>
<g id="a_node3"><a xlink:href="class_o_auth_server.html#a4485cb3ffa98de6c0dc513519017dcfb" target="_top" xlink:title="check that the nonce is not repeated ">
<polygon fill="white" stroke="black" points="367.244,-156 367.244,-176 502.756,-176 502.756,-156 367.244,-156"/>
<text text-anchor="middle" x="435" y="-162" font-family="Helvetica,sans-Serif" font-size="10.00">OAuthServer\check_nonce</text>
</a>
</g>
</g>
<!-- Node2&#45;&gt;Node3 -->
<g id="edge2" class="edge"><title>Node2&#45;&gt;Node3</title>
<path fill="none" stroke="midnightblue" d="M295.9,-137.043C320.416,-142.184 350.449,-148.481 376.239,-153.889"/>
<polygon fill="midnightblue" stroke="midnightblue" points="375.757,-157.364 386.263,-155.991 377.194,-150.513 375.757,-157.364"/>
</g>
<!-- Node4 -->
<g id="node4" class="node"><title>Node4</title>
<g id="a_node4"><a xlink:href="class_o_auth_server.html#a46aafda0ef87fbb52e32958c33714a6d" target="_top" xlink:title="check that the timestamp is new enough ">
<polygon fill="white" stroke="black" points="357.806,-117 357.806,-137 512.194,-137 512.194,-117 357.806,-117"/>
<text text-anchor="middle" x="435" y="-123" font-family="Helvetica,sans-Serif" font-size="10.00">OAuthServer\check_timestamp</text>
</a>
</g>
</g>
<!-- Node2&#45;&gt;Node4 -->
<g id="edge3" class="edge"><title>Node2&#45;&gt;Node4</title>
<path fill="none" stroke="midnightblue" d="M321.779,-127C330.236,-127 338.914,-127 347.517,-127"/>
<polygon fill="midnightblue" stroke="midnightblue" points="347.565,-130.5 357.565,-127 347.565,-123.5 347.565,-130.5"/>
</g>
<!-- Node5 -->
<g id="node5" class="node"><title>Node5</title>
<g id="a_node5"><a xlink:href="class_o_auth_server.html#ab3b0e3026dea9faacb8d56cbb2274103" target="_top" xlink:title="figure out the signature with some defaults ">
<polygon fill="white" stroke="black" points="366.409,-66 366.409,-98 503.591,-98 503.591,-66 366.409,-66"/>
<text text-anchor="start" x="374.409" y="-84" font-family="Helvetica,sans-Serif" font-size="10.00">OAuthServer\get_signature</text>
<text text-anchor="middle" x="435" y="-72" font-family="Helvetica,sans-Serif" font-size="10.00">_method</text>
</a>
</g>
</g>
<!-- Node2&#45;&gt;Node5 -->
<g id="edge4" class="edge"><title>Node2&#45;&gt;Node5</title>
<path fill="none" stroke="midnightblue" d="M289.742,-116.901C309.798,-112.049 334.479,-106.078 357.72,-100.455"/>
<polygon fill="midnightblue" stroke="midnightblue" points="358.677,-103.824 367.574,-98.0708 357.031,-97.0206 358.677,-103.824"/>
</g>
</g>
</svg>
        <g id="navigator" transform="translate(0 0)" fill="#404254">
                <rect fill="#f2f5e9" fill-opacity="0.5" stroke="#606060" stroke-width=".5" x="0" y="0" width="60" height="60"/>
                <use id="zoomplus" xlink:href="#zoomPlus" x="17" y="9" onmousedown="handleZoom(evt,'in')"/>
                <use id="zoomminus" xlink:href="#zoomMin" x="42" y="9" onmousedown="handleZoom(evt,'out')"/>
                <use id="reset" xlink:href="#resetDef" x="30" y="36" onmousedown="handleReset()"/>
                <g id="arrowUp" xlink:href="#dirArrow" transform="translate(30 24)" onmousedown="handlePan(0,-1)">
                  <use xlink:href="#rim" fill="#404040">
                        <set attributeName="fill" to="#808080" begin="arrowUp.mouseover" end="arrowUp.mouseout"/>
                  </use>
                  <path fill="none" stroke="white" stroke-width="1.5" d="M0,-3.0v7 M-2.5,-0.5L0,-3.0L2.5,-0.5"/>
                </g>
                <g id="arrowRight" xlink:href="#dirArrow" transform="rotate(90) translate(36 -43)" onmousedown="handlePan(1,0)">
                  <use xlink:href="#rim" fill="#404040">
                        <set attributeName="fill" to="#808080" begin="arrowRight.mouseover" end="arrowRight.mouseout"/>
                  </use>
                  <path fill="none" stroke="white" stroke-width="1.5" d="M0,-3.0v7 M-2.5,-0.5L0,-3.0L2.5,-0.5"/>
                </g>
                <g id="arrowDown" xlink:href="#dirArrow" transform="rotate(180) translate(-30 -48)" onmousedown="handlePan(0,1)">
                  <use xlink:href="#rim" fill="#404040">
                        <set attributeName="fill" to="#808080" begin="arrowDown.mouseover" end="arrowDown.mouseout"/>
                  </use>
                  <path fill="none" stroke="white" stroke-width="1.5" d="M0,-3.0v7 M-2.5,-0.5L0,-3.0L2.5,-0.5"/>
                </g>
                <g id="arrowLeft" xlink:href="#dirArrow" transform="rotate(270) translate(-36 17)" onmousedown="handlePan(-1,0)">
                  <use xlink:href="#rim" fill="#404040">
                        <set attributeName="fill" to="#808080" begin="arrowLeft.mouseover" end="arrowLeft.mouseout"/>
                  </use>
                  <path fill="none" stroke="white" stroke-width="1.5" d="M0,-3.0v7 M-2.5,-0.5L0,-3.0L2.5,-0.5"/>
                </g>
        </g>
        <svg viewBox="0 0 15 15" width="100%" height="30px" preserveAspectRatio="xMaxYMin meet">
         <g id="arrow_out" transform="scale(0.3 0.3)">
          <a xlink:href="class_o_auth_server_a5c76359726e685013d2e0cb8a1abe09a_cgraph_org.svg" target="_base">
           <rect id="button" ry="5" rx="5" y="6" x="6" height="38" width="38"
                fill="#f2f5e9" fill-opacity="0.5" stroke="#606060" stroke-width="1.0"/>
           <path id="arrow"
             d="M 11.500037,31.436501 C 11.940474,20.09759 22.043105,11.32322 32.158766,21.979434 L 37.068811,17.246167 C 37.068811,17.246167 37.088388,32 37.088388,32 L 22.160133,31.978069 C 22.160133,31.978069 26.997745,27.140456 26.997745,27.140456 C 18.528582,18.264221 13.291696,25.230495 11.500037,31.436501 z"
             style="fill:#404040;"/>
          </a>
         </g>
        </svg>
</svg>
