<?xml version="1.0" encoding="UTF-8" standalone="no"?>
<!DOCTYPE svg PUBLIC "-//W3C//DTD SVG 1.1//EN"
 "http://www.w3.org/Graphics/SVG/1.1/DTD/svg11.dtd">
<!-- Generated by graphviz version 2.30.1 (20130221.2233)
 -->
<!-- Title: Ctct\Services\ActivityService\createAddContactsActivityFromFile Pages: 1 -->
<svg width="528pt" height="130pt"
 viewBox="0.00 0.00 528.00 130.00" xmlns="http://www.w3.org/2000/svg" xmlns:xlink="http://www.w3.org/1999/xlink">
<g id="graph0" class="graph" transform="scale(1 1) rotate(0) translate(4 126)">
<title>Ctct\Services\ActivityService\createAddContactsActivityFromFile</title>
<polygon fill="white" stroke="white" points="-4,5 -4,-126 525,-126 525,5 -4,5"/>
<!-- Node1 -->
<g id="node1" class="node"><title>Node1</title>
<polygon fill="#bfbfbf" stroke="black" points="0.529785,-39 0.529785,-71 175.47,-71 175.47,-39 0.529785,-39"/>
<text text-anchor="start" x="8.52979" y="-57" font-family="Helvetica,sans-Serif" font-size="10.00">Ctct\Services\ActivityService</text>
<text text-anchor="middle" x="88" y="-45" font-family="Helvetica,sans-Serif" font-size="10.00">\createAddContactsActivityFromFile</text>
</g>
<!-- Node2 -->
<g id="node2" class="node"><title>Node2</title>
<g id="a_node2"><a xlink:href="class_ctct_1_1_services_1_1_base_service.html#a682b3692a73a009ec026442110cf968e" target="_top" xlink:title="Build a URL from a base url and optional array of query parameters to append to the url...">
<polygon fill="white" stroke="black" points="213.091,-90 213.091,-122 346.909,-122 346.909,-90 213.091,-90"/>
<text text-anchor="start" x="221.091" y="-108" font-family="Helvetica,sans-Serif" font-size="10.00">Ctct\Services\BaseService</text>
<text text-anchor="middle" x="280" y="-96" font-family="Helvetica,sans-Serif" font-size="10.00">\buildUrl</text>
</a>
</g>
</g>
<!-- Node1&#45;&gt;Node2 -->
<g id="edge1" class="edge"><title>Node1&#45;&gt;Node2</title>
<path fill="none" stroke="midnightblue" d="M148.856,-71.0667C168.025,-76.2121 189.417,-81.954 209.23,-87.2721"/>
<polygon fill="midnightblue" stroke="midnightblue" points="208.553,-90.7143 219.118,-89.9264 210.367,-83.9536 208.553,-90.7143"/>
</g>
<!-- Node3 -->
<g id="node3" class="node"><title>Node3</title>
<g id="a_node3"><a xlink:href="class_ctct_1_1_components_1_1_activities_1_1_activity.html#ad67770e21bcf6b61eef2f6c519763d03" target="_top" xlink:title="Factory method to create an Activity object from an array. ">
<polygon fill="white" stroke="black" points="212.256,-39 212.256,-71 347.744,-71 347.744,-39 212.256,-39"/>
<text text-anchor="start" x="220.256" y="-57" font-family="Helvetica,sans-Serif" font-size="10.00">Ctct\Components\Activities</text>
<text text-anchor="middle" x="280" y="-45" font-family="Helvetica,sans-Serif" font-size="10.00">\Activity\create</text>
</a>
</g>
</g>
<!-- Node1&#45;&gt;Node3 -->
<g id="edge2" class="edge"><title>Node1&#45;&gt;Node3</title>
<path fill="none" stroke="midnightblue" d="M175.66,-55C184.453,-55 193.342,-55 202.023,-55"/>
<polygon fill="midnightblue" stroke="midnightblue" points="202.1,-58.5001 212.1,-55 202.1,-51.5001 202.1,-58.5001"/>
</g>
<!-- Node5 -->
<g id="node5" class="node"><title>Node5</title>
<g id="a_node5"><a xlink:href="class_ctct_1_1_util_1_1_config.html#ab224fae1ce1a1993c1ac42c708dc7de9" target="_top" xlink:title="Get a configuration property given a specified location, example usage: Config::get(&#39;auth.token_endpoint&#39;) ">
<polygon fill="white" stroke="black" points="230.318,-0 230.318,-20 329.682,-20 329.682,-0 230.318,-0"/>
<text text-anchor="middle" x="280" y="-6" font-family="Helvetica,sans-Serif" font-size="10.00">Ctct\Util\Config\get</text>
</a>
</g>
</g>
<!-- Node1&#45;&gt;Node5 -->
<g id="edge4" class="edge"><title>Node1&#45;&gt;Node5</title>
<path fill="none" stroke="midnightblue" d="M156.79,-38.9445C179.79,-33.497 205.115,-27.4991 226.717,-22.3827"/>
<polygon fill="midnightblue" stroke="midnightblue" points="227.753,-25.7344 236.677,-20.0239 226.14,-18.9228 227.753,-25.7344"/>
</g>
<!-- Node4 -->
<g id="node4" class="node"><title>Node4</title>
<g id="a_node4"><a xlink:href="class_ctct_1_1_components_1_1_activities_1_1_activity_error.html#aa9bc6b634f25fd213c068cbf97e966ec" target="_top" xlink:title="Factory method to create an object from an array. ">
<polygon fill="white" stroke="black" points="384.256,-39 384.256,-71 519.744,-71 519.744,-39 384.256,-39"/>
<text text-anchor="start" x="392.256" y="-57" font-family="Helvetica,sans-Serif" font-size="10.00">Ctct\Components\Activities</text>
<text text-anchor="middle" x="452" y="-45" font-family="Helvetica,sans-Serif" font-size="10.00">\ActivityError\create</text>
</a>
</g>
</g>
<!-- Node3&#45;&gt;Node4 -->
<g id="edge3" class="edge"><title>Node3&#45;&gt;Node4</title>
<path fill="none" stroke="midnightblue" d="M348.189,-55C356.66,-55 365.379,-55 373.988,-55"/>
<polygon fill="midnightblue" stroke="midnightblue" points="374.021,-58.5001 384.021,-55 374.021,-51.5001 374.021,-58.5001"/>
</g>
</g>
</svg>
