<?xml version="1.0" encoding="UTF-8" standalone="no"?>
<!DOCTYPE svg PUBLIC "-//W3C//DTD SVG 1.1//EN"
 "http://www.w3.org/Graphics/SVG/1.1/DTD/svg11.dtd">
<!-- Generated by graphviz version 2.30.1 (20130221.2233)
 -->
<!-- Title: ContactsCollection\searchContactsByLastUpdate Pages: 1 -->
<svg width="828pt" height="159pt"
 viewBox="0.00 0.00 828.00 159.00" xmlns="http://www.w3.org/2000/svg" xmlns:xlink="http://www.w3.org/1999/xlink">
<g id="graph0" class="graph" transform="scale(1 1) rotate(0) translate(4 155)">
<title>ContactsCollection\searchContactsByLastUpdate</title>
<polygon fill="white" stroke="white" points="-4,5 -4,-155 825,-155 825,5 -4,5"/>
<!-- Node1 -->
<g id="node1" class="node"><title>Node1</title>
<polygon fill="#bfbfbf" stroke="black" points="0.463379,-119 0.463379,-151 151.537,-151 151.537,-119 0.463379,-119"/>
<text text-anchor="start" x="8.46338" y="-137" font-family="Helvetica,sans-Serif" font-size="10.00">ContactsCollection</text>
<text text-anchor="middle" x="76" y="-125" font-family="Helvetica,sans-Serif" font-size="10.00">\searchContactsByLastUpdate</text>
</g>
<!-- Node2 -->
<g id="node2" class="node"><title>Node2</title>
<g id="a_node2"><a xlink:href="class_c_t_c_t_exception.html#adc8307ec7d7a2c730b0dac678d0e7fcb" target="_top" xlink:title="CTCTException\\generateError">
<polygon fill="white" stroke="black" points="505.473,-125 505.473,-145 656.527,-145 656.527,-125 505.473,-125"/>
<text text-anchor="middle" x="581" y="-131" font-family="Helvetica,sans-Serif" font-size="10.00">CTCTException\generateError</text>
</a>
</g>
</g>
<!-- Node1&#45;&gt;Node2 -->
<g id="edge1" class="edge"><title>Node1&#45;&gt;Node2</title>
<path fill="none" stroke="midnightblue" d="M151.596,-136.506C230.277,-137.875 357.868,-139.475 468,-138 476.761,-137.883 485.907,-137.714 495.031,-137.515"/>
<polygon fill="midnightblue" stroke="midnightblue" points="495.384,-141.008 505.301,-137.279 495.224,-134.01 495.384,-141.008"/>
</g>
<!-- Node4 -->
<g id="node4" class="node"><title>Node4</title>
<g id="a_node4"><a xlink:href="class_contacts_collection.html#a9dcfa1067f115ee7ba5f231b5433e912" target="_top" xlink:title="ContactsCollection\l\\getContacts">
<polygon fill="white" stroke="black" points="188.313,-80 188.313,-112 287.687,-112 287.687,-80 188.313,-80"/>
<text text-anchor="start" x="196.313" y="-98" font-family="Helvetica,sans-Serif" font-size="10.00">ContactsCollection</text>
<text text-anchor="middle" x="238" y="-86" font-family="Helvetica,sans-Serif" font-size="10.00">\getContacts</text>
</a>
</g>
</g>
<!-- Node1&#45;&gt;Node4 -->
<g id="edge3" class="edge"><title>Node1&#45;&gt;Node4</title>
<path fill="none" stroke="midnightblue" d="M143.002,-118.912C154.72,-116.056 166.851,-113.099 178.348,-110.296"/>
<polygon fill="midnightblue" stroke="midnightblue" points="179.375,-113.649 188.261,-107.88 177.717,-106.848 179.375,-113.649"/>
</g>
<!-- Node3 -->
<g id="node3" class="node"><title>Node3</title>
<g id="a_node3"><a xlink:href="class_c_t_c_t_exception.html#a6a86531406328bbd2a6c6252b7fb3a70" target="_top" xlink:title="CTCTException\\logError">
<polygon fill="white" stroke="black" points="694.54,-125 694.54,-145 819.46,-145 819.46,-125 694.54,-125"/>
<text text-anchor="middle" x="757" y="-131" font-family="Helvetica,sans-Serif" font-size="10.00">CTCTException\logError</text>
</a>
</g>
</g>
<!-- Node2&#45;&gt;Node3 -->
<g id="edge2" class="edge"><title>Node2&#45;&gt;Node3</title>
<path fill="none" stroke="midnightblue" d="M656.549,-135C665.73,-135 675.101,-135 684.239,-135"/>
<polygon fill="midnightblue" stroke="midnightblue" points="684.437,-138.5 694.437,-135 684.436,-131.5 684.437,-138.5"/>
</g>
<!-- Node5 -->
<g id="node5" class="node"><title>Node5</title>
<g id="a_node5"><a xlink:href="class_contact.html#ad97a7c95a9a4d0048bc0f90975113349" target="_top" xlink:title="Create associate array of object from XML. ">
<polygon fill="white" stroke="black" points="342.424,-109 342.424,-129 449.576,-129 449.576,-109 342.424,-109"/>
<text text-anchor="middle" x="396" y="-115" font-family="Helvetica,sans-Serif" font-size="10.00">Contact\createStruct</text>
</a>
</g>
</g>
<!-- Node4&#45;&gt;Node5 -->
<g id="edge4" class="edge"><title>Node4&#45;&gt;Node5</title>
<path fill="none" stroke="midnightblue" d="M287.931,-103.214C301.943,-105.28 317.416,-107.561 332.14,-109.732"/>
<polygon fill="midnightblue" stroke="midnightblue" points="331.783,-113.217 342.186,-111.213 332.804,-106.292 331.783,-113.217"/>
</g>
<!-- Node6 -->
<g id="node6" class="node"><title>Node6</title>
<g id="a_node6"><a xlink:href="class_utility.html#a50ac241bcff31b7348d0f623f2ab3d4c" target="_top" xlink:title="Find the next link from collection XML. ">
<polygon fill="white" stroke="black" points="346.875,-70 346.875,-90 445.125,-90 445.125,-70 346.875,-70"/>
<text text-anchor="middle" x="396" y="-76" font-family="Helvetica,sans-Serif" font-size="10.00">Utility\findNextLink</text>
</a>
</g>
</g>
<!-- Node4&#45;&gt;Node6 -->
<g id="edge5" class="edge"><title>Node4&#45;&gt;Node6</title>
<path fill="none" stroke="midnightblue" d="M287.931,-90.9814C303.324,-89.4027 320.479,-87.6431 336.469,-86.0032"/>
<polygon fill="midnightblue" stroke="midnightblue" points="337.187,-89.448 346.777,-84.9459 336.472,-82.4846 337.187,-89.448"/>
</g>
<!-- Node7 -->
<g id="node7" class="node"><title>Node7</title>
<g id="a_node7"><a xlink:href="class_c_t_c_t_request.html#aad92e5787f6d3fdf00760d99505aa6db" target="_top" xlink:title="CTCTRequest\\makeRequest">
<polygon fill="white" stroke="black" points="323.808,-31 323.808,-51 468.192,-51 468.192,-31 323.808,-31"/>
<text text-anchor="middle" x="396" y="-37" font-family="Helvetica,sans-Serif" font-size="10.00">CTCTRequest\makeRequest</text>
</a>
</g>
</g>
<!-- Node4&#45;&gt;Node7 -->
<g id="edge6" class="edge"><title>Node4&#45;&gt;Node7</title>
<path fill="none" stroke="midnightblue" d="M274.138,-79.8192C289.291,-73.1824 307.329,-65.7299 324,-60 330.324,-57.8264 337.034,-55.7466 343.707,-53.8131"/>
<polygon fill="midnightblue" stroke="midnightblue" points="344.726,-57.1625 353.409,-51.0912 342.835,-50.4227 344.726,-57.1625"/>
</g>
<!-- Node8 -->
<g id="node8" class="node"><title>Node8</title>
<g id="a_node8"><a xlink:href="class_o_auth_request.html#afe9d0f6cb8e0dadb1c0faeea9ecafe45" target="_top" xlink:title="pretty much a helper function to set up the request ">
<polygon fill="white" stroke="black" points="504.079,-25 504.079,-57 657.921,-57 657.921,-25 504.079,-25"/>
<text text-anchor="start" x="512.079" y="-43" font-family="Helvetica,sans-Serif" font-size="10.00">OAuthRequest\from_consumer</text>
<text text-anchor="middle" x="581" y="-31" font-family="Helvetica,sans-Serif" font-size="10.00">_and_token</text>
</a>
</g>
</g>
<!-- Node7&#45;&gt;Node8 -->
<g id="edge7" class="edge"><title>Node7&#45;&gt;Node8</title>
<path fill="none" stroke="midnightblue" d="M468.277,-41C476.716,-41 485.397,-41 494.013,-41"/>
<polygon fill="midnightblue" stroke="midnightblue" points="494.079,-44.5001 504.079,-41 494.078,-37.5001 494.079,-44.5001"/>
</g>
<!-- Node7&#45;&gt;Node2 -->
<g id="edge10" class="edge"><title>Node7&#45;&gt;Node2</title>
<path fill="none" stroke="midnightblue" d="M443.224,-51.003C451.64,-53.4848 460.214,-56.469 468,-60 502.466,-75.6306 538.082,-101.443 559.64,-118.335"/>
<polygon fill="midnightblue" stroke="midnightblue" points="557.707,-121.27 567.711,-124.76 562.067,-115.793 557.707,-121.27"/>
</g>
<!-- Node9 -->
<g id="node9" class="node"><title>Node9</title>
<g id="a_node9"><a xlink:href="class_o_auth_request.html#ae544b1c10b82d5a82dcc259064763420" target="_top" xlink:title="util function: current nonce ">
<polygon fill="white" stroke="black" points="695.074,-51 695.074,-83 818.926,-83 818.926,-51 695.074,-51"/>
<text text-anchor="start" x="703.074" y="-69" font-family="Helvetica,sans-Serif" font-size="10.00">OAuthRequest\generate</text>
<text text-anchor="middle" x="757" y="-57" font-family="Helvetica,sans-Serif" font-size="10.00">_nonce</text>
</a>
</g>
</g>
<!-- Node8&#45;&gt;Node9 -->
<g id="edge8" class="edge"><title>Node8&#45;&gt;Node9</title>
<path fill="none" stroke="midnightblue" d="M658.066,-52.3662C667.035,-53.7064 676.163,-55.0703 685.058,-56.3994"/>
<polygon fill="midnightblue" stroke="midnightblue" points="684.574,-59.8659 694.981,-57.8823 685.608,-52.9428 684.574,-59.8659"/>
</g>
<!-- Node10 -->
<g id="node10" class="node"><title>Node10</title>
<g id="a_node10"><a xlink:href="class_o_auth_request.html#adfc6b936799f705d9a4442961a26e8cb" target="_top" xlink:title="util function: current timestamp ">
<polygon fill="white" stroke="black" points="695.074,-0 695.074,-32 818.926,-32 818.926,-0 695.074,-0"/>
<text text-anchor="start" x="703.074" y="-18" font-family="Helvetica,sans-Serif" font-size="10.00">OAuthRequest\generate</text>
<text text-anchor="middle" x="757" y="-6" font-family="Helvetica,sans-Serif" font-size="10.00">_timestamp</text>
</a>
</g>
</g>
<!-- Node8&#45;&gt;Node10 -->
<g id="edge9" class="edge"><title>Node8&#45;&gt;Node10</title>
<path fill="none" stroke="midnightblue" d="M658.066,-30.071C667.035,-28.7823 676.163,-27.4709 685.058,-26.1928"/>
<polygon fill="midnightblue" stroke="midnightblue" points="685.581,-29.6537 694.981,-24.767 684.585,-22.7249 685.581,-29.6537"/>
</g>
</g>
</svg>
