<?xml version="1.0" encoding="UTF-8" standalone="no"?>
<!DOCTYPE svg PUBLIC "-//W3C//DTD SVG 1.1//EN"
 "http://www.w3.org/Graphics/SVG/1.1/DTD/svg11.dtd">
<!-- Generated by graphviz version 2.30.1 (20130221.2233)
 -->
<!-- Title: Ctct\Components\EmailMarketing\Campaign\toJson Pages: 1 -->
<svg width="358pt" height="91pt"
 viewBox="0.00 0.00 358.00 91.00" xmlns="http://www.w3.org/2000/svg" xmlns:xlink="http://www.w3.org/1999/xlink">
<g id="graph0" class="graph" transform="scale(1 1) rotate(0) translate(4 87)">
<title>Ctct\Components\EmailMarketing\Campaign\toJson</title>
<polygon fill="white" stroke="white" points="-4,5 -4,-87 355,-87 355,5 -4,5"/>
<!-- Node1 -->
<g id="node1" class="node"><title>Node1</title>
<polygon fill="#bfbfbf" stroke="black" points="0.527344,-25 0.527344,-57 165.473,-57 165.473,-25 0.527344,-25"/>
<text text-anchor="start" x="8.52734" y="-43" font-family="Helvetica,sans-Serif" font-size="10.00">Ctct\Components\EmailMarketing</text>
<text text-anchor="middle" x="83" y="-31" font-family="Helvetica,sans-Serif" font-size="10.00">\Campaign\toJson</text>
</g>
<!-- Node2 -->
<g id="node2" class="node"><title>Node2</title>
<g id="a_node2"><a xlink:href="class_ctct_1_1_services_1_1_email_marketing_service.html#ad7b4f264aecfd32a1a23db8446e55c4e" target="_top" xlink:title="Create a new campaign. ">
<polygon fill="white" stroke="black" points="202.705,-51 202.705,-83 349.295,-83 349.295,-51 202.705,-51"/>
<text text-anchor="start" x="210.705" y="-69" font-family="Helvetica,sans-Serif" font-size="10.00">Ctct\Services\EmailMarketing</text>
<text text-anchor="middle" x="276" y="-57" font-family="Helvetica,sans-Serif" font-size="10.00">Service\addCampaign</text>
</a>
</g>
</g>
<!-- Node1&#45;&gt;Node2 -->
<g id="edge1" class="edge"><title>Node1&#45;&gt;Node2</title>
<path fill="none" stroke="midnightblue" d="M175.673,-53.479C184.666,-54.7032 193.704,-55.9336 202.469,-57.1266"/>
<polygon fill="midnightblue" stroke="midnightblue" points="175.936,-49.9826 165.555,-52.1018 174.992,-56.9187 175.936,-49.9826"/>
</g>
<!-- Node3 -->
<g id="node3" class="node"><title>Node3</title>
<g id="a_node3"><a xlink:href="class_ctct_1_1_services_1_1_email_marketing_service.html#a577a7a457d8c00ba8f0f01d113f37973" target="_top" xlink:title="Update a specific email campaign. ">
<polygon fill="white" stroke="black" points="202.705,-0 202.705,-32 349.295,-32 349.295,-0 202.705,-0"/>
<text text-anchor="start" x="210.705" y="-18" font-family="Helvetica,sans-Serif" font-size="10.00">Ctct\Services\EmailMarketing</text>
<text text-anchor="middle" x="276" y="-6" font-family="Helvetica,sans-Serif" font-size="10.00">Service\updateCampaign</text>
</a>
</g>
</g>
<!-- Node1&#45;&gt;Node3 -->
<g id="edge2" class="edge"><title>Node1&#45;&gt;Node3</title>
<path fill="none" stroke="midnightblue" d="M175.673,-29.001C184.666,-27.8238 193.704,-26.6408 202.469,-25.4936"/>
<polygon fill="midnightblue" stroke="midnightblue" points="175.016,-25.5569 165.555,-30.3252 175.925,-32.4977 175.016,-25.5569"/>
</g>
</g>
</svg>
