<?xml version="1.0" encoding="UTF-8" standalone="no"?>
<!DOCTYPE svg PUBLIC "-//W3C//DTD SVG 1.1//EN"
 "http://www.w3.org/Graphics/SVG/1.1/DTD/svg11.dtd">
<!-- Generated by graphviz version 2.30.1 (20130221.2233)
 -->
<!-- Title: CTCT_Admin_User_Profile\display Pages: 1 -->
<svg width="486pt" height="67pt"
 viewBox="0.00 0.00 486.00 67.00" xmlns="http://www.w3.org/2000/svg" xmlns:xlink="http://www.w3.org/1999/xlink">
<g id="graph0" class="graph" transform="scale(1 1) rotate(0) translate(4 63)">
<title>CTCT_Admin_User_Profile\display</title>
<polygon fill="white" stroke="white" points="-4,5 -4,-63 483,-63 483,5 -4,5"/>
<!-- Node1 -->
<g id="node1" class="node"><title>Node1</title>
<polygon fill="#bfbfbf" stroke="black" points="0.42627,-13 0.42627,-45 137.574,-45 137.574,-13 0.42627,-13"/>
<text text-anchor="start" x="8.42627" y="-31" font-family="Helvetica,sans-Serif" font-size="10.00">CTCT_Admin_User_Profile</text>
<text text-anchor="middle" x="69" y="-19" font-family="Helvetica,sans-Serif" font-size="10.00">\display</text>
</g>
<!-- Node2 -->
<g id="node2" class="node"><title>Node2</title>
<g id="a_node2"><a xlink:href="class_c_t_c_t___settings.html#ae3c076753f9e642d69924227641b75e7" target="_top" xlink:title="Alias for get_setting() &#160;CTCT_Settings::get_setting() ">
<polygon fill="white" stroke="black" points="197.483,-39 197.483,-59 298.517,-59 298.517,-39 197.483,-39"/>
<text text-anchor="middle" x="248" y="-45" font-family="Helvetica,sans-Serif" font-size="10.00">CTCT_Settings\get</text>
</a>
</g>
</g>
<!-- Node1&#45;&gt;Node2 -->
<g id="edge1" class="edge"><title>Node1&#45;&gt;Node2</title>
<path fill="none" stroke="midnightblue" d="M137.674,-36.6468C153.925,-38.4831 171.17,-40.4317 187.043,-42.2252"/>
<polygon fill="midnightblue" stroke="midnightblue" points="186.922,-45.7337 197.252,-43.3787 187.708,-38.778 186.922,-45.7337"/>
</g>
<!-- Node3 -->
<g id="node3" class="node"><title>Node3</title>
<g id="a_node3"><a xlink:href="class_k_w_s_contact_list.html#a83039abeb7dce624539df46bebd0b3a2" target="_top" xlink:title="Convert an array of List objects into HTML output. ">
<polygon fill="white" stroke="black" points="174.697,-0 174.697,-20 321.303,-20 321.303,-0 174.697,-0"/>
<text text-anchor="middle" x="248" y="-6" font-family="Helvetica,sans-Serif" font-size="10.00">KWSContactList\outputHTML</text>
</a>
</g>
</g>
<!-- Node1&#45;&gt;Node3 -->
<g id="edge2" class="edge"><title>Node1&#45;&gt;Node3</title>
<path fill="none" stroke="midnightblue" d="M137.674,-21.7356C146.466,-20.7918 155.55,-19.8167 164.549,-18.8507"/>
<polygon fill="midnightblue" stroke="midnightblue" points="165.085,-22.3133 174.654,-17.7659 164.338,-15.3533 165.085,-22.3133"/>
</g>
<!-- Node4 -->
<g id="node4" class="node"><title>Node4</title>
<g id="a_node4"><a xlink:href="class_w_p___c_t_c_t.html#a485eac1e69d12c9e2ecac70bf3295c3f" target="_top" xlink:title="WP_CTCT\\getInstance">
<polygon fill="white" stroke="black" points="358.594,-0 358.594,-20 477.406,-20 477.406,-0 358.594,-0"/>
<text text-anchor="middle" x="418" y="-6" font-family="Helvetica,sans-Serif" font-size="10.00">WP_CTCT\getInstance</text>
</a>
</g>
</g>
<!-- Node3&#45;&gt;Node4 -->
<g id="edge3" class="edge"><title>Node3&#45;&gt;Node4</title>
<path fill="none" stroke="midnightblue" d="M321.71,-10C330.57,-10 339.6,-10 348.397,-10"/>
<polygon fill="midnightblue" stroke="midnightblue" points="348.593,-13.5001 358.593,-10 348.593,-6.5001 348.593,-13.5001"/>
</g>
</g>
</svg>
