<?xml version="1.0" encoding="UTF-8" standalone="no"?>
<!DOCTYPE svg PUBLIC "-//W3C//DTD SVG 1.1//EN"
 "http://www.w3.org/Graphics/SVG/1.1/DTD/svg11.dtd">
<!-- Generated by graphviz version 2.30.1 (20130221.2233)
 -->
<!-- Title: ContactList\createStruct Pages: 1 -->
<svg width="312pt" height="106pt"
 viewBox="0.00 0.00 312.00 106.00" xmlns="http://www.w3.org/2000/svg" xmlns:xlink="http://www.w3.org/1999/xlink">
<g id="graph0" class="graph" transform="scale(1 1) rotate(0) translate(4 102)">
<title>ContactList\createStruct</title>
<polygon fill="white" stroke="white" points="-4,5 -4,-102 309,-102 309,5 -4,5"/>
<!-- Node1 -->
<g id="node1" class="node"><title>Node1</title>
<polygon fill="#bfbfbf" stroke="black" points="0.643066,-39 0.643066,-59 123.357,-59 123.357,-39 0.643066,-39"/>
<text text-anchor="middle" x="62" y="-45" font-family="Helvetica,sans-Serif" font-size="10.00">ContactList\createStruct</text>
</g>
<!-- Node2 -->
<g id="node2" class="node"><title>Node2</title>
<g id="a_node2"><a xlink:href="class_lists_collection.html#ae86ac9787cede610e609395c71d9180c" target="_top" xlink:title="Add a new list to Constant Contact account. ">
<polygon fill="white" stroke="black" points="174.251,-78 174.251,-98 289.749,-98 289.749,-78 174.251,-78"/>
<text text-anchor="middle" x="232" y="-84" font-family="Helvetica,sans-Serif" font-size="10.00">ListsCollection\addList</text>
</a>
</g>
</g>
<!-- Node1&#45;&gt;Node2 -->
<g id="edge1" class="edge"><title>Node1&#45;&gt;Node2</title>
<path fill="none" stroke="midnightblue" d="M116.256,-61.3629C139.356,-66.7254 166.055,-72.9234 187.882,-77.9906"/>
<polygon fill="midnightblue" stroke="midnightblue" points="116.797,-57.8955 106.264,-59.0435 115.214,-64.7142 116.797,-57.8955"/>
</g>
<!-- Node3 -->
<g id="node3" class="node"><title>Node3</title>
<g id="a_node3"><a xlink:href="class_lists_collection.html#a4f6e3afda3ab2734a175e1735a0e6e0a" target="_top" xlink:title="Get full details for a ContactList. ">
<polygon fill="white" stroke="black" points="160.36,-39 160.36,-59 303.64,-59 303.64,-39 160.36,-39"/>
<text text-anchor="middle" x="232" y="-45" font-family="Helvetica,sans-Serif" font-size="10.00">ListsCollection\getListDetails</text>
</a>
</g>
</g>
<!-- Node1&#45;&gt;Node3 -->
<g id="edge2" class="edge"><title>Node1&#45;&gt;Node3</title>
<path fill="none" stroke="midnightblue" d="M133.78,-49C142.504,-49 151.423,-49 160.149,-49"/>
<polygon fill="midnightblue" stroke="midnightblue" points="133.652,-45.5001 123.652,-49 133.652,-52.5001 133.652,-45.5001"/>
</g>
<!-- Node4 -->
<g id="node4" class="node"><title>Node4</title>
<g id="a_node4"><a xlink:href="class_lists_collection.html#a81d8be6f107777e34fc2384b2c4b3150" target="_top" xlink:title="Get an array of ContactList objects. ">
<polygon fill="white" stroke="black" points="173.143,-0 173.143,-20 290.857,-20 290.857,-0 173.143,-0"/>
<text text-anchor="middle" x="232" y="-6" font-family="Helvetica,sans-Serif" font-size="10.00">ListsCollection\getLists</text>
</a>
</g>
</g>
<!-- Node1&#45;&gt;Node4 -->
<g id="edge3" class="edge"><title>Node1&#45;&gt;Node4</title>
<path fill="none" stroke="midnightblue" d="M116.256,-36.6371C139.356,-31.2746 166.055,-25.0766 187.882,-20.0094"/>
<polygon fill="midnightblue" stroke="midnightblue" points="115.214,-33.2858 106.264,-38.9565 116.797,-40.1045 115.214,-33.2858"/>
</g>
</g>
</svg>
