<?xml version="1.0" encoding="UTF-8" standalone="no"?>
<!DOCTYPE svg PUBLIC "-//W3C//DTD SVG 1.1//EN"
 "http://www.w3.org/Graphics/SVG/1.1/DTD/svg11.dtd">
<!-- Generated by graphviz version 2.30.1 (20130221.2233)
 -->
<!-- Title: JsonLoader\getCampaignJson Pages: 1 -->
<svg width="332pt" height="142pt"
 viewBox="0.00 0.00 332.00 142.00" xmlns="http://www.w3.org/2000/svg" xmlns:xlink="http://www.w3.org/1999/xlink">
<g id="graph0" class="graph" transform="scale(1 1) rotate(0) translate(4 138)">
<title>JsonLoader\getCampaignJson</title>
<polygon fill="white" stroke="white" points="-4,5 -4,-138 329,-138 329,5 -4,5"/>
<!-- Node1 -->
<g id="node1" class="node"><title>Node1</title>
<polygon fill="#bfbfbf" stroke="black" points="0.177734,-57 0.177734,-77 151.822,-77 151.822,-57 0.177734,-57"/>
<text text-anchor="middle" x="76" y="-63" font-family="Helvetica,sans-Serif" font-size="10.00">JsonLoader\getCampaignJson</text>
</g>
<!-- Node2 -->
<g id="node2" class="node"><title>Node2</title>
<g id="a_node2"><a xlink:href="class_email_marketing_service_unit_test.html#a3632b06e037f84d50a20eb7bb7fb0951" target="_top" xlink:title="EmailMarketingServiceUnit\lTest\\testAddCampaign">
<polygon fill="white" stroke="black" points="187.98,-102 187.98,-134 324.02,-134 324.02,-102 187.98,-102"/>
<text text-anchor="start" x="195.98" y="-120" font-family="Helvetica,sans-Serif" font-size="10.00">EmailMarketingServiceUnit</text>
<text text-anchor="middle" x="256" y="-108" font-family="Helvetica,sans-Serif" font-size="10.00">Test\testAddCampaign</text>
</a>
</g>
</g>
<!-- Node1&#45;&gt;Node2 -->
<g id="edge1" class="edge"><title>Node1&#45;&gt;Node2</title>
<path fill="none" stroke="midnightblue" d="M121.826,-79.8435C145.207,-86.5424 174.036,-94.8026 198.886,-101.922"/>
<polygon fill="midnightblue" stroke="midnightblue" points="122.744,-76.4658 112.167,-77.076 120.816,-83.195 122.744,-76.4658"/>
</g>
<!-- Node3 -->
<g id="node3" class="node"><title>Node3</title>
<g id="a_node3"><a xlink:href="class_email_marketing_service_unit_test.html#a8723289f85db78aba91b3b5b7587cee2" target="_top" xlink:title="EmailMarketingServiceUnit\lTest\\testGetCampaign">
<polygon fill="white" stroke="black" points="187.98,-51 187.98,-83 324.02,-83 324.02,-51 187.98,-51"/>
<text text-anchor="start" x="195.98" y="-69" font-family="Helvetica,sans-Serif" font-size="10.00">EmailMarketingServiceUnit</text>
<text text-anchor="middle" x="256" y="-57" font-family="Helvetica,sans-Serif" font-size="10.00">Test\testGetCampaign</text>
</a>
</g>
</g>
<!-- Node1&#45;&gt;Node3 -->
<g id="edge2" class="edge"><title>Node1&#45;&gt;Node3</title>
<path fill="none" stroke="midnightblue" d="M162.055,-67C170.679,-67 179.354,-67 187.752,-67"/>
<polygon fill="midnightblue" stroke="midnightblue" points="161.972,-63.5001 151.972,-67 161.972,-70.5001 161.972,-63.5001"/>
</g>
<!-- Node4 -->
<g id="node4" class="node"><title>Node4</title>
<g id="a_node4"><a xlink:href="class_email_marketing_service_unit_test.html#a2bc9abd631fff45ffe8eb24272e49cc9" target="_top" xlink:title="EmailMarketingServiceUnit\lTest\\testUpdateCampaign">
<polygon fill="white" stroke="black" points="187.98,-0 187.98,-32 324.02,-32 324.02,-0 187.98,-0"/>
<text text-anchor="start" x="195.98" y="-18" font-family="Helvetica,sans-Serif" font-size="10.00">EmailMarketingServiceUnit</text>
<text text-anchor="middle" x="256" y="-6" font-family="Helvetica,sans-Serif" font-size="10.00">Test\testUpdateCampaign</text>
</a>
</g>
</g>
<!-- Node1&#45;&gt;Node4 -->
<g id="edge3" class="edge"><title>Node1&#45;&gt;Node4</title>
<path fill="none" stroke="midnightblue" d="M121.826,-54.1565C145.207,-47.4576 174.036,-39.1974 198.886,-32.0777"/>
<polygon fill="midnightblue" stroke="midnightblue" points="120.816,-50.805 112.167,-56.924 122.744,-57.5342 120.816,-50.805"/>
</g>
</g>
</svg>
