<?xml version="1.0" encoding="UTF-8" standalone="no"?>
<!DOCTYPE svg PUBLIC "-//W3C//DTD SVG 1.1//EN"
 "http://www.w3.org/Graphics/SVG/1.1/DTD/svg11.dtd">
<!-- Generated by graphviz version 2.30.1 (20130221.2233)
 -->
<!-- Title: Cache_WP_HTTP\http_response Pages: 1 -->
<svg width="328pt" height="106pt"
 viewBox="0.00 0.00 328.00 106.00" xmlns="http://www.w3.org/2000/svg" xmlns:xlink="http://www.w3.org/1999/xlink">
<g id="graph0" class="graph" transform="scale(1 1) rotate(0) translate(4 102)">
<title>Cache_WP_HTTP\http_response</title>
<polygon fill="white" stroke="white" points="-4,5 -4,-102 325,-102 325,5 -4,5"/>
<!-- Node1 -->
<g id="node1" class="node"><title>Node1</title>
<polygon fill="#bfbfbf" stroke="black" points="0.147949,-33 0.147949,-65 117.852,-65 117.852,-33 0.147949,-33"/>
<text text-anchor="start" x="8.14795" y="-51" font-family="Helvetica,sans-Serif" font-size="10.00">Cache_WP_HTTP\http</text>
<text text-anchor="middle" x="59" y="-39" font-family="Helvetica,sans-Serif" font-size="10.00">_response</text>
</g>
<!-- Node2 -->
<g id="node2" class="node"><title>Node2</title>
<g id="a_node2"><a xlink:href="class_cache___w_p___h_t_t_p.html#a90ae2e338d476c82174316d493ac220c" target="_top" xlink:title="Check the parameters to find if the cache duration has been set. ">
<polygon fill="white" stroke="black" points="154.156,-78 154.156,-98 319.844,-98 319.844,-78 154.156,-78"/>
<text text-anchor="middle" x="237" y="-84" font-family="Helvetica,sans-Serif" font-size="10.00">Cache_WP_HTTP\getCacheTime</text>
</a>
</g>
</g>
<!-- Node1&#45;&gt;Node2 -->
<g id="edge1" class="edge"><title>Node1&#45;&gt;Node2</title>
<path fill="none" stroke="midnightblue" d="M118.117,-61.8781C138.331,-66.3575 160.933,-71.3659 180.897,-75.7896"/>
<polygon fill="midnightblue" stroke="midnightblue" points="180.245,-79.2299 190.765,-77.9763 181.759,-72.3957 180.245,-79.2299"/>
</g>
<!-- Node3 -->
<g id="node3" class="node"><title>Node3</title>
<g id="a_node3"><a xlink:href="class_cache___w_p___h_t_t_p.html#ab19810eea1f27ad002f256a313cec1dc" target="_top" xlink:title="Generate a unique key for the cache. ">
<polygon fill="white" stroke="black" points="170.921,-39 170.921,-59 303.079,-59 303.079,-39 170.921,-39"/>
<text text-anchor="middle" x="237" y="-45" font-family="Helvetica,sans-Serif" font-size="10.00">Cache_WP_HTTP\getKey</text>
</a>
</g>
</g>
<!-- Node1&#45;&gt;Node3 -->
<g id="edge2" class="edge"><title>Node1&#45;&gt;Node3</title>
<path fill="none" stroke="midnightblue" d="M118.117,-49C131.653,-49 146.259,-49 160.427,-49"/>
<polygon fill="midnightblue" stroke="midnightblue" points="160.644,-52.5001 170.644,-49 160.644,-45.5001 160.644,-52.5001"/>
</g>
<!-- Node4 -->
<g id="node4" class="node"><title>Node4</title>
<g id="a_node4"><a xlink:href="class_cache___w_p___h_t_t_p.html#a6a0da5658c24517aa2b4884044c9b2b5" target="_top" xlink:title="Cache_WP_HTTP\\r">
<polygon fill="white" stroke="black" points="184.823,-0 184.823,-20 289.177,-20 289.177,-0 184.823,-0"/>
<text text-anchor="middle" x="237" y="-6" font-family="Helvetica,sans-Serif" font-size="10.00">Cache_WP_HTTP\r</text>
</a>
</g>
</g>
<!-- Node1&#45;&gt;Node4 -->
<g id="edge3" class="edge"><title>Node1&#45;&gt;Node4</title>
<path fill="none" stroke="midnightblue" d="M118.117,-36.1219C138.331,-31.6425 160.933,-26.6341 180.897,-22.2104"/>
<polygon fill="midnightblue" stroke="midnightblue" points="181.759,-25.6043 190.765,-20.0237 180.245,-18.7701 181.759,-25.6043"/>
</g>
</g>
</svg>
