<?xml version="1.0" encoding="UTF-8" standalone="no"?>
<!DOCTYPE svg PUBLIC "-//W3C//DTD SVG 1.1//EN"
 "http://www.w3.org/Graphics/SVG/1.1/DTD/svg11.dtd">
<!-- Generated by graphviz version 2.30.1 (20130221.2233)
 -->
<!-- Title: gd_gradient_fill\hex2rgb Pages: 1 -->
<svg width="398pt" height="40pt"
 viewBox="0.00 0.00 398.00 40.00" xmlns="http://www.w3.org/2000/svg" xmlns:xlink="http://www.w3.org/1999/xlink">
<g id="graph0" class="graph" transform="scale(1 1) rotate(0) translate(4 36)">
<title>gd_gradient_fill\hex2rgb</title>
<polygon fill="white" stroke="white" points="-4,5 -4,-36 395,-36 395,5 -4,5"/>
<!-- Node1 -->
<g id="node1" class="node"><title>Node1</title>
<polygon fill="#bfbfbf" stroke="black" points="0.628418,-6 0.628418,-26 123.372,-26 123.372,-6 0.628418,-6"/>
<text text-anchor="middle" x="62" y="-12" font-family="Helvetica,sans-Serif" font-size="10.00">gd_gradient_fill\hex2rgb</text>
</g>
<!-- Node2 -->
<g id="node2" class="node"><title>Node2</title>
<g id="a_node2"><a xlink:href="classgd__gradient__fill.html#a1a51c60c9ef8cde59f4a8ad25f0a145e" target="_top" xlink:title="gd_gradient_fill\\fill">
<polygon fill="white" stroke="black" points="159.976,-6 159.976,-26 256.024,-26 256.024,-6 159.976,-6"/>
<text text-anchor="middle" x="208" y="-12" font-family="Helvetica,sans-Serif" font-size="10.00">gd_gradient_fill\fill</text>
</a>
</g>
</g>
<!-- Node1&#45;&gt;Node2 -->
<g id="edge1" class="edge"><title>Node1&#45;&gt;Node2</title>
<path fill="none" stroke="midnightblue" d="M133.84,-16C142.555,-16 151.292,-16 159.54,-16"/>
<polygon fill="midnightblue" stroke="midnightblue" points="133.652,-12.5001 123.652,-16 133.652,-19.5001 133.652,-12.5001"/>
</g>
<!-- Node3 -->
<g id="node3" class="node"><title>Node3</title>
<g id="a_node3"><a xlink:href="classgd__gradient__fill.html#a12b304b9b2569457b93daeddcdb3c1a1" target="_top" xlink:title="gd_gradient_fill\\gd\l_gradient_fill">
<polygon fill="white" stroke="black" points="292.136,-0 292.136,-32 389.864,-32 389.864,-0 292.136,-0"/>
<text text-anchor="start" x="300.136" y="-18" font-family="Helvetica,sans-Serif" font-size="10.00">gd_gradient_fill\gd</text>
<text text-anchor="middle" x="341" y="-6" font-family="Helvetica,sans-Serif" font-size="10.00">_gradient_fill</text>
</a>
</g>
</g>
<!-- Node2&#45;&gt;Node3 -->
<g id="edge2" class="edge"><title>Node2&#45;&gt;Node3</title>
<path fill="none" stroke="midnightblue" d="M266.503,-16C274.979,-16 283.636,-16 291.895,-16"/>
<polygon fill="midnightblue" stroke="midnightblue" points="266.294,-12.5001 256.294,-16 266.294,-19.5001 266.294,-12.5001"/>
</g>
</g>
</svg>
