<?xml version="1.0" encoding="UTF-8" standalone="no"?>
<!DOCTYPE svg PUBLIC "-//W3C//DTD SVG 1.1//EN"
 "http://www.w3.org/Graphics/SVG/1.1/DTD/svg11.dtd">
<!-- Generated by graphviz version 2.30.1 (20130221.2233)
 -->
<!-- Title: CheckPayment\createStruct Pages: 1 -->
<svg width="456pt" height="79pt"
 viewBox="0.00 0.00 456.00 79.00" xmlns="http://www.w3.org/2000/svg" xmlns:xlink="http://www.w3.org/1999/xlink">
<g id="graph0" class="graph" transform="scale(1 1) rotate(0) translate(4 75)">
<title>CheckPayment\createStruct</title>
<polygon fill="white" stroke="white" points="-4,5 -4,-75 453,-75 453,5 -4,5"/>
<!-- Node1 -->
<g id="node1" class="node"><title>Node1</title>
<polygon fill="#bfbfbf" stroke="black" points="-0.248535,-28 -0.248535,-48 140.249,-48 140.249,-28 -0.248535,-28"/>
<text text-anchor="middle" x="70" y="-34" font-family="Helvetica,sans-Serif" font-size="10.00">CheckPayment\createStruct</text>
</g>
<!-- Node2 -->
<g id="node2" class="node"><title>Node2</title>
<g id="a_node2"><a xlink:href="class_event.html#a4d2d7fcea94bab1d73fcb32e356159a4" target="_top" xlink:title="Create an associative array of object properties from XML. ">
<polygon fill="white" stroke="black" points="175.87,-28 175.87,-48 274.13,-48 274.13,-28 175.87,-28"/>
<text text-anchor="middle" x="225" y="-34" font-family="Helvetica,sans-Serif" font-size="10.00">Event\createStruct</text>
</a>
</g>
</g>
<!-- Node1&#45;&gt;Node2 -->
<g id="edge1" class="edge"><title>Node1&#45;&gt;Node2</title>
<path fill="none" stroke="midnightblue" d="M150.374,-38C158.926,-38 167.43,-38 175.458,-38"/>
<polygon fill="midnightblue" stroke="midnightblue" points="150.337,-34.5001 140.337,-38 150.337,-41.5001 150.337,-34.5001"/>
</g>
<!-- Node3 -->
<g id="node3" class="node"><title>Node3</title>
<g id="a_node3"><a xlink:href="class_events_collection.html#ad0ab949e45693fd1d72baed5d5e5d552" target="_top" xlink:title="Get a page of Events. ">
<polygon fill="white" stroke="black" points="310.133,-51 310.133,-71 447.867,-71 447.867,-51 310.133,-51"/>
<text text-anchor="middle" x="379" y="-57" font-family="Helvetica,sans-Serif" font-size="10.00">EventsCollection\getEvents</text>
</a>
</g>
</g>
<!-- Node2&#45;&gt;Node3 -->
<g id="edge2" class="edge"><title>Node2&#45;&gt;Node3</title>
<path fill="none" stroke="midnightblue" d="M284.406,-46.8378C293.323,-48.1871 302.583,-49.5882 311.655,-50.961"/>
<polygon fill="midnightblue" stroke="midnightblue" points="284.923,-43.3762 274.512,-45.3406 283.875,-50.2974 284.923,-43.3762"/>
</g>
<!-- Node4 -->
<g id="node4" class="node"><title>Node4</title>
<g id="a_node4"><a xlink:href="class_events_collection.html#afb1f27cb72007acfd6f901d743c8acad" target="_top" xlink:title="Get full details for an Event object. ">
<polygon fill="white" stroke="black" points="312.633,-0 312.633,-32 445.367,-32 445.367,-0 312.633,-0"/>
<text text-anchor="start" x="320.633" y="-18" font-family="Helvetica,sans-Serif" font-size="10.00">EventsCollection\getEvent</text>
<text text-anchor="middle" x="379" y="-6" font-family="Helvetica,sans-Serif" font-size="10.00">Details</text>
</a>
</g>
</g>
<!-- Node2&#45;&gt;Node4 -->
<g id="edge3" class="edge"><title>Node2&#45;&gt;Node4</title>
<path fill="none" stroke="midnightblue" d="M284.628,-29.5143C293.748,-28.1944 303.22,-26.8234 312.481,-25.483"/>
<polygon fill="midnightblue" stroke="midnightblue" points="283.907,-26.0821 274.512,-30.9786 284.91,-33.01 283.907,-26.0821"/>
</g>
</g>
</svg>
