<?xml version="1.0" encoding="UTF-8" standalone="no"?>
<!DOCTYPE svg PUBLIC "-//W3C//DTD SVG 1.1//EN"
 "http://www.w3.org/Graphics/SVG/1.1/DTD/svg11.dtd">
<!-- Generated by graphviz version 2.30.1 (20130221.2233)
 -->
<!-- Title: OAuthSignatureMethod_RSA_SHA1\fetch_public_cert Pages: 1 -->
<svg width="346pt" height="40pt"
 viewBox="0.00 0.00 346.00 40.00" xmlns="http://www.w3.org/2000/svg" xmlns:xlink="http://www.w3.org/1999/xlink">
<g id="graph0" class="graph" transform="scale(1 1) rotate(0) translate(4 36)">
<title>OAuthSignatureMethod_RSA_SHA1\fetch_public_cert</title>
<polygon fill="white" stroke="white" points="-4,5 -4,-36 343,-36 343,5 -4,5"/>
<!-- Node1 -->
<g id="node1" class="node"><title>Node1</title>
<polygon fill="#bfbfbf" stroke="black" points="-0.0932617,-0 -0.0932617,-32 152.093,-32 152.093,-0 -0.0932617,-0"/>
<text text-anchor="start" x="7.90674" y="-18" font-family="Helvetica,sans-Serif" font-size="10.00">OAuthSignatureMethod</text>
<text text-anchor="middle" x="76" y="-6" font-family="Helvetica,sans-Serif" font-size="10.00">_RSA_SHA1\fetch_public_cert</text>
</g>
<!-- Node2 -->
<g id="node2" class="node"><title>Node2</title>
<g id="a_node2"><a xlink:href="class_o_auth_signature_method___r_s_a___s_h_a1.html#a324889317f5ce5881d3185cb88df7f25" target="_top" xlink:title="OAuthSignatureMethod\l_RSA_SHA1\\check_signature">
<polygon fill="white" stroke="black" points="188.296,-0 188.296,-32 337.704,-32 337.704,-0 188.296,-0"/>
<text text-anchor="start" x="196.296" y="-18" font-family="Helvetica,sans-Serif" font-size="10.00">OAuthSignatureMethod</text>
<text text-anchor="middle" x="263" y="-6" font-family="Helvetica,sans-Serif" font-size="10.00">_RSA_SHA1\check_signature</text>
</a>
</g>
</g>
<!-- Node1&#45;&gt;Node2 -->
<g id="edge1" class="edge"><title>Node1&#45;&gt;Node2</title>
<path fill="none" stroke="midnightblue" d="M162.281,-16C170.876,-16 179.555,-16 188.019,-16"/>
<polygon fill="midnightblue" stroke="midnightblue" points="162.247,-12.5001 152.247,-16 162.247,-19.5001 162.247,-12.5001"/>
</g>
</g>
</svg>
