<?xml version="1.0" encoding="UTF-8" standalone="no"?>
<!DOCTYPE svg PUBLIC "-//W3C//DTD SVG 1.1//EN"
 "http://www.w3.org/Graphics/SVG/1.1/DTD/svg11.dtd">
<!-- Generated by graphviz version 2.30.1 (20130221.2233)
 -->
<!-- Title: CTCT_Admin_Page\edit Pages: 1 -->
<!--zoomable 142 -->
<svg id="main" version="1.1" xmlns="http://www.w3.org/2000/svg" xmlns:xlink="http://www.w3.org/1999/xlink" xml:space="preserve" onload="init(evt)">
<style type="text/css"><![CDATA[
.edge:hover path { stroke: red; }
.edge:hover polygon { stroke: red; fill: red; }
]]></style>
<script type="text/javascript"><![CDATA[
var edges = document.getElementsByTagName('g');
if (edges && edges.length) {
  for (var i=0;i<edges.length;i++) {
    if (edges[i].id.substr(0,4)=='edge') {
      edges[i].setAttribute('class','edge');
    }
  }
}
]]></script>
        <defs>
                <circle id="rim" cx="0" cy="0" r="7"/>
                <circle id="rim2" cx="0" cy="0" r="3.5"/>
                <g id="zoomPlus">
                        <use xlink:href="#rim" fill="#404040">
                                <set attributeName="fill" to="#808080" begin="zoomplus.mouseover" end="zoomplus.mouseout"/>
                        </use>
                        <path d="M-4,0h8M0,-4v8" fill="none" stroke="white" stroke-width="1.5" pointer-events="none"/>
                </g>
                <g id="zoomMin">
                        <use xlink:href="#rim" fill="#404040">
                                <set attributeName="fill" to="#808080" begin="zoomminus.mouseover" end="zoomminus.mouseout"/>
                        </use>
                        <path d="M-4,0h8" fill="none" stroke="white" stroke-width="1.5" pointer-events="none"/>
                </g>
                <g id="dirArrow">
                        <path fill="none" stroke="white" stroke-width="1.5" d="M0,-3.0v7 M-2.5,-0.5L0,-3.0L2.5,-0.5"/>
                </g>
               <g id="resetDef">
                       <use xlink:href="#rim2" fill="#404040">
                               <set attributeName="fill" to="#808080" begin="reset.mouseover" end="reset.mouseout"/>
                       </use>
               </g>
        </defs>

<script type="text/javascript">
var viewWidth = 648;
var viewHeight = 142;
var sectionId = 'dynsection-9';
</script>
<script xlink:href="svgpan.js"/>
<svg id="graph" class="graph">
<g id="viewport">
<title>CTCT_Admin_Page\edit</title>
<polygon fill="white" stroke="white" points="-4,5 -4,-138 645,-138 645,5 -4,5"/>
<!-- Node1 -->
<g id="node1" class="node"><title>Node1</title>
<polygon fill="#bfbfbf" stroke="black" points="-0.191895,-57 -0.191895,-77 124.192,-77 124.192,-57 -0.191895,-57"/>
<text text-anchor="middle" x="62" y="-63" font-family="Helvetica,sans-Serif" font-size="10.00">CTCT_Admin_Page\edit</text>
</g>
<!-- Node2 -->
<g id="node2" class="node"><title>Node2</title>
<g id="a_node2"><a xlink:href="class_c_t_c_t___admin___page.html#acdbed2f16a36a9384b2fa5f01073024d" target="_top" xlink:title="CTCT_Admin_Page\\content">
<polygon fill="white" stroke="black" points="160.468,-57 160.468,-77 301.532,-77 301.532,-57 160.468,-57"/>
<text text-anchor="middle" x="231" y="-63" font-family="Helvetica,sans-Serif" font-size="10.00">CTCT_Admin_Page\content</text>
</a>
</g>
</g>
<!-- Node1&#45;&gt;Node2 -->
<g id="edge1" class="edge"><title>Node1&#45;&gt;Node2</title>
<path fill="none" stroke="midnightblue" d="M134.26,-67C142.888,-67 151.694,-67 160.299,-67"/>
<polygon fill="midnightblue" stroke="midnightblue" points="134.236,-63.5001 124.236,-67 134.236,-70.5001 134.236,-63.5001"/>
</g>
<!-- Node3 -->
<g id="node3" class="node"><title>Node3</title>
<g id="a_node3"><a xlink:href="class_c_t_c_t___admin___page.html#ad4d8edcfbf3023f7f18a6d188adaf99c" target="_top" xlink:title="CTCT_Admin_Page\\page">
<polygon fill="white" stroke="black" points="338.747,-57 338.747,-77 469.253,-77 469.253,-57 338.747,-57"/>
<text text-anchor="middle" x="404" y="-63" font-family="Helvetica,sans-Serif" font-size="10.00">CTCT_Admin_Page\page</text>
</a>
</g>
</g>
<!-- Node2&#45;&gt;Node3 -->
<g id="edge2" class="edge"><title>Node2&#45;&gt;Node3</title>
<path fill="none" stroke="midnightblue" d="M311.644,-67C320.634,-67 329.711,-67 338.474,-67"/>
<polygon fill="midnightblue" stroke="midnightblue" points="311.552,-63.5001 301.552,-67 311.552,-70.5001 311.552,-63.5001"/>
</g>
<!-- Node4 -->
<g id="node4" class="node"><title>Node4</title>
<g id="a_node4"><a xlink:href="class_c_t_c_t___constant___analytics.html#ad379ea8b9d4f8c7735b0f3adeac838fe" target="_top" xlink:title="CTCT_Constant_Analytics\l\\addActions">
<polygon fill="white" stroke="black" points="506.089,-102 506.089,-134 639.911,-134 639.911,-102 506.089,-102"/>
<text text-anchor="start" x="514.089" y="-120" font-family="Helvetica,sans-Serif" font-size="10.00">CTCT_Constant_Analytics</text>
<text text-anchor="middle" x="573" y="-108" font-family="Helvetica,sans-Serif" font-size="10.00">\addActions</text>
</a>
</g>
</g>
<!-- Node3&#45;&gt;Node4 -->
<g id="edge3" class="edge"><title>Node3&#45;&gt;Node4</title>
<path fill="none" stroke="midnightblue" d="M447.645,-80.0233C469.474,-86.6898 496.248,-94.8661 519.354,-101.922"/>
<polygon fill="midnightblue" stroke="midnightblue" points="448.58,-76.6494 437.994,-77.076 446.536,-83.3441 448.58,-76.6494"/>
</g>
<!-- Node5 -->
<g id="node5" class="node"><title>Node5</title>
<g id="a_node5"><a xlink:href="class_c_t_c_t___constant___analytics.html#a0b5589251b3a6cd9cf457fed695c885c" target="_top" xlink:title="CTCT_Constant_Analytics\l\\enqueue_scripts">
<polygon fill="white" stroke="black" points="506.089,-51 506.089,-83 639.911,-83 639.911,-51 506.089,-51"/>
<text text-anchor="start" x="514.089" y="-69" font-family="Helvetica,sans-Serif" font-size="10.00">CTCT_Constant_Analytics</text>
<text text-anchor="middle" x="573" y="-57" font-family="Helvetica,sans-Serif" font-size="10.00">\enqueue_scripts</text>
</a>
</g>
</g>
<!-- Node3&#45;&gt;Node5 -->
<g id="edge4" class="edge"><title>Node3&#45;&gt;Node5</title>
<path fill="none" stroke="midnightblue" d="M479.74,-67C488.477,-67 497.343,-67 505.95,-67"/>
<polygon fill="midnightblue" stroke="midnightblue" points="479.567,-63.5001 469.567,-67 479.567,-70.5001 479.567,-63.5001"/>
</g>
<!-- Node6 -->
<g id="node6" class="node"><title>Node6</title>
<g id="a_node6"><a xlink:href="class_c_t_c_t___constant___analytics.html#a835b6b00979fb3965d01a93767d5199e" target="_top" xlink:title="CTCT_Constant_Analytics\l\\admin_head">
<polygon fill="white" stroke="black" points="506.089,-0 506.089,-32 639.911,-32 639.911,-0 506.089,-0"/>
<text text-anchor="start" x="514.089" y="-18" font-family="Helvetica,sans-Serif" font-size="10.00">CTCT_Constant_Analytics</text>
<text text-anchor="middle" x="573" y="-6" font-family="Helvetica,sans-Serif" font-size="10.00">\admin_head</text>
</a>
</g>
</g>
<!-- Node3&#45;&gt;Node6 -->
<g id="edge5" class="edge"><title>Node3&#45;&gt;Node6</title>
<path fill="none" stroke="midnightblue" d="M447.645,-53.9767C469.474,-47.3102 496.248,-39.1339 519.354,-32.0777"/>
<polygon fill="midnightblue" stroke="midnightblue" points="446.536,-50.6559 437.994,-56.924 448.58,-57.3506 446.536,-50.6559"/>
</g>
</g>
</svg>
        <g id="navigator" transform="translate(0 0)" fill="#404254">
                <rect fill="#f2f5e9" fill-opacity="0.5" stroke="#606060" stroke-width=".5" x="0" y="0" width="60" height="60"/>
                <use id="zoomplus" xlink:href="#zoomPlus" x="17" y="9" onmousedown="handleZoom(evt,'in')"/>
                <use id="zoomminus" xlink:href="#zoomMin" x="42" y="9" onmousedown="handleZoom(evt,'out')"/>
                <use id="reset" xlink:href="#resetDef" x="30" y="36" onmousedown="handleReset()"/>
                <g id="arrowUp" xlink:href="#dirArrow" transform="translate(30 24)" onmousedown="handlePan(0,-1)">
                  <use xlink:href="#rim" fill="#404040">
                        <set attributeName="fill" to="#808080" begin="arrowUp.mouseover" end="arrowUp.mouseout"/>
                  </use>
                  <path fill="none" stroke="white" stroke-width="1.5" d="M0,-3.0v7 M-2.5,-0.5L0,-3.0L2.5,-0.5"/>
                </g>
                <g id="arrowRight" xlink:href="#dirArrow" transform="rotate(90) translate(36 -43)" onmousedown="handlePan(1,0)">
                  <use xlink:href="#rim" fill="#404040">
                        <set attributeName="fill" to="#808080" begin="arrowRight.mouseover" end="arrowRight.mouseout"/>
                  </use>
                  <path fill="none" stroke="white" stroke-width="1.5" d="M0,-3.0v7 M-2.5,-0.5L0,-3.0L2.5,-0.5"/>
                </g>
                <g id="arrowDown" xlink:href="#dirArrow" transform="rotate(180) translate(-30 -48)" onmousedown="handlePan(0,1)">
                  <use xlink:href="#rim" fill="#404040">
                        <set attributeName="fill" to="#808080" begin="arrowDown.mouseover" end="arrowDown.mouseout"/>
                  </use>
                  <path fill="none" stroke="white" stroke-width="1.5" d="M0,-3.0v7 M-2.5,-0.5L0,-3.0L2.5,-0.5"/>
                </g>
                <g id="arrowLeft" xlink:href="#dirArrow" transform="rotate(270) translate(-36 17)" onmousedown="handlePan(-1,0)">
                  <use xlink:href="#rim" fill="#404040">
                        <set attributeName="fill" to="#808080" begin="arrowLeft.mouseover" end="arrowLeft.mouseout"/>
                  </use>
                  <path fill="none" stroke="white" stroke-width="1.5" d="M0,-3.0v7 M-2.5,-0.5L0,-3.0L2.5,-0.5"/>
                </g>
        </g>
        <svg viewBox="0 0 15 15" width="100%" height="30px" preserveAspectRatio="xMaxYMin meet">
         <g id="arrow_out" transform="scale(0.3 0.3)">
          <a xlink:href="class_c_t_c_t___admin___page_a22cefb29a88a7407d1448526a6af9a99_icgraph_org.svg" target="_base">
           <rect id="button" ry="5" rx="5" y="6" x="6" height="38" width="38"
                fill="#f2f5e9" fill-opacity="0.5" stroke="#606060" stroke-width="1.0"/>
           <path id="arrow"
             d="M 11.500037,31.436501 C 11.940474,20.09759 22.043105,11.32322 32.158766,21.979434 L 37.068811,17.246167 C 37.068811,17.246167 37.088388,32 37.088388,32 L 22.160133,31.978069 C 22.160133,31.978069 26.997745,27.140456 26.997745,27.140456 C 18.528582,18.264221 13.291696,25.230495 11.500037,31.436501 z"
             style="fill:#404040;"/>
          </a>
         </g>
        </svg>
</svg>
