<?xml version="1.0" encoding="UTF-8" standalone="no"?>
<!DOCTYPE svg PUBLIC "-//W3C//DTD SVG 1.1//EN"
 "http://www.w3.org/Graphics/SVG/1.1/DTD/svg11.dtd">
<!-- Generated by graphviz version 2.30.1 (20130221.2233)
 -->
<!-- Title: CTCT_Admin_Page\view Pages: 1 -->
<svg width="652pt" height="142pt"
 viewBox="0.00 0.00 652.00 142.00" xmlns="http://www.w3.org/2000/svg" xmlns:xlink="http://www.w3.org/1999/xlink">
<g id="graph0" class="graph" transform="scale(1 1) rotate(0) translate(4 138)">
<title>CTCT_Admin_Page\view</title>
<polygon fill="white" stroke="white" points="-4,5 -4,-138 649,-138 649,5 -4,5"/>
<!-- Node1 -->
<g id="node1" class="node"><title>Node1</title>
<polygon fill="#bfbfbf" stroke="black" points="-0.132812,-57 -0.132812,-77 128.133,-77 128.133,-57 -0.132812,-57"/>
<text text-anchor="middle" x="64" y="-63" font-family="Helvetica,sans-Serif" font-size="10.00">CTCT_Admin_Page\view</text>
</g>
<!-- Node2 -->
<g id="node2" class="node"><title>Node2</title>
<g id="a_node2"><a xlink:href="class_c_t_c_t___admin___page.html#acdbed2f16a36a9384b2fa5f01073024d" target="_top" xlink:title="CTCT_Admin_Page\\content">
<polygon fill="white" stroke="black" points="164.468,-57 164.468,-77 305.532,-77 305.532,-57 164.468,-57"/>
<text text-anchor="middle" x="235" y="-63" font-family="Helvetica,sans-Serif" font-size="10.00">CTCT_Admin_Page\content</text>
</a>
</g>
</g>
<!-- Node1&#45;&gt;Node2 -->
<g id="edge1" class="edge"><title>Node1&#45;&gt;Node2</title>
<path fill="none" stroke="midnightblue" d="M138.684,-67C147.186,-67 155.837,-67 164.285,-67"/>
<polygon fill="midnightblue" stroke="midnightblue" points="138.41,-63.5001 128.41,-67 138.41,-70.5001 138.41,-63.5001"/>
</g>
<!-- Node3 -->
<g id="node3" class="node"><title>Node3</title>
<g id="a_node3"><a xlink:href="class_c_t_c_t___admin___page.html#ad4d8edcfbf3023f7f18a6d188adaf99c" target="_top" xlink:title="CTCT_Admin_Page\\page">
<polygon fill="white" stroke="black" points="342.747,-57 342.747,-77 473.253,-77 473.253,-57 342.747,-57"/>
<text text-anchor="middle" x="408" y="-63" font-family="Helvetica,sans-Serif" font-size="10.00">CTCT_Admin_Page\page</text>
</a>
</g>
</g>
<!-- Node2&#45;&gt;Node3 -->
<g id="edge2" class="edge"><title>Node2&#45;&gt;Node3</title>
<path fill="none" stroke="midnightblue" d="M315.644,-67C324.634,-67 333.711,-67 342.474,-67"/>
<polygon fill="midnightblue" stroke="midnightblue" points="315.552,-63.5001 305.552,-67 315.552,-70.5001 315.552,-63.5001"/>
</g>
<!-- Node4 -->
<g id="node4" class="node"><title>Node4</title>
<g id="a_node4"><a xlink:href="class_c_t_c_t___constant___analytics.html#ad379ea8b9d4f8c7735b0f3adeac838fe" target="_top" xlink:title="CTCT_Constant_Analytics\l\\addActions">
<polygon fill="white" stroke="black" points="510.089,-102 510.089,-134 643.911,-134 643.911,-102 510.089,-102"/>
<text text-anchor="start" x="518.089" y="-120" font-family="Helvetica,sans-Serif" font-size="10.00">CTCT_Constant_Analytics</text>
<text text-anchor="middle" x="577" y="-108" font-family="Helvetica,sans-Serif" font-size="10.00">\addActions</text>
</a>
</g>
</g>
<!-- Node3&#45;&gt;Node4 -->
<g id="edge3" class="edge"><title>Node3&#45;&gt;Node4</title>
<path fill="none" stroke="midnightblue" d="M451.645,-80.0233C473.474,-86.6898 500.248,-94.8661 523.354,-101.922"/>
<polygon fill="midnightblue" stroke="midnightblue" points="452.58,-76.6494 441.994,-77.076 450.536,-83.3441 452.58,-76.6494"/>
</g>
<!-- Node5 -->
<g id="node5" class="node"><title>Node5</title>
<g id="a_node5"><a xlink:href="class_c_t_c_t___constant___analytics.html#a835b6b00979fb3965d01a93767d5199e" target="_top" xlink:title="CTCT_Constant_Analytics\l\\admin_head">
<polygon fill="white" stroke="black" points="510.089,-51 510.089,-83 643.911,-83 643.911,-51 510.089,-51"/>
<text text-anchor="start" x="518.089" y="-69" font-family="Helvetica,sans-Serif" font-size="10.00">CTCT_Constant_Analytics</text>
<text text-anchor="middle" x="577" y="-57" font-family="Helvetica,sans-Serif" font-size="10.00">\admin_head</text>
</a>
</g>
</g>
<!-- Node3&#45;&gt;Node5 -->
<g id="edge4" class="edge"><title>Node3&#45;&gt;Node5</title>
<path fill="none" stroke="midnightblue" d="M483.74,-67C492.477,-67 501.343,-67 509.95,-67"/>
<polygon fill="midnightblue" stroke="midnightblue" points="483.567,-63.5001 473.567,-67 483.567,-70.5001 483.567,-63.5001"/>
</g>
<!-- Node6 -->
<g id="node6" class="node"><title>Node6</title>
<g id="a_node6"><a xlink:href="class_c_t_c_t___constant___analytics.html#a0b5589251b3a6cd9cf457fed695c885c" target="_top" xlink:title="CTCT_Constant_Analytics\l\\enqueue_scripts">
<polygon fill="white" stroke="black" points="510.089,-0 510.089,-32 643.911,-32 643.911,-0 510.089,-0"/>
<text text-anchor="start" x="518.089" y="-18" font-family="Helvetica,sans-Serif" font-size="10.00">CTCT_Constant_Analytics</text>
<text text-anchor="middle" x="577" y="-6" font-family="Helvetica,sans-Serif" font-size="10.00">\enqueue_scripts</text>
</a>
</g>
</g>
<!-- Node3&#45;&gt;Node6 -->
<g id="edge5" class="edge"><title>Node3&#45;&gt;Node6</title>
<path fill="none" stroke="midnightblue" d="M451.645,-53.9767C473.474,-47.3102 500.248,-39.1339 523.354,-32.0777"/>
<polygon fill="midnightblue" stroke="midnightblue" points="450.536,-50.6559 441.994,-56.924 452.58,-57.3506 450.536,-50.6559"/>
</g>
</g>
</svg>
