<?xml version="1.0" encoding="UTF-8" standalone="no"?>
<!DOCTYPE svg PUBLIC "-//W3C//DTD SVG 1.1//EN"
 "http://www.w3.org/Graphics/SVG/1.1/DTD/svg11.dtd">
<!-- Generated by graphviz version 2.30.1 (20130221.2233)
 -->
<!-- Title: CTCT_Admin_Page\content Pages: 1 -->
<svg width="330pt" height="262pt"
 viewBox="0.00 0.00 330.00 262.00" xmlns="http://www.w3.org/2000/svg" xmlns:xlink="http://www.w3.org/1999/xlink">
<g id="graph0" class="graph" transform="scale(1 1) rotate(0) translate(4 258)">
<title>CTCT_Admin_Page\content</title>
<polygon fill="white" stroke="white" points="-4,5 -4,-258 327,-258 327,5 -4,5"/>
<!-- Node1 -->
<g id="node1" class="node"><title>Node1</title>
<polygon fill="#bfbfbf" stroke="black" points="0.468262,-117 0.468262,-137 141.532,-137 141.532,-117 0.468262,-117"/>
<text text-anchor="middle" x="71" y="-123" font-family="Helvetica,sans-Serif" font-size="10.00">CTCT_Admin_Page\content</text>
</g>
<!-- Node2 -->
<g id="node2" class="node"><title>Node2</title>
<g id="a_node2"><a xlink:href="class_c_t_c_t___admin___page.html#a2239ad5eadd3654b1c163e66e9d2c48c" target="_top" xlink:title="CTCT_Admin_Page\\add">
<polygon fill="white" stroke="black" points="187.527,-234 187.527,-254 312.473,-254 312.473,-234 187.527,-234"/>
<text text-anchor="middle" x="250" y="-240" font-family="Helvetica,sans-Serif" font-size="10.00">CTCT_Admin_Page\add</text>
</a>
</g>
</g>
<!-- Node1&#45;&gt;Node2 -->
<g id="edge1" class="edge"><title>Node1&#45;&gt;Node2</title>
<path fill="none" stroke="midnightblue" d="M80.1998,-137.172C96.644,-156.896 135.714,-200.467 178,-224 182.432,-226.467 187.193,-228.649 192.074,-230.575"/>
<polygon fill="midnightblue" stroke="midnightblue" points="190.959,-233.894 201.554,-233.973 193.321,-227.304 190.959,-233.894"/>
</g>
<!-- Node3 -->
<g id="node3" class="node"><title>Node3</title>
<g id="a_node3"><a xlink:href="class_c_t_c_t___admin___page.html#a22cefb29a88a7407d1448526a6af9a99" target="_top" xlink:title="CTCT_Admin_Page\\edit">
<polygon fill="white" stroke="black" points="187.808,-195 187.808,-215 312.192,-215 312.192,-195 187.808,-195"/>
<text text-anchor="middle" x="250" y="-201" font-family="Helvetica,sans-Serif" font-size="10.00">CTCT_Admin_Page\edit</text>
</a>
</g>
</g>
<!-- Node1&#45;&gt;Node3 -->
<g id="edge2" class="edge"><title>Node1&#45;&gt;Node3</title>
<path fill="none" stroke="midnightblue" d="M87.6068,-137.011C107.805,-149.618 144.401,-171.282 178,-185 184.213,-187.537 190.858,-189.873 197.497,-191.985"/>
<polygon fill="midnightblue" stroke="midnightblue" points="196.585,-195.365 207.17,-194.915 198.614,-188.666 196.585,-195.365"/>
</g>
<!-- Node4 -->
<g id="node4" class="node"><title>Node4</title>
<g id="a_node4"><a xlink:href="class_c_t_c_t___admin___page.html#aa09ddad8c19f7b5e766616954288f30c" target="_top" xlink:title="CTCT_Admin_Page\\isAdd">
<polygon fill="white" stroke="black" points="183.362,-156 183.362,-176 316.638,-176 316.638,-156 183.362,-156"/>
<text text-anchor="middle" x="250" y="-162" font-family="Helvetica,sans-Serif" font-size="10.00">CTCT_Admin_Page\isAdd</text>
</a>
</g>
</g>
<!-- Node1&#45;&gt;Node4 -->
<g id="edge3" class="edge"><title>Node1&#45;&gt;Node4</title>
<path fill="none" stroke="midnightblue" d="M117.582,-137.043C140.809,-142.161 169.239,-148.426 193.708,-153.817"/>
<polygon fill="midnightblue" stroke="midnightblue" points="193.054,-157.257 203.573,-155.991 194.56,-150.421 193.054,-157.257"/>
</g>
<!-- Node5 -->
<g id="node5" class="node"><title>Node5</title>
<g id="a_node5"><a xlink:href="class_c_t_c_t___admin___page.html#a3022d3649afef42fe8a14b1f34f50a11" target="_top" xlink:title="CTCT_Admin_Page\\isEdit">
<polygon fill="white" stroke="black" points="183.643,-117 183.643,-137 316.357,-137 316.357,-117 183.643,-117"/>
<text text-anchor="middle" x="250" y="-123" font-family="Helvetica,sans-Serif" font-size="10.00">CTCT_Admin_Page\isEdit</text>
</a>
</g>
</g>
<!-- Node1&#45;&gt;Node5 -->
<g id="edge4" class="edge"><title>Node1&#45;&gt;Node5</title>
<path fill="none" stroke="midnightblue" d="M141.701,-127C152.004,-127 162.663,-127 173.085,-127"/>
<polygon fill="midnightblue" stroke="midnightblue" points="173.405,-130.5 183.405,-127 173.405,-123.5 173.405,-130.5"/>
</g>
<!-- Node6 -->
<g id="node6" class="node"><title>Node6</title>
<g id="a_node6"><a xlink:href="class_c_t_c_t___admin___page.html#a79cac52351cd72e5cb0269ad98ac9a82" target="_top" xlink:title="CTCT_Admin_Page\\isSingle">
<polygon fill="white" stroke="black" points="178.36,-78 178.36,-98 321.64,-98 321.64,-78 178.36,-78"/>
<text text-anchor="middle" x="250" y="-84" font-family="Helvetica,sans-Serif" font-size="10.00">CTCT_Admin_Page\isSingle</text>
</a>
</g>
</g>
<!-- Node1&#45;&gt;Node6 -->
<g id="edge5" class="edge"><title>Node1&#45;&gt;Node6</title>
<path fill="none" stroke="midnightblue" d="M117.582,-116.957C140.809,-111.839 169.239,-105.574 193.708,-100.183"/>
<polygon fill="midnightblue" stroke="midnightblue" points="194.56,-103.579 203.573,-98.0094 193.054,-96.7433 194.56,-103.579"/>
</g>
<!-- Node7 -->
<g id="node7" class="node"><title>Node7</title>
<g id="a_node7"><a xlink:href="class_c_t_c_t___admin___page.html#aa2467682cbcb0035e36c016f050fc791" target="_top" xlink:title="CTCT_Admin_Page\\single">
<polygon fill="white" stroke="black" points="182.806,-39 182.806,-59 317.194,-59 317.194,-39 182.806,-39"/>
<text text-anchor="middle" x="250" y="-45" font-family="Helvetica,sans-Serif" font-size="10.00">CTCT_Admin_Page\single</text>
</a>
</g>
</g>
<!-- Node1&#45;&gt;Node7 -->
<g id="edge6" class="edge"><title>Node1&#45;&gt;Node7</title>
<path fill="none" stroke="midnightblue" d="M87.6068,-116.989C107.805,-104.382 144.401,-82.7176 178,-69 184.213,-66.4633 190.858,-64.127 197.497,-62.0154"/>
<polygon fill="midnightblue" stroke="midnightblue" points="198.614,-65.3342 207.17,-59.0853 196.585,-58.6349 198.614,-65.3342"/>
</g>
<!-- Node8 -->
<g id="node8" class="node"><title>Node8</title>
<g id="a_node8"><a xlink:href="class_c_t_c_t___admin___page.html#a088ea0e281820f5ca26ebe3aa4e1c50e" target="_top" xlink:title="CTCT_Admin_Page\\view">
<polygon fill="white" stroke="black" points="185.867,-0 185.867,-20 314.133,-20 314.133,-0 185.867,-0"/>
<text text-anchor="middle" x="250" y="-6" font-family="Helvetica,sans-Serif" font-size="10.00">CTCT_Admin_Page\view</text>
</a>
</g>
</g>
<!-- Node1&#45;&gt;Node8 -->
<g id="edge7" class="edge"><title>Node1&#45;&gt;Node8</title>
<path fill="none" stroke="midnightblue" d="M80.1998,-116.828C96.644,-97.104 135.714,-53.533 178,-30 182.432,-27.5334 187.193,-25.3512 192.074,-23.4246"/>
<polygon fill="midnightblue" stroke="midnightblue" points="193.321,-26.6956 201.554,-20.0269 190.959,-20.106 193.321,-26.6956"/>
</g>
</g>
</svg>
