<?xml version="1.0" encoding="UTF-8" standalone="no"?>
<!DOCTYPE svg PUBLIC "-//W3C//DTD SVG 1.1//EN"
 "http://www.w3.org/Graphics/SVG/1.1/DTD/svg11.dtd">
<!-- Generated by graphviz version 2.30.1 (20130221.2233)
 -->
<!-- Title: Schedule\createXml Pages: 1 -->
<svg width="598pt" height="28pt"
 viewBox="0.00 0.00 598.00 28.00" xmlns="http://www.w3.org/2000/svg" xmlns:xlink="http://www.w3.org/1999/xlink">
<g id="graph0" class="graph" transform="scale(1 1) rotate(0) translate(4 24)">
<title>Schedule\createXml</title>
<polygon fill="white" stroke="white" points="-4,5 -4,-24 595,-24 595,5 -4,5"/>
<!-- Node1 -->
<g id="node1" class="node"><title>Node1</title>
<polygon fill="#bfbfbf" stroke="black" points="0.253906,-0 0.253906,-20 105.746,-20 105.746,-0 0.253906,-0"/>
<text text-anchor="middle" x="53" y="-6" font-family="Helvetica,sans-Serif" font-size="10.00">Schedule\createXml</text>
</g>
<!-- Node2 -->
<g id="node2" class="node"><title>Node2</title>
<g id="a_node2"><a xlink:href="class_c_c_object.html#a2175b643672414fd5dd302e8feb7bc55" target="_top" xlink:title="Validate an object to check that all required fields have been supplied &#160;array $params &#45; object prope...">
<polygon fill="white" stroke="black" points="142.705,-0 142.705,-20 239.295,-20 239.295,-0 142.705,-0"/>
<text text-anchor="middle" x="191" y="-6" font-family="Helvetica,sans-Serif" font-size="10.00">CCObject\validate</text>
</a>
</g>
</g>
<!-- Node1&#45;&gt;Node2 -->
<g id="edge1" class="edge"><title>Node1&#45;&gt;Node2</title>
<path fill="none" stroke="midnightblue" d="M105.804,-10C114.436,-10 123.439,-10 132.209,-10"/>
<polygon fill="midnightblue" stroke="midnightblue" points="132.362,-13.5001 142.362,-10 132.362,-6.5001 132.362,-13.5001"/>
</g>
<!-- Node3 -->
<g id="node3" class="node"><title>Node3</title>
<g id="a_node3"><a xlink:href="class_c_t_c_t_exception.html#adc8307ec7d7a2c730b0dac678d0e7fcb" target="_top" xlink:title="CTCTException\\generateError">
<polygon fill="white" stroke="black" points="276.473,-0 276.473,-20 427.527,-20 427.527,-0 276.473,-0"/>
<text text-anchor="middle" x="352" y="-6" font-family="Helvetica,sans-Serif" font-size="10.00">CTCTException\generateError</text>
</a>
</g>
</g>
<!-- Node2&#45;&gt;Node3 -->
<g id="edge2" class="edge"><title>Node2&#45;&gt;Node3</title>
<path fill="none" stroke="midnightblue" d="M239.705,-10C248.079,-10 257.017,-10 266.049,-10"/>
<polygon fill="midnightblue" stroke="midnightblue" points="266.261,-13.5001 276.261,-10 266.261,-6.5001 266.261,-13.5001"/>
</g>
<!-- Node4 -->
<g id="node4" class="node"><title>Node4</title>
<g id="a_node4"><a xlink:href="class_c_t_c_t_exception.html#a6a86531406328bbd2a6c6252b7fb3a70" target="_top" xlink:title="CTCTException\\logError">
<polygon fill="white" stroke="black" points="464.54,-0 464.54,-20 589.46,-20 589.46,-0 464.54,-0"/>
<text text-anchor="middle" x="527" y="-6" font-family="Helvetica,sans-Serif" font-size="10.00">CTCTException\logError</text>
</a>
</g>
</g>
<!-- Node3&#45;&gt;Node4 -->
<g id="edge3" class="edge"><title>Node3&#45;&gt;Node4</title>
<path fill="none" stroke="midnightblue" d="M427.623,-10C436.431,-10 445.406,-10 454.174,-10"/>
<polygon fill="midnightblue" stroke="midnightblue" points="454.349,-13.5001 464.349,-10 454.349,-6.5001 454.349,-13.5001"/>
</g>
</g>
</svg>
