<?xml version="1.0" encoding="UTF-8" standalone="no"?>
<!DOCTYPE svg PUBLIC "-//W3C//DTD SVG 1.1//EN"
 "http://www.w3.org/Graphics/SVG/1.1/DTD/svg11.dtd">
<!-- Generated by graphviz version 2.30.1 (20130221.2233)
 -->
<!-- Title: Ctct\Components\Contacts\CustomField\create Pages: 1 -->
<svg width="498pt" height="244pt"
 viewBox="0.00 0.00 498.00 244.00" xmlns="http://www.w3.org/2000/svg" xmlns:xlink="http://www.w3.org/1999/xlink">
<g id="graph0" class="graph" transform="scale(1 1) rotate(0) translate(4 240)">
<title>Ctct\Components\Contacts\CustomField\create</title>
<polygon fill="white" stroke="white" points="-4,5 -4,-240 495,-240 495,5 -4,5"/>
<!-- Node1 -->
<g id="node1" class="node"><title>Node1</title>
<polygon fill="#bfbfbf" stroke="black" points="0.251465,-102 0.251465,-134 135.749,-134 135.749,-102 0.251465,-102"/>
<text text-anchor="start" x="8.25146" y="-120" font-family="Helvetica,sans-Serif" font-size="10.00">Ctct\Components\Contacts</text>
<text text-anchor="middle" x="68" y="-108" font-family="Helvetica,sans-Serif" font-size="10.00">\CustomField\create</text>
</g>
<!-- Node2 -->
<g id="node2" class="node"><title>Node2</title>
<g id="a_node2"><a xlink:href="class_ctct_1_1_components_1_1_contacts_1_1_contact.html#aea94ae08d0308ccb24c030bd9d96e368" target="_top" xlink:title="Factory method to create a Contact object from an array. ">
<polygon fill="white" stroke="black" points="172.251,-102 172.251,-134 307.749,-134 307.749,-102 172.251,-102"/>
<text text-anchor="start" x="180.251" y="-120" font-family="Helvetica,sans-Serif" font-size="10.00">Ctct\Components\Contacts</text>
<text text-anchor="middle" x="240" y="-108" font-family="Helvetica,sans-Serif" font-size="10.00">\Contact\create</text>
</a>
</g>
</g>
<!-- Node1&#45;&gt;Node2 -->
<g id="edge1" class="edge"><title>Node1&#45;&gt;Node2</title>
<path fill="none" stroke="midnightblue" d="M146.226,-118C154.836,-118 163.554,-118 172.021,-118"/>
<polygon fill="midnightblue" stroke="midnightblue" points="146.189,-114.5 136.189,-118 146.188,-121.5 146.189,-114.5"/>
</g>
<!-- Node3 -->
<g id="node3" class="node"><title>Node3</title>
<g id="a_node3"><a xlink:href="class_ctct_1_1_services_1_1_contact_service.html#ac5b9afdd65db72f853b04b0424b4d7d5" target="_top" xlink:title="Add a new contact to the Constant Contact account. ">
<polygon fill="white" stroke="black" points="344.256,-204 344.256,-236 489.744,-236 489.744,-204 344.256,-204"/>
<text text-anchor="start" x="352.256" y="-222" font-family="Helvetica,sans-Serif" font-size="10.00">Ctct\Services\ContactService</text>
<text text-anchor="middle" x="417" y="-210" font-family="Helvetica,sans-Serif" font-size="10.00">\addContact</text>
</a>
</g>
</g>
<!-- Node2&#45;&gt;Node3 -->
<g id="edge2" class="edge"><title>Node2&#45;&gt;Node3</title>
<path fill="none" stroke="midnightblue" d="M266.999,-140.5C287.017,-156.975 315.926,-178.985 344,-194 350.797,-197.635 358.21,-200.958 365.611,-203.923"/>
<polygon fill="midnightblue" stroke="midnightblue" points="269.177,-137.759 259.257,-134.039 264.692,-143.134 269.177,-137.759"/>
</g>
<!-- Node4 -->
<g id="node4" class="node"><title>Node4</title>
<g id="a_node4"><a xlink:href="class_ctct_1_1_services_1_1_contact_service.html#af87e0abcdfa3fe993a8772f7b68918c6" target="_top" xlink:title="Get contact details for a specific contact. ">
<polygon fill="white" stroke="black" points="344.256,-153 344.256,-185 489.744,-185 489.744,-153 344.256,-153"/>
<text text-anchor="start" x="352.256" y="-171" font-family="Helvetica,sans-Serif" font-size="10.00">Ctct\Services\ContactService</text>
<text text-anchor="middle" x="417" y="-159" font-family="Helvetica,sans-Serif" font-size="10.00">\getContact</text>
</a>
</g>
</g>
<!-- Node2&#45;&gt;Node4 -->
<g id="edge3" class="edge"><title>Node2&#45;&gt;Node4</title>
<path fill="none" stroke="midnightblue" d="M306.222,-137.008C324.242,-142.259 343.612,-147.904 360.989,-152.968"/>
<polygon fill="midnightblue" stroke="midnightblue" points="306.951,-133.574 296.371,-134.137 304.992,-140.295 306.951,-133.574"/>
</g>
<!-- Node5 -->
<g id="node5" class="node"><title>Node5</title>
<g id="a_node5"><a xlink:href="class_ctct_1_1_services_1_1_contact_service.html#ac60ec46b388b82af833cff0f478203d8" target="_top" xlink:title="Get a ResultSet of contacts. ">
<polygon fill="white" stroke="black" points="344.256,-102 344.256,-134 489.744,-134 489.744,-102 344.256,-102"/>
<text text-anchor="start" x="352.256" y="-120" font-family="Helvetica,sans-Serif" font-size="10.00">Ctct\Services\ContactService</text>
<text text-anchor="middle" x="417" y="-108" font-family="Helvetica,sans-Serif" font-size="10.00">\getContacts</text>
</a>
</g>
</g>
<!-- Node2&#45;&gt;Node5 -->
<g id="edge4" class="edge"><title>Node2&#45;&gt;Node5</title>
<path fill="none" stroke="midnightblue" d="M318.184,-118C326.794,-118 335.539,-118 344.079,-118"/>
<polygon fill="midnightblue" stroke="midnightblue" points="318.159,-114.5 308.159,-118 318.159,-121.5 318.159,-114.5"/>
</g>
<!-- Node6 -->
<g id="node6" class="node"><title>Node6</title>
<g id="a_node6"><a xlink:href="class_ctct_1_1_services_1_1_list_service.html#a1888616e27971787a3e03ed3b655c249" target="_top" xlink:title="Get all contacts from an individual list. ">
<polygon fill="white" stroke="black" points="353.707,-51 353.707,-83 480.293,-83 480.293,-51 353.707,-51"/>
<text text-anchor="start" x="361.707" y="-69" font-family="Helvetica,sans-Serif" font-size="10.00">Ctct\Services\ListService</text>
<text text-anchor="middle" x="417" y="-57" font-family="Helvetica,sans-Serif" font-size="10.00">\getContactsFromList</text>
</a>
</g>
</g>
<!-- Node2&#45;&gt;Node6 -->
<g id="edge5" class="edge"><title>Node2&#45;&gt;Node6</title>
<path fill="none" stroke="midnightblue" d="M306.222,-98.9925C324.242,-93.741 343.612,-88.096 360.989,-83.0317"/>
<polygon fill="midnightblue" stroke="midnightblue" points="304.992,-95.7051 296.371,-101.863 306.951,-102.426 304.992,-95.7051"/>
</g>
<!-- Node7 -->
<g id="node7" class="node"><title>Node7</title>
<g id="a_node7"><a xlink:href="class_ctct_1_1_services_1_1_contact_service.html#acd9593d819393fbbf13d6962da37ee02" target="_top" xlink:title="Update contact details for a specific contact. ">
<polygon fill="white" stroke="black" points="344.256,-0 344.256,-32 489.744,-32 489.744,-0 344.256,-0"/>
<text text-anchor="start" x="352.256" y="-18" font-family="Helvetica,sans-Serif" font-size="10.00">Ctct\Services\ContactService</text>
<text text-anchor="middle" x="417" y="-6" font-family="Helvetica,sans-Serif" font-size="10.00">\updateContact</text>
</a>
</g>
</g>
<!-- Node2&#45;&gt;Node7 -->
<g id="edge6" class="edge"><title>Node2&#45;&gt;Node7</title>
<path fill="none" stroke="midnightblue" d="M266.999,-95.4997C287.017,-79.0253 315.926,-57.0146 344,-42 350.797,-38.3647 358.21,-35.0421 365.611,-32.0771"/>
<polygon fill="midnightblue" stroke="midnightblue" points="264.692,-92.8665 259.257,-101.961 269.177,-98.2408 264.692,-92.8665"/>
</g>
</g>
</svg>
