<?xml version="1.0" encoding="UTF-8" standalone="no"?>
<!DOCTYPE svg PUBLIC "-//W3C//DTD SVG 1.1//EN"
 "http://www.w3.org/Graphics/SVG/1.1/DTD/svg11.dtd">
<!-- Generated by graphviz version 2.30.1 (20130221.2233)
 -->
<!-- Title: Campaign\createOverviewStruct Pages: 1 -->
<svg width="328pt" height="91pt"
 viewBox="0.00 0.00 328.00 91.00" xmlns="http://www.w3.org/2000/svg" xmlns:xlink="http://www.w3.org/1999/xlink">
<g id="graph0" class="graph" transform="scale(1 1) rotate(0) translate(4 87)">
<title>Campaign\createOverviewStruct</title>
<polygon fill="white" stroke="white" points="-4,5 -4,-87 325,-87 325,5 -4,5"/>
<!-- Node1 -->
<g id="node1" class="node"><title>Node1</title>
<polygon fill="#bfbfbf" stroke="black" points="0.0273438,-31 0.0273438,-51 159.973,-51 159.973,-31 0.0273438,-31"/>
<text text-anchor="middle" x="80" y="-37" font-family="Helvetica,sans-Serif" font-size="10.00">Campaign\createOverviewStruct</text>
</g>
<!-- Node2 -->
<g id="node2" class="node"><title>Node2</title>
<g id="a_node2"><a xlink:href="class_campaigns_collection.html#a2ec4b8a52341c840c56881d98d0bfdd6" target="_top" xlink:title="Get a page of Campaigns. ">
<polygon fill="white" stroke="black" points="202.754,-51 202.754,-83 313.246,-83 313.246,-51 202.754,-51"/>
<text text-anchor="start" x="210.754" y="-69" font-family="Helvetica,sans-Serif" font-size="10.00">CampaignsCollection</text>
<text text-anchor="middle" x="258" y="-57" font-family="Helvetica,sans-Serif" font-size="10.00">\getCampaigns</text>
</a>
</g>
</g>
<!-- Node1&#45;&gt;Node2 -->
<g id="edge1" class="edge"><title>Node1&#45;&gt;Node2</title>
<path fill="none" stroke="midnightblue" d="M158.919,-52.5108C173.663,-54.6888 188.788,-56.9233 202.612,-58.9654"/>
<polygon fill="midnightblue" stroke="midnightblue" points="159.199,-49.0142 148.794,-51.0151 158.176,-55.939 159.199,-49.0142"/>
</g>
<!-- Node3 -->
<g id="node3" class="node"><title>Node3</title>
<g id="a_node3"><a xlink:href="class_campaigns_collection.html#a60d74f76a35500fc9bb792fd98d94b3c" target="_top" xlink:title="Get a page of campaigns by status. ">
<polygon fill="white" stroke="black" points="196.36,-0 196.36,-32 319.64,-32 319.64,-0 196.36,-0"/>
<text text-anchor="start" x="204.36" y="-18" font-family="Helvetica,sans-Serif" font-size="10.00">CampaignsCollection</text>
<text text-anchor="middle" x="258" y="-6" font-family="Helvetica,sans-Serif" font-size="10.00">\getCampaignsByStatus</text>
</a>
</g>
</g>
<!-- Node1&#45;&gt;Node3 -->
<g id="edge2" class="edge"><title>Node1&#45;&gt;Node3</title>
<path fill="none" stroke="midnightblue" d="M161.732,-29.5324C173.367,-27.8796 185.173,-26.2026 196.329,-24.6181"/>
<polygon fill="midnightblue" stroke="midnightblue" points="160.98,-26.104 151.572,-30.9756 161.965,-33.0344 160.98,-26.104"/>
</g>
</g>
</svg>
