<?xml version="1.0" encoding="UTF-8" standalone="no"?>
<!DOCTYPE svg PUBLIC "-//W3C//DTD SVG 1.1//EN"
 "http://www.w3.org/Graphics/SVG/1.1/DTD/svg11.dtd">
<!-- Generated by graphviz version 2.30.1 (20130221.2233)
 -->
<!-- Title: OAuthServer\check_nonce Pages: 1 -->
<svg width="504pt" height="142pt"
 viewBox="0.00 0.00 504.00 142.00" xmlns="http://www.w3.org/2000/svg" xmlns:xlink="http://www.w3.org/1999/xlink">
<g id="graph0" class="graph" transform="scale(1 1) rotate(0) translate(4 138)">
<title>OAuthServer\check_nonce</title>
<polygon fill="white" stroke="white" points="-4,5 -4,-138 501,-138 501,5 -4,5"/>
<!-- Node1 -->
<g id="node1" class="node"><title>Node1</title>
<polygon fill="#bfbfbf" stroke="black" points="0.244141,-57 0.244141,-77 135.756,-77 135.756,-57 0.244141,-57"/>
<text text-anchor="middle" x="68" y="-63" font-family="Helvetica,sans-Serif" font-size="10.00">OAuthServer\check_nonce</text>
</g>
<!-- Node2 -->
<g id="node2" class="node"><title>Node2</title>
<g id="a_node2"><a xlink:href="class_o_auth_server.html#a42f0158a9a4c166bc9372054626d93ca" target="_top" xlink:title="all&#45;in&#45;one function to check the signature on a request should guess the signature method appropriate...">
<polygon fill="white" stroke="black" points="172.298,-57 172.298,-77 321.702,-77 321.702,-57 172.298,-57"/>
<text text-anchor="middle" x="247" y="-63" font-family="Helvetica,sans-Serif" font-size="10.00">OAuthServer\check_signature</text>
</a>
</g>
</g>
<!-- Node1&#45;&gt;Node2 -->
<g id="edge1" class="edge"><title>Node1&#45;&gt;Node2</title>
<path fill="none" stroke="midnightblue" d="M146.021,-67C154.704,-67 163.538,-67 172.18,-67"/>
<polygon fill="midnightblue" stroke="midnightblue" points="145.916,-63.5001 135.916,-67 145.916,-70.5001 145.916,-63.5001"/>
</g>
<!-- Node3 -->
<g id="node3" class="node"><title>Node3</title>
<g id="a_node3"><a xlink:href="class_o_auth_server.html#aa91f1a763ab36c576ebf9319ac4751f6" target="_top" xlink:title="process a request_token request returns the request token on success ">
<polygon fill="white" stroke="black" points="358.412,-102 358.412,-134 495.588,-134 495.588,-102 358.412,-102"/>
<text text-anchor="start" x="366.412" y="-120" font-family="Helvetica,sans-Serif" font-size="10.00">OAuthServer\fetch_request</text>
<text text-anchor="middle" x="427" y="-108" font-family="Helvetica,sans-Serif" font-size="10.00">_token</text>
</a>
</g>
</g>
<!-- Node2&#45;&gt;Node3 -->
<g id="edge2" class="edge"><title>Node2&#45;&gt;Node3</title>
<path fill="none" stroke="midnightblue" d="M292.826,-79.8435C316.207,-86.5424 345.036,-94.8026 369.886,-101.922"/>
<polygon fill="midnightblue" stroke="midnightblue" points="293.744,-76.4658 283.167,-77.076 291.816,-83.195 293.744,-76.4658"/>
</g>
<!-- Node4 -->
<g id="node4" class="node"><title>Node4</title>
<g id="a_node4"><a xlink:href="class_o_auth_server.html#a5c76359726e685013d2e0cb8a1abe09a" target="_top" xlink:title="process an access_token request returns the access token on success ">
<polygon fill="white" stroke="black" points="359.527,-51 359.527,-83 494.473,-83 494.473,-51 359.527,-51"/>
<text text-anchor="start" x="367.527" y="-69" font-family="Helvetica,sans-Serif" font-size="10.00">OAuthServer\fetch_access</text>
<text text-anchor="middle" x="427" y="-57" font-family="Helvetica,sans-Serif" font-size="10.00">_token</text>
</a>
</g>
</g>
<!-- Node2&#45;&gt;Node4 -->
<g id="edge3" class="edge"><title>Node2&#45;&gt;Node4</title>
<path fill="none" stroke="midnightblue" d="M332.198,-67C341.325,-67 350.52,-67 359.397,-67"/>
<polygon fill="midnightblue" stroke="midnightblue" points="331.942,-63.5001 321.942,-67 331.942,-70.5001 331.942,-63.5001"/>
</g>
<!-- Node5 -->
<g id="node5" class="node"><title>Node5</title>
<g id="a_node5"><a xlink:href="class_o_auth_server.html#ad31e95096adeac980a8a99f59c4cadc6" target="_top" xlink:title="verify an api call, checks all the parameters ">
<polygon fill="white" stroke="black" points="376.764,-0 376.764,-32 477.236,-32 477.236,-0 376.764,-0"/>
<text text-anchor="start" x="384.764" y="-18" font-family="Helvetica,sans-Serif" font-size="10.00">OAuthServer\verify</text>
<text text-anchor="middle" x="427" y="-6" font-family="Helvetica,sans-Serif" font-size="10.00">_request</text>
</a>
</g>
</g>
<!-- Node2&#45;&gt;Node5 -->
<g id="edge4" class="edge"><title>Node2&#45;&gt;Node5</title>
<path fill="none" stroke="midnightblue" d="M292.97,-54.1153C318.517,-46.7956 350.535,-37.6221 376.757,-30.109"/>
<polygon fill="midnightblue" stroke="midnightblue" points="291.816,-50.805 283.167,-56.924 293.744,-57.5342 291.816,-50.805"/>
</g>
</g>
</svg>
