<?xml version="1.0" encoding="UTF-8" standalone="no"?>
<!DOCTYPE svg PUBLIC "-//W3C//DTD SVG 1.1//EN"
 "http://www.w3.org/Graphics/SVG/1.1/DTD/svg11.dtd">
<!-- Generated by graphviz version 2.30.1 (20130221.2233)
 -->
<!-- Title: Ctct\Util\CurlResponse\create Pages: 1 -->
<svg width="262pt" height="40pt"
 viewBox="0.00 0.00 262.00 40.00" xmlns="http://www.w3.org/2000/svg" xmlns:xlink="http://www.w3.org/1999/xlink">
<g id="graph0" class="graph" transform="scale(1 1) rotate(0) translate(4 36)">
<title>Ctct\Util\CurlResponse\create</title>
<polygon fill="white" stroke="white" points="-4,5 -4,-36 259,-36 259,5 -4,5"/>
<!-- Node1 -->
<g id="node1" class="node"><title>Node1</title>
<polygon fill="#bfbfbf" stroke="black" points="0.428711,-0 0.428711,-32 117.571,-32 117.571,-0 0.428711,-0"/>
<text text-anchor="start" x="8.42871" y="-18" font-family="Helvetica,sans-Serif" font-size="10.00">Ctct\Util\CurlResponse</text>
<text text-anchor="middle" x="59" y="-6" font-family="Helvetica,sans-Serif" font-size="10.00">\create</text>
</g>
<!-- Node2 -->
<g id="node2" class="node"><title>Node2</title>
<g id="a_node2"><a xlink:href="class_ctct_1_1_util_1_1_rest_client.html#ac51e29486b2cd2d1b80db8126698ffae" target="_top" xlink:title="Make an HTTP request. ">
<polygon fill="white" stroke="black" points="154.047,-0 154.047,-32 253.953,-32 253.953,-0 154.047,-0"/>
<text text-anchor="start" x="162.047" y="-18" font-family="Helvetica,sans-Serif" font-size="10.00">Ctct\Util\RestClient</text>
<text text-anchor="middle" x="204" y="-6" font-family="Helvetica,sans-Serif" font-size="10.00">\httpRequest</text>
</a>
</g>
</g>
<!-- Node1&#45;&gt;Node2 -->
<g id="edge1" class="edge"><title>Node1&#45;&gt;Node2</title>
<path fill="none" stroke="midnightblue" d="M127.918,-16C136.634,-16 145.42,-16 153.758,-16"/>
<polygon fill="midnightblue" stroke="midnightblue" points="127.751,-12.5001 117.751,-16 127.751,-19.5001 127.751,-12.5001"/>
</g>
</g>
</svg>
