<?xml version="1.0" encoding="UTF-8" standalone="no"?>
<!DOCTYPE svg PUBLIC "-//W3C//DTD SVG 1.1//EN"
 "http://www.w3.org/Graphics/SVG/1.1/DTD/svg11.dtd">
<!-- Generated by graphviz version 2.30.1 (20130221.2233)
 -->
<!-- Title: Net_DNS_RR_AAAA\ipv6_compress Pages: 1 -->
<svg width="296pt" height="40pt"
 viewBox="0.00 0.00 296.00 40.00" xmlns="http://www.w3.org/2000/svg" xmlns:xlink="http://www.w3.org/1999/xlink">
<g id="graph0" class="graph" transform="scale(1 1) rotate(0) translate(4 36)">
<title>Net_DNS_RR_AAAA\ipv6_compress</title>
<polygon fill="white" stroke="white" points="-4,5 -4,-36 293,-36 293,5 -4,5"/>
<!-- Node1 -->
<g id="node1" class="node"><title>Node1</title>
<polygon fill="#bfbfbf" stroke="black" points="0.197266,-0 0.197266,-32 131.803,-32 131.803,-0 0.197266,-0"/>
<text text-anchor="start" x="8.19727" y="-18" font-family="Helvetica,sans-Serif" font-size="10.00">Net_DNS_RR_AAAA\ipv6</text>
<text text-anchor="middle" x="66" y="-6" font-family="Helvetica,sans-Serif" font-size="10.00">_compress</text>
</g>
<!-- Node2 -->
<g id="node2" class="node"><title>Node2</title>
<g id="a_node2"><a xlink:href="class_net___d_n_s___r_r___a_a_a_a.html#ab6f0b08c829f03e3d8f0d247fa35a453" target="_top" xlink:title="Net_DNS_RR_AAAA\\rr\l_rdata">
<polygon fill="white" stroke="black" points="168.04,-0 168.04,-32 287.96,-32 287.96,-0 168.04,-0"/>
<text text-anchor="start" x="176.04" y="-18" font-family="Helvetica,sans-Serif" font-size="10.00">Net_DNS_RR_AAAA\rr</text>
<text text-anchor="middle" x="228" y="-6" font-family="Helvetica,sans-Serif" font-size="10.00">_rdata</text>
</a>
</g>
</g>
<!-- Node1&#45;&gt;Node2 -->
<g id="edge1" class="edge"><title>Node1&#45;&gt;Node2</title>
<path fill="none" stroke="midnightblue" d="M142.162,-16C150.803,-16 159.519,-16 167.905,-16"/>
<polygon fill="midnightblue" stroke="midnightblue" points="142.078,-12.5001 132.078,-16 142.078,-19.5001 142.078,-12.5001"/>
</g>
</g>
</svg>
