<?xml version="1.0" encoding="UTF-8" standalone="no"?>
<!DOCTYPE svg PUBLIC "-//W3C//DTD SVG 1.1//EN"
 "http://www.w3.org/Graphics/SVG/1.1/DTD/svg11.dtd">
<!-- Generated by graphviz version 2.30.1 (20130221.2233)
 -->
<!-- Title: SettingsCollection\getAddresses Pages: 1 -->
<svg width="636pt" height="130pt"
 viewBox="0.00 0.00 636.00 130.00" xmlns="http://www.w3.org/2000/svg" xmlns:xlink="http://www.w3.org/1999/xlink">
<g id="graph0" class="graph" transform="scale(1 1) rotate(0) translate(4 126)">
<title>SettingsCollection\getAddresses</title>
<polygon fill="white" stroke="white" points="-4,5 -4,-126 633,-126 633,5 -4,5"/>
<!-- Node1 -->
<g id="node1" class="node"><title>Node1</title>
<polygon fill="#bfbfbf" stroke="black" points="-0.0219727,-55 -0.0219727,-87 96.022,-87 96.022,-55 -0.0219727,-55"/>
<text text-anchor="start" x="7.97803" y="-73" font-family="Helvetica,sans-Serif" font-size="10.00">SettingsCollection</text>
<text text-anchor="middle" x="48" y="-61" font-family="Helvetica,sans-Serif" font-size="10.00">\getAddresses</text>
</g>
<!-- Node2 -->
<g id="node2" class="node"><title>Node2</title>
<g id="a_node2"><a xlink:href="class_verified_address.html#a0895c83ea4f5aa6a1615884f7d49d4ea" target="_top" xlink:title="Create associate array of object from XML. ">
<polygon fill="white" stroke="black" points="132.633,-100 132.633,-120 275.367,-120 275.367,-100 132.633,-100"/>
<text text-anchor="middle" x="204" y="-106" font-family="Helvetica,sans-Serif" font-size="10.00">VerifiedAddress\createStruct</text>
</a>
</g>
</g>
<!-- Node1&#45;&gt;Node2 -->
<g id="edge1" class="edge"><title>Node1&#45;&gt;Node2</title>
<path fill="none" stroke="midnightblue" d="M96.0419,-82.9132C114.337,-87.5463 135.305,-92.8564 153.801,-97.5404"/>
<polygon fill="midnightblue" stroke="midnightblue" points="152.95,-100.936 163.504,-99.9977 154.669,-94.1498 152.95,-100.936"/>
</g>
<!-- Node3 -->
<g id="node3" class="node"><title>Node3</title>
<g id="a_node3"><a xlink:href="class_utility.html#a50ac241bcff31b7348d0f623f2ab3d4c" target="_top" xlink:title="Find the next link from collection XML. ">
<polygon fill="white" stroke="black" points="154.875,-61 154.875,-81 253.125,-81 253.125,-61 154.875,-61"/>
<text text-anchor="middle" x="204" y="-67" font-family="Helvetica,sans-Serif" font-size="10.00">Utility\findNextLink</text>
</a>
</g>
</g>
<!-- Node1&#45;&gt;Node3 -->
<g id="edge2" class="edge"><title>Node1&#45;&gt;Node3</title>
<path fill="none" stroke="midnightblue" d="M96.0419,-71C111.279,-71 128.371,-71 144.345,-71"/>
<polygon fill="midnightblue" stroke="midnightblue" points="144.65,-74.5001 154.65,-71 144.65,-67.5001 144.65,-74.5001"/>
</g>
<!-- Node4 -->
<g id="node4" class="node"><title>Node4</title>
<g id="a_node4"><a xlink:href="class_c_t_c_t_request.html#aad92e5787f6d3fdf00760d99505aa6db" target="_top" xlink:title="CTCTRequest\\makeRequest">
<polygon fill="white" stroke="black" points="131.808,-22 131.808,-42 276.192,-42 276.192,-22 131.808,-22"/>
<text text-anchor="middle" x="204" y="-28" font-family="Helvetica,sans-Serif" font-size="10.00">CTCTRequest\makeRequest</text>
</a>
</g>
</g>
<!-- Node1&#45;&gt;Node4 -->
<g id="edge3" class="edge"><title>Node1&#45;&gt;Node4</title>
<path fill="none" stroke="midnightblue" d="M96.0419,-59.0868C114.337,-54.4537 135.305,-49.1436 153.801,-44.4596"/>
<polygon fill="midnightblue" stroke="midnightblue" points="154.669,-47.8502 163.504,-42.0023 152.95,-41.0645 154.669,-47.8502"/>
</g>
<!-- Node5 -->
<g id="node5" class="node"><title>Node5</title>
<g id="a_node5"><a xlink:href="class_o_auth_request.html#afe9d0f6cb8e0dadb1c0faeea9ecafe45" target="_top" xlink:title="pretty much a helper function to set up the request ">
<polygon fill="white" stroke="black" points="312.079,-39 312.079,-71 465.921,-71 465.921,-39 312.079,-39"/>
<text text-anchor="start" x="320.079" y="-57" font-family="Helvetica,sans-Serif" font-size="10.00">OAuthRequest\from_consumer</text>
<text text-anchor="middle" x="389" y="-45" font-family="Helvetica,sans-Serif" font-size="10.00">_and_token</text>
</a>
</g>
</g>
<!-- Node4&#45;&gt;Node5 -->
<g id="edge4" class="edge"><title>Node4&#45;&gt;Node5</title>
<path fill="none" stroke="midnightblue" d="M276.277,-40.9583C284.716,-42.019 293.397,-43.11 302.013,-44.1929"/>
<polygon fill="midnightblue" stroke="midnightblue" points="301.72,-47.6835 312.079,-45.458 302.593,-40.7382 301.72,-47.6835"/>
</g>
<!-- Node8 -->
<g id="node8" class="node"><title>Node8</title>
<g id="a_node8"><a xlink:href="class_c_t_c_t_exception.html#adc8307ec7d7a2c730b0dac678d0e7fcb" target="_top" xlink:title="CTCTException\\generateError">
<polygon fill="white" stroke="black" points="313.473,-0 313.473,-20 464.527,-20 464.527,-0 313.473,-0"/>
<text text-anchor="middle" x="389" y="-6" font-family="Helvetica,sans-Serif" font-size="10.00">CTCTException\generateError</text>
</a>
</g>
</g>
<!-- Node4&#45;&gt;Node8 -->
<g id="edge7" class="edge"><title>Node4&#45;&gt;Node8</title>
<path fill="none" stroke="midnightblue" d="M276.277,-23.4312C285.099,-22.3706 294.186,-21.2781 303.187,-20.1961"/>
<polygon fill="midnightblue" stroke="midnightblue" points="303.782,-23.6499 313.293,-18.9812 302.946,-16.6999 303.782,-23.6499"/>
</g>
<!-- Node6 -->
<g id="node6" class="node"><title>Node6</title>
<g id="a_node6"><a xlink:href="class_o_auth_request.html#ae544b1c10b82d5a82dcc259064763420" target="_top" xlink:title="util function: current nonce ">
<polygon fill="white" stroke="black" points="503.074,-90 503.074,-122 626.926,-122 626.926,-90 503.074,-90"/>
<text text-anchor="start" x="511.074" y="-108" font-family="Helvetica,sans-Serif" font-size="10.00">OAuthRequest\generate</text>
<text text-anchor="middle" x="565" y="-96" font-family="Helvetica,sans-Serif" font-size="10.00">_nonce</text>
</a>
</g>
</g>
<!-- Node5&#45;&gt;Node6 -->
<g id="edge5" class="edge"><title>Node5&#45;&gt;Node6</title>
<path fill="none" stroke="midnightblue" d="M445.055,-71.1367C462.36,-76.209 481.624,-81.8552 499.522,-87.1012"/>
<polygon fill="midnightblue" stroke="midnightblue" points="498.723,-90.5142 509.303,-89.9683 500.692,-83.7968 498.723,-90.5142"/>
</g>
<!-- Node7 -->
<g id="node7" class="node"><title>Node7</title>
<g id="a_node7"><a xlink:href="class_o_auth_request.html#adfc6b936799f705d9a4442961a26e8cb" target="_top" xlink:title="util function: current timestamp ">
<polygon fill="white" stroke="black" points="503.074,-39 503.074,-71 626.926,-71 626.926,-39 503.074,-39"/>
<text text-anchor="start" x="511.074" y="-57" font-family="Helvetica,sans-Serif" font-size="10.00">OAuthRequest\generate</text>
<text text-anchor="middle" x="565" y="-45" font-family="Helvetica,sans-Serif" font-size="10.00">_timestamp</text>
</a>
</g>
</g>
<!-- Node5&#45;&gt;Node7 -->
<g id="edge6" class="edge"><title>Node5&#45;&gt;Node7</title>
<path fill="none" stroke="midnightblue" d="M466.066,-55C474.939,-55 483.966,-55 492.771,-55"/>
<polygon fill="midnightblue" stroke="midnightblue" points="492.981,-58.5001 502.981,-55 492.981,-51.5001 492.981,-58.5001"/>
</g>
<!-- Node9 -->
<g id="node9" class="node"><title>Node9</title>
<g id="a_node9"><a xlink:href="class_c_t_c_t_exception.html#a6a86531406328bbd2a6c6252b7fb3a70" target="_top" xlink:title="CTCTException\\logError">
<polygon fill="white" stroke="black" points="502.54,-0 502.54,-20 627.46,-20 627.46,-0 502.54,-0"/>
<text text-anchor="middle" x="565" y="-6" font-family="Helvetica,sans-Serif" font-size="10.00">CTCTException\logError</text>
</a>
</g>
</g>
<!-- Node8&#45;&gt;Node9 -->
<g id="edge8" class="edge"><title>Node8&#45;&gt;Node9</title>
<path fill="none" stroke="midnightblue" d="M464.549,-10C473.73,-10 483.101,-10 492.239,-10"/>
<polygon fill="midnightblue" stroke="midnightblue" points="492.437,-13.5001 502.437,-10 492.436,-6.5001 492.437,-13.5001"/>
</g>
</g>
</svg>
