<?xml version="1.0" encoding="UTF-8" standalone="no"?>
<!DOCTYPE svg PUBLIC "-//W3C//DTD SVG 1.1//EN"
 "http://www.w3.org/Graphics/SVG/1.1/DTD/svg11.dtd">
<!-- Generated by graphviz version 2.30.1 (20130221.2233)
 -->
<!-- Title: Net_DNS_Packet\parse_rr Pages: 1 -->
<svg width="692pt" height="190pt"
 viewBox="0.00 0.00 692.00 190.00" xmlns="http://www.w3.org/2000/svg" xmlns:xlink="http://www.w3.org/1999/xlink">
<g id="graph0" class="graph" transform="scale(1 1) rotate(0) translate(4 186)">
<title>Net_DNS_Packet\parse_rr</title>
<polygon fill="white" stroke="white" points="-4,5 -4,-186 689,-186 689,5 -4,5"/>
<!-- Node1 -->
<g id="node1" class="node"><title>Node1</title>
<polygon fill="#bfbfbf" stroke="black" points="-0.191895,-103 -0.191895,-123 134.192,-123 134.192,-103 -0.191895,-103"/>
<text text-anchor="middle" x="67" y="-109" font-family="Helvetica,sans-Serif" font-size="10.00">Net_DNS_Packet\parse_rr</text>
</g>
<!-- Node2 -->
<g id="node2" class="node"><title>Node2</title>
<g id="a_node2"><a xlink:href="class_net___d_n_s.html#aa174e141c3f35c55667c426f4e14fdbf" target="_top" xlink:title="Translates RR class integers into names. ">
<polygon fill="white" stroke="black" points="185.148,-162 185.148,-182 302.852,-182 302.852,-162 185.148,-162"/>
<text text-anchor="middle" x="244" y="-168" font-family="Helvetica,sans-Serif" font-size="10.00">Net_DNS\classesbyval</text>
</a>
</g>
</g>
<!-- Node1&#45;&gt;Node2 -->
<g id="edge1" class="edge"><title>Node1&#45;&gt;Node2</title>
<path fill="none" stroke="midnightblue" d="M92.4915,-123.139C113.004,-131.443 143.153,-143.213 170,-152 177.552,-154.472 185.609,-156.892 193.511,-159.146"/>
<polygon fill="midnightblue" stroke="midnightblue" points="192.816,-162.586 203.389,-161.905 194.699,-155.844 192.816,-162.586"/>
</g>
<!-- Node3 -->
<g id="node3" class="node"><title>Node3</title>
<g id="a_node3"><a xlink:href="class_net___d_n_s___packet.html#a9844b7ce62cb096db44f58882f8ca403" target="_top" xlink:title="DNS packet decompression method. ">
<polygon fill="white" stroke="black" points="170.68,-123 170.68,-143 317.32,-143 317.32,-123 170.68,-123"/>
<text text-anchor="middle" x="244" y="-129" font-family="Helvetica,sans-Serif" font-size="10.00">Net_DNS_Packet\dn_expand</text>
</a>
</g>
</g>
<!-- Node1&#45;&gt;Node3 -->
<g id="edge2" class="edge"><title>Node1&#45;&gt;Node3</title>
<path fill="none" stroke="midnightblue" d="M134.659,-120.618C143.06,-121.578 151.732,-122.569 160.342,-123.553"/>
<polygon fill="midnightblue" stroke="midnightblue" points="160.068,-127.045 170.4,-124.703 160.863,-120.09 160.068,-127.045"/>
</g>
<!-- Node4 -->
<g id="node4" class="node"><title>Node4</title>
<g id="a_node4"><a xlink:href="class_net___d_n_s___r_r.html#a135785ee6a8c1f0a5e0597d7f61465b5" target="_top" xlink:title="Net_DNS_RR\\factory">
<polygon fill="white" stroke="black" points="188.485,-84 188.485,-104 299.515,-104 299.515,-84 188.485,-84"/>
<text text-anchor="middle" x="244" y="-90" font-family="Helvetica,sans-Serif" font-size="10.00">Net_DNS_RR\factory</text>
</a>
</g>
</g>
<!-- Node1&#45;&gt;Node4 -->
<g id="edge3" class="edge"><title>Node1&#45;&gt;Node4</title>
<path fill="none" stroke="midnightblue" d="M134.659,-105.763C148.961,-104.21 164.051,-102.572 178.278,-101.027"/>
<polygon fill="midnightblue" stroke="midnightblue" points="178.897,-104.48 188.461,-99.9214 178.142,-97.5213 178.897,-104.48"/>
</g>
<!-- Node11 -->
<g id="node11" class="node"><title>Node11</title>
<g id="a_node11"><a xlink:href="class_net___d_n_s.html#a861c4a9129fe2a4993108b6925d58f93" target="_top" xlink:title="Translates RR type integers into names. ">
<polygon fill="white" stroke="black" points="189.87,-45 189.87,-65 298.13,-65 298.13,-45 189.87,-45"/>
<text text-anchor="middle" x="244" y="-51" font-family="Helvetica,sans-Serif" font-size="10.00">Net_DNS\typesbyval</text>
</a>
</g>
</g>
<!-- Node1&#45;&gt;Node11 -->
<g id="edge12" class="edge"><title>Node1&#45;&gt;Node11</title>
<path fill="none" stroke="midnightblue" d="M93.3492,-102.837C113.854,-94.7914 143.562,-83.5275 170,-75 177.735,-72.505 185.994,-70.0481 194.072,-67.7566"/>
<polygon fill="midnightblue" stroke="midnightblue" points="195.093,-71.1056 203.788,-65.052 193.216,-64.362 195.093,-71.1056"/>
</g>
<!-- Node5 -->
<g id="node5" class="node"><title>Node5</title>
<g id="a_node5"><a xlink:href="class_net___d_n_s___r_r.html#a1654146cab0e22d9bae1dae01d42f9fd" target="_top" xlink:title="Net_DNS_RR\\new_from\l_string">
<polygon fill="white" stroke="black" points="366.537,-27 366.537,-59 491.463,-59 491.463,-27 366.537,-27"/>
<text text-anchor="start" x="374.537" y="-45" font-family="Helvetica,sans-Serif" font-size="10.00">Net_DNS_RR\new_from</text>
<text text-anchor="middle" x="429" y="-33" font-family="Helvetica,sans-Serif" font-size="10.00">_string</text>
</a>
</g>
</g>
<!-- Node4&#45;&gt;Node5 -->
<g id="edge4" class="edge"><title>Node4&#45;&gt;Node5</title>
<path fill="none" stroke="midnightblue" d="M281.777,-83.9803C293.372,-80.8062 306.225,-77.2721 318,-74 332.134,-70.0722 347.28,-65.8273 361.674,-61.7762"/>
<polygon fill="midnightblue" stroke="midnightblue" points="362.821,-65.0894 371.497,-59.0088 360.922,-58.3517 362.821,-65.0894"/>
</g>
<!-- Node9 -->
<g id="node9" class="node"><title>Node9</title>
<g id="a_node9"><a xlink:href="class_net___d_n_s___r_r.html#a14ca0dc83ff30526df3d595b83ef13dd" target="_top" xlink:title="Net_DNS_RR\\new_from_data">
<polygon fill="white" stroke="black" points="354.025,-129 354.025,-149 503.975,-149 503.975,-129 354.025,-129"/>
<text text-anchor="middle" x="429" y="-135" font-family="Helvetica,sans-Serif" font-size="10.00">Net_DNS_RR\new_from_data</text>
</a>
</g>
</g>
<!-- Node4&#45;&gt;Node9 -->
<g id="edge8" class="edge"><title>Node4&#45;&gt;Node9</title>
<path fill="none" stroke="midnightblue" d="M286.069,-104.099C313.029,-110.728 348.483,-119.447 377.212,-126.511"/>
<polygon fill="midnightblue" stroke="midnightblue" points="376.522,-129.946 387.068,-128.935 378.193,-123.148 376.522,-129.946"/>
</g>
<!-- Node10 -->
<g id="node10" class="node"><title>Node10</title>
<g id="a_node10"><a xlink:href="class_net___d_n_s___r_r.html#ae21f552addb2e6fea8f4e87ea883ba78" target="_top" xlink:title="Net_DNS_RR\\new_from\l_array">
<polygon fill="white" stroke="black" points="366.537,-78 366.537,-110 491.463,-110 491.463,-78 366.537,-78"/>
<text text-anchor="start" x="374.537" y="-96" font-family="Helvetica,sans-Serif" font-size="10.00">Net_DNS_RR\new_from</text>
<text text-anchor="middle" x="429" y="-84" font-family="Helvetica,sans-Serif" font-size="10.00">_array</text>
</a>
</g>
</g>
<!-- Node4&#45;&gt;Node10 -->
<g id="edge10" class="edge"><title>Node4&#45;&gt;Node10</title>
<path fill="none" stroke="midnightblue" d="M299.906,-94C317.583,-94 337.442,-94 356.151,-94"/>
<polygon fill="midnightblue" stroke="midnightblue" points="356.405,-97.5001 366.405,-94 356.405,-90.5001 356.405,-97.5001"/>
</g>
<!-- Node6 -->
<g id="node6" class="node"><title>Node6</title>
<g id="a_node6"><a xlink:href="class_net___d_n_s___r_r.html#ab64df1897e6e896b456e7007085fad40" target="_top" xlink:title="Net_DNS_RR\\Net_DNS_RR">
<polygon fill="white" stroke="black" points="540.37,-84 540.37,-104 683.63,-104 683.63,-84 540.37,-84"/>
<text text-anchor="middle" x="612" y="-90" font-family="Helvetica,sans-Serif" font-size="10.00">Net_DNS_RR\Net_DNS_RR</text>
</a>
</g>
</g>
<!-- Node5&#45;&gt;Node6 -->
<g id="edge5" class="edge"><title>Node5&#45;&gt;Node6</title>
<path fill="none" stroke="midnightblue" d="M487.27,-59.1367C512.553,-66.2609 541.856,-74.5173 565.596,-81.2067"/>
<polygon fill="midnightblue" stroke="midnightblue" points="564.828,-84.6264 575.402,-83.9697 566.726,-77.8887 564.828,-84.6264"/>
</g>
<!-- Node7 -->
<g id="node7" class="node"><title>Node7</title>
<g id="a_node7"><a xlink:href="class_net___d_n_s.html#a1e086e94cfa4b747b481b1e5859a1caf" target="_top" xlink:title="translates a DNS class from it&#39;s name to it&#39;s integer value. ">
<polygon fill="white" stroke="black" points="547.032,-39 547.032,-59 676.968,-59 676.968,-39 547.032,-39"/>
<text text-anchor="middle" x="612" y="-45" font-family="Helvetica,sans-Serif" font-size="10.00">Net_DNS\classesbyname</text>
</a>
</g>
</g>
<!-- Node5&#45;&gt;Node7 -->
<g id="edge6" class="edge"><title>Node5&#45;&gt;Node7</title>
<path fill="none" stroke="midnightblue" d="M491.531,-45.0397C506.02,-45.52 521.616,-46.037 536.603,-46.5338"/>
<polygon fill="midnightblue" stroke="midnightblue" points="536.75,-50.0405 546.861,-46.8738 536.982,-43.0444 536.75,-50.0405"/>
</g>
<!-- Node8 -->
<g id="node8" class="node"><title>Node8</title>
<g id="a_node8"><a xlink:href="class_net___d_n_s.html#a1420f63422265cad4ceb1899647e53e6" target="_top" xlink:title="Translates RR type names into integers. ">
<polygon fill="white" stroke="black" points="551.754,-0 551.754,-20 672.246,-20 672.246,-0 551.754,-0"/>
<text text-anchor="middle" x="612" y="-6" font-family="Helvetica,sans-Serif" font-size="10.00">Net_DNS\typesbyname</text>
</a>
</g>
</g>
<!-- Node5&#45;&gt;Node8 -->
<g id="edge7" class="edge"><title>Node5&#45;&gt;Node8</title>
<path fill="none" stroke="midnightblue" d="M491.531,-31.7817C509.008,-28.5953 528.096,-25.1151 545.783,-21.8904"/>
<polygon fill="midnightblue" stroke="midnightblue" points="546.803,-25.2623 556.013,-20.0253 545.547,-18.3758 546.803,-25.2623"/>
</g>
<!-- Node9&#45;&gt;Node6 -->
<g id="edge9" class="edge"><title>Node9&#45;&gt;Node6</title>
<path fill="none" stroke="midnightblue" d="M470.62,-128.901C497.285,-122.272 532.352,-113.553 560.767,-106.489"/>
<polygon fill="midnightblue" stroke="midnightblue" points="561.656,-109.875 570.516,-104.065 559.967,-103.081 561.656,-109.875"/>
</g>
<!-- Node10&#45;&gt;Node6 -->
<g id="edge11" class="edge"><title>Node10&#45;&gt;Node6</title>
<path fill="none" stroke="midnightblue" d="M491.531,-94C503.904,-94 517.084,-94 530.003,-94"/>
<polygon fill="midnightblue" stroke="midnightblue" points="530.287,-97.5001 540.287,-94 530.287,-90.5001 530.287,-97.5001"/>
</g>
</g>
</svg>
