<?xml version="1.0" encoding="UTF-8" standalone="no"?>
<!DOCTYPE svg PUBLIC "-//W3C//DTD SVG 1.1//EN"
 "http://www.w3.org/Graphics/SVG/1.1/DTD/svg11.dtd">
<!-- Generated by graphviz version 2.30.1 (20130221.2233)
 -->
<!-- Title: OAuthRequest\get_normalized_http_url Pages: 1 -->
<svg width="510pt" height="79pt"
 viewBox="0.00 0.00 510.00 79.00" xmlns="http://www.w3.org/2000/svg" xmlns:xlink="http://www.w3.org/1999/xlink">
<g id="graph0" class="graph" transform="scale(1 1) rotate(0) translate(4 75)">
<title>OAuthRequest\get_normalized_http_url</title>
<polygon fill="white" stroke="white" points="-4,5 -4,-75 507,-75 507,5 -4,5"/>
<!-- Node1 -->
<g id="node1" class="node"><title>Node1</title>
<polygon fill="#bfbfbf" stroke="black" points="0.625977,-16 0.625977,-48 153.374,-48 153.374,-16 0.625977,-16"/>
<text text-anchor="start" x="8.62598" y="-34" font-family="Helvetica,sans-Serif" font-size="10.00">OAuthRequest\get_normalized</text>
<text text-anchor="middle" x="77" y="-22" font-family="Helvetica,sans-Serif" font-size="10.00">_http_url</text>
</g>
<!-- Node2 -->
<g id="node2" class="node"><title>Node2</title>
<g id="a_node2"><a xlink:href="class_o_auth_request.html#a91adca76e918ade136d9c56a46695e46" target="_top" xlink:title="Returns the base string of this request. ">
<polygon fill="white" stroke="black" points="190.513,-39 190.513,-71 335.487,-71 335.487,-39 190.513,-39"/>
<text text-anchor="start" x="198.513" y="-57" font-family="Helvetica,sans-Serif" font-size="10.00">OAuthRequest\get_signature</text>
<text text-anchor="middle" x="263" y="-45" font-family="Helvetica,sans-Serif" font-size="10.00">_base_string</text>
</a>
</g>
</g>
<!-- Node1&#45;&gt;Node2 -->
<g id="edge1" class="edge"><title>Node1&#45;&gt;Node2</title>
<path fill="none" stroke="midnightblue" d="M163.708,-42.7135C172.675,-43.8344 181.722,-44.9653 190.506,-46.0633"/>
<polygon fill="midnightblue" stroke="midnightblue" points="163.993,-39.222 153.636,-41.4545 163.125,-46.168 163.993,-39.222"/>
</g>
<!-- Node3 -->
<g id="node3" class="node"><title>Node3</title>
<g id="a_node3"><a xlink:href="class_o_auth_request.html#a4d27097917ad20e1958f1034eaa1702f" target="_top" xlink:title="builds a url usable for a GET request ">
<polygon fill="white" stroke="black" points="208.306,-0 208.306,-20 317.694,-20 317.694,-0 208.306,-0"/>
<text text-anchor="middle" x="263" y="-6" font-family="Helvetica,sans-Serif" font-size="10.00">OAuthRequest\to_url</text>
</a>
</g>
</g>
<!-- Node1&#45;&gt;Node3 -->
<g id="edge2" class="edge"><title>Node1&#45;&gt;Node3</title>
<path fill="none" stroke="midnightblue" d="M163.59,-21.7664C178.816,-19.9459 194.278,-18.0972 208.295,-16.4212"/>
<polygon fill="midnightblue" stroke="midnightblue" points="163.15,-18.294 153.636,-22.9565 163.981,-25.2445 163.15,-18.294"/>
</g>
<!-- Node4 -->
<g id="node4" class="node"><title>Node4</title>
<g id="a_node4"><a xlink:href="class_o_auth_request.html#a28fea7b75af1500bad2d35f88e77c0dd" target="_top" xlink:title="OAuthRequest\\__toString">
<polygon fill="white" stroke="black" points="372.02,-0 372.02,-20 501.98,-20 501.98,-0 372.02,-0"/>
<text text-anchor="middle" x="437" y="-6" font-family="Helvetica,sans-Serif" font-size="10.00">OAuthRequest\__toString</text>
</a>
</g>
</g>
<!-- Node3&#45;&gt;Node4 -->
<g id="edge3" class="edge"><title>Node3&#45;&gt;Node4</title>
<path fill="none" stroke="midnightblue" d="M328.196,-10C342.512,-10 357.69,-10 371.997,-10"/>
<polygon fill="midnightblue" stroke="midnightblue" points="327.95,-6.5001 317.95,-10 327.95,-13.5001 327.95,-6.5001"/>
</g>
</g>
</svg>
