<?xml version="1.0" encoding="UTF-8" standalone="no"?>
<!DOCTYPE svg PUBLIC "-//W3C//DTD SVG 1.1//EN"
 "http://www.w3.org/Graphics/SVG/1.1/DTD/svg11.dtd">
<!-- Generated by graphviz version 2.30.1 (20130221.2233)
 -->
<!-- Title: Net_DNS_Resolver\send_tcp Pages: 1 -->
<svg width="846pt" height="67pt"
 viewBox="0.00 0.00 846.00 67.00" xmlns="http://www.w3.org/2000/svg" xmlns:xlink="http://www.w3.org/1999/xlink">
<g id="graph0" class="graph" transform="scale(1 1) rotate(0) translate(4 63)">
<title>Net_DNS_Resolver\send_tcp</title>
<polygon fill="white" stroke="white" points="-4,5 -4,-63 843,-63 843,5 -4,5"/>
<!-- Node1 -->
<g id="node1" class="node"><title>Node1</title>
<polygon fill="#bfbfbf" stroke="black" points="0.689941,-19 0.689941,-39 147.31,-39 147.31,-19 0.689941,-19"/>
<text text-anchor="middle" x="74" y="-25" font-family="Helvetica,sans-Serif" font-size="10.00">Net_DNS_Resolver\send_tcp</text>
</g>
<!-- Node2 -->
<g id="node2" class="node"><title>Node2</title>
<g id="a_node2"><a xlink:href="class_net___d_n_s___resolver.html#a9a745e4f5009dac279562318bb927370" target="_top" xlink:title="Performs an AXFR query (zone transfer) ">
<polygon fill="white" stroke="black" points="186.648,-39 186.648,-59 309.352,-59 309.352,-39 186.648,-39"/>
<text text-anchor="middle" x="248" y="-45" font-family="Helvetica,sans-Serif" font-size="10.00">Net_DNS_Resolver\axfr</text>
</a>
</g>
</g>
<!-- Node1&#45;&gt;Node2 -->
<g id="edge1" class="edge"><title>Node1&#45;&gt;Node2</title>
<path fill="none" stroke="midnightblue" d="M157.592,-38.6037C167.37,-39.7407 177.207,-40.8845 186.595,-41.9762"/>
<polygon fill="midnightblue" stroke="midnightblue" points="157.782,-35.1024 147.445,-37.4238 156.974,-42.0555 157.782,-35.1024"/>
</g>
<!-- Node4 -->
<g id="node4" class="node"><title>Node4</title>
<g id="a_node4"><a xlink:href="class_net___d_n_s___resolver.html#aaabc96cbbb5bce627d31583d0e6af3d5" target="_top" xlink:title="Sends a packet to a nameserver. ">
<polygon fill="white" stroke="black" points="184.141,-0 184.141,-20 311.859,-20 311.859,-0 184.141,-0"/>
<text text-anchor="middle" x="248" y="-6" font-family="Helvetica,sans-Serif" font-size="10.00">Net_DNS_Resolver\send</text>
</a>
</g>
</g>
<!-- Node1&#45;&gt;Node4 -->
<g id="edge3" class="edge"><title>Node1&#45;&gt;Node4</title>
<path fill="none" stroke="midnightblue" d="M157.448,-19.8923C166.346,-18.9095 175.294,-17.921 183.911,-16.9691"/>
<polygon fill="midnightblue" stroke="midnightblue" points="157,-16.4205 147.445,-20.9974 157.769,-23.3781 157,-16.4205"/>
</g>
<!-- Node3 -->
<g id="node3" class="node"><title>Node3</title>
<g id="a_node3"><a xlink:href="class_net___d_n_s___resolver.html#a73f7861954f4990bc8d18d6a82f7334d" target="_top" xlink:title="Performs an AXFR query (zone transfer) (OLD BUGGY STYLE) ">
<polygon fill="white" stroke="black" points="352.195,-39 352.195,-59 493.805,-59 493.805,-39 352.195,-39"/>
<text text-anchor="middle" x="423" y="-45" font-family="Helvetica,sans-Serif" font-size="10.00">Net_DNS_Resolver\axfr_old</text>
</a>
</g>
</g>
<!-- Node2&#45;&gt;Node3 -->
<g id="edge2" class="edge"><title>Node2&#45;&gt;Node3</title>
<path fill="none" stroke="midnightblue" d="M319.636,-49C330.332,-49 341.362,-49 352.043,-49"/>
<polygon fill="midnightblue" stroke="midnightblue" points="319.507,-45.5001 309.507,-49 319.507,-52.5001 319.507,-45.5001"/>
</g>
<!-- Node5 -->
<g id="node5" class="node"><title>Node5</title>
<g id="a_node5"><a xlink:href="class_net___d_n_s___resolver.html#ab00f28a838dbaebffe986b2fb81b4e8f" target="_top" xlink:title="Queries nameservers for an answer. ">
<polygon fill="white" stroke="black" points="348.311,-0 348.311,-20 497.689,-20 497.689,-0 348.311,-0"/>
<text text-anchor="middle" x="423" y="-6" font-family="Helvetica,sans-Serif" font-size="10.00">Net_DNS_Resolver\rawQuery</text>
</a>
</g>
</g>
<!-- Node4&#45;&gt;Node5 -->
<g id="edge4" class="edge"><title>Node4&#45;&gt;Node5</title>
<path fill="none" stroke="midnightblue" d="M322.02,-10C330.691,-10 339.548,-10 348.231,-10"/>
<polygon fill="midnightblue" stroke="midnightblue" points="321.946,-6.5001 311.946,-10 321.946,-13.5001 321.946,-6.5001"/>
</g>
<!-- Node6 -->
<g id="node6" class="node"><title>Node6</title>
<g id="a_node6"><a xlink:href="class_net___d_n_s___resolver.html#a433200f56099815168ddd63a715e8ac5" target="_top" xlink:title="Queries nameservers for an answer. ">
<polygon fill="white" stroke="black" points="534.476,-0 534.476,-20 665.524,-20 665.524,-0 534.476,-0"/>
<text text-anchor="middle" x="600" y="-6" font-family="Helvetica,sans-Serif" font-size="10.00">Net_DNS_Resolver\query</text>
</a>
</g>
</g>
<!-- Node5&#45;&gt;Node6 -->
<g id="edge5" class="edge"><title>Node5&#45;&gt;Node6</title>
<path fill="none" stroke="midnightblue" d="M507.732,-10C516.647,-10 525.614,-10 534.262,-10"/>
<polygon fill="midnightblue" stroke="midnightblue" points="507.709,-6.5001 497.709,-10 507.709,-13.5001 507.709,-6.5001"/>
</g>
<!-- Node7 -->
<g id="node7" class="node"><title>Node7</title>
<g id="a_node7"><a xlink:href="class_net___d_n_s___resolver.html#a13ee3a449b00b1a0e2f36bb1404e4291" target="_top" xlink:title="Searches nameservers for an answer. ">
<polygon fill="white" stroke="black" points="701.976,-0 701.976,-20 838.024,-20 838.024,-0 701.976,-0"/>
<text text-anchor="middle" x="770" y="-6" font-family="Helvetica,sans-Serif" font-size="10.00">Net_DNS_Resolver\search</text>
</a>
</g>
</g>
<!-- Node6&#45;&gt;Node7 -->
<g id="edge6" class="edge"><title>Node6&#45;&gt;Node7</title>
<path fill="none" stroke="midnightblue" d="M676.23,-10C684.723,-10 693.337,-10 701.72,-10"/>
<polygon fill="midnightblue" stroke="midnightblue" points="675.953,-6.5001 665.953,-10 675.953,-13.5001 675.953,-6.5001"/>
</g>
</g>
</svg>
