<?xml version="1.0" encoding="UTF-8" standalone="no"?>
<!DOCTYPE svg PUBLIC "-//W3C//DTD SVG 1.1//EN"
 "http://www.w3.org/Graphics/SVG/1.1/DTD/svg11.dtd">
<!-- Generated by graphviz version 2.30.1 (20130221.2233)
 -->
<!-- Title: CTCT_Admin_Page\__construct Pages: 1 -->
<svg width="376pt" height="223pt"
 viewBox="0.00 0.00 376.00 223.00" xmlns="http://www.w3.org/2000/svg" xmlns:xlink="http://www.w3.org/1999/xlink">
<g id="graph0" class="graph" transform="scale(1 1) rotate(0) translate(4 219)">
<title>CTCT_Admin_Page\__construct</title>
<polygon fill="white" stroke="white" points="-4,5 -4,-219 373,-219 373,5 -4,5"/>
<!-- Node1 -->
<g id="node1" class="node"><title>Node1</title>
<polygon fill="#bfbfbf" stroke="black" points="0.0224609,-97 0.0224609,-117 159.978,-117 159.978,-97 0.0224609,-97"/>
<text text-anchor="middle" x="80" y="-103" font-family="Helvetica,sans-Serif" font-size="10.00">CTCT_Admin_Page\__construct</text>
</g>
<!-- Node2 -->
<g id="node2" class="node"><title>Node2</title>
<g id="a_node2"><a xlink:href="class_c_t_c_t___admin___page.html#ae9d8df468eb4b9fd7b33e5295df261a9" target="_top" xlink:title="CTCT_Admin_Page\\addActions">
<polygon fill="white" stroke="black" points="203.131,-195 203.131,-215 360.869,-215 360.869,-195 203.131,-195"/>
<text text-anchor="middle" x="282" y="-201" font-family="Helvetica,sans-Serif" font-size="10.00">CTCT_Admin_Page\addActions</text>
</a>
</g>
</g>
<!-- Node1&#45;&gt;Node2 -->
<g id="edge1" class="edge"><title>Node1&#45;&gt;Node2</title>
<path fill="none" stroke="midnightblue" d="M92.8763,-117.262C112.822,-133.963 154.911,-166.968 196,-185 202.156,-187.701 208.729,-190.067 215.391,-192.132"/>
<polygon fill="midnightblue" stroke="midnightblue" points="214.599,-195.546 225.177,-194.947 216.534,-188.819 214.599,-195.546"/>
</g>
<!-- Node3 -->
<g id="node3" class="node"><title>Node3</title>
<g id="a_node3"><a xlink:href="class_c_t_c_t___admin___page.html#a0f0cd8a2a0f3084b67a5981a9c6b869d" target="_top" xlink:title="CTCT_Admin_Page\\addIncludes">
<polygon fill="white" stroke="black" points="200.904,-156 200.904,-176 363.096,-176 363.096,-156 200.904,-156"/>
<text text-anchor="middle" x="282" y="-162" font-family="Helvetica,sans-Serif" font-size="10.00">CTCT_Admin_Page\addIncludes</text>
</a>
</g>
</g>
<!-- Node1&#45;&gt;Node3 -->
<g id="edge2" class="edge"><title>Node1&#45;&gt;Node3</title>
<path fill="none" stroke="midnightblue" d="M108.186,-117.042C131.343,-125.398 165.6,-137.29 196,-146 205.194,-148.634 215.018,-151.184 224.604,-153.532"/>
<polygon fill="midnightblue" stroke="midnightblue" points="223.93,-156.97 234.471,-155.901 225.564,-150.163 223.93,-156.97"/>
</g>
<!-- Node4 -->
<g id="node4" class="node"><title>Node4</title>
<g id="a_node4"><a xlink:href="class_w_p___c_t_c_t.html#a485eac1e69d12c9e2ecac70bf3295c3f" target="_top" xlink:title="WP_CTCT\\getInstance">
<polygon fill="white" stroke="black" points="222.594,-117 222.594,-137 341.406,-137 341.406,-117 222.594,-117"/>
<text text-anchor="middle" x="282" y="-123" font-family="Helvetica,sans-Serif" font-size="10.00">WP_CTCT\getInstance</text>
</a>
</g>
</g>
<!-- Node1&#45;&gt;Node4 -->
<g id="edge3" class="edge"><title>Node1&#45;&gt;Node4</title>
<path fill="none" stroke="midnightblue" d="M160.045,-114.905C177.316,-116.632 195.459,-118.446 212.287,-120.129"/>
<polygon fill="midnightblue" stroke="midnightblue" points="212.278,-123.645 222.576,-121.158 212.974,-116.68 212.278,-123.645"/>
</g>
<!-- Node5 -->
<g id="node5" class="node"><title>Node5</title>
<g id="a_node5"><a xlink:href="class_c_t_c_t___admin___page.html#af75e5afacc1fcfff476e13e5de52eefe" target="_top" xlink:title="CTCT_Admin_Page\\getKey">
<polygon fill="white" stroke="black" points="212.303,-78 212.303,-98 351.697,-98 351.697,-78 212.303,-78"/>
<text text-anchor="middle" x="282" y="-84" font-family="Helvetica,sans-Serif" font-size="10.00">CTCT_Admin_Page\getKey</text>
</a>
</g>
</g>
<!-- Node1&#45;&gt;Node5 -->
<g id="edge4" class="edge"><title>Node1&#45;&gt;Node5</title>
<path fill="none" stroke="midnightblue" d="M160.045,-99.4907C173.927,-98.1719 188.373,-96.7995 202.247,-95.4815"/>
<polygon fill="midnightblue" stroke="midnightblue" points="202.608,-98.9631 212.233,-94.5329 201.946,-91.9944 202.608,-98.9631"/>
</g>
<!-- Node6 -->
<g id="node6" class="node"><title>Node6</title>
<g id="a_node6"><a xlink:href="class_c_t_c_t___admin___page.html#a96eaf870d8a4a93746149a495de929e0" target="_top" xlink:title="CTCT_Admin_Page\\getTitle">
<polygon fill="white" stroke="black" points="211.656,-39 211.656,-59 352.344,-59 352.344,-39 211.656,-39"/>
<text text-anchor="middle" x="282" y="-45" font-family="Helvetica,sans-Serif" font-size="10.00">CTCT_Admin_Page\getTitle</text>
</a>
</g>
</g>
<!-- Node1&#45;&gt;Node6 -->
<g id="edge5" class="edge"><title>Node1&#45;&gt;Node6</title>
<path fill="none" stroke="midnightblue" d="M109.142,-96.9308C132.294,-88.8337 166.05,-77.454 196,-69 205.312,-66.3714 215.265,-63.8102 224.96,-61.4463"/>
<polygon fill="midnightblue" stroke="midnightblue" points="226.021,-64.7912 234.932,-59.0597 224.392,-57.9835 226.021,-64.7912"/>
</g>
<!-- Node7 -->
<g id="node7" class="node"><title>Node7</title>
<g id="a_node7"><a xlink:href="class_c_t_c_t___admin___page.html#a68f9b3e2f89158fe636f431b160455d4" target="_top" xlink:title="CTCT_Admin_Page\\processForms">
<polygon fill="white" stroke="black" points="196.197,-0 196.197,-20 367.803,-20 367.803,-0 196.197,-0"/>
<text text-anchor="middle" x="282" y="-6" font-family="Helvetica,sans-Serif" font-size="10.00">CTCT_Admin_Page\processForms</text>
</a>
</g>
</g>
<!-- Node1&#45;&gt;Node7 -->
<g id="edge6" class="edge"><title>Node1&#45;&gt;Node7</title>
<path fill="none" stroke="midnightblue" d="M92.9014,-96.8779C112.883,-80.4022 155.023,-47.8367 196,-30 202.164,-27.317 208.743,-24.9634 215.408,-22.9055"/>
<polygon fill="midnightblue" stroke="midnightblue" points="216.549,-26.2195 225.196,-20.0983 214.619,-19.4907 216.549,-26.2195"/>
</g>
</g>
</svg>
