<?xml version="1.0" encoding="UTF-8" standalone="no"?>
<!DOCTYPE svg PUBLIC "-//W3C//DTD SVG 1.1//EN"
 "http://www.w3.org/Graphics/SVG/1.1/DTD/svg11.dtd">
<!-- Generated by graphviz version 2.30.1 (20130221.2233)
 -->
<!-- Title: Net_DNS_RR Pages: 1 -->
<!--zoomable 457 -->
<svg id="main" version="1.1" xmlns="http://www.w3.org/2000/svg" xmlns:xlink="http://www.w3.org/1999/xlink" xml:space="preserve" onload="init(evt)">
<style type="text/css"><![CDATA[
.edge:hover path { stroke: red; }
.edge:hover polygon { stroke: red; fill: red; }
]]></style>
<script type="text/javascript"><![CDATA[
var edges = document.getElementsByTagName('g');
if (edges && edges.length) {
  for (var i=0;i<edges.length;i++) {
    if (edges[i].id.substr(0,4)=='edge') {
      edges[i].setAttribute('class','edge');
    }
  }
}
]]></script>
        <defs>
                <circle id="rim" cx="0" cy="0" r="7"/>
                <circle id="rim2" cx="0" cy="0" r="3.5"/>
                <g id="zoomPlus">
                        <use xlink:href="#rim" fill="#404040">
                                <set attributeName="fill" to="#808080" begin="zoomplus.mouseover" end="zoomplus.mouseout"/>
                        </use>
                        <path d="M-4,0h8M0,-4v8" fill="none" stroke="white" stroke-width="1.5" pointer-events="none"/>
                </g>
                <g id="zoomMin">
                        <use xlink:href="#rim" fill="#404040">
                                <set attributeName="fill" to="#808080" begin="zoomminus.mouseover" end="zoomminus.mouseout"/>
                        </use>
                        <path d="M-4,0h8" fill="none" stroke="white" stroke-width="1.5" pointer-events="none"/>
                </g>
                <g id="dirArrow">
                        <path fill="none" stroke="white" stroke-width="1.5" d="M0,-3.0v7 M-2.5,-0.5L0,-3.0L2.5,-0.5"/>
                </g>
               <g id="resetDef">
                       <use xlink:href="#rim2" fill="#404040">
                               <set attributeName="fill" to="#808080" begin="reset.mouseover" end="reset.mouseout"/>
                       </use>
               </g>
        </defs>

<script type="text/javascript">
var viewWidth = 242;
var viewHeight = 457;
var sectionId = 'dynsection-0';
</script>
<script xlink:href="svgpan.js"/>
<svg id="graph" class="graph">
<g id="viewport">
<title>Net_DNS_RR</title>
<polygon fill="white" stroke="white" points="-4,5 -4,-453 239,-453 239,5 -4,5"/>
<!-- Node1 -->
<g id="node1" class="node"><title>Node1</title>
<polygon fill="#bfbfbf" stroke="black" points="-0.120605,-214 -0.120605,-234 78.1206,-234 78.1206,-214 -0.120605,-214"/>
<text text-anchor="middle" x="39" y="-220" font-family="Helvetica,sans-Serif" font-size="10.00">Net_DNS_RR</text>
</g>
<!-- Node2 -->
<g id="node2" class="node"><title>Node2</title>
<g id="a_node2"><a xlink:href="class_net___d_n_s___r_r___a.html" target="_top" xlink:title="Net_DNS_RR_A">
<polygon fill="white" stroke="black" points="128.764,-429 128.764,-449 219.236,-449 219.236,-429 128.764,-429"/>
<text text-anchor="middle" x="174" y="-435" font-family="Helvetica,sans-Serif" font-size="10.00">Net_DNS_RR_A</text>
</a>
</g>
</g>
<!-- Node1&#45;&gt;Node2 -->
<g id="edge1" class="edge"><title>Node1&#45;&gt;Node2</title>
<path fill="none" stroke="midnightblue" d="M42.0336,-244.273C47.0388,-283.513 63.4805,-370.261 114,-419 118.203,-423.055 123.258,-426.289 128.619,-428.869"/>
<polygon fill="midnightblue" stroke="midnightblue" points="45.4859,-243.658 40.8639,-234.124 38.5319,-244.459 45.4859,-243.658"/>
</g>
<!-- Node3 -->
<g id="node3" class="node"><title>Node3</title>
<g id="a_node3"><a xlink:href="class_net___d_n_s___r_r___a_a_a_a.html" target="_top" xlink:title="Net_DNS_RR_AAAA">
<polygon fill="white" stroke="black" points="118.759,-390 118.759,-410 229.241,-410 229.241,-390 118.759,-390"/>
<text text-anchor="middle" x="174" y="-396" font-family="Helvetica,sans-Serif" font-size="10.00">Net_DNS_RR_AAAA</text>
</a>
</g>
</g>
<!-- Node1&#45;&gt;Node3 -->
<g id="edge2" class="edge"><title>Node1&#45;&gt;Node3</title>
<path fill="none" stroke="midnightblue" d="M44.1203,-243.833C51.9713,-276.758 72.1583,-342.754 114,-380 118.605,-384.099 124.084,-387.364 129.82,-389.964"/>
<polygon fill="midnightblue" stroke="midnightblue" points="47.5237,-243.014 41.9172,-234.024 40.6938,-244.548 47.5237,-243.014"/>
</g>
<!-- Node4 -->
<g id="node4" class="node"><title>Node4</title>
<g id="a_node4"><a xlink:href="class_net___d_n_s___r_r___c_n_a_m_e.html" target="_top" xlink:title="Net_DNS_RR_CNAME">
<polygon fill="white" stroke="black" points="114.042,-351 114.042,-371 233.958,-371 233.958,-351 114.042,-351"/>
<text text-anchor="middle" x="174" y="-357" font-family="Helvetica,sans-Serif" font-size="10.00">Net_DNS_RR_CNAME</text>
</a>
</g>
</g>
<!-- Node1&#45;&gt;Node4 -->
<g id="edge3" class="edge"><title>Node1&#45;&gt;Node4</title>
<path fill="none" stroke="midnightblue" d="M47.4655,-243.568C58.305,-269.461 80.8023,-314.87 114,-341 119.184,-345.081 125.248,-348.352 131.477,-350.968"/>
<polygon fill="midnightblue" stroke="midnightblue" points="50.6284,-242.052 43.6516,-234.079 44.1333,-244.662 50.6284,-242.052"/>
</g>
<!-- Node5 -->
<g id="node5" class="node"><title>Node5</title>
<g id="a_node5"><a xlink:href="class_net___d_n_s___r_r___h_i_n_f_o.html" target="_top" xlink:title="Net_DNS_RR_HINFO">
<polygon fill="white" stroke="black" points="116.544,-312 116.544,-332 231.456,-332 231.456,-312 116.544,-312"/>
<text text-anchor="middle" x="174" y="-318" font-family="Helvetica,sans-Serif" font-size="10.00">Net_DNS_RR_HINFO</text>
</a>
</g>
</g>
<!-- Node1&#45;&gt;Node5 -->
<g id="edge4" class="edge"><title>Node1&#45;&gt;Node5</title>
<path fill="none" stroke="midnightblue" d="M53.2093,-242.421C66.682,-259.989 89.0971,-286.064 114,-302 120.195,-305.964 127.261,-309.234 134.3,-311.898"/>
<polygon fill="midnightblue" stroke="midnightblue" points="55.7958,-240.035 47.0132,-234.109 50.1835,-244.218 55.7958,-240.035"/>
</g>
<!-- Node6 -->
<g id="node6" class="node"><title>Node6</title>
<g id="a_node6"><a xlink:href="class_net___d_n_s___r_r___m_x.html" target="_top" xlink:title="Net_DNS_RR_MX">
<polygon fill="white" stroke="black" points="124.599,-273 124.599,-293 223.401,-293 223.401,-273 124.599,-273"/>
<text text-anchor="middle" x="174" y="-279" font-family="Helvetica,sans-Serif" font-size="10.00">Net_DNS_RR_MX</text>
</a>
</g>
</g>
<!-- Node1&#45;&gt;Node6 -->
<g id="edge5" class="edge"><title>Node1&#45;&gt;Node6</title>
<path fill="none" stroke="midnightblue" d="M66.2632,-239.143C80.1894,-246.837 97.7393,-256.011 114,-263 122.347,-266.587 131.568,-269.974 140.192,-272.905"/>
<polygon fill="midnightblue" stroke="midnightblue" points="67.6958,-235.934 57.2612,-234.098 64.2733,-242.04 67.6958,-235.934"/>
</g>
<!-- Node7 -->
<g id="node7" class="node"><title>Node7</title>
<g id="a_node7"><a xlink:href="class_net___d_n_s___r_r___n_a_p_t_r.html" target="_top" xlink:title="Net_DNS_RR_NAPTR">
<polygon fill="white" stroke="black" points="115.153,-234 115.153,-254 232.847,-254 232.847,-234 115.153,-234"/>
<text text-anchor="middle" x="174" y="-240" font-family="Helvetica,sans-Serif" font-size="10.00">Net_DNS_RR_NAPTR</text>
</a>
</g>
</g>
<!-- Node1&#45;&gt;Node7 -->
<g id="edge6" class="edge"><title>Node1&#45;&gt;Node7</title>
<path fill="none" stroke="midnightblue" d="M88.6084,-231.31C97.127,-232.591 106.069,-233.935 114.815,-235.25"/>
<polygon fill="midnightblue" stroke="midnightblue" points="88.8784,-227.811 78.4691,-229.785 87.8374,-234.733 88.8784,-227.811"/>
</g>
<!-- Node8 -->
<g id="node8" class="node"><title>Node8</title>
<g id="a_node8"><a xlink:href="class_net___d_n_s___r_r___n_s.html" target="_top" xlink:title="Net_DNS_RR_NS">
<polygon fill="white" stroke="black" points="125.153,-195 125.153,-215 222.847,-215 222.847,-195 125.153,-195"/>
<text text-anchor="middle" x="174" y="-201" font-family="Helvetica,sans-Serif" font-size="10.00">Net_DNS_RR_NS</text>
</a>
</g>
</g>
<!-- Node1&#45;&gt;Node8 -->
<g id="edge7" class="edge"><title>Node1&#45;&gt;Node8</title>
<path fill="none" stroke="midnightblue" d="M88.5629,-217.062C100.333,-215.381 112.913,-213.584 124.672,-211.904"/>
<polygon fill="midnightblue" stroke="midnightblue" points="87.8736,-213.625 78.4691,-218.504 88.8636,-220.555 87.8736,-213.625"/>
</g>
<!-- Node9 -->
<g id="node9" class="node"><title>Node9</title>
<g id="a_node9"><a xlink:href="class_net___d_n_s___r_r___p_t_r.html" target="_top" xlink:title="Net_DNS_RR_PTR">
<polygon fill="white" stroke="black" points="122.099,-156 122.099,-176 225.901,-176 225.901,-156 122.099,-156"/>
<text text-anchor="middle" x="174" y="-162" font-family="Helvetica,sans-Serif" font-size="10.00">Net_DNS_RR_PTR</text>
</a>
</g>
</g>
<!-- Node1&#45;&gt;Node9 -->
<g id="edge8" class="edge"><title>Node1&#45;&gt;Node9</title>
<path fill="none" stroke="midnightblue" d="M66.8662,-208.99C80.7126,-201.567 98.0084,-192.773 114,-186 122.465,-182.415 131.814,-179.005 140.525,-176.051"/>
<polygon fill="midnightblue" stroke="midnightblue" points="65.0052,-206.018 57.8898,-213.868 68.3475,-212.168 65.0052,-206.018"/>
</g>
<!-- Node10 -->
<g id="node10" class="node"><title>Node10</title>
<g id="a_node10"><a xlink:href="class_net___d_n_s___r_r___s_o_a.html" target="_top" xlink:title="Net_DNS_RR_SOA">
<polygon fill="white" stroke="black" points="121.54,-117 121.54,-137 226.46,-137 226.46,-117 121.54,-117"/>
<text text-anchor="middle" x="174" y="-123" font-family="Helvetica,sans-Serif" font-size="10.00">Net_DNS_RR_SOA</text>
</a>
</g>
</g>
<!-- Node1&#45;&gt;Node10 -->
<g id="edge9" class="edge"><title>Node1&#45;&gt;Node10</title>
<path fill="none" stroke="midnightblue" d="M53.4788,-205.542C67.0123,-188.21 89.347,-162.665 114,-147 120.299,-142.998 127.488,-139.7 134.631,-137.018"/>
<polygon fill="midnightblue" stroke="midnightblue" points="50.4977,-203.681 47.2383,-213.762 56.0729,-207.914 50.4977,-203.681"/>
</g>
<!-- Node11 -->
<g id="node11" class="node"><title>Node11</title>
<g id="a_node11"><a xlink:href="class_net___d_n_s___r_r___s_r_v.html" target="_top" xlink:title="Net_DNS_RR_SRV">
<polygon fill="white" stroke="black" points="121.906,-78 121.906,-98 226.094,-98 226.094,-78 121.906,-78"/>
<text text-anchor="middle" x="174" y="-84" font-family="Helvetica,sans-Serif" font-size="10.00">Net_DNS_RR_SRV</text>
</a>
</g>
</g>
<!-- Node1&#45;&gt;Node11 -->
<g id="edge10" class="edge"><title>Node1&#45;&gt;Node11</title>
<path fill="none" stroke="midnightblue" d="M47.6745,-204.213C58.6261,-178.478 81.1195,-133.777 114,-108 119.192,-103.93 125.26,-100.663 131.491,-98.0492"/>
<polygon fill="midnightblue" stroke="midnightblue" points="44.3525,-203.09 43.8082,-213.671 50.832,-205.739 44.3525,-203.09"/>
</g>
<!-- Node12 -->
<g id="node12" class="node"><title>Node12</title>
<g id="a_node12"><a xlink:href="class_net___d_n_s___r_r___t_s_i_g.html" target="_top" xlink:title="Net_DNS_RR_TSIG">
<polygon fill="white" stroke="black" points="120.431,-39 120.431,-59 227.569,-59 227.569,-39 120.431,-39"/>
<text text-anchor="middle" x="174" y="-45" font-family="Helvetica,sans-Serif" font-size="10.00">Net_DNS_RR_TSIG</text>
</a>
</g>
</g>
<!-- Node1&#45;&gt;Node12 -->
<g id="edge11" class="edge"><title>Node1&#45;&gt;Node12</title>
<path fill="none" stroke="midnightblue" d="M44.273,-203.818C52.2599,-170.946 72.5312,-105.821 114,-69 118.61,-64.9068 124.092,-61.6448 129.829,-59.0468"/>
<polygon fill="midnightblue" stroke="midnightblue" points="40.8439,-203.113 42.0224,-213.642 47.6671,-204.676 40.8439,-203.113"/>
</g>
<!-- Node13 -->
<g id="node13" class="node"><title>Node13</title>
<g id="a_node13"><a xlink:href="class_net___d_n_s___r_r___t_x_t.html" target="_top" xlink:title="Net_DNS_RR_TXT">
<polygon fill="white" stroke="black" points="122.655,-0 122.655,-20 225.345,-20 225.345,-0 122.655,-0"/>
<text text-anchor="middle" x="174" y="-6" font-family="Helvetica,sans-Serif" font-size="10.00">Net_DNS_RR_TXT</text>
</a>
</g>
</g>
<!-- Node1&#45;&gt;Node13 -->
<g id="edge12" class="edge"><title>Node1&#45;&gt;Node13</title>
<path fill="none" stroke="midnightblue" d="M42.0663,-203.828C47.1286,-164.786 63.6654,-78.4776 114,-30 118.207,-25.9485 123.264,-22.7164 128.625,-20.1382"/>
<polygon fill="midnightblue" stroke="midnightblue" points="38.5707,-203.587 40.8811,-213.927 45.523,-204.403 38.5707,-203.587"/>
</g>
</g>
</svg>
        <g id="navigator" transform="translate(0 0)" fill="#404254">
                <rect fill="#f2f5e9" fill-opacity="0.5" stroke="#606060" stroke-width=".5" x="0" y="0" width="60" height="60"/>
                <use id="zoomplus" xlink:href="#zoomPlus" x="17" y="9" onmousedown="handleZoom(evt,'in')"/>
                <use id="zoomminus" xlink:href="#zoomMin" x="42" y="9" onmousedown="handleZoom(evt,'out')"/>
                <use id="reset" xlink:href="#resetDef" x="30" y="36" onmousedown="handleReset()"/>
                <g id="arrowUp" xlink:href="#dirArrow" transform="translate(30 24)" onmousedown="handlePan(0,-1)">
                  <use xlink:href="#rim" fill="#404040">
                        <set attributeName="fill" to="#808080" begin="arrowUp.mouseover" end="arrowUp.mouseout"/>
                  </use>
                  <path fill="none" stroke="white" stroke-width="1.5" d="M0,-3.0v7 M-2.5,-0.5L0,-3.0L2.5,-0.5"/>
                </g>
                <g id="arrowRight" xlink:href="#dirArrow" transform="rotate(90) translate(36 -43)" onmousedown="handlePan(1,0)">
                  <use xlink:href="#rim" fill="#404040">
                        <set attributeName="fill" to="#808080" begin="arrowRight.mouseover" end="arrowRight.mouseout"/>
                  </use>
                  <path fill="none" stroke="white" stroke-width="1.5" d="M0,-3.0v7 M-2.5,-0.5L0,-3.0L2.5,-0.5"/>
                </g>
                <g id="arrowDown" xlink:href="#dirArrow" transform="rotate(180) translate(-30 -48)" onmousedown="handlePan(0,1)">
                  <use xlink:href="#rim" fill="#404040">
                        <set attributeName="fill" to="#808080" begin="arrowDown.mouseover" end="arrowDown.mouseout"/>
                  </use>
                  <path fill="none" stroke="white" stroke-width="1.5" d="M0,-3.0v7 M-2.5,-0.5L0,-3.0L2.5,-0.5"/>
                </g>
                <g id="arrowLeft" xlink:href="#dirArrow" transform="rotate(270) translate(-36 17)" onmousedown="handlePan(-1,0)">
                  <use xlink:href="#rim" fill="#404040">
                        <set attributeName="fill" to="#808080" begin="arrowLeft.mouseover" end="arrowLeft.mouseout"/>
                  </use>
                  <path fill="none" stroke="white" stroke-width="1.5" d="M0,-3.0v7 M-2.5,-0.5L0,-3.0L2.5,-0.5"/>
                </g>
        </g>
        <svg viewBox="0 0 15 15" width="100%" height="30px" preserveAspectRatio="xMaxYMin meet">
         <g id="arrow_out" transform="scale(0.3 0.3)">
          <a xlink:href="class_net___d_n_s___r_r__inherit__graph_org.svg" target="_base">
           <rect id="button" ry="5" rx="5" y="6" x="6" height="38" width="38"
                fill="#f2f5e9" fill-opacity="0.5" stroke="#606060" stroke-width="1.0"/>
           <path id="arrow"
             d="M 11.500037,31.436501 C 11.940474,20.09759 22.043105,11.32322 32.158766,21.979434 L 37.068811,17.246167 C 37.068811,17.246167 37.088388,32 37.088388,32 L 22.160133,31.978069 C 22.160133,31.978069 26.997745,27.140456 26.997745,27.140456 C 18.528582,18.264221 13.291696,25.230495 11.500037,31.436501 z"
             style="fill:#404040;"/>
          </a>
         </g>
        </svg>
</svg>
