<?xml version="1.0" encoding="UTF-8" standalone="no"?>
<!DOCTYPE svg PUBLIC "-//W3C//DTD SVG 1.1//EN"
 "http://www.w3.org/Graphics/SVG/1.1/DTD/svg11.dtd">
<!-- Generated by graphviz version 2.30.1 (20130221.2233)
 -->
<!-- Title: CampaignEvent\createStruct Pages: 1 -->
<svg width="298pt" height="91pt"
 viewBox="0.00 0.00 298.00 91.00" xmlns="http://www.w3.org/2000/svg" xmlns:xlink="http://www.w3.org/1999/xlink">
<g id="graph0" class="graph" transform="scale(1 1) rotate(0) translate(4 87)">
<title>CampaignEvent\createStruct</title>
<polygon fill="white" stroke="white" points="-4,5 -4,-87 295,-87 295,5 -4,5"/>
<!-- Node1 -->
<g id="node1" class="node"><title>Node1</title>
<polygon fill="#bfbfbf" stroke="black" points="0.0791016,-31 0.0791016,-51 143.921,-51 143.921,-31 0.0791016,-31"/>
<text text-anchor="middle" x="72" y="-37" font-family="Helvetica,sans-Serif" font-size="10.00">CampaignEvent\createStruct</text>
</g>
<!-- Node2 -->
<g id="node2" class="node"><title>Node2</title>
<g id="a_node2"><a xlink:href="class_campaigns_collection.html#ab3a63de718c94ce760ebf19f59170f0c" target="_top" xlink:title="CampaignsCollection\l\\getCampaignEvents">
<polygon fill="white" stroke="black" points="179.754,-51 179.754,-83 290.246,-83 290.246,-51 179.754,-51"/>
<text text-anchor="start" x="187.754" y="-69" font-family="Helvetica,sans-Serif" font-size="10.00">CampaignsCollection</text>
<text text-anchor="middle" x="235" y="-57" font-family="Helvetica,sans-Serif" font-size="10.00">\getCampaignEvents</text>
</a>
</g>
</g>
<!-- Node1&#45;&gt;Node2 -->
<g id="edge1" class="edge"><title>Node1&#45;&gt;Node2</title>
<path fill="none" stroke="midnightblue" d="M145.277,-52.672C156.784,-54.5303 168.517,-56.4251 179.523,-58.2025"/>
<polygon fill="midnightblue" stroke="midnightblue" points="145.677,-49.1914 135.247,-51.0523 144.561,-56.1018 145.677,-49.1914"/>
</g>
<!-- Node3 -->
<g id="node3" class="node"><title>Node3</title>
<g id="a_node3"><a xlink:href="class_contacts_collection.html#a8c5270d8d9d42b17b119c41b64b2e991" target="_top" xlink:title="Get events for a given Contact. ">
<polygon fill="white" stroke="black" points="185.313,-0 185.313,-32 284.687,-32 284.687,-0 185.313,-0"/>
<text text-anchor="start" x="193.313" y="-18" font-family="Helvetica,sans-Serif" font-size="10.00">ContactsCollection</text>
<text text-anchor="middle" x="235" y="-6" font-family="Helvetica,sans-Serif" font-size="10.00">\getContactEvents</text>
</a>
</g>
</g>
<!-- Node1&#45;&gt;Node3 -->
<g id="edge2" class="edge"><title>Node1&#45;&gt;Node3</title>
<path fill="none" stroke="midnightblue" d="M147.724,-29.3969C160.484,-27.4156 173.438,-25.4041 185.295,-23.5628"/>
<polygon fill="midnightblue" stroke="midnightblue" points="146.902,-25.9826 137.557,-30.9756 147.976,-32.8997 146.902,-25.9826"/>
</g>
</g>
</svg>
