<?xml version="1.0" encoding="UTF-8" standalone="no"?>
<!DOCTYPE svg PUBLIC "-//W3C//DTD SVG 1.1//EN"
 "http://www.w3.org/Graphics/SVG/1.1/DTD/svg11.dtd">
<!-- Generated by graphviz version 2.30.1 (20130221.2233)
 -->
<!-- Title: JsonLoader\getActivities Pages: 1 -->
<svg width="300pt" height="91pt"
 viewBox="0.00 0.00 300.00 91.00" xmlns="http://www.w3.org/2000/svg" xmlns:xlink="http://www.w3.org/1999/xlink">
<g id="graph0" class="graph" transform="scale(1 1) rotate(0) translate(4 87)">
<title>JsonLoader\getActivities</title>
<polygon fill="white" stroke="white" points="-4,5 -4,-87 297,-87 297,5 -4,5"/>
<!-- Node1 -->
<g id="node1" class="node"><title>Node1</title>
<polygon fill="#bfbfbf" stroke="black" points="-0.196777,-31 -0.196777,-51 124.197,-51 124.197,-31 -0.196777,-31"/>
<text text-anchor="middle" x="62" y="-37" font-family="Helvetica,sans-Serif" font-size="10.00">JsonLoader\getActivities</text>
</g>
<!-- Node2 -->
<g id="node2" class="node"><title>Node2</title>
<g id="a_node2"><a xlink:href="class_activity_service_unit_test.html#a2cc732af6c1839df6e677ae88be2294b" target="_top" xlink:title="ActivityServiceUnitTest\l\\testGetActivities">
<polygon fill="white" stroke="black" points="167.431,-51 167.431,-83 284.569,-83 284.569,-51 167.431,-51"/>
<text text-anchor="start" x="175.431" y="-69" font-family="Helvetica,sans-Serif" font-size="10.00">ActivityServiceUnitTest</text>
<text text-anchor="middle" x="226" y="-57" font-family="Helvetica,sans-Serif" font-size="10.00">\testGetActivities</text>
</a>
</g>
</g>
<!-- Node1&#45;&gt;Node2 -->
<g id="edge1" class="edge"><title>Node1&#45;&gt;Node2</title>
<path fill="none" stroke="midnightblue" d="M134.316,-52.4459C145.384,-54.2221 156.696,-56.0377 167.411,-57.7573"/>
<polygon fill="midnightblue" stroke="midnightblue" points="134.674,-48.9585 124.245,-50.8295 133.564,-55.87 134.674,-48.9585"/>
</g>
<!-- Node3 -->
<g id="node3" class="node"><title>Node3</title>
<g id="a_node3"><a xlink:href="class_activity_service_unit_test.html#ac8aadb83acfa1a388a27f6864364c510" target="_top" xlink:title="ActivityServiceUnitTest\l\\testGetActivitiesWithType">
<polygon fill="white" stroke="black" points="159.924,-0 159.924,-32 292.076,-32 292.076,-0 159.924,-0"/>
<text text-anchor="start" x="167.924" y="-18" font-family="Helvetica,sans-Serif" font-size="10.00">ActivityServiceUnitTest</text>
<text text-anchor="middle" x="226" y="-6" font-family="Helvetica,sans-Serif" font-size="10.00">\testGetActivitiesWithType</text>
</a>
</g>
</g>
<!-- Node1&#45;&gt;Node3 -->
<g id="edge2" class="edge"><title>Node1&#45;&gt;Node3</title>
<path fill="none" stroke="midnightblue" d="M134.188,-30.0142C142.735,-28.6952 151.43,-27.3533 159.885,-26.0486"/>
<polygon fill="midnightblue" stroke="midnightblue" points="133.594,-26.5643 124.245,-31.5486 134.662,-33.4824 133.594,-26.5643"/>
</g>
</g>
</svg>
