<?xml version="1.0" encoding="UTF-8" standalone="no"?>
<!DOCTYPE svg PUBLIC "-//W3C//DTD SVG 1.1//EN"
 "http://www.w3.org/Graphics/SVG/1.1/DTD/svg11.dtd">
<!-- Generated by graphviz version 2.30.1 (20130221.2233)
 -->
<!-- Title: Net_DNS_Resolver\make_query_packet Pages: 1 -->
<svg width="838pt" height="95pt"
 viewBox="0.00 0.00 838.00 95.00" xmlns="http://www.w3.org/2000/svg" xmlns:xlink="http://www.w3.org/1999/xlink">
<g id="graph0" class="graph" transform="scale(1 1) rotate(0) translate(4 91)">
<title>Net_DNS_Resolver\make_query_packet</title>
<polygon fill="white" stroke="white" points="-4,5 -4,-91 835,-91 835,5 -4,5"/>
<!-- Node1 -->
<g id="node1" class="node"><title>Node1</title>
<polygon fill="#bfbfbf" stroke="black" points="-0.243652,-39 -0.243652,-71 130.244,-71 130.244,-39 -0.243652,-39"/>
<text text-anchor="start" x="7.75635" y="-57" font-family="Helvetica,sans-Serif" font-size="10.00">Net_DNS_Resolver\make</text>
<text text-anchor="middle" x="65" y="-45" font-family="Helvetica,sans-Serif" font-size="10.00">_query_packet</text>
</g>
<!-- Node2 -->
<g id="node2" class="node"><title>Node2</title>
<g id="a_node2"><a xlink:href="class_net___d_n_s___resolver.html#a9a745e4f5009dac279562318bb927370" target="_top" xlink:title="Performs an AXFR query (zone transfer) ">
<polygon fill="white" stroke="black" points="343.648,-67 343.648,-87 466.352,-87 466.352,-67 343.648,-67"/>
<text text-anchor="middle" x="405" y="-73" font-family="Helvetica,sans-Serif" font-size="10.00">Net_DNS_Resolver\axfr</text>
</a>
</g>
</g>
<!-- Node1&#45;&gt;Node2 -->
<g id="edge1" class="edge"><title>Node1&#45;&gt;Node2</title>
<path fill="none" stroke="midnightblue" d="M129.687,-73.3887C141.655,-76.1391 154.136,-78.5395 166,-80 226.084,-87.3967 295.342,-85.3452 343.598,-82.2369"/>
<polygon fill="midnightblue" stroke="midnightblue" points="130.32,-69.9413 119.779,-71.009 128.685,-76.7477 130.32,-69.9413"/>
</g>
<!-- Node4 -->
<g id="node4" class="node"><title>Node4</title>
<g id="a_node4"><a xlink:href="class_net___d_n_s___resolver.html#a068e8e173ff40d4a3b74193792bed4e0" target="_top" xlink:title="Sends a packet via TCP to the list of name servers. ">
<polygon fill="white" stroke="black" points="168.648,-39 168.648,-71 291.352,-71 291.352,-39 168.648,-39"/>
<text text-anchor="start" x="176.648" y="-57" font-family="Helvetica,sans-Serif" font-size="10.00">Net_DNS_Resolver\axfr</text>
<text text-anchor="middle" x="230" y="-45" font-family="Helvetica,sans-Serif" font-size="10.00">_start</text>
</a>
</g>
</g>
<!-- Node1&#45;&gt;Node4 -->
<g id="edge3" class="edge"><title>Node1&#45;&gt;Node4</title>
<path fill="none" stroke="midnightblue" d="M140.516,-55C149.886,-55 159.379,-55 168.497,-55"/>
<polygon fill="midnightblue" stroke="midnightblue" points="140.422,-51.5001 130.422,-55 140.422,-58.5001 140.422,-51.5001"/>
</g>
<!-- Node5 -->
<g id="node5" class="node"><title>Node5</title>
<g id="a_node5"><a xlink:href="class_net___d_n_s___resolver.html#aaabc96cbbb5bce627d31583d0e6af3d5" target="_top" xlink:title="Sends a packet to a nameserver. ">
<polygon fill="white" stroke="black" points="166.141,-0 166.141,-20 293.859,-20 293.859,-0 166.141,-0"/>
<text text-anchor="middle" x="230" y="-6" font-family="Helvetica,sans-Serif" font-size="10.00">Net_DNS_Resolver\send</text>
</a>
</g>
</g>
<!-- Node1&#45;&gt;Node5 -->
<g id="edge5" class="edge"><title>Node1&#45;&gt;Node5</title>
<path fill="none" stroke="midnightblue" d="M134.076,-36.206C154.04,-30.6945 175.108,-24.878 192.312,-20.1287"/>
<polygon fill="midnightblue" stroke="midnightblue" points="133.094,-32.846 124.386,-38.8811 134.957,-39.5936 133.094,-32.846"/>
</g>
<!-- Node3 -->
<g id="node3" class="node"><title>Node3</title>
<g id="a_node3"><a xlink:href="class_net___d_n_s___resolver.html#a73f7861954f4990bc8d18d6a82f7334d" target="_top" xlink:title="Performs an AXFR query (zone transfer) (OLD BUGGY STYLE) ">
<polygon fill="white" stroke="black" points="516.195,-67 516.195,-87 657.805,-87 657.805,-67 516.195,-67"/>
<text text-anchor="middle" x="587" y="-73" font-family="Helvetica,sans-Serif" font-size="10.00">Net_DNS_Resolver\axfr_old</text>
</a>
</g>
</g>
<!-- Node2&#45;&gt;Node3 -->
<g id="edge2" class="edge"><title>Node2&#45;&gt;Node3</title>
<path fill="none" stroke="midnightblue" d="M476.684,-77C489.637,-77 503.151,-77 516.081,-77"/>
<polygon fill="midnightblue" stroke="midnightblue" points="476.438,-73.5001 466.438,-77 476.438,-80.5001 476.438,-73.5001"/>
</g>
<!-- Node4&#45;&gt;Node2 -->
<g id="edge4" class="edge"><title>Node4&#45;&gt;Node2</title>
<path fill="none" stroke="midnightblue" d="M301.529,-63.9689C315.46,-65.7406 329.964,-67.5851 343.527,-69.3098"/>
<polygon fill="midnightblue" stroke="midnightblue" points="301.869,-60.4841 291.507,-62.6945 300.986,-67.4282 301.869,-60.4841"/>
</g>
<!-- Node6 -->
<g id="node6" class="node"><title>Node6</title>
<g id="a_node6"><a xlink:href="class_net___d_n_s___resolver.html#ab00f28a838dbaebffe986b2fb81b4e8f" target="_top" xlink:title="Queries nameservers for an answer. ">
<polygon fill="white" stroke="black" points="330.311,-0 330.311,-20 479.689,-20 479.689,-0 330.311,-0"/>
<text text-anchor="middle" x="405" y="-6" font-family="Helvetica,sans-Serif" font-size="10.00">Net_DNS_Resolver\rawQuery</text>
</a>
</g>
</g>
<!-- Node5&#45;&gt;Node6 -->
<g id="edge6" class="edge"><title>Node5&#45;&gt;Node6</title>
<path fill="none" stroke="midnightblue" d="M304.02,-10C312.691,-10 321.548,-10 330.231,-10"/>
<polygon fill="midnightblue" stroke="midnightblue" points="303.946,-6.5001 293.946,-10 303.946,-13.5001 303.946,-6.5001"/>
</g>
<!-- Node7 -->
<g id="node7" class="node"><title>Node7</title>
<g id="a_node7"><a xlink:href="class_net___d_n_s___resolver.html#a433200f56099815168ddd63a715e8ac5" target="_top" xlink:title="Queries nameservers for an answer. ">
<polygon fill="white" stroke="black" points="521.476,-0 521.476,-20 652.524,-20 652.524,-0 521.476,-0"/>
<text text-anchor="middle" x="587" y="-6" font-family="Helvetica,sans-Serif" font-size="10.00">Net_DNS_Resolver\query</text>
</a>
</g>
</g>
<!-- Node6&#45;&gt;Node7 -->
<g id="edge7" class="edge"><title>Node6&#45;&gt;Node7</title>
<path fill="none" stroke="midnightblue" d="M489.823,-10C500.403,-10 511.099,-10 521.32,-10"/>
<polygon fill="midnightblue" stroke="midnightblue" points="489.732,-6.5001 479.732,-10 489.732,-13.5001 489.732,-6.5001"/>
</g>
<!-- Node8 -->
<g id="node8" class="node"><title>Node8</title>
<g id="a_node8"><a xlink:href="class_net___d_n_s___resolver.html#a13ee3a449b00b1a0e2f36bb1404e4291" target="_top" xlink:title="Searches nameservers for an answer. ">
<polygon fill="white" stroke="black" points="693.976,-0 693.976,-20 830.024,-20 830.024,-0 693.976,-0"/>
<text text-anchor="middle" x="762" y="-6" font-family="Helvetica,sans-Serif" font-size="10.00">Net_DNS_Resolver\search</text>
</a>
</g>
</g>
<!-- Node7&#45;&gt;Node8 -->
<g id="edge8" class="edge"><title>Node7&#45;&gt;Node8</title>
<path fill="none" stroke="midnightblue" d="M663.022,-10C673.226,-10 683.648,-10 693.704,-10"/>
<polygon fill="midnightblue" stroke="midnightblue" points="662.911,-6.5001 652.911,-10 662.911,-13.5001 662.911,-6.5001"/>
</g>
</g>
</svg>
