<?xml version="1.0" encoding="UTF-8" standalone="no"?>
<!DOCTYPE svg PUBLIC "-//W3C//DTD SVG 1.1//EN"
 "http://www.w3.org/Graphics/SVG/1.1/DTD/svg11.dtd">
<!-- Generated by graphviz version 2.30.1 (20130221.2233)
 -->
<!-- Title: OAuthServer\get_token Pages: 1 -->
<svg width="302pt" height="91pt"
 viewBox="0.00 0.00 302.00 91.00" xmlns="http://www.w3.org/2000/svg" xmlns:xlink="http://www.w3.org/1999/xlink">
<g id="graph0" class="graph" transform="scale(1 1) rotate(0) translate(4 87)">
<title>OAuthServer\get_token</title>
<polygon fill="white" stroke="white" points="-4,5 -4,-87 299,-87 299,5 -4,5"/>
<!-- Node1 -->
<g id="node1" class="node"><title>Node1</title>
<polygon fill="#bfbfbf" stroke="black" points="0.746582,-31 0.746582,-51 121.253,-51 121.253,-31 0.746582,-31"/>
<text text-anchor="middle" x="61" y="-37" font-family="Helvetica,sans-Serif" font-size="10.00">OAuthServer\get_token</text>
</g>
<!-- Node2 -->
<g id="node2" class="node"><title>Node2</title>
<g id="a_node2"><a xlink:href="class_o_auth_server.html#a5c76359726e685013d2e0cb8a1abe09a" target="_top" xlink:title="process an access_token request returns the access token on success ">
<polygon fill="white" stroke="black" points="158.527,-51 158.527,-83 293.473,-83 293.473,-51 158.527,-51"/>
<text text-anchor="start" x="166.527" y="-69" font-family="Helvetica,sans-Serif" font-size="10.00">OAuthServer\fetch_access</text>
<text text-anchor="middle" x="226" y="-57" font-family="Helvetica,sans-Serif" font-size="10.00">_token</text>
</a>
</g>
</g>
<!-- Node1&#45;&gt;Node2 -->
<g id="edge1" class="edge"><title>Node1&#45;&gt;Node2</title>
<path fill="none" stroke="midnightblue" d="M131.297,-52.0535C140.241,-53.4801 149.385,-54.9388 158.286,-56.3586"/>
<polygon fill="midnightblue" stroke="midnightblue" points="131.734,-48.5791 121.308,-50.4601 130.632,-55.4917 131.734,-48.5791"/>
</g>
<!-- Node3 -->
<g id="node3" class="node"><title>Node3</title>
<g id="a_node3"><a xlink:href="class_o_auth_server.html#ad31e95096adeac980a8a99f59c4cadc6" target="_top" xlink:title="verify an api call, checks all the parameters ">
<polygon fill="white" stroke="black" points="175.764,-0 175.764,-32 276.236,-32 276.236,-0 175.764,-0"/>
<text text-anchor="start" x="183.764" y="-18" font-family="Helvetica,sans-Serif" font-size="10.00">OAuthServer\verify</text>
<text text-anchor="middle" x="226" y="-6" font-family="Helvetica,sans-Serif" font-size="10.00">_request</text>
</a>
</g>
</g>
<!-- Node1&#45;&gt;Node3 -->
<g id="edge2" class="edge"><title>Node1&#45;&gt;Node3</title>
<path fill="none" stroke="midnightblue" d="M131.481,-30.3435C146.336,-28.065 161.737,-25.703 175.649,-23.5692"/>
<polygon fill="midnightblue" stroke="midnightblue" points="130.662,-26.9281 121.308,-31.9037 131.723,-33.8472 130.662,-26.9281"/>
</g>
</g>
</svg>
