<?xml version="1.0" encoding="UTF-8" standalone="no"?>
<!DOCTYPE svg PUBLIC "-//W3C//DTD SVG 1.1//EN"
 "http://www.w3.org/Graphics/SVG/1.1/DTD/svg11.dtd">
<!-- Generated by graphviz version 2.30.1 (20130221.2233)
 -->
<!-- Title: OAuthRequest\from_consumer_and_token Pages: 1 -->
<!--zoomable 1705 -->
<svg id="main" version="1.1" xmlns="http://www.w3.org/2000/svg" xmlns:xlink="http://www.w3.org/1999/xlink" xml:space="preserve" onload="init(evt)">
<style type="text/css"><![CDATA[
.edge:hover path { stroke: red; }
.edge:hover polygon { stroke: red; fill: red; }
]]></style>
<script type="text/javascript"><![CDATA[
var edges = document.getElementsByTagName('g');
if (edges && edges.length) {
  for (var i=0;i<edges.length;i++) {
    if (edges[i].id.substr(0,4)=='edge') {
      edges[i].setAttribute('class','edge');
    }
  }
}
]]></script>
        <defs>
                <circle id="rim" cx="0" cy="0" r="7"/>
                <circle id="rim2" cx="0" cy="0" r="3.5"/>
                <g id="zoomPlus">
                        <use xlink:href="#rim" fill="#404040">
                                <set attributeName="fill" to="#808080" begin="zoomplus.mouseover" end="zoomplus.mouseout"/>
                        </use>
                        <path d="M-4,0h8M0,-4v8" fill="none" stroke="white" stroke-width="1.5" pointer-events="none"/>
                </g>
                <g id="zoomMin">
                        <use xlink:href="#rim" fill="#404040">
                                <set attributeName="fill" to="#808080" begin="zoomminus.mouseover" end="zoomminus.mouseout"/>
                        </use>
                        <path d="M-4,0h8" fill="none" stroke="white" stroke-width="1.5" pointer-events="none"/>
                </g>
                <g id="dirArrow">
                        <path fill="none" stroke="white" stroke-width="1.5" d="M0,-3.0v7 M-2.5,-0.5L0,-3.0L2.5,-0.5"/>
                </g>
               <g id="resetDef">
                       <use xlink:href="#rim2" fill="#404040">
                               <set attributeName="fill" to="#808080" begin="reset.mouseover" end="reset.mouseout"/>
                       </use>
               </g>
        </defs>

<script type="text/javascript">
var viewWidth = 732;
var viewHeight = 1705;
var sectionId = 'dynsection-4';
</script>
<script xlink:href="svgpan.js"/>
<svg id="graph" class="graph">
<g id="viewport">
<title>OAuthRequest\from_consumer_and_token</title>
<polygon fill="white" stroke="white" points="-4,5 -4,-1701 729,-1701 729,5 -4,5"/>
<!-- Node1 -->
<g id="node1" class="node"><title>Node1</title>
<polygon fill="#bfbfbf" stroke="black" points="0.0791016,-847 0.0791016,-879 153.921,-879 153.921,-847 0.0791016,-847"/>
<text text-anchor="start" x="8.0791" y="-865" font-family="Helvetica,sans-Serif" font-size="10.00">OAuthRequest\from_consumer</text>
<text text-anchor="middle" x="77" y="-853" font-family="Helvetica,sans-Serif" font-size="10.00">_and_token</text>
</g>
<!-- Node2 -->
<g id="node2" class="node"><title>Node2</title>
<g id="a_node2"><a xlink:href="class_c_t_c_t_o_auth.html#a3189b740e032071bc27e198f7cb53b4d" target="_top" xlink:title="CTCTOAuth\\getAccessToken">
<polygon fill="white" stroke="black" points="192.785,-892 192.785,-912 339.215,-912 339.215,-892 192.785,-892"/>
<text text-anchor="middle" x="266" y="-898" font-family="Helvetica,sans-Serif" font-size="10.00">CTCTOAuth\getAccessToken</text>
</a>
</g>
</g>
<!-- Node1&#45;&gt;Node2 -->
<g id="edge1" class="edge"><title>Node1&#45;&gt;Node2</title>
<path fill="none" stroke="midnightblue" d="M164.087,-880.954C182.238,-884.739 200.763,-888.603 216.904,-891.969"/>
<polygon fill="midnightblue" stroke="midnightblue" points="164.564,-877.478 154.06,-878.863 163.135,-884.331 164.564,-877.478"/>
</g>
<!-- Node3 -->
<g id="node3" class="node"><title>Node3</title>
<g id="a_node3"><a xlink:href="class_c_t_c_t_o_auth.html#aa66e4b0a64267580fc458805504756d3" target="_top" xlink:title="CTCTOAuth\\getRequestToken">
<polygon fill="white" stroke="black" points="190.278,-853 190.278,-873 341.722,-873 341.722,-853 190.278,-853"/>
<text text-anchor="middle" x="266" y="-859" font-family="Helvetica,sans-Serif" font-size="10.00">CTCTOAuth\getRequestToken</text>
</a>
</g>
</g>
<!-- Node1&#45;&gt;Node3 -->
<g id="edge2" class="edge"><title>Node1&#45;&gt;Node3</title>
<path fill="none" stroke="midnightblue" d="M164.203,-863C172.891,-863 181.664,-863 190.219,-863"/>
<polygon fill="midnightblue" stroke="midnightblue" points="164.06,-859.5 154.06,-863 164.06,-866.5 164.06,-859.5"/>
</g>
<!-- Node4 -->
<g id="node4" class="node"><title>Node4</title>
<g id="a_node4"><a xlink:href="class_c_t_c_t_request.html#aad92e5787f6d3fdf00760d99505aa6db" target="_top" xlink:title="CTCTRequest\\makeRequest">
<polygon fill="white" stroke="black" points="193.808,-814 193.808,-834 338.192,-834 338.192,-814 193.808,-814"/>
<text text-anchor="middle" x="266" y="-820" font-family="Helvetica,sans-Serif" font-size="10.00">CTCTRequest\makeRequest</text>
</a>
</g>
</g>
<!-- Node1&#45;&gt;Node4 -->
<g id="edge3" class="edge"><title>Node1&#45;&gt;Node4</title>
<path fill="none" stroke="midnightblue" d="M164.087,-845.046C182.238,-841.261 200.763,-837.397 216.904,-834.031"/>
<polygon fill="midnightblue" stroke="midnightblue" points="163.135,-841.669 154.06,-847.137 164.564,-848.522 163.135,-841.669"/>
</g>
<!-- Node5 -->
<g id="node5" class="node"><title>Node5</title>
<g id="a_node5"><a xlink:href="class_campaigns_collection.html#a4bbf8266fa150e04a4bff5a8052967a6" target="_top" xlink:title="Add a new Campaign. ">
<polygon fill="white" stroke="black" points="401.754,-1665 401.754,-1697 512.246,-1697 512.246,-1665 401.754,-1665"/>
<text text-anchor="start" x="409.754" y="-1683" font-family="Helvetica,sans-Serif" font-size="10.00">CampaignsCollection</text>
<text text-anchor="middle" x="457" y="-1671" font-family="Helvetica,sans-Serif" font-size="10.00">\addCampaign</text>
</a>
</g>
</g>
<!-- Node4&#45;&gt;Node5 -->
<g id="edge4" class="edge"><title>Node4&#45;&gt;Node5</title>
<path fill="none" stroke="midnightblue" d="M338.795,-840.473C339.926,-841.579 340.997,-842.753 342,-844 398.526,-914.291 323.649,-1583.01 378,-1655 383.935,-1662.86 392.337,-1668.37 401.445,-1672.23"/>
<polygon fill="midnightblue" stroke="midnightblue" points="340.611,-837.454 330.552,-834.127 336.341,-843.001 340.611,-837.454"/>
</g>
<!-- Node6 -->
<g id="node6" class="node"><title>Node6</title>
<g id="a_node6"><a xlink:href="class_contacts_collection.html#a58610b21a633bfe30cc66a5f54a107a7" target="_top" xlink:title="Add a contact to account. ">
<polygon fill="white" stroke="black" points="407.313,-1614 407.313,-1646 506.687,-1646 506.687,-1614 407.313,-1614"/>
<text text-anchor="start" x="415.313" y="-1632" font-family="Helvetica,sans-Serif" font-size="10.00">ContactsCollection</text>
<text text-anchor="middle" x="457" y="-1620" font-family="Helvetica,sans-Serif" font-size="10.00">\addContact</text>
</a>
</g>
</g>
<!-- Node4&#45;&gt;Node6 -->
<g id="edge5" class="edge"><title>Node4&#45;&gt;Node6</title>
<path fill="none" stroke="midnightblue" d="M338.79,-840.477C339.922,-841.581 340.995,-842.754 342,-844 395.076,-909.801 326.96,-1536.61 378,-1604 385.153,-1613.44 395.867,-1619.5 407.081,-1623.37"/>
<polygon fill="midnightblue" stroke="midnightblue" points="340.601,-837.455 330.539,-834.138 336.336,-843.006 340.601,-837.455"/>
</g>
<!-- Node7 -->
<g id="node7" class="node"><title>Node7</title>
<g id="a_node7"><a xlink:href="class_library_collection.html#affc91465d0f01c4ede19c149424ea7f2" target="_top" xlink:title="Add a new Folder. ">
<polygon fill="white" stroke="black" points="387.857,-1575 387.857,-1595 526.143,-1595 526.143,-1575 387.857,-1575"/>
<text text-anchor="middle" x="457" y="-1581" font-family="Helvetica,sans-Serif" font-size="10.00">LibraryCollection\addFolder</text>
</a>
</g>
</g>
<!-- Node4&#45;&gt;Node7 -->
<g id="edge6" class="edge"><title>Node4&#45;&gt;Node7</title>
<path fill="none" stroke="midnightblue" d="M338.786,-840.48C339.919,-841.584 340.994,-842.756 342,-844 442.877,-968.735 276.525,-1440.75 378,-1565 381.272,-1569.01 385.227,-1572.27 389.6,-1574.93"/>
<polygon fill="midnightblue" stroke="midnightblue" points="340.593,-837.455 330.528,-834.147 336.333,-843.01 340.593,-837.455"/>
</g>
<!-- Node8 -->
<g id="node8" class="node"><title>Node8</title>
<g id="a_node8"><a xlink:href="class_lists_collection.html#ae86ac9787cede610e609395c71d9180c" target="_top" xlink:title="Add a new list to Constant Contact account. ">
<polygon fill="white" stroke="black" points="399.251,-1536 399.251,-1556 514.749,-1556 514.749,-1536 399.251,-1536"/>
<text text-anchor="middle" x="457" y="-1542" font-family="Helvetica,sans-Serif" font-size="10.00">ListsCollection\addList</text>
</a>
</g>
</g>
<!-- Node4&#45;&gt;Node8 -->
<g id="edge7" class="edge"><title>Node4&#45;&gt;Node8</title>
<path fill="none" stroke="midnightblue" d="M338.781,-840.484C339.916,-841.587 340.992,-842.757 342,-844 437.603,-961.87 281.833,-1408.59 378,-1526 383.492,-1532.71 390.899,-1537.34 398.971,-1540.5"/>
<polygon fill="midnightblue" stroke="midnightblue" points="340.583,-837.456 330.515,-834.157 336.328,-843.015 340.583,-837.456"/>
</g>
<!-- Node9 -->
<g id="node9" class="node"><title>Node9</title>
<g id="a_node9"><a xlink:href="class_activities_collection.html#aa5373dc495a33732f64bc330fc86f8f3" target="_top" xlink:title="Add multiple contacts at once. ">
<polygon fill="white" stroke="black" points="407.318,-1485 407.318,-1517 506.682,-1517 506.682,-1485 407.318,-1485"/>
<text text-anchor="start" x="415.318" y="-1503" font-family="Helvetica,sans-Serif" font-size="10.00">ActivitiesCollection</text>
<text text-anchor="middle" x="457" y="-1491" font-family="Helvetica,sans-Serif" font-size="10.00">\bulkAddContacts</text>
</a>
</g>
</g>
<!-- Node4&#45;&gt;Node9 -->
<g id="edge8" class="edge"><title>Node4&#45;&gt;Node9</title>
<path fill="none" stroke="midnightblue" d="M338.774,-840.49C339.911,-841.591 340.989,-842.759 342,-844 430.706,-952.892 292.664,-1363.45 378,-1475 385.198,-1484.41 395.928,-1490.45 407.143,-1494.32"/>
<polygon fill="midnightblue" stroke="midnightblue" points="340.569,-837.458 330.497,-834.172 336.322,-843.022 340.569,-837.458"/>
</g>
<!-- Node10 -->
<g id="node10" class="node"><title>Node10</title>
<g id="a_node10"><a xlink:href="class_campaigns_collection.html#af8bbae16c19c800f6fe4e5e605c57812" target="_top" xlink:title="Delete a Campaign. ">
<polygon fill="white" stroke="black" points="401.754,-1434 401.754,-1466 512.246,-1466 512.246,-1434 401.754,-1434"/>
<text text-anchor="start" x="409.754" y="-1452" font-family="Helvetica,sans-Serif" font-size="10.00">CampaignsCollection</text>
<text text-anchor="middle" x="457" y="-1440" font-family="Helvetica,sans-Serif" font-size="10.00">\deleteCampaign</text>
</a>
</g>
</g>
<!-- Node4&#45;&gt;Node10 -->
<g id="edge9" class="edge"><title>Node4&#45;&gt;Node10</title>
<path fill="none" stroke="midnightblue" d="M338.765,-840.497C339.905,-841.596 340.986,-842.762 342,-844 423.811,-943.917 299.282,-1321.63 378,-1424 384.004,-1431.81 392.438,-1437.3 401.555,-1441.15"/>
<polygon fill="midnightblue" stroke="midnightblue" points="340.553,-837.459 330.475,-834.189 336.314,-843.03 340.553,-837.459"/>
</g>
<!-- Node11 -->
<g id="node11" class="node"><title>Node11</title>
<g id="a_node11"><a xlink:href="class_contacts_collection.html#a9d6f8953c0599fd35b49bbb1b72614b8" target="_top" xlink:title="Delete a Contact. ">
<polygon fill="white" stroke="black" points="407.313,-1383 407.313,-1415 506.687,-1415 506.687,-1383 407.313,-1383"/>
<text text-anchor="start" x="415.313" y="-1401" font-family="Helvetica,sans-Serif" font-size="10.00">ContactsCollection</text>
<text text-anchor="middle" x="457" y="-1389" font-family="Helvetica,sans-Serif" font-size="10.00">\deleteContact</text>
</a>
</g>
</g>
<!-- Node4&#45;&gt;Node11 -->
<g id="edge10" class="edge"><title>Node4&#45;&gt;Node11</title>
<path fill="none" stroke="midnightblue" d="M338.31,-840.085C339.617,-841.302 340.851,-842.606 342,-844 416.917,-934.944 305.898,-1279.81 378,-1373 385.25,-1382.37 395.998,-1388.4 407.214,-1392.26"/>
<polygon fill="midnightblue" stroke="midnightblue" points="340.224,-837.147 330.105,-834.005 336.056,-842.771 340.224,-837.147"/>
</g>
<!-- Node12 -->
<g id="node12" class="node"><title>Node12</title>
<g id="a_node12"><a xlink:href="class_library_collection.html#abd5ce3c42f1924c16ae8e1ab2f0b506f" target="_top" xlink:title="Delete image from an account. ">
<polygon fill="white" stroke="black" points="396.749,-1332 396.749,-1364 517.251,-1364 517.251,-1332 396.749,-1332"/>
<text text-anchor="start" x="404.749" y="-1350" font-family="Helvetica,sans-Serif" font-size="10.00">LibraryCollection\delete</text>
<text text-anchor="middle" x="457" y="-1338" font-family="Helvetica,sans-Serif" font-size="10.00">Image</text>
</a>
</g>
</g>
<!-- Node4&#45;&gt;Node12 -->
<g id="edge11" class="edge"><title>Node4&#45;&gt;Node12</title>
<path fill="none" stroke="midnightblue" d="M338.296,-840.096C339.608,-841.31 340.846,-842.61 342,-844 410.026,-925.973 312.512,-1237.99 378,-1322 382.914,-1328.3 389.411,-1333.09 396.563,-1336.73"/>
<polygon fill="midnightblue" stroke="midnightblue" points="340.199,-837.15 330.074,-834.031 336.044,-842.784 340.199,-837.15"/>
</g>
<!-- Node13 -->
<g id="node13" class="node"><title>Node13</title>
<g id="a_node13"><a xlink:href="class_library_collection.html#a35b66eb41a8bf5de0430efcf903457e2" target="_top" xlink:title="Delete all the images from a folder. ">
<polygon fill="white" stroke="black" points="396.749,-1281 396.749,-1313 517.251,-1313 517.251,-1281 396.749,-1281"/>
<text text-anchor="start" x="404.749" y="-1299" font-family="Helvetica,sans-Serif" font-size="10.00">LibraryCollection\delete</text>
<text text-anchor="middle" x="457" y="-1287" font-family="Helvetica,sans-Serif" font-size="10.00">ImagesFromFolder</text>
</a>
</g>
</g>
<!-- Node4&#45;&gt;Node13 -->
<g id="edge12" class="edge"><title>Node4&#45;&gt;Node13</title>
<path fill="none" stroke="midnightblue" d="M338.28,-840.11C339.596,-841.32 340.84,-842.615 342,-844 403.138,-917.007 319.122,-1196.16 378,-1271 382.942,-1277.28 389.455,-1282.06 396.614,-1285.69"/>
<polygon fill="midnightblue" stroke="midnightblue" points="340.169,-837.155 330.035,-834.063 336.029,-842.8 340.169,-837.155"/>
</g>
<!-- Node14 -->
<g id="node14" class="node"><title>Node14</title>
<g id="a_node14"><a xlink:href="class_lists_collection.html#afcdccd2d9b3c7c33046a6951b8c501d3" target="_top" xlink:title="Delete a ContactList from an account. ">
<polygon fill="white" stroke="black" points="393.971,-1242 393.971,-1262 520.029,-1262 520.029,-1242 393.971,-1242"/>
<text text-anchor="middle" x="457" y="-1248" font-family="Helvetica,sans-Serif" font-size="10.00">ListsCollection\deleteList</text>
</a>
</g>
</g>
<!-- Node4&#45;&gt;Node14 -->
<g id="edge13" class="edge"><title>Node4&#45;&gt;Node14</title>
<path fill="none" stroke="midnightblue" d="M338.264,-840.123C339.585,-841.329 340.834,-842.62 342,-844 397.874,-910.154 321.809,-1166.12 378,-1232 382.354,-1237.11 387.818,-1241 393.822,-1243.96"/>
<polygon fill="midnightblue" stroke="midnightblue" points="340.14,-837.159 329.998,-834.094 336.015,-842.815 340.14,-837.159"/>
</g>
<!-- Node15 -->
<g id="node15" class="node"><title>Node15</title>
<g id="a_node15"><a xlink:href="class_campaigns_collection.html#a69b0afca8af93253a4d8e5e96eaaf875" target="_top" xlink:title="Delete a schedule from a campaign (prevent from sending) ">
<polygon fill="white" stroke="black" points="401.754,-1191 401.754,-1223 512.246,-1223 512.246,-1191 401.754,-1191"/>
<text text-anchor="start" x="409.754" y="-1209" font-family="Helvetica,sans-Serif" font-size="10.00">CampaignsCollection</text>
<text text-anchor="middle" x="457" y="-1197" font-family="Helvetica,sans-Serif" font-size="10.00">\deleteSchedule</text>
</a>
</g>
</g>
<!-- Node4&#45;&gt;Node15 -->
<g id="edge14" class="edge"><title>Node4&#45;&gt;Node15</title>
<path fill="none" stroke="midnightblue" d="M338.238,-840.145C339.567,-841.345 340.825,-842.628 342,-844 439.992,-958.398 283.551,-1063.66 378,-1181 384.086,-1188.56 392.443,-1193.94 401.434,-1197.76"/>
<polygon fill="midnightblue" stroke="midnightblue" points="340.093,-837.167 329.939,-834.145 335.992,-842.84 340.093,-837.167"/>
</g>
<!-- Node16 -->
<g id="node16" class="node"><title>Node16</title>
<g id="a_node16"><a xlink:href="class_settings_collection.html#a5b55d829b678ff6e8ef61cb7c3af3afe" target="_top" xlink:title="Get a list of verified email addresses for an account. ">
<polygon fill="white" stroke="black" points="408.978,-1140 408.978,-1172 505.022,-1172 505.022,-1140 408.978,-1140"/>
<text text-anchor="start" x="416.978" y="-1158" font-family="Helvetica,sans-Serif" font-size="10.00">SettingsCollection</text>
<text text-anchor="middle" x="457" y="-1146" font-family="Helvetica,sans-Serif" font-size="10.00">\getAddresses</text>
</a>
</g>
</g>
<!-- Node4&#45;&gt;Node16 -->
<g id="edge15" class="edge"><title>Node4&#45;&gt;Node16</title>
<path fill="none" stroke="midnightblue" d="M337.723,-839.753C339.24,-841.064 340.671,-842.477 342,-844 426.255,-940.511 296.734,-1030.96 378,-1130 385.787,-1139.49 397.144,-1145.54 408.795,-1149.39"/>
<polygon fill="midnightblue" stroke="midnightblue" points="339.71,-836.872 329.508,-834.015 335.702,-842.611 339.71,-836.872"/>
</g>
<!-- Node17 -->
<g id="node17" class="node"><title>Node17</title>
<g id="a_node17"><a xlink:href="class_campaigns_collection.html#ac411f9b4976e489a0433606367a6d329" target="_top" xlink:title="Get detailed Campaign object. ">
<polygon fill="white" stroke="black" points="401.754,-1089 401.754,-1121 512.246,-1121 512.246,-1089 401.754,-1089"/>
<text text-anchor="start" x="409.754" y="-1107" font-family="Helvetica,sans-Serif" font-size="10.00">CampaignsCollection</text>
<text text-anchor="middle" x="457" y="-1095" font-family="Helvetica,sans-Serif" font-size="10.00">\getCampaignDetails</text>
</a>
</g>
</g>
<!-- Node4&#45;&gt;Node17 -->
<g id="edge16" class="edge"><title>Node4&#45;&gt;Node17</title>
<path fill="none" stroke="midnightblue" d="M337.669,-839.801C339.201,-841.098 340.65,-842.495 342,-844 412.55,-922.66 309.887,-998.221 378,-1079 384.257,-1086.42 392.693,-1091.73 401.71,-1095.53"/>
<polygon fill="midnightblue" stroke="midnightblue" points="339.617,-836.893 329.392,-834.117 335.655,-842.664 339.617,-836.893"/>
</g>
<!-- Node18 -->
<g id="node18" class="node"><title>Node18</title>
<g id="a_node18"><a xlink:href="class_campaigns_collection.html#ab3a63de718c94ce760ebf19f59170f0c" target="_top" xlink:title="CampaignsCollection\l\\getCampaignEvents">
<polygon fill="white" stroke="black" points="401.754,-1038 401.754,-1070 512.246,-1070 512.246,-1038 401.754,-1038"/>
<text text-anchor="start" x="409.754" y="-1056" font-family="Helvetica,sans-Serif" font-size="10.00">CampaignsCollection</text>
<text text-anchor="middle" x="457" y="-1044" font-family="Helvetica,sans-Serif" font-size="10.00">\getCampaignEvents</text>
</a>
</g>
</g>
<!-- Node4&#45;&gt;Node18 -->
<g id="edge17" class="edge"><title>Node4&#45;&gt;Node18</title>
<path fill="none" stroke="midnightblue" d="M337.471,-839.781C339.07,-841.082 340.585,-842.486 342,-844 398.904,-904.874 322.984,-965.415 378,-1028 384.314,-1035.18 392.666,-1040.39 401.557,-1044.16"/>
<polygon fill="midnightblue" stroke="midnightblue" points="339.132,-836.683 328.861,-834.085 335.27,-842.521 339.132,-836.683"/>
</g>
<!-- Node19 -->
<g id="node19" class="node"><title>Node19</title>
<g id="a_node19"><a xlink:href="class_campaigns_collection.html#a2ec4b8a52341c840c56881d98d0bfdd6" target="_top" xlink:title="Get a page of Campaigns. ">
<polygon fill="white" stroke="black" points="401.754,-987 401.754,-1019 512.246,-1019 512.246,-987 401.754,-987"/>
<text text-anchor="start" x="409.754" y="-1005" font-family="Helvetica,sans-Serif" font-size="10.00">CampaignsCollection</text>
<text text-anchor="middle" x="457" y="-993" font-family="Helvetica,sans-Serif" font-size="10.00">\getCampaigns</text>
</a>
</g>
</g>
<!-- Node4&#45;&gt;Node19 -->
<g id="edge18" class="edge"><title>Node4&#45;&gt;Node19</title>
<path fill="none" stroke="midnightblue" d="M336.656,-839.406C338.543,-840.811 340.332,-842.339 342,-844 385.383,-887.221 335.959,-932.473 378,-977 384.468,-983.85 392.785,-988.896 401.568,-992.613"/>
<polygon fill="midnightblue" stroke="midnightblue" points="338.193,-836.243 327.837,-834.003 334.536,-842.212 338.193,-836.243"/>
</g>
<!-- Node20 -->
<g id="node20" class="node"><title>Node20</title>
<g id="a_node20"><a xlink:href="class_campaigns_collection.html#a60d74f76a35500fc9bb792fd98d94b3c" target="_top" xlink:title="Get a page of campaigns by status. ">
<polygon fill="white" stroke="black" points="395.36,-936 395.36,-968 518.64,-968 518.64,-936 395.36,-936"/>
<text text-anchor="start" x="403.36" y="-954" font-family="Helvetica,sans-Serif" font-size="10.00">CampaignsCollection</text>
<text text-anchor="middle" x="457" y="-942" font-family="Helvetica,sans-Serif" font-size="10.00">\getCampaignsByStatus</text>
</a>
</g>
</g>
<!-- Node4&#45;&gt;Node20 -->
<g id="edge19" class="edge"><title>Node4&#45;&gt;Node20</title>
<path fill="none" stroke="midnightblue" d="M334.944,-838.839C337.428,-840.394 339.794,-842.108 342,-844 372.214,-869.91 348.592,-899.179 378,-926 383.062,-930.617 388.968,-934.417 395.224,-937.543"/>
<polygon fill="midnightblue" stroke="midnightblue" points="336.58,-835.745 326.106,-834.149 333.298,-841.928 336.58,-835.745"/>
</g>
<!-- Node21 -->
<g id="node21" class="node"><title>Node21</title>
<g id="a_node21"><a xlink:href="class_contacts_collection.html#a55c54d5be74863ecc8dfa0f53a4f430f" target="_top" xlink:title="Get detailed Contact object for a given contact. ">
<polygon fill="white" stroke="black" points="407.313,-885 407.313,-917 506.687,-917 506.687,-885 407.313,-885"/>
<text text-anchor="start" x="415.313" y="-903" font-family="Helvetica,sans-Serif" font-size="10.00">ContactsCollection</text>
<text text-anchor="middle" x="457" y="-891" font-family="Helvetica,sans-Serif" font-size="10.00">\getContactDetails</text>
</a>
</g>
</g>
<!-- Node4&#45;&gt;Node21 -->
<g id="edge20" class="edge"><title>Node4&#45;&gt;Node21</title>
<path fill="none" stroke="midnightblue" d="M326.898,-837.313C332.125,-839.265 337.233,-841.483 342,-844 360.672,-853.858 359.638,-864.576 378,-875 387.062,-880.144 397.298,-884.469 407.302,-888.023"/>
<polygon fill="midnightblue" stroke="midnightblue" points="328.005,-833.993 317.411,-834.08 325.748,-840.618 328.005,-833.993"/>
</g>
<!-- Node22 -->
<g id="node22" class="node"><title>Node22</title>
<g id="a_node22"><a xlink:href="class_contacts_collection.html#a8c5270d8d9d42b17b119c41b64b2e991" target="_top" xlink:title="Get events for a given Contact. ">
<polygon fill="white" stroke="black" points="407.313,-834 407.313,-866 506.687,-866 506.687,-834 407.313,-834"/>
<text text-anchor="start" x="415.313" y="-852" font-family="Helvetica,sans-Serif" font-size="10.00">ContactsCollection</text>
<text text-anchor="middle" x="457" y="-840" font-family="Helvetica,sans-Serif" font-size="10.00">\getContactEvents</text>
</a>
</g>
</g>
<!-- Node4&#45;&gt;Node22 -->
<g id="edge21" class="edge"><title>Node4&#45;&gt;Node22</title>
<path fill="none" stroke="midnightblue" d="M348.482,-835.209C368.437,-837.954 389.182,-840.808 407.065,-843.268"/>
<polygon fill="midnightblue" stroke="midnightblue" points="348.837,-831.725 338.453,-833.829 347.882,-838.66 348.837,-831.725"/>
</g>
<!-- Node23 -->
<g id="node23" class="node"><title>Node23</title>
<g id="a_node23"><a xlink:href="class_contacts_collection.html#a9dcfa1067f115ee7ba5f231b5433e912" target="_top" xlink:title="ContactsCollection\l\\getContacts">
<polygon fill="white" stroke="black" points="407.313,-783 407.313,-815 506.687,-815 506.687,-783 407.313,-783"/>
<text text-anchor="start" x="415.313" y="-801" font-family="Helvetica,sans-Serif" font-size="10.00">ContactsCollection</text>
<text text-anchor="middle" x="457" y="-789" font-family="Helvetica,sans-Serif" font-size="10.00">\getContacts</text>
</a>
</g>
</g>
<!-- Node4&#45;&gt;Node23 -->
<g id="edge22" class="edge"><title>Node4&#45;&gt;Node23</title>
<path fill="none" stroke="midnightblue" d="M348.482,-813.222C368.437,-810.582 389.182,-807.838 407.065,-805.473"/>
<polygon fill="midnightblue" stroke="midnightblue" points="347.907,-809.767 338.453,-814.549 348.825,-816.707 347.907,-809.767"/>
</g>
<!-- Node25 -->
<g id="node25" class="node"><title>Node25</title>
<g id="a_node25"><a xlink:href="class_events_collection.html#afb1f27cb72007acfd6f901d743c8acad" target="_top" xlink:title="Get full details for an Event object. ">
<polygon fill="white" stroke="black" points="390.633,-732 390.633,-764 523.367,-764 523.367,-732 390.633,-732"/>
<text text-anchor="start" x="398.633" y="-750" font-family="Helvetica,sans-Serif" font-size="10.00">EventsCollection\getEvent</text>
<text text-anchor="middle" x="457" y="-738" font-family="Helvetica,sans-Serif" font-size="10.00">Details</text>
</a>
</g>
</g>
<!-- Node4&#45;&gt;Node25 -->
<g id="edge24" class="edge"><title>Node4&#45;&gt;Node25</title>
<path fill="none" stroke="midnightblue" d="M296.806,-809.581C318.956,-799.11 350.048,-784.922 378,-774 386.775,-770.571 396.21,-767.182 405.381,-764.041"/>
<polygon fill="midnightblue" stroke="midnightblue" points="295.125,-806.505 287.599,-813.962 298.133,-812.825 295.125,-806.505"/>
</g>
<!-- Node26 -->
<g id="node26" class="node"><title>Node26</title>
<g id="a_node26"><a xlink:href="class_events_collection.html#ad0ab949e45693fd1d72baed5d5e5d552" target="_top" xlink:title="Get a page of Events. ">
<polygon fill="white" stroke="black" points="388.133,-693 388.133,-713 525.867,-713 525.867,-693 388.133,-693"/>
<text text-anchor="middle" x="457" y="-699" font-family="Helvetica,sans-Serif" font-size="10.00">EventsCollection\getEvents</text>
</a>
</g>
</g>
<!-- Node4&#45;&gt;Node26 -->
<g id="edge25" class="edge"><title>Node4&#45;&gt;Node26</title>
<path fill="none" stroke="midnightblue" d="M281.657,-806.095C301.245,-783.355 338.146,-744.496 378,-723 385.506,-718.952 393.863,-715.697 402.24,-713.088"/>
<polygon fill="midnightblue" stroke="midnightblue" points="278.802,-804.052 275.027,-813.951 284.151,-808.566 278.802,-804.052"/>
</g>
<!-- Node27 -->
<g id="node27" class="node"><title>Node27</title>
<g id="a_node27"><a xlink:href="class_library_collection.html#a9a59624475132d58b8d356ff17cc3d71" target="_top" xlink:title="Get a page of Folders. ">
<polygon fill="white" stroke="black" points="386.749,-654 386.749,-674 527.251,-674 527.251,-654 386.749,-654"/>
<text text-anchor="middle" x="457" y="-660" font-family="Helvetica,sans-Serif" font-size="10.00">LibraryCollection\getFolders</text>
</a>
</g>
</g>
<!-- Node4&#45;&gt;Node27 -->
<g id="edge26" class="edge"><title>Node4&#45;&gt;Node27</title>
<path fill="none" stroke="midnightblue" d="M276.993,-804.47C293.657,-773.917 330.08,-715.103 378,-684 384.332,-679.89 391.464,-676.624 398.775,-674.029"/>
<polygon fill="midnightblue" stroke="midnightblue" points="273.708,-803.193 272.11,-813.667 279.891,-806.475 273.708,-803.193"/>
</g>
<!-- Node28 -->
<g id="node28" class="node"><title>Node28</title>
<g id="a_node28"><a xlink:href="class_library_collection.html#a058e0d1ce52b8880b71a6203a106ed9d" target="_top" xlink:title="Get details for an image. ">
<polygon fill="white" stroke="black" points="389.525,-603 389.525,-635 524.475,-635 524.475,-603 389.525,-603"/>
<text text-anchor="start" x="397.525" y="-621" font-family="Helvetica,sans-Serif" font-size="10.00">LibraryCollection\getImage</text>
<text text-anchor="middle" x="457" y="-609" font-family="Helvetica,sans-Serif" font-size="10.00">Details</text>
</a>
</g>
</g>
<!-- Node4&#45;&gt;Node28 -->
<g id="edge27" class="edge"><title>Node4&#45;&gt;Node28</title>
<path fill="none" stroke="midnightblue" d="M274.006,-804.217C288.004,-767.487 322.902,-688.538 378,-645 382.816,-641.195 388.214,-637.934 393.864,-635.142"/>
<polygon fill="midnightblue" stroke="midnightblue" points="270.653,-803.193 270.472,-813.786 277.22,-805.618 270.653,-803.193"/>
</g>
<!-- Node29 -->
<g id="node29" class="node"><title>Node29</title>
<g id="a_node29"><a xlink:href="class_library_collection.html#aae2790279001240056f5385ea247c80a" target="_top" xlink:title="Gets a page of images from a folder. ">
<polygon fill="white" stroke="black" points="387.025,-552 387.025,-584 526.975,-584 526.975,-552 387.025,-552"/>
<text text-anchor="start" x="395.025" y="-570" font-family="Helvetica,sans-Serif" font-size="10.00">LibraryCollection\getImages</text>
<text text-anchor="middle" x="457" y="-558" font-family="Helvetica,sans-Serif" font-size="10.00">FromFolder</text>
</a>
</g>
</g>
<!-- Node4&#45;&gt;Node29 -->
<g id="edge28" class="edge"><title>Node4&#45;&gt;Node29</title>
<path fill="none" stroke="midnightblue" d="M271.186,-803.621C281.387,-759.065 311.71,-652.312 378,-594 382.394,-590.135 387.382,-586.84 392.66,-584.034"/>
<polygon fill="midnightblue" stroke="midnightblue" points="267.734,-803.025 269.016,-813.542 274.572,-804.521 267.734,-803.025"/>
</g>
<!-- Node30 -->
<g id="node30" class="node"><title>Node30</title>
<g id="a_node30"><a xlink:href="class_lists_collection.html#a4f6e3afda3ab2734a175e1735a0e6e0a" target="_top" xlink:title="Get full details for a ContactList. ">
<polygon fill="white" stroke="black" points="385.36,-513 385.36,-533 528.64,-533 528.64,-513 385.36,-513"/>
<text text-anchor="middle" x="457" y="-519" font-family="Helvetica,sans-Serif" font-size="10.00">ListsCollection\getListDetails</text>
</a>
</g>
</g>
<!-- Node4&#45;&gt;Node30 -->
<g id="edge29" class="edge"><title>Node4&#45;&gt;Node30</title>
<path fill="none" stroke="midnightblue" d="M268.82,-803.804C274.589,-752.15 297.177,-614.289 378,-543 382.613,-538.931 387.945,-535.67 393.611,-533.059"/>
<polygon fill="midnightblue" stroke="midnightblue" points="265.315,-803.675 267.782,-813.979 272.279,-804.386 265.315,-803.675"/>
</g>
<!-- Node31 -->
<g id="node31" class="node"><title>Node31</title>
<g id="a_node31"><a xlink:href="class_lists_collection.html#a6669dd5849b06b88788089506f656af5" target="_top" xlink:title="Get a page of contacts from a given list. ">
<polygon fill="white" stroke="black" points="379.806,-474 379.806,-494 534.194,-494 534.194,-474 379.806,-474"/>
<text text-anchor="middle" x="457" y="-480" font-family="Helvetica,sans-Serif" font-size="10.00">ListsCollection\getListMembers</text>
</a>
</g>
</g>
<!-- Node4&#45;&gt;Node31 -->
<g id="edge30" class="edge"><title>Node4&#45;&gt;Node31</title>
<path fill="none" stroke="midnightblue" d="M267.723,-803.716C270.872,-747.273 287.733,-587.079 378,-504 382.423,-499.929 387.561,-496.662 393.049,-494.042"/>
<polygon fill="midnightblue" stroke="midnightblue" points="264.221,-803.693 267.248,-813.846 271.213,-804.021 264.221,-803.693"/>
</g>
<!-- Node32 -->
<g id="node32" class="node"><title>Node32</title>
<g id="a_node32"><a xlink:href="class_lists_collection.html#a81d8be6f107777e34fc2384b2c4b3150" target="_top" xlink:title="Get an array of ContactList objects. ">
<polygon fill="white" stroke="black" points="398.143,-435 398.143,-455 515.857,-455 515.857,-435 398.143,-435"/>
<text text-anchor="middle" x="457" y="-441" font-family="Helvetica,sans-Serif" font-size="10.00">ListsCollection\getLists</text>
</a>
</g>
</g>
<!-- Node4&#45;&gt;Node32 -->
<g id="edge31" class="edge"><title>Node4&#45;&gt;Node32</title>
<path fill="none" stroke="midnightblue" d="M266.84,-803.748C267.511,-742.906 278.139,-560.097 378,-465 383.669,-459.601 390.591,-455.607 397.945,-452.662"/>
<polygon fill="midnightblue" stroke="midnightblue" points="263.339,-803.926 266.813,-813.935 270.339,-803.944 263.339,-803.926"/>
</g>
<!-- Node33 -->
<g id="node33" class="node"><title>Node33</title>
<g id="a_node33"><a xlink:href="class_events_collection.html#a7ab04dcbb2dd3baed275acf7cf658055" target="_top" xlink:title="Get details for an Event Registrant. ">
<polygon fill="white" stroke="black" points="380.631,-384 380.631,-416 533.369,-416 533.369,-384 380.631,-384"/>
<text text-anchor="start" x="388.631" y="-402" font-family="Helvetica,sans-Serif" font-size="10.00">EventsCollection\getRegistrant</text>
<text text-anchor="middle" x="457" y="-390" font-family="Helvetica,sans-Serif" font-size="10.00">Details</text>
</a>
</g>
</g>
<!-- Node4&#45;&gt;Node33 -->
<g id="edge32" class="edge"><title>Node4&#45;&gt;Node33</title>
<path fill="none" stroke="midnightblue" d="M266.431,-803.636C265.764,-739.091 272.582,-536.8 378,-426 381.64,-422.174 385.858,-418.91 390.41,-416.127"/>
<polygon fill="midnightblue" stroke="midnightblue" points="262.933,-803.787 266.612,-813.723 269.931,-803.661 262.933,-803.787"/>
</g>
<!-- Node34 -->
<g id="node34" class="node"><title>Node34</title>
<g id="a_node34"><a xlink:href="class_events_collection.html#a6baab87fc0a58669c4b88cb2625c4b8a" target="_top" xlink:title="Get a page of Registrants for an Event. ">
<polygon fill="white" stroke="black" points="378.131,-345 378.131,-365 535.869,-365 535.869,-345 378.131,-345"/>
<text text-anchor="middle" x="457" y="-351" font-family="Helvetica,sans-Serif" font-size="10.00">EventsCollection\getRegistrants</text>
</a>
</g>
</g>
<!-- Node4&#45;&gt;Node34 -->
<g id="edge33" class="edge"><title>Node4&#45;&gt;Node34</title>
<path fill="none" stroke="midnightblue" d="M269.257,-803.767C278.475,-724.688 315.765,-437.776 378,-375 382.035,-370.93 386.779,-367.65 391.9,-365.012"/>
<polygon fill="midnightblue" stroke="midnightblue" points="265.76,-803.542 268.101,-813.875 272.715,-804.337 265.76,-803.542"/>
</g>
<!-- Node35 -->
<g id="node35" class="node"><title>Node35</title>
<g id="a_node35"><a xlink:href="class_campaigns_collection.html#a7b245605bb0707dfec9d384521a39ad6" target="_top" xlink:title="Get a schedule for an email. ">
<polygon fill="white" stroke="black" points="401.754,-294 401.754,-326 512.246,-326 512.246,-294 401.754,-294"/>
<text text-anchor="start" x="409.754" y="-312" font-family="Helvetica,sans-Serif" font-size="10.00">CampaignsCollection</text>
<text text-anchor="middle" x="457" y="-300" font-family="Helvetica,sans-Serif" font-size="10.00">\getSchedule</text>
</a>
</g>
</g>
<!-- Node4&#45;&gt;Node35 -->
<g id="edge34" class="edge"><title>Node4&#45;&gt;Node35</title>
<path fill="none" stroke="midnightblue" d="M268.974,-803.773C277.458,-720.769 313.353,-407.322 378,-336 384.423,-328.914 392.826,-323.756 401.734,-320.003"/>
<polygon fill="midnightblue" stroke="midnightblue" points="265.474,-803.607 267.959,-813.906 272.439,-804.305 265.474,-803.607"/>
</g>
<!-- Node36 -->
<g id="node36" class="node"><title>Node36</title>
<g id="a_node36"><a xlink:href="class_campaigns_collection.html#a0d5df67f0dd50c64257c8b0135196509" target="_top" xlink:title="Schedule an email for delivery. ">
<polygon fill="white" stroke="black" points="401.754,-243 401.754,-275 512.246,-275 512.246,-243 401.754,-243"/>
<text text-anchor="start" x="409.754" y="-261" font-family="Helvetica,sans-Serif" font-size="10.00">CampaignsCollection</text>
<text text-anchor="middle" x="457" y="-249" font-family="Helvetica,sans-Serif" font-size="10.00">\scheduleCampaign</text>
</a>
</g>
</g>
<!-- Node4&#45;&gt;Node36 -->
<g id="edge35" class="edge"><title>Node4&#45;&gt;Node36</title>
<path fill="none" stroke="midnightblue" d="M268.512,-803.668C275.477,-715.21 307.204,-364.737 378,-285 384.35,-277.848 392.718,-272.659 401.615,-268.895"/>
<polygon fill="midnightblue" stroke="midnightblue" points="265.014,-803.506 267.737,-813.745 271.993,-804.043 265.014,-803.506"/>
</g>
<!-- Node37 -->
<g id="node37" class="node"><title>Node37</title>
<g id="a_node37"><a xlink:href="class_contacts_collection.html#a607e64e75eef78c7e3d22362d6400541" target="_top" xlink:title="Search for Contacts by email addresses. ">
<polygon fill="white" stroke="black" points="394.535,-192 394.535,-224 519.465,-224 519.465,-192 394.535,-192"/>
<text text-anchor="start" x="402.535" y="-210" font-family="Helvetica,sans-Serif" font-size="10.00">ContactsCollection</text>
<text text-anchor="middle" x="457" y="-198" font-family="Helvetica,sans-Serif" font-size="10.00">\searchContactsByEmail</text>
</a>
</g>
</g>
<!-- Node4&#45;&gt;Node37 -->
<g id="edge36" class="edge"><title>Node4&#45;&gt;Node37</title>
<path fill="none" stroke="midnightblue" d="M268.124,-803.568C273.673,-709.882 301.03,-322.202 378,-234 382.599,-228.73 388.295,-224.525 394.499,-221.17"/>
<polygon fill="midnightblue" stroke="midnightblue" points="264.621,-803.528 267.542,-813.713 271.609,-803.93 264.621,-803.528"/>
</g>
<!-- Node38 -->
<g id="node38" class="node"><title>Node38</title>
<g id="a_node38"><a xlink:href="class_campaigns_collection.html#a9c9715edb4f23ba515ce7b53a38cfdbb" target="_top" xlink:title="Update a campaign with it&#39;s current properties. ">
<polygon fill="white" stroke="black" points="401.754,-141 401.754,-173 512.246,-173 512.246,-141 401.754,-141"/>
<text text-anchor="start" x="409.754" y="-159" font-family="Helvetica,sans-Serif" font-size="10.00">CampaignsCollection</text>
<text text-anchor="middle" x="457" y="-147" font-family="Helvetica,sans-Serif" font-size="10.00">\updateCampaign</text>
</a>
</g>
</g>
<!-- Node4&#45;&gt;Node38 -->
<g id="edge37" class="edge"><title>Node4&#45;&gt;Node38</title>
<path fill="none" stroke="midnightblue" d="M267.785,-803.706C271.978,-705.435 294.768,-279.785 378,-183 384.236,-175.749 392.55,-170.512 401.428,-166.733"/>
<polygon fill="midnightblue" stroke="midnightblue" points="264.284,-803.664 267.371,-813.799 271.278,-803.95 264.284,-803.664"/>
</g>
<!-- Node39 -->
<g id="node39" class="node"><title>Node39</title>
<g id="a_node39"><a xlink:href="class_contacts_collection.html#a7b797f7d3ca86f6ade7c4266f56e3699" target="_top" xlink:title="Update a Contact. ">
<polygon fill="white" stroke="black" points="407.313,-90 407.313,-122 506.687,-122 506.687,-90 407.313,-90"/>
<text text-anchor="start" x="415.313" y="-108" font-family="Helvetica,sans-Serif" font-size="10.00">ContactsCollection</text>
<text text-anchor="middle" x="457" y="-96" font-family="Helvetica,sans-Serif" font-size="10.00">\updateContact</text>
</a>
</g>
</g>
<!-- Node4&#45;&gt;Node39 -->
<g id="edge38" class="edge"><title>Node4&#45;&gt;Node39</title>
<path fill="none" stroke="midnightblue" d="M267.5,-803.754C270.432,-700.936 288.511,-237.377 378,-132 385.484,-123.187 396.041,-117.348 406.977,-113.483"/>
<polygon fill="midnightblue" stroke="midnightblue" points="263.994,-803.903 267.225,-813.993 270.992,-804.09 263.994,-803.903"/>
</g>
<!-- Node40 -->
<g id="node40" class="node"><title>Node40</title>
<g id="a_node40"><a xlink:href="class_lists_collection.html#a3694026dd4e0ecd253a4232a00ef11e8" target="_top" xlink:title="Update a ContactList. ">
<polygon fill="white" stroke="black" points="392.301,-51 392.301,-71 521.699,-71 521.699,-51 392.301,-51"/>
<text text-anchor="middle" x="457" y="-57" font-family="Helvetica,sans-Serif" font-size="10.00">ListsCollection\updateList</text>
</a>
</g>
</g>
<!-- Node4&#45;&gt;Node40 -->
<g id="edge39" class="edge"><title>Node4&#45;&gt;Node40</title>
<path fill="none" stroke="midnightblue" d="M267.113,-803.847C268.128,-696.391 278.213,-191.6 378,-81 382.027,-76.5368 386.902,-73.0087 392.226,-70.2274"/>
<polygon fill="midnightblue" stroke="midnightblue" points="263.612,-803.946 267.034,-813.973 270.612,-804 263.612,-803.946"/>
</g>
<!-- Node41 -->
<g id="node41" class="node"><title>Node41</title>
<g id="a_node41"><a xlink:href="class_library_collection.html#af84484f3dd033f05f78425a0a367ec82" target="_top" xlink:title="Upload an image to a folder. ">
<polygon fill="white" stroke="black" points="395.357,-0 395.357,-32 518.643,-32 518.643,-0 395.357,-0"/>
<text text-anchor="start" x="403.357" y="-18" font-family="Helvetica,sans-Serif" font-size="10.00">LibraryCollection\upload</text>
<text text-anchor="middle" x="457" y="-6" font-family="Helvetica,sans-Serif" font-size="10.00">Image</text>
</a>
</g>
</g>
<!-- Node4&#45;&gt;Node41 -->
<g id="edge40" class="edge"><title>Node4&#45;&gt;Node41</title>
<path fill="none" stroke="midnightblue" d="M267.089,-803.617C267.978,-692.716 277.496,-162.535 378,-42 382.662,-36.4088 388.562,-32.0135 395.022,-28.5594"/>
<polygon fill="midnightblue" stroke="midnightblue" points="263.589,-803.757 267.024,-813.779 270.588,-803.802 263.589,-803.757"/>
</g>
<!-- Node24 -->
<g id="node24" class="node"><title>Node24</title>
<g id="a_node24"><a xlink:href="class_contacts_collection.html#a5b3e93e3981dcec723292446f678f053" target="_top" xlink:title="Search for contacts that have been updated since a specific date. ">
<polygon fill="white" stroke="black" points="572.463,-783 572.463,-815 723.537,-815 723.537,-783 572.463,-783"/>
<text text-anchor="start" x="580.463" y="-801" font-family="Helvetica,sans-Serif" font-size="10.00">ContactsCollection</text>
<text text-anchor="middle" x="648" y="-789" font-family="Helvetica,sans-Serif" font-size="10.00">\searchContactsByLastUpdate</text>
</a>
</g>
</g>
<!-- Node23&#45;&gt;Node24 -->
<g id="edge23" class="edge"><title>Node23&#45;&gt;Node24</title>
<path fill="none" stroke="midnightblue" d="M517.224,-799C534.716,-799 554.091,-799 572.419,-799"/>
<polygon fill="midnightblue" stroke="midnightblue" points="517.164,-795.5 507.164,-799 517.164,-802.5 517.164,-795.5"/>
</g>
</g>
</svg>
        <g id="navigator" transform="translate(0 0)" fill="#404254">
                <rect fill="#f2f5e9" fill-opacity="0.5" stroke="#606060" stroke-width=".5" x="0" y="0" width="60" height="60"/>
                <use id="zoomplus" xlink:href="#zoomPlus" x="17" y="9" onmousedown="handleZoom(evt,'in')"/>
                <use id="zoomminus" xlink:href="#zoomMin" x="42" y="9" onmousedown="handleZoom(evt,'out')"/>
                <use id="reset" xlink:href="#resetDef" x="30" y="36" onmousedown="handleReset()"/>
                <g id="arrowUp" xlink:href="#dirArrow" transform="translate(30 24)" onmousedown="handlePan(0,-1)">
                  <use xlink:href="#rim" fill="#404040">
                        <set attributeName="fill" to="#808080" begin="arrowUp.mouseover" end="arrowUp.mouseout"/>
                  </use>
                  <path fill="none" stroke="white" stroke-width="1.5" d="M0,-3.0v7 M-2.5,-0.5L0,-3.0L2.5,-0.5"/>
                </g>
                <g id="arrowRight" xlink:href="#dirArrow" transform="rotate(90) translate(36 -43)" onmousedown="handlePan(1,0)">
                  <use xlink:href="#rim" fill="#404040">
                        <set attributeName="fill" to="#808080" begin="arrowRight.mouseover" end="arrowRight.mouseout"/>
                  </use>
                  <path fill="none" stroke="white" stroke-width="1.5" d="M0,-3.0v7 M-2.5,-0.5L0,-3.0L2.5,-0.5"/>
                </g>
                <g id="arrowDown" xlink:href="#dirArrow" transform="rotate(180) translate(-30 -48)" onmousedown="handlePan(0,1)">
                  <use xlink:href="#rim" fill="#404040">
                        <set attributeName="fill" to="#808080" begin="arrowDown.mouseover" end="arrowDown.mouseout"/>
                  </use>
                  <path fill="none" stroke="white" stroke-width="1.5" d="M0,-3.0v7 M-2.5,-0.5L0,-3.0L2.5,-0.5"/>
                </g>
                <g id="arrowLeft" xlink:href="#dirArrow" transform="rotate(270) translate(-36 17)" onmousedown="handlePan(-1,0)">
                  <use xlink:href="#rim" fill="#404040">
                        <set attributeName="fill" to="#808080" begin="arrowLeft.mouseover" end="arrowLeft.mouseout"/>
                  </use>
                  <path fill="none" stroke="white" stroke-width="1.5" d="M0,-3.0v7 M-2.5,-0.5L0,-3.0L2.5,-0.5"/>
                </g>
        </g>
        <svg viewBox="0 0 15 15" width="100%" height="30px" preserveAspectRatio="xMaxYMin meet">
         <g id="arrow_out" transform="scale(0.3 0.3)">
          <a xlink:href="class_o_auth_request_afe9d0f6cb8e0dadb1c0faeea9ecafe45_icgraph_org.svg" target="_base">
           <rect id="button" ry="5" rx="5" y="6" x="6" height="38" width="38"
                fill="#f2f5e9" fill-opacity="0.5" stroke="#606060" stroke-width="1.0"/>
           <path id="arrow"
             d="M 11.500037,31.436501 C 11.940474,20.09759 22.043105,11.32322 32.158766,21.979434 L 37.068811,17.246167 C 37.068811,17.246167 37.088388,32 37.088388,32 L 22.160133,31.978069 C 22.160133,31.978069 26.997745,27.140456 26.997745,27.140456 C 18.528582,18.264221 13.291696,25.230495 11.500037,31.436501 z"
             style="fill:#404040;"/>
          </a>
         </g>
        </svg>
</svg>
