<?xml version="1.0" encoding="UTF-8" standalone="no"?>
<!DOCTYPE svg PUBLIC "-//W3C//DTD SVG 1.1//EN"
 "http://www.w3.org/Graphics/SVG/1.1/DTD/svg11.dtd">
<!-- Generated by graphviz version 2.30.1 (20130221.2233)
 -->
<!-- Title: Utility\findUrl Pages: 1 -->
<svg width="430pt" height="28pt"
 viewBox="0.00 0.00 430.00 28.00" xmlns="http://www.w3.org/2000/svg" xmlns:xlink="http://www.w3.org/1999/xlink">
<g id="graph0" class="graph" transform="scale(1 1) rotate(0) translate(4 24)">
<title>Utility\findUrl</title>
<polygon fill="white" stroke="white" points="-4,5 -4,-24 427,-24 427,5 -4,5"/>
<!-- Node1 -->
<g id="node1" class="node"><title>Node1</title>
<polygon fill="#bfbfbf" stroke="black" points="-0.059082,-0 -0.059082,-20 72.0591,-20 72.0591,-0 -0.059082,-0"/>
<text text-anchor="middle" x="36" y="-6" font-family="Helvetica,sans-Serif" font-size="10.00">Utility\findUrl</text>
</g>
<!-- Node2 -->
<g id="node2" class="node"><title>Node2</title>
<g id="a_node2"><a xlink:href="class_c_t_c_t_exception.html#adc8307ec7d7a2c730b0dac678d0e7fcb" target="_top" xlink:title="CTCTException\\generateError">
<polygon fill="white" stroke="black" points="108.473,-0 108.473,-20 259.527,-20 259.527,-0 108.473,-0"/>
<text text-anchor="middle" x="184" y="-6" font-family="Helvetica,sans-Serif" font-size="10.00">CTCTException\generateError</text>
</a>
</g>
</g>
<!-- Node1&#45;&gt;Node2 -->
<g id="edge1" class="edge"><title>Node1&#45;&gt;Node2</title>
<path fill="none" stroke="midnightblue" d="M72.3425,-10C80.3137,-10 89.1098,-10 98.1551,-10"/>
<polygon fill="midnightblue" stroke="midnightblue" points="98.4429,-13.5001 108.443,-10 98.4429,-6.5001 98.4429,-13.5001"/>
</g>
<!-- Node3 -->
<g id="node3" class="node"><title>Node3</title>
<g id="a_node3"><a xlink:href="class_c_t_c_t_exception.html#a6a86531406328bbd2a6c6252b7fb3a70" target="_top" xlink:title="CTCTException\\logError">
<polygon fill="white" stroke="black" points="296.54,-0 296.54,-20 421.46,-20 421.46,-0 296.54,-0"/>
<text text-anchor="middle" x="359" y="-6" font-family="Helvetica,sans-Serif" font-size="10.00">CTCTException\logError</text>
</a>
</g>
</g>
<!-- Node2&#45;&gt;Node3 -->
<g id="edge2" class="edge"><title>Node2&#45;&gt;Node3</title>
<path fill="none" stroke="midnightblue" d="M259.623,-10C268.431,-10 277.406,-10 286.174,-10"/>
<polygon fill="midnightblue" stroke="midnightblue" points="286.349,-13.5001 296.349,-10 286.349,-6.5001 286.349,-13.5001"/>
</g>
</g>
</svg>
