<?xml version="1.0" encoding="UTF-8" standalone="no"?>
<!DOCTYPE svg PUBLIC "-//W3C//DTD SVG 1.1//EN"
 "http://www.w3.org/Graphics/SVG/1.1/DTD/svg11.dtd">
<!-- Generated by graphviz version 2.30.1 (20130221.2233)
 -->
<!-- Title: JsonLoader\getOpens Pages: 1 -->
<svg width="310pt" height="91pt"
 viewBox="0.00 0.00 310.00 91.00" xmlns="http://www.w3.org/2000/svg" xmlns:xlink="http://www.w3.org/1999/xlink">
<g id="graph0" class="graph" transform="scale(1 1) rotate(0) translate(4 87)">
<title>JsonLoader\getOpens</title>
<polygon fill="white" stroke="white" points="-4,5 -4,-87 307,-87 307,5 -4,5"/>
<!-- Node1 -->
<g id="node1" class="node"><title>Node1</title>
<polygon fill="#bfbfbf" stroke="black" points="-0.20166,-31 -0.20166,-51 114.202,-51 114.202,-31 -0.20166,-31"/>
<text text-anchor="middle" x="57" y="-37" font-family="Helvetica,sans-Serif" font-size="10.00">JsonLoader\getOpens</text>
</g>
<!-- Node2 -->
<g id="node2" class="node"><title>Node2</title>
<g id="a_node2"><a xlink:href="class_contact_tracking_service_unit_test.html#acd4db56a72bda670b9c3aa2c8e44b40b" target="_top" xlink:title="ContactTrackingServiceUnit\lTest\\testGetOpens">
<polygon fill="white" stroke="black" points="156.215,-51 156.215,-83 295.785,-83 295.785,-51 156.215,-51"/>
<text text-anchor="start" x="164.215" y="-69" font-family="Helvetica,sans-Serif" font-size="10.00">ContactTrackingServiceUnit</text>
<text text-anchor="middle" x="226" y="-57" font-family="Helvetica,sans-Serif" font-size="10.00">Test\testGetOpens</text>
</a>
</g>
</g>
<!-- Node1&#45;&gt;Node2 -->
<g id="edge1" class="edge"><title>Node1&#45;&gt;Node2</title>
<path fill="none" stroke="midnightblue" d="M124.713,-51.3865C135.032,-52.993 145.707,-54.655 156.073,-56.2688"/>
<polygon fill="midnightblue" stroke="midnightblue" points="124.958,-47.8825 114.539,-49.8024 123.881,-54.7992 124.958,-47.8825"/>
</g>
<!-- Node3 -->
<g id="node3" class="node"><title>Node3</title>
<g id="a_node3"><a xlink:href="class_campaign_tracking_service_unit_test.html#a2734cc3c06e44ac0c4a2e39610beb64b" target="_top" xlink:title="CampaignTrackingServiceUnit\lTest\\testGetOpens">
<polygon fill="white" stroke="black" points="150.656,-0 150.656,-32 301.344,-32 301.344,-0 150.656,-0"/>
<text text-anchor="start" x="158.656" y="-18" font-family="Helvetica,sans-Serif" font-size="10.00">CampaignTrackingServiceUnit</text>
<text text-anchor="middle" x="226" y="-6" font-family="Helvetica,sans-Serif" font-size="10.00">Test\testGetOpens</text>
</a>
</g>
</g>
<!-- Node1&#45;&gt;Node3 -->
<g id="edge2" class="edge"><title>Node1&#45;&gt;Node3</title>
<path fill="none" stroke="midnightblue" d="M124.439,-31.054C132.99,-29.774 141.79,-28.4566 150.459,-27.1588"/>
<polygon fill="midnightblue" stroke="midnightblue" points="123.91,-27.5941 114.539,-32.5361 124.947,-34.517 123.91,-27.5941"/>
</g>
</g>
</svg>
