<?xml version="1.0" encoding="UTF-8" standalone="no"?>
<!DOCTYPE svg PUBLIC "-//W3C//DTD SVG 1.1//EN"
 "http://www.w3.org/Graphics/SVG/1.1/DTD/svg11.dtd">
<!-- Generated by graphviz version 2.30.1 (20130221.2233)
 -->
<!-- Title: Net_DNS_Resolver\read_env Pages: 1 -->
<svg width="890pt" height="118pt"
 viewBox="0.00 0.00 890.00 118.12" xmlns="http://www.w3.org/2000/svg" xmlns:xlink="http://www.w3.org/1999/xlink">
<g id="graph0" class="graph" transform="scale(1 1) rotate(0) translate(4 114.118)">
<title>Net_DNS_Resolver\read_env</title>
<polygon fill="white" stroke="white" points="-4,5 -4,-114.118 887,-114.118 887,5 -4,5"/>
<!-- Node1 -->
<g id="node1" class="node"><title>Node1</title>
<polygon fill="#bfbfbf" stroke="black" points="0.133301,-12.9266 0.133301,-32.9266 147.867,-32.9266 147.867,-12.9266 0.133301,-12.9266"/>
<text text-anchor="middle" x="74" y="-18.9266" font-family="Helvetica,sans-Serif" font-size="10.00">Net_DNS_Resolver\read_env</text>
</g>
<!-- Node2 -->
<g id="node2" class="node"><title>Node2</title>
<g id="a_node2"><a xlink:href="class_net___d_n_s___resolver.html#a3bf22a7a58480dd7a6fd0dd17807fc70" target="_top" xlink:title="Gets or sets the nameservers to be queried. ">
<polygon fill="white" stroke="black" points="184.084,-46.9266 184.084,-66.9266 347.916,-66.9266 347.916,-46.9266 184.084,-46.9266"/>
<text text-anchor="middle" x="266" y="-52.9266" font-family="Helvetica,sans-Serif" font-size="10.00">Net_DNS_Resolver\nameservers</text>
</a>
</g>
</g>
<!-- Node1&#45;&gt;Node2 -->
<g id="edge1" class="edge"><title>Node1&#45;&gt;Node2</title>
<path fill="none" stroke="midnightblue" d="M130.979,-32.9438C152.337,-36.7658 176.88,-41.1578 199.079,-45.1302"/>
<polygon fill="midnightblue" stroke="midnightblue" points="198.633,-48.606 209.093,-46.9223 199.866,-41.7154 198.633,-48.606"/>
</g>
<!-- Node3 -->
<g id="node3" class="node"><title>Node3</title>
<g id="a_node3"><a xlink:href="class_net___d_n_s___resolver.html#ae1bb14089519fe774d025156114aae4f" target="_top" xlink:title="Net_DNS_Resolver\\cname_addr">
<polygon fill="white" stroke="black" points="384.188,-69.9266 384.188,-89.9266 545.812,-89.9266 545.812,-69.9266 384.188,-69.9266"/>
<text text-anchor="middle" x="465" y="-75.9266" font-family="Helvetica,sans-Serif" font-size="10.00">Net_DNS_Resolver\cname_addr</text>
</a>
</g>
</g>
<!-- Node2&#45;&gt;Node3 -->
<g id="edge2" class="edge"><title>Node2&#45;&gt;Node3</title>
<path fill="none" stroke="midnightblue" d="M347.98,-66.3812C356.523,-67.3786 365.248,-68.3972 373.886,-69.4057"/>
<polygon fill="midnightblue" stroke="midnightblue" points="373.632,-72.8997 383.97,-70.583 374.444,-65.9469 373.632,-72.8997"/>
</g>
<!-- Node4 -->
<g id="node4" class="node"><title>Node4</title>
<g id="a_node4"><a xlink:href="class_net___d_n_s___resolver.html#a4358663ec326e406c398f6cb09bd5544" target="_top" xlink:title="Initializes the Resolver Object. ">
<polygon fill="white" stroke="black" points="404.202,-18.9266 404.202,-50.9266 525.798,-50.9266 525.798,-18.9266 404.202,-18.9266"/>
<text text-anchor="start" x="412.202" y="-36.9266" font-family="Helvetica,sans-Serif" font-size="10.00">Net_DNS_Resolver\Net</text>
<text text-anchor="middle" x="465" y="-24.9266" font-family="Helvetica,sans-Serif" font-size="10.00">_DNS_Resolver</text>
</a>
</g>
</g>
<!-- Node2&#45;&gt;Node4 -->
<g id="edge3" class="edge"><title>Node2&#45;&gt;Node4</title>
<path fill="none" stroke="midnightblue" d="M347.98,-47.8831C363.242,-46.1787 379.084,-44.4096 393.976,-42.7466"/>
<polygon fill="midnightblue" stroke="midnightblue" points="394.565,-46.2026 404.115,-41.6143 393.788,-39.2459 394.565,-46.2026"/>
</g>
<!-- Node5 -->
<g id="node5" class="node"><title>Node5</title>
<g id="a_node5"><a xlink:href="class_net___d_n_s___resolver.html#aa2e8d58074354b1f9292500119470431" target="_top" xlink:title="Initalizes the resolver library. ">
<polygon fill="white" stroke="black" points="581.865,-24.9266 581.865,-44.9266 720.135,-44.9266 720.135,-24.9266 581.865,-24.9266"/>
<text text-anchor="middle" x="651" y="-30.9266" font-family="Helvetica,sans-Serif" font-size="10.00">Net_DNS_Resolver\res_init</text>
</a>
</g>
</g>
<!-- Node4&#45;&gt;Node5 -->
<g id="edge4" class="edge"><title>Node4&#45;&gt;Node5</title>
<path fill="none" stroke="midnightblue" d="M525.994,-34.9266C540.479,-34.9266 556.174,-34.9266 571.372,-34.9266"/>
<polygon fill="midnightblue" stroke="midnightblue" points="571.793,-38.4267 581.793,-34.9266 571.793,-31.4267 571.793,-38.4267"/>
</g>
<!-- Node6 -->
<g id="node6" class="node"><title>Node6</title>
<g id="a_node6"><a xlink:href="class_net___d_n_s___resolver.html#ae4def11574ad6e93176670c726541bed" target="_top" xlink:title="Reads and parses a resolver configuration file. ">
<polygon fill="white" stroke="black" points="755.976,-60.9266 755.976,-92.9266 882.024,-92.9266 882.024,-60.9266 755.976,-60.9266"/>
<text text-anchor="start" x="763.976" y="-78.9266" font-family="Helvetica,sans-Serif" font-size="10.00">Net_DNS_Resolver\read</text>
<text text-anchor="middle" x="819" y="-66.9266" font-family="Helvetica,sans-Serif" font-size="10.00">_config</text>
</a>
</g>
</g>
<!-- Node5&#45;&gt;Node6 -->
<g id="edge5" class="edge"><title>Node5&#45;&gt;Node6</title>
<path fill="none" stroke="midnightblue" d="M691.761,-44.9867C708.022,-49.1009 727.355,-53.9923 745.943,-58.6953"/>
<polygon fill="midnightblue" stroke="midnightblue" points="745.317,-62.1473 755.87,-61.2071 747.034,-55.3611 745.317,-62.1473"/>
</g>
<!-- Node5&#45;&gt;Node1 -->
<g id="edge7" class="edge"><title>Node5&#45;&gt;Node1</title>
<path fill="none" stroke="midnightblue" d="M618.518,-24.9161C598.087,-18.9546 570.752,-11.9737 546,-8.92661 410.864,7.70936 252.36,-3.20358 157.992,-12.8759"/>
<polygon fill="midnightblue" stroke="midnightblue" points="157.518,-9.40626 147.936,-13.9269 158.246,-16.3683 157.518,-9.40626"/>
</g>
<!-- Node6&#45;&gt;Node2 -->
<g id="edge6" class="edge"><title>Node6&#45;&gt;Node2</title>
<path fill="none" stroke="midnightblue" d="M755.665,-88.6995C670.892,-102.758 514.815,-121.695 384,-98.9266 353.489,-93.6162 320.421,-81.0623 297.249,-71.0542"/>
<polygon fill="midnightblue" stroke="midnightblue" points="298.522,-67.7902 287.961,-66.9494 295.693,-74.1929 298.522,-67.7902"/>
</g>
</g>
</svg>
