<?xml version="1.0" encoding="UTF-8" standalone="no"?>
<!DOCTYPE svg PUBLIC "-//W3C//DTD SVG 1.1//EN"
 "http://www.w3.org/Graphics/SVG/1.1/DTD/svg11.dtd">
<!-- Generated by graphviz version 2.30.1 (20130221.2233)
 -->
<!-- Title: JsonLoader\getRemoveContactsFromListsActivity Pages: 1 -->
<svg width="380pt" height="115pt"
 viewBox="0.00 0.00 380.00 115.00" xmlns="http://www.w3.org/2000/svg" xmlns:xlink="http://www.w3.org/1999/xlink">
<g id="graph0" class="graph" transform="scale(1 1) rotate(0) translate(4 111)">
<title>JsonLoader\getRemoveContactsFromListsActivity</title>
<polygon fill="white" stroke="white" points="-4,5 -4,-111 377,-111 377,5 -4,5"/>
<!-- Node1 -->
<g id="node1" class="node"><title>Node1</title>
<polygon fill="#bfbfbf" stroke="black" points="0.180176,-37 0.180176,-69 161.82,-69 161.82,-37 0.180176,-37"/>
<text text-anchor="start" x="8.18018" y="-55" font-family="Helvetica,sans-Serif" font-size="10.00">JsonLoader\getRemoveContacts</text>
<text text-anchor="middle" x="81" y="-43" font-family="Helvetica,sans-Serif" font-size="10.00">FromListsActivity</text>
</g>
<!-- Node2 -->
<g id="node2" class="node"><title>Node2</title>
<g id="a_node2"><a xlink:href="class_activity_service_unit_test.html#a367c703d501108bd312287fbdee7df2d" target="_top" xlink:title="ActivityServiceUnitTest\l\\testAddRemoveContactsFromLists\lActivity">
<polygon fill="white" stroke="black" points="198.36,-63 198.36,-107 371.64,-107 371.64,-63 198.36,-63"/>
<text text-anchor="start" x="206.36" y="-93" font-family="Helvetica,sans-Serif" font-size="10.00">ActivityServiceUnitTest</text>
<text text-anchor="start" x="206.36" y="-81" font-family="Helvetica,sans-Serif" font-size="10.00">\testAddRemoveContactsFromLists</text>
<text text-anchor="middle" x="285" y="-69" font-family="Helvetica,sans-Serif" font-size="10.00">Activity</text>
</a>
</g>
</g>
<!-- Node1&#45;&gt;Node2 -->
<g id="edge1" class="edge"><title>Node1&#45;&gt;Node2</title>
<path fill="none" stroke="midnightblue" d="M171.967,-67.2522C180.653,-68.6283 189.45,-70.0218 198.096,-71.3914"/>
<polygon fill="midnightblue" stroke="midnightblue" points="172.26,-63.7551 161.836,-65.6472 171.165,-70.6689 172.26,-63.7551"/>
</g>
<!-- Node3 -->
<g id="node3" class="node"><title>Node3</title>
<g id="a_node3"><a xlink:href="class_activity_service_unit_test.html#a3ce59f184e1e3a4dcf2672fa62b4da23" target="_top" xlink:title="ActivityServiceUnitTest\l\\testAddRemoveContactsFromLists\lActivityFromFile">
<polygon fill="white" stroke="black" points="198.36,-0 198.36,-44 371.64,-44 371.64,-0 198.36,-0"/>
<text text-anchor="start" x="206.36" y="-30" font-family="Helvetica,sans-Serif" font-size="10.00">ActivityServiceUnitTest</text>
<text text-anchor="start" x="206.36" y="-18" font-family="Helvetica,sans-Serif" font-size="10.00">\testAddRemoveContactsFromLists</text>
<text text-anchor="middle" x="285" y="-6" font-family="Helvetica,sans-Serif" font-size="10.00">ActivityFromFile</text>
</a>
</g>
</g>
<!-- Node1&#45;&gt;Node3 -->
<g id="edge2" class="edge"><title>Node1&#45;&gt;Node3</title>
<path fill="none" stroke="midnightblue" d="M171.967,-39.1932C180.653,-37.8601 189.45,-36.5101 198.096,-35.1833"/>
<polygon fill="midnightblue" stroke="midnightblue" points="171.189,-35.7715 161.836,-40.748 172.251,-42.6905 171.189,-35.7715"/>
</g>
</g>
</svg>
