<?xml version="1.0" encoding="UTF-8" standalone="no"?>
<!DOCTYPE svg PUBLIC "-//W3C//DTD SVG 1.1//EN"
 "http://www.w3.org/Graphics/SVG/1.1/DTD/svg11.dtd">
<!-- Generated by graphviz version 2.30.1 (20130221.2233)
 -->
<!-- Title: Net_DNS_Resolver\cname_addr Pages: 1 -->
<svg width="1444pt" height="396pt"
 viewBox="0.00 0.00 1444.00 396.05" xmlns="http://www.w3.org/2000/svg" xmlns:xlink="http://www.w3.org/1999/xlink">
<g id="graph0" class="graph" transform="scale(1 1) rotate(0) translate(4 392.046)">
<title>Net_DNS_Resolver\cname_addr</title>
<polygon fill="white" stroke="white" points="-4,5 -4,-392.046 1441,-392.046 1441,5 -4,5"/>
<!-- Node1 -->
<g id="node1" class="node"><title>Node1</title>
<polygon fill="#bfbfbf" stroke="black" points="0.1875,-186 0.1875,-206 161.812,-206 161.812,-186 0.1875,-186"/>
<text text-anchor="middle" x="81" y="-192" font-family="Helvetica,sans-Serif" font-size="10.00">Net_DNS_Resolver\cname_addr</text>
</g>
<!-- Node2 -->
<g id="node2" class="node"><title>Node2</title>
<g id="a_node2"><a xlink:href="class_net___d_n_s___resolver.html#a3bf22a7a58480dd7a6fd0dd17807fc70" target="_top" xlink:title="Gets or sets the nameservers to be queried. ">
<polygon fill="white" stroke="black" points="198.084,-186 198.084,-206 361.916,-206 361.916,-186 198.084,-186"/>
<text text-anchor="middle" x="280" y="-192" font-family="Helvetica,sans-Serif" font-size="10.00">Net_DNS_Resolver\nameservers</text>
</a>
</g>
</g>
<!-- Node1&#45;&gt;Node2 -->
<g id="edge1" class="edge"><title>Node1&#45;&gt;Node2</title>
<path fill="none" stroke="midnightblue" d="M171.996,-196C180.694,-196 189.48,-196 198.082,-196"/>
<polygon fill="midnightblue" stroke="midnightblue" points="171.843,-192.5 161.843,-196 171.843,-199.5 171.843,-192.5"/>
</g>
<!-- Node3 -->
<g id="node3" class="node"><title>Node3</title>
<g id="a_node3"><a xlink:href="class_net___d_n_s___resolver.html#ae4def11574ad6e93176670c726541bed" target="_top" xlink:title="Reads and parses a resolver configuration file. ">
<polygon fill="white" stroke="black" points="408.976,-309 408.976,-341 535.024,-341 535.024,-309 408.976,-309"/>
<text text-anchor="start" x="416.976" y="-327" font-family="Helvetica,sans-Serif" font-size="10.00">Net_DNS_Resolver\read</text>
<text text-anchor="middle" x="472" y="-315" font-family="Helvetica,sans-Serif" font-size="10.00">_config</text>
</a>
</g>
</g>
<!-- Node2&#45;&gt;Node3 -->
<g id="edge2" class="edge"><title>Node2&#45;&gt;Node3</title>
<path fill="none" stroke="midnightblue" d="M296.951,-213.709C318.101,-236.262 357.496,-275.159 398,-299 404.261,-302.685 411.128,-305.973 418.068,-308.866"/>
<polygon fill="midnightblue" stroke="midnightblue" points="299.372,-211.171 290.017,-206.198 294.229,-215.919 299.372,-211.171"/>
</g>
<!-- Node6 -->
<g id="node6" class="node"><title>Node6</title>
<g id="a_node6"><a xlink:href="class_net___d_n_s___resolver.html#a2a3d25c5dd2b1810b60ad05b84787855" target="_top" xlink:title="Examines the environment for resolver config information. ">
<polygon fill="white" stroke="black" points="398.133,-231 398.133,-251 545.867,-251 545.867,-231 398.133,-231"/>
<text text-anchor="middle" x="472" y="-237" font-family="Helvetica,sans-Serif" font-size="10.00">Net_DNS_Resolver\read_env</text>
</a>
</g>
</g>
<!-- Node2&#45;&gt;Node6 -->
<g id="edge6" class="edge"><title>Node2&#45;&gt;Node6</title>
<path fill="none" stroke="midnightblue" d="M333.492,-208.432C363.412,-215.519 400.419,-224.284 428.503,-230.935"/>
<polygon fill="midnightblue" stroke="midnightblue" points="334.177,-204.998 323.64,-206.099 332.564,-211.809 334.177,-204.998"/>
</g>
<!-- Node7 -->
<g id="node7" class="node"><title>Node7</title>
<g id="a_node7"><a xlink:href="class_net___d_n_s___resolver.html#a848934658b6a75720a71e286500fcc40" target="_top" xlink:title="Builds a string containing the current state of the resolver. ">
<polygon fill="white" stroke="black" points="406.756,-270 406.756,-290 537.244,-290 537.244,-270 406.756,-270"/>
<text text-anchor="middle" x="472" y="-276" font-family="Helvetica,sans-Serif" font-size="10.00">Net_DNS_Resolver\string</text>
</a>
</g>
</g>
<!-- Node2&#45;&gt;Node7 -->
<g id="edge8" class="edge"><title>Node2&#45;&gt;Node7</title>
<path fill="none" stroke="midnightblue" d="M305.474,-211.592C328.591,-225.779 364.605,-246.507 398,-260 407.382,-263.79 417.724,-267.11 427.6,-269.899"/>
<polygon fill="midnightblue" stroke="midnightblue" points="307.035,-208.442 296.694,-206.137 303.341,-214.387 307.035,-208.442"/>
</g>
<!-- Node8 -->
<g id="node8" class="node"><title>Node8</title>
<g id="a_node8"><a xlink:href="class_net___d_n_s___resolver.html#a5ff32917a5f06e5eba819c0fb4e7196a" target="_top" xlink:title="Sends a packet via TCP to the list of name servers. ">
<polygon fill="white" stroke="black" points="398.69,-90 398.69,-110 545.31,-110 545.31,-90 398.69,-90"/>
<text text-anchor="middle" x="472" y="-96" font-family="Helvetica,sans-Serif" font-size="10.00">Net_DNS_Resolver\send_tcp</text>
</a>
</g>
</g>
<!-- Node2&#45;&gt;Node8 -->
<g id="edge9" class="edge"><title>Node2&#45;&gt;Node8</title>
<path fill="none" stroke="midnightblue" d="M301.269,-179.655C323.698,-162.312 361.515,-135.221 398,-119 405.898,-115.489 414.576,-112.525 423.106,-110.06"/>
<polygon fill="midnightblue" stroke="midnightblue" points="298.894,-177.07 293.189,-185.998 303.216,-182.576 298.894,-177.07"/>
</g>
<!-- Node15 -->
<g id="node15" class="node"><title>Node15</title>
<g id="a_node15"><a xlink:href="class_net___d_n_s___resolver.html#a31d4b4651960d0fb08aa07990d21ce39" target="_top" xlink:title="Sends a packet via UDP to the list of name servers. ">
<polygon fill="white" stroke="black" points="408.141,-180 408.141,-212 535.859,-212 535.859,-180 408.141,-180"/>
<text text-anchor="start" x="416.141" y="-198" font-family="Helvetica,sans-Serif" font-size="10.00">Net_DNS_Resolver\send</text>
<text text-anchor="middle" x="472" y="-186" font-family="Helvetica,sans-Serif" font-size="10.00">_udp_no_sock_lib</text>
</a>
</g>
</g>
<!-- Node2&#45;&gt;Node15 -->
<g id="edge16" class="edge"><title>Node2&#45;&gt;Node15</title>
<path fill="none" stroke="midnightblue" d="M372.243,-196C384.327,-196 396.493,-196 407.955,-196"/>
<polygon fill="midnightblue" stroke="midnightblue" points="372.128,-192.5 362.128,-196 372.128,-199.5 372.128,-192.5"/>
</g>
<!-- Node17 -->
<g id="node17" class="node"><title>Node17</title>
<g id="a_node17"><a xlink:href="class_net___d_n_s___resolver.html#a6f7a0d5aaecc4824d9e59c9eb2597a62" target="_top" xlink:title="Sends a packet via UDP to the list of name servers. ">
<polygon fill="white" stroke="black" points="408.141,-129 408.141,-161 535.859,-161 535.859,-129 408.141,-129"/>
<text text-anchor="start" x="416.141" y="-147" font-family="Helvetica,sans-Serif" font-size="10.00">Net_DNS_Resolver\send</text>
<text text-anchor="middle" x="472" y="-135" font-family="Helvetica,sans-Serif" font-size="10.00">_udp_with_sock_lib</text>
</a>
</g>
</g>
<!-- Node2&#45;&gt;Node17 -->
<g id="edge19" class="edge"><title>Node2&#45;&gt;Node17</title>
<path fill="none" stroke="midnightblue" d="M328.514,-183.246C353.53,-176.531 384.46,-168.229 411.103,-161.078"/>
<polygon fill="midnightblue" stroke="midnightblue" points="327.289,-179.951 318.538,-185.924 329.103,-186.712 327.289,-179.951"/>
</g>
<!-- Node13 -->
<g id="node13" class="node"><title>Node13</title>
<g id="a_node13"><a xlink:href="class_net___d_n_s___resolver.html#a9a745e4f5009dac279562318bb927370" target="_top" xlink:title="Performs an AXFR query (zone transfer) ">
<polygon fill="white" stroke="black" points="595.648,-51 595.648,-71 718.352,-71 718.352,-51 595.648,-51"/>
<text text-anchor="middle" x="657" y="-57" font-family="Helvetica,sans-Serif" font-size="10.00">Net_DNS_Resolver\axfr</text>
</a>
</g>
</g>
<!-- Node2&#45;&gt;Node13 -->
<g id="edge21" class="edge"><title>Node2&#45;&gt;Node13</title>
<path fill="none" stroke="midnightblue" d="M293.205,-177.353C312.036,-150.394 350.962,-101.42 398,-80 460.845,-51.3826 541.264,-50.2862 595.479,-53.9758"/>
<polygon fill="midnightblue" stroke="midnightblue" points="290.13,-175.652 287.402,-185.89 295.919,-179.587 290.13,-175.652"/>
</g>
<!-- Node18 -->
<g id="node18" class="node"><title>Node18</title>
<g id="a_node18"><a xlink:href="class_net___d_n_s___resolver.html#a068e8e173ff40d4a3b74193792bed4e0" target="_top" xlink:title="Sends a packet via TCP to the list of name servers. ">
<polygon fill="white" stroke="black" points="410.648,-0 410.648,-32 533.352,-32 533.352,-0 410.648,-0"/>
<text text-anchor="start" x="418.648" y="-18" font-family="Helvetica,sans-Serif" font-size="10.00">Net_DNS_Resolver\axfr</text>
<text text-anchor="middle" x="472" y="-6" font-family="Helvetica,sans-Serif" font-size="10.00">_start</text>
</a>
</g>
</g>
<!-- Node2&#45;&gt;Node18 -->
<g id="edge22" class="edge"><title>Node2&#45;&gt;Node18</title>
<path fill="none" stroke="midnightblue" d="M291.598,-176.953C309.721,-145.914 349.454,-84.1622 398,-47 405.653,-41.1413 414.579,-36.1688 423.51,-32.0359"/>
<polygon fill="midnightblue" stroke="midnightblue" points="288.418,-175.464 286.489,-185.882 294.494,-178.94 288.418,-175.464"/>
</g>
<!-- Node4 -->
<g id="node4" class="node"><title>Node4</title>
<g id="a_node4"><a xlink:href="class_net___d_n_s___resolver.html#aa2e8d58074354b1f9292500119470431" target="_top" xlink:title="Initalizes the resolver library. ">
<polygon fill="white" stroke="black" points="587.865,-315 587.865,-335 726.135,-335 726.135,-315 587.865,-315"/>
<text text-anchor="middle" x="657" y="-321" font-family="Helvetica,sans-Serif" font-size="10.00">Net_DNS_Resolver\res_init</text>
</a>
</g>
</g>
<!-- Node3&#45;&gt;Node4 -->
<g id="edge3" class="edge"><title>Node3&#45;&gt;Node4</title>
<path fill="none" stroke="midnightblue" d="M545.258,-325C559.235,-325 573.839,-325 587.685,-325"/>
<polygon fill="midnightblue" stroke="midnightblue" points="545.211,-321.5 535.211,-325 545.211,-328.5 545.211,-321.5"/>
</g>
<!-- Node5 -->
<g id="node5" class="node"><title>Node5</title>
<g id="a_node5"><a xlink:href="class_net___d_n_s___resolver.html#a4358663ec326e406c398f6cb09bd5544" target="_top" xlink:title="Initializes the Resolver Object. ">
<polygon fill="white" stroke="black" points="778.202,-331 778.202,-363 899.798,-363 899.798,-331 778.202,-331"/>
<text text-anchor="start" x="786.202" y="-349" font-family="Helvetica,sans-Serif" font-size="10.00">Net_DNS_Resolver\Net</text>
<text text-anchor="middle" x="839" y="-337" font-family="Helvetica,sans-Serif" font-size="10.00">_DNS_Resolver</text>
</a>
</g>
</g>
<!-- Node4&#45;&gt;Node5 -->
<g id="edge4" class="edge"><title>Node4&#45;&gt;Node5</title>
<path fill="none" stroke="midnightblue" d="M736.378,-334.58C750.328,-336.284 764.656,-338.036 777.993,-339.666"/>
<polygon fill="midnightblue" stroke="midnightblue" points="736.658,-331.088 726.307,-333.349 735.808,-338.036 736.658,-331.088"/>
</g>
<!-- Node5&#45;&gt;Node2 -->
<g id="edge5" class="edge"><title>Node5&#45;&gt;Node2</title>
<path fill="none" stroke="midnightblue" d="M770.719,-365.32C680.623,-386.018 518.21,-409.64 398,-350 334.835,-318.662 296.569,-235.109 284.857,-206.094"/>
<polygon fill="midnightblue" stroke="midnightblue" points="771.608,-368.707 780.541,-363.009 770.005,-361.893 771.608,-368.707"/>
</g>
<!-- Node6&#45;&gt;Node4 -->
<g id="edge7" class="edge"><title>Node6&#45;&gt;Node4</title>
<path fill="none" stroke="midnightblue" d="M526.549,-253.94C533.189,-256.049 539.812,-258.404 546,-261 582.063,-276.127 620.842,-300.931 641.342,-314.799"/>
<polygon fill="midnightblue" stroke="midnightblue" points="527.444,-250.554 516.859,-251.029 525.429,-257.258 527.444,-250.554"/>
</g>
<!-- Node9 -->
<g id="node9" class="node"><title>Node9</title>
<g id="a_node9"><a xlink:href="class_net___d_n_s___resolver.html#aaabc96cbbb5bce627d31583d0e6af3d5" target="_top" xlink:title="Sends a packet to a nameserver. ">
<polygon fill="white" stroke="black" points="775.141,-114 775.141,-134 902.859,-134 902.859,-114 775.141,-114"/>
<text text-anchor="middle" x="839" y="-120" font-family="Helvetica,sans-Serif" font-size="10.00">Net_DNS_Resolver\send</text>
</a>
</g>
</g>
<!-- Node8&#45;&gt;Node9 -->
<g id="edge10" class="edge"><title>Node8&#45;&gt;Node9</title>
<path fill="none" stroke="midnightblue" d="M555.588,-105.43C622.144,-109.807 714.326,-115.868 775.023,-119.859"/>
<polygon fill="midnightblue" stroke="midnightblue" points="555.757,-101.934 545.549,-104.77 555.297,-108.919 555.757,-101.934"/>
</g>
<!-- Node8&#45;&gt;Node13 -->
<g id="edge14" class="edge"><title>Node8&#45;&gt;Node13</title>
<path fill="none" stroke="midnightblue" d="M529.997,-87.8531C555.39,-82.4415 584.936,-76.1448 609.033,-71.0094"/>
<polygon fill="midnightblue" stroke="midnightblue" points="529.178,-84.449 520.127,-89.9565 530.637,-91.2952 529.178,-84.449"/>
</g>
<!-- Node10 -->
<g id="node10" class="node"><title>Node10</title>
<g id="a_node10"><a xlink:href="class_net___d_n_s___resolver.html#ab00f28a838dbaebffe986b2fb81b4e8f" target="_top" xlink:title="Queries nameservers for an answer. ">
<polygon fill="white" stroke="black" points="946.311,-114 946.311,-134 1095.69,-134 1095.69,-114 946.311,-114"/>
<text text-anchor="middle" x="1021" y="-120" font-family="Helvetica,sans-Serif" font-size="10.00">Net_DNS_Resolver\rawQuery</text>
</a>
</g>
</g>
<!-- Node9&#45;&gt;Node10 -->
<g id="edge11" class="edge"><title>Node9&#45;&gt;Node10</title>
<path fill="none" stroke="midnightblue" d="M913.268,-124C924.154,-124 935.38,-124 946.276,-124"/>
<polygon fill="midnightblue" stroke="midnightblue" points="912.955,-120.5 902.955,-124 912.955,-127.5 912.955,-120.5"/>
</g>
<!-- Node11 -->
<g id="node11" class="node"><title>Node11</title>
<g id="a_node11"><a xlink:href="class_net___d_n_s___resolver.html#a433200f56099815168ddd63a715e8ac5" target="_top" xlink:title="Queries nameservers for an answer. ">
<polygon fill="white" stroke="black" points="1132.48,-114 1132.48,-134 1263.52,-134 1263.52,-114 1132.48,-114"/>
<text text-anchor="middle" x="1198" y="-120" font-family="Helvetica,sans-Serif" font-size="10.00">Net_DNS_Resolver\query</text>
</a>
</g>
</g>
<!-- Node10&#45;&gt;Node11 -->
<g id="edge12" class="edge"><title>Node10&#45;&gt;Node11</title>
<path fill="none" stroke="midnightblue" d="M1105.73,-124C1114.65,-124 1123.61,-124 1132.26,-124"/>
<polygon fill="midnightblue" stroke="midnightblue" points="1105.71,-120.5 1095.71,-124 1105.71,-127.5 1105.71,-120.5"/>
</g>
<!-- Node12 -->
<g id="node12" class="node"><title>Node12</title>
<g id="a_node12"><a xlink:href="class_net___d_n_s___resolver.html#a13ee3a449b00b1a0e2f36bb1404e4291" target="_top" xlink:title="Searches nameservers for an answer. ">
<polygon fill="white" stroke="black" points="1299.98,-114 1299.98,-134 1436.02,-134 1436.02,-114 1299.98,-114"/>
<text text-anchor="middle" x="1368" y="-120" font-family="Helvetica,sans-Serif" font-size="10.00">Net_DNS_Resolver\search</text>
</a>
</g>
</g>
<!-- Node11&#45;&gt;Node12 -->
<g id="edge13" class="edge"><title>Node11&#45;&gt;Node12</title>
<path fill="none" stroke="midnightblue" d="M1274.23,-124C1282.72,-124 1291.34,-124 1299.72,-124"/>
<polygon fill="midnightblue" stroke="midnightblue" points="1273.95,-120.5 1263.95,-124 1273.95,-127.5 1273.95,-120.5"/>
</g>
<!-- Node14 -->
<g id="node14" class="node"><title>Node14</title>
<g id="a_node14"><a xlink:href="class_net___d_n_s___resolver.html#a73f7861954f4990bc8d18d6a82f7334d" target="_top" xlink:title="Performs an AXFR query (zone transfer) (OLD BUGGY STYLE) ">
<polygon fill="white" stroke="black" points="768.195,-51 768.195,-71 909.805,-71 909.805,-51 768.195,-51"/>
<text text-anchor="middle" x="839" y="-57" font-family="Helvetica,sans-Serif" font-size="10.00">Net_DNS_Resolver\axfr_old</text>
</a>
</g>
</g>
<!-- Node13&#45;&gt;Node14 -->
<g id="edge15" class="edge"><title>Node13&#45;&gt;Node14</title>
<path fill="none" stroke="midnightblue" d="M728.684,-61C741.637,-61 755.151,-61 768.081,-61"/>
<polygon fill="midnightblue" stroke="midnightblue" points="728.438,-57.5001 718.438,-61 728.438,-64.5001 728.438,-57.5001"/>
</g>
<!-- Node16 -->
<g id="node16" class="node"><title>Node16</title>
<g id="a_node16"><a xlink:href="class_net___d_n_s___resolver.html#a77e292f0bf9e3cadf36d26b76b02a733" target="_top" xlink:title="Sends a packet via UDP to the list of name servers. ">
<polygon fill="white" stroke="black" points="582.018,-135 582.018,-155 731.982,-155 731.982,-135 582.018,-135"/>
<text text-anchor="middle" x="657" y="-141" font-family="Helvetica,sans-Serif" font-size="10.00">Net_DNS_Resolver\send_udp</text>
</a>
</g>
</g>
<!-- Node15&#45;&gt;Node16 -->
<g id="edge17" class="edge"><title>Node15&#45;&gt;Node16</title>
<path fill="none" stroke="midnightblue" d="M540.416,-177.212C567.339,-169.709 597.258,-161.371 619.91,-155.058"/>
<polygon fill="midnightblue" stroke="midnightblue" points="539.344,-173.877 530.651,-179.933 541.224,-180.62 539.344,-173.877"/>
</g>
<!-- Node16&#45;&gt;Node9 -->
<g id="edge18" class="edge"><title>Node16&#45;&gt;Node9</title>
<path fill="none" stroke="midnightblue" d="M742.086,-135.19C753.136,-133.901 764.304,-132.598 774.922,-131.359"/>
<polygon fill="midnightblue" stroke="midnightblue" points="741.519,-131.732 731.992,-136.368 742.33,-138.685 741.519,-131.732"/>
</g>
<!-- Node17&#45;&gt;Node16 -->
<g id="edge20" class="edge"><title>Node17&#45;&gt;Node16</title>
<path fill="none" stroke="midnightblue" d="M546.177,-145C557.928,-145 570.1,-145 581.874,-145"/>
<polygon fill="midnightblue" stroke="midnightblue" points="545.978,-141.5 535.978,-145 545.978,-148.5 545.978,-141.5"/>
</g>
<!-- Node18&#45;&gt;Node13 -->
<g id="edge23" class="edge"><title>Node18&#45;&gt;Node13</title>
<path fill="none" stroke="midnightblue" d="M543.345,-33.2979C567.675,-39.2807 594.116,-45.7826 615.264,-50.9829"/>
<polygon fill="midnightblue" stroke="midnightblue" points="543.975,-29.8486 533.428,-30.8594 542.303,-36.6461 543.975,-29.8486"/>
</g>
</g>
</svg>
