<?xml version="1.0" encoding="UTF-8" standalone="no"?>
<!DOCTYPE svg PUBLIC "-//W3C//DTD SVG 1.1//EN"
 "http://www.w3.org/Graphics/SVG/1.1/DTD/svg11.dtd">
<!-- Generated by graphviz version 2.30.1 (20130221.2233)
 -->
<!-- Title: Net_DNS_Resolver\axfr Pages: 1 -->
<!--zoomable 183 -->
<svg id="main" version="1.1" xmlns="http://www.w3.org/2000/svg" xmlns:xlink="http://www.w3.org/1999/xlink" xml:space="preserve" onload="init(evt)">
<style type="text/css"><![CDATA[
.edge:hover path { stroke: red; }
.edge:hover polygon { stroke: red; fill: red; }
]]></style>
<script type="text/javascript"><![CDATA[
var edges = document.getElementsByTagName('g');
if (edges && edges.length) {
  for (var i=0;i<edges.length;i++) {
    if (edges[i].id.substr(0,4)=='edge') {
      edges[i].setAttribute('class','edge');
    }
  }
}
]]></script>
        <defs>
                <circle id="rim" cx="0" cy="0" r="7"/>
                <circle id="rim2" cx="0" cy="0" r="3.5"/>
                <g id="zoomPlus">
                        <use xlink:href="#rim" fill="#404040">
                                <set attributeName="fill" to="#808080" begin="zoomplus.mouseover" end="zoomplus.mouseout"/>
                        </use>
                        <path d="M-4,0h8M0,-4v8" fill="none" stroke="white" stroke-width="1.5" pointer-events="none"/>
                </g>
                <g id="zoomMin">
                        <use xlink:href="#rim" fill="#404040">
                                <set attributeName="fill" to="#808080" begin="zoomminus.mouseover" end="zoomminus.mouseout"/>
                        </use>
                        <path d="M-4,0h8" fill="none" stroke="white" stroke-width="1.5" pointer-events="none"/>
                </g>
                <g id="dirArrow">
                        <path fill="none" stroke="white" stroke-width="1.5" d="M0,-3.0v7 M-2.5,-0.5L0,-3.0L2.5,-0.5"/>
                </g>
               <g id="resetDef">
                       <use xlink:href="#rim2" fill="#404040">
                               <set attributeName="fill" to="#808080" begin="reset.mouseover" end="reset.mouseout"/>
                       </use>
               </g>
        </defs>

<script type="text/javascript">
var viewWidth = 1072;
var viewHeight = 183;
var sectionId = 'dynsection-0';
</script>
<script xlink:href="svgpan.js"/>
<svg id="graph" class="graph">
<g id="viewport">
<title>Net_DNS_Resolver\axfr</title>
<polygon fill="white" stroke="white" points="-4,5 -4,-178.546 1069,-178.546 1069,5 -4,5"/>
<!-- Node1 -->
<g id="node1" class="node"><title>Node1</title>
<polygon fill="#bfbfbf" stroke="black" points="0.647949,-76.5461 0.647949,-96.5461 123.352,-96.5461 123.352,-76.5461 0.647949,-76.5461"/>
<text text-anchor="middle" x="62" y="-82.5461" font-family="Helvetica,sans-Serif" font-size="10.00">Net_DNS_Resolver\axfr</text>
</g>
<!-- Node2 -->
<g id="node2" class="node"><title>Node2</title>
<g id="a_node2"><a xlink:href="class_net___d_n_s___resolver.html#ac1cd50ed973dab9de9d875ce7c4b79f7" target="_top" xlink:title="Requests the next RR from a existing transfer started with axfr_start. ">
<polygon fill="white" stroke="black" points="160.417,-154.546 160.417,-174.546 307.583,-174.546 307.583,-154.546 160.417,-154.546"/>
<text text-anchor="middle" x="234" y="-160.546" font-family="Helvetica,sans-Serif" font-size="10.00">Net_DNS_Resolver\axfr_next</text>
</a>
</g>
</g>
<!-- Node1&#45;&gt;Node2 -->
<g id="edge1" class="edge"><title>Node1&#45;&gt;Node2</title>
<path fill="none" stroke="midnightblue" d="M77.1312,-96.6835C95.4558,-109.423 128.777,-131.229 160,-144.546 165.949,-147.083 172.309,-149.384 178.702,-151.446"/>
<polygon fill="midnightblue" stroke="midnightblue" points="178.135,-154.932 188.721,-154.489 180.169,-148.234 178.135,-154.932"/>
</g>
<!-- Node4 -->
<g id="node4" class="node"><title>Node4</title>
<g id="a_node4"><a xlink:href="class_net___d_n_s___resolver.html#a068e8e173ff40d4a3b74193792bed4e0" target="_top" xlink:title="Sends a packet via TCP to the list of name servers. ">
<polygon fill="white" stroke="black" points="172.648,-25.5461 172.648,-57.5461 295.352,-57.5461 295.352,-25.5461 172.648,-25.5461"/>
<text text-anchor="start" x="180.648" y="-43.5461" font-family="Helvetica,sans-Serif" font-size="10.00">Net_DNS_Resolver\axfr</text>
<text text-anchor="middle" x="234" y="-31.5461" font-family="Helvetica,sans-Serif" font-size="10.00">_start</text>
</a>
</g>
</g>
<!-- Node1&#45;&gt;Node4 -->
<g id="edge3" class="edge"><title>Node1&#45;&gt;Node4</title>
<path fill="none" stroke="midnightblue" d="M101.151,-76.4472C119.321,-71.6376 141.644,-65.7285 162.721,-60.1492"/>
<polygon fill="midnightblue" stroke="midnightblue" points="163.849,-63.4714 172.62,-57.5289 162.058,-56.7044 163.849,-63.4714"/>
</g>
<!-- Node11 -->
<g id="node11" class="node"><title>Node11</title>
<g id="a_node11"><a xlink:href="class_net___d_n_s___resolver.html#a6162ddba85ce36cdf7d8df7ff32161e0" target="_top" xlink:title="Unknown. ">
<polygon fill="white" stroke="black" points="360.756,-3.54606 360.756,-35.5461 491.244,-35.5461 491.244,-3.54606 360.756,-3.54606"/>
<text text-anchor="start" x="368.756" y="-21.5461" font-family="Helvetica,sans-Serif" font-size="10.00">Net_DNS_Resolver\make</text>
<text text-anchor="middle" x="426" y="-9.54606" font-family="Helvetica,sans-Serif" font-size="10.00">_query_packet</text>
</a>
</g>
</g>
<!-- Node1&#45;&gt;Node11 -->
<g id="edge13" class="edge"><title>Node1&#45;&gt;Node11</title>
<path fill="none" stroke="midnightblue" d="M72.2572,-76.4953C88.2461,-59.9668 122.906,-27.6713 160,-15.5461 221.836,4.66657 296.201,1.33238 350.395,-5.70448"/>
<polygon fill="midnightblue" stroke="midnightblue" points="350.23,-9.21456 360.613,-7.10587 351.181,-2.27948 350.23,-9.21456"/>
</g>
<!-- Node5 -->
<g id="node5" class="node"><title>Node5</title>
<g id="a_node5"><a xlink:href="class_net___d_n_s___resolver.html#a3bf22a7a58480dd7a6fd0dd17807fc70" target="_top" xlink:title="Gets or sets the nameservers to be queried. ">
<polygon fill="white" stroke="black" points="344.084,-76.5461 344.084,-96.5461 507.916,-96.5461 507.916,-76.5461 344.084,-76.5461"/>
<text text-anchor="middle" x="426" y="-82.5461" font-family="Helvetica,sans-Serif" font-size="10.00">Net_DNS_Resolver\nameservers</text>
</a>
</g>
</g>
<!-- Node1&#45;&gt;Node5 -->
<g id="edge14" class="edge"><title>Node1&#45;&gt;Node5</title>
<path fill="none" stroke="midnightblue" d="M123.591,-86.5461C180.907,-86.5461 267.704,-86.5461 333.459,-86.5461"/>
<polygon fill="midnightblue" stroke="midnightblue" points="333.824,-90.0462 343.824,-86.5461 333.824,-83.0462 333.824,-90.0462"/>
</g>
<!-- Node12 -->
<g id="node12" class="node"><title>Node12</title>
<g id="a_node12"><a xlink:href="class_net___d_n_s___resolver.html#a5ff32917a5f06e5eba819c0fb4e7196a" target="_top" xlink:title="Sends a packet via TCP to the list of name servers. ">
<polygon fill="white" stroke="black" points="160.69,-115.546 160.69,-135.546 307.31,-135.546 307.31,-115.546 160.69,-115.546"/>
<text text-anchor="middle" x="234" y="-121.546" font-family="Helvetica,sans-Serif" font-size="10.00">Net_DNS_Resolver\send_tcp</text>
</a>
</g>
</g>
<!-- Node1&#45;&gt;Node12 -->
<g id="edge15" class="edge"><title>Node1&#45;&gt;Node12</title>
<path fill="none" stroke="midnightblue" d="M106.779,-96.5895C128.988,-101.685 156.151,-107.916 179.581,-113.291"/>
<polygon fill="midnightblue" stroke="midnightblue" points="178.84,-116.712 189.369,-115.537 180.405,-109.889 178.84,-116.712"/>
</g>
<!-- Node3 -->
<g id="node3" class="node"><title>Node3</title>
<g id="a_node3"><a xlink:href="class_net___d_n_s___resolver.html#acefe3ee751a310500df64b3ead5a07bc" target="_top" xlink:title="Unknown &#45; not ported yet. ">
<polygon fill="white" stroke="black" points="353.525,-154.546 353.525,-174.546 498.475,-174.546 498.475,-154.546 353.525,-154.546"/>
<text text-anchor="middle" x="426" y="-160.546" font-family="Helvetica,sans-Serif" font-size="10.00">Net_DNS_Resolver\read_tcp</text>
</a>
</g>
</g>
<!-- Node2&#45;&gt;Node3 -->
<g id="edge2" class="edge"><title>Node2&#45;&gt;Node3</title>
<path fill="none" stroke="midnightblue" d="M307.644,-164.546C319.231,-164.546 331.288,-164.546 343.072,-164.546"/>
<polygon fill="midnightblue" stroke="midnightblue" points="343.338,-168.046 353.338,-164.546 343.338,-161.046 343.338,-168.046"/>
</g>
<!-- Node4&#45;&gt;Node5 -->
<g id="edge4" class="edge"><title>Node4&#45;&gt;Node5</title>
<path fill="none" stroke="midnightblue" d="M295.378,-55.8462C320.194,-61.7236 348.661,-68.4657 372.584,-74.1318"/>
<polygon fill="midnightblue" stroke="midnightblue" points="371.998,-77.5897 382.535,-76.4887 373.611,-70.7781 371.998,-77.5897"/>
</g>
<!-- Node4&#45;&gt;Node11 -->
<g id="edge12" class="edge"><title>Node4&#45;&gt;Node11</title>
<path fill="none" stroke="midnightblue" d="M295.378,-34.5549C312.89,-32.5272 332.219,-30.2891 350.488,-28.1738"/>
<polygon fill="midnightblue" stroke="midnightblue" points="350.978,-31.6404 360.51,-27.0134 350.173,-24.6869 350.978,-31.6404"/>
</g>
<!-- Node6 -->
<g id="node6" class="node"><title>Node6</title>
<g id="a_node6"><a xlink:href="class_net___d_n_s___resolver.html#a4358663ec326e406c398f6cb09bd5544" target="_top" xlink:title="Initializes the Resolver Object. ">
<polygon fill="white" stroke="black" points="564.202,-48.5461 564.202,-80.5461 685.798,-80.5461 685.798,-48.5461 564.202,-48.5461"/>
<text text-anchor="start" x="572.202" y="-66.5461" font-family="Helvetica,sans-Serif" font-size="10.00">Net_DNS_Resolver\Net</text>
<text text-anchor="middle" x="625" y="-54.5461" font-family="Helvetica,sans-Serif" font-size="10.00">_DNS_Resolver</text>
</a>
</g>
</g>
<!-- Node5&#45;&gt;Node6 -->
<g id="edge5" class="edge"><title>Node5&#45;&gt;Node6</title>
<path fill="none" stroke="midnightblue" d="M507.98,-77.5026C523.242,-75.7982 539.084,-74.0291 553.976,-72.366"/>
<polygon fill="midnightblue" stroke="midnightblue" points="554.565,-75.8221 564.115,-71.2338 553.788,-68.8653 554.565,-75.8221"/>
</g>
<!-- Node10 -->
<g id="node10" class="node"><title>Node10</title>
<g id="a_node10"><a xlink:href="class_net___d_n_s___resolver.html#ae1bb14089519fe774d025156114aae4f" target="_top" xlink:title="Net_DNS_Resolver\\cname_addr">
<polygon fill="white" stroke="black" points="544.188,-99.5461 544.188,-119.546 705.812,-119.546 705.812,-99.5461 544.188,-99.5461"/>
<text text-anchor="middle" x="625" y="-105.546" font-family="Helvetica,sans-Serif" font-size="10.00">Net_DNS_Resolver\cname_addr</text>
</a>
</g>
</g>
<!-- Node5&#45;&gt;Node10 -->
<g id="edge11" class="edge"><title>Node5&#45;&gt;Node10</title>
<path fill="none" stroke="midnightblue" d="M507.98,-96.0006C516.523,-96.998 525.248,-98.0166 533.886,-99.0251"/>
<polygon fill="midnightblue" stroke="midnightblue" points="533.632,-102.519 543.97,-100.202 534.444,-95.5664 533.632,-102.519"/>
</g>
<!-- Node7 -->
<g id="node7" class="node"><title>Node7</title>
<g id="a_node7"><a xlink:href="class_net___d_n_s___resolver.html#aa2e8d58074354b1f9292500119470431" target="_top" xlink:title="Initalizes the resolver library. ">
<polygon fill="white" stroke="black" points="741.865,-54.5461 741.865,-74.5461 880.135,-74.5461 880.135,-54.5461 741.865,-54.5461"/>
<text text-anchor="middle" x="811" y="-60.5461" font-family="Helvetica,sans-Serif" font-size="10.00">Net_DNS_Resolver\res_init</text>
</a>
</g>
</g>
<!-- Node6&#45;&gt;Node7 -->
<g id="edge6" class="edge"><title>Node6&#45;&gt;Node7</title>
<path fill="none" stroke="midnightblue" d="M685.994,-64.5461C700.479,-64.5461 716.174,-64.5461 731.372,-64.5461"/>
<polygon fill="midnightblue" stroke="midnightblue" points="731.793,-68.0462 741.793,-64.5461 731.793,-61.0462 731.793,-68.0462"/>
</g>
<!-- Node8 -->
<g id="node8" class="node"><title>Node8</title>
<g id="a_node8"><a xlink:href="class_net___d_n_s___resolver.html#ae4def11574ad6e93176670c726541bed" target="_top" xlink:title="Reads and parses a resolver configuration file. ">
<polygon fill="white" stroke="black" points="926.976,-101.546 926.976,-133.546 1053.02,-133.546 1053.02,-101.546 926.976,-101.546"/>
<text text-anchor="start" x="934.976" y="-119.546" font-family="Helvetica,sans-Serif" font-size="10.00">Net_DNS_Resolver\read</text>
<text text-anchor="middle" x="990" y="-107.546" font-family="Helvetica,sans-Serif" font-size="10.00">_config</text>
</a>
</g>
</g>
<!-- Node7&#45;&gt;Node8 -->
<g id="edge7" class="edge"><title>Node7&#45;&gt;Node8</title>
<path fill="none" stroke="midnightblue" d="M845.709,-74.6397C868.221,-81.3805 898.53,-90.4562 925.475,-98.5246"/>
<polygon fill="midnightblue" stroke="midnightblue" points="924.646,-101.93 935.23,-101.445 926.654,-95.2238 924.646,-101.93"/>
</g>
<!-- Node9 -->
<g id="node9" class="node"><title>Node9</title>
<g id="a_node9"><a xlink:href="class_net___d_n_s___resolver.html#a2a3d25c5dd2b1810b60ad05b84787855" target="_top" xlink:title="Examines the environment for resolver config information. ">
<polygon fill="white" stroke="black" points="916.133,-31.5461 916.133,-51.5461 1063.87,-51.5461 1063.87,-31.5461 916.133,-31.5461"/>
<text text-anchor="middle" x="990" y="-37.5461" font-family="Helvetica,sans-Serif" font-size="10.00">Net_DNS_Resolver\read_env</text>
</a>
</g>
</g>
<!-- Node7&#45;&gt;Node9 -->
<g id="edge9" class="edge"><title>Node7&#45;&gt;Node9</title>
<path fill="none" stroke="midnightblue" d="M880.18,-55.6866C888.579,-54.5951 897.237,-53.4701 905.827,-52.3538"/>
<polygon fill="midnightblue" stroke="midnightblue" points="906.396,-55.8094 915.862,-51.0499 905.494,-48.8678 906.396,-55.8094"/>
</g>
<!-- Node8&#45;&gt;Node5 -->
<g id="edge8" class="edge"><title>Node8&#45;&gt;Node5</title>
<path fill="none" stroke="midnightblue" d="M926.889,-126.696C840.357,-137.723 678.951,-152.034 544,-128.546 513.489,-123.236 480.421,-110.682 457.249,-100.674"/>
<polygon fill="midnightblue" stroke="midnightblue" points="458.522,-97.4097 447.961,-96.5688 455.693,-103.812 458.522,-97.4097"/>
</g>
<!-- Node9&#45;&gt;Node5 -->
<g id="edge10" class="edge"><title>Node9&#45;&gt;Node5</title>
<path fill="none" stroke="midnightblue" d="M916.1,-32.1979C827.266,-22.8283 673.049,-13.1035 544,-38.5461 511.958,-44.8633 477.65,-60.0452 454.528,-71.6572"/>
<polygon fill="midnightblue" stroke="midnightblue" points="452.636,-68.6943 445.342,-76.3789 455.836,-74.9199 452.636,-68.6943"/>
</g>
<!-- Node12&#45;&gt;Node5 -->
<g id="edge16" class="edge"><title>Node12&#45;&gt;Node5</title>
<path fill="none" stroke="midnightblue" d="M283.93,-115.503C309.084,-110.339 339.924,-104.009 366.347,-98.5854"/>
<polygon fill="midnightblue" stroke="midnightblue" points="367.144,-101.995 376.236,-96.5555 365.737,-95.1378 367.144,-101.995"/>
</g>
</g>
</svg>
        <g id="navigator" transform="translate(0 0)" fill="#404254">
                <rect fill="#f2f5e9" fill-opacity="0.5" stroke="#606060" stroke-width=".5" x="0" y="0" width="60" height="60"/>
                <use id="zoomplus" xlink:href="#zoomPlus" x="17" y="9" onmousedown="handleZoom(evt,'in')"/>
                <use id="zoomminus" xlink:href="#zoomMin" x="42" y="9" onmousedown="handleZoom(evt,'out')"/>
                <use id="reset" xlink:href="#resetDef" x="30" y="36" onmousedown="handleReset()"/>
                <g id="arrowUp" xlink:href="#dirArrow" transform="translate(30 24)" onmousedown="handlePan(0,-1)">
                  <use xlink:href="#rim" fill="#404040">
                        <set attributeName="fill" to="#808080" begin="arrowUp.mouseover" end="arrowUp.mouseout"/>
                  </use>
                  <path fill="none" stroke="white" stroke-width="1.5" d="M0,-3.0v7 M-2.5,-0.5L0,-3.0L2.5,-0.5"/>
                </g>
                <g id="arrowRight" xlink:href="#dirArrow" transform="rotate(90) translate(36 -43)" onmousedown="handlePan(1,0)">
                  <use xlink:href="#rim" fill="#404040">
                        <set attributeName="fill" to="#808080" begin="arrowRight.mouseover" end="arrowRight.mouseout"/>
                  </use>
                  <path fill="none" stroke="white" stroke-width="1.5" d="M0,-3.0v7 M-2.5,-0.5L0,-3.0L2.5,-0.5"/>
                </g>
                <g id="arrowDown" xlink:href="#dirArrow" transform="rotate(180) translate(-30 -48)" onmousedown="handlePan(0,1)">
                  <use xlink:href="#rim" fill="#404040">
                        <set attributeName="fill" to="#808080" begin="arrowDown.mouseover" end="arrowDown.mouseout"/>
                  </use>
                  <path fill="none" stroke="white" stroke-width="1.5" d="M0,-3.0v7 M-2.5,-0.5L0,-3.0L2.5,-0.5"/>
                </g>
                <g id="arrowLeft" xlink:href="#dirArrow" transform="rotate(270) translate(-36 17)" onmousedown="handlePan(-1,0)">
                  <use xlink:href="#rim" fill="#404040">
                        <set attributeName="fill" to="#808080" begin="arrowLeft.mouseover" end="arrowLeft.mouseout"/>
                  </use>
                  <path fill="none" stroke="white" stroke-width="1.5" d="M0,-3.0v7 M-2.5,-0.5L0,-3.0L2.5,-0.5"/>
                </g>
        </g>
        <svg viewBox="0 0 15 15" width="100%" height="30px" preserveAspectRatio="xMaxYMin meet">
         <g id="arrow_out" transform="scale(0.3 0.3)">
          <a xlink:href="class_net___d_n_s___resolver_a9a745e4f5009dac279562318bb927370_cgraph_org.svg" target="_base">
           <rect id="button" ry="5" rx="5" y="6" x="6" height="38" width="38"
                fill="#f2f5e9" fill-opacity="0.5" stroke="#606060" stroke-width="1.0"/>
           <path id="arrow"
             d="M 11.500037,31.436501 C 11.940474,20.09759 22.043105,11.32322 32.158766,21.979434 L 37.068811,17.246167 C 37.068811,17.246167 37.088388,32 37.088388,32 L 22.160133,31.978069 C 22.160133,31.978069 26.997745,27.140456 26.997745,27.140456 C 18.528582,18.264221 13.291696,25.230495 11.500037,31.436501 z"
             style="fill:#404040;"/>
          </a>
         </g>
        </svg>
</svg>
