<?xml version="1.0" encoding="UTF-8" standalone="no"?>
<!DOCTYPE svg PUBLIC "-//W3C//DTD SVG 1.1//EN"
 "http://www.w3.org/Graphics/SVG/1.1/DTD/svg11.dtd">
<!-- Generated by graphviz version 2.30.1 (20130221.2233)
 -->
<!-- Title: Net_DNS_RR_AAAA\ipv6_decompress Pages: 1 -->
<svg width="306pt" height="40pt"
 viewBox="0.00 0.00 306.00 40.00" xmlns="http://www.w3.org/2000/svg" xmlns:xlink="http://www.w3.org/1999/xlink">
<g id="graph0" class="graph" transform="scale(1 1) rotate(0) translate(4 36)">
<title>Net_DNS_RR_AAAA\ipv6_decompress</title>
<polygon fill="white" stroke="white" points="-4,5 -4,-36 303,-36 303,5 -4,5"/>
<!-- Node1 -->
<g id="node1" class="node"><title>Node1</title>
<polygon fill="#bfbfbf" stroke="black" points="0.197266,-0 0.197266,-32 131.803,-32 131.803,-0 0.197266,-0"/>
<text text-anchor="start" x="8.19727" y="-18" font-family="Helvetica,sans-Serif" font-size="10.00">Net_DNS_RR_AAAA\ipv6</text>
<text text-anchor="middle" x="66" y="-6" font-family="Helvetica,sans-Serif" font-size="10.00">_decompress</text>
</g>
<!-- Node2 -->
<g id="node2" class="node"><title>Node2</title>
<g id="a_node2"><a xlink:href="class_net___d_n_s___r_r___a_a_a_a.html#a0ddf9d4178565b2e924f6b1d437c5ad0" target="_top" xlink:title="Net_DNS_RR_AAAA\\Net\l_DNS_RR_AAAA">
<polygon fill="white" stroke="black" points="168.589,-0 168.589,-32 297.411,-32 297.411,-0 168.589,-0"/>
<text text-anchor="start" x="176.589" y="-18" font-family="Helvetica,sans-Serif" font-size="10.00">Net_DNS_RR_AAAA\Net</text>
<text text-anchor="middle" x="233" y="-6" font-family="Helvetica,sans-Serif" font-size="10.00">_DNS_RR_AAAA</text>
</a>
</g>
</g>
<!-- Node1&#45;&gt;Node2 -->
<g id="edge1" class="edge"><title>Node1&#45;&gt;Node2</title>
<path fill="none" stroke="midnightblue" d="M142.341,-16C151.03,-16 159.826,-16 168.339,-16"/>
<polygon fill="midnightblue" stroke="midnightblue" points="142.212,-12.5001 132.212,-16 142.212,-19.5001 142.212,-12.5001"/>
</g>
</g>
</svg>
