<?xml version="1.0" encoding="UTF-8" standalone="no"?>
<!DOCTYPE svg PUBLIC "-//W3C//DTD SVG 1.1//EN"
 "http://www.w3.org/Graphics/SVG/1.1/DTD/svg11.dtd">
<!-- Generated by graphviz version 2.30.1 (20130221.2233)
 -->
<!-- Title: Net_DNS_RR_AAAA\Net_DNS_RR_AAAA Pages: 1 -->
<svg width="306pt" height="79pt"
 viewBox="0.00 0.00 306.00 79.00" xmlns="http://www.w3.org/2000/svg" xmlns:xlink="http://www.w3.org/1999/xlink">
<g id="graph0" class="graph" transform="scale(1 1) rotate(0) translate(4 75)">
<title>Net_DNS_RR_AAAA\Net_DNS_RR_AAAA</title>
<polygon fill="white" stroke="white" points="-4,5 -4,-75 303,-75 303,5 -4,5"/>
<!-- Node1 -->
<g id="node1" class="node"><title>Node1</title>
<polygon fill="#bfbfbf" stroke="black" points="0.588867,-16 0.588867,-48 129.411,-48 129.411,-16 0.588867,-16"/>
<text text-anchor="start" x="8.58887" y="-34" font-family="Helvetica,sans-Serif" font-size="10.00">Net_DNS_RR_AAAA\Net</text>
<text text-anchor="middle" x="65" y="-22" font-family="Helvetica,sans-Serif" font-size="10.00">_DNS_RR_AAAA</text>
</g>
<!-- Node2 -->
<g id="node2" class="node"><title>Node2</title>
<g id="a_node2"><a xlink:href="class_net___d_n_s___r_r___a_a_a_a.html#a7c37f843fef875729b86da5a59db7700" target="_top" xlink:title="Net_DNS_RR_AAAA\\ipv6\l_decompress">
<polygon fill="white" stroke="black" points="166.197,-39 166.197,-71 297.803,-71 297.803,-39 166.197,-39"/>
<text text-anchor="start" x="174.197" y="-57" font-family="Helvetica,sans-Serif" font-size="10.00">Net_DNS_RR_AAAA\ipv6</text>
<text text-anchor="middle" x="232" y="-45" font-family="Helvetica,sans-Serif" font-size="10.00">_decompress</text>
</a>
</g>
</g>
<!-- Node1&#45;&gt;Node2 -->
<g id="edge1" class="edge"><title>Node1&#45;&gt;Node2</title>
<path fill="none" stroke="midnightblue" d="M129.793,-40.8924C138.332,-42.0826 147.153,-43.3122 155.863,-44.5264"/>
<polygon fill="midnightblue" stroke="midnightblue" points="155.627,-48.0272 166.014,-45.9414 156.593,-41.0942 155.627,-48.0272"/>
</g>
<!-- Node3 -->
<g id="node3" class="node"><title>Node3</title>
<g id="a_node3"><a xlink:href="class_net___d_n_s___r_r.html#aa9da23331d654752fc950d474aa4c88d" target="_top" xlink:title="Net_DNS_RR\\rdata">
<polygon fill="white" stroke="black" points="180.094,-0 180.094,-20 283.906,-20 283.906,-0 180.094,-0"/>
<text text-anchor="middle" x="232" y="-6" font-family="Helvetica,sans-Serif" font-size="10.00">Net_DNS_RR\rdata</text>
</a>
</g>
</g>
<!-- Node1&#45;&gt;Node3 -->
<g id="edge2" class="edge"><title>Node1&#45;&gt;Node3</title>
<path fill="none" stroke="midnightblue" d="M129.793,-23.4942C142.888,-21.7482 156.647,-19.9138 169.653,-18.1796"/>
<polygon fill="midnightblue" stroke="midnightblue" points="170.446,-21.6049 179.896,-16.8139 169.521,-14.6663 170.446,-21.6049"/>
</g>
</g>
</svg>
