<?xml version="1.0" encoding="UTF-8" standalone="no"?>
<!DOCTYPE svg PUBLIC "-//W3C//DTD SVG 1.1//EN"
 "http://www.w3.org/Graphics/SVG/1.1/DTD/svg11.dtd">
<!-- Generated by graphviz version 2.30.1 (20130221.2233)
 -->
<!-- Title: Ctct\Components\EmailMarketing\Schedule\create Pages: 1 -->
<svg width="376pt" height="193pt"
 viewBox="0.00 0.00 376.00 193.00" xmlns="http://www.w3.org/2000/svg" xmlns:xlink="http://www.w3.org/1999/xlink">
<g id="graph0" class="graph" transform="scale(1 1) rotate(0) translate(4 189)">
<title>Ctct\Components\EmailMarketing\Schedule\create</title>
<polygon fill="white" stroke="white" points="-4,5 -4,-189 373,-189 373,5 -4,5"/>
<!-- Node1 -->
<g id="node1" class="node"><title>Node1</title>
<polygon fill="#bfbfbf" stroke="black" points="0.527344,-76 0.527344,-108 165.473,-108 165.473,-76 0.527344,-76"/>
<text text-anchor="start" x="8.52734" y="-94" font-family="Helvetica,sans-Serif" font-size="10.00">Ctct\Components\EmailMarketing</text>
<text text-anchor="middle" x="83" y="-82" font-family="Helvetica,sans-Serif" font-size="10.00">\Schedule\create</text>
</g>
<!-- Node2 -->
<g id="node2" class="node"><title>Node2</title>
<g id="a_node2"><a xlink:href="class_ctct_1_1_services_1_1_campaign_schedule_service.html#a2bcc5ee12d91827d7ca93eaf01ae3be7" target="_top" xlink:title="Create a new schedule for a campaign. ">
<polygon fill="white" stroke="black" points="202.52,-153 202.52,-185 367.48,-185 367.48,-153 202.52,-153"/>
<text text-anchor="start" x="210.52" y="-171" font-family="Helvetica,sans-Serif" font-size="10.00">Ctct\Services\CampaignSchedule</text>
<text text-anchor="middle" x="285" y="-159" font-family="Helvetica,sans-Serif" font-size="10.00">Service\addSchedule</text>
</a>
</g>
</g>
<!-- Node1&#45;&gt;Node2 -->
<g id="edge1" class="edge"><title>Node1&#45;&gt;Node2</title>
<path fill="none" stroke="midnightblue" d="M128.133,-112.332C150.118,-122.137 177.232,-133.748 202,-143 211.234,-146.449 221.156,-149.848 230.799,-152.993"/>
<polygon fill="midnightblue" stroke="midnightblue" points="129.29,-109.015 118.734,-108.111 126.422,-115.401 129.29,-109.015"/>
</g>
<!-- Node3 -->
<g id="node3" class="node"><title>Node3</title>
<g id="a_node3"><a xlink:href="class_ctct_1_1_services_1_1_campaign_schedule_service.html#a649b23866eee81fb8ef6bcc01113c92b" target="_top" xlink:title="Get a specific schedule for a campaign. ">
<polygon fill="white" stroke="black" points="202.52,-102 202.52,-134 367.48,-134 367.48,-102 202.52,-102"/>
<text text-anchor="start" x="210.52" y="-120" font-family="Helvetica,sans-Serif" font-size="10.00">Ctct\Services\CampaignSchedule</text>
<text text-anchor="middle" x="285" y="-108" font-family="Helvetica,sans-Serif" font-size="10.00">Service\getSchedule</text>
</a>
</g>
</g>
<!-- Node1&#45;&gt;Node3 -->
<g id="edge2" class="edge"><title>Node1&#45;&gt;Node3</title>
<path fill="none" stroke="midnightblue" d="M175.628,-103.912C184.525,-105.068 193.51,-106.236 202.301,-107.379"/>
<polygon fill="midnightblue" stroke="midnightblue" points="176.004,-100.431 165.636,-102.613 175.101,-107.373 176.004,-100.431"/>
</g>
<!-- Node4 -->
<g id="node4" class="node"><title>Node4</title>
<g id="a_node4"><a xlink:href="class_ctct_1_1_services_1_1_campaign_schedule_service.html#a10f70dabb56c1a16159991bcfba81e4e" target="_top" xlink:title="Get a list of schedules for a campaign. ">
<polygon fill="white" stroke="black" points="202.52,-51 202.52,-83 367.48,-83 367.48,-51 202.52,-51"/>
<text text-anchor="start" x="210.52" y="-69" font-family="Helvetica,sans-Serif" font-size="10.00">Ctct\Services\CampaignSchedule</text>
<text text-anchor="middle" x="285" y="-57" font-family="Helvetica,sans-Serif" font-size="10.00">Service\getSchedules</text>
</a>
</g>
</g>
<!-- Node1&#45;&gt;Node4 -->
<g id="edge3" class="edge"><title>Node1&#45;&gt;Node4</title>
<path fill="none" stroke="midnightblue" d="M175.628,-80.5465C184.525,-79.4344 193.51,-78.3112 202.301,-77.2124"/>
<polygon fill="midnightblue" stroke="midnightblue" points="175.125,-77.0821 165.636,-81.7955 175.993,-84.028 175.125,-77.0821"/>
</g>
<!-- Node5 -->
<g id="node5" class="node"><title>Node5</title>
<g id="a_node5"><a xlink:href="class_ctct_1_1_services_1_1_campaign_schedule_service.html#a9f260b3737372bd05a280a265545fc58" target="_top" xlink:title="Update a specific schedule for a campaign. ">
<polygon fill="white" stroke="black" points="202.52,-0 202.52,-32 367.48,-32 367.48,-0 202.52,-0"/>
<text text-anchor="start" x="210.52" y="-18" font-family="Helvetica,sans-Serif" font-size="10.00">Ctct\Services\CampaignSchedule</text>
<text text-anchor="middle" x="285" y="-6" font-family="Helvetica,sans-Serif" font-size="10.00">Service\updateSchedule</text>
</a>
</g>
</g>
<!-- Node1&#45;&gt;Node5 -->
<g id="edge4" class="edge"><title>Node1&#45;&gt;Node5</title>
<path fill="none" stroke="midnightblue" d="M128.899,-71.8043C150.762,-62.2723 177.548,-51.0345 202,-42 211.246,-38.5838 221.175,-35.201 230.82,-32.0613"/>
<polygon fill="midnightblue" stroke="midnightblue" points="127.291,-68.6878 119.541,-75.9113 130.104,-75.0977 127.291,-68.6878"/>
</g>
</g>
</svg>
