<?xml version="1.0" encoding="UTF-8" standalone="no"?>
<!DOCTYPE svg PUBLIC "-//W3C//DTD SVG 1.1//EN"
 "http://www.w3.org/Graphics/SVG/1.1/DTD/svg11.dtd">
<!-- Generated by graphviz version 2.30.1 (20130221.2233)
 -->
<!-- Title: CampaignsCollection\getCampaigns Pages: 1 -->
<svg width="666pt" height="130pt"
 viewBox="0.00 0.00 666.00 130.00" xmlns="http://www.w3.org/2000/svg" xmlns:xlink="http://www.w3.org/1999/xlink">
<g id="graph0" class="graph" transform="scale(1 1) rotate(0) translate(4 126)">
<title>CampaignsCollection\getCampaigns</title>
<polygon fill="white" stroke="white" points="-4,5 -4,-126 663,-126 663,5 -4,5"/>
<!-- Node1 -->
<g id="node1" class="node"><title>Node1</title>
<polygon fill="#bfbfbf" stroke="black" points="-0.246094,-55 -0.246094,-87 110.246,-87 110.246,-55 -0.246094,-55"/>
<text text-anchor="start" x="7.75391" y="-73" font-family="Helvetica,sans-Serif" font-size="10.00">CampaignsCollection</text>
<text text-anchor="middle" x="55" y="-61" font-family="Helvetica,sans-Serif" font-size="10.00">\getCampaigns</text>
</g>
<!-- Node2 -->
<g id="node2" class="node"><title>Node2</title>
<g id="a_node2"><a xlink:href="class_campaign.html#ad584fb13431fe94bf4541e8151a6e573" target="_top" xlink:title="Create associate array of object from XML. ">
<polygon fill="white" stroke="black" points="146.027,-100 146.027,-120 305.973,-120 305.973,-100 146.027,-100"/>
<text text-anchor="middle" x="226" y="-106" font-family="Helvetica,sans-Serif" font-size="10.00">Campaign\createOverviewStruct</text>
</a>
</g>
</g>
<!-- Node1&#45;&gt;Node2 -->
<g id="edge1" class="edge"><title>Node1&#45;&gt;Node2</title>
<path fill="none" stroke="midnightblue" d="M110.403,-83.5545C129.959,-88.0675 151.989,-93.1514 171.471,-97.6471"/>
<polygon fill="midnightblue" stroke="midnightblue" points="170.868,-101.1 181.399,-99.9383 172.442,-94.2793 170.868,-101.1"/>
</g>
<!-- Node3 -->
<g id="node3" class="node"><title>Node3</title>
<g id="a_node3"><a xlink:href="class_utility.html#a50ac241bcff31b7348d0f623f2ab3d4c" target="_top" xlink:title="Find the next link from collection XML. ">
<polygon fill="white" stroke="black" points="176.875,-61 176.875,-81 275.125,-81 275.125,-61 176.875,-61"/>
<text text-anchor="middle" x="226" y="-67" font-family="Helvetica,sans-Serif" font-size="10.00">Utility\findNextLink</text>
</a>
</g>
</g>
<!-- Node1&#45;&gt;Node3 -->
<g id="edge2" class="edge"><title>Node1&#45;&gt;Node3</title>
<path fill="none" stroke="midnightblue" d="M110.403,-71C128.312,-71 148.297,-71 166.498,-71"/>
<polygon fill="midnightblue" stroke="midnightblue" points="166.69,-74.5001 176.69,-71 166.69,-67.5001 166.69,-74.5001"/>
</g>
<!-- Node4 -->
<g id="node4" class="node"><title>Node4</title>
<g id="a_node4"><a xlink:href="class_c_t_c_t_request.html#aad92e5787f6d3fdf00760d99505aa6db" target="_top" xlink:title="CTCTRequest\\makeRequest">
<polygon fill="white" stroke="black" points="153.808,-22 153.808,-42 298.192,-42 298.192,-22 153.808,-22"/>
<text text-anchor="middle" x="226" y="-28" font-family="Helvetica,sans-Serif" font-size="10.00">CTCTRequest\makeRequest</text>
</a>
</g>
</g>
<!-- Node1&#45;&gt;Node4 -->
<g id="edge3" class="edge"><title>Node1&#45;&gt;Node4</title>
<path fill="none" stroke="midnightblue" d="M110.403,-58.4455C129.959,-53.9325 151.989,-48.8486 171.471,-44.3529"/>
<polygon fill="midnightblue" stroke="midnightblue" points="172.442,-47.7207 181.399,-42.0617 170.868,-40.9 172.442,-47.7207"/>
</g>
<!-- Node5 -->
<g id="node5" class="node"><title>Node5</title>
<g id="a_node5"><a xlink:href="class_o_auth_request.html#afe9d0f6cb8e0dadb1c0faeea9ecafe45" target="_top" xlink:title="pretty much a helper function to set up the request ">
<polygon fill="white" stroke="black" points="342.079,-39 342.079,-71 495.921,-71 495.921,-39 342.079,-39"/>
<text text-anchor="start" x="350.079" y="-57" font-family="Helvetica,sans-Serif" font-size="10.00">OAuthRequest\from_consumer</text>
<text text-anchor="middle" x="419" y="-45" font-family="Helvetica,sans-Serif" font-size="10.00">_and_token</text>
</a>
</g>
</g>
<!-- Node4&#45;&gt;Node5 -->
<g id="edge4" class="edge"><title>Node4&#45;&gt;Node5</title>
<path fill="none" stroke="midnightblue" d="M298.393,-40.5971C309.264,-41.9061 320.58,-43.2688 331.728,-44.6112"/>
<polygon fill="midnightblue" stroke="midnightblue" points="331.553,-48.1153 341.9,-45.8361 332.39,-41.1655 331.553,-48.1153"/>
</g>
<!-- Node8 -->
<g id="node8" class="node"><title>Node8</title>
<g id="a_node8"><a xlink:href="class_c_t_c_t_exception.html#adc8307ec7d7a2c730b0dac678d0e7fcb" target="_top" xlink:title="CTCTException\\generateError">
<polygon fill="white" stroke="black" points="343.473,-0 343.473,-20 494.527,-20 494.527,-0 343.473,-0"/>
<text text-anchor="middle" x="419" y="-6" font-family="Helvetica,sans-Serif" font-size="10.00">CTCTException\generateError</text>
</a>
</g>
</g>
<!-- Node4&#45;&gt;Node8 -->
<g id="edge7" class="edge"><title>Node4&#45;&gt;Node8</title>
<path fill="none" stroke="midnightblue" d="M298.393,-23.7767C309.702,-22.4741 321.494,-21.1158 333.076,-19.7818"/>
<polygon fill="midnightblue" stroke="midnightblue" points="333.649,-23.239 343.183,-18.6177 332.848,-16.285 333.649,-23.239"/>
</g>
<!-- Node6 -->
<g id="node6" class="node"><title>Node6</title>
<g id="a_node6"><a xlink:href="class_o_auth_request.html#ae544b1c10b82d5a82dcc259064763420" target="_top" xlink:title="util function: current nonce ">
<polygon fill="white" stroke="black" points="533.074,-90 533.074,-122 656.926,-122 656.926,-90 533.074,-90"/>
<text text-anchor="start" x="541.074" y="-108" font-family="Helvetica,sans-Serif" font-size="10.00">OAuthRequest\generate</text>
<text text-anchor="middle" x="595" y="-96" font-family="Helvetica,sans-Serif" font-size="10.00">_nonce</text>
</a>
</g>
</g>
<!-- Node5&#45;&gt;Node6 -->
<g id="edge5" class="edge"><title>Node5&#45;&gt;Node6</title>
<path fill="none" stroke="midnightblue" d="M475.055,-71.1367C492.36,-76.209 511.624,-81.8552 529.522,-87.1012"/>
<polygon fill="midnightblue" stroke="midnightblue" points="528.723,-90.5142 539.303,-89.9683 530.692,-83.7968 528.723,-90.5142"/>
</g>
<!-- Node7 -->
<g id="node7" class="node"><title>Node7</title>
<g id="a_node7"><a xlink:href="class_o_auth_request.html#adfc6b936799f705d9a4442961a26e8cb" target="_top" xlink:title="util function: current timestamp ">
<polygon fill="white" stroke="black" points="533.074,-39 533.074,-71 656.926,-71 656.926,-39 533.074,-39"/>
<text text-anchor="start" x="541.074" y="-57" font-family="Helvetica,sans-Serif" font-size="10.00">OAuthRequest\generate</text>
<text text-anchor="middle" x="595" y="-45" font-family="Helvetica,sans-Serif" font-size="10.00">_timestamp</text>
</a>
</g>
</g>
<!-- Node5&#45;&gt;Node7 -->
<g id="edge6" class="edge"><title>Node5&#45;&gt;Node7</title>
<path fill="none" stroke="midnightblue" d="M496.066,-55C504.939,-55 513.966,-55 522.771,-55"/>
<polygon fill="midnightblue" stroke="midnightblue" points="522.981,-58.5001 532.981,-55 522.981,-51.5001 522.981,-58.5001"/>
</g>
<!-- Node9 -->
<g id="node9" class="node"><title>Node9</title>
<g id="a_node9"><a xlink:href="class_c_t_c_t_exception.html#a6a86531406328bbd2a6c6252b7fb3a70" target="_top" xlink:title="CTCTException\\logError">
<polygon fill="white" stroke="black" points="532.54,-0 532.54,-20 657.46,-20 657.46,-0 532.54,-0"/>
<text text-anchor="middle" x="595" y="-6" font-family="Helvetica,sans-Serif" font-size="10.00">CTCTException\logError</text>
</a>
</g>
</g>
<!-- Node8&#45;&gt;Node9 -->
<g id="edge8" class="edge"><title>Node8&#45;&gt;Node9</title>
<path fill="none" stroke="midnightblue" d="M494.549,-10C503.73,-10 513.101,-10 522.239,-10"/>
<polygon fill="midnightblue" stroke="midnightblue" points="522.437,-13.5001 532.437,-10 522.436,-6.5001 522.437,-13.5001"/>
</g>
</g>
</svg>
