<?xml version="1.0" encoding="UTF-8" standalone="no"?>
<!DOCTYPE svg PUBLIC "-//W3C//DTD SVG 1.1//EN"
 "http://www.w3.org/Graphics/SVG/1.1/DTD/svg11.dtd">
<!-- Generated by graphviz version 2.30.1 (20130221.2233)
 -->
<!-- Title: CTCTOAuth\httpRequest Pages: 1 -->
<svg width="324pt" height="67pt"
 viewBox="0.00 0.00 324.00 67.00" xmlns="http://www.w3.org/2000/svg" xmlns:xlink="http://www.w3.org/1999/xlink">
<g id="graph0" class="graph" transform="scale(1 1) rotate(0) translate(4 63)">
<title>CTCTOAuth\httpRequest</title>
<polygon fill="white" stroke="white" points="-4,5 -4,-63 321,-63 321,5 -4,5"/>
<!-- Node1 -->
<g id="node1" class="node"><title>Node1</title>
<polygon fill="#bfbfbf" stroke="black" points="0.230957,-19 0.230957,-39 127.769,-39 127.769,-19 0.230957,-19"/>
<text text-anchor="middle" x="64" y="-25" font-family="Helvetica,sans-Serif" font-size="10.00">CTCTOAuth\httpRequest</text>
</g>
<!-- Node2 -->
<g id="node2" class="node"><title>Node2</title>
<g id="a_node2"><a xlink:href="class_c_t_c_t_o_auth.html#a3189b740e032071bc27e198f7cb53b4d" target="_top" xlink:title="CTCTOAuth\\getAccessToken">
<polygon fill="white" stroke="black" points="166.785,-39 166.785,-59 313.215,-59 313.215,-39 166.785,-39"/>
<text text-anchor="middle" x="240" y="-45" font-family="Helvetica,sans-Serif" font-size="10.00">CTCTOAuth\getAccessToken</text>
</a>
</g>
</g>
<!-- Node1&#45;&gt;Node2 -->
<g id="edge1" class="edge"><title>Node1&#45;&gt;Node2</title>
<path fill="none" stroke="midnightblue" d="M137.957,-37.3859C147.404,-38.4717 157.077,-39.5835 166.515,-40.6684"/>
<polygon fill="midnightblue" stroke="midnightblue" points="138.152,-33.8853 127.818,-36.2205 137.353,-40.8396 138.152,-33.8853"/>
</g>
<!-- Node3 -->
<g id="node3" class="node"><title>Node3</title>
<g id="a_node3"><a xlink:href="class_c_t_c_t_o_auth.html#aa66e4b0a64267580fc458805504756d3" target="_top" xlink:title="CTCTOAuth\\getRequestToken">
<polygon fill="white" stroke="black" points="164.278,-0 164.278,-20 315.722,-20 315.722,-0 164.278,-0"/>
<text text-anchor="middle" x="240" y="-6" font-family="Helvetica,sans-Serif" font-size="10.00">CTCTOAuth\getRequestToken</text>
</a>
</g>
</g>
<!-- Node1&#45;&gt;Node3 -->
<g id="edge2" class="edge"><title>Node1&#45;&gt;Node3</title>
<path fill="none" stroke="midnightblue" d="M137.887,-21.041C146.558,-20.0942 155.421,-19.1264 164.12,-18.1766"/>
<polygon fill="midnightblue" stroke="midnightblue" points="137.379,-17.5757 127.818,-22.1406 138.139,-24.5343 137.379,-17.5757"/>
</g>
</g>
</svg>
