<?xml version="1.0" encoding="UTF-8" standalone="no"?>
<!DOCTYPE svg PUBLIC "-//W3C//DTD SVG 1.1//EN"
 "http://www.w3.org/Graphics/SVG/1.1/DTD/svg11.dtd">
<!-- Generated by graphviz version 2.30.1 (20130221.2233)
 -->
<!-- Title: CTCT_Registration\form Pages: 1 -->
<svg width="472pt" height="67pt"
 viewBox="0.00 0.00 472.00 67.00" xmlns="http://www.w3.org/2000/svg" xmlns:xlink="http://www.w3.org/1999/xlink">
<g id="graph0" class="graph" transform="scale(1 1) rotate(0) translate(4 63)">
<title>CTCT_Registration\form</title>
<polygon fill="white" stroke="white" points="-4,5 -4,-63 469,-63 469,5 -4,5"/>
<!-- Node1 -->
<g id="node1" class="node"><title>Node1</title>
<polygon fill="#bfbfbf" stroke="black" points="-0.179688,-19 -0.179688,-39 124.18,-39 124.18,-19 -0.179688,-19"/>
<text text-anchor="middle" x="62" y="-25" font-family="Helvetica,sans-Serif" font-size="10.00">CTCT_Registration\form</text>
</g>
<!-- Node2 -->
<g id="node2" class="node"><title>Node2</title>
<g id="a_node2"><a xlink:href="class_c_t_c_t___settings.html#ae3c076753f9e642d69924227641b75e7" target="_top" xlink:title="Alias for get_setting() &#160;CTCT_Settings::get_setting() ">
<polygon fill="white" stroke="black" points="183.483,-39 183.483,-59 284.517,-59 284.517,-39 183.483,-39"/>
<text text-anchor="middle" x="234" y="-45" font-family="Helvetica,sans-Serif" font-size="10.00">CTCT_Settings\get</text>
</a>
</g>
</g>
<!-- Node1&#45;&gt;Node2 -->
<g id="edge1" class="edge"><title>Node1&#45;&gt;Node2</title>
<path fill="none" stroke="midnightblue" d="M124.374,-36.2205C140.289,-38.0929 157.405,-40.1065 173.237,-41.969"/>
<polygon fill="midnightblue" stroke="midnightblue" points="173.089,-45.4757 183.429,-43.1681 173.907,-38.5236 173.089,-45.4757"/>
</g>
<!-- Node3 -->
<g id="node3" class="node"><title>Node3</title>
<g id="a_node3"><a xlink:href="class_k_w_s_contact_list.html#a83039abeb7dce624539df46bebd0b3a2" target="_top" xlink:title="Convert an array of List objects into HTML output. ">
<polygon fill="white" stroke="black" points="160.697,-0 160.697,-20 307.303,-20 307.303,-0 160.697,-0"/>
<text text-anchor="middle" x="234" y="-6" font-family="Helvetica,sans-Serif" font-size="10.00">KWSContactList\outputHTML</text>
</a>
</g>
</g>
<!-- Node1&#45;&gt;Node3 -->
<g id="edge2" class="edge"><title>Node1&#45;&gt;Node3</title>
<path fill="none" stroke="midnightblue" d="M124.374,-22.1406C132.782,-21.2008 141.525,-20.2237 150.237,-19.25"/>
<polygon fill="midnightblue" stroke="midnightblue" points="150.878,-22.7003 160.427,-18.1111 150.1,-15.7436 150.878,-22.7003"/>
</g>
<!-- Node4 -->
<g id="node4" class="node"><title>Node4</title>
<g id="a_node4"><a xlink:href="class_w_p___c_t_c_t.html#a485eac1e69d12c9e2ecac70bf3295c3f" target="_top" xlink:title="WP_CTCT\\getInstance">
<polygon fill="white" stroke="black" points="344.594,-0 344.594,-20 463.406,-20 463.406,-0 344.594,-0"/>
<text text-anchor="middle" x="404" y="-6" font-family="Helvetica,sans-Serif" font-size="10.00">WP_CTCT\getInstance</text>
</a>
</g>
</g>
<!-- Node3&#45;&gt;Node4 -->
<g id="edge3" class="edge"><title>Node3&#45;&gt;Node4</title>
<path fill="none" stroke="midnightblue" d="M307.71,-10C316.57,-10 325.6,-10 334.397,-10"/>
<polygon fill="midnightblue" stroke="midnightblue" points="334.593,-13.5001 344.593,-10 334.593,-6.5001 334.593,-13.5001"/>
</g>
</g>
</svg>
