<?xml version="1.0" encoding="UTF-8" standalone="no"?>
<!DOCTYPE svg PUBLIC "-//W3C//DTD SVG 1.1//EN"
 "http://www.w3.org/Graphics/SVG/1.1/DTD/svg11.dtd">
<!-- Generated by graphviz version 2.30.1 (20130221.2233)
 -->
<!-- Title: OAuthUtil\parse_parameters Pages: 1 -->
<svg width="332pt" height="67pt"
 viewBox="0.00 0.00 332.00 67.00" xmlns="http://www.w3.org/2000/svg" xmlns:xlink="http://www.w3.org/1999/xlink">
<g id="graph0" class="graph" transform="scale(1 1) rotate(0) translate(4 63)">
<title>OAuthUtil\parse_parameters</title>
<polygon fill="white" stroke="white" points="-4,5 -4,-63 329,-63 329,5 -4,5"/>
<!-- Node1 -->
<g id="node1" class="node"><title>Node1</title>
<polygon fill="#bfbfbf" stroke="black" points="0.638184,-19 0.638184,-39 143.362,-39 143.362,-19 0.638184,-19"/>
<text text-anchor="middle" x="72" y="-25" font-family="Helvetica,sans-Serif" font-size="10.00">OAuthUtil\parse_parameters</text>
</g>
<!-- Node2 -->
<g id="node2" class="node"><title>Node2</title>
<g id="a_node2"><a xlink:href="class_o_auth_request.html#a0fdf7d4e7a8b3b669622e39a05e8b4ac" target="_top" xlink:title="OAuthRequest\\__construct">
<polygon fill="white" stroke="black" points="183.966,-39 183.966,-59 320.034,-59 320.034,-39 183.966,-39"/>
<text text-anchor="middle" x="252" y="-45" font-family="Helvetica,sans-Serif" font-size="10.00">OAuthRequest\__construct</text>
</a>
</g>
</g>
<!-- Node1&#45;&gt;Node2 -->
<g id="edge1" class="edge"><title>Node1&#45;&gt;Node2</title>
<path fill="none" stroke="midnightblue" d="M153.667,-38.0637C163.796,-39.2018 174.07,-40.3562 183.959,-41.4673"/>
<polygon fill="midnightblue" stroke="midnightblue" points="153.934,-34.5718 143.606,-36.9333 153.153,-41.528 153.934,-34.5718"/>
</g>
<!-- Node3 -->
<g id="node3" class="node"><title>Node3</title>
<g id="a_node3"><a xlink:href="class_o_auth_request.html#a8d5d9a8e5d174e594775c5b952bf448f" target="_top" xlink:title="attempt to build up a request from what was passed to the server ">
<polygon fill="white" stroke="black" points="180.355,-0 180.355,-20 323.645,-20 323.645,-0 180.355,-0"/>
<text text-anchor="middle" x="252" y="-6" font-family="Helvetica,sans-Serif" font-size="10.00">OAuthRequest\from_request</text>
</a>
</g>
</g>
<!-- Node1&#45;&gt;Node3 -->
<g id="edge2" class="edge"><title>Node1&#45;&gt;Node3</title>
<path fill="none" stroke="midnightblue" d="M153.565,-20.4003C162.446,-19.4524 171.44,-18.4924 180.188,-17.5586"/>
<polygon fill="midnightblue" stroke="midnightblue" points="153.178,-16.9217 143.606,-21.4634 153.921,-23.8822 153.178,-16.9217"/>
</g>
</g>
</svg>
