<?xml version="1.0" encoding="UTF-8" standalone="no"?>
<!DOCTYPE svg PUBLIC "-//W3C//DTD SVG 1.1//EN"
 "http://www.w3.org/Graphics/SVG/1.1/DTD/svg11.dtd">
<!-- Generated by graphviz version 2.30.1 (20130221.2233)
 -->
<!-- Title: CTCT_Widget_Simple\widget Pages: 1 -->
<svg width="638pt" height="40pt"
 viewBox="0.00 0.00 638.00 40.00" xmlns="http://www.w3.org/2000/svg" xmlns:xlink="http://www.w3.org/1999/xlink">
<g id="graph0" class="graph" transform="scale(1 1) rotate(0) translate(4 36)">
<title>CTCT_Widget_Simple\widget</title>
<polygon fill="white" stroke="white" points="-4,5 -4,-36 635,-36 635,5 -4,5"/>
<!-- Node1 -->
<g id="node1" class="node"><title>Node1</title>
<polygon fill="#bfbfbf" stroke="black" points="0.263672,-0 0.263672,-32 115.736,-32 115.736,-0 0.263672,-0"/>
<text text-anchor="start" x="8.26367" y="-18" font-family="Helvetica,sans-Serif" font-size="10.00">CTCT_Widget_Simple</text>
<text text-anchor="middle" x="58" y="-6" font-family="Helvetica,sans-Serif" font-size="10.00">\widget</text>
</g>
<!-- Node2 -->
<g id="node2" class="node"><title>Node2</title>
<g id="a_node2"><a xlink:href="class_c_t_c_t___widget___simple.html#ab6851d66b2918d51cb3c16ae8f8da36e" target="_top" xlink:title="CTCT_Widget_Simple\\form">
<polygon fill="white" stroke="black" points="151.875,-6 151.875,-26 290.125,-26 290.125,-6 151.875,-6"/>
<text text-anchor="middle" x="221" y="-12" font-family="Helvetica,sans-Serif" font-size="10.00">CTCT_Widget_Simple\form</text>
</a>
</g>
</g>
<!-- Node1&#45;&gt;Node2 -->
<g id="edge1" class="edge"><title>Node1&#45;&gt;Node2</title>
<path fill="none" stroke="midnightblue" d="M115.763,-16C124.092,-16 132.793,-16 141.464,-16"/>
<polygon fill="midnightblue" stroke="midnightblue" points="141.605,-19.5001 151.605,-16 141.605,-12.5001 141.605,-19.5001"/>
</g>
<!-- Node3 -->
<g id="node3" class="node"><title>Node3</title>
<g id="a_node3"><a xlink:href="class_k_w_s_contact_list.html#a83039abeb7dce624539df46bebd0b3a2" target="_top" xlink:title="Convert an array of List objects into HTML output. ">
<polygon fill="white" stroke="black" points="326.697,-6 326.697,-26 473.303,-26 473.303,-6 326.697,-6"/>
<text text-anchor="middle" x="400" y="-12" font-family="Helvetica,sans-Serif" font-size="10.00">KWSContactList\outputHTML</text>
</a>
</g>
</g>
<!-- Node2&#45;&gt;Node3 -->
<g id="edge2" class="edge"><title>Node2&#45;&gt;Node3</title>
<path fill="none" stroke="midnightblue" d="M290.18,-16C298.719,-16 307.526,-16 316.257,-16"/>
<polygon fill="midnightblue" stroke="midnightblue" points="316.452,-19.5001 326.452,-16 316.452,-12.5001 316.452,-19.5001"/>
</g>
<!-- Node4 -->
<g id="node4" class="node"><title>Node4</title>
<g id="a_node4"><a xlink:href="class_w_p___c_t_c_t.html#a485eac1e69d12c9e2ecac70bf3295c3f" target="_top" xlink:title="WP_CTCT\\getInstance">
<polygon fill="white" stroke="black" points="510.594,-6 510.594,-26 629.406,-26 629.406,-6 510.594,-6"/>
<text text-anchor="middle" x="570" y="-12" font-family="Helvetica,sans-Serif" font-size="10.00">WP_CTCT\getInstance</text>
</a>
</g>
</g>
<!-- Node3&#45;&gt;Node4 -->
<g id="edge3" class="edge"><title>Node3&#45;&gt;Node4</title>
<path fill="none" stroke="midnightblue" d="M473.71,-16C482.57,-16 491.6,-16 500.397,-16"/>
<polygon fill="midnightblue" stroke="midnightblue" points="500.593,-19.5001 510.593,-16 500.593,-12.5001 500.593,-19.5001"/>
</g>
</g>
</svg>
