<?xml version="1.0" encoding="UTF-8" standalone="no"?>
<!DOCTYPE svg PUBLIC "-//W3C//DTD SVG 1.1//EN"
 "http://www.w3.org/Graphics/SVG/1.1/DTD/svg11.dtd">
<!-- Generated by graphviz version 2.30.1 (20130221.2233)
 -->
<!-- Title: Net_DNS_RR_TSIG\rr_rdata Pages: 1 -->
<svg width="450pt" height="106pt"
 viewBox="0.00 0.00 450.00 106.00" xmlns="http://www.w3.org/2000/svg" xmlns:xlink="http://www.w3.org/1999/xlink">
<g id="graph0" class="graph" transform="scale(1 1) rotate(0) translate(4 102)">
<title>Net_DNS_RR_TSIG\rr_rdata</title>
<polygon fill="white" stroke="white" points="-4,5 -4,-102 447,-102 447,5 -4,5"/>
<!-- Node1 -->
<g id="node1" class="node"><title>Node1</title>
<polygon fill="#bfbfbf" stroke="black" points="0.711914,-33 0.711914,-65 117.288,-65 117.288,-33 0.711914,-33"/>
<text text-anchor="start" x="8.71191" y="-51" font-family="Helvetica,sans-Serif" font-size="10.00">Net_DNS_RR_TSIG\rr</text>
<text text-anchor="middle" x="59" y="-39" font-family="Helvetica,sans-Serif" font-size="10.00">_rdata</text>
</g>
<!-- Node2 -->
<g id="node2" class="node"><title>Node2</title>
<g id="a_node2"><a xlink:href="class_net___d_n_s.html#a1e086e94cfa4b747b481b1e5859a1caf" target="_top" xlink:title="translates a DNS class from it&#39;s name to it&#39;s integer value. ">
<polygon fill="white" stroke="black" points="158.032,-78 158.032,-98 287.968,-98 287.968,-78 158.032,-78"/>
<text text-anchor="middle" x="223" y="-84" font-family="Helvetica,sans-Serif" font-size="10.00">Net_DNS\classesbyname</text>
</a>
</g>
</g>
<!-- Node1&#45;&gt;Node2 -->
<g id="edge1" class="edge"><title>Node1&#45;&gt;Node2</title>
<path fill="none" stroke="midnightblue" d="M117.571,-62.8598C134.743,-66.9936 153.451,-71.4975 170.228,-75.5363"/>
<polygon fill="midnightblue" stroke="midnightblue" points="169.851,-79.0456 180.393,-77.9834 171.49,-72.24 169.851,-79.0456"/>
</g>
<!-- Node3 -->
<g id="node3" class="node"><title>Node3</title>
<g id="a_node3"><a xlink:href="class_net___d_n_s___packet.html#a953289b1c2543c4294c5c40a98e04c81" target="_top" xlink:title="DNS packet compression method. ">
<polygon fill="white" stroke="black" points="153.857,-39 153.857,-59 292.143,-59 292.143,-39 153.857,-39"/>
<text text-anchor="middle" x="223" y="-45" font-family="Helvetica,sans-Serif" font-size="10.00">Net_DNS_Packet\dn_comp</text>
</a>
</g>
</g>
<!-- Node1&#45;&gt;Node3 -->
<g id="edge2" class="edge"><title>Node1&#45;&gt;Node3</title>
<path fill="none" stroke="midnightblue" d="M117.571,-49C126.004,-49 134.806,-49 143.569,-49"/>
<polygon fill="midnightblue" stroke="midnightblue" points="143.813,-52.5001 153.813,-49 143.813,-45.5001 143.813,-52.5001"/>
</g>
<!-- Node4 -->
<g id="node4" class="node"><title>Node4</title>
<g id="a_node4"><a xlink:href="class_net___d_n_s___r_r___t_s_i_g.html#a63aef56e97be1cf55d47cbcc584cd60f" target="_top" xlink:title="Net_DNS_RR_TSIG\\error">
<polygon fill="white" stroke="black" points="157.485,-0 157.485,-20 288.515,-20 288.515,-0 157.485,-0"/>
<text text-anchor="middle" x="223" y="-6" font-family="Helvetica,sans-Serif" font-size="10.00">Net_DNS_RR_TSIG\error</text>
</a>
</g>
</g>
<!-- Node1&#45;&gt;Node4 -->
<g id="edge3" class="edge"><title>Node1&#45;&gt;Node4</title>
<path fill="none" stroke="midnightblue" d="M117.571,-35.1402C134.743,-31.0064 153.451,-26.5025 170.228,-22.4637"/>
<polygon fill="midnightblue" stroke="midnightblue" points="171.49,-25.76 180.393,-20.0166 169.851,-18.9544 171.49,-25.76"/>
</g>
<!-- Node5 -->
<g id="node5" class="node"><title>Node5</title>
<g id="a_node5"><a xlink:href="class_net___d_n_s.html#ac6fb33bbed78aa908d67df566bd83dfb" target="_top" xlink:title="Translates rcode integers into names. ">
<polygon fill="white" stroke="black" points="327.813,-0 327.813,-20 442.187,-20 442.187,-0 327.813,-0"/>
<text text-anchor="middle" x="385" y="-6" font-family="Helvetica,sans-Serif" font-size="10.00">Net_DNS\rcodesbyval</text>
</a>
</g>
</g>
<!-- Node4&#45;&gt;Node5 -->
<g id="edge4" class="edge"><title>Node4&#45;&gt;Node5</title>
<path fill="none" stroke="midnightblue" d="M288.617,-10C298.107,-10 307.897,-10 317.426,-10"/>
<polygon fill="midnightblue" stroke="midnightblue" points="317.637,-13.5001 327.637,-10 317.637,-6.5001 317.637,-13.5001"/>
</g>
</g>
</svg>
