<?xml version="1.0" encoding="UTF-8" standalone="no"?>
<!DOCTYPE svg PUBLIC "-//W3C//DTD SVG 1.1//EN"
 "http://www.w3.org/Graphics/SVG/1.1/DTD/svg11.dtd">
<!-- Generated by graphviz version 2.30.1 (20130221.2233)
 -->
<!-- Title: OAuthRequest\to_postdata Pages: 1 -->
<svg width="430pt" height="40pt"
 viewBox="0.00 0.00 430.00 40.00" xmlns="http://www.w3.org/2000/svg" xmlns:xlink="http://www.w3.org/1999/xlink">
<g id="graph0" class="graph" transform="scale(1 1) rotate(0) translate(4 36)">
<title>OAuthRequest\to_postdata</title>
<polygon fill="white" stroke="white" points="-4,5 -4,-36 427,-36 427,5 -4,5"/>
<!-- Node1 -->
<g id="node1" class="node"><title>Node1</title>
<polygon fill="#bfbfbf" stroke="black" points="0.680176,-6 0.680176,-26 137.32,-26 137.32,-6 0.680176,-6"/>
<text text-anchor="middle" x="69" y="-12" font-family="Helvetica,sans-Serif" font-size="10.00">OAuthRequest\to_postdata</text>
</g>
<!-- Node2 -->
<g id="node2" class="node"><title>Node2</title>
<g id="a_node2"><a xlink:href="class_o_auth_util.html#afa225b04225a3b8abe804ee294e0d631" target="_top" xlink:title="OAuthUtil\\build_http\l_query">
<polygon fill="white" stroke="black" points="174.53,-0 174.53,-32 279.47,-32 279.47,-0 174.53,-0"/>
<text text-anchor="start" x="182.53" y="-18" font-family="Helvetica,sans-Serif" font-size="10.00">OAuthUtil\build_http</text>
<text text-anchor="middle" x="227" y="-6" font-family="Helvetica,sans-Serif" font-size="10.00">_query</text>
</a>
</g>
</g>
<!-- Node1&#45;&gt;Node2 -->
<g id="edge1" class="edge"><title>Node1&#45;&gt;Node2</title>
<path fill="none" stroke="midnightblue" d="M137.517,-16C146.394,-16 155.457,-16 164.232,-16"/>
<polygon fill="midnightblue" stroke="midnightblue" points="164.374,-19.5001 174.374,-16 164.374,-12.5001 164.374,-19.5001"/>
</g>
<!-- Node3 -->
<g id="node3" class="node"><title>Node3</title>
<g id="a_node3"><a xlink:href="class_o_auth_util.html#adcb789bfefc729678d5188f05d19b5ba" target="_top" xlink:title="OAuthUtil\\urlencode\l_rfc3986">
<polygon fill="white" stroke="black" points="316.254,-0 316.254,-32 421.746,-32 421.746,-0 316.254,-0"/>
<text text-anchor="start" x="324.254" y="-18" font-family="Helvetica,sans-Serif" font-size="10.00">OAuthUtil\urlencode</text>
<text text-anchor="middle" x="369" y="-6" font-family="Helvetica,sans-Serif" font-size="10.00">_rfc3986</text>
</a>
</g>
</g>
<!-- Node2&#45;&gt;Node3 -->
<g id="edge2" class="edge"><title>Node2&#45;&gt;Node3</title>
<path fill="none" stroke="midnightblue" d="M279.733,-16C288.243,-16 297.14,-16 305.871,-16"/>
<polygon fill="midnightblue" stroke="midnightblue" points="306.012,-19.5001 316.012,-16 306.012,-12.5001 306.012,-19.5001"/>
</g>
</g>
</svg>
