<?xml version="1.0" encoding="UTF-8" standalone="no"?>
<!DOCTYPE svg PUBLIC "-//W3C//DTD SVG 1.1//EN"
 "http://www.w3.org/Graphics/SVG/1.1/DTD/svg11.dtd">
<!-- Generated by graphviz version 2.30.1 (20130221.2233)
 -->
<!-- Title: OAuthSignatureMethod Pages: 1 -->
<svg width="288pt" height="142pt"
 viewBox="0.00 0.00 288.00 142.00" xmlns="http://www.w3.org/2000/svg" xmlns:xlink="http://www.w3.org/1999/xlink">
<g id="graph0" class="graph" transform="scale(1 1) rotate(0) translate(4 138)">
<title>OAuthSignatureMethod</title>
<polygon fill="white" stroke="white" points="-4,5 -4,-138 285,-138 285,5 -4,5"/>
<!-- Node1 -->
<g id="node1" class="node"><title>Node1</title>
<polygon fill="#bfbfbf" stroke="black" points="0.744141,-57 0.744141,-77 121.256,-77 121.256,-57 0.744141,-57"/>
<text text-anchor="middle" x="61" y="-63" font-family="Helvetica,sans-Serif" font-size="10.00">OAuthSignatureMethod</text>
</g>
<!-- Node2 -->
<g id="node2" class="node"><title>Node2</title>
<g id="a_node2"><a xlink:href="class_o_auth_signature_method___h_m_a_c___s_h_a1.html" target="_top" xlink:title="The HMAC&#45;SHA1 signature method uses the HMAC&#45;SHA1 signature algorithm as defined in [RFC2104] where t...">
<polygon fill="white" stroke="black" points="158.744,-102 158.744,-134 279.256,-134 279.256,-102 158.744,-102"/>
<text text-anchor="start" x="166.744" y="-120" font-family="Helvetica,sans-Serif" font-size="10.00">OAuthSignatureMethod</text>
<text text-anchor="middle" x="219" y="-108" font-family="Helvetica,sans-Serif" font-size="10.00">_HMAC_SHA1</text>
</a>
</g>
</g>
<!-- Node1&#45;&gt;Node2 -->
<g id="edge1" class="edge"><title>Node1&#45;&gt;Node2</title>
<path fill="none" stroke="midnightblue" d="M102.388,-80.2038C122.678,-86.837 147.432,-94.9297 168.821,-101.922"/>
<polygon fill="midnightblue" stroke="midnightblue" points="103.413,-76.8567 92.8206,-77.076 101.238,-83.5102 103.413,-76.8567"/>
</g>
<!-- Node3 -->
<g id="node3" class="node"><title>Node3</title>
<g id="a_node3"><a xlink:href="class_o_auth_signature_method___p_l_a_i_n_t_e_x_t.html" target="_top" xlink:title="The PLAINTEXT method does not provide any security protection and SHOULD only be used over a secure c...">
<polygon fill="white" stroke="black" points="158.744,-51 158.744,-83 279.256,-83 279.256,-51 158.744,-51"/>
<text text-anchor="start" x="166.744" y="-69" font-family="Helvetica,sans-Serif" font-size="10.00">OAuthSignatureMethod</text>
<text text-anchor="middle" x="219" y="-57" font-family="Helvetica,sans-Serif" font-size="10.00">_PLAINTEXT</text>
</a>
</g>
</g>
<!-- Node1&#45;&gt;Node3 -->
<g id="edge2" class="edge"><title>Node1&#45;&gt;Node3</title>
<path fill="none" stroke="midnightblue" d="M131.57,-67C140.64,-67 149.864,-67 158.743,-67"/>
<polygon fill="midnightblue" stroke="midnightblue" points="131.422,-63.5001 121.422,-67 131.422,-70.5001 131.422,-63.5001"/>
</g>
<!-- Node4 -->
<g id="node4" class="node"><title>Node4</title>
<g id="a_node4"><a xlink:href="class_o_auth_signature_method___r_s_a___s_h_a1.html" target="_top" xlink:title="The RSA&#45;SHA1 signature method uses the RSASSA&#45;PKCS1&#45;v1_5 signature algorithm as defined in [RFC3447] ...">
<polygon fill="white" stroke="black" points="158.744,-0 158.744,-32 279.256,-32 279.256,-0 158.744,-0"/>
<text text-anchor="start" x="166.744" y="-18" font-family="Helvetica,sans-Serif" font-size="10.00">OAuthSignatureMethod</text>
<text text-anchor="middle" x="219" y="-6" font-family="Helvetica,sans-Serif" font-size="10.00">_RSA_SHA1</text>
</a>
</g>
</g>
<!-- Node1&#45;&gt;Node4 -->
<g id="edge3" class="edge"><title>Node1&#45;&gt;Node4</title>
<path fill="none" stroke="midnightblue" d="M102.388,-53.7962C122.678,-47.163 147.432,-39.0703 168.821,-32.0777"/>
<polygon fill="midnightblue" stroke="midnightblue" points="101.238,-50.4898 92.8206,-56.924 103.413,-57.1433 101.238,-50.4898"/>
</g>
</g>
</svg>
