<?xml version="1.0" encoding="UTF-8" standalone="no"?>
<!DOCTYPE svg PUBLIC "-//W3C//DTD SVG 1.1//EN"
 "http://www.w3.org/Graphics/SVG/1.1/DTD/svg11.dtd">
<!-- Generated by graphviz version 2.30.1 (20130221.2233)
 -->
<!-- Title: Ctct\Components\Contacts\Contact\toJson Pages: 1 -->
<svg width="326pt" height="91pt"
 viewBox="0.00 0.00 326.00 91.00" xmlns="http://www.w3.org/2000/svg" xmlns:xlink="http://www.w3.org/1999/xlink">
<g id="graph0" class="graph" transform="scale(1 1) rotate(0) translate(4 87)">
<title>Ctct\Components\Contacts\Contact\toJson</title>
<polygon fill="white" stroke="white" points="-4,5 -4,-87 323,-87 323,5 -4,5"/>
<!-- Node1 -->
<g id="node1" class="node"><title>Node1</title>
<polygon fill="#bfbfbf" stroke="black" points="0.251465,-25 0.251465,-57 135.749,-57 135.749,-25 0.251465,-25"/>
<text text-anchor="start" x="8.25146" y="-43" font-family="Helvetica,sans-Serif" font-size="10.00">Ctct\Components\Contacts</text>
<text text-anchor="middle" x="68" y="-31" font-family="Helvetica,sans-Serif" font-size="10.00">\Contact\toJson</text>
</g>
<!-- Node2 -->
<g id="node2" class="node"><title>Node2</title>
<g id="a_node2"><a xlink:href="class_ctct_1_1_services_1_1_contact_service.html#a68b82b5578a6115f979c2b79dcd91dff" target="_top" xlink:title="Add a new contact to the Constant Contact account. ">
<polygon fill="white" stroke="black" points="172.256,-51 172.256,-83 317.744,-83 317.744,-51 172.256,-51"/>
<text text-anchor="start" x="180.256" y="-69" font-family="Helvetica,sans-Serif" font-size="10.00">Ctct\Services\ContactService</text>
<text text-anchor="middle" x="245" y="-57" font-family="Helvetica,sans-Serif" font-size="10.00">\addContact</text>
</a>
</g>
</g>
<!-- Node1&#45;&gt;Node2 -->
<g id="edge1" class="edge"><title>Node1&#45;&gt;Node2</title>
<path fill="none" stroke="midnightblue" d="M146.184,-52.4673C154.794,-53.7465 163.539,-55.0457 172.079,-56.3146"/>
<polygon fill="midnightblue" stroke="midnightblue" points="146.565,-48.9856 136.159,-50.9779 145.536,-55.9096 146.565,-48.9856"/>
</g>
<!-- Node3 -->
<g id="node3" class="node"><title>Node3</title>
<g id="a_node3"><a xlink:href="class_ctct_1_1_services_1_1_contact_service.html#a56d41dfd1397fd74e40ba0944637afb8" target="_top" xlink:title="Update contact details for a specific contact. ">
<polygon fill="white" stroke="black" points="172.256,-0 172.256,-32 317.744,-32 317.744,-0 172.256,-0"/>
<text text-anchor="start" x="180.256" y="-18" font-family="Helvetica,sans-Serif" font-size="10.00">Ctct\Services\ContactService</text>
<text text-anchor="middle" x="245" y="-6" font-family="Helvetica,sans-Serif" font-size="10.00">\updateContact</text>
</a>
</g>
</g>
<!-- Node1&#45;&gt;Node3 -->
<g id="edge2" class="edge"><title>Node1&#45;&gt;Node3</title>
<path fill="none" stroke="midnightblue" d="M146.184,-29.9737C154.794,-28.7438 163.539,-27.4945 172.079,-26.2744"/>
<polygon fill="midnightblue" stroke="midnightblue" points="145.564,-26.5267 136.159,-31.4058 146.554,-33.4564 145.564,-26.5267"/>
</g>
</g>
</svg>
