<?xml version="1.0" encoding="UTF-8" standalone="no"?>
<!DOCTYPE svg PUBLIC "-//W3C//DTD SVG 1.1//EN"
 "http://www.w3.org/Graphics/SVG/1.1/DTD/svg11.dtd">
<!-- Generated by graphviz version 2.30.1 (20130221.2233)
 -->
<!-- Title: OAuthSignatureMethod_RSA_SHA1\check_signature Pages: 1 -->
<svg width="346pt" height="40pt"
 viewBox="0.00 0.00 346.00 40.00" xmlns="http://www.w3.org/2000/svg" xmlns:xlink="http://www.w3.org/1999/xlink">
<g id="graph0" class="graph" transform="scale(1 1) rotate(0) translate(4 36)">
<title>OAuthSignatureMethod_RSA_SHA1\check_signature</title>
<polygon fill="white" stroke="white" points="-4,5 -4,-36 343,-36 343,5 -4,5"/>
<!-- Node1 -->
<g id="node1" class="node"><title>Node1</title>
<polygon fill="#bfbfbf" stroke="black" points="0.295898,-0 0.295898,-32 149.704,-32 149.704,-0 0.295898,-0"/>
<text text-anchor="start" x="8.2959" y="-18" font-family="Helvetica,sans-Serif" font-size="10.00">OAuthSignatureMethod</text>
<text text-anchor="middle" x="75" y="-6" font-family="Helvetica,sans-Serif" font-size="10.00">_RSA_SHA1\check_signature</text>
</g>
<!-- Node2 -->
<g id="node2" class="node"><title>Node2</title>
<g id="a_node2"><a xlink:href="class_o_auth_signature_method___r_s_a___s_h_a1.html#a207559f1308b89ffc2bb8867f86557be" target="_top" xlink:title="OAuthSignatureMethod\l_RSA_SHA1\\fetch_public_cert">
<polygon fill="white" stroke="black" points="185.907,-0 185.907,-32 338.093,-32 338.093,-0 185.907,-0"/>
<text text-anchor="start" x="193.907" y="-18" font-family="Helvetica,sans-Serif" font-size="10.00">OAuthSignatureMethod</text>
<text text-anchor="middle" x="262" y="-6" font-family="Helvetica,sans-Serif" font-size="10.00">_RSA_SHA1\fetch_public_cert</text>
</a>
</g>
</g>
<!-- Node1&#45;&gt;Node2 -->
<g id="edge1" class="edge"><title>Node1&#45;&gt;Node2</title>
<path fill="none" stroke="midnightblue" d="M149.914,-16C158.378,-16 167.058,-16 175.655,-16"/>
<polygon fill="midnightblue" stroke="midnightblue" points="175.691,-19.5001 185.691,-16 175.691,-12.5001 175.691,-19.5001"/>
</g>
</g>
</svg>
