<?xml version="1.0" encoding="UTF-8" standalone="no"?>
<!DOCTYPE svg PUBLIC "-//W3C//DTD SVG 1.1//EN"
 "http://www.w3.org/Graphics/SVG/1.1/DTD/svg11.dtd">
<!-- Generated by graphviz version 2.30.1 (20130221.2233)
 -->
<!-- Title: Ctct\Components\Contacts\ContactList\toJson Pages: 1 -->
<svg width="308pt" height="91pt"
 viewBox="0.00 0.00 308.00 91.00" xmlns="http://www.w3.org/2000/svg" xmlns:xlink="http://www.w3.org/1999/xlink">
<g id="graph0" class="graph" transform="scale(1 1) rotate(0) translate(4 87)">
<title>Ctct\Components\Contacts\ContactList\toJson</title>
<polygon fill="white" stroke="white" points="-4,5 -4,-87 305,-87 305,5 -4,5"/>
<!-- Node1 -->
<g id="node1" class="node"><title>Node1</title>
<polygon fill="#bfbfbf" stroke="black" points="0.251465,-25 0.251465,-57 135.749,-57 135.749,-25 0.251465,-25"/>
<text text-anchor="start" x="8.25146" y="-43" font-family="Helvetica,sans-Serif" font-size="10.00">Ctct\Components\Contacts</text>
<text text-anchor="middle" x="68" y="-31" font-family="Helvetica,sans-Serif" font-size="10.00">\ContactList\toJson</text>
</g>
<!-- Node2 -->
<g id="node2" class="node"><title>Node2</title>
<g id="a_node2"><a xlink:href="class_ctct_1_1_services_1_1_list_service.html#a8b218a1852399f8cdc31d7591de001ce" target="_top" xlink:title="Create a new Contact List. ">
<polygon fill="white" stroke="black" points="172.707,-51 172.707,-83 299.293,-83 299.293,-51 172.707,-51"/>
<text text-anchor="start" x="180.707" y="-69" font-family="Helvetica,sans-Serif" font-size="10.00">Ctct\Services\ListService</text>
<text text-anchor="middle" x="236" y="-57" font-family="Helvetica,sans-Serif" font-size="10.00">\addList</text>
</a>
</g>
</g>
<!-- Node1&#45;&gt;Node2 -->
<g id="edge1" class="edge"><title>Node1&#45;&gt;Node2</title>
<path fill="none" stroke="midnightblue" d="M146.014,-53.0624C154.902,-54.4545 163.882,-55.8611 172.544,-57.2177"/>
<polygon fill="midnightblue" stroke="midnightblue" points="146.461,-49.5899 136.04,-51.5003 145.378,-56.5056 146.461,-49.5899"/>
</g>
<!-- Node3 -->
<g id="node3" class="node"><title>Node3</title>
<g id="a_node3"><a xlink:href="class_ctct_1_1_services_1_1_list_service.html#a4b423630bee711b97d0f6ca13c4e7036" target="_top" xlink:title="Update a Contact List. ">
<polygon fill="white" stroke="black" points="172.707,-0 172.707,-32 299.293,-32 299.293,-0 172.707,-0"/>
<text text-anchor="start" x="180.707" y="-18" font-family="Helvetica,sans-Serif" font-size="10.00">Ctct\Services\ListService</text>
<text text-anchor="middle" x="236" y="-6" font-family="Helvetica,sans-Serif" font-size="10.00">\updateList</text>
</a>
</g>
</g>
<!-- Node1&#45;&gt;Node3 -->
<g id="edge2" class="edge"><title>Node1&#45;&gt;Node3</title>
<path fill="none" stroke="midnightblue" d="M146.014,-29.4015C154.902,-28.0629 163.882,-26.7105 172.544,-25.4061"/>
<polygon fill="midnightblue" stroke="midnightblue" points="145.407,-25.9533 136.04,-30.9036 146.45,-32.8753 145.407,-25.9533"/>
</g>
</g>
</svg>
