<?xml version="1.0" encoding="UTF-8" standalone="no"?>
<!DOCTYPE svg PUBLIC "-//W3C//DTD SVG 1.1//EN"
 "http://www.w3.org/Graphics/SVG/1.1/DTD/svg11.dtd">
<!-- Generated by graphviz version 2.30.1 (20130221.2233)
 -->
<!-- Title: OAuthToken\__toString Pages: 1 -->
<svg width="418pt" height="40pt"
 viewBox="0.00 0.00 418.00 40.00" xmlns="http://www.w3.org/2000/svg" xmlns:xlink="http://www.w3.org/1999/xlink">
<g id="graph0" class="graph" transform="scale(1 1) rotate(0) translate(4 36)">
<title>OAuthToken\__toString</title>
<polygon fill="white" stroke="white" points="-4,5 -4,-36 415,-36 415,5 -4,5"/>
<!-- Node1 -->
<g id="node1" class="node"><title>Node1</title>
<polygon fill="#bfbfbf" stroke="black" points="0.300781,-6 0.300781,-26 119.699,-26 119.699,-6 0.300781,-6"/>
<text text-anchor="middle" x="60" y="-12" font-family="Helvetica,sans-Serif" font-size="10.00">OAuthToken\__toString</text>
</g>
<!-- Node2 -->
<g id="node2" class="node"><title>Node2</title>
<g id="a_node2"><a xlink:href="class_o_auth_token.html#a9c72a49fb3c6e0b018e6f318571b5ff0" target="_top" xlink:title="generates the basic string serialization of a token that a server would respond to request_token and ...">
<polygon fill="white" stroke="black" points="155.917,-6 155.917,-26 268.083,-26 268.083,-6 155.917,-6"/>
<text text-anchor="middle" x="212" y="-12" font-family="Helvetica,sans-Serif" font-size="10.00">OAuthToken\to_string</text>
</a>
</g>
</g>
<!-- Node1&#45;&gt;Node2 -->
<g id="edge1" class="edge"><title>Node1&#45;&gt;Node2</title>
<path fill="none" stroke="midnightblue" d="M119.853,-16C128.348,-16 137.133,-16 145.744,-16"/>
<polygon fill="midnightblue" stroke="midnightblue" points="145.745,-19.5001 155.745,-16 145.745,-12.5001 145.745,-19.5001"/>
</g>
<!-- Node3 -->
<g id="node3" class="node"><title>Node3</title>
<g id="a_node3"><a xlink:href="class_o_auth_util.html#adcb789bfefc729678d5188f05d19b5ba" target="_top" xlink:title="OAuthUtil\\urlencode\l_rfc3986">
<polygon fill="white" stroke="black" points="304.254,-0 304.254,-32 409.746,-32 409.746,-0 304.254,-0"/>
<text text-anchor="start" x="312.254" y="-18" font-family="Helvetica,sans-Serif" font-size="10.00">OAuthUtil\urlencode</text>
<text text-anchor="middle" x="357" y="-6" font-family="Helvetica,sans-Serif" font-size="10.00">_rfc3986</text>
</a>
</g>
</g>
<!-- Node2&#45;&gt;Node3 -->
<g id="edge2" class="edge"><title>Node2&#45;&gt;Node3</title>
<path fill="none" stroke="midnightblue" d="M268.288,-16C276.669,-16 285.364,-16 293.878,-16"/>
<polygon fill="midnightblue" stroke="midnightblue" points="294.142,-19.5001 304.142,-16 294.141,-12.5001 294.142,-19.5001"/>
</g>
</g>
</svg>
