<?xml version="1.0" encoding="UTF-8" standalone="no"?>
<!DOCTYPE svg PUBLIC "-//W3C//DTD SVG 1.1//EN"
 "http://www.w3.org/Graphics/SVG/1.1/DTD/svg11.dtd">
<!-- Generated by graphviz version 2.30.1 (20130221.2233)
 -->
<!-- Title: Ctct\Services\EmailMarketingService\updateCampaign Pages: 1 -->
<svg width="560pt" height="206pt"
 viewBox="0.00 0.00 560.00 206.00" xmlns="http://www.w3.org/2000/svg" xmlns:xlink="http://www.w3.org/1999/xlink">
<g id="graph0" class="graph" transform="scale(1 1) rotate(0) translate(4 202)">
<title>Ctct\Services\EmailMarketingService\updateCampaign</title>
<polygon fill="white" stroke="white" points="-4,5 -4,-202 557,-202 557,5 -4,5"/>
<!-- Node1 -->
<g id="node1" class="node"><title>Node1</title>
<polygon fill="#bfbfbf" stroke="black" points="0.70459,-67 0.70459,-99 147.295,-99 147.295,-67 0.70459,-67"/>
<text text-anchor="start" x="8.70459" y="-85" font-family="Helvetica,sans-Serif" font-size="10.00">Ctct\Services\EmailMarketing</text>
<text text-anchor="middle" x="74" y="-73" font-family="Helvetica,sans-Serif" font-size="10.00">Service\updateCampaign</text>
</g>
<!-- Node2 -->
<g id="node2" class="node"><title>Node2</title>
<g id="a_node2"><a xlink:href="class_ctct_1_1_services_1_1_base_service.html#a5c4ae0795fcc06c137b6e761963c4df6" target="_top" xlink:title="Build a url from the base url and query parameters array. ">
<polygon fill="white" stroke="black" points="200.091,-141 200.091,-173 333.909,-173 333.909,-141 200.091,-141"/>
<text text-anchor="start" x="208.091" y="-159" font-family="Helvetica,sans-Serif" font-size="10.00">Ctct\Services\BaseService</text>
<text text-anchor="middle" x="267" y="-147" font-family="Helvetica,sans-Serif" font-size="10.00">\buildUrl</text>
</a>
</g>
</g>
<!-- Node1&#45;&gt;Node2 -->
<g id="edge1" class="edge"><title>Node1&#45;&gt;Node2</title>
<path fill="none" stroke="midnightblue" d="M108.973,-99.0911C130.283,-108.901 158.465,-121.361 184,-131 189.96,-133.25 196.211,-135.472 202.489,-137.612"/>
<polygon fill="midnightblue" stroke="midnightblue" points="201.748,-141.055 212.341,-140.902 203.965,-134.415 201.748,-141.055"/>
</g>
<!-- Node3 -->
<g id="node3" class="node"><title>Node3</title>
<g id="a_node3"><a xlink:href="class_ctct_1_1_components_1_1_email_marketing_1_1_campaign.html#afbeef4aaccb7fd7be77f5e497e0fbc5f" target="_top" xlink:title="Factory method to create a Campaign object from an array. ">
<polygon fill="white" stroke="black" points="184.527,-90 184.527,-122 349.473,-122 349.473,-90 184.527,-90"/>
<text text-anchor="start" x="192.527" y="-108" font-family="Helvetica,sans-Serif" font-size="10.00">Ctct\Components\EmailMarketing</text>
<text text-anchor="middle" x="267" y="-96" font-family="Helvetica,sans-Serif" font-size="10.00">\Campaign\create</text>
</a>
</g>
</g>
<!-- Node1&#45;&gt;Node3 -->
<g id="edge2" class="edge"><title>Node1&#45;&gt;Node3</title>
<path fill="none" stroke="midnightblue" d="M147.481,-91.7281C156.222,-92.7807 165.237,-93.8662 174.208,-94.9465"/>
<polygon fill="midnightblue" stroke="midnightblue" points="173.954,-98.4411 184.301,-96.1619 174.791,-91.4913 173.954,-98.4411"/>
</g>
<!-- Node8 -->
<g id="node8" class="node"><title>Node8</title>
<g id="a_node8"><a xlink:href="class_ctct_1_1_util_1_1_config.html#ab224fae1ce1a1993c1ac42c708dc7de9" target="_top" xlink:title="Get a configuration property given a specified location, example usage: Config::get(&#39;auth.token_endpoint&#39;) ">
<polygon fill="white" stroke="black" points="217.318,-51 217.318,-71 316.682,-71 316.682,-51 217.318,-51"/>
<text text-anchor="middle" x="267" y="-57" font-family="Helvetica,sans-Serif" font-size="10.00">Ctct\Util\Config\get</text>
</a>
</g>
</g>
<!-- Node1&#45;&gt;Node8 -->
<g id="edge7" class="edge"><title>Node1&#45;&gt;Node8</title>
<path fill="none" stroke="midnightblue" d="M147.481,-74.6514C167.251,-72.3743 188.42,-69.9359 207.318,-67.7592"/>
<polygon fill="midnightblue" stroke="midnightblue" points="207.732,-71.2348 217.265,-66.6134 206.931,-64.2808 207.732,-71.2348"/>
</g>
<!-- Node9 -->
<g id="node9" class="node"><title>Node9</title>
<g id="a_node9"><a xlink:href="class_ctct_1_1_components_1_1_email_marketing_1_1_campaign.html#ad29703c7b4fe34431c2fa79232df4bd3" target="_top" xlink:title="Create json used for a POST/PUT request, also handles removing attributes that will cause errors if s...">
<polygon fill="white" stroke="black" points="184.527,-0 184.527,-32 349.473,-32 349.473,-0 184.527,-0"/>
<text text-anchor="start" x="192.527" y="-18" font-family="Helvetica,sans-Serif" font-size="10.00">Ctct\Components\EmailMarketing</text>
<text text-anchor="middle" x="267" y="-6" font-family="Helvetica,sans-Serif" font-size="10.00">\Campaign\toJson</text>
</a>
</g>
</g>
<!-- Node1&#45;&gt;Node9 -->
<g id="edge8" class="edge"><title>Node1&#45;&gt;Node9</title>
<path fill="none" stroke="midnightblue" d="M116.221,-66.909C136.537,-59.1287 161.456,-49.8077 184,-42 190.447,-39.767 197.205,-37.5029 203.958,-35.2899"/>
<polygon fill="midnightblue" stroke="midnightblue" points="205.377,-38.509 213.809,-32.0939 203.217,-31.8506 205.377,-38.509"/>
</g>
<!-- Node4 -->
<g id="node4" class="node"><title>Node4</title>
<g id="a_node4"><a xlink:href="class_ctct_1_1_components_1_1_tracking_1_1_tracking_summary.html#a2559d62ef3c0e3a457df0c50043311d4" target="_top" xlink:title="Factory method to create a TrackingSummary object from an array. ">
<polygon fill="white" stroke="black" points="401.994,-166 401.994,-198 536.006,-198 536.006,-166 401.994,-166"/>
<text text-anchor="start" x="409.994" y="-184" font-family="Helvetica,sans-Serif" font-size="10.00">Ctct\Components\Tracking</text>
<text text-anchor="middle" x="469" y="-172" font-family="Helvetica,sans-Serif" font-size="10.00">\TrackingSummary\create</text>
</a>
</g>
</g>
<!-- Node3&#45;&gt;Node4 -->
<g id="edge3" class="edge"><title>Node3&#45;&gt;Node4</title>
<path fill="none" stroke="midnightblue" d="M325.703,-122.029C334.003,-124.984 342.326,-128.316 350,-132 367.336,-140.321 368.664,-147.679 386,-156 390.677,-158.245 395.594,-160.359 400.6,-162.337"/>
<polygon fill="midnightblue" stroke="midnightblue" points="399.705,-165.739 410.297,-165.971 402.161,-159.184 399.705,-165.739"/>
</g>
<!-- Node5 -->
<g id="node5" class="node"><title>Node5</title>
<g id="a_node5"><a xlink:href="class_ctct_1_1_components_1_1_email_marketing_1_1_message_footer.html#a6e4143e459132449e4ad848e0d66a0e5" target="_top" xlink:title="Factory method to create a MessageFooter object from an array. ">
<polygon fill="white" stroke="black" points="386.527,-115 386.527,-147 551.473,-147 551.473,-115 386.527,-115"/>
<text text-anchor="start" x="394.527" y="-133" font-family="Helvetica,sans-Serif" font-size="10.00">Ctct\Components\EmailMarketing</text>
<text text-anchor="middle" x="469" y="-121" font-family="Helvetica,sans-Serif" font-size="10.00">\MessageFooter\create</text>
</a>
</g>
</g>
<!-- Node3&#45;&gt;Node5 -->
<g id="edge4" class="edge"><title>Node3&#45;&gt;Node5</title>
<path fill="none" stroke="midnightblue" d="M349.636,-116.205C358.426,-117.303 367.411,-118.426 376.308,-119.539"/>
<polygon fill="midnightblue" stroke="midnightblue" points="375.944,-123.02 386.301,-120.788 376.812,-116.074 375.944,-123.02"/>
</g>
<!-- Node6 -->
<g id="node6" class="node"><title>Node6</title>
<g id="a_node6"><a xlink:href="class_ctct_1_1_components_1_1_email_marketing_1_1_click_through_details.html#a21bbd4ba0873831d3cc03d8dc2e8ebe0" target="_top" xlink:title="Factory method to create a ClickThroughDetails object from an array. ">
<polygon fill="white" stroke="black" points="386.527,-64 386.527,-96 551.473,-96 551.473,-64 386.527,-64"/>
<text text-anchor="start" x="394.527" y="-82" font-family="Helvetica,sans-Serif" font-size="10.00">Ctct\Components\EmailMarketing</text>
<text text-anchor="middle" x="469" y="-70" font-family="Helvetica,sans-Serif" font-size="10.00">\ClickThroughDetails\create</text>
</a>
</g>
</g>
<!-- Node3&#45;&gt;Node6 -->
<g id="edge5" class="edge"><title>Node3&#45;&gt;Node6</title>
<path fill="none" stroke="midnightblue" d="M349.636,-95.3873C358.426,-94.2447 367.411,-93.0766 376.308,-91.9199"/>
<polygon fill="midnightblue" stroke="midnightblue" points="376.835,-95.3809 386.301,-90.6209 375.933,-88.4393 376.835,-95.3809"/>
</g>
<!-- Node7 -->
<g id="node7" class="node"><title>Node7</title>
<g id="a_node7"><a xlink:href="class_ctct_1_1_components_1_1_contacts_1_1_contact_list.html#a3fc8e0d47e974d0ba80d1ff92ec48d5c" target="_top" xlink:title="Factory method to create a ContactList object from an array. ">
<polygon fill="white" stroke="black" points="401.251,-13 401.251,-45 536.749,-45 536.749,-13 401.251,-13"/>
<text text-anchor="start" x="409.251" y="-31" font-family="Helvetica,sans-Serif" font-size="10.00">Ctct\Components\Contacts</text>
<text text-anchor="middle" x="469" y="-19" font-family="Helvetica,sans-Serif" font-size="10.00">\ContactList\create</text>
</a>
</g>
</g>
<!-- Node3&#45;&gt;Node7 -->
<g id="edge6" class="edge"><title>Node3&#45;&gt;Node7</title>
<path fill="none" stroke="midnightblue" d="M326.203,-89.9457C334.35,-87.0106 342.495,-83.6905 350,-80 367.481,-71.4042 368.519,-63.5958 386,-55 390.573,-52.7511 395.385,-50.6397 400.289,-48.6692"/>
<polygon fill="midnightblue" stroke="midnightblue" points="401.694,-51.8797 409.797,-45.0543 399.206,-45.3366 401.694,-51.8797"/>
</g>
</g>
</svg>
