<?xml version="1.0" encoding="UTF-8" standalone="no"?>
<!DOCTYPE svg PUBLIC "-//W3C//DTD SVG 1.1//EN"
 "http://www.w3.org/Graphics/SVG/1.1/DTD/svg11.dtd">
<!-- Generated by graphviz version 2.30.1 (20130221.2233)
 -->
<!-- Title: CTCT_Admin_Page\page Pages: 1 -->
<svg width="310pt" height="142pt"
 viewBox="0.00 0.00 310.00 142.00" xmlns="http://www.w3.org/2000/svg" xmlns:xlink="http://www.w3.org/1999/xlink">
<g id="graph0" class="graph" transform="scale(1 1) rotate(0) translate(4 138)">
<title>CTCT_Admin_Page\page</title>
<polygon fill="white" stroke="white" points="-4,5 -4,-138 307,-138 307,5 -4,5"/>
<!-- Node1 -->
<g id="node1" class="node"><title>Node1</title>
<polygon fill="#bfbfbf" stroke="black" points="0.746582,-57 0.746582,-77 131.253,-77 131.253,-57 0.746582,-57"/>
<text text-anchor="middle" x="66" y="-63" font-family="Helvetica,sans-Serif" font-size="10.00">CTCT_Admin_Page\page</text>
</g>
<!-- Node2 -->
<g id="node2" class="node"><title>Node2</title>
<g id="a_node2"><a xlink:href="class_c_t_c_t___constant___analytics.html#ad379ea8b9d4f8c7735b0f3adeac838fe" target="_top" xlink:title="CTCT_Constant_Analytics\l\\addActions">
<polygon fill="white" stroke="black" points="168.089,-102 168.089,-134 301.911,-134 301.911,-102 168.089,-102"/>
<text text-anchor="start" x="176.089" y="-120" font-family="Helvetica,sans-Serif" font-size="10.00">CTCT_Constant_Analytics</text>
<text text-anchor="middle" x="235" y="-108" font-family="Helvetica,sans-Serif" font-size="10.00">\addActions</text>
</a>
</g>
</g>
<!-- Node1&#45;&gt;Node2 -->
<g id="edge1" class="edge"><title>Node1&#45;&gt;Node2</title>
<path fill="none" stroke="midnightblue" d="M109.645,-80.0233C131.474,-86.6898 158.248,-94.8661 181.354,-101.922"/>
<polygon fill="midnightblue" stroke="midnightblue" points="110.58,-76.6494 99.9938,-77.076 108.536,-83.3441 110.58,-76.6494"/>
</g>
<!-- Node3 -->
<g id="node3" class="node"><title>Node3</title>
<g id="a_node3"><a xlink:href="class_c_t_c_t___constant___analytics.html#a835b6b00979fb3965d01a93767d5199e" target="_top" xlink:title="CTCT_Constant_Analytics\l\\admin_head">
<polygon fill="white" stroke="black" points="168.089,-51 168.089,-83 301.911,-83 301.911,-51 168.089,-51"/>
<text text-anchor="start" x="176.089" y="-69" font-family="Helvetica,sans-Serif" font-size="10.00">CTCT_Constant_Analytics</text>
<text text-anchor="middle" x="235" y="-57" font-family="Helvetica,sans-Serif" font-size="10.00">\admin_head</text>
</a>
</g>
</g>
<!-- Node1&#45;&gt;Node3 -->
<g id="edge2" class="edge"><title>Node1&#45;&gt;Node3</title>
<path fill="none" stroke="midnightblue" d="M141.74,-67C150.477,-67 159.343,-67 167.95,-67"/>
<polygon fill="midnightblue" stroke="midnightblue" points="141.567,-63.5001 131.567,-67 141.567,-70.5001 141.567,-63.5001"/>
</g>
<!-- Node4 -->
<g id="node4" class="node"><title>Node4</title>
<g id="a_node4"><a xlink:href="class_c_t_c_t___constant___analytics.html#a0b5589251b3a6cd9cf457fed695c885c" target="_top" xlink:title="CTCT_Constant_Analytics\l\\enqueue_scripts">
<polygon fill="white" stroke="black" points="168.089,-0 168.089,-32 301.911,-32 301.911,-0 168.089,-0"/>
<text text-anchor="start" x="176.089" y="-18" font-family="Helvetica,sans-Serif" font-size="10.00">CTCT_Constant_Analytics</text>
<text text-anchor="middle" x="235" y="-6" font-family="Helvetica,sans-Serif" font-size="10.00">\enqueue_scripts</text>
</a>
</g>
</g>
<!-- Node1&#45;&gt;Node4 -->
<g id="edge3" class="edge"><title>Node1&#45;&gt;Node4</title>
<path fill="none" stroke="midnightblue" d="M109.645,-53.9767C131.474,-47.3102 158.248,-39.1339 181.354,-32.0777"/>
<polygon fill="midnightblue" stroke="midnightblue" points="108.536,-50.6559 99.9938,-56.924 110.58,-57.3506 108.536,-50.6559"/>
</g>
</g>
</svg>
