<?xml version="1.0" encoding="UTF-8" standalone="no"?>
<!DOCTYPE svg PUBLIC "-//W3C//DTD SVG 1.1//EN"
 "http://www.w3.org/Graphics/SVG/1.1/DTD/svg11.dtd">
<!-- Generated by graphviz version 2.30.1 (20130221.2233)
 -->
<!-- Title: Event\createStruct Pages: 1 -->
<svg width="280pt" height="79pt"
 viewBox="0.00 0.00 280.00 79.00" xmlns="http://www.w3.org/2000/svg" xmlns:xlink="http://www.w3.org/1999/xlink">
<g id="graph0" class="graph" transform="scale(1 1) rotate(0) translate(4 75)">
<title>Event\createStruct</title>
<polygon fill="white" stroke="white" points="-4,5 -4,-75 277,-75 277,5 -4,5"/>
<!-- Node1 -->
<g id="node1" class="node"><title>Node1</title>
<polygon fill="#bfbfbf" stroke="black" points="-0.130371,-22 -0.130371,-42 98.1304,-42 98.1304,-22 -0.130371,-22"/>
<text text-anchor="middle" x="49" y="-28" font-family="Helvetica,sans-Serif" font-size="10.00">Event\createStruct</text>
</g>
<!-- Node2 -->
<g id="node2" class="node"><title>Node2</title>
<g id="a_node2"><a xlink:href="class_events_collection.html#afb1f27cb72007acfd6f901d743c8acad" target="_top" xlink:title="Get full details for an Event object. ">
<polygon fill="white" stroke="black" points="136.633,-39 136.633,-71 269.367,-71 269.367,-39 136.633,-39"/>
<text text-anchor="start" x="144.633" y="-57" font-family="Helvetica,sans-Serif" font-size="10.00">EventsCollection\getEvent</text>
<text text-anchor="middle" x="203" y="-45" font-family="Helvetica,sans-Serif" font-size="10.00">Details</text>
</a>
</g>
</g>
<!-- Node1&#45;&gt;Node2 -->
<g id="edge1" class="edge"><title>Node1&#45;&gt;Node2</title>
<path fill="none" stroke="midnightblue" d="M108.628,-40.8714C117.748,-42.2514 127.22,-43.6847 136.481,-45.086"/>
<polygon fill="midnightblue" stroke="midnightblue" points="108.923,-37.3762 98.5117,-39.3406 107.875,-44.2974 108.923,-37.3762"/>
</g>
<!-- Node3 -->
<g id="node3" class="node"><title>Node3</title>
<g id="a_node3"><a xlink:href="class_events_collection.html#ad0ab949e45693fd1d72baed5d5e5d552" target="_top" xlink:title="Get a page of Events. ">
<polygon fill="white" stroke="black" points="134.133,-0 134.133,-20 271.867,-20 271.867,-0 134.133,-0"/>
<text text-anchor="middle" x="203" y="-6" font-family="Helvetica,sans-Serif" font-size="10.00">EventsCollection\getEvents</text>
</a>
</g>
</g>
<!-- Node1&#45;&gt;Node3 -->
<g id="edge2" class="edge"><title>Node1&#45;&gt;Node3</title>
<path fill="none" stroke="midnightblue" d="M108.512,-23.5312C116.855,-22.3236 125.495,-21.073 134.001,-19.842"/>
<polygon fill="midnightblue" stroke="midnightblue" points="107.907,-20.0821 98.5117,-24.9786 108.91,-27.01 107.907,-20.0821"/>
</g>
</g>
</svg>
