<?xml version="1.0" encoding="UTF-8" standalone="no"?>
<!DOCTYPE svg PUBLIC "-//W3C//DTD SVG 1.1//EN"
 "http://www.w3.org/Graphics/SVG/1.1/DTD/svg11.dtd">
<!-- Generated by graphviz version 2.30.1 (20130221.2233)
 -->
<!-- Title: CTCT_Settings\get Pages: 1 -->
<svg width="484pt" height="283pt"
 viewBox="0.00 0.00 484.00 283.00" xmlns="http://www.w3.org/2000/svg" xmlns:xlink="http://www.w3.org/1999/xlink">
<g id="graph0" class="graph" transform="scale(1 1) rotate(0) translate(4 279)">
<title>CTCT_Settings\get</title>
<polygon fill="white" stroke="white" points="-4,5 -4,-279 481,-279 481,5 -4,5"/>
<!-- Node1 -->
<g id="node1" class="node"><title>Node1</title>
<polygon fill="#bfbfbf" stroke="black" points="0.48291,-124 0.48291,-144 101.517,-144 101.517,-124 0.48291,-124"/>
<text text-anchor="middle" x="51" y="-130" font-family="Helvetica,sans-Serif" font-size="10.00">CTCT_Settings\get</text>
</g>
<!-- Node2 -->
<g id="node2" class="node"><title>Node2</title>
<g id="a_node2"><a xlink:href="class_c_t_c_t___registration.html#a019b36be949a8c744ba312e099be9194" target="_top" xlink:title="CTCT_Registration\\\l__construct">
<polygon fill="white" stroke="black" points="160.82,-243 160.82,-275 265.18,-275 265.18,-243 160.82,-243"/>
<text text-anchor="start" x="168.82" y="-261" font-family="Helvetica,sans-Serif" font-size="10.00">CTCT_Registration\</text>
<text text-anchor="middle" x="213" y="-249" font-family="Helvetica,sans-Serif" font-size="10.00">__construct</text>
</a>
</g>
</g>
<!-- Node1&#45;&gt;Node2 -->
<g id="edge1" class="edge"><title>Node1&#45;&gt;Node2</title>
<path fill="none" stroke="midnightblue" d="M63.8218,-152.745C78.6463,-174.838 106.032,-211.283 138,-233 144.871,-237.668 152.669,-241.587 160.562,-244.85"/>
<polygon fill="midnightblue" stroke="midnightblue" points="66.6628,-150.695 58.2607,-144.241 60.8041,-154.526 66.6628,-150.695"/>
</g>
<!-- Node3 -->
<g id="node3" class="node"><title>Node3</title>
<g id="a_node3"><a xlink:href="class_c_t_c_t___admin___user___profile.html#a3126316e811606a34b0365997965ba07" target="_top" xlink:title="CTCT_Admin_User_Profile\l\\addActions">
<polygon fill="white" stroke="black" points="144.426,-192 144.426,-224 281.574,-224 281.574,-192 144.426,-192"/>
<text text-anchor="start" x="152.426" y="-210" font-family="Helvetica,sans-Serif" font-size="10.00">CTCT_Admin_User_Profile</text>
<text text-anchor="middle" x="213" y="-198" font-family="Helvetica,sans-Serif" font-size="10.00">\addActions</text>
</a>
</g>
</g>
<!-- Node1&#45;&gt;Node3 -->
<g id="edge2" class="edge"><title>Node1&#45;&gt;Node3</title>
<path fill="none" stroke="midnightblue" d="M76.7442,-149.302C93.6214,-159.363 116.693,-172.396 138,-182 145.821,-185.525 154.274,-188.89 162.575,-191.96"/>
<polygon fill="midnightblue" stroke="midnightblue" points="78.4259,-146.229 68.0558,-144.058 74.8089,-152.222 78.4259,-146.229"/>
</g>
<!-- Node4 -->
<g id="node4" class="node"><title>Node4</title>
<g id="a_node4"><a xlink:href="class_c_t_c_t___admin___user___profile.html#a257812f6c2ea2df7247d28e50264316e" target="_top" xlink:title="Hook into show_user_profile action to display our user subscription settings if necessary. ">
<polygon fill="white" stroke="black" points="144.426,-141 144.426,-173 281.574,-173 281.574,-141 144.426,-141"/>
<text text-anchor="start" x="152.426" y="-159" font-family="Helvetica,sans-Serif" font-size="10.00">CTCT_Admin_User_Profile</text>
<text text-anchor="middle" x="213" y="-147" font-family="Helvetica,sans-Serif" font-size="10.00">\display</text>
</a>
</g>
</g>
<!-- Node1&#45;&gt;Node4 -->
<g id="edge3" class="edge"><title>Node1&#45;&gt;Node4</title>
<path fill="none" stroke="midnightblue" d="M111.756,-142.59C122.385,-144.118 133.524,-145.719 144.354,-147.276"/>
<polygon fill="midnightblue" stroke="midnightblue" points="112.144,-139.11 101.748,-141.151 111.148,-146.039 112.144,-139.11"/>
</g>
<!-- Node5 -->
<g id="node5" class="node"><title>Node5</title>
<g id="a_node5"><a xlink:href="class_c_t_c_t___registration.html#a753ff3c5cdd35809e3de5a513f50ae4d" target="_top" xlink:title="Hook into &#39;register_form&#39; action to show our subscription form to users while they are registering th...">
<polygon fill="white" stroke="black" points="150.82,-102 150.82,-122 275.18,-122 275.18,-102 150.82,-102"/>
<text text-anchor="middle" x="213" y="-108" font-family="Helvetica,sans-Serif" font-size="10.00">CTCT_Registration\form</text>
</a>
</g>
</g>
<!-- Node1&#45;&gt;Node5 -->
<g id="edge4" class="edge"><title>Node1&#45;&gt;Node5</title>
<path fill="none" stroke="midnightblue" d="M111.769,-125.782C124.493,-124.032 137.948,-122.182 150.728,-120.425"/>
<polygon fill="midnightblue" stroke="midnightblue" points="111.178,-122.33 101.748,-127.16 112.132,-129.265 111.178,-122.33"/>
</g>
<!-- Node6 -->
<g id="node6" class="node"><title>Node6</title>
<g id="a_node6"><a xlink:href="class_c_t_c_t___registration.html#ac5d49d7c63cbc560e9f89144a544762e" target="_top" xlink:title="Hook into &#39;register_post&#39; action to manage subscription of new users during user registration. ">
<polygon fill="white" stroke="black" points="143.313,-51 143.313,-83 282.687,-83 282.687,-51 143.313,-51"/>
<text text-anchor="start" x="151.313" y="-69" font-family="Helvetica,sans-Serif" font-size="10.00">CTCT_Registration\process</text>
<text text-anchor="middle" x="213" y="-57" font-family="Helvetica,sans-Serif" font-size="10.00">_submission</text>
</a>
</g>
</g>
<!-- Node1&#45;&gt;Node6 -->
<g id="edge5" class="edge"><title>Node1&#45;&gt;Node6</title>
<path fill="none" stroke="midnightblue" d="M80.6875,-119.376C97.2439,-111.176 118.572,-101.017 138,-93 146.308,-89.5717 155.25,-86.183 163.948,-83.0413"/>
<polygon fill="midnightblue" stroke="midnightblue" points="78.922,-116.345 71.5412,-123.946 82.0511,-122.607 78.922,-116.345"/>
</g>
<!-- Node8 -->
<g id="node8" class="node"><title>Node8</title>
<g id="a_node8"><a xlink:href="class_c_t_c_t___process___form.html#aaafc23302889bc63c66db53deeb8aef3" target="_top" xlink:title="Validate email based on user settings. ">
<polygon fill="white" stroke="black" points="137.759,-0 137.759,-32 288.241,-32 288.241,-0 137.759,-0"/>
<text text-anchor="start" x="145.759" y="-18" font-family="Helvetica,sans-Serif" font-size="10.00">CTCT_Process_Form\validate</text>
<text text-anchor="middle" x="213" y="-6" font-family="Helvetica,sans-Serif" font-size="10.00">Email</text>
</a>
</g>
</g>
<!-- Node1&#45;&gt;Node8 -->
<g id="edge7" class="edge"><title>Node1&#45;&gt;Node8</title>
<path fill="none" stroke="midnightblue" d="M64.8021,-115.704C80.0638,-95.1308 107.382,-61.9935 138,-42 143.815,-38.2029 150.25,-34.8868 156.827,-32.0108"/>
<polygon fill="midnightblue" stroke="midnightblue" points="61.8768,-113.776 58.8472,-123.929 67.5467,-117.881 61.8768,-113.776"/>
</g>
<!-- Node7 -->
<g id="node7" class="node"><title>Node7</title>
<g id="a_node7"><a xlink:href="class_c_t_c_t___registration.html#a79a0093c30c386d01853f41205b46367" target="_top" xlink:title="The multisite registration process for logged&#45;in users seems to lack a &#39;register_post&#39;&#45;like solution...">
<polygon fill="white" stroke="black" points="330.313,-51 330.313,-83 469.687,-83 469.687,-51 330.313,-51"/>
<text text-anchor="start" x="338.313" y="-69" font-family="Helvetica,sans-Serif" font-size="10.00">CTCT_Registration\process</text>
<text text-anchor="middle" x="400" y="-57" font-family="Helvetica,sans-Serif" font-size="10.00">_submission_multisite</text>
</a>
</g>
</g>
<!-- Node6&#45;&gt;Node7 -->
<g id="edge6" class="edge"><title>Node6&#45;&gt;Node7</title>
<path fill="none" stroke="midnightblue" d="M293.115,-67C305.404,-67 318.015,-67 330.055,-67"/>
<polygon fill="midnightblue" stroke="midnightblue" points="292.887,-63.5001 282.887,-67 292.887,-70.5001 292.887,-63.5001"/>
</g>
<!-- Node9 -->
<g id="node9" class="node"><title>Node9</title>
<g id="a_node9"><a xlink:href="class_c_t_c_t___process___form.html#a28276123b47f4a19d7e0c965462f6b3c" target="_top" xlink:title="Process the form if there is a $_POST[&#39;uniqueformid&#39;] set. ">
<polygon fill="white" stroke="black" points="324.485,-6 324.485,-26 475.515,-26 475.515,-6 324.485,-6"/>
<text text-anchor="middle" x="400" y="-12" font-family="Helvetica,sans-Serif" font-size="10.00">CTCT_Process_Form\process</text>
</a>
</g>
</g>
<!-- Node8&#45;&gt;Node9 -->
<g id="edge8" class="edge"><title>Node8&#45;&gt;Node9</title>
<path fill="none" stroke="midnightblue" d="M298.523,-16C307.158,-16 315.886,-16 324.404,-16"/>
<polygon fill="midnightblue" stroke="midnightblue" points="298.447,-12.5001 288.447,-16 298.447,-19.5001 298.447,-12.5001"/>
</g>
</g>
</svg>
