<?xml version="1.0" encoding="UTF-8" standalone="no"?>
<!DOCTYPE svg PUBLIC "-//W3C//DTD SVG 1.1//EN"
 "http://www.w3.org/Graphics/SVG/1.1/DTD/svg11.dtd">
<!-- Generated by graphviz version 2.30.1 (20130221.2233)
 -->
<!-- Title: KWSContact\get Pages: 1 -->
<svg width="472pt" height="79pt"
 viewBox="0.00 0.00 472.00 79.00" xmlns="http://www.w3.org/2000/svg" xmlns:xlink="http://www.w3.org/1999/xlink">
<g id="graph0" class="graph" transform="scale(1 1) rotate(0) translate(4 75)">
<title>KWSContact\get</title>
<polygon fill="white" stroke="white" points="-4,5 -4,-75 469,-75 469,5 -4,5"/>
<!-- Node1 -->
<g id="node1" class="node"><title>Node1</title>
<polygon fill="#bfbfbf" stroke="black" points="0.0395508,-28 0.0395508,-48 89.9604,-48 89.9604,-28 0.0395508,-28"/>
<text text-anchor="middle" x="45" y="-34" font-family="Helvetica,sans-Serif" font-size="10.00">KWSContact\get</text>
</g>
<!-- Node2 -->
<g id="node2" class="node"><title>Node2</title>
<g id="a_node2"><a xlink:href="class_k_w_s_a_j_a_x.html#a9e4b29f43a7630e1fd9adcab6265e1c7" target="_top" xlink:title="KWSAJAX\\processAjax">
<polygon fill="white" stroke="black" points="140.483,-51 140.483,-71 261.517,-71 261.517,-51 140.483,-51"/>
<text text-anchor="middle" x="201" y="-57" font-family="Helvetica,sans-Serif" font-size="10.00">KWSAJAX\processAjax</text>
</a>
</g>
</g>
<!-- Node1&#45;&gt;Node2 -->
<g id="edge1" class="edge"><title>Node1&#45;&gt;Node2</title>
<path fill="none" stroke="midnightblue" d="M100.295,-46.109C113.261,-48.0455 127.171,-50.1229 140.363,-52.0932"/>
<polygon fill="midnightblue" stroke="midnightblue" points="100.538,-42.6065 90.1302,-44.5909 99.5035,-49.5297 100.538,-42.6065"/>
</g>
<!-- Node3 -->
<g id="node3" class="node"><title>Node3</title>
<g id="a_node3"><a xlink:href="class_c_t_c_t___process___form.html#aaafc23302889bc63c66db53deeb8aef3" target="_top" xlink:title="Validate email based on user settings. ">
<polygon fill="white" stroke="black" points="125.759,-0 125.759,-32 276.241,-32 276.241,-0 125.759,-0"/>
<text text-anchor="start" x="133.759" y="-18" font-family="Helvetica,sans-Serif" font-size="10.00">CTCT_Process_Form\validate</text>
<text text-anchor="middle" x="201" y="-6" font-family="Helvetica,sans-Serif" font-size="10.00">Email</text>
</a>
</g>
</g>
<!-- Node1&#45;&gt;Node3 -->
<g id="edge2" class="edge"><title>Node1&#45;&gt;Node3</title>
<path fill="none" stroke="midnightblue" d="M100.291,-30.2442C108.496,-29.0719 117.08,-27.8457 125.621,-26.6256"/>
<polygon fill="midnightblue" stroke="midnightblue" points="99.5347,-26.8166 90.1302,-31.6957 100.525,-33.7462 99.5347,-26.8166"/>
</g>
<!-- Node4 -->
<g id="node4" class="node"><title>Node4</title>
<g id="a_node4"><a xlink:href="class_c_t_c_t___process___form.html#a28276123b47f4a19d7e0c965462f6b3c" target="_top" xlink:title="Process the form if there is a $_POST[&#39;uniqueformid&#39;] set. ">
<polygon fill="white" stroke="black" points="312.485,-6 312.485,-26 463.515,-26 463.515,-6 312.485,-6"/>
<text text-anchor="middle" x="388" y="-12" font-family="Helvetica,sans-Serif" font-size="10.00">CTCT_Process_Form\process</text>
</a>
</g>
</g>
<!-- Node3&#45;&gt;Node4 -->
<g id="edge3" class="edge"><title>Node3&#45;&gt;Node4</title>
<path fill="none" stroke="midnightblue" d="M286.523,-16C295.158,-16 303.886,-16 312.404,-16"/>
<polygon fill="midnightblue" stroke="midnightblue" points="286.447,-12.5001 276.447,-16 286.447,-19.5001 286.447,-12.5001"/>
</g>
</g>
</svg>
