<?xml version="1.0" encoding="UTF-8" standalone="no"?>
<!DOCTYPE svg PUBLIC "-//W3C//DTD SVG 1.1//EN"
 "http://www.w3.org/Graphics/SVG/1.1/DTD/svg11.dtd">
<!-- Generated by graphviz version 2.30.1 (20130221.2233)
 -->
<!-- Title: CTCT_Admin_Page\page Pages: 1 -->
<!--zoomable 429 -->
<svg id="main" version="1.1" xmlns="http://www.w3.org/2000/svg" xmlns:xlink="http://www.w3.org/1999/xlink" xml:space="preserve" onload="init(evt)">
<style type="text/css"><![CDATA[
.edge:hover path { stroke: red; }
.edge:hover polygon { stroke: red; fill: red; }
]]></style>
<script type="text/javascript"><![CDATA[
var edges = document.getElementsByTagName('g');
if (edges && edges.length) {
  for (var i=0;i<edges.length;i++) {
    if (edges[i].id.substr(0,4)=='edge') {
      edges[i].setAttribute('class','edge');
    }
  }
}
]]></script>
        <defs>
                <circle id="rim" cx="0" cy="0" r="7"/>
                <circle id="rim2" cx="0" cy="0" r="3.5"/>
                <g id="zoomPlus">
                        <use xlink:href="#rim" fill="#404040">
                                <set attributeName="fill" to="#808080" begin="zoomplus.mouseover" end="zoomplus.mouseout"/>
                        </use>
                        <path d="M-4,0h8M0,-4v8" fill="none" stroke="white" stroke-width="1.5" pointer-events="none"/>
                </g>
                <g id="zoomMin">
                        <use xlink:href="#rim" fill="#404040">
                                <set attributeName="fill" to="#808080" begin="zoomminus.mouseover" end="zoomminus.mouseout"/>
                        </use>
                        <path d="M-4,0h8" fill="none" stroke="white" stroke-width="1.5" pointer-events="none"/>
                </g>
                <g id="dirArrow">
                        <path fill="none" stroke="white" stroke-width="1.5" d="M0,-3.0v7 M-2.5,-0.5L0,-3.0L2.5,-0.5"/>
                </g>
               <g id="resetDef">
                       <use xlink:href="#rim2" fill="#404040">
                               <set attributeName="fill" to="#808080" begin="reset.mouseover" end="reset.mouseout"/>
                       </use>
               </g>
        </defs>

<script type="text/javascript">
var viewWidth = 514;
var viewHeight = 429;
var sectionId = 'dynsection-19';
</script>
<script xlink:href="svgpan.js"/>
<svg id="graph" class="graph">
<g id="viewport">
<title>CTCT_Admin_Page\page</title>
<polygon fill="white" stroke="white" points="-4,5 -4,-425 511,-425 511,5 -4,5"/>
<!-- Node1 -->
<g id="node1" class="node"><title>Node1</title>
<polygon fill="#bfbfbf" stroke="black" points="0.746582,-129 0.746582,-149 131.253,-149 131.253,-129 0.746582,-129"/>
<text text-anchor="middle" x="66" y="-135" font-family="Helvetica,sans-Serif" font-size="10.00">CTCT_Admin_Page\page</text>
</g>
<!-- Node2 -->
<g id="node2" class="node"><title>Node2</title>
<g id="a_node2"><a xlink:href="class_c_t_c_t___admin___page.html#acdbed2f16a36a9384b2fa5f01073024d" target="_top" xlink:title="CTCT_Admin_Page\\content">
<polygon fill="white" stroke="black" points="176.468,-265 176.468,-285 317.532,-285 317.532,-265 176.468,-265"/>
<text text-anchor="middle" x="247" y="-271" font-family="Helvetica,sans-Serif" font-size="10.00">CTCT_Admin_Page\content</text>
</a>
</g>
</g>
<!-- Node1&#45;&gt;Node2 -->
<g id="edge1" class="edge"><title>Node1&#45;&gt;Node2</title>
<path fill="none" stroke="midnightblue" d="M76.7174,-149.049C94.0589,-166.675 131.911,-203.78 168,-230 183.502,-241.263 202.039,-252.056 217.151,-260.247"/>
<polygon fill="midnightblue" stroke="midnightblue" points="215.589,-263.381 226.061,-264.992 218.88,-257.202 215.589,-263.381"/>
</g>
<!-- Node10 -->
<g id="node10" class="node"><title>Node10</title>
<g id="a_node10"><a xlink:href="class_c_t_c_t___admin___page.html#adbfa5f90d2474587ade02994d254de5e" target="_top" xlink:title="CTCT_Admin_Page\\getNavTitle">
<polygon fill="white" stroke="black" points="167.765,-129 167.765,-149 326.235,-149 326.235,-129 167.765,-129"/>
<text text-anchor="middle" x="247" y="-135" font-family="Helvetica,sans-Serif" font-size="10.00">CTCT_Admin_Page\getNavTitle</text>
</a>
</g>
</g>
<!-- Node1&#45;&gt;Node10 -->
<g id="edge9" class="edge"><title>Node1&#45;&gt;Node10</title>
<path fill="none" stroke="midnightblue" d="M131.37,-139C139.799,-139 148.551,-139 157.293,-139"/>
<polygon fill="midnightblue" stroke="midnightblue" points="157.531,-142.5 167.531,-139 157.531,-135.5 157.531,-142.5"/>
</g>
<!-- Node11 -->
<g id="node11" class="node"><title>Node11</title>
<g id="a_node11"><a xlink:href="class_c_t_c_t___admin___page.html#a96eaf870d8a4a93746149a495de929e0" target="_top" xlink:title="CTCT_Admin_Page\\getTitle">
<polygon fill="white" stroke="black" points="176.656,-90 176.656,-110 317.344,-110 317.344,-90 176.656,-90"/>
<text text-anchor="middle" x="247" y="-96" font-family="Helvetica,sans-Serif" font-size="10.00">CTCT_Admin_Page\getTitle</text>
</a>
</g>
</g>
<!-- Node1&#45;&gt;Node11 -->
<g id="edge10" class="edge"><title>Node1&#45;&gt;Node11</title>
<path fill="none" stroke="midnightblue" d="M113.097,-128.957C136.586,-123.839 165.338,-117.574 190.083,-112.183"/>
<polygon fill="midnightblue" stroke="midnightblue" points="191.034,-115.558 200.059,-110.009 189.543,-108.719 191.034,-115.558"/>
</g>
<!-- Node6 -->
<g id="node6" class="node"><title>Node6</title>
<g id="a_node6"><a xlink:href="class_c_t_c_t___admin___page.html#a3022d3649afef42fe8a14b1f34f50a11" target="_top" xlink:title="CTCT_Admin_Page\\isEdit">
<polygon fill="white" stroke="black" points="367.643,-206 367.643,-226 500.357,-226 500.357,-206 367.643,-206"/>
<text text-anchor="middle" x="434" y="-212" font-family="Helvetica,sans-Serif" font-size="10.00">CTCT_Admin_Page\isEdit</text>
</a>
</g>
</g>
<!-- Node1&#45;&gt;Node6 -->
<g id="edge11" class="edge"><title>Node1&#45;&gt;Node6</title>
<path fill="none" stroke="midnightblue" d="M87.3687,-149.041C107.406,-158.49 139.107,-172.304 168,-180 230.696,-196.7 303.908,-205.895 357.473,-210.802"/>
<polygon fill="midnightblue" stroke="midnightblue" points="357.307,-214.301 367.577,-211.699 357.925,-207.329 357.307,-214.301"/>
</g>
<!-- Node7 -->
<g id="node7" class="node"><title>Node7</title>
<g id="a_node7"><a xlink:href="class_c_t_c_t___admin___page.html#a79cac52351cd72e5cb0269ad98ac9a82" target="_top" xlink:title="CTCT_Admin_Page\\isSingle">
<polygon fill="white" stroke="black" points="362.36,-167 362.36,-187 505.64,-187 505.64,-167 362.36,-167"/>
<text text-anchor="middle" x="434" y="-173" font-family="Helvetica,sans-Serif" font-size="10.00">CTCT_Admin_Page\isSingle</text>
</a>
</g>
</g>
<!-- Node1&#45;&gt;Node7 -->
<g id="edge12" class="edge"><title>Node1&#45;&gt;Node7</title>
<path fill="none" stroke="midnightblue" d="M114.094,-149.015C131.023,-152.309 150.305,-155.709 168,-158 229.432,-165.954 299.338,-170.792 351.922,-173.593"/>
<polygon fill="midnightblue" stroke="midnightblue" points="352.032,-177.104 362.2,-174.127 352.395,-170.113 352.032,-177.104"/>
</g>
<!-- Node12 -->
<g id="node12" class="node"><title>Node12</title>
<g id="a_node12"><a xlink:href="class_c_t_c_t___admin___page.html#a0a77dcf97ad2553b5a49c8dee3674bb4" target="_top" xlink:title="CTCT_Admin_Page\\isView">
<polygon fill="white" stroke="black" points="178.509,-51 178.509,-71 315.491,-71 315.491,-51 178.509,-51"/>
<text text-anchor="middle" x="247" y="-57" font-family="Helvetica,sans-Serif" font-size="10.00">CTCT_Admin_Page\isView</text>
</a>
</g>
</g>
<!-- Node1&#45;&gt;Node12 -->
<g id="edge13" class="edge"><title>Node1&#45;&gt;Node12</title>
<path fill="none" stroke="midnightblue" d="M81.3645,-128.79C100.351,-115.733 135.236,-93.2314 168,-80 173.547,-77.7599 179.427,-75.7368 185.371,-73.921"/>
<polygon fill="midnightblue" stroke="midnightblue" points="186.736,-77.1712 195.39,-71.0591 184.814,-70.4404 186.736,-77.1712"/>
</g>
<!-- Node13 -->
<g id="node13" class="node"><title>Node13</title>
<g id="a_node13"><a xlink:href="class_c_t_c_t___admin___page.html#a4b26f51438cbd2148d28edeace31ec70" target="_top" xlink:title="CTCT_Admin_Page\\print\l_errors">
<polygon fill="white" stroke="black" points="183.143,-0 183.143,-32 310.857,-32 310.857,-0 183.143,-0"/>
<text text-anchor="start" x="191.143" y="-18" font-family="Helvetica,sans-Serif" font-size="10.00">CTCT_Admin_Page\print</text>
<text text-anchor="middle" x="247" y="-6" font-family="Helvetica,sans-Serif" font-size="10.00">_errors</text>
</a>
</g>
</g>
<!-- Node1&#45;&gt;Node13 -->
<g id="edge14" class="edge"><title>Node1&#45;&gt;Node13</title>
<path fill="none" stroke="midnightblue" d="M74.7502,-128.83C90.3087,-109.088 127.352,-65.3794 168,-41 170.805,-39.3178 173.735,-37.736 176.746,-36.2502"/>
<polygon fill="midnightblue" stroke="midnightblue" points="178.306,-39.3863 185.975,-32.0765 175.421,-33.0083 178.306,-39.3863"/>
</g>
<!-- Node3 -->
<g id="node3" class="node"><title>Node3</title>
<g id="a_node3"><a xlink:href="class_c_t_c_t___admin___page.html#a2239ad5eadd3654b1c163e66e9d2c48c" target="_top" xlink:title="CTCT_Admin_Page\\add">
<polygon fill="white" stroke="black" points="371.527,-362 371.527,-382 496.473,-382 496.473,-362 371.527,-362"/>
<text text-anchor="middle" x="434" y="-368" font-family="Helvetica,sans-Serif" font-size="10.00">CTCT_Admin_Page\add</text>
</a>
</g>
</g>
<!-- Node2&#45;&gt;Node3 -->
<g id="edge2" class="edge"><title>Node2&#45;&gt;Node3</title>
<path fill="none" stroke="midnightblue" d="M260.193,-285.193C280.232,-301.475 321.918,-333.408 362,-352 367.433,-354.52 373.25,-356.787 379.13,-358.809"/>
<polygon fill="midnightblue" stroke="midnightblue" points="378.437,-362.262 389.028,-361.982 380.574,-355.596 378.437,-362.262"/>
</g>
<!-- Node4 -->
<g id="node4" class="node"><title>Node4</title>
<g id="a_node4"><a xlink:href="class_c_t_c_t___admin___page.html#a22cefb29a88a7407d1448526a6af9a99" target="_top" xlink:title="CTCT_Admin_Page\\edit">
<polygon fill="white" stroke="black" points="371.808,-323 371.808,-343 496.192,-343 496.192,-323 371.808,-323"/>
<text text-anchor="middle" x="434" y="-329" font-family="Helvetica,sans-Serif" font-size="10.00">CTCT_Admin_Page\edit</text>
</a>
</g>
</g>
<!-- Node2&#45;&gt;Node4 -->
<g id="edge3" class="edge"><title>Node2&#45;&gt;Node4</title>
<path fill="none" stroke="midnightblue" d="M276.929,-285.063C299.9,-292.951 332.885,-304.052 362,-313 369.832,-315.407 378.185,-317.86 386.308,-320.186"/>
<polygon fill="midnightblue" stroke="midnightblue" points="385.477,-323.589 396.053,-322.949 387.386,-316.854 385.477,-323.589"/>
</g>
<!-- Node5 -->
<g id="node5" class="node"><title>Node5</title>
<g id="a_node5"><a xlink:href="class_c_t_c_t___admin___page.html#aa09ddad8c19f7b5e766616954288f30c" target="_top" xlink:title="CTCT_Admin_Page\\isAdd">
<polygon fill="white" stroke="black" points="367.362,-284 367.362,-304 500.638,-304 500.638,-284 367.362,-284"/>
<text text-anchor="middle" x="434" y="-290" font-family="Helvetica,sans-Serif" font-size="10.00">CTCT_Admin_Page\isAdd</text>
</a>
</g>
</g>
<!-- Node2&#45;&gt;Node5 -->
<g id="edge4" class="edge"><title>Node2&#45;&gt;Node5</title>
<path fill="none" stroke="midnightblue" d="M317.677,-282.156C330.527,-283.476 344.005,-284.86 357.03,-286.198"/>
<polygon fill="midnightblue" stroke="midnightblue" points="357.053,-289.718 367.358,-287.258 357.768,-282.755 357.053,-289.718"/>
</g>
<!-- Node2&#45;&gt;Node6 -->
<g id="edge5" class="edge"><title>Node2&#45;&gt;Node6</title>
<path fill="none" stroke="midnightblue" d="M275.968,-264.951C298.96,-256.807 332.444,-245.211 362,-236 369.736,-233.589 377.985,-231.148 386.021,-228.84"/>
<polygon fill="midnightblue" stroke="midnightblue" points="387.006,-232.198 395.669,-226.1 385.093,-225.465 387.006,-232.198"/>
</g>
<!-- Node2&#45;&gt;Node7 -->
<g id="edge6" class="edge"><title>Node2&#45;&gt;Node7</title>
<path fill="none" stroke="midnightblue" d="M259.846,-264.931C279.723,-248.506 321.593,-215.89 362,-197 367.351,-194.498 373.079,-192.249 378.873,-190.242"/>
<polygon fill="midnightblue" stroke="midnightblue" points="380.193,-193.494 388.635,-187.092 378.043,-186.832 380.193,-193.494"/>
</g>
<!-- Node8 -->
<g id="node8" class="node"><title>Node8</title>
<g id="a_node8"><a xlink:href="class_c_t_c_t___admin___page.html#aa2467682cbcb0035e36c016f050fc791" target="_top" xlink:title="CTCT_Admin_Page\\single">
<polygon fill="white" stroke="black" points="366.806,-245 366.806,-265 501.194,-265 501.194,-245 366.806,-245"/>
<text text-anchor="middle" x="434" y="-251" font-family="Helvetica,sans-Serif" font-size="10.00">CTCT_Admin_Page\single</text>
</a>
</g>
</g>
<!-- Node2&#45;&gt;Node8 -->
<g id="edge7" class="edge"><title>Node2&#45;&gt;Node8</title>
<path fill="none" stroke="midnightblue" d="M317.677,-267.467C330.366,-266.096 343.666,-264.658 356.538,-263.266"/>
<polygon fill="midnightblue" stroke="midnightblue" points="357.184,-266.717 366.75,-262.162 356.432,-259.757 357.184,-266.717"/>
</g>
<!-- Node9 -->
<g id="node9" class="node"><title>Node9</title>
<g id="a_node9"><a xlink:href="class_c_t_c_t___admin___page.html#a088ea0e281820f5ca26ebe3aa4e1c50e" target="_top" xlink:title="CTCT_Admin_Page\\view">
<polygon fill="white" stroke="black" points="369.867,-401 369.867,-421 498.133,-421 498.133,-401 369.867,-401"/>
<text text-anchor="middle" x="434" y="-407" font-family="Helvetica,sans-Serif" font-size="10.00">CTCT_Admin_Page\view</text>
</a>
</g>
</g>
<!-- Node2&#45;&gt;Node9 -->
<g id="edge8" class="edge"><title>Node2&#45;&gt;Node9</title>
<path fill="none" stroke="midnightblue" d="M255.002,-285.095C271.157,-307.617 313.399,-362.24 362,-391 365.95,-393.338 370.186,-395.413 374.551,-397.253"/>
<polygon fill="midnightblue" stroke="midnightblue" points="373.657,-400.657 384.249,-400.917 376.131,-394.109 373.657,-400.657"/>
</g>
</g>
</svg>
        <g id="navigator" transform="translate(0 0)" fill="#404254">
                <rect fill="#f2f5e9" fill-opacity="0.5" stroke="#606060" stroke-width=".5" x="0" y="0" width="60" height="60"/>
                <use id="zoomplus" xlink:href="#zoomPlus" x="17" y="9" onmousedown="handleZoom(evt,'in')"/>
                <use id="zoomminus" xlink:href="#zoomMin" x="42" y="9" onmousedown="handleZoom(evt,'out')"/>
                <use id="reset" xlink:href="#resetDef" x="30" y="36" onmousedown="handleReset()"/>
                <g id="arrowUp" xlink:href="#dirArrow" transform="translate(30 24)" onmousedown="handlePan(0,-1)">
                  <use xlink:href="#rim" fill="#404040">
                        <set attributeName="fill" to="#808080" begin="arrowUp.mouseover" end="arrowUp.mouseout"/>
                  </use>
                  <path fill="none" stroke="white" stroke-width="1.5" d="M0,-3.0v7 M-2.5,-0.5L0,-3.0L2.5,-0.5"/>
                </g>
                <g id="arrowRight" xlink:href="#dirArrow" transform="rotate(90) translate(36 -43)" onmousedown="handlePan(1,0)">
                  <use xlink:href="#rim" fill="#404040">
                        <set attributeName="fill" to="#808080" begin="arrowRight.mouseover" end="arrowRight.mouseout"/>
                  </use>
                  <path fill="none" stroke="white" stroke-width="1.5" d="M0,-3.0v7 M-2.5,-0.5L0,-3.0L2.5,-0.5"/>
                </g>
                <g id="arrowDown" xlink:href="#dirArrow" transform="rotate(180) translate(-30 -48)" onmousedown="handlePan(0,1)">
                  <use xlink:href="#rim" fill="#404040">
                        <set attributeName="fill" to="#808080" begin="arrowDown.mouseover" end="arrowDown.mouseout"/>
                  </use>
                  <path fill="none" stroke="white" stroke-width="1.5" d="M0,-3.0v7 M-2.5,-0.5L0,-3.0L2.5,-0.5"/>
                </g>
                <g id="arrowLeft" xlink:href="#dirArrow" transform="rotate(270) translate(-36 17)" onmousedown="handlePan(-1,0)">
                  <use xlink:href="#rim" fill="#404040">
                        <set attributeName="fill" to="#808080" begin="arrowLeft.mouseover" end="arrowLeft.mouseout"/>
                  </use>
                  <path fill="none" stroke="white" stroke-width="1.5" d="M0,-3.0v7 M-2.5,-0.5L0,-3.0L2.5,-0.5"/>
                </g>
        </g>
        <svg viewBox="0 0 15 15" width="100%" height="30px" preserveAspectRatio="xMaxYMin meet">
         <g id="arrow_out" transform="scale(0.3 0.3)">
          <a xlink:href="class_c_t_c_t___admin___page_ad4d8edcfbf3023f7f18a6d188adaf99c_cgraph_org.svg" target="_base">
           <rect id="button" ry="5" rx="5" y="6" x="6" height="38" width="38"
                fill="#f2f5e9" fill-opacity="0.5" stroke="#606060" stroke-width="1.0"/>
           <path id="arrow"
             d="M 11.500037,31.436501 C 11.940474,20.09759 22.043105,11.32322 32.158766,21.979434 L 37.068811,17.246167 C 37.068811,17.246167 37.088388,32 37.088388,32 L 22.160133,31.978069 C 22.160133,31.978069 26.997745,27.140456 26.997745,27.140456 C 18.528582,18.264221 13.291696,25.230495 11.500037,31.436501 z"
             style="fill:#404040;"/>
          </a>
         </g>
        </svg>
</svg>
