<?xml version="1.0" encoding="UTF-8" standalone="no"?>
<!DOCTYPE svg PUBLIC "-//W3C//DTD SVG 1.1//EN"
 "http://www.w3.org/Graphics/SVG/1.1/DTD/svg11.dtd">
<!-- Generated by graphviz version 2.30.1 (20130221.2233)
 -->
<!-- Title: CTCTOAuth\getRequestToken Pages: 1 -->
<svg width="510pt" height="104pt"
 viewBox="0.00 0.00 510.00 104.00" xmlns="http://www.w3.org/2000/svg" xmlns:xlink="http://www.w3.org/1999/xlink">
<g id="graph0" class="graph" transform="scale(1 1) rotate(0) translate(4 100)">
<title>CTCTOAuth\getRequestToken</title>
<polygon fill="white" stroke="white" points="-4,5 -4,-100 507,-100 507,5 -4,5"/>
<!-- Node1 -->
<g id="node1" class="node"><title>Node1</title>
<polygon fill="#bfbfbf" stroke="black" points="0.277832,-22 0.277832,-42 151.722,-42 151.722,-22 0.277832,-22"/>
<text text-anchor="middle" x="76" y="-28" font-family="Helvetica,sans-Serif" font-size="10.00">CTCTOAuth\getRequestToken</text>
</g>
<!-- Node2 -->
<g id="node2" class="node"><title>Node2</title>
<g id="a_node2"><a xlink:href="class_o_auth_request.html#afe9d0f6cb8e0dadb1c0faeea9ecafe45" target="_top" xlink:title="pretty much a helper function to set up the request ">
<polygon fill="white" stroke="black" points="188.079,-39 188.079,-71 341.921,-71 341.921,-39 188.079,-39"/>
<text text-anchor="start" x="196.079" y="-57" font-family="Helvetica,sans-Serif" font-size="10.00">OAuthRequest\from_consumer</text>
<text text-anchor="middle" x="265" y="-45" font-family="Helvetica,sans-Serif" font-size="10.00">_and_token</text>
</a>
</g>
</g>
<!-- Node1&#45;&gt;Node2 -->
<g id="edge1" class="edge"><title>Node1&#45;&gt;Node2</title>
<path fill="none" stroke="midnightblue" d="M151.983,-41.2225C160.454,-42.2644 169.137,-43.3324 177.738,-44.3903"/>
<polygon fill="midnightblue" stroke="midnightblue" points="177.427,-47.8783 187.78,-45.6253 178.282,-40.9307 177.427,-47.8783"/>
</g>
<!-- Node5 -->
<g id="node5" class="node"><title>Node5</title>
<g id="a_node5"><a xlink:href="class_c_t_c_t_o_auth.html#ab7c2df8064e085ae8f2ee50a1aef5697" target="_top" xlink:title="CTCTOAuth\\httpRequest">
<polygon fill="white" stroke="black" points="201.231,-0 201.231,-20 328.769,-20 328.769,-0 201.231,-0"/>
<text text-anchor="middle" x="265" y="-6" font-family="Helvetica,sans-Serif" font-size="10.00">CTCTOAuth\httpRequest</text>
</a>
</g>
</g>
<!-- Node1&#45;&gt;Node5 -->
<g id="edge4" class="edge"><title>Node1&#45;&gt;Node5</title>
<path fill="none" stroke="midnightblue" d="M151.983,-23.1785C164.811,-21.6693 178.124,-20.1031 190.902,-18.5997"/>
<polygon fill="midnightblue" stroke="midnightblue" points="191.494,-22.0544 201.016,-17.4099 190.676,-15.1023 191.494,-22.0544"/>
</g>
<!-- Node3 -->
<g id="node3" class="node"><title>Node3</title>
<g id="a_node3"><a xlink:href="class_o_auth_request.html#ae544b1c10b82d5a82dcc259064763420" target="_top" xlink:title="util function: current nonce ">
<polygon fill="white" stroke="black" points="378.074,-64 378.074,-96 501.926,-96 501.926,-64 378.074,-64"/>
<text text-anchor="start" x="386.074" y="-82" font-family="Helvetica,sans-Serif" font-size="10.00">OAuthRequest\generate</text>
<text text-anchor="middle" x="440" y="-70" font-family="Helvetica,sans-Serif" font-size="10.00">_nonce</text>
</a>
</g>
</g>
<!-- Node2&#45;&gt;Node3 -->
<g id="edge2" class="edge"><title>Node2&#45;&gt;Node3</title>
<path fill="none" stroke="midnightblue" d="M342.132,-66.0017C350.733,-67.2446 359.472,-68.5075 368.003,-69.7404"/>
<polygon fill="midnightblue" stroke="midnightblue" points="367.504,-73.2045 377.902,-71.1708 368.506,-66.2765 367.504,-73.2045"/>
</g>
<!-- Node4 -->
<g id="node4" class="node"><title>Node4</title>
<g id="a_node4"><a xlink:href="class_o_auth_request.html#adfc6b936799f705d9a4442961a26e8cb" target="_top" xlink:title="util function: current timestamp ">
<polygon fill="white" stroke="black" points="378.074,-13 378.074,-45 501.926,-45 501.926,-13 378.074,-13"/>
<text text-anchor="start" x="386.074" y="-31" font-family="Helvetica,sans-Serif" font-size="10.00">OAuthRequest\generate</text>
<text text-anchor="middle" x="440" y="-19" font-family="Helvetica,sans-Serif" font-size="10.00">_timestamp</text>
</a>
</g>
</g>
<!-- Node2&#45;&gt;Node4 -->
<g id="edge3" class="edge"><title>Node2&#45;&gt;Node4</title>
<path fill="none" stroke="midnightblue" d="M342.132,-43.5582C350.733,-42.2656 359.472,-40.9522 368.003,-39.67"/>
<polygon fill="midnightblue" stroke="midnightblue" points="368.533,-43.1298 377.902,-38.1823 367.493,-36.2075 368.533,-43.1298"/>
</g>
</g>
</svg>
