<?xml version="1.0" encoding="UTF-8" standalone="no"?>
<!DOCTYPE svg PUBLIC "-//W3C//DTD SVG 1.1//EN"
 "http://www.w3.org/Graphics/SVG/1.1/DTD/svg11.dtd">
<!-- Generated by graphviz version 2.30.1 (20130221.2233)
 -->
<!-- Title: CTCT_EventSpot\single Pages: 1 -->
<svg width="338pt" height="67pt"
 viewBox="0.00 0.00 338.00 67.00" xmlns="http://www.w3.org/2000/svg" xmlns:xlink="http://www.w3.org/1999/xlink">
<g id="graph0" class="graph" transform="scale(1 1) rotate(0) translate(4 63)">
<title>CTCT_EventSpot\single</title>
<polygon fill="white" stroke="white" points="-4,5 -4,-63 335,-63 335,5 -4,5"/>
<!-- Node1 -->
<g id="node1" class="node"><title>Node1</title>
<polygon fill="#bfbfbf" stroke="black" points="0.364746,-19 0.364746,-39 123.635,-39 123.635,-19 0.364746,-19"/>
<text text-anchor="middle" x="62" y="-25" font-family="Helvetica,sans-Serif" font-size="10.00">CTCT_EventSpot\single</text>
</g>
<!-- Node2 -->
<g id="node2" class="node"><title>Node2</title>
<g id="a_node2"><a xlink:href="class_c_t_c_t___event_spot.html#a1bd895d44467fed9e47de6d3ccecab55" target="_top" xlink:title="CTCT_EventSpot\\singleEvent">
<polygon fill="white" stroke="black" points="170.579,-39 170.579,-59 319.421,-59 319.421,-39 170.579,-39"/>
<text text-anchor="middle" x="245" y="-45" font-family="Helvetica,sans-Serif" font-size="10.00">CTCT_EventSpot\singleEvent</text>
</a>
</g>
</g>
<!-- Node1&#45;&gt;Node2 -->
<g id="edge1" class="edge"><title>Node1&#45;&gt;Node2</title>
<path fill="none" stroke="midnightblue" d="M123.774,-35.7153C135.488,-37.0097 147.95,-38.3867 160.245,-39.7453"/>
<polygon fill="midnightblue" stroke="midnightblue" points="160.189,-43.2603 170.513,-40.8799 160.958,-36.3027 160.189,-43.2603"/>
</g>
<!-- Node3 -->
<g id="node3" class="node"><title>Node3</title>
<g id="a_node3"><a xlink:href="class_c_t_c_t___event_spot.html#a711fa0f04096c6add60f903b613a4945" target="_top" xlink:title="Show the details of a single registrant. ">
<polygon fill="white" stroke="black" points="160.577,-0 160.577,-20 329.423,-20 329.423,-0 160.577,-0"/>
<text text-anchor="middle" x="245" y="-6" font-family="Helvetica,sans-Serif" font-size="10.00">CTCT_EventSpot\singleRegistrant</text>
</a>
</g>
</g>
<!-- Node1&#45;&gt;Node3 -->
<g id="edge2" class="edge"><title>Node1&#45;&gt;Node3</title>
<path fill="none" stroke="midnightblue" d="M123.774,-22.6204C132.355,-21.7196 141.337,-20.7768 150.361,-19.8295"/>
<polygon fill="midnightblue" stroke="midnightblue" points="150.968,-23.2851 160.548,-18.7602 150.237,-16.3234 150.968,-23.2851"/>
</g>
</g>
</svg>
