<?xml version="1.0" encoding="UTF-8" standalone="no"?>
<!DOCTYPE svg PUBLIC "-//W3C//DTD SVG 1.1//EN"
 "http://www.w3.org/Graphics/SVG/1.1/DTD/svg11.dtd">
<!-- Generated by graphviz version 2.30.1 (20130221.2233)
 -->
<!-- Title: CTCT_Admin_Campaigns\getTitle Pages: 1 -->
<svg width="322pt" height="67pt"
 viewBox="0.00 0.00 322.00 67.00" xmlns="http://www.w3.org/2000/svg" xmlns:xlink="http://www.w3.org/1999/xlink">
<g id="graph0" class="graph" transform="scale(1 1) rotate(0) translate(4 63)">
<title>CTCT_Admin_Campaigns\getTitle</title>
<polygon fill="white" stroke="white" points="-4,5 -4,-63 319,-63 319,5 -4,5"/>
<!-- Node1 -->
<g id="node1" class="node"><title>Node1</title>
<polygon fill="#bfbfbf" stroke="black" points="0.645508,-13 0.645508,-45 133.354,-45 133.354,-13 0.645508,-13"/>
<text text-anchor="start" x="8.64551" y="-31" font-family="Helvetica,sans-Serif" font-size="10.00">CTCT_Admin_Campaigns</text>
<text text-anchor="middle" x="67" y="-19" font-family="Helvetica,sans-Serif" font-size="10.00">\getTitle</text>
</g>
<!-- Node2 -->
<g id="node2" class="node"><title>Node2</title>
<g id="a_node2"><a xlink:href="class_c_t_c_t___admin___page.html#a3022d3649afef42fe8a14b1f34f50a11" target="_top" xlink:title="CTCT_Admin_Page\\isEdit">
<polygon fill="white" stroke="black" points="175.643,-39 175.643,-59 308.357,-59 308.357,-39 175.643,-39"/>
<text text-anchor="middle" x="242" y="-45" font-family="Helvetica,sans-Serif" font-size="10.00">CTCT_Admin_Page\isEdit</text>
</a>
</g>
</g>
<!-- Node1&#45;&gt;Node2 -->
<g id="edge1" class="edge"><title>Node1&#45;&gt;Node2</title>
<path fill="none" stroke="midnightblue" d="M133.404,-36.5611C143.845,-37.7683 154.724,-39.0259 165.378,-40.2576"/>
<polygon fill="midnightblue" stroke="midnightblue" points="165.168,-43.7565 175.504,-41.4282 165.972,-36.8028 165.168,-43.7565"/>
</g>
<!-- Node3 -->
<g id="node3" class="node"><title>Node3</title>
<g id="a_node3"><a xlink:href="class_c_t_c_t___admin___page.html#a79cac52351cd72e5cb0269ad98ac9a82" target="_top" xlink:title="CTCT_Admin_Page\\isSingle">
<polygon fill="white" stroke="black" points="170.36,-0 170.36,-20 313.64,-20 313.64,-0 170.36,-0"/>
<text text-anchor="middle" x="242" y="-6" font-family="Helvetica,sans-Serif" font-size="10.00">CTCT_Admin_Page\isSingle</text>
</a>
</g>
</g>
<!-- Node1&#45;&gt;Node3 -->
<g id="edge2" class="edge"><title>Node1&#45;&gt;Node3</title>
<path fill="none" stroke="midnightblue" d="M133.404,-21.8169C142.164,-20.8549 151.231,-19.8591 160.215,-18.8723"/>
<polygon fill="midnightblue" stroke="midnightblue" points="160.745,-22.3353 170.303,-17.7644 159.98,-15.3771 160.745,-22.3353"/>
</g>
</g>
</svg>
