<?xml version="1.0" encoding="UTF-8" standalone="no"?>
<!DOCTYPE svg PUBLIC "-//W3C//DTD SVG 1.1//EN"
 "http://www.w3.org/Graphics/SVG/1.1/DTD/svg11.dtd">
<!-- Generated by graphviz version 2.30.1 (20130221.2233)
 -->
<!-- Title: JsonLoader\getBounces Pages: 1 -->
<svg width="320pt" height="91pt"
 viewBox="0.00 0.00 320.00 91.00" xmlns="http://www.w3.org/2000/svg" xmlns:xlink="http://www.w3.org/1999/xlink">
<g id="graph0" class="graph" transform="scale(1 1) rotate(0) translate(4 87)">
<title>JsonLoader\getBounces</title>
<polygon fill="white" stroke="white" points="-4,5 -4,-87 317,-87 317,5 -4,5"/>
<!-- Node1 -->
<g id="node1" class="node"><title>Node1</title>
<polygon fill="#bfbfbf" stroke="black" points="0.0717773,-31 0.0717773,-51 123.928,-51 123.928,-31 0.0717773,-31"/>
<text text-anchor="middle" x="62" y="-37" font-family="Helvetica,sans-Serif" font-size="10.00">JsonLoader\getBounces</text>
</g>
<!-- Node2 -->
<g id="node2" class="node"><title>Node2</title>
<g id="a_node2"><a xlink:href="class_campaign_tracking_service_unit_test.html#a05ebd418f2f98bdddb376327bd8a3ffd" target="_top" xlink:title="CampaignTrackingServiceUnit\lTest\\testGetBounces">
<polygon fill="white" stroke="black" points="160.656,-51 160.656,-83 311.344,-83 311.344,-51 160.656,-51"/>
<text text-anchor="start" x="168.656" y="-69" font-family="Helvetica,sans-Serif" font-size="10.00">CampaignTrackingServiceUnit</text>
<text text-anchor="middle" x="236" y="-57" font-family="Helvetica,sans-Serif" font-size="10.00">Test\testGetBounces</text>
</a>
</g>
</g>
<!-- Node1&#45;&gt;Node2 -->
<g id="edge1" class="edge"><title>Node1&#45;&gt;Node2</title>
<path fill="none" stroke="midnightblue" d="M134.204,-51.7634C142.89,-53.0764 151.783,-54.4208 160.516,-55.7407"/>
<polygon fill="midnightblue" stroke="midnightblue" points="134.536,-48.2739 124.125,-50.2398 133.49,-55.1953 134.536,-48.2739"/>
</g>
<!-- Node3 -->
<g id="node3" class="node"><title>Node3</title>
<g id="a_node3"><a xlink:href="class_contact_tracking_service_unit_test.html#a01411c033fd1e92bc66fe74776fdeeaf" target="_top" xlink:title="ContactTrackingServiceUnit\lTest\\testGetBounces">
<polygon fill="white" stroke="black" points="166.215,-0 166.215,-32 305.785,-32 305.785,-0 166.215,-0"/>
<text text-anchor="start" x="174.215" y="-18" font-family="Helvetica,sans-Serif" font-size="10.00">ContactTrackingServiceUnit</text>
<text text-anchor="middle" x="236" y="-6" font-family="Helvetica,sans-Serif" font-size="10.00">Test\testGetBounces</text>
</a>
</g>
</g>
<!-- Node1&#45;&gt;Node3 -->
<g id="edge2" class="edge"><title>Node1&#45;&gt;Node3</title>
<path fill="none" stroke="midnightblue" d="M134.155,-30.6577C144.739,-29.1194 155.631,-27.5362 166.165,-26.005"/>
<polygon fill="midnightblue" stroke="midnightblue" points="133.518,-27.2135 124.125,-32.1155 134.525,-34.1407 133.518,-27.2135"/>
</g>
</g>
</svg>
