<?xml version="1.0" encoding="UTF-8" standalone="no"?>
<!DOCTYPE svg PUBLIC "-//W3C//DTD SVG 1.1//EN"
 "http://www.w3.org/Graphics/SVG/1.1/DTD/svg11.dtd">
<!-- Generated by graphviz version 2.30.1 (20130221.2233)
 -->
<!-- Title: OAuthServer\fetch_request_token Pages: 1 -->
<svg width="522pt" height="145pt"
 viewBox="0.00 0.00 522.00 145.00" xmlns="http://www.w3.org/2000/svg" xmlns:xlink="http://www.w3.org/1999/xlink">
<g id="graph0" class="graph" transform="scale(1 1) rotate(0) translate(4 141)">
<title>OAuthServer\fetch_request_token</title>
<polygon fill="white" stroke="white" points="-4,5 -4,-141 519,-141 519,5 -4,5"/>
<!-- Node1 -->
<g id="node1" class="node"><title>Node1</title>
<polygon fill="#bfbfbf" stroke="black" points="0.411621,-33 0.411621,-65 137.588,-65 137.588,-33 0.411621,-33"/>
<text text-anchor="start" x="8.41162" y="-51" font-family="Helvetica,sans-Serif" font-size="10.00">OAuthServer\fetch_request</text>
<text text-anchor="middle" x="69" y="-39" font-family="Helvetica,sans-Serif" font-size="10.00">_token</text>
</g>
<!-- Node2 -->
<g id="node2" class="node"><title>Node2</title>
<g id="a_node2"><a xlink:href="class_o_auth_server.html#a42f0158a9a4c166bc9372054626d93ca" target="_top" xlink:title="all&#45;in&#45;one function to check the signature on a request should guess the signature method appropriate...">
<polygon fill="white" stroke="black" points="174.298,-78 174.298,-98 323.702,-98 323.702,-78 174.298,-78"/>
<text text-anchor="middle" x="249" y="-84" font-family="Helvetica,sans-Serif" font-size="10.00">OAuthServer\check_signature</text>
</a>
</g>
</g>
<!-- Node1&#45;&gt;Node2 -->
<g id="edge1" class="edge"><title>Node1&#45;&gt;Node2</title>
<path fill="none" stroke="midnightblue" d="M137.802,-63.8555C155.788,-67.7963 175.001,-72.0058 192.263,-75.788"/>
<polygon fill="midnightblue" stroke="midnightblue" points="191.66,-79.2389 202.178,-77.9603 193.159,-72.4011 191.66,-79.2389"/>
</g>
<!-- Node6 -->
<g id="node6" class="node"><title>Node6</title>
<g id="a_node6"><a xlink:href="class_o_auth_server.html#adc55d70d9f093aab5354db25f529ed5b" target="_top" xlink:title="try to find the consumer for the provided request&#39;s consumer key ">
<polygon fill="white" stroke="black" points="179.025,-39 179.025,-59 318.975,-59 318.975,-39 179.025,-39"/>
<text text-anchor="middle" x="249" y="-45" font-family="Helvetica,sans-Serif" font-size="10.00">OAuthServer\get_consumer</text>
</a>
</g>
</g>
<!-- Node1&#45;&gt;Node6 -->
<g id="edge5" class="edge"><title>Node1&#45;&gt;Node6</title>
<path fill="none" stroke="midnightblue" d="M137.802,-49C147.897,-49 158.378,-49 168.684,-49"/>
<polygon fill="midnightblue" stroke="midnightblue" points="168.911,-52.5001 178.911,-49 168.911,-45.5001 168.911,-52.5001"/>
</g>
<!-- Node7 -->
<g id="node7" class="node"><title>Node7</title>
<g id="a_node7"><a xlink:href="class_o_auth_server.html#af40ad9ca9242a0c3cd2b66c49b547945" target="_top" xlink:title="version 1 ">
<polygon fill="white" stroke="black" points="184.86,-0 184.86,-20 313.14,-20 313.14,-0 184.86,-0"/>
<text text-anchor="middle" x="249" y="-6" font-family="Helvetica,sans-Serif" font-size="10.00">OAuthServer\get_version</text>
</a>
</g>
</g>
<!-- Node1&#45;&gt;Node7 -->
<g id="edge6" class="edge"><title>Node1&#45;&gt;Node7</title>
<path fill="none" stroke="midnightblue" d="M137.802,-34.1445C155.788,-30.2037 175.001,-25.9942 192.263,-22.212"/>
<polygon fill="midnightblue" stroke="midnightblue" points="193.159,-25.5989 202.178,-20.0397 191.66,-18.7611 193.159,-25.5989"/>
</g>
<!-- Node3 -->
<g id="node3" class="node"><title>Node3</title>
<g id="a_node3"><a xlink:href="class_o_auth_server.html#a4485cb3ffa98de6c0dc513519017dcfb" target="_top" xlink:title="check that the nonce is not repeated ">
<polygon fill="white" stroke="black" points="369.244,-117 369.244,-137 504.756,-137 504.756,-117 369.244,-117"/>
<text text-anchor="middle" x="437" y="-123" font-family="Helvetica,sans-Serif" font-size="10.00">OAuthServer\check_nonce</text>
</a>
</g>
</g>
<!-- Node2&#45;&gt;Node3 -->
<g id="edge2" class="edge"><title>Node2&#45;&gt;Node3</title>
<path fill="none" stroke="midnightblue" d="M297.9,-98.0435C322.416,-103.184 352.449,-109.481 378.239,-114.889"/>
<polygon fill="midnightblue" stroke="midnightblue" points="377.757,-118.364 388.263,-116.991 379.194,-111.513 377.757,-118.364"/>
</g>
<!-- Node4 -->
<g id="node4" class="node"><title>Node4</title>
<g id="a_node4"><a xlink:href="class_o_auth_server.html#a46aafda0ef87fbb52e32958c33714a6d" target="_top" xlink:title="check that the timestamp is new enough ">
<polygon fill="white" stroke="black" points="359.806,-78 359.806,-98 514.194,-98 514.194,-78 359.806,-78"/>
<text text-anchor="middle" x="437" y="-84" font-family="Helvetica,sans-Serif" font-size="10.00">OAuthServer\check_timestamp</text>
</a>
</g>
</g>
<!-- Node2&#45;&gt;Node4 -->
<g id="edge3" class="edge"><title>Node2&#45;&gt;Node4</title>
<path fill="none" stroke="midnightblue" d="M323.779,-88C332.236,-88 340.914,-88 349.517,-88"/>
<polygon fill="midnightblue" stroke="midnightblue" points="349.565,-91.5001 359.565,-88 349.565,-84.5001 349.565,-91.5001"/>
</g>
<!-- Node5 -->
<g id="node5" class="node"><title>Node5</title>
<g id="a_node5"><a xlink:href="class_o_auth_server.html#ab3b0e3026dea9faacb8d56cbb2274103" target="_top" xlink:title="figure out the signature with some defaults ">
<polygon fill="white" stroke="black" points="368.409,-27 368.409,-59 505.591,-59 505.591,-27 368.409,-27"/>
<text text-anchor="start" x="376.409" y="-45" font-family="Helvetica,sans-Serif" font-size="10.00">OAuthServer\get_signature</text>
<text text-anchor="middle" x="437" y="-33" font-family="Helvetica,sans-Serif" font-size="10.00">_method</text>
</a>
</g>
</g>
<!-- Node2&#45;&gt;Node5 -->
<g id="edge4" class="edge"><title>Node2&#45;&gt;Node5</title>
<path fill="none" stroke="midnightblue" d="M291.742,-77.9011C311.798,-73.0489 336.479,-67.0777 359.72,-61.4549"/>
<polygon fill="midnightblue" stroke="midnightblue" points="360.677,-64.8243 369.574,-59.0708 359.031,-58.0206 360.677,-64.8243"/>
</g>
</g>
</svg>
