<?xml version="1.0" encoding="UTF-8" standalone="no"?>
<!DOCTYPE svg PUBLIC "-//W3C//DTD SVG 1.1//EN"
 "http://www.w3.org/Graphics/SVG/1.1/DTD/svg11.dtd">
<!-- Generated by graphviz version 2.30.1 (20130221.2233)
 -->
<!-- Title: ConstantContact\__construct Pages: 1 -->
<svg width="504pt" height="28pt"
 viewBox="0.00 0.00 504.00 28.00" xmlns="http://www.w3.org/2000/svg" xmlns:xlink="http://www.w3.org/1999/xlink">
<g id="graph0" class="graph" transform="scale(1 1) rotate(0) translate(4 24)">
<title>ConstantContact\__construct</title>
<polygon fill="white" stroke="white" points="-4,5 -4,-24 501,-24 501,5 -4,5"/>
<!-- Node1 -->
<g id="node1" class="node"><title>Node1</title>
<polygon fill="#bfbfbf" stroke="black" points="0.52002,-0 0.52002,-20 145.48,-20 145.48,-0 0.52002,-0"/>
<text text-anchor="middle" x="73" y="-6" font-family="Helvetica,sans-Serif" font-size="10.00">ConstantContact\__construct</text>
</g>
<!-- Node2 -->
<g id="node2" class="node"><title>Node2</title>
<g id="a_node2"><a xlink:href="class_c_t_c_t_exception.html#adc8307ec7d7a2c730b0dac678d0e7fcb" target="_top" xlink:title="CTCTException\\generateError">
<polygon fill="white" stroke="black" points="182.473,-0 182.473,-20 333.527,-20 333.527,-0 182.473,-0"/>
<text text-anchor="middle" x="258" y="-6" font-family="Helvetica,sans-Serif" font-size="10.00">CTCTException\generateError</text>
</a>
</g>
</g>
<!-- Node1&#45;&gt;Node2 -->
<g id="edge1" class="edge"><title>Node1&#45;&gt;Node2</title>
<path fill="none" stroke="midnightblue" d="M145.539,-10C154.279,-10 163.275,-10 172.185,-10"/>
<polygon fill="midnightblue" stroke="midnightblue" points="172.192,-13.5001 182.192,-10 172.192,-6.5001 172.192,-13.5001"/>
</g>
<!-- Node3 -->
<g id="node3" class="node"><title>Node3</title>
<g id="a_node3"><a xlink:href="class_c_t_c_t_exception.html#a6a86531406328bbd2a6c6252b7fb3a70" target="_top" xlink:title="CTCTException\\logError">
<polygon fill="white" stroke="black" points="370.54,-0 370.54,-20 495.46,-20 495.46,-0 370.54,-0"/>
<text text-anchor="middle" x="433" y="-6" font-family="Helvetica,sans-Serif" font-size="10.00">CTCTException\logError</text>
</a>
</g>
</g>
<!-- Node2&#45;&gt;Node3 -->
<g id="edge2" class="edge"><title>Node2&#45;&gt;Node3</title>
<path fill="none" stroke="midnightblue" d="M333.623,-10C342.431,-10 351.406,-10 360.174,-10"/>
<polygon fill="midnightblue" stroke="midnightblue" points="360.349,-13.5001 370.349,-10 360.349,-6.5001 360.349,-13.5001"/>
</g>
</g>
</svg>
