<?xml version="1.0" encoding="UTF-8" standalone="no"?>
<!DOCTYPE svg PUBLIC "-//W3C//DTD SVG 1.1//EN"
 "http://www.w3.org/Graphics/SVG/1.1/DTD/svg11.dtd">
<!-- Generated by graphviz version 2.30.1 (20130221.2233)
 -->
<!-- Title: KWSConstantContact\getAll Pages: 1 -->
<svg width="278pt" height="193pt"
 viewBox="0.00 0.00 278.00 193.00" xmlns="http://www.w3.org/2000/svg" xmlns:xlink="http://www.w3.org/1999/xlink">
<g id="graph0" class="graph" transform="scale(1 1) rotate(0) translate(4 189)">
<title>KWSConstantContact\getAll</title>
<polygon fill="white" stroke="white" points="-4,5 -4,-189 275,-189 275,5 -4,5"/>
<!-- Node1 -->
<g id="node1" class="node"><title>Node1</title>
<polygon fill="#bfbfbf" stroke="black" points="0.367188,-76 0.367188,-108 113.633,-108 113.633,-76 0.367188,-76"/>
<text text-anchor="start" x="8.36719" y="-94" font-family="Helvetica,sans-Serif" font-size="10.00">KWSConstantContact</text>
<text text-anchor="middle" x="57" y="-82" font-family="Helvetica,sans-Serif" font-size="10.00">\getAll</text>
</g>
<!-- Node2 -->
<g id="node2" class="node"><title>Node2</title>
<g id="a_node2"><a xlink:href="class_k_w_s_constant_contact.html#a53e2459f73db9e1e949ec309ddf419e8" target="_top" xlink:title="Get all contacts &#160;KWSConstantContact::getAll() ">
<polygon fill="white" stroke="black" points="153.367,-153 153.367,-185 266.633,-185 266.633,-153 153.367,-153"/>
<text text-anchor="start" x="161.367" y="-171" font-family="Helvetica,sans-Serif" font-size="10.00">KWSConstantContact</text>
<text text-anchor="middle" x="210" y="-159" font-family="Helvetica,sans-Serif" font-size="10.00">\getAllContacts</text>
</a>
</g>
</g>
<!-- Node1&#45;&gt;Node2 -->
<g id="edge1" class="edge"><title>Node1&#45;&gt;Node2</title>
<path fill="none" stroke="midnightblue" d="M94.3444,-113.148C111.101,-122.638 131.366,-133.753 150,-143 156.718,-146.334 163.961,-149.703 170.994,-152.862"/>
<polygon fill="midnightblue" stroke="midnightblue" points="95.8499,-109.978 85.4291,-108.066 92.3829,-116.059 95.8499,-109.978"/>
</g>
<!-- Node3 -->
<g id="node3" class="node"><title>Node3</title>
<g id="a_node3"><a xlink:href="class_k_w_s_constant_contact.html#af149aa7a8e4eef27a22d0d6ebe70cd95" target="_top" xlink:title="Get all contact sends &#160;KWSConstantContact::getAll() ">
<polygon fill="white" stroke="black" points="153.367,-102 153.367,-134 266.633,-134 266.633,-102 153.367,-102"/>
<text text-anchor="start" x="161.367" y="-120" font-family="Helvetica,sans-Serif" font-size="10.00">KWSConstantContact</text>
<text text-anchor="middle" x="210" y="-108" font-family="Helvetica,sans-Serif" font-size="10.00">\getAllContactSends</text>
</a>
</g>
</g>
<!-- Node1&#45;&gt;Node3 -->
<g id="edge2" class="edge"><title>Node1&#45;&gt;Node3</title>
<path fill="none" stroke="midnightblue" d="M123.875,-103.343C133.647,-105.025 143.639,-106.746 153.18,-108.389"/>
<polygon fill="midnightblue" stroke="midnightblue" points="124.247,-99.8553 113.798,-101.608 123.059,-106.754 124.247,-99.8553"/>
</g>
<!-- Node4 -->
<g id="node4" class="node"><title>Node4</title>
<g id="a_node4"><a xlink:href="class_k_w_s_constant_contact.html#a9a4f843ebc1393bf55c4e7ac63a2d197" target="_top" xlink:title="Get all email campaigns &#160;KWSConstantContact::getAll() ">
<polygon fill="white" stroke="black" points="150.311,-51 150.311,-83 269.689,-83 269.689,-51 150.311,-51"/>
<text text-anchor="start" x="158.311" y="-69" font-family="Helvetica,sans-Serif" font-size="10.00">KWSConstantContact</text>
<text text-anchor="middle" x="210" y="-57" font-family="Helvetica,sans-Serif" font-size="10.00">\getAllEmailCampaigns</text>
</a>
</g>
</g>
<!-- Node1&#45;&gt;Node4 -->
<g id="edge3" class="edge"><title>Node1&#45;&gt;Node4</title>
<path fill="none" stroke="midnightblue" d="M123.929,-81.0846C132.652,-79.6404 141.548,-78.1676 150.141,-76.7449"/>
<polygon fill="midnightblue" stroke="midnightblue" points="123.092,-77.6755 113.798,-82.762 124.235,-84.5815 123.092,-77.6755"/>
</g>
<!-- Node5 -->
<g id="node5" class="node"><title>Node5</title>
<g id="a_node5"><a xlink:href="class_k_w_s_constant_contact.html#a3116a6d3903a586cf19f8837dcdfbdfa" target="_top" xlink:title="Get all lists &#160;KWSConstantContact::getAll() ">
<polygon fill="white" stroke="black" points="153.367,-0 153.367,-32 266.633,-32 266.633,-0 153.367,-0"/>
<text text-anchor="start" x="161.367" y="-18" font-family="Helvetica,sans-Serif" font-size="10.00">KWSConstantContact</text>
<text text-anchor="middle" x="210" y="-6" font-family="Helvetica,sans-Serif" font-size="10.00">\getAllLists</text>
</a>
</g>
</g>
<!-- Node1&#45;&gt;Node5 -->
<g id="edge4" class="edge"><title>Node1&#45;&gt;Node5</title>
<path fill="none" stroke="midnightblue" d="M95.1352,-70.909C111.753,-61.7078 131.689,-50.9915 150,-42 156.832,-38.6451 164.198,-35.238 171.331,-32.0432"/>
<polygon fill="midnightblue" stroke="midnightblue" points="93.3086,-67.9201 86.276,-75.8443 96.7153,-74.0352 93.3086,-67.9201"/>
</g>
</g>
</svg>
