<?xml version="1.0" encoding="UTF-8" standalone="no"?>
<!DOCTYPE svg PUBLIC "-//W3C//DTD SVG 1.1//EN"
 "http://www.w3.org/Graphics/SVG/1.1/DTD/svg11.dtd">
<!-- Generated by graphviz version 2.30.1 (20130221.2233)
 -->
<!-- Title: PaymentOption Pages: 1 -->
<svg width="290pt" height="88pt"
 viewBox="0.00 0.00 290.00 88.00" xmlns="http://www.w3.org/2000/svg" xmlns:xlink="http://www.w3.org/1999/xlink">
<g id="graph0" class="graph" transform="scale(1 1) rotate(0) translate(4 84)">
<title>PaymentOption</title>
<polygon fill="white" stroke="white" points="-4,5 -4,-84 287,-84 287,5 -4,5"/>
<!-- Node1 -->
<g id="node1" class="node"><title>Node1</title>
<polygon fill="#bfbfbf" stroke="black" points="96.5371,-59 96.5371,-79 181.463,-79 181.463,-59 96.5371,-59"/>
<text text-anchor="middle" x="139" y="-65" font-family="Helvetica,sans-Serif" font-size="10.00">PaymentOption</text>
</g>
<!-- Node2 -->
<g id="node2" class="node"><title>Node2</title>
<g id="a_node2"><a xlink:href="class_check_payment.html" target="_top" xlink:title="CheckPayment">
<polygon fill="white" stroke="black" points="-0.903809,-1 -0.903809,-21 82.9038,-21 82.9038,-1 -0.903809,-1"/>
<text text-anchor="middle" x="41" y="-7" font-family="Helvetica,sans-Serif" font-size="10.00">CheckPayment</text>
</a>
</g>
</g>
<!-- Node1&#45;&gt;Node2 -->
<g id="edge1" class="edge"><title>Node1&#45;&gt;Node2</title>
<path fill="none" stroke="midnightblue" d="M114.013,-53.7215C96.0356,-43.4489 72.3304,-29.9031 56.8816,-21.0752"/>
<polygon fill="midnightblue" stroke="midnightblue" points="112.398,-56.8302 122.817,-58.7527 115.871,-50.7524 112.398,-56.8302"/>
</g>
<!-- Node3 -->
<g id="node3" class="node"><title>Node3</title>
<g id="a_node3"><a xlink:href="class_door_payment.html" target="_top" xlink:title="DoorPayment">
<polygon fill="white" stroke="black" points="100.431,-1 100.431,-21 177.569,-21 177.569,-1 100.431,-1"/>
<text text-anchor="middle" x="139" y="-7" font-family="Helvetica,sans-Serif" font-size="10.00">DoorPayment</text>
</a>
</g>
</g>
<!-- Node1&#45;&gt;Node3 -->
<g id="edge2" class="edge"><title>Node1&#45;&gt;Node3</title>
<path fill="none" stroke="midnightblue" d="M139,-48.7065C139,-39.3384 139,-28.5262 139,-21.0752"/>
<polygon fill="midnightblue" stroke="midnightblue" points="135.5,-48.7527 139,-58.7527 142.5,-48.7528 135.5,-48.7527"/>
</g>
<!-- Node4 -->
<g id="node4" class="node"><title>Node4</title>
<g id="a_node4"><a xlink:href="class_pay_pal_payment.html" target="_top" xlink:title="PayPalPayment">
<polygon fill="white" stroke="black" points="195.426,-1 195.426,-21 282.574,-21 282.574,-1 195.426,-1"/>
<text text-anchor="middle" x="239" y="-7" font-family="Helvetica,sans-Serif" font-size="10.00">PayPalPayment</text>
</a>
</g>
</g>
<!-- Node1&#45;&gt;Node4 -->
<g id="edge3" class="edge"><title>Node1&#45;&gt;Node4</title>
<path fill="none" stroke="midnightblue" d="M164.245,-53.8627C182.619,-43.5733 206.958,-29.9436 222.794,-21.0752"/>
<polygon fill="midnightblue" stroke="midnightblue" points="162.528,-50.8129 155.513,-58.7527 165.948,-56.9204 162.528,-50.8129"/>
</g>
</g>
</svg>
