<?xml version="1.0" encoding="UTF-8" standalone="no"?>
<!DOCTYPE svg PUBLIC "-//W3C//DTD SVG 1.1//EN"
 "http://www.w3.org/Graphics/SVG/1.1/DTD/svg11.dtd">
<!-- Generated by graphviz version 2.30.1 (20130221.2233)
 -->
<!-- Title: Net_DNS_RR_HINFO\Net_DNS_RR_HINFO Pages: 1 -->
<svg width="296pt" height="79pt"
 viewBox="0.00 0.00 296.00 79.00" xmlns="http://www.w3.org/2000/svg" xmlns:xlink="http://www.w3.org/1999/xlink">
<g id="graph0" class="graph" transform="scale(1 1) rotate(0) translate(4 75)">
<title>Net_DNS_RR_HINFO\Net_DNS_RR_HINFO</title>
<polygon fill="white" stroke="white" points="-4,5 -4,-75 293,-75 293,5 -4,5"/>
<!-- Node1 -->
<g id="node1" class="node"><title>Node1</title>
<polygon fill="#bfbfbf" stroke="black" points="0.374512,-16 0.374512,-48 133.625,-48 133.625,-16 0.374512,-16"/>
<text text-anchor="start" x="8.37451" y="-34" font-family="Helvetica,sans-Serif" font-size="10.00">Net_DNS_RR_HINFO\Net</text>
<text text-anchor="middle" x="67" y="-22" font-family="Helvetica,sans-Serif" font-size="10.00">_DNS_RR_HINFO</text>
</g>
<!-- Node2 -->
<g id="node2" class="node"><title>Node2</title>
<g id="a_node2"><a xlink:href="class_net___d_n_s___packet.html#a309ab56b644aaba891e687ab026e31b6" target="_top" xlink:title="DNS packet decompression method. ">
<polygon fill="white" stroke="black" points="169.862,-39 169.862,-71 288.138,-71 288.138,-39 169.862,-39"/>
<text text-anchor="start" x="177.862" y="-57" font-family="Helvetica,sans-Serif" font-size="10.00">Net_DNS_Packet\label</text>
<text text-anchor="middle" x="229" y="-45" font-family="Helvetica,sans-Serif" font-size="10.00">_extract</text>
</a>
</g>
</g>
<!-- Node1&#45;&gt;Node2 -->
<g id="edge1" class="edge"><title>Node1&#45;&gt;Node2</title>
<path fill="none" stroke="midnightblue" d="M134.002,-41.4878C142.54,-42.7151 151.298,-43.9741 159.87,-45.2063"/>
<polygon fill="midnightblue" stroke="midnightblue" points="159.426,-48.6784 169.823,-46.637 160.422,-41.7497 159.426,-48.6784"/>
</g>
<!-- Node3 -->
<g id="node3" class="node"><title>Node3</title>
<g id="a_node3"><a xlink:href="class_net___d_n_s___r_r.html#aa9da23331d654752fc950d474aa4c88d" target="_top" xlink:title="Net_DNS_RR\\rdata">
<polygon fill="white" stroke="black" points="177.094,-0 177.094,-20 280.906,-20 280.906,-0 177.094,-0"/>
<text text-anchor="middle" x="229" y="-6" font-family="Helvetica,sans-Serif" font-size="10.00">Net_DNS_RR\rdata</text>
</a>
</g>
</g>
<!-- Node1&#45;&gt;Node3 -->
<g id="edge2" class="edge"><title>Node1&#45;&gt;Node3</title>
<path fill="none" stroke="midnightblue" d="M134.002,-22.9247C144.831,-21.4358 156.013,-19.8983 166.721,-18.4259"/>
<polygon fill="midnightblue" stroke="midnightblue" points="167.385,-21.8676 176.815,-17.038 166.431,-14.9329 167.385,-21.8676"/>
</g>
</g>
</svg>
