<?xml version="1.0" encoding="UTF-8" standalone="no"?>
<!DOCTYPE svg PUBLIC "-//W3C//DTD SVG 1.1//EN"
 "http://www.w3.org/Graphics/SVG/1.1/DTD/svg11.dtd">
<!-- Generated by graphviz version 2.30.1 (20130221.2233)
 -->
<!-- Title: Net_DNS\rcodesbyval Pages: 1 -->
<svg width="452pt" height="110pt"
 viewBox="0.00 0.00 452.00 110.00" xmlns="http://www.w3.org/2000/svg" xmlns:xlink="http://www.w3.org/1999/xlink">
<g id="graph0" class="graph" transform="scale(1 1) rotate(0) translate(4 106)">
<title>Net_DNS\rcodesbyval</title>
<polygon fill="white" stroke="white" points="-4,5 -4,-106 449,-106 449,5 -4,5"/>
<!-- Node1 -->
<g id="node1" class="node"><title>Node1</title>
<polygon fill="#bfbfbf" stroke="black" points="-0.187012,-28 -0.187012,-48 114.187,-48 114.187,-28 -0.187012,-28"/>
<text text-anchor="middle" x="57" y="-34" font-family="Helvetica,sans-Serif" font-size="10.00">Net_DNS\rcodesbyval</text>
</g>
<!-- Node2 -->
<g id="node2" class="node"><title>Node2</title>
<g id="a_node2"><a xlink:href="class_net___d_n_s___r_r___t_s_i_g.html#a63aef56e97be1cf55d47cbcc584cd60f" target="_top" xlink:title="Net_DNS_RR_TSIG\\error">
<polygon fill="white" stroke="black" points="150.485,-51 150.485,-71 281.515,-71 281.515,-51 150.485,-51"/>
<text text-anchor="middle" x="216" y="-57" font-family="Helvetica,sans-Serif" font-size="10.00">Net_DNS_RR_TSIG\error</text>
</a>
</g>
</g>
<!-- Node1&#45;&gt;Node2 -->
<g id="edge1" class="edge"><title>Node1&#45;&gt;Node2</title>
<path fill="none" stroke="midnightblue" d="M124.256,-47.7063C132.892,-48.9714 141.73,-50.2662 150.339,-51.5274"/>
<polygon fill="midnightblue" stroke="midnightblue" points="124.639,-44.2251 114.237,-46.2386 123.624,-51.1512 124.639,-44.2251"/>
</g>
<!-- Node5 -->
<g id="node5" class="node"><title>Node5</title>
<g id="a_node5"><a xlink:href="class_net___d_n_s___header.html#ad28fecedeb12f40df5d22bb7bb078c1b" target="_top" xlink:title="Initializes the default values for the Header object. ">
<polygon fill="white" stroke="black" points="158.532,-0 158.532,-32 273.468,-32 273.468,-0 158.532,-0"/>
<text text-anchor="start" x="166.532" y="-18" font-family="Helvetica,sans-Serif" font-size="10.00">Net_DNS_Header\Net</text>
<text text-anchor="middle" x="216" y="-6" font-family="Helvetica,sans-Serif" font-size="10.00">_DNS_Header</text>
</a>
</g>
</g>
<!-- Node1&#45;&gt;Node5 -->
<g id="edge4" class="edge"><title>Node1&#45;&gt;Node5</title>
<path fill="none" stroke="midnightblue" d="M124.472,-28.6855C135.75,-27.1051 147.368,-25.4771 158.364,-23.9363"/>
<polygon fill="midnightblue" stroke="midnightblue" points="123.655,-25.2657 114.237,-30.1196 124.626,-32.198 123.655,-25.2657"/>
</g>
<!-- Node3 -->
<g id="node3" class="node"><title>Node3</title>
<g id="a_node3"><a xlink:href="class_net___d_n_s___r_r___t_s_i_g.html#af65963492a03361a69f7f2695e3366d4" target="_top" xlink:title="Net_DNS_RR_TSIG\\Net\l_DNS_RR_TSIG">
<polygon fill="white" stroke="black" points="318.261,-70 318.261,-102 443.739,-102 443.739,-70 318.261,-70"/>
<text text-anchor="start" x="326.261" y="-88" font-family="Helvetica,sans-Serif" font-size="10.00">Net_DNS_RR_TSIG\Net</text>
<text text-anchor="middle" x="381" y="-76" font-family="Helvetica,sans-Serif" font-size="10.00">_DNS_RR_TSIG</text>
</a>
</g>
</g>
<!-- Node2&#45;&gt;Node3 -->
<g id="edge2" class="edge"><title>Node2&#45;&gt;Node3</title>
<path fill="none" stroke="midnightblue" d="M291.812,-72.4742C300.659,-73.8312 309.612,-75.2043 318.251,-76.5292"/>
<polygon fill="midnightblue" stroke="midnightblue" points="292.305,-69.009 281.89,-70.9525 291.244,-75.9281 292.305,-69.009"/>
</g>
<!-- Node4 -->
<g id="node4" class="node"><title>Node4</title>
<g id="a_node4"><a xlink:href="class_net___d_n_s___r_r___t_s_i_g.html#a34aa917d71dd9b645ecf8d4abb104a25" target="_top" xlink:title="Net_DNS_RR_TSIG\\rr\l_rdata">
<polygon fill="white" stroke="black" points="322.712,-19 322.712,-51 439.288,-51 439.288,-19 322.712,-19"/>
<text text-anchor="start" x="330.712" y="-37" font-family="Helvetica,sans-Serif" font-size="10.00">Net_DNS_RR_TSIG\rr</text>
<text text-anchor="middle" x="381" y="-25" font-family="Helvetica,sans-Serif" font-size="10.00">_rdata</text>
</a>
</g>
</g>
<!-- Node2&#45;&gt;Node4 -->
<g id="edge3" class="edge"><title>Node2&#45;&gt;Node4</title>
<path fill="none" stroke="midnightblue" d="M289.95,-49.3638C300.85,-47.6251 311.957,-45.8535 322.479,-44.1752"/>
<polygon fill="midnightblue" stroke="midnightblue" points="289.344,-45.9162 280.02,-50.9477 290.447,-52.8288 289.344,-45.9162"/>
</g>
</g>
</svg>
