<?xml version="1.0" encoding="UTF-8" standalone="no"?>
<!DOCTYPE svg PUBLIC "-//W3C//DTD SVG 1.1//EN"
 "http://www.w3.org/Graphics/SVG/1.1/DTD/svg11.dtd">
<!-- Generated by graphviz version 2.30.1 (20130221.2233)
 -->
<!-- Title: Ctct\Components\Tracking\UnsubscribeActivity\create Pages: 1 -->
<svg width="344pt" height="91pt"
 viewBox="0.00 0.00 344.00 91.00" xmlns="http://www.w3.org/2000/svg" xmlns:xlink="http://www.w3.org/1999/xlink">
<g id="graph0" class="graph" transform="scale(1 1) rotate(0) translate(4 87)">
<title>Ctct\Components\Tracking\UnsubscribeActivity\create</title>
<polygon fill="white" stroke="white" points="-4,5 -4,-87 341,-87 341,5 -4,5"/>
<!-- Node1 -->
<g id="node1" class="node"><title>Node1</title>
<polygon fill="#bfbfbf" stroke="black" points="0.699707,-25 0.699707,-57 137.3,-57 137.3,-25 0.699707,-25"/>
<text text-anchor="start" x="8.69971" y="-43" font-family="Helvetica,sans-Serif" font-size="10.00">Ctct\Components\Tracking</text>
<text text-anchor="middle" x="69" y="-31" font-family="Helvetica,sans-Serif" font-size="10.00">\UnsubscribeActivity\create</text>
</g>
<!-- Node2 -->
<g id="node2" class="node"><title>Node2</title>
<g id="a_node2"><a xlink:href="class_ctct_1_1_services_1_1_campaign_tracking_service.html#a476d1a1d064871d5e5daf4b03477fdf9" target="_top" xlink:title="Get unsubscribes for a given campaign. ">
<polygon fill="white" stroke="black" points="174.38,-51 174.38,-83 335.62,-83 335.62,-51 174.38,-51"/>
<text text-anchor="start" x="182.38" y="-69" font-family="Helvetica,sans-Serif" font-size="10.00">Ctct\Services\CampaignTracking</text>
<text text-anchor="middle" x="255" y="-57" font-family="Helvetica,sans-Serif" font-size="10.00">Service\getUnsubscribes</text>
</a>
</g>
</g>
<!-- Node1&#45;&gt;Node2 -->
<g id="edge1" class="edge"><title>Node1&#45;&gt;Node2</title>
<path fill="none" stroke="midnightblue" d="M147.43,-51.9412C156.339,-53.2 165.434,-54.4853 174.371,-55.7481"/>
<polygon fill="midnightblue" stroke="midnightblue" points="147.861,-48.4675 137.47,-50.5338 146.882,-55.3986 147.861,-48.4675"/>
</g>
<!-- Node3 -->
<g id="node3" class="node"><title>Node3</title>
<g id="a_node3"><a xlink:href="class_ctct_1_1_services_1_1_contact_tracking_service.html#abc75d3b2f76e6148592614ccc79180fe" target="_top" xlink:title="Get unsubscribes for a given contact. ">
<polygon fill="white" stroke="black" points="179.939,-0 179.939,-32 330.061,-32 330.061,-0 179.939,-0"/>
<text text-anchor="start" x="187.939" y="-18" font-family="Helvetica,sans-Serif" font-size="10.00">Ctct\Services\ContactTracking</text>
<text text-anchor="middle" x="255" y="-6" font-family="Helvetica,sans-Serif" font-size="10.00">Service\getUnsubscribes</text>
</a>
</g>
</g>
<!-- Node1&#45;&gt;Node3 -->
<g id="edge2" class="edge"><title>Node1&#45;&gt;Node3</title>
<path fill="none" stroke="midnightblue" d="M147.575,-30.4599C158.219,-29.0137 169.128,-27.5315 179.711,-26.0936"/>
<polygon fill="midnightblue" stroke="midnightblue" points="146.908,-27.0183 137.47,-31.8329 147.85,-33.9546 146.908,-27.0183"/>
</g>
</g>
</svg>
