<?xml version="1.0" encoding="UTF-8" standalone="no"?>
<!DOCTYPE svg PUBLIC "-//W3C//DTD SVG 1.1//EN"
 "http://www.w3.org/Graphics/SVG/1.1/DTD/svg11.dtd">
<!-- Generated by graphviz version 2.30.1 (20130221.2233)
 -->
<!-- Title: Cache_WP_HTTP\r Pages: 1 -->
<svg width="474pt" height="95pt"
 viewBox="0.00 0.00 474.00 94.70" xmlns="http://www.w3.org/2000/svg" xmlns:xlink="http://www.w3.org/1999/xlink">
<g id="graph0" class="graph" transform="scale(1 1) rotate(0) translate(4 90.6979)">
<title>Cache_WP_HTTP\r</title>
<polygon fill="white" stroke="white" points="-4,5 -4,-90.6979 471,-90.6979 471,5 -4,5"/>
<!-- Node1 -->
<g id="node1" class="node"><title>Node1</title>
<polygon fill="#bfbfbf" stroke="black" points="-0.177246,-21.6979 -0.177246,-41.6979 104.177,-41.6979 104.177,-21.6979 -0.177246,-21.6979"/>
<text text-anchor="middle" x="52" y="-27.6979" font-family="Helvetica,sans-Serif" font-size="10.00">Cache_WP_HTTP\r</text>
</g>
<!-- Node2 -->
<g id="node2" class="node"><title>Node2</title>
<g id="a_node2"><a xlink:href="class_cache___w_p___h_t_t_p.html#a46a738be1b6d3b3d2c4a7ebbdd4ff6e5" target="_top" xlink:title="Cache_WP_HTTP\\flushCache">
<polygon fill="white" stroke="black" points="140.473,-66.6979 140.473,-86.6979 291.527,-86.6979 291.527,-66.6979 140.473,-66.6979"/>
<text text-anchor="middle" x="216" y="-72.6979" font-family="Helvetica,sans-Serif" font-size="10.00">Cache_WP_HTTP\flushCache</text>
</a>
</g>
</g>
<!-- Node1&#45;&gt;Node2 -->
<g id="edge1" class="edge"><title>Node1&#45;&gt;Node2</title>
<path fill="none" stroke="midnightblue" d="M96.972,-44.5113C110.734,-48.4737 125.985,-52.8159 140,-56.6979 151.948,-60.0073 164.995,-63.5211 176.807,-66.6649"/>
<polygon fill="midnightblue" stroke="midnightblue" points="97.8318,-41.1167 87.2534,-41.7052 95.89,-47.842 97.8318,-41.1167"/>
</g>
<!-- Node4 -->
<g id="node4" class="node"><title>Node4</title>
<g id="a_node4"><a xlink:href="class_cache___w_p___h_t_t_p.html#a935ab46ecf5fb5799bf1bec0f29f48a8" target="_top" xlink:title="Filter the response from WP_HTTP class. ">
<polygon fill="white" stroke="black" points="157.148,-15.6979 157.148,-47.6979 274.852,-47.6979 274.852,-15.6979 157.148,-15.6979"/>
<text text-anchor="start" x="165.148" y="-33.6979" font-family="Helvetica,sans-Serif" font-size="10.00">Cache_WP_HTTP\http</text>
<text text-anchor="middle" x="216" y="-21.6979" font-family="Helvetica,sans-Serif" font-size="10.00">_response</text>
</a>
</g>
</g>
<!-- Node1&#45;&gt;Node4 -->
<g id="edge3" class="edge"><title>Node1&#45;&gt;Node4</title>
<path fill="none" stroke="midnightblue" d="M114.289,-31.6979C128.304,-31.6979 143.158,-31.6979 157.029,-31.6979"/>
<polygon fill="midnightblue" stroke="midnightblue" points="114.258,-28.198 104.258,-31.6979 114.258,-35.198 114.258,-28.198"/>
</g>
<!-- Node3 -->
<g id="node3" class="node"><title>Node3</title>
<g id="a_node3"><a xlink:href="class_cache___w_p___h_t_t_p.html#a6f97da37d9fbbfc35d2f63188b020a01" target="_top" xlink:title="Cache_WP_HTTP\\pre_http\l_request">
<polygon fill="white" stroke="black" points="328.141,-15.6979 328.141,-47.6979 465.859,-47.6979 465.859,-15.6979 328.141,-15.6979"/>
<text text-anchor="start" x="336.141" y="-33.6979" font-family="Helvetica,sans-Serif" font-size="10.00">Cache_WP_HTTP\pre_http</text>
<text text-anchor="middle" x="397" y="-21.6979" font-family="Helvetica,sans-Serif" font-size="10.00">_request</text>
</a>
</g>
</g>
<!-- Node1&#45;&gt;Node3 -->
<g id="edge4" class="edge"><title>Node1&#45;&gt;Node3</title>
<path fill="none" stroke="midnightblue" d="M89.9901,-18.5937C105.264,-13.836 123.277,-9.05296 140,-6.6979 206.895,2.7229 224.914,1.25211 292,-6.6979 307.767,-8.56635 324.603,-11.9754 340.035,-15.6875"/>
<polygon fill="midnightblue" stroke="midnightblue" points="88.8322,-15.2895 80.3898,-21.6907 90.9814,-21.9514 88.8322,-15.2895"/>
</g>
<!-- Node2&#45;&gt;Node3 -->
<g id="edge2" class="edge"><title>Node2&#45;&gt;Node3</title>
<path fill="none" stroke="midnightblue" d="M267.073,-64.1096C287.226,-59.0434 310.711,-53.1393 332.074,-47.7687"/>
<polygon fill="midnightblue" stroke="midnightblue" points="266.016,-60.7665 257.171,-66.599 267.723,-67.5552 266.016,-60.7665"/>
</g>
</g>
</svg>
