<?xml version="1.0" encoding="UTF-8" standalone="no"?>
<!DOCTYPE svg PUBLIC "-//W3C//DTD SVG 1.1//EN"
 "http://www.w3.org/Graphics/SVG/1.1/DTD/svg11.dtd">
<!-- Generated by graphviz version 2.30.1 (20130221.2233)
 -->
<!-- Title: CTCT_Admin_Page\isSingle Pages: 1 -->
<!--zoomable 233 -->
<svg id="main" version="1.1" xmlns="http://www.w3.org/2000/svg" xmlns:xlink="http://www.w3.org/1999/xlink" xml:space="preserve" onload="init(evt)">
<style type="text/css"><![CDATA[
.edge:hover path { stroke: red; }
.edge:hover polygon { stroke: red; fill: red; }
]]></style>
<script type="text/javascript"><![CDATA[
var edges = document.getElementsByTagName('g');
if (edges && edges.length) {
  for (var i=0;i<edges.length;i++) {
    if (edges[i].id.substr(0,4)=='edge') {
      edges[i].setAttribute('class','edge');
    }
  }
}
]]></script>
        <defs>
                <circle id="rim" cx="0" cy="0" r="7"/>
                <circle id="rim2" cx="0" cy="0" r="3.5"/>
                <g id="zoomPlus">
                        <use xlink:href="#rim" fill="#404040">
                                <set attributeName="fill" to="#808080" begin="zoomplus.mouseover" end="zoomplus.mouseout"/>
                        </use>
                        <path d="M-4,0h8M0,-4v8" fill="none" stroke="white" stroke-width="1.5" pointer-events="none"/>
                </g>
                <g id="zoomMin">
                        <use xlink:href="#rim" fill="#404040">
                                <set attributeName="fill" to="#808080" begin="zoomminus.mouseover" end="zoomminus.mouseout"/>
                        </use>
                        <path d="M-4,0h8" fill="none" stroke="white" stroke-width="1.5" pointer-events="none"/>
                </g>
                <g id="dirArrow">
                        <path fill="none" stroke="white" stroke-width="1.5" d="M0,-3.0v7 M-2.5,-0.5L0,-3.0L2.5,-0.5"/>
                </g>
               <g id="resetDef">
                       <use xlink:href="#rim2" fill="#404040">
                               <set attributeName="fill" to="#808080" begin="reset.mouseover" end="reset.mouseout"/>
                       </use>
               </g>
        </defs>

<script type="text/javascript">
var viewWidth = 668;
var viewHeight = 233;
var sectionId = 'dynsection-17';
</script>
<script xlink:href="svgpan.js"/>
<svg id="graph" class="graph">
<g id="viewport">
<title>CTCT_Admin_Page\isSingle</title>
<polygon fill="white" stroke="white" points="-4,5 -4,-228.979 665,-228.979 665,5 -4,5"/>
<!-- Node1 -->
<g id="node1" class="node"><title>Node1</title>
<polygon fill="#bfbfbf" stroke="black" points="0.359863,-85.9794 0.359863,-105.979 143.64,-105.979 143.64,-85.9794 0.359863,-85.9794"/>
<text text-anchor="middle" x="72" y="-91.9794" font-family="Helvetica,sans-Serif" font-size="10.00">CTCT_Admin_Page\isSingle</text>
</g>
<!-- Node2 -->
<g id="node2" class="node"><title>Node2</title>
<g id="a_node2"><a xlink:href="class_c_t_c_t___admin___page.html#acdbed2f16a36a9384b2fa5f01073024d" target="_top" xlink:title="CTCT_Admin_Page\\content">
<polygon fill="white" stroke="black" points="180.468,-204.979 180.468,-224.979 321.532,-224.979 321.532,-204.979 180.468,-204.979"/>
<text text-anchor="middle" x="251" y="-210.979" font-family="Helvetica,sans-Serif" font-size="10.00">CTCT_Admin_Page\content</text>
</a>
</g>
</g>
<!-- Node1&#45;&gt;Node2 -->
<g id="edge1" class="edge"><title>Node1&#45;&gt;Node2</title>
<path fill="none" stroke="midnightblue" d="M87.4455,-113.716C106.428,-135.887 141.861,-173.524 180,-194.979 187.16,-199.007 195.197,-202.279 203.204,-204.919"/>
<polygon fill="midnightblue" stroke="midnightblue" points="90.1141,-111.451 81.0042,-106.042 84.7525,-115.952 90.1141,-111.451"/>
</g>
<!-- Node7 -->
<g id="node7" class="node"><title>Node7</title>
<g id="a_node7"><a xlink:href="class_c_t_c_t___admin___contacts.html#ab66e13c1d6644f2ef4fbbf5a3264d257" target="_top" xlink:title="CTCT_Admin_Contacts\l\\getTitle">
<polygon fill="white" stroke="black" points="190.205,-153.979 190.205,-185.979 311.795,-185.979 311.795,-153.979 190.205,-153.979"/>
<text text-anchor="start" x="198.205" y="-171.979" font-family="Helvetica,sans-Serif" font-size="10.00">CTCT_Admin_Contacts</text>
<text text-anchor="middle" x="251" y="-159.979" font-family="Helvetica,sans-Serif" font-size="10.00">\getTitle</text>
</a>
</g>
</g>
<!-- Node1&#45;&gt;Node7 -->
<g id="edge6" class="edge"><title>Node1&#45;&gt;Node7</title>
<path fill="none" stroke="midnightblue" d="M103.725,-110.411C124.987,-120.238 154.021,-133.341 180,-143.979 188.158,-147.32 196.921,-150.72 205.392,-153.913"/>
<polygon fill="midnightblue" stroke="midnightblue" points="105.085,-107.184 94.5413,-106.147 102.137,-113.533 105.085,-107.184"/>
</g>
<!-- Node8 -->
<g id="node8" class="node"><title>Node8</title>
<g id="a_node8"><a xlink:href="class_c_t_c_t___admin___campaigns.html#ad6242d9a9105b91d0a3f23045e2a3d25" target="_top" xlink:title="CTCT_Admin_Campaigns\l\\getTitle">
<polygon fill="white" stroke="black" points="184.646,-102.979 184.646,-134.979 317.354,-134.979 317.354,-102.979 184.646,-102.979"/>
<text text-anchor="start" x="192.646" y="-120.979" font-family="Helvetica,sans-Serif" font-size="10.00">CTCT_Admin_Campaigns</text>
<text text-anchor="middle" x="251" y="-108.979" font-family="Helvetica,sans-Serif" font-size="10.00">\getTitle</text>
</a>
</g>
</g>
<!-- Node1&#45;&gt;Node8 -->
<g id="edge7" class="edge"><title>Node1&#45;&gt;Node8</title>
<path fill="none" stroke="midnightblue" d="M153.916,-106.494C164.18,-107.828 174.581,-109.179 184.561,-110.476"/>
<polygon fill="midnightblue" stroke="midnightblue" points="154.086,-102.987 143.718,-105.169 153.184,-109.928 154.086,-102.987"/>
</g>
<!-- Node9 -->
<g id="node9" class="node"><title>Node9</title>
<g id="a_node9"><a xlink:href="class_c_t_c_t___admin___lists.html#a03b4d6697494ea3fb75e7316e1ca6a7f" target="_top" xlink:title="CTCT_Admin_Lists\\getTitle">
<polygon fill="white" stroke="black" points="182.053,-63.9794 182.053,-83.9794 319.947,-83.9794 319.947,-63.9794 182.053,-63.9794"/>
<text text-anchor="middle" x="251" y="-69.9794" font-family="Helvetica,sans-Serif" font-size="10.00">CTCT_Admin_Lists\getTitle</text>
</a>
</g>
</g>
<!-- Node1&#45;&gt;Node9 -->
<g id="edge8" class="edge"><title>Node1&#45;&gt;Node9</title>
<path fill="none" stroke="midnightblue" d="M153.856,-85.9295C163.26,-84.7607 172.779,-83.5775 181.986,-82.4331"/>
<polygon fill="midnightblue" stroke="midnightblue" points="153.21,-82.4828 143.718,-87.1896 154.074,-89.4293 153.21,-82.4828"/>
</g>
<!-- Node10 -->
<g id="node10" class="node"><title>Node10</title>
<g id="a_node10"><a xlink:href="class_c_t_c_t___event_spot.html#acdbdce321684577624cec73d36cbf622" target="_top" xlink:title="CTCT_EventSpot\\getTitle">
<polygon fill="white" stroke="black" points="186.215,-24.9794 186.215,-44.9794 315.785,-44.9794 315.785,-24.9794 186.215,-24.9794"/>
<text text-anchor="middle" x="251" y="-30.9794" font-family="Helvetica,sans-Serif" font-size="10.00">CTCT_EventSpot\getTitle</text>
</a>
</g>
</g>
<!-- Node1&#45;&gt;Node10 -->
<g id="edge9" class="edge"><title>Node1&#45;&gt;Node10</title>
<path fill="none" stroke="midnightblue" d="M106.834,-82.1425C127.749,-73.8073 155.239,-63.2431 180,-54.9794 190.43,-51.4984 201.856,-48.0735 212.396,-45.0687"/>
<polygon fill="midnightblue" stroke="midnightblue" points="105.405,-78.9444 97.4281,-85.9169 108.012,-85.4408 105.405,-78.9444"/>
</g>
<!-- Node3 -->
<g id="node3" class="node"><title>Node3</title>
<g id="a_node3"><a xlink:href="class_c_t_c_t___admin___page.html#ad4d8edcfbf3023f7f18a6d188adaf99c" target="_top" xlink:title="CTCT_Admin_Page\\page">
<polygon fill="white" stroke="black" points="358.747,-94.9794 358.747,-114.979 489.253,-114.979 489.253,-94.9794 358.747,-94.9794"/>
<text text-anchor="middle" x="424" y="-100.979" font-family="Helvetica,sans-Serif" font-size="10.00">CTCT_Admin_Page\page</text>
</a>
</g>
</g>
<!-- Node1&#45;&gt;Node3 -->
<g id="edge10" class="edge"><title>Node1&#45;&gt;Node3</title>
<path fill="none" stroke="midnightblue" d="M89.175,-78.4323C108.551,-58.8382 143.052,-28.2647 180,-15.9794 239.887,3.93325 262.96,6.32163 322,-15.9794 364.634,-32.0834 400.919,-75.2932 415.791,-94.9709"/>
<polygon fill="midnightblue" stroke="midnightblue" points="86.4701,-76.1956 82.0609,-85.8294 91.5155,-81.0479 86.4701,-76.1956"/>
</g>
<!-- Node2&#45;&gt;Node3 -->
<g id="edge2" class="edge"><title>Node2&#45;&gt;Node3</title>
<path fill="none" stroke="midnightblue" d="M307.868,-201.529C312.765,-199.605 317.547,-197.43 322,-194.979 361.301,-173.352 398.18,-133.898 414.374,-115.257"/>
<polygon fill="midnightblue" stroke="midnightblue" points="306.601,-198.265 298.364,-204.928 308.958,-204.856 306.601,-198.265"/>
</g>
<!-- Node4 -->
<g id="node4" class="node"><title>Node4</title>
<g id="a_node4"><a xlink:href="class_c_t_c_t___constant___analytics.html#ad379ea8b9d4f8c7735b0f3adeac838fe" target="_top" xlink:title="CTCT_Constant_Analytics\l\\addActions">
<polygon fill="white" stroke="black" points="526.089,-139.979 526.089,-171.979 659.911,-171.979 659.911,-139.979 526.089,-139.979"/>
<text text-anchor="start" x="534.089" y="-157.979" font-family="Helvetica,sans-Serif" font-size="10.00">CTCT_Constant_Analytics</text>
<text text-anchor="middle" x="593" y="-145.979" font-family="Helvetica,sans-Serif" font-size="10.00">\addActions</text>
</a>
</g>
</g>
<!-- Node3&#45;&gt;Node4 -->
<g id="edge3" class="edge"><title>Node3&#45;&gt;Node4</title>
<path fill="none" stroke="midnightblue" d="M467.645,-118.003C489.474,-124.669 516.248,-132.846 539.354,-139.902"/>
<polygon fill="midnightblue" stroke="midnightblue" points="468.58,-114.629 457.994,-115.055 466.536,-121.324 468.58,-114.629"/>
</g>
<!-- Node5 -->
<g id="node5" class="node"><title>Node5</title>
<g id="a_node5"><a xlink:href="class_c_t_c_t___constant___analytics.html#a0b5589251b3a6cd9cf457fed695c885c" target="_top" xlink:title="CTCT_Constant_Analytics\l\\enqueue_scripts">
<polygon fill="white" stroke="black" points="526.089,-88.9794 526.089,-120.979 659.911,-120.979 659.911,-88.9794 526.089,-88.9794"/>
<text text-anchor="start" x="534.089" y="-106.979" font-family="Helvetica,sans-Serif" font-size="10.00">CTCT_Constant_Analytics</text>
<text text-anchor="middle" x="593" y="-94.9794" font-family="Helvetica,sans-Serif" font-size="10.00">\enqueue_scripts</text>
</a>
</g>
</g>
<!-- Node3&#45;&gt;Node5 -->
<g id="edge4" class="edge"><title>Node3&#45;&gt;Node5</title>
<path fill="none" stroke="midnightblue" d="M499.74,-104.979C508.477,-104.979 517.343,-104.979 525.95,-104.979"/>
<polygon fill="midnightblue" stroke="midnightblue" points="499.567,-101.48 489.567,-104.979 499.567,-108.48 499.567,-101.48"/>
</g>
<!-- Node6 -->
<g id="node6" class="node"><title>Node6</title>
<g id="a_node6"><a xlink:href="class_c_t_c_t___constant___analytics.html#a835b6b00979fb3965d01a93767d5199e" target="_top" xlink:title="CTCT_Constant_Analytics\l\\admin_head">
<polygon fill="white" stroke="black" points="526.089,-37.9794 526.089,-69.9794 659.911,-69.9794 659.911,-37.9794 526.089,-37.9794"/>
<text text-anchor="start" x="534.089" y="-55.9794" font-family="Helvetica,sans-Serif" font-size="10.00">CTCT_Constant_Analytics</text>
<text text-anchor="middle" x="593" y="-43.9794" font-family="Helvetica,sans-Serif" font-size="10.00">\admin_head</text>
</a>
</g>
</g>
<!-- Node3&#45;&gt;Node6 -->
<g id="edge5" class="edge"><title>Node3&#45;&gt;Node6</title>
<path fill="none" stroke="midnightblue" d="M467.645,-91.9561C489.474,-85.2896 516.248,-77.1133 539.354,-70.0571"/>
<polygon fill="midnightblue" stroke="midnightblue" points="466.536,-88.6353 457.994,-94.9035 468.58,-95.33 466.536,-88.6353"/>
</g>
</g>
</svg>
        <g id="navigator" transform="translate(0 0)" fill="#404254">
                <rect fill="#f2f5e9" fill-opacity="0.5" stroke="#606060" stroke-width=".5" x="0" y="0" width="60" height="60"/>
                <use id="zoomplus" xlink:href="#zoomPlus" x="17" y="9" onmousedown="handleZoom(evt,'in')"/>
                <use id="zoomminus" xlink:href="#zoomMin" x="42" y="9" onmousedown="handleZoom(evt,'out')"/>
                <use id="reset" xlink:href="#resetDef" x="30" y="36" onmousedown="handleReset()"/>
                <g id="arrowUp" xlink:href="#dirArrow" transform="translate(30 24)" onmousedown="handlePan(0,-1)">
                  <use xlink:href="#rim" fill="#404040">
                        <set attributeName="fill" to="#808080" begin="arrowUp.mouseover" end="arrowUp.mouseout"/>
                  </use>
                  <path fill="none" stroke="white" stroke-width="1.5" d="M0,-3.0v7 M-2.5,-0.5L0,-3.0L2.5,-0.5"/>
                </g>
                <g id="arrowRight" xlink:href="#dirArrow" transform="rotate(90) translate(36 -43)" onmousedown="handlePan(1,0)">
                  <use xlink:href="#rim" fill="#404040">
                        <set attributeName="fill" to="#808080" begin="arrowRight.mouseover" end="arrowRight.mouseout"/>
                  </use>
                  <path fill="none" stroke="white" stroke-width="1.5" d="M0,-3.0v7 M-2.5,-0.5L0,-3.0L2.5,-0.5"/>
                </g>
                <g id="arrowDown" xlink:href="#dirArrow" transform="rotate(180) translate(-30 -48)" onmousedown="handlePan(0,1)">
                  <use xlink:href="#rim" fill="#404040">
                        <set attributeName="fill" to="#808080" begin="arrowDown.mouseover" end="arrowDown.mouseout"/>
                  </use>
                  <path fill="none" stroke="white" stroke-width="1.5" d="M0,-3.0v7 M-2.5,-0.5L0,-3.0L2.5,-0.5"/>
                </g>
                <g id="arrowLeft" xlink:href="#dirArrow" transform="rotate(270) translate(-36 17)" onmousedown="handlePan(-1,0)">
                  <use xlink:href="#rim" fill="#404040">
                        <set attributeName="fill" to="#808080" begin="arrowLeft.mouseover" end="arrowLeft.mouseout"/>
                  </use>
                  <path fill="none" stroke="white" stroke-width="1.5" d="M0,-3.0v7 M-2.5,-0.5L0,-3.0L2.5,-0.5"/>
                </g>
        </g>
        <svg viewBox="0 0 15 15" width="100%" height="30px" preserveAspectRatio="xMaxYMin meet">
         <g id="arrow_out" transform="scale(0.3 0.3)">
          <a xlink:href="class_c_t_c_t___admin___page_a79cac52351cd72e5cb0269ad98ac9a82_icgraph_org.svg" target="_base">
           <rect id="button" ry="5" rx="5" y="6" x="6" height="38" width="38"
                fill="#f2f5e9" fill-opacity="0.5" stroke="#606060" stroke-width="1.0"/>
           <path id="arrow"
             d="M 11.500037,31.436501 C 11.940474,20.09759 22.043105,11.32322 32.158766,21.979434 L 37.068811,17.246167 C 37.068811,17.246167 37.088388,32 37.088388,32 L 22.160133,31.978069 C 22.160133,31.978069 26.997745,27.140456 26.997745,27.140456 C 18.528582,18.264221 13.291696,25.230495 11.500037,31.436501 z"
             style="fill:#404040;"/>
          </a>
         </g>
        </svg>
</svg>
