<?xml version="1.0" encoding="UTF-8" standalone="no"?>
<!DOCTYPE svg PUBLIC "-//W3C//DTD SVG 1.1//EN"
 "http://www.w3.org/Graphics/SVG/1.1/DTD/svg11.dtd">
<!-- Generated by graphviz version 2.30.1 (20130221.2233)
 -->
<!-- Title: Net_DNS_RR\factory Pages: 1 -->
<svg width="486pt" height="160pt"
 viewBox="0.00 0.00 486.00 160.00" xmlns="http://www.w3.org/2000/svg" xmlns:xlink="http://www.w3.org/1999/xlink">
<g id="graph0" class="graph" transform="scale(1 1) rotate(0) translate(4 156)">
<title>Net_DNS_RR\factory</title>
<polygon fill="white" stroke="white" points="-4,5 -4,-156 483,-156 483,5 -4,5"/>
<!-- Node1 -->
<g id="node1" class="node"><title>Node1</title>
<polygon fill="#bfbfbf" stroke="black" points="0.485352,-81 0.485352,-101 111.515,-101 111.515,-81 0.485352,-81"/>
<text text-anchor="middle" x="56" y="-87" font-family="Helvetica,sans-Serif" font-size="10.00">Net_DNS_RR\factory</text>
</g>
<!-- Node2 -->
<g id="node2" class="node"><title>Node2</title>
<g id="a_node2"><a xlink:href="class_net___d_n_s___r_r.html#ae21f552addb2e6fea8f4e87ea883ba78" target="_top" xlink:title="Net_DNS_RR\\new_from\l_array">
<polygon fill="white" stroke="black" points="160.537,-120 160.537,-152 285.463,-152 285.463,-120 160.537,-120"/>
<text text-anchor="start" x="168.537" y="-138" font-family="Helvetica,sans-Serif" font-size="10.00">Net_DNS_RR\new_from</text>
<text text-anchor="middle" x="223" y="-126" font-family="Helvetica,sans-Serif" font-size="10.00">_array</text>
</a>
</g>
</g>
<!-- Node1&#45;&gt;Node2 -->
<g id="edge1" class="edge"><title>Node1&#45;&gt;Node2</title>
<path fill="none" stroke="midnightblue" d="M94.0292,-101.099C111.503,-105.864 132.935,-111.709 153.226,-117.244"/>
<polygon fill="midnightblue" stroke="midnightblue" points="152.505,-120.675 163.074,-119.929 154.347,-113.921 152.505,-120.675"/>
</g>
<!-- Node4 -->
<g id="node4" class="node"><title>Node4</title>
<g id="a_node4"><a xlink:href="class_net___d_n_s___r_r.html#a14ca0dc83ff30526df3d595b83ef13dd" target="_top" xlink:title="Net_DNS_RR\\new_from_data">
<polygon fill="white" stroke="black" points="148.025,-81 148.025,-101 297.975,-101 297.975,-81 148.025,-81"/>
<text text-anchor="middle" x="223" y="-87" font-family="Helvetica,sans-Serif" font-size="10.00">Net_DNS_RR\new_from_data</text>
</a>
</g>
</g>
<!-- Node1&#45;&gt;Node4 -->
<g id="edge3" class="edge"><title>Node1&#45;&gt;Node4</title>
<path fill="none" stroke="midnightblue" d="M111.943,-91C120.23,-91 128.937,-91 137.672,-91"/>
<polygon fill="midnightblue" stroke="midnightblue" points="137.914,-94.5001 147.914,-91 137.914,-87.5001 137.914,-94.5001"/>
</g>
<!-- Node5 -->
<g id="node5" class="node"><title>Node5</title>
<g id="a_node5"><a xlink:href="class_net___d_n_s___r_r.html#a1654146cab0e22d9bae1dae01d42f9fd" target="_top" xlink:title="Net_DNS_RR\\new_from\l_string">
<polygon fill="white" stroke="black" points="160.537,-30 160.537,-62 285.463,-62 285.463,-30 160.537,-30"/>
<text text-anchor="start" x="168.537" y="-48" font-family="Helvetica,sans-Serif" font-size="10.00">Net_DNS_RR\new_from</text>
<text text-anchor="middle" x="223" y="-36" font-family="Helvetica,sans-Serif" font-size="10.00">_string</text>
</a>
</g>
</g>
<!-- Node1&#45;&gt;Node5 -->
<g id="edge5" class="edge"><title>Node1&#45;&gt;Node5</title>
<path fill="none" stroke="midnightblue" d="M94.0292,-80.9011C111.503,-76.1355 132.935,-70.2906 153.226,-64.7565"/>
<polygon fill="midnightblue" stroke="midnightblue" points="154.347,-68.0787 163.074,-62.0708 152.505,-61.3254 154.347,-68.0787"/>
</g>
<!-- Node3 -->
<g id="node3" class="node"><title>Node3</title>
<g id="a_node3"><a xlink:href="class_net___d_n_s___r_r.html#ab64df1897e6e896b456e7007085fad40" target="_top" xlink:title="Net_DNS_RR\\Net_DNS_RR">
<polygon fill="white" stroke="black" points="334.37,-81 334.37,-101 477.63,-101 477.63,-81 334.37,-81"/>
<text text-anchor="middle" x="406" y="-87" font-family="Helvetica,sans-Serif" font-size="10.00">Net_DNS_RR\Net_DNS_RR</text>
</a>
</g>
</g>
<!-- Node2&#45;&gt;Node3 -->
<g id="edge2" class="edge"><title>Node2&#45;&gt;Node3</title>
<path fill="none" stroke="midnightblue" d="M285.531,-120.702C308.092,-115.093 333.337,-108.817 354.789,-103.484"/>
<polygon fill="midnightblue" stroke="midnightblue" points="355.809,-106.836 364.669,-101.027 354.12,-100.043 355.809,-106.836"/>
</g>
<!-- Node4&#45;&gt;Node3 -->
<g id="edge4" class="edge"><title>Node4&#45;&gt;Node3</title>
<path fill="none" stroke="midnightblue" d="M298.142,-91C306.703,-91 315.465,-91 324.11,-91"/>
<polygon fill="midnightblue" stroke="midnightblue" points="324.184,-94.5001 334.184,-91 324.184,-87.5001 324.184,-94.5001"/>
</g>
<!-- Node5&#45;&gt;Node3 -->
<g id="edge6" class="edge"><title>Node5&#45;&gt;Node3</title>
<path fill="none" stroke="midnightblue" d="M285.531,-61.2977C308.092,-66.9067 333.337,-73.1833 354.789,-78.5165"/>
<polygon fill="midnightblue" stroke="midnightblue" points="354.12,-81.9568 364.669,-80.973 355.809,-75.1636 354.12,-81.9568"/>
</g>
<!-- Node6 -->
<g id="node6" class="node"><title>Node6</title>
<g id="a_node6"><a xlink:href="class_net___d_n_s.html#a1e086e94cfa4b747b481b1e5859a1caf" target="_top" xlink:title="translates a DNS class from it&#39;s name to it&#39;s integer value. ">
<polygon fill="white" stroke="black" points="341.032,-39 341.032,-59 470.968,-59 470.968,-39 341.032,-39"/>
<text text-anchor="middle" x="406" y="-45" font-family="Helvetica,sans-Serif" font-size="10.00">Net_DNS\classesbyname</text>
</a>
</g>
</g>
<!-- Node5&#45;&gt;Node6 -->
<g id="edge7" class="edge"><title>Node5&#45;&gt;Node6</title>
<path fill="none" stroke="midnightblue" d="M285.531,-47.0198C300.02,-47.26 315.616,-47.5185 330.603,-47.7669"/>
<polygon fill="midnightblue" stroke="midnightblue" points="330.804,-51.2706 340.861,-47.9369 330.92,-44.2716 330.804,-51.2706"/>
</g>
<!-- Node7 -->
<g id="node7" class="node"><title>Node7</title>
<g id="a_node7"><a xlink:href="class_net___d_n_s.html#a1420f63422265cad4ceb1899647e53e6" target="_top" xlink:title="Translates RR type names into integers. ">
<polygon fill="white" stroke="black" points="345.754,-0 345.754,-20 466.246,-20 466.246,-0 345.754,-0"/>
<text text-anchor="middle" x="406" y="-6" font-family="Helvetica,sans-Serif" font-size="10.00">Net_DNS\typesbyname</text>
</a>
</g>
</g>
<!-- Node5&#45;&gt;Node7 -->
<g id="edge8" class="edge"><title>Node5&#45;&gt;Node7</title>
<path fill="none" stroke="midnightblue" d="M285.531,-33.7618C304.556,-29.9778 325.49,-25.8141 344.448,-22.0434"/>
<polygon fill="midnightblue" stroke="midnightblue" points="345.331,-25.4365 354.456,-20.053 343.965,-18.571 345.331,-25.4365"/>
</g>
</g>
</svg>
