<?xml version="1.0" encoding="UTF-8" standalone="no"?>
<!DOCTYPE svg PUBLIC "-//W3C//DTD SVG 1.1//EN"
 "http://www.w3.org/Graphics/SVG/1.1/DTD/svg11.dtd">
<!-- Generated by graphviz version 2.30.1 (20130221.2233)
 -->
<!-- Title: EventsCollection\getRegistrantDetails Pages: 1 -->
<svg width="694pt" height="259pt"
 viewBox="0.00 0.00 694.00 259.00" xmlns="http://www.w3.org/2000/svg" xmlns:xlink="http://www.w3.org/1999/xlink">
<g id="graph0" class="graph" transform="scale(1 1) rotate(0) translate(4 255)">
<title>EventsCollection\getRegistrantDetails</title>
<polygon fill="white" stroke="white" points="-4,5 -4,-255 691,-255 691,5 -4,5"/>
<!-- Node1 -->
<g id="node1" class="node"><title>Node1</title>
<polygon fill="#bfbfbf" stroke="black" points="0.630859,-81 0.630859,-113 153.369,-113 153.369,-81 0.630859,-81"/>
<text text-anchor="start" x="8.63086" y="-99" font-family="Helvetica,sans-Serif" font-size="10.00">EventsCollection\getRegistrant</text>
<text text-anchor="middle" x="77" y="-87" font-family="Helvetica,sans-Serif" font-size="10.00">Details</text>
</g>
<!-- Node2 -->
<g id="node2" class="node"><title>Node2</title>
<g id="a_node2"><a xlink:href="class_registrant.html#ad4b8e691543ae4ed0516bf34e0fe399a" target="_top" xlink:title="Create an associative array of object properties from XML. ">
<polygon fill="white" stroke="black" points="202.867,-129 202.867,-149 321.133,-149 321.133,-129 202.867,-129"/>
<text text-anchor="middle" x="262" y="-135" font-family="Helvetica,sans-Serif" font-size="10.00">Registrant\createStruct</text>
</a>
</g>
</g>
<!-- Node1&#45;&gt;Node2 -->
<g id="edge1" class="edge"><title>Node1&#45;&gt;Node2</title>
<path fill="none" stroke="midnightblue" d="M147.968,-113.058C167.725,-117.593 188.903,-122.453 207.524,-126.727"/>
<polygon fill="midnightblue" stroke="midnightblue" points="206.764,-130.143 217.294,-128.969 208.33,-123.321 206.764,-130.143"/>
</g>
<!-- Node7 -->
<g id="node7" class="node"><title>Node7</title>
<g id="a_node7"><a xlink:href="class_c_t_c_t_request.html#aad92e5787f6d3fdf00760d99505aa6db" target="_top" xlink:title="CTCTRequest\\makeRequest">
<polygon fill="white" stroke="black" points="189.808,-45 189.808,-65 334.192,-65 334.192,-45 189.808,-45"/>
<text text-anchor="middle" x="262" y="-51" font-family="Helvetica,sans-Serif" font-size="10.00">CTCTRequest\makeRequest</text>
</a>
</g>
</g>
<!-- Node1&#45;&gt;Node7 -->
<g id="edge6" class="edge"><title>Node1&#45;&gt;Node7</title>
<path fill="none" stroke="midnightblue" d="M147.968,-80.9418C167.725,-76.4073 188.903,-71.5469 207.524,-67.2731"/>
<polygon fill="midnightblue" stroke="midnightblue" points="208.33,-70.6793 217.294,-65.031 206.764,-63.8566 208.33,-70.6793"/>
</g>
<!-- Node3 -->
<g id="node3" class="node"><title>Node3</title>
<g id="a_node3"><a xlink:href="class_personal_information.html#a459c575ff93d4a7f0662baa439a454d0" target="_top" xlink:title="Create array from associative array of object properties. ">
<polygon fill="white" stroke="black" points="394.254,-219 394.254,-251 499.746,-251 499.746,-219 394.254,-219"/>
<text text-anchor="start" x="402.254" y="-237" font-family="Helvetica,sans-Serif" font-size="10.00">PersonalInformation</text>
<text text-anchor="middle" x="447" y="-225" font-family="Helvetica,sans-Serif" font-size="10.00">\createStruct</text>
</a>
</g>
</g>
<!-- Node2&#45;&gt;Node3 -->
<g id="edge2" class="edge"><title>Node2&#45;&gt;Node3</title>
<path fill="none" stroke="midnightblue" d="M276.2,-149.207C295.784,-163.978 334.099,-191.459 370,-209 374.658,-211.276 379.565,-213.439 384.551,-215.474"/>
<polygon fill="midnightblue" stroke="midnightblue" points="383.604,-218.861 394.193,-219.225 386.143,-212.337 383.604,-218.861"/>
</g>
<!-- Node4 -->
<g id="node4" class="node"><title>Node4</title>
<g id="a_node4"><a xlink:href="class_business_information.html#ac7e97ef553fa2189bd85dce10999c58e" target="_top" xlink:title="Create an associative array of object properties from XML. ">
<polygon fill="white" stroke="black" points="393.7,-168 393.7,-200 500.3,-200 500.3,-168 393.7,-168"/>
<text text-anchor="start" x="401.7" y="-186" font-family="Helvetica,sans-Serif" font-size="10.00">BusinessInformation</text>
<text text-anchor="middle" x="447" y="-174" font-family="Helvetica,sans-Serif" font-size="10.00">\createStruct</text>
</a>
</g>
</g>
<!-- Node2&#45;&gt;Node4 -->
<g id="edge3" class="edge"><title>Node2&#45;&gt;Node4</title>
<path fill="none" stroke="midnightblue" d="M304.069,-149.099C327.523,-154.866 357.406,-162.215 383.696,-168.679"/>
<polygon fill="midnightblue" stroke="midnightblue" points="383.029,-172.12 393.576,-171.109 384.701,-165.322 383.029,-172.12"/>
</g>
<!-- Node5 -->
<g id="node5" class="node"><title>Node5</title>
<g id="a_node5"><a xlink:href="class_custom_field.html#a4e25506f8bdd629223fcf0ef94b508c0" target="_top" xlink:title="Create CustomField object from XML. ">
<polygon fill="white" stroke="black" points="375.375,-129 375.375,-149 518.625,-149 518.625,-129 375.375,-129"/>
<text text-anchor="middle" x="447" y="-135" font-family="Helvetica,sans-Serif" font-size="10.00">CustomField\createFromXml</text>
</a>
</g>
</g>
<!-- Node2&#45;&gt;Node5 -->
<g id="edge4" class="edge"><title>Node2&#45;&gt;Node5</title>
<path fill="none" stroke="midnightblue" d="M321.154,-139C335.1,-139 350.242,-139 365.015,-139"/>
<polygon fill="midnightblue" stroke="midnightblue" points="365.164,-142.5 375.164,-139 365.164,-135.5 365.164,-142.5"/>
</g>
<!-- Node6 -->
<g id="node6" class="node"><title>Node6</title>
<g id="a_node6"><a xlink:href="class_cost.html#ace3bfdbf89c0bd466208d0ea5f2e62f1" target="_top" xlink:title="Create associative array of object properties. ">
<polygon fill="white" stroke="black" points="400.375,-90 400.375,-110 493.625,-110 493.625,-90 400.375,-90"/>
<text text-anchor="middle" x="447" y="-96" font-family="Helvetica,sans-Serif" font-size="10.00">Cost\createStruct</text>
</a>
</g>
</g>
<!-- Node2&#45;&gt;Node6 -->
<g id="edge5" class="edge"><title>Node2&#45;&gt;Node6</title>
<path fill="none" stroke="midnightblue" d="M310.127,-128.957C334.622,-123.736 364.714,-117.323 390.348,-111.86"/>
<polygon fill="midnightblue" stroke="midnightblue" points="391.246,-115.248 400.297,-109.74 389.787,-108.401 391.246,-115.248"/>
</g>
<!-- Node8 -->
<g id="node8" class="node"><title>Node8</title>
<g id="a_node8"><a xlink:href="class_o_auth_request.html#afe9d0f6cb8e0dadb1c0faeea9ecafe45" target="_top" xlink:title="pretty much a helper function to set up the request ">
<polygon fill="white" stroke="black" points="370.079,-39 370.079,-71 523.921,-71 523.921,-39 370.079,-39"/>
<text text-anchor="start" x="378.079" y="-57" font-family="Helvetica,sans-Serif" font-size="10.00">OAuthRequest\from_consumer</text>
<text text-anchor="middle" x="447" y="-45" font-family="Helvetica,sans-Serif" font-size="10.00">_and_token</text>
</a>
</g>
</g>
<!-- Node7&#45;&gt;Node8 -->
<g id="edge7" class="edge"><title>Node7&#45;&gt;Node8</title>
<path fill="none" stroke="midnightblue" d="M334.277,-55C342.716,-55 351.397,-55 360.013,-55"/>
<polygon fill="midnightblue" stroke="midnightblue" points="360.079,-58.5001 370.079,-55 360.078,-51.5001 360.079,-58.5001"/>
</g>
<!-- Node11 -->
<g id="node11" class="node"><title>Node11</title>
<g id="a_node11"><a xlink:href="class_c_t_c_t_exception.html#adc8307ec7d7a2c730b0dac678d0e7fcb" target="_top" xlink:title="CTCTException\\generateError">
<polygon fill="white" stroke="black" points="371.473,-0 371.473,-20 522.527,-20 522.527,-0 371.473,-0"/>
<text text-anchor="middle" x="447" y="-6" font-family="Helvetica,sans-Serif" font-size="10.00">CTCTException\generateError</text>
</a>
</g>
</g>
<!-- Node7&#45;&gt;Node11 -->
<g id="edge10" class="edge"><title>Node7&#45;&gt;Node11</title>
<path fill="none" stroke="midnightblue" d="M304.069,-44.9011C331.029,-38.2716 366.483,-29.5533 395.212,-22.4888"/>
<polygon fill="midnightblue" stroke="midnightblue" points="396.193,-25.8519 405.068,-20.0652 394.522,-19.0544 396.193,-25.8519"/>
</g>
<!-- Node9 -->
<g id="node9" class="node"><title>Node9</title>
<g id="a_node9"><a xlink:href="class_o_auth_request.html#ae544b1c10b82d5a82dcc259064763420" target="_top" xlink:title="util function: current nonce ">
<polygon fill="white" stroke="black" points="561.074,-90 561.074,-122 684.926,-122 684.926,-90 561.074,-90"/>
<text text-anchor="start" x="569.074" y="-108" font-family="Helvetica,sans-Serif" font-size="10.00">OAuthRequest\generate</text>
<text text-anchor="middle" x="623" y="-96" font-family="Helvetica,sans-Serif" font-size="10.00">_nonce</text>
</a>
</g>
</g>
<!-- Node8&#45;&gt;Node9 -->
<g id="edge8" class="edge"><title>Node8&#45;&gt;Node9</title>
<path fill="none" stroke="midnightblue" d="M503.055,-71.1367C520.36,-76.209 539.624,-81.8552 557.522,-87.1012"/>
<polygon fill="midnightblue" stroke="midnightblue" points="556.723,-90.5142 567.303,-89.9683 558.692,-83.7968 556.723,-90.5142"/>
</g>
<!-- Node10 -->
<g id="node10" class="node"><title>Node10</title>
<g id="a_node10"><a xlink:href="class_o_auth_request.html#adfc6b936799f705d9a4442961a26e8cb" target="_top" xlink:title="util function: current timestamp ">
<polygon fill="white" stroke="black" points="561.074,-39 561.074,-71 684.926,-71 684.926,-39 561.074,-39"/>
<text text-anchor="start" x="569.074" y="-57" font-family="Helvetica,sans-Serif" font-size="10.00">OAuthRequest\generate</text>
<text text-anchor="middle" x="623" y="-45" font-family="Helvetica,sans-Serif" font-size="10.00">_timestamp</text>
</a>
</g>
</g>
<!-- Node8&#45;&gt;Node10 -->
<g id="edge9" class="edge"><title>Node8&#45;&gt;Node10</title>
<path fill="none" stroke="midnightblue" d="M524.066,-55C532.939,-55 541.966,-55 550.771,-55"/>
<polygon fill="midnightblue" stroke="midnightblue" points="550.981,-58.5001 560.981,-55 550.981,-51.5001 550.981,-58.5001"/>
</g>
<!-- Node12 -->
<g id="node12" class="node"><title>Node12</title>
<g id="a_node12"><a xlink:href="class_c_t_c_t_exception.html#a6a86531406328bbd2a6c6252b7fb3a70" target="_top" xlink:title="CTCTException\\logError">
<polygon fill="white" stroke="black" points="560.54,-0 560.54,-20 685.46,-20 685.46,-0 560.54,-0"/>
<text text-anchor="middle" x="623" y="-6" font-family="Helvetica,sans-Serif" font-size="10.00">CTCTException\logError</text>
</a>
</g>
</g>
<!-- Node11&#45;&gt;Node12 -->
<g id="edge11" class="edge"><title>Node11&#45;&gt;Node12</title>
<path fill="none" stroke="midnightblue" d="M522.549,-10C531.73,-10 541.101,-10 550.239,-10"/>
<polygon fill="midnightblue" stroke="midnightblue" points="550.437,-13.5001 560.437,-10 550.436,-6.5001 550.437,-13.5001"/>
</g>
</g>
</svg>
