<?xml version="1.0" encoding="UTF-8" standalone="no"?>
<!DOCTYPE svg PUBLIC "-//W3C//DTD SVG 1.1//EN"
 "http://www.w3.org/Graphics/SVG/1.1/DTD/svg11.dtd">
<!-- Generated by graphviz version 2.30.1 (20130221.2233)
 -->
<!-- Title: Net_DNS_RR_TXT\Net_DNS_RR_TXT Pages: 1 -->
<svg width="284pt" height="79pt"
 viewBox="0.00 0.00 284.00 79.00" xmlns="http://www.w3.org/2000/svg" xmlns:xlink="http://www.w3.org/1999/xlink">
<g id="graph0" class="graph" transform="scale(1 1) rotate(0) translate(4 75)">
<title>Net_DNS_RR_TXT\Net_DNS_RR_TXT</title>
<polygon fill="white" stroke="white" points="-4,5 -4,-75 281,-75 281,5 -4,5"/>
<!-- Node1 -->
<g id="node1" class="node"><title>Node1</title>
<polygon fill="#bfbfbf" stroke="black" points="0.485352,-16 0.485352,-48 121.515,-48 121.515,-16 0.485352,-16"/>
<text text-anchor="start" x="8.48535" y="-34" font-family="Helvetica,sans-Serif" font-size="10.00">Net_DNS_RR_TXT\Net</text>
<text text-anchor="middle" x="61" y="-22" font-family="Helvetica,sans-Serif" font-size="10.00">_DNS_RR_TXT</text>
</g>
<!-- Node2 -->
<g id="node2" class="node"><title>Node2</title>
<g id="a_node2"><a xlink:href="class_net___d_n_s___packet.html#a309ab56b644aaba891e687ab026e31b6" target="_top" xlink:title="DNS packet decompression method. ">
<polygon fill="white" stroke="black" points="157.862,-39 157.862,-71 276.138,-71 276.138,-39 157.862,-39"/>
<text text-anchor="start" x="165.862" y="-57" font-family="Helvetica,sans-Serif" font-size="10.00">Net_DNS_Packet\label</text>
<text text-anchor="middle" x="217" y="-45" font-family="Helvetica,sans-Serif" font-size="10.00">_extract</text>
</a>
</g>
</g>
<!-- Node1&#45;&gt;Node2 -->
<g id="edge1" class="edge"><title>Node1&#45;&gt;Node2</title>
<path fill="none" stroke="midnightblue" d="M121.54,-40.8924C130.057,-42.1644 138.875,-43.4813 147.546,-44.7764"/>
<polygon fill="midnightblue" stroke="midnightblue" points="147.224,-48.2671 157.632,-46.2827 148.258,-41.3438 147.224,-48.2671"/>
</g>
<!-- Node3 -->
<g id="node3" class="node"><title>Node3</title>
<g id="a_node3"><a xlink:href="class_net___d_n_s___r_r.html#aa9da23331d654752fc950d474aa4c88d" target="_top" xlink:title="Net_DNS_RR\\rdata">
<polygon fill="white" stroke="black" points="165.094,-0 165.094,-20 268.906,-20 268.906,-0 165.094,-0"/>
<text text-anchor="middle" x="217" y="-6" font-family="Helvetica,sans-Serif" font-size="10.00">Net_DNS_RR\rdata</text>
</a>
</g>
</g>
<!-- Node1&#45;&gt;Node3 -->
<g id="edge2" class="edge"><title>Node1&#45;&gt;Node3</title>
<path fill="none" stroke="midnightblue" d="M121.54,-23.4942C132.316,-21.9548 143.573,-20.3467 154.406,-18.7991"/>
<polygon fill="midnightblue" stroke="midnightblue" points="155.229,-22.2172 164.633,-17.3381 154.239,-15.2876 155.229,-22.2172"/>
</g>
</g>
</svg>
