<?xml version="1.0" encoding="UTF-8" standalone="no"?>
<!DOCTYPE svg PUBLIC "-//W3C//DTD SVG 1.1//EN"
 "http://www.w3.org/Graphics/SVG/1.1/DTD/svg11.dtd">
<!-- Generated by graphviz version 2.30.1 (20130221.2233)
 -->
<!-- Title: OAuthRequest\get_signature_base_string Pages: 1 -->
<!--zoomable 168 -->
<svg id="main" version="1.1" xmlns="http://www.w3.org/2000/svg" xmlns:xlink="http://www.w3.org/1999/xlink" xml:space="preserve" onload="init(evt)">
<style type="text/css"><![CDATA[
.edge:hover path { stroke: red; }
.edge:hover polygon { stroke: red; fill: red; }
]]></style>
<script type="text/javascript"><![CDATA[
var edges = document.getElementsByTagName('g');
if (edges && edges.length) {
  for (var i=0;i<edges.length;i++) {
    if (edges[i].id.substr(0,4)=='edge') {
      edges[i].setAttribute('class','edge');
    }
  }
}
]]></script>
        <defs>
                <circle id="rim" cx="0" cy="0" r="7"/>
                <circle id="rim2" cx="0" cy="0" r="3.5"/>
                <g id="zoomPlus">
                        <use xlink:href="#rim" fill="#404040">
                                <set attributeName="fill" to="#808080" begin="zoomplus.mouseover" end="zoomplus.mouseout"/>
                        </use>
                        <path d="M-4,0h8M0,-4v8" fill="none" stroke="white" stroke-width="1.5" pointer-events="none"/>
                </g>
                <g id="zoomMin">
                        <use xlink:href="#rim" fill="#404040">
                                <set attributeName="fill" to="#808080" begin="zoomminus.mouseover" end="zoomminus.mouseout"/>
                        </use>
                        <path d="M-4,0h8" fill="none" stroke="white" stroke-width="1.5" pointer-events="none"/>
                </g>
                <g id="dirArrow">
                        <path fill="none" stroke="white" stroke-width="1.5" d="M0,-3.0v7 M-2.5,-0.5L0,-3.0L2.5,-0.5"/>
                </g>
               <g id="resetDef">
                       <use xlink:href="#rim2" fill="#404040">
                               <set attributeName="fill" to="#808080" begin="reset.mouseover" end="reset.mouseout"/>
                       </use>
               </g>
        </defs>

<script type="text/javascript">
var viewWidth = 628;
var viewHeight = 168;
var sectionId = 'dynsection-12';
</script>
<script xlink:href="svgpan.js"/>
<svg id="graph" class="graph">
<g id="viewport">
<title>OAuthRequest\get_signature_base_string</title>
<polygon fill="white" stroke="white" points="-4,5 -4,-164.049 625,-164.049 625,5 -4,5"/>
<!-- Node1 -->
<g id="node1" class="node"><title>Node1</title>
<polygon fill="#bfbfbf" stroke="black" points="0.512695,-51.0491 0.512695,-83.0491 145.487,-83.0491 145.487,-51.0491 0.512695,-51.0491"/>
<text text-anchor="start" x="8.5127" y="-69.0491" font-family="Helvetica,sans-Serif" font-size="10.00">OAuthRequest\get_signature</text>
<text text-anchor="middle" x="73" y="-57.0491" font-family="Helvetica,sans-Serif" font-size="10.00">_base_string</text>
</g>
<!-- Node2 -->
<g id="node2" class="node"><title>Node2</title>
<g id="a_node2"><a xlink:href="class_o_auth_request.html#a30107fa78eae28c9bf4c62f7e7cc05ba" target="_top" xlink:title="just uppercases the http method ">
<polygon fill="white" stroke="black" points="182.626,-128.049 182.626,-160.049 335.374,-160.049 335.374,-128.049 182.626,-128.049"/>
<text text-anchor="start" x="190.626" y="-146.049" font-family="Helvetica,sans-Serif" font-size="10.00">OAuthRequest\get_normalized</text>
<text text-anchor="middle" x="259" y="-134.049" font-family="Helvetica,sans-Serif" font-size="10.00">_http_method</text>
</a>
</g>
</g>
<!-- Node1&#45;&gt;Node2 -->
<g id="edge1" class="edge"><title>Node1&#45;&gt;Node2</title>
<path fill="none" stroke="midnightblue" d="M105.719,-83.1734C127.021,-93.7168 155.868,-107.448 182,-118.049 187.381,-120.232 193.022,-122.393 198.697,-124.481"/>
<polygon fill="midnightblue" stroke="midnightblue" points="197.643,-127.821 208.238,-127.917 200.015,-121.236 197.643,-127.821"/>
</g>
<!-- Node3 -->
<g id="node3" class="node"><title>Node3</title>
<g id="a_node3"><a xlink:href="class_o_auth_request.html#a4a948aed0c29c809d912fab7452f1cc1" target="_top" xlink:title="parses the url and rebuilds it to be scheme://host/path ">
<polygon fill="white" stroke="black" points="182.626,-77.0491 182.626,-109.049 335.374,-109.049 335.374,-77.0491 182.626,-77.0491"/>
<text text-anchor="start" x="190.626" y="-95.0491" font-family="Helvetica,sans-Serif" font-size="10.00">OAuthRequest\get_normalized</text>
<text text-anchor="middle" x="259" y="-83.0491" font-family="Helvetica,sans-Serif" font-size="10.00">_http_url</text>
</a>
</g>
</g>
<!-- Node1&#45;&gt;Node3 -->
<g id="edge2" class="edge"><title>Node1&#45;&gt;Node3</title>
<path fill="none" stroke="midnightblue" d="M145.666,-77.1758C154.464,-78.419 163.523,-79.6991 172.499,-80.9674"/>
<polygon fill="midnightblue" stroke="midnightblue" points="172.188,-84.4582 182.579,-82.3918 173.168,-77.527 172.188,-84.4582"/>
</g>
<!-- Node4 -->
<g id="node4" class="node"><title>Node4</title>
<g id="a_node4"><a xlink:href="class_o_auth_request.html#a6b65d39d0b253e04133756b3540d763f" target="_top" xlink:title="The request parameters, sorted and concatenated into a normalized string. ">
<polygon fill="white" stroke="black" points="188.456,-26.0491 188.456,-58.0491 329.544,-58.0491 329.544,-26.0491 188.456,-26.0491"/>
<text text-anchor="start" x="196.456" y="-44.0491" font-family="Helvetica,sans-Serif" font-size="10.00">OAuthRequest\get_signable</text>
<text text-anchor="middle" x="259" y="-32.0491" font-family="Helvetica,sans-Serif" font-size="10.00">_parameters</text>
</a>
</g>
</g>
<!-- Node1&#45;&gt;Node4 -->
<g id="edge3" class="edge"><title>Node1&#45;&gt;Node4</title>
<path fill="none" stroke="midnightblue" d="M145.666,-57.3119C156.405,-55.8528 167.532,-54.3409 178.424,-52.8611"/>
<polygon fill="midnightblue" stroke="midnightblue" points="178.903,-56.3282 188.341,-51.5136 177.961,-49.3919 178.903,-56.3282"/>
</g>
<!-- Node6 -->
<g id="node6" class="node"><title>Node6</title>
<g id="a_node6"><a xlink:href="class_o_auth_util.html#adcb789bfefc729678d5188f05d19b5ba" target="_top" xlink:title="OAuthUtil\\urlencode\l_rfc3986">
<polygon fill="white" stroke="black" points="514.254,-3.04909 514.254,-35.0491 619.746,-35.0491 619.746,-3.04909 514.254,-3.04909"/>
<text text-anchor="start" x="522.254" y="-21.0491" font-family="Helvetica,sans-Serif" font-size="10.00">OAuthUtil\urlencode</text>
<text text-anchor="middle" x="567" y="-9.04909" font-family="Helvetica,sans-Serif" font-size="10.00">_rfc3986</text>
</a>
</g>
</g>
<!-- Node1&#45;&gt;Node6 -->
<g id="edge6" class="edge"><title>Node1&#45;&gt;Node6</title>
<path fill="none" stroke="midnightblue" d="M99.8888,-50.8124C121.062,-38.5446 152.257,-22.7185 182,-16.0491 293.286,8.90556 427.314,-0.830792 503.995,-10.0377"/>
<polygon fill="midnightblue" stroke="midnightblue" points="503.615,-13.5173 513.969,-11.2714 504.475,-6.57028 503.615,-13.5173"/>
</g>
<!-- Node5 -->
<g id="node5" class="node"><title>Node5</title>
<g id="a_node5"><a xlink:href="class_o_auth_util.html#afa225b04225a3b8abe804ee294e0d631" target="_top" xlink:title="OAuthUtil\\build_http\l_query">
<polygon fill="white" stroke="black" points="372.53,-26.0491 372.53,-58.0491 477.47,-58.0491 477.47,-26.0491 372.53,-26.0491"/>
<text text-anchor="start" x="380.53" y="-44.0491" font-family="Helvetica,sans-Serif" font-size="10.00">OAuthUtil\build_http</text>
<text text-anchor="middle" x="425" y="-32.0491" font-family="Helvetica,sans-Serif" font-size="10.00">_query</text>
</a>
</g>
</g>
<!-- Node4&#45;&gt;Node5 -->
<g id="edge4" class="edge"><title>Node4&#45;&gt;Node5</title>
<path fill="none" stroke="midnightblue" d="M329.551,-42.0491C340.401,-42.0491 351.548,-42.0491 362.21,-42.0491"/>
<polygon fill="midnightblue" stroke="midnightblue" points="362.257,-45.5492 372.257,-42.0491 362.257,-38.5492 362.257,-45.5492"/>
</g>
<!-- Node5&#45;&gt;Node6 -->
<g id="edge5" class="edge"><title>Node5&#45;&gt;Node6</title>
<path fill="none" stroke="midnightblue" d="M477.733,-33.5501C486.243,-32.1521 495.14,-30.6904 503.871,-29.256"/>
<polygon fill="midnightblue" stroke="midnightblue" points="504.712,-32.6649 514.012,-27.59 503.577,-25.7575 504.712,-32.6649"/>
</g>
</g>
</svg>
        <g id="navigator" transform="translate(0 0)" fill="#404254">
                <rect fill="#f2f5e9" fill-opacity="0.5" stroke="#606060" stroke-width=".5" x="0" y="0" width="60" height="60"/>
                <use id="zoomplus" xlink:href="#zoomPlus" x="17" y="9" onmousedown="handleZoom(evt,'in')"/>
                <use id="zoomminus" xlink:href="#zoomMin" x="42" y="9" onmousedown="handleZoom(evt,'out')"/>
                <use id="reset" xlink:href="#resetDef" x="30" y="36" onmousedown="handleReset()"/>
                <g id="arrowUp" xlink:href="#dirArrow" transform="translate(30 24)" onmousedown="handlePan(0,-1)">
                  <use xlink:href="#rim" fill="#404040">
                        <set attributeName="fill" to="#808080" begin="arrowUp.mouseover" end="arrowUp.mouseout"/>
                  </use>
                  <path fill="none" stroke="white" stroke-width="1.5" d="M0,-3.0v7 M-2.5,-0.5L0,-3.0L2.5,-0.5"/>
                </g>
                <g id="arrowRight" xlink:href="#dirArrow" transform="rotate(90) translate(36 -43)" onmousedown="handlePan(1,0)">
                  <use xlink:href="#rim" fill="#404040">
                        <set attributeName="fill" to="#808080" begin="arrowRight.mouseover" end="arrowRight.mouseout"/>
                  </use>
                  <path fill="none" stroke="white" stroke-width="1.5" d="M0,-3.0v7 M-2.5,-0.5L0,-3.0L2.5,-0.5"/>
                </g>
                <g id="arrowDown" xlink:href="#dirArrow" transform="rotate(180) translate(-30 -48)" onmousedown="handlePan(0,1)">
                  <use xlink:href="#rim" fill="#404040">
                        <set attributeName="fill" to="#808080" begin="arrowDown.mouseover" end="arrowDown.mouseout"/>
                  </use>
                  <path fill="none" stroke="white" stroke-width="1.5" d="M0,-3.0v7 M-2.5,-0.5L0,-3.0L2.5,-0.5"/>
                </g>
                <g id="arrowLeft" xlink:href="#dirArrow" transform="rotate(270) translate(-36 17)" onmousedown="handlePan(-1,0)">
                  <use xlink:href="#rim" fill="#404040">
                        <set attributeName="fill" to="#808080" begin="arrowLeft.mouseover" end="arrowLeft.mouseout"/>
                  </use>
                  <path fill="none" stroke="white" stroke-width="1.5" d="M0,-3.0v7 M-2.5,-0.5L0,-3.0L2.5,-0.5"/>
                </g>
        </g>
        <svg viewBox="0 0 15 15" width="100%" height="30px" preserveAspectRatio="xMaxYMin meet">
         <g id="arrow_out" transform="scale(0.3 0.3)">
          <a xlink:href="class_o_auth_request_a91adca76e918ade136d9c56a46695e46_cgraph_org.svg" target="_base">
           <rect id="button" ry="5" rx="5" y="6" x="6" height="38" width="38"
                fill="#f2f5e9" fill-opacity="0.5" stroke="#606060" stroke-width="1.0"/>
           <path id="arrow"
             d="M 11.500037,31.436501 C 11.940474,20.09759 22.043105,11.32322 32.158766,21.979434 L 37.068811,17.246167 C 37.068811,17.246167 37.088388,32 37.088388,32 L 22.160133,31.978069 C 22.160133,31.978069 26.997745,27.140456 26.997745,27.140456 C 18.528582,18.264221 13.291696,25.230495 11.500037,31.436501 z"
             style="fill:#404040;"/>
          </a>
         </g>
        </svg>
</svg>
