<?xml version="1.0" encoding="UTF-8" standalone="no"?>
<!DOCTYPE svg PUBLIC "-//W3C//DTD SVG 1.1//EN"
 "http://www.w3.org/Graphics/SVG/1.1/DTD/svg11.dtd">
<!-- Generated by graphviz version 2.30.1 (20130221.2233)
 -->
<!-- Title: PersonalInformation\createStruct Pages: 1 -->
<svg width="462pt" height="79pt"
 viewBox="0.00 0.00 462.00 79.00" xmlns="http://www.w3.org/2000/svg" xmlns:xlink="http://www.w3.org/1999/xlink">
<g id="graph0" class="graph" transform="scale(1 1) rotate(0) translate(4 75)">
<title>PersonalInformation\createStruct</title>
<polygon fill="white" stroke="white" points="-4,5 -4,-75 459,-75 459,5 -4,5"/>
<!-- Node1 -->
<g id="node1" class="node"><title>Node1</title>
<polygon fill="#bfbfbf" stroke="black" points="0.253906,-22 0.253906,-54 105.746,-54 105.746,-22 0.253906,-22"/>
<text text-anchor="start" x="8.25391" y="-40" font-family="Helvetica,sans-Serif" font-size="10.00">PersonalInformation</text>
<text text-anchor="middle" x="53" y="-28" font-family="Helvetica,sans-Serif" font-size="10.00">\createStruct</text>
</g>
<!-- Node2 -->
<g id="node2" class="node"><title>Node2</title>
<g id="a_node2"><a xlink:href="class_registrant.html#ad4b8e691543ae4ed0516bf34e0fe399a" target="_top" xlink:title="Create an associative array of object properties from XML. ">
<polygon fill="white" stroke="black" points="141.867,-28 141.867,-48 260.133,-48 260.133,-28 141.867,-28"/>
<text text-anchor="middle" x="201" y="-34" font-family="Helvetica,sans-Serif" font-size="10.00">Registrant\createStruct</text>
</a>
</g>
</g>
<!-- Node1&#45;&gt;Node2 -->
<g id="edge1" class="edge"><title>Node1&#45;&gt;Node2</title>
<path fill="none" stroke="midnightblue" d="M116.142,-38C124.66,-38 133.379,-38 141.822,-38"/>
<polygon fill="midnightblue" stroke="midnightblue" points="115.885,-34.5001 105.885,-38 115.885,-41.5001 115.885,-34.5001"/>
</g>
<!-- Node3 -->
<g id="node3" class="node"><title>Node3</title>
<g id="a_node3"><a xlink:href="class_events_collection.html#a6baab87fc0a58669c4b88cb2625c4b8a" target="_top" xlink:title="Get a page of Registrants for an Event. ">
<polygon fill="white" stroke="black" points="296.131,-51 296.131,-71 453.869,-71 453.869,-51 296.131,-51"/>
<text text-anchor="middle" x="375" y="-57" font-family="Helvetica,sans-Serif" font-size="10.00">EventsCollection\getRegistrants</text>
</a>
</g>
</g>
<!-- Node2&#45;&gt;Node3 -->
<g id="edge2" class="edge"><title>Node2&#45;&gt;Node3</title>
<path fill="none" stroke="midnightblue" d="M270.334,-47.1377C279.773,-48.3999 289.508,-49.7017 299.059,-50.9788"/>
<polygon fill="midnightblue" stroke="midnightblue" points="270.607,-43.6431 260.231,-45.7868 269.679,-50.5814 270.607,-43.6431"/>
</g>
<!-- Node4 -->
<g id="node4" class="node"><title>Node4</title>
<g id="a_node4"><a xlink:href="class_events_collection.html#a7ab04dcbb2dd3baed275acf7cf658055" target="_top" xlink:title="Get details for an Event Registrant. ">
<polygon fill="white" stroke="black" points="298.631,-0 298.631,-32 451.369,-32 451.369,-0 298.631,-0"/>
<text text-anchor="start" x="306.631" y="-18" font-family="Helvetica,sans-Serif" font-size="10.00">EventsCollection\getRegistrant</text>
<text text-anchor="middle" x="375" y="-6" font-family="Helvetica,sans-Serif" font-size="10.00">Details</text>
</a>
</g>
</g>
<!-- Node2&#45;&gt;Node4 -->
<g id="edge3" class="edge"><title>Node2&#45;&gt;Node4</title>
<path fill="none" stroke="midnightblue" d="M270.174,-29.2801C279.462,-28.0921 289.04,-26.867 298.449,-25.6635"/>
<polygon fill="midnightblue" stroke="midnightblue" points="269.706,-25.8113 260.231,-30.5518 270.595,-32.7547 269.706,-25.8113"/>
</g>
</g>
</svg>
