<?xml version="1.0" encoding="UTF-8" standalone="no"?>
<!DOCTYPE svg PUBLIC "-//W3C//DTD SVG 1.1//EN"
 "http://www.w3.org/Graphics/SVG/1.1/DTD/svg11.dtd">
<!-- Generated by graphviz version 2.30.1 (20130221.2233)
 -->
<!-- Title: CCObject\validate Pages: 1 -->
<svg width="430pt" height="362pt"
 viewBox="0.00 0.00 430.00 362.00" xmlns="http://www.w3.org/2000/svg" xmlns:xlink="http://www.w3.org/1999/xlink">
<g id="graph0" class="graph" transform="scale(1 1) rotate(0) translate(4 358)">
<title>CCObject\validate</title>
<polygon fill="white" stroke="white" points="-4,5 -4,-358 427,-358 427,5 -4,5"/>
<!-- Node1 -->
<g id="node1" class="node"><title>Node1</title>
<polygon fill="#bfbfbf" stroke="black" points="0.70459,-103 0.70459,-123 97.2954,-123 97.2954,-103 0.70459,-103"/>
<text text-anchor="middle" x="49" y="-109" font-family="Helvetica,sans-Serif" font-size="10.00">CCObject\validate</text>
</g>
<!-- Node2 -->
<g id="node2" class="node"><title>Node2</title>
<g id="a_node2"><a xlink:href="class_contact_list.html#a89e0e4f328baaf6e8e5bca2bd2df7c2c" target="_top" xlink:title="Create XML Representation of the object. ">
<polygon fill="white" stroke="black" points="134.091,-295 134.091,-315 247.909,-315 247.909,-295 134.091,-295"/>
<text text-anchor="middle" x="191" y="-301" font-family="Helvetica,sans-Serif" font-size="10.00">ContactList\createXml</text>
</a>
</g>
</g>
<!-- Node1&#45;&gt;Node2 -->
<g id="edge1" class="edge"><title>Node1&#45;&gt;Node2</title>
<path fill="none" stroke="midnightblue" d="M63.3327,-131.285C92.199,-170.873 159.708,-263.456 182.403,-294.581"/>
<polygon fill="midnightblue" stroke="midnightblue" points="66.0497,-129.07 57.3299,-123.052 60.3936,-133.195 66.0497,-129.07"/>
</g>
<!-- Node5 -->
<g id="node5" class="node"><title>Node5</title>
<g id="a_node5"><a xlink:href="class_contact.html#a80e6087c0b49cfa360ec7c1bbee70103" target="_top" xlink:title="Create XML Representation of the object. ">
<polygon fill="white" stroke="black" points="141.872,-199 141.872,-219 240.128,-219 240.128,-199 141.872,-199"/>
<text text-anchor="middle" x="191" y="-205" font-family="Helvetica,sans-Serif" font-size="10.00">Contact\createXml</text>
</a>
</g>
</g>
<!-- Node1&#45;&gt;Node5 -->
<g id="edge4" class="edge"><title>Node1&#45;&gt;Node5</title>
<path fill="none" stroke="midnightblue" d="M72.9952,-128.768C101.877,-148.573 150.605,-181.986 175.058,-198.754"/>
<polygon fill="midnightblue" stroke="midnightblue" points="74.9445,-125.861 64.7178,-123.092 70.9858,-131.634 74.9445,-125.861"/>
</g>
<!-- Node8 -->
<g id="node8" class="node"><title>Node8</title>
<g id="a_node8"><a xlink:href="class_campaign.html#aa4d8bd6f5325907af5125ec983d51e99" target="_top" xlink:title="Create XML Representation of the object. ">
<polygon fill="white" stroke="black" points="136.313,-123 136.313,-143 245.687,-143 245.687,-123 136.313,-123"/>
<text text-anchor="middle" x="191" y="-129" font-family="Helvetica,sans-Serif" font-size="10.00">Campaign\createXml</text>
</a>
</g>
</g>
<!-- Node1&#45;&gt;Node8 -->
<g id="edge7" class="edge"><title>Node1&#45;&gt;Node8</title>
<path fill="none" stroke="midnightblue" d="M107.449,-121.207C116.856,-122.551 126.575,-123.939 135.897,-125.271"/>
<polygon fill="midnightblue" stroke="midnightblue" points="107.792,-117.721 97.3976,-119.771 106.802,-124.65 107.792,-117.721"/>
</g>
<!-- Node12 -->
<g id="node12" class="node"><title>Node12</title>
<g id="a_node12"><a xlink:href="class_folder.html#a39af774e4006f51baaa7e350db3ec8d6" target="_top" xlink:title="Create XML Representation of the object. ">
<polygon fill="white" stroke="black" points="144.931,-84 144.931,-104 237.069,-104 237.069,-84 144.931,-84"/>
<text text-anchor="middle" x="191" y="-90" font-family="Helvetica,sans-Serif" font-size="10.00">Folder\createXml</text>
</a>
</g>
</g>
<!-- Node1&#45;&gt;Node12 -->
<g id="edge11" class="edge"><title>Node1&#45;&gt;Node12</title>
<path fill="none" stroke="midnightblue" d="M107.587,-105.185C119.908,-103.512 132.759,-101.768 144.546,-100.169"/>
<polygon fill="midnightblue" stroke="midnightblue" points="106.836,-101.754 97.3976,-106.567 107.777,-108.691 106.836,-101.754"/>
</g>
<!-- Node14 -->
<g id="node14" class="node"><title>Node14</title>
<g id="a_node14"><a xlink:href="class_image.html#a6e5a2e05265867312278ead99b66556f" target="_top" xlink:title="Create XML Representation of the object. ">
<polygon fill="white" stroke="black" points="145.207,-45 145.207,-65 236.793,-65 236.793,-45 145.207,-45"/>
<text text-anchor="middle" x="191" y="-51" font-family="Helvetica,sans-Serif" font-size="10.00">Image\createXml</text>
</a>
</g>
</g>
<!-- Node1&#45;&gt;Node14 -->
<g id="edge13" class="edge"><title>Node1&#45;&gt;Node14</title>
<path fill="none" stroke="midnightblue" d="M80.1725,-98.6288C96.0547,-91.2484 115.934,-82.2984 134,-75 142.519,-71.5585 151.883,-68.0926 160.475,-65.0352"/>
<polygon fill="midnightblue" stroke="midnightblue" points="78.4245,-95.5826 70.852,-102.993 81.3926,-101.922 78.4245,-95.5826"/>
</g>
<!-- Node15 -->
<g id="node15" class="node"><title>Node15</title>
<g id="a_node15"><a xlink:href="class_schedule.html#a2d0d675bfae098ed8c87fc0f473f8ad6" target="_top" xlink:title="Schedule\\createXml">
<polygon fill="white" stroke="black" points="138.254,-6 138.254,-26 243.746,-26 243.746,-6 138.254,-6"/>
<text text-anchor="middle" x="191" y="-12" font-family="Helvetica,sans-Serif" font-size="10.00">Schedule\createXml</text>
</a>
</g>
</g>
<!-- Node1&#45;&gt;Node15 -->
<g id="edge14" class="edge"><title>Node1&#45;&gt;Node15</title>
<path fill="none" stroke="midnightblue" d="M65.4421,-95.2023C81.1865,-78.0047 107.063,-52.2378 134,-36 140.454,-32.1093 147.781,-28.8112 154.958,-26.0841"/>
<polygon fill="midnightblue" stroke="midnightblue" points="62.6324,-93.0933 58.5667,-102.877 67.8462,-97.7641 62.6324,-93.0933"/>
</g>
<!-- Node3 -->
<g id="node3" class="node"><title>Node3</title>
<g id="a_node3"><a xlink:href="class_lists_collection.html#ae86ac9787cede610e609395c71d9180c" target="_top" xlink:title="Add a new list to Constant Contact account. ">
<polygon fill="white" stroke="black" points="295.251,-334 295.251,-354 410.749,-354 410.749,-334 295.251,-334"/>
<text text-anchor="middle" x="353" y="-340" font-family="Helvetica,sans-Serif" font-size="10.00">ListsCollection\addList</text>
</a>
</g>
</g>
<!-- Node2&#45;&gt;Node3 -->
<g id="edge2" class="edge"><title>Node2&#45;&gt;Node3</title>
<path fill="none" stroke="midnightblue" d="M243.016,-317.435C264.948,-322.781 290.24,-328.946 310.936,-333.991"/>
<polygon fill="midnightblue" stroke="midnightblue" points="243.748,-314.011 233.204,-315.043 242.091,-320.812 243.748,-314.011"/>
</g>
<!-- Node4 -->
<g id="node4" class="node"><title>Node4</title>
<g id="a_node4"><a xlink:href="class_lists_collection.html#a3694026dd4e0ecd253a4232a00ef11e8" target="_top" xlink:title="Update a ContactList. ">
<polygon fill="white" stroke="black" points="288.301,-295 288.301,-315 417.699,-315 417.699,-295 288.301,-295"/>
<text text-anchor="middle" x="353" y="-301" font-family="Helvetica,sans-Serif" font-size="10.00">ListsCollection\updateList</text>
</a>
</g>
</g>
<!-- Node2&#45;&gt;Node4 -->
<g id="edge3" class="edge"><title>Node2&#45;&gt;Node4</title>
<path fill="none" stroke="midnightblue" d="M258.156,-305C268.067,-305 278.27,-305 288.131,-305"/>
<polygon fill="midnightblue" stroke="midnightblue" points="257.96,-301.5 247.96,-305 257.96,-308.5 257.96,-301.5"/>
</g>
<!-- Node6 -->
<g id="node6" class="node"><title>Node6</title>
<g id="a_node6"><a xlink:href="class_contacts_collection.html#a58610b21a633bfe30cc66a5f54a107a7" target="_top" xlink:title="Add a contact to account. ">
<polygon fill="white" stroke="black" points="303.313,-244 303.313,-276 402.687,-276 402.687,-244 303.313,-244"/>
<text text-anchor="start" x="311.313" y="-262" font-family="Helvetica,sans-Serif" font-size="10.00">ContactsCollection</text>
<text text-anchor="middle" x="353" y="-250" font-family="Helvetica,sans-Serif" font-size="10.00">\addContact</text>
</a>
</g>
</g>
<!-- Node5&#45;&gt;Node6 -->
<g id="edge5" class="edge"><title>Node5&#45;&gt;Node6</title>
<path fill="none" stroke="midnightblue" d="M233.344,-222.178C254.665,-228.974 280.808,-237.308 303.124,-244.421"/>
<polygon fill="midnightblue" stroke="midnightblue" points="234.202,-218.778 223.611,-219.076 232.076,-225.448 234.202,-218.778"/>
</g>
<!-- Node7 -->
<g id="node7" class="node"><title>Node7</title>
<g id="a_node7"><a xlink:href="class_contacts_collection.html#a7b797f7d3ca86f6ade7c4266f56e3699" target="_top" xlink:title="Update a Contact. ">
<polygon fill="white" stroke="black" points="303.313,-193 303.313,-225 402.687,-225 402.687,-193 303.313,-193"/>
<text text-anchor="start" x="311.313" y="-211" font-family="Helvetica,sans-Serif" font-size="10.00">ContactsCollection</text>
<text text-anchor="middle" x="353" y="-199" font-family="Helvetica,sans-Serif" font-size="10.00">\updateContact</text>
</a>
</g>
</g>
<!-- Node5&#45;&gt;Node7 -->
<g id="edge6" class="edge"><title>Node5&#45;&gt;Node7</title>
<path fill="none" stroke="midnightblue" d="M250.44,-209C267.758,-209 286.532,-209 303.173,-209"/>
<polygon fill="midnightblue" stroke="midnightblue" points="250.44,-205.5 240.439,-209 250.439,-212.5 250.44,-205.5"/>
</g>
<!-- Node9 -->
<g id="node9" class="node"><title>Node9</title>
<g id="a_node9"><a xlink:href="class_campaigns_collection.html#a4bbf8266fa150e04a4bff5a8052967a6" target="_top" xlink:title="Add a new Campaign. ">
<polygon fill="white" stroke="black" points="297.754,-142 297.754,-174 408.246,-174 408.246,-142 297.754,-142"/>
<text text-anchor="start" x="305.754" y="-160" font-family="Helvetica,sans-Serif" font-size="10.00">CampaignsCollection</text>
<text text-anchor="middle" x="353" y="-148" font-family="Helvetica,sans-Serif" font-size="10.00">\addCampaign</text>
</a>
</g>
</g>
<!-- Node8&#45;&gt;Node9 -->
<g id="edge8" class="edge"><title>Node8&#45;&gt;Node9</title>
<path fill="none" stroke="midnightblue" d="M255.682,-142.95C269.56,-145.119 284.122,-147.394 297.601,-149.5"/>
<polygon fill="midnightblue" stroke="midnightblue" points="256.143,-139.48 245.723,-141.394 255.063,-146.396 256.143,-139.48"/>
</g>
<!-- Node10 -->
<g id="node10" class="node"><title>Node10</title>
<g id="a_node10"><a xlink:href="class_campaigns_collection.html#a0d5df67f0dd50c64257c8b0135196509" target="_top" xlink:title="Schedule an email for delivery. ">
<polygon fill="white" stroke="black" points="297.754,-91 297.754,-123 408.246,-123 408.246,-91 297.754,-91"/>
<text text-anchor="start" x="305.754" y="-109" font-family="Helvetica,sans-Serif" font-size="10.00">CampaignsCollection</text>
<text text-anchor="middle" x="353" y="-97" font-family="Helvetica,sans-Serif" font-size="10.00">\scheduleCampaign</text>
</a>
</g>
</g>
<!-- Node8&#45;&gt;Node10 -->
<g id="edge9" class="edge"><title>Node8&#45;&gt;Node10</title>
<path fill="none" stroke="midnightblue" d="M255.682,-122.652C269.56,-120.396 284.122,-118.03 297.601,-115.84"/>
<polygon fill="midnightblue" stroke="midnightblue" points="255.032,-119.211 245.723,-124.27 256.155,-126.121 255.032,-119.211"/>
</g>
<!-- Node11 -->
<g id="node11" class="node"><title>Node11</title>
<g id="a_node11"><a xlink:href="class_campaigns_collection.html#a9c9715edb4f23ba515ce7b53a38cfdbb" target="_top" xlink:title="Update a campaign with it&#39;s current properties. ">
<polygon fill="white" stroke="black" points="297.754,-40 297.754,-72 408.246,-72 408.246,-40 297.754,-40"/>
<text text-anchor="start" x="305.754" y="-58" font-family="Helvetica,sans-Serif" font-size="10.00">CampaignsCollection</text>
<text text-anchor="middle" x="353" y="-46" font-family="Helvetica,sans-Serif" font-size="10.00">\updateCampaign</text>
</a>
</g>
</g>
<!-- Node8&#45;&gt;Node11 -->
<g id="edge10" class="edge"><title>Node8&#45;&gt;Node11</title>
<path fill="none" stroke="midnightblue" d="M235.717,-119.186C239.966,-117.314 244.131,-115.251 248,-113 266.25,-102.381 265.869,-92.8205 284,-82 290.186,-78.308 296.989,-74.9712 303.827,-72.0143"/>
<polygon fill="midnightblue" stroke="midnightblue" points="234.31,-115.98 226.36,-122.984 236.943,-122.466 234.31,-115.98"/>
</g>
<!-- Node13 -->
<g id="node13" class="node"><title>Node13</title>
<g id="a_node13"><a xlink:href="class_library_collection.html#affc91465d0f01c4ede19c149424ea7f2" target="_top" xlink:title="Add a new Folder. ">
<polygon fill="white" stroke="black" points="283.857,-1 283.857,-21 422.143,-21 422.143,-1 283.857,-1"/>
<text text-anchor="middle" x="353" y="-7" font-family="Helvetica,sans-Serif" font-size="10.00">LibraryCollection\addFolder</text>
</a>
</g>
</g>
<!-- Node12&#45;&gt;Node13 -->
<g id="edge12" class="edge"><title>Node12&#45;&gt;Node13</title>
<path fill="none" stroke="midnightblue" d="M238.197,-79.7997C241.628,-78.0598 244.94,-76.1316 248,-74 268.452,-59.7542 263.15,-44.6575 284,-31 290.176,-26.9543 297.193,-23.7064 304.316,-21.1045"/>
<polygon fill="midnightblue" stroke="midnightblue" points="236.606,-76.6774 228.926,-83.9754 239.481,-83.0599 236.606,-76.6774"/>
</g>
</g>
</svg>
