<?xml version="1.0" encoding="UTF-8" standalone="no"?>
<!DOCTYPE svg PUBLIC "-//W3C//DTD SVG 1.1//EN"
 "http://www.w3.org/Graphics/SVG/1.1/DTD/svg11.dtd">
<!-- Generated by graphviz version 2.30.1 (20130221.2233)
 -->
<!-- Title: JsonLoader\getListJson Pages: 1 -->
<svg width="268pt" height="142pt"
 viewBox="0.00 0.00 268.00 142.00" xmlns="http://www.w3.org/2000/svg" xmlns:xlink="http://www.w3.org/1999/xlink">
<g id="graph0" class="graph" transform="scale(1 1) rotate(0) translate(4 138)">
<title>JsonLoader\getListJson</title>
<polygon fill="white" stroke="white" points="-4,5 -4,-138 265,-138 265,5 -4,5"/>
<!-- Node1 -->
<g id="node1" class="node"><title>Node1</title>
<polygon fill="#bfbfbf" stroke="black" points="0.1875,-57 0.1875,-77 121.812,-77 121.812,-57 0.1875,-57"/>
<text text-anchor="middle" x="61" y="-63" font-family="Helvetica,sans-Serif" font-size="10.00">JsonLoader\getListJson</text>
</g>
<!-- Node2 -->
<g id="node2" class="node"><title>Node2</title>
<g id="a_node2"><a xlink:href="class_list_service_unit_test.html#a16dfb3cc39b8e586518827469bb065f8" target="_top" xlink:title="ListServiceUnitTest\l\\testAddList">
<polygon fill="white" stroke="black" points="158.485,-102 158.485,-134 259.515,-134 259.515,-102 158.485,-102"/>
<text text-anchor="start" x="166.485" y="-120" font-family="Helvetica,sans-Serif" font-size="10.00">ListServiceUnitTest</text>
<text text-anchor="middle" x="209" y="-108" font-family="Helvetica,sans-Serif" font-size="10.00">\testAddList</text>
</a>
</g>
</g>
<!-- Node1&#45;&gt;Node2 -->
<g id="edge1" class="edge"><title>Node1&#45;&gt;Node2</title>
<path fill="none" stroke="midnightblue" d="M100.318,-80.3851C119.209,-86.9841 142.138,-94.9933 161.974,-101.922"/>
<polygon fill="midnightblue" stroke="midnightblue" points="101.44,-77.0696 90.8449,-77.076 99.1313,-83.678 101.44,-77.0696"/>
</g>
<!-- Node3 -->
<g id="node3" class="node"><title>Node3</title>
<g id="a_node3"><a xlink:href="class_list_service_unit_test.html#ac1825545aa89f4de47b0b2f5f83e48b2" target="_top" xlink:title="ListServiceUnitTest\l\\testGetList">
<polygon fill="white" stroke="black" points="158.485,-51 158.485,-83 259.515,-83 259.515,-51 158.485,-51"/>
<text text-anchor="start" x="166.485" y="-69" font-family="Helvetica,sans-Serif" font-size="10.00">ListServiceUnitTest</text>
<text text-anchor="middle" x="209" y="-57" font-family="Helvetica,sans-Serif" font-size="10.00">\testGetList</text>
</a>
</g>
</g>
<!-- Node1&#45;&gt;Node3 -->
<g id="edge2" class="edge"><title>Node1&#45;&gt;Node3</title>
<path fill="none" stroke="midnightblue" d="M132.383,-67C141.079,-67 149.824,-67 158.125,-67"/>
<polygon fill="midnightblue" stroke="midnightblue" points="132.227,-63.5001 122.227,-67 132.227,-70.5001 132.227,-63.5001"/>
</g>
<!-- Node4 -->
<g id="node4" class="node"><title>Node4</title>
<g id="a_node4"><a xlink:href="class_list_service_unit_test.html#abe406fd6614fb7533f9e1436a5c66170" target="_top" xlink:title="ListServiceUnitTest\l\\testUpdateList">
<polygon fill="white" stroke="black" points="158.485,-0 158.485,-32 259.515,-32 259.515,-0 158.485,-0"/>
<text text-anchor="start" x="166.485" y="-18" font-family="Helvetica,sans-Serif" font-size="10.00">ListServiceUnitTest</text>
<text text-anchor="middle" x="209" y="-6" font-family="Helvetica,sans-Serif" font-size="10.00">\testUpdateList</text>
</a>
</g>
</g>
<!-- Node1&#45;&gt;Node4 -->
<g id="edge3" class="edge"><title>Node1&#45;&gt;Node4</title>
<path fill="none" stroke="midnightblue" d="M100.318,-53.6149C119.209,-47.0159 142.138,-39.0067 161.974,-32.0777"/>
<polygon fill="midnightblue" stroke="midnightblue" points="99.1313,-50.322 90.8449,-56.924 101.44,-56.9304 99.1313,-50.322"/>
</g>
</g>
</svg>
