<?xml version="1.0" encoding="UTF-8" standalone="no"?>
<!DOCTYPE svg PUBLIC "-//W3C//DTD SVG 1.1//EN"
 "http://www.w3.org/Graphics/SVG/1.1/DTD/svg11.dtd">
<!-- Generated by graphviz version 2.30.1 (20130221.2233)
 -->
<!-- Title: EventsCollection\getRegistrants Pages: 1 -->
<svg width="698pt" height="259pt"
 viewBox="0.00 0.00 698.00 259.00" xmlns="http://www.w3.org/2000/svg" xmlns:xlink="http://www.w3.org/1999/xlink">
<g id="graph0" class="graph" transform="scale(1 1) rotate(0) translate(4 255)">
<title>EventsCollection\getRegistrants</title>
<polygon fill="white" stroke="white" points="-4,5 -4,-255 695,-255 695,5 -4,5"/>
<!-- Node1 -->
<g id="node1" class="node"><title>Node1</title>
<polygon fill="#bfbfbf" stroke="black" points="0.130859,-87 0.130859,-107 157.869,-107 157.869,-87 0.130859,-87"/>
<text text-anchor="middle" x="79" y="-93" font-family="Helvetica,sans-Serif" font-size="10.00">EventsCollection\getRegistrants</text>
</g>
<!-- Node2 -->
<g id="node2" class="node"><title>Node2</title>
<g id="a_node2"><a xlink:href="class_registrant.html#ad4b8e691543ae4ed0516bf34e0fe399a" target="_top" xlink:title="Create an associative array of object properties from XML. ">
<polygon fill="white" stroke="black" points="206.867,-129 206.867,-149 325.133,-149 325.133,-129 206.867,-129"/>
<text text-anchor="middle" x="266" y="-135" font-family="Helvetica,sans-Serif" font-size="10.00">Registrant\createStruct</text>
</a>
</g>
</g>
<!-- Node1&#45;&gt;Node2 -->
<g id="edge1" class="edge"><title>Node1&#45;&gt;Node2</title>
<path fill="none" stroke="midnightblue" d="M124.312,-107.06C150.303,-112.961 183.336,-120.46 210.861,-126.709"/>
<polygon fill="midnightblue" stroke="midnightblue" points="210.202,-130.148 220.729,-128.949 211.752,-123.322 210.202,-130.148"/>
</g>
<!-- Node7 -->
<g id="node7" class="node"><title>Node7</title>
<g id="a_node7"><a xlink:href="class_utility.html#a50ac241bcff31b7348d0f623f2ab3d4c" target="_top" xlink:title="Find the next link from collection XML. ">
<polygon fill="white" stroke="black" points="216.875,-87 216.875,-107 315.125,-107 315.125,-87 216.875,-87"/>
<text text-anchor="middle" x="266" y="-93" font-family="Helvetica,sans-Serif" font-size="10.00">Utility\findNextLink</text>
</a>
</g>
</g>
<!-- Node1&#45;&gt;Node7 -->
<g id="edge6" class="edge"><title>Node1&#45;&gt;Node7</title>
<path fill="none" stroke="midnightblue" d="M157.92,-97C174.128,-97 190.947,-97 206.321,-97"/>
<polygon fill="midnightblue" stroke="midnightblue" points="206.709,-100.5 216.709,-97 206.709,-93.5001 206.709,-100.5"/>
</g>
<!-- Node8 -->
<g id="node8" class="node"><title>Node8</title>
<g id="a_node8"><a xlink:href="class_c_t_c_t_request.html#aad92e5787f6d3fdf00760d99505aa6db" target="_top" xlink:title="CTCTRequest\\makeRequest">
<polygon fill="white" stroke="black" points="193.808,-45 193.808,-65 338.192,-65 338.192,-45 193.808,-45"/>
<text text-anchor="middle" x="266" y="-51" font-family="Helvetica,sans-Serif" font-size="10.00">CTCTRequest\makeRequest</text>
</a>
</g>
</g>
<!-- Node1&#45;&gt;Node8 -->
<g id="edge7" class="edge"><title>Node1&#45;&gt;Node8</title>
<path fill="none" stroke="midnightblue" d="M124.312,-86.94C150.303,-81.0394 183.336,-73.54 210.861,-67.2911"/>
<polygon fill="midnightblue" stroke="midnightblue" points="211.752,-70.6778 220.729,-65.0507 210.202,-63.8515 211.752,-70.6778"/>
</g>
<!-- Node3 -->
<g id="node3" class="node"><title>Node3</title>
<g id="a_node3"><a xlink:href="class_personal_information.html#a459c575ff93d4a7f0662baa439a454d0" target="_top" xlink:title="Create array from associative array of object properties. ">
<polygon fill="white" stroke="black" points="398.254,-219 398.254,-251 503.746,-251 503.746,-219 398.254,-219"/>
<text text-anchor="start" x="406.254" y="-237" font-family="Helvetica,sans-Serif" font-size="10.00">PersonalInformation</text>
<text text-anchor="middle" x="451" y="-225" font-family="Helvetica,sans-Serif" font-size="10.00">\createStruct</text>
</a>
</g>
</g>
<!-- Node2&#45;&gt;Node3 -->
<g id="edge2" class="edge"><title>Node2&#45;&gt;Node3</title>
<path fill="none" stroke="midnightblue" d="M280.2,-149.207C299.784,-163.978 338.099,-191.459 374,-209 378.658,-211.276 383.565,-213.439 388.551,-215.474"/>
<polygon fill="midnightblue" stroke="midnightblue" points="387.604,-218.861 398.193,-219.225 390.143,-212.337 387.604,-218.861"/>
</g>
<!-- Node4 -->
<g id="node4" class="node"><title>Node4</title>
<g id="a_node4"><a xlink:href="class_business_information.html#ac7e97ef553fa2189bd85dce10999c58e" target="_top" xlink:title="Create an associative array of object properties from XML. ">
<polygon fill="white" stroke="black" points="397.7,-168 397.7,-200 504.3,-200 504.3,-168 397.7,-168"/>
<text text-anchor="start" x="405.7" y="-186" font-family="Helvetica,sans-Serif" font-size="10.00">BusinessInformation</text>
<text text-anchor="middle" x="451" y="-174" font-family="Helvetica,sans-Serif" font-size="10.00">\createStruct</text>
</a>
</g>
</g>
<!-- Node2&#45;&gt;Node4 -->
<g id="edge3" class="edge"><title>Node2&#45;&gt;Node4</title>
<path fill="none" stroke="midnightblue" d="M308.069,-149.099C331.523,-154.866 361.406,-162.215 387.696,-168.679"/>
<polygon fill="midnightblue" stroke="midnightblue" points="387.029,-172.12 397.576,-171.109 388.701,-165.322 387.029,-172.12"/>
</g>
<!-- Node5 -->
<g id="node5" class="node"><title>Node5</title>
<g id="a_node5"><a xlink:href="class_custom_field.html#a4e25506f8bdd629223fcf0ef94b508c0" target="_top" xlink:title="Create CustomField object from XML. ">
<polygon fill="white" stroke="black" points="379.375,-129 379.375,-149 522.625,-149 522.625,-129 379.375,-129"/>
<text text-anchor="middle" x="451" y="-135" font-family="Helvetica,sans-Serif" font-size="10.00">CustomField\createFromXml</text>
</a>
</g>
</g>
<!-- Node2&#45;&gt;Node5 -->
<g id="edge4" class="edge"><title>Node2&#45;&gt;Node5</title>
<path fill="none" stroke="midnightblue" d="M325.154,-139C339.1,-139 354.242,-139 369.015,-139"/>
<polygon fill="midnightblue" stroke="midnightblue" points="369.164,-142.5 379.164,-139 369.164,-135.5 369.164,-142.5"/>
</g>
<!-- Node6 -->
<g id="node6" class="node"><title>Node6</title>
<g id="a_node6"><a xlink:href="class_cost.html#ace3bfdbf89c0bd466208d0ea5f2e62f1" target="_top" xlink:title="Create associative array of object properties. ">
<polygon fill="white" stroke="black" points="404.375,-90 404.375,-110 497.625,-110 497.625,-90 404.375,-90"/>
<text text-anchor="middle" x="451" y="-96" font-family="Helvetica,sans-Serif" font-size="10.00">Cost\createStruct</text>
</a>
</g>
</g>
<!-- Node2&#45;&gt;Node6 -->
<g id="edge5" class="edge"><title>Node2&#45;&gt;Node6</title>
<path fill="none" stroke="midnightblue" d="M314.127,-128.957C338.622,-123.736 368.714,-117.323 394.348,-111.86"/>
<polygon fill="midnightblue" stroke="midnightblue" points="395.246,-115.248 404.297,-109.74 393.787,-108.401 395.246,-115.248"/>
</g>
<!-- Node9 -->
<g id="node9" class="node"><title>Node9</title>
<g id="a_node9"><a xlink:href="class_o_auth_request.html#afe9d0f6cb8e0dadb1c0faeea9ecafe45" target="_top" xlink:title="pretty much a helper function to set up the request ">
<polygon fill="white" stroke="black" points="374.079,-39 374.079,-71 527.921,-71 527.921,-39 374.079,-39"/>
<text text-anchor="start" x="382.079" y="-57" font-family="Helvetica,sans-Serif" font-size="10.00">OAuthRequest\from_consumer</text>
<text text-anchor="middle" x="451" y="-45" font-family="Helvetica,sans-Serif" font-size="10.00">_and_token</text>
</a>
</g>
</g>
<!-- Node8&#45;&gt;Node9 -->
<g id="edge8" class="edge"><title>Node8&#45;&gt;Node9</title>
<path fill="none" stroke="midnightblue" d="M338.277,-55C346.716,-55 355.397,-55 364.013,-55"/>
<polygon fill="midnightblue" stroke="midnightblue" points="364.079,-58.5001 374.079,-55 364.078,-51.5001 364.079,-58.5001"/>
</g>
<!-- Node12 -->
<g id="node12" class="node"><title>Node12</title>
<g id="a_node12"><a xlink:href="class_c_t_c_t_exception.html#adc8307ec7d7a2c730b0dac678d0e7fcb" target="_top" xlink:title="CTCTException\\generateError">
<polygon fill="white" stroke="black" points="375.473,-0 375.473,-20 526.527,-20 526.527,-0 375.473,-0"/>
<text text-anchor="middle" x="451" y="-6" font-family="Helvetica,sans-Serif" font-size="10.00">CTCTException\generateError</text>
</a>
</g>
</g>
<!-- Node8&#45;&gt;Node12 -->
<g id="edge11" class="edge"><title>Node8&#45;&gt;Node12</title>
<path fill="none" stroke="midnightblue" d="M308.069,-44.9011C335.029,-38.2716 370.483,-29.5533 399.212,-22.4888"/>
<polygon fill="midnightblue" stroke="midnightblue" points="400.193,-25.8519 409.068,-20.0652 398.522,-19.0544 400.193,-25.8519"/>
</g>
<!-- Node10 -->
<g id="node10" class="node"><title>Node10</title>
<g id="a_node10"><a xlink:href="class_o_auth_request.html#ae544b1c10b82d5a82dcc259064763420" target="_top" xlink:title="util function: current nonce ">
<polygon fill="white" stroke="black" points="565.074,-90 565.074,-122 688.926,-122 688.926,-90 565.074,-90"/>
<text text-anchor="start" x="573.074" y="-108" font-family="Helvetica,sans-Serif" font-size="10.00">OAuthRequest\generate</text>
<text text-anchor="middle" x="627" y="-96" font-family="Helvetica,sans-Serif" font-size="10.00">_nonce</text>
</a>
</g>
</g>
<!-- Node9&#45;&gt;Node10 -->
<g id="edge9" class="edge"><title>Node9&#45;&gt;Node10</title>
<path fill="none" stroke="midnightblue" d="M507.055,-71.1367C524.36,-76.209 543.624,-81.8552 561.522,-87.1012"/>
<polygon fill="midnightblue" stroke="midnightblue" points="560.723,-90.5142 571.303,-89.9683 562.692,-83.7968 560.723,-90.5142"/>
</g>
<!-- Node11 -->
<g id="node11" class="node"><title>Node11</title>
<g id="a_node11"><a xlink:href="class_o_auth_request.html#adfc6b936799f705d9a4442961a26e8cb" target="_top" xlink:title="util function: current timestamp ">
<polygon fill="white" stroke="black" points="565.074,-39 565.074,-71 688.926,-71 688.926,-39 565.074,-39"/>
<text text-anchor="start" x="573.074" y="-57" font-family="Helvetica,sans-Serif" font-size="10.00">OAuthRequest\generate</text>
<text text-anchor="middle" x="627" y="-45" font-family="Helvetica,sans-Serif" font-size="10.00">_timestamp</text>
</a>
</g>
</g>
<!-- Node9&#45;&gt;Node11 -->
<g id="edge10" class="edge"><title>Node9&#45;&gt;Node11</title>
<path fill="none" stroke="midnightblue" d="M528.066,-55C536.939,-55 545.966,-55 554.771,-55"/>
<polygon fill="midnightblue" stroke="midnightblue" points="554.981,-58.5001 564.981,-55 554.981,-51.5001 554.981,-58.5001"/>
</g>
<!-- Node13 -->
<g id="node13" class="node"><title>Node13</title>
<g id="a_node13"><a xlink:href="class_c_t_c_t_exception.html#a6a86531406328bbd2a6c6252b7fb3a70" target="_top" xlink:title="CTCTException\\logError">
<polygon fill="white" stroke="black" points="564.54,-0 564.54,-20 689.46,-20 689.46,-0 564.54,-0"/>
<text text-anchor="middle" x="627" y="-6" font-family="Helvetica,sans-Serif" font-size="10.00">CTCTException\logError</text>
</a>
</g>
</g>
<!-- Node12&#45;&gt;Node13 -->
<g id="edge12" class="edge"><title>Node12&#45;&gt;Node13</title>
<path fill="none" stroke="midnightblue" d="M526.549,-10C535.73,-10 545.101,-10 554.239,-10"/>
<polygon fill="midnightblue" stroke="midnightblue" points="554.437,-13.5001 564.437,-10 554.436,-6.5001 554.437,-13.5001"/>
</g>
</g>
</svg>
