<?xml version="1.0" encoding="UTF-8" standalone="no"?>
<!DOCTYPE svg PUBLIC "-//W3C//DTD SVG 1.1//EN"
 "http://www.w3.org/Graphics/SVG/1.1/DTD/svg11.dtd">
<!-- Generated by graphviz version 2.30.1 (20130221.2233)
 -->
<!-- Title: EventFee\createStruct Pages: 1 -->
<svg width="616pt" height="79pt"
 viewBox="0.00 0.00 616.00 79.00" xmlns="http://www.w3.org/2000/svg" xmlns:xlink="http://www.w3.org/1999/xlink">
<g id="graph0" class="graph" transform="scale(1 1) rotate(0) translate(4 75)">
<title>EventFee\createStruct</title>
<polygon fill="white" stroke="white" points="-4,5 -4,-75 613,-75 613,5 -4,5"/>
<!-- Node1 -->
<g id="node1" class="node"><title>Node1</title>
<polygon fill="#bfbfbf" stroke="black" points="0.253906,-22 0.253906,-42 115.746,-42 115.746,-22 0.253906,-22"/>
<text text-anchor="middle" x="58" y="-28" font-family="Helvetica,sans-Serif" font-size="10.00">EventFee\createStruct</text>
</g>
<!-- Node2 -->
<g id="node2" class="node"><title>Node2</title>
<g id="a_node2"><a xlink:href="class_registration_type.html#a37e3b427edd302135828decaadfe4fe6" target="_top" xlink:title="Create an associative array of object properties from XML. ">
<polygon fill="white" stroke="black" points="152.133,-22 152.133,-42 299.867,-42 299.867,-22 152.133,-22"/>
<text text-anchor="middle" x="226" y="-28" font-family="Helvetica,sans-Serif" font-size="10.00">RegistrationType\createStruct</text>
</a>
</g>
</g>
<!-- Node1&#45;&gt;Node2 -->
<g id="edge1" class="edge"><title>Node1&#45;&gt;Node2</title>
<path fill="none" stroke="midnightblue" d="M126.292,-32C134.737,-32 143.407,-32 151.935,-32"/>
<polygon fill="midnightblue" stroke="midnightblue" points="126.128,-28.5001 116.128,-32 126.128,-35.5001 126.128,-28.5001"/>
</g>
<!-- Node3 -->
<g id="node3" class="node"><title>Node3</title>
<g id="a_node3"><a xlink:href="class_event.html#a4d2d7fcea94bab1d73fcb32e356159a4" target="_top" xlink:title="Create an associative array of object properties from XML. ">
<polygon fill="white" stroke="black" points="335.87,-22 335.87,-42 434.13,-42 434.13,-22 335.87,-22"/>
<text text-anchor="middle" x="385" y="-28" font-family="Helvetica,sans-Serif" font-size="10.00">Event\createStruct</text>
</a>
</g>
</g>
<!-- Node2&#45;&gt;Node3 -->
<g id="edge2" class="edge"><title>Node2&#45;&gt;Node3</title>
<path fill="none" stroke="midnightblue" d="M309.985,-32C318.835,-32 327.609,-32 335.855,-32"/>
<polygon fill="midnightblue" stroke="midnightblue" points="309.985,-28.5001 299.985,-32 309.984,-35.5001 309.985,-28.5001"/>
</g>
<!-- Node4 -->
<g id="node4" class="node"><title>Node4</title>
<g id="a_node4"><a xlink:href="class_events_collection.html#afb1f27cb72007acfd6f901d743c8acad" target="_top" xlink:title="Get full details for an Event object. ">
<polygon fill="white" stroke="black" points="472.633,-39 472.633,-71 605.367,-71 605.367,-39 472.633,-39"/>
<text text-anchor="start" x="480.633" y="-57" font-family="Helvetica,sans-Serif" font-size="10.00">EventsCollection\getEvent</text>
<text text-anchor="middle" x="539" y="-45" font-family="Helvetica,sans-Serif" font-size="10.00">Details</text>
</a>
</g>
</g>
<!-- Node3&#45;&gt;Node4 -->
<g id="edge3" class="edge"><title>Node3&#45;&gt;Node4</title>
<path fill="none" stroke="midnightblue" d="M444.628,-40.8714C453.748,-42.2514 463.22,-43.6847 472.481,-45.086"/>
<polygon fill="midnightblue" stroke="midnightblue" points="444.923,-37.3762 434.512,-39.3406 443.875,-44.2974 444.923,-37.3762"/>
</g>
<!-- Node5 -->
<g id="node5" class="node"><title>Node5</title>
<g id="a_node5"><a xlink:href="class_events_collection.html#ad0ab949e45693fd1d72baed5d5e5d552" target="_top" xlink:title="Get a page of Events. ">
<polygon fill="white" stroke="black" points="470.133,-0 470.133,-20 607.867,-20 607.867,-0 470.133,-0"/>
<text text-anchor="middle" x="539" y="-6" font-family="Helvetica,sans-Serif" font-size="10.00">EventsCollection\getEvents</text>
</a>
</g>
</g>
<!-- Node3&#45;&gt;Node5 -->
<g id="edge4" class="edge"><title>Node3&#45;&gt;Node5</title>
<path fill="none" stroke="midnightblue" d="M444.512,-23.5312C452.855,-22.3236 461.495,-21.073 470.001,-19.842"/>
<polygon fill="midnightblue" stroke="midnightblue" points="443.907,-20.0821 434.512,-24.9786 444.91,-27.01 443.907,-20.0821"/>
</g>
</g>
</svg>
