<?xml version="1.0" encoding="UTF-8" standalone="no"?>
<!DOCTYPE svg PUBLIC "-//W3C//DTD SVG 1.1//EN"
 "http://www.w3.org/Graphics/SVG/1.1/DTD/svg11.dtd">
<!-- Generated by graphviz version 2.30.1 (20130221.2233)
 -->
<!-- Title: CTCT_Admin_Table\do_not_esc_th Pages: 1 -->
<svg width="486pt" height="79pt"
 viewBox="0.00 0.00 486.00 79.00" xmlns="http://www.w3.org/2000/svg" xmlns:xlink="http://www.w3.org/1999/xlink">
<g id="graph0" class="graph" transform="scale(1 1) rotate(0) translate(4 75)">
<title>CTCT_Admin_Table\do_not_esc_th</title>
<polygon fill="white" stroke="white" points="-4,5 -4,-75 483,-75 483,5 -4,5"/>
<!-- Node1 -->
<g id="node1" class="node"><title>Node1</title>
<polygon fill="#bfbfbf" stroke="black" points="0.0322266,-16 0.0322266,-48 119.968,-48 119.968,-16 0.0322266,-16"/>
<text text-anchor="start" x="8.03223" y="-34" font-family="Helvetica,sans-Serif" font-size="10.00">CTCT_Admin_Table\do</text>
<text text-anchor="middle" x="60" y="-22" font-family="Helvetica,sans-Serif" font-size="10.00">_not_esc_th</text>
</g>
<!-- Node2 -->
<g id="node2" class="node"><title>Node2</title>
<g id="a_node2"><a xlink:href="class_c_t_c_t___admin___table.html#a86ee4b0a1ffc7f7fa9b41ffaac329d3b" target="_top" xlink:title="Constructor. ">
<polygon fill="white" stroke="black" points="172.813,-39 172.813,-71 287.187,-71 287.187,-39 172.813,-39"/>
<text text-anchor="start" x="180.813" y="-57" font-family="Helvetica,sans-Serif" font-size="10.00">CTCT_Admin_Table\_</text>
<text text-anchor="middle" x="230" y="-45" font-family="Helvetica,sans-Serif" font-size="10.00">_construct</text>
</a>
</g>
</g>
<!-- Node1&#45;&gt;Node2 -->
<g id="edge1" class="edge"><title>Node1&#45;&gt;Node2</title>
<path fill="none" stroke="midnightblue" d="M130.341,-41.4931C144.395,-43.4172 159.014,-45.4186 172.558,-47.2728"/>
<polygon fill="midnightblue" stroke="midnightblue" points="130.613,-37.9978 120.231,-40.1089 129.663,-44.9331 130.613,-37.9978"/>
</g>
<!-- Node3 -->
<g id="node3" class="node"><title>Node3</title>
<g id="a_node3"><a xlink:href="class_c_t_c_t___admin___table.html#adeaebbd18a2a51c37385fb7f50a0b44b" target="_top" xlink:title="Builds the table and returns HTML ready to echo to the browser. ">
<polygon fill="white" stroke="black" points="156.417,-0 156.417,-20 303.583,-20 303.583,-0 156.417,-0"/>
<text text-anchor="middle" x="230" y="-6" font-family="Helvetica,sans-Serif" font-size="10.00">CTCT_Admin_Table\get_html</text>
</a>
</g>
</g>
<!-- Node1&#45;&gt;Node3 -->
<g id="edge2" class="edge"><title>Node1&#45;&gt;Node3</title>
<path fill="none" stroke="midnightblue" d="M130.177,-22.9411C138.752,-21.8181 147.541,-20.6673 156.169,-19.5374"/>
<polygon fill="midnightblue" stroke="midnightblue" points="129.691,-19.4747 120.231,-24.2436 130.6,-26.4155 129.691,-19.4747"/>
</g>
<!-- Node4 -->
<g id="node4" class="node"><title>Node4</title>
<g id="a_node4"><a xlink:href="class_c_t_c_t___admin___table.html#a33cb1d8da54850e6aeba100bfb95145c" target="_top" xlink:title="Alias to $this&#45;&gt;render() ">
<polygon fill="white" stroke="black" points="340.141,-0 340.141,-20 477.859,-20 477.859,-0 340.141,-0"/>
<text text-anchor="middle" x="409" y="-6" font-family="Helvetica,sans-Serif" font-size="10.00">CTCT_Admin_Table\render</text>
</a>
</g>
</g>
<!-- Node3&#45;&gt;Node4 -->
<g id="edge3" class="edge"><title>Node3&#45;&gt;Node4</title>
<path fill="none" stroke="midnightblue" d="M313.97,-10C322.714,-10 331.531,-10 340.076,-10"/>
<polygon fill="midnightblue" stroke="midnightblue" points="313.759,-6.5001 303.759,-10 313.759,-13.5001 313.759,-6.5001"/>
</g>
</g>
</svg>
