<?xml version="1.0" encoding="UTF-8" standalone="no"?>
<!DOCTYPE svg PUBLIC "-//W3C//DTD SVG 1.1//EN"
 "http://www.w3.org/Graphics/SVG/1.1/DTD/svg11.dtd">
<!-- Generated by graphviz version 2.30.1 (20130221.2233)
 -->
<!-- Title: Net_DNS_Question\Net_DNS_Question Pages: 1 -->
<svg width="296pt" height="67pt"
 viewBox="0.00 0.00 296.00 67.00" xmlns="http://www.w3.org/2000/svg" xmlns:xlink="http://www.w3.org/1999/xlink">
<g id="graph0" class="graph" transform="scale(1 1) rotate(0) translate(4 63)">
<title>Net_DNS_Question\Net_DNS_Question</title>
<polygon fill="white" stroke="white" points="-4,5 -4,-63 293,-63 293,5 -4,5"/>
<!-- Node1 -->
<g id="node1" class="node"><title>Node1</title>
<polygon fill="#bfbfbf" stroke="black" points="-0.0810547,-13 -0.0810547,-45 122.081,-45 122.081,-13 -0.0810547,-13"/>
<text text-anchor="start" x="7.91895" y="-31" font-family="Helvetica,sans-Serif" font-size="10.00">Net_DNS_Question\Net</text>
<text text-anchor="middle" x="61" y="-19" font-family="Helvetica,sans-Serif" font-size="10.00">_DNS_Question</text>
</g>
<!-- Node2 -->
<g id="node2" class="node"><title>Node2</title>
<g id="a_node2"><a xlink:href="class_net___d_n_s.html#a1e086e94cfa4b747b481b1e5859a1caf" target="_top" xlink:title="translates a DNS class from it&#39;s name to it&#39;s integer value. ">
<polygon fill="white" stroke="black" points="158.032,-39 158.032,-59 287.968,-59 287.968,-39 158.032,-39"/>
<text text-anchor="middle" x="223" y="-45" font-family="Helvetica,sans-Serif" font-size="10.00">Net_DNS\classesbyname</text>
</a>
</g>
</g>
<!-- Node1&#45;&gt;Node2 -->
<g id="edge1" class="edge"><title>Node1&#45;&gt;Node2</title>
<path fill="none" stroke="midnightblue" d="M122.489,-36.5611C130.821,-37.6027 139.454,-38.6818 147.996,-39.7495"/>
<polygon fill="midnightblue" stroke="midnightblue" points="147.6,-43.2272 157.957,-40.9946 148.468,-36.2812 147.6,-43.2272"/>
</g>
<!-- Node3 -->
<g id="node3" class="node"><title>Node3</title>
<g id="a_node3"><a xlink:href="class_net___d_n_s.html#a1420f63422265cad4ceb1899647e53e6" target="_top" xlink:title="Translates RR type names into integers. ">
<polygon fill="white" stroke="black" points="162.754,-0 162.754,-20 283.246,-20 283.246,-0 162.754,-0"/>
<text text-anchor="middle" x="223" y="-6" font-family="Helvetica,sans-Serif" font-size="10.00">Net_DNS\typesbyname</text>
</a>
</g>
</g>
<!-- Node1&#45;&gt;Node3 -->
<g id="edge2" class="edge"><title>Node1&#45;&gt;Node3</title>
<path fill="none" stroke="midnightblue" d="M122.489,-21.8169C132.378,-20.6426 142.691,-19.4179 152.772,-18.2209"/>
<polygon fill="midnightblue" stroke="midnightblue" points="153.233,-21.6908 162.75,-17.0359 152.407,-14.7396 153.233,-21.6908"/>
</g>
</g>
</svg>
