<?xml version="1.0" encoding="UTF-8" standalone="no"?>
<!DOCTYPE svg PUBLIC "-//W3C//DTD SVG 1.1//EN"
 "http://www.w3.org/Graphics/SVG/1.1/DTD/svg11.dtd">
<!-- Generated by graphviz version 2.30.1 (20130221.2233)
 -->
<!-- Title: JsonLoader\getClicks Pages: 1 -->
<svg width="308pt" height="91pt"
 viewBox="0.00 0.00 308.00 91.00" xmlns="http://www.w3.org/2000/svg" xmlns:xlink="http://www.w3.org/1999/xlink">
<g id="graph0" class="graph" transform="scale(1 1) rotate(0) translate(4 87)">
<title>JsonLoader\getClicks</title>
<polygon fill="white" stroke="white" points="-4,5 -4,-87 305,-87 305,5 -4,5"/>
<!-- Node1 -->
<g id="node1" class="node"><title>Node1</title>
<polygon fill="#bfbfbf" stroke="black" points="0.197266,-31 0.197266,-51 111.803,-51 111.803,-31 0.197266,-31"/>
<text text-anchor="middle" x="56" y="-37" font-family="Helvetica,sans-Serif" font-size="10.00">JsonLoader\getClicks</text>
</g>
<!-- Node2 -->
<g id="node2" class="node"><title>Node2</title>
<g id="a_node2"><a xlink:href="class_campaign_tracking_service_unit_test.html#a70ea7d066dcd62ee33cac61a17f9b309" target="_top" xlink:title="CampaignTrackingServiceUnit\lTest\\testGetClicks">
<polygon fill="white" stroke="black" points="148.656,-51 148.656,-83 299.344,-83 299.344,-51 148.656,-51"/>
<text text-anchor="start" x="156.656" y="-69" font-family="Helvetica,sans-Serif" font-size="10.00">CampaignTrackingServiceUnit</text>
<text text-anchor="middle" x="224" y="-57" font-family="Helvetica,sans-Serif" font-size="10.00">Test\testGetClicks</text>
</a>
</g>
</g>
<!-- Node1&#45;&gt;Node2 -->
<g id="edge1" class="edge"><title>Node1&#45;&gt;Node2</title>
<path fill="none" stroke="midnightblue" d="M121.872,-51.1607C130.57,-52.523 139.547,-53.9291 148.395,-55.3149"/>
<polygon fill="midnightblue" stroke="midnightblue" points="122.236,-47.6751 111.815,-49.5854 121.153,-54.5908 122.236,-47.6751"/>
</g>
<!-- Node3 -->
<g id="node3" class="node"><title>Node3</title>
<g id="a_node3"><a xlink:href="class_contact_tracking_service_unit_test.html#a6ce01517128c940d78eb5a27ea0cec68" target="_top" xlink:title="ContactTrackingServiceUnit\lTest\\testGetClicks">
<polygon fill="white" stroke="black" points="154.215,-0 154.215,-32 293.785,-32 293.785,-0 154.215,-0"/>
<text text-anchor="start" x="162.215" y="-18" font-family="Helvetica,sans-Serif" font-size="10.00">ContactTrackingServiceUnit</text>
<text text-anchor="middle" x="224" y="-6" font-family="Helvetica,sans-Serif" font-size="10.00">Test\testGetClicks</text>
</a>
</g>
</g>
<!-- Node1&#45;&gt;Node3 -->
<g id="edge2" class="edge"><title>Node1&#45;&gt;Node3</title>
<path fill="none" stroke="midnightblue" d="M121.801,-31.2407C132.375,-29.6483 143.363,-27.9935 154.033,-26.3866"/>
<polygon fill="midnightblue" stroke="midnightblue" points="121.182,-27.7945 111.815,-32.7448 122.224,-34.7164 121.182,-27.7945"/>
</g>
</g>
</svg>
