<?xml version="1.0" encoding="UTF-8" standalone="no"?>
<!DOCTYPE svg PUBLIC "-//W3C//DTD SVG 1.1//EN"
 "http://www.w3.org/Graphics/SVG/1.1/DTD/svg11.dtd">
<!-- Generated by graphviz version 2.30.1 (20130221.2233)
 -->
<!-- Title: Collection Pages: 1 -->
<svg width="214pt" height="262pt"
 viewBox="0.00 0.00 214.00 262.00" xmlns="http://www.w3.org/2000/svg" xmlns:xlink="http://www.w3.org/1999/xlink">
<g id="graph0" class="graph" transform="scale(1 1) rotate(0) translate(4 258)">
<title>Collection</title>
<polygon fill="white" stroke="white" points="-4,5 -4,-258 211,-258 211,5 -4,5"/>
<!-- Node1 -->
<g id="node1" class="node"><title>Node1</title>
<polygon fill="#bfbfbf" stroke="black" points="0.0444336,-117 0.0444336,-137 59.9556,-137 59.9556,-117 0.0444336,-117"/>
<text text-anchor="middle" x="30" y="-123" font-family="Helvetica,sans-Serif" font-size="10.00">Collection</text>
</g>
<!-- Node2 -->
<g id="node2" class="node"><title>Node2</title>
<g id="a_node2"><a xlink:href="class_activities_collection.html" target="_top" xlink:title="ActivitiesCollection">
<polygon fill="white" stroke="black" points="101.318,-234 101.318,-254 200.682,-254 200.682,-234 101.318,-234"/>
<text text-anchor="middle" x="151" y="-240" font-family="Helvetica,sans-Serif" font-size="10.00">ActivitiesCollection</text>
</a>
</g>
</g>
<!-- Node1&#45;&gt;Node2 -->
<g id="edge1" class="edge"><title>Node1&#45;&gt;Node2</title>
<path fill="none" stroke="midnightblue" d="M39.3773,-146.235C49.7417,-167.95 69.3377,-202.982 96,-224 101.103,-228.023 107.096,-231.292 113.198,-233.931"/>
<polygon fill="midnightblue" stroke="midnightblue" points="42.5056,-144.66 35.1563,-137.029 36.1425,-147.577 42.5056,-144.66"/>
</g>
<!-- Node3 -->
<g id="node3" class="node"><title>Node3</title>
<g id="a_node3"><a xlink:href="class_campaigns_collection.html" target="_top" xlink:title="CampaignsCollection">
<polygon fill="white" stroke="black" points="95.7539,-195 95.7539,-215 206.246,-215 206.246,-195 95.7539,-195"/>
<text text-anchor="middle" x="151" y="-201" font-family="Helvetica,sans-Serif" font-size="10.00">CampaignsCollection</text>
</a>
</g>
</g>
<!-- Node1&#45;&gt;Node3 -->
<g id="edge2" class="edge"><title>Node1&#45;&gt;Node3</title>
<path fill="none" stroke="midnightblue" d="M47.1273,-144.558C59.5005,-157.191 77.5409,-173.894 96,-185 102.425,-188.865 109.72,-192.183 116.824,-194.941"/>
<polygon fill="midnightblue" stroke="midnightblue" points="49.6393,-142.121 40.2026,-137.304 44.5761,-146.954 49.6393,-142.121"/>
</g>
<!-- Node4 -->
<g id="node4" class="node"><title>Node4</title>
<g id="a_node4"><a xlink:href="class_contacts_collection.html" target="_top" xlink:title="ContactsCollection">
<polygon fill="white" stroke="black" points="101.313,-156 101.313,-176 200.687,-176 200.687,-156 101.313,-156"/>
<text text-anchor="middle" x="151" y="-162" font-family="Helvetica,sans-Serif" font-size="10.00">ContactsCollection</text>
</a>
</g>
</g>
<!-- Node1&#45;&gt;Node4 -->
<g id="edge3" class="edge"><title>Node1&#45;&gt;Node4</title>
<path fill="none" stroke="midnightblue" d="M69.73,-139.693C85.7343,-144.938 104.031,-150.935 119.11,-155.876"/>
<polygon fill="midnightblue" stroke="midnightblue" points="70.7034,-136.329 60.1107,-136.54 68.5233,-142.981 70.7034,-136.329"/>
</g>
<!-- Node5 -->
<g id="node5" class="node"><title>Node5</title>
<g id="a_node5"><a xlink:href="class_events_collection.html" target="_top" xlink:title="EventsCollection">
<polygon fill="white" stroke="black" points="105.759,-117 105.759,-137 196.241,-137 196.241,-117 105.759,-117"/>
<text text-anchor="middle" x="151" y="-123" font-family="Helvetica,sans-Serif" font-size="10.00">EventsCollection</text>
</a>
</g>
</g>
<!-- Node1&#45;&gt;Node5 -->
<g id="edge4" class="edge"><title>Node1&#45;&gt;Node5</title>
<path fill="none" stroke="midnightblue" d="M70.1137,-127C81.4073,-127 93.8154,-127 105.415,-127"/>
<polygon fill="midnightblue" stroke="midnightblue" points="70.1107,-123.5 60.1107,-127 70.1106,-130.5 70.1107,-123.5"/>
</g>
<!-- Node6 -->
<g id="node6" class="node"><title>Node6</title>
<g id="a_node6"><a xlink:href="class_library_collection.html" target="_top" xlink:title="LibraryCollection">
<polygon fill="white" stroke="black" points="105.761,-78 105.761,-98 196.239,-98 196.239,-78 105.761,-78"/>
<text text-anchor="middle" x="151" y="-84" font-family="Helvetica,sans-Serif" font-size="10.00">LibraryCollection</text>
</a>
</g>
</g>
<!-- Node1&#45;&gt;Node6 -->
<g id="edge5" class="edge"><title>Node1&#45;&gt;Node6</title>
<path fill="none" stroke="midnightblue" d="M69.73,-114.307C85.7343,-109.062 104.031,-103.065 119.11,-98.1235"/>
<polygon fill="midnightblue" stroke="midnightblue" points="68.5233,-111.019 60.1107,-117.46 70.7034,-117.671 68.5233,-111.019"/>
</g>
<!-- Node7 -->
<g id="node7" class="node"><title>Node7</title>
<g id="a_node7"><a xlink:href="class_lists_collection.html" target="_top" xlink:title="ListsCollection">
<polygon fill="white" stroke="black" points="110.764,-39 110.764,-59 191.236,-59 191.236,-39 110.764,-39"/>
<text text-anchor="middle" x="151" y="-45" font-family="Helvetica,sans-Serif" font-size="10.00">ListsCollection</text>
</a>
</g>
</g>
<!-- Node1&#45;&gt;Node7 -->
<g id="edge6" class="edge"><title>Node1&#45;&gt;Node7</title>
<path fill="none" stroke="midnightblue" d="M47.1273,-109.442C59.5005,-96.8086 77.5409,-80.1058 96,-69 102.425,-65.1345 109.72,-61.8174 116.824,-59.059"/>
<polygon fill="midnightblue" stroke="midnightblue" points="44.5761,-107.046 40.2026,-116.696 49.6393,-111.879 44.5761,-107.046"/>
</g>
<!-- Node8 -->
<g id="node8" class="node"><title>Node8</title>
<g id="a_node8"><a xlink:href="class_settings_collection.html" target="_top" xlink:title="SettingsCollection">
<polygon fill="white" stroke="black" points="102.978,-0 102.978,-20 199.022,-20 199.022,-0 102.978,-0"/>
<text text-anchor="middle" x="151" y="-6" font-family="Helvetica,sans-Serif" font-size="10.00">SettingsCollection</text>
</a>
</g>
</g>
<!-- Node1&#45;&gt;Node8 -->
<g id="edge7" class="edge"><title>Node1&#45;&gt;Node8</title>
<path fill="none" stroke="midnightblue" d="M39.3773,-107.765C49.7417,-86.0501 69.3377,-51.0177 96,-30 101.103,-25.9771 107.096,-22.7077 113.198,-20.0685"/>
<polygon fill="midnightblue" stroke="midnightblue" points="36.1425,-106.423 35.1563,-116.971 42.5056,-109.34 36.1425,-106.423"/>
</g>
</g>
</svg>
