<?xml version="1.0" encoding="UTF-8" standalone="no"?>
<!DOCTYPE svg PUBLIC "-//W3C//DTD SVG 1.1//EN"
 "http://www.w3.org/Graphics/SVG/1.1/DTD/svg11.dtd">
<!-- Generated by graphviz version 2.30.1 (20130221.2233)
 -->
<!-- Title: gd_gradient_fill\retrieve Pages: 1 -->
<svg width="416pt" height="40pt"
 viewBox="0.00 0.00 416.00 40.00" xmlns="http://www.w3.org/2000/svg" xmlns:xlink="http://www.w3.org/1999/xlink">
<g id="graph0" class="graph" transform="scale(1 1) rotate(0) translate(4 36)">
<title>gd_gradient_fill\retrieve</title>
<polygon fill="white" stroke="white" points="-4,5 -4,-36 413,-36 413,5 -4,5"/>
<!-- Node1 -->
<g id="node1" class="node"><title>Node1</title>
<polygon fill="#bfbfbf" stroke="black" points="0.0249023,-6 0.0249023,-26 119.975,-26 119.975,-6 0.0249023,-6"/>
<text text-anchor="middle" x="60" y="-12" font-family="Helvetica,sans-Serif" font-size="10.00">gd_gradient_fill\retrieve</text>
</g>
<!-- Node2 -->
<g id="node2" class="node"><title>Node2</title>
<g id="a_node2"><a xlink:href="classgd__gradient__fill.html#abcc0fd00d9d251168436b4a80bfa4556" target="_top" xlink:title="gd_gradient_fill\\display">
<polygon fill="white" stroke="black" points="156.133,-6 156.133,-26 273.867,-26 273.867,-6 156.133,-6"/>
<text text-anchor="middle" x="215" y="-12" font-family="Helvetica,sans-Serif" font-size="10.00">gd_gradient_fill\display</text>
</a>
</g>
</g>
<!-- Node1&#45;&gt;Node2 -->
<g id="edge1" class="edge"><title>Node1&#45;&gt;Node2</title>
<path fill="none" stroke="midnightblue" d="M130.198,-16C138.825,-16 147.578,-16 156.011,-16"/>
<polygon fill="midnightblue" stroke="midnightblue" points="130.154,-12.5001 120.154,-16 130.154,-19.5001 130.154,-12.5001"/>
</g>
<!-- Node3 -->
<g id="node3" class="node"><title>Node3</title>
<g id="a_node3"><a xlink:href="classgd__gradient__fill.html#a12b304b9b2569457b93daeddcdb3c1a1" target="_top" xlink:title="gd_gradient_fill\\gd\l_gradient_fill">
<polygon fill="white" stroke="black" points="310.136,-0 310.136,-32 407.864,-32 407.864,-0 310.136,-0"/>
<text text-anchor="start" x="318.136" y="-18" font-family="Helvetica,sans-Serif" font-size="10.00">gd_gradient_fill\gd</text>
<text text-anchor="middle" x="359" y="-6" font-family="Helvetica,sans-Serif" font-size="10.00">_gradient_fill</text>
</a>
</g>
</g>
<!-- Node2&#45;&gt;Node3 -->
<g id="edge2" class="edge"><title>Node2&#45;&gt;Node3</title>
<path fill="none" stroke="midnightblue" d="M284.336,-16C293.046,-16 301.81,-16 310.102,-16"/>
<polygon fill="midnightblue" stroke="midnightblue" points="284.167,-12.5001 274.167,-16 284.167,-19.5001 284.167,-12.5001"/>
</g>
</g>
</svg>
