<?xml version="1.0" encoding="UTF-8" standalone="no"?>
<!DOCTYPE svg PUBLIC "-//W3C//DTD SVG 1.1//EN"
 "http://www.w3.org/Graphics/SVG/1.1/DTD/svg11.dtd">
<!-- Generated by graphviz version 2.30.1 (20130221.2233)
 -->
<!-- Title: Net_DNS_Resolver\read_env Pages: 1 -->
<svg width="1762pt" height="310pt"
 viewBox="0.00 0.00 1762.00 310.00" xmlns="http://www.w3.org/2000/svg" xmlns:xlink="http://www.w3.org/1999/xlink">
<g id="graph0" class="graph" transform="scale(1 1) rotate(0) translate(4 306)">
<title>Net_DNS_Resolver\read_env</title>
<polygon fill="white" stroke="white" points="-4,5 -4,-306 1759,-306 1759,5 -4,5"/>
<!-- Node1 -->
<g id="node1" class="node"><title>Node1</title>
<polygon fill="#bfbfbf" stroke="black" points="0.133301,-174 0.133301,-194 147.867,-194 147.867,-174 0.133301,-174"/>
<text text-anchor="middle" x="74" y="-180" font-family="Helvetica,sans-Serif" font-size="10.00">Net_DNS_Resolver\read_env</text>
</g>
<!-- Node2 -->
<g id="node2" class="node"><title>Node2</title>
<g id="a_node2"><a xlink:href="class_net___d_n_s___resolver.html#aa2e8d58074354b1f9292500119470431" target="_top" xlink:title="Initalizes the resolver library. ">
<polygon fill="white" stroke="black" points="183.865,-197 183.865,-217 322.135,-217 322.135,-197 183.865,-197"/>
<text text-anchor="middle" x="253" y="-203" font-family="Helvetica,sans-Serif" font-size="10.00">Net_DNS_Resolver\res_init</text>
</a>
</g>
</g>
<!-- Node1&#45;&gt;Node2 -->
<g id="edge1" class="edge"><title>Node1&#45;&gt;Node2</title>
<path fill="none" stroke="midnightblue" d="M158.048,-194.792C166.639,-195.908 175.299,-197.033 183.702,-198.125"/>
<polygon fill="midnightblue" stroke="midnightblue" points="158.382,-191.306 148.015,-193.488 157.48,-198.247 158.382,-191.306"/>
</g>
<!-- Node3 -->
<g id="node3" class="node"><title>Node3</title>
<g id="a_node3"><a xlink:href="class_net___d_n_s___resolver.html#a4358663ec326e406c398f6cb09bd5544" target="_top" xlink:title="Initializes the Resolver Object. ">
<polygon fill="white" stroke="black" points="358.202,-191 358.202,-223 479.798,-223 479.798,-191 358.202,-191"/>
<text text-anchor="start" x="366.202" y="-209" font-family="Helvetica,sans-Serif" font-size="10.00">Net_DNS_Resolver\Net</text>
<text text-anchor="middle" x="419" y="-197" font-family="Helvetica,sans-Serif" font-size="10.00">_DNS_Resolver</text>
</a>
</g>
</g>
<!-- Node2&#45;&gt;Node3 -->
<g id="edge2" class="edge"><title>Node2&#45;&gt;Node3</title>
<path fill="none" stroke="midnightblue" d="M332.871,-207C341.328,-207 349.83,-207 358.016,-207"/>
<polygon fill="midnightblue" stroke="midnightblue" points="332.601,-203.5 322.601,-207 332.6,-210.5 332.601,-203.5"/>
</g>
<!-- Node4 -->
<g id="node4" class="node"><title>Node4</title>
<g id="a_node4"><a xlink:href="class_net___d_n_s___resolver.html#a3bf22a7a58480dd7a6fd0dd17807fc70" target="_top" xlink:title="Gets or sets the nameservers to be queried. ">
<polygon fill="white" stroke="black" points="516.084,-152 516.084,-172 679.916,-172 679.916,-152 516.084,-152"/>
<text text-anchor="middle" x="598" y="-158" font-family="Helvetica,sans-Serif" font-size="10.00">Net_DNS_Resolver\nameservers</text>
</a>
</g>
</g>
<!-- Node3&#45;&gt;Node4 -->
<g id="edge3" class="edge"><title>Node3&#45;&gt;Node4</title>
<path fill="none" stroke="midnightblue" d="M489.662,-189.289C512.685,-183.436 537.49,-177.13 557.45,-172.055"/>
<polygon fill="midnightblue" stroke="midnightblue" points="488.753,-185.909 479.924,-191.765 490.478,-192.693 488.753,-185.909"/>
</g>
<!-- Node5 -->
<g id="node5" class="node"><title>Node5</title>
<g id="a_node5"><a xlink:href="class_net___d_n_s___resolver.html#a9a745e4f5009dac279562318bb927370" target="_top" xlink:title="Performs an AXFR query (zone transfer) ">
<polygon fill="white" stroke="black" points="913.648,-186 913.648,-206 1036.35,-206 1036.35,-186 913.648,-186"/>
<text text-anchor="middle" x="975" y="-192" font-family="Helvetica,sans-Serif" font-size="10.00">Net_DNS_Resolver\axfr</text>
</a>
</g>
</g>
<!-- Node4&#45;&gt;Node5 -->
<g id="edge4" class="edge"><title>Node4&#45;&gt;Node5</title>
<path fill="none" stroke="midnightblue" d="M621.85,-177.606C644.567,-192.105 680.987,-212.672 716,-221 795.242,-239.849 891.403,-219.547 940.946,-206.034"/>
<polygon fill="midnightblue" stroke="midnightblue" points="623.566,-174.547 613.28,-172.007 619.737,-180.407 623.566,-174.547"/>
</g>
<!-- Node7 -->
<g id="node7" class="node"><title>Node7</title>
<g id="a_node7"><a xlink:href="class_net___d_n_s___resolver.html#a068e8e173ff40d4a3b74193792bed4e0" target="_top" xlink:title="Sends a packet via TCP to the list of name servers. ">
<polygon fill="white" stroke="black" points="728.648,-180 728.648,-212 851.352,-212 851.352,-180 728.648,-180"/>
<text text-anchor="start" x="736.648" y="-198" font-family="Helvetica,sans-Serif" font-size="10.00">Net_DNS_Resolver\axfr</text>
<text text-anchor="middle" x="790" y="-186" font-family="Helvetica,sans-Serif" font-size="10.00">_start</text>
</a>
</g>
</g>
<!-- Node4&#45;&gt;Node7 -->
<g id="edge6" class="edge"><title>Node4&#45;&gt;Node7</title>
<path fill="none" stroke="midnightblue" d="M664.924,-173.797C685.554,-177.489 708.209,-181.543 728.45,-185.165"/>
<polygon fill="midnightblue" stroke="midnightblue" points="665.439,-170.334 654.979,-172.017 664.206,-177.224 665.439,-170.334"/>
</g>
<!-- Node8 -->
<g id="node8" class="node"><title>Node8</title>
<g id="a_node8"><a xlink:href="class_net___d_n_s___resolver.html#ae4def11574ad6e93176670c726541bed" target="_top" xlink:title="Reads and parses a resolver configuration file. ">
<polygon fill="white" stroke="black" points="726.976,-270 726.976,-302 853.024,-302 853.024,-270 726.976,-270"/>
<text text-anchor="start" x="734.976" y="-288" font-family="Helvetica,sans-Serif" font-size="10.00">Net_DNS_Resolver\read</text>
<text text-anchor="middle" x="790" y="-276" font-family="Helvetica,sans-Serif" font-size="10.00">_config</text>
</a>
</g>
</g>
<!-- Node4&#45;&gt;Node8 -->
<g id="edge8" class="edge"><title>Node4&#45;&gt;Node8</title>
<path fill="none" stroke="midnightblue" d="M617.153,-179.026C639.227,-199.09 678.23,-232.534 716,-255 725.23,-260.49 735.613,-265.513 745.589,-269.843"/>
<polygon fill="midnightblue" stroke="midnightblue" points="619.29,-176.235 609.56,-172.042 614.551,-181.388 619.29,-176.235"/>
</g>
<!-- Node4&#45;&gt;Node1 -->
<g id="edge10" class="edge"><title>Node4&#45;&gt;Node1</title>
<path fill="none" stroke="midnightblue" d="M505.531,-165.855C403.868,-170.14 241.721,-176.973 148.132,-180.918"/>
<polygon fill="midnightblue" stroke="midnightblue" points="505.942,-169.341 515.786,-165.423 505.647,-162.347 505.942,-169.341"/>
</g>
<!-- Node9 -->
<g id="node9" class="node"><title>Node9</title>
<g id="a_node9"><a xlink:href="class_net___d_n_s___resolver.html#a5ff32917a5f06e5eba819c0fb4e7196a" target="_top" xlink:title="Sends a packet via TCP to the list of name servers. ">
<polygon fill="white" stroke="black" points="716.69,-141 716.69,-161 863.31,-161 863.31,-141 716.69,-141"/>
<text text-anchor="middle" x="790" y="-147" font-family="Helvetica,sans-Serif" font-size="10.00">Net_DNS_Resolver\send_tcp</text>
</a>
</g>
</g>
<!-- Node4&#45;&gt;Node9 -->
<g id="edge11" class="edge"><title>Node4&#45;&gt;Node9</title>
<path fill="none" stroke="midnightblue" d="M690.395,-156.709C699.173,-156.201 707.991,-155.69 716.551,-155.194"/>
<polygon fill="midnightblue" stroke="midnightblue" points="689.909,-153.231 680.128,-157.303 690.314,-160.219 689.909,-153.231"/>
</g>
<!-- Node14 -->
<g id="node14" class="node"><title>Node14</title>
<g id="a_node14"><a xlink:href="class_net___d_n_s___resolver.html#a31d4b4651960d0fb08aa07990d21ce39" target="_top" xlink:title="Sends a packet via UDP to the list of name servers. ">
<polygon fill="white" stroke="black" points="726.141,-90 726.141,-122 853.859,-122 853.859,-90 726.141,-90"/>
<text text-anchor="start" x="734.141" y="-108" font-family="Helvetica,sans-Serif" font-size="10.00">Net_DNS_Resolver\send</text>
<text text-anchor="middle" x="790" y="-96" font-family="Helvetica,sans-Serif" font-size="10.00">_udp_no_sock_lib</text>
</a>
</g>
</g>
<!-- Node4&#45;&gt;Node14 -->
<g id="edge17" class="edge"><title>Node4&#45;&gt;Node14</title>
<path fill="none" stroke="midnightblue" d="M642.634,-149.139C669.935,-141.093 705.33,-130.661 734.474,-122.071"/>
<polygon fill="midnightblue" stroke="midnightblue" points="641.571,-145.804 632.968,-151.988 643.55,-152.518 641.571,-145.804"/>
</g>
<!-- Node16 -->
<g id="node16" class="node"><title>Node16</title>
<g id="a_node16"><a xlink:href="class_net___d_n_s___resolver.html#a6f7a0d5aaecc4824d9e59c9eb2597a62" target="_top" xlink:title="Sends a packet via UDP to the list of name servers. ">
<polygon fill="white" stroke="black" points="726.141,-39 726.141,-71 853.859,-71 853.859,-39 726.141,-39"/>
<text text-anchor="start" x="734.141" y="-57" font-family="Helvetica,sans-Serif" font-size="10.00">Net_DNS_Resolver\send</text>
<text text-anchor="middle" x="790" y="-45" font-family="Helvetica,sans-Serif" font-size="10.00">_udp_with_sock_lib</text>
</a>
</g>
</g>
<!-- Node4&#45;&gt;Node16 -->
<g id="edge20" class="edge"><title>Node4&#45;&gt;Node16</title>
<path fill="none" stroke="midnightblue" d="M618.681,-145.584C641.085,-127.542 679.341,-98.6501 716,-80 722.448,-76.7198 729.423,-73.7111 736.417,-71.0053"/>
<polygon fill="midnightblue" stroke="midnightblue" points="616.445,-142.892 610.907,-151.924 620.869,-148.317 616.445,-142.892"/>
</g>
<!-- Node17 -->
<g id="node17" class="node"><title>Node17</title>
<g id="a_node17"><a xlink:href="class_net___d_n_s___resolver.html#a848934658b6a75720a71e286500fcc40" target="_top" xlink:title="Builds a string containing the current state of the resolver. ">
<polygon fill="white" stroke="black" points="724.756,-0 724.756,-20 855.244,-20 855.244,-0 724.756,-0"/>
<text text-anchor="middle" x="790" y="-6" font-family="Helvetica,sans-Serif" font-size="10.00">Net_DNS_Resolver\string</text>
</a>
</g>
</g>
<!-- Node4&#45;&gt;Node17 -->
<g id="edge22" class="edge"><title>Node4&#45;&gt;Node17</title>
<path fill="none" stroke="midnightblue" d="M610.341,-143.056C628.763,-113.963 668.006,-58.5557 716,-29 721.91,-25.3605 728.502,-22.4136 735.24,-20.0285"/>
<polygon fill="midnightblue" stroke="midnightblue" points="607.192,-141.493 604.909,-151.839 613.146,-145.175 607.192,-141.493"/>
</g>
<!-- Node6 -->
<g id="node6" class="node"><title>Node6</title>
<g id="a_node6"><a xlink:href="class_net___d_n_s___resolver.html#a73f7861954f4990bc8d18d6a82f7334d" target="_top" xlink:title="Performs an AXFR query (zone transfer) (OLD BUGGY STYLE) ">
<polygon fill="white" stroke="black" points="1086.19,-186 1086.19,-206 1227.81,-206 1227.81,-186 1086.19,-186"/>
<text text-anchor="middle" x="1157" y="-192" font-family="Helvetica,sans-Serif" font-size="10.00">Net_DNS_Resolver\axfr_old</text>
</a>
</g>
</g>
<!-- Node5&#45;&gt;Node6 -->
<g id="edge5" class="edge"><title>Node5&#45;&gt;Node6</title>
<path fill="none" stroke="midnightblue" d="M1046.68,-196C1059.64,-196 1073.15,-196 1086.08,-196"/>
<polygon fill="midnightblue" stroke="midnightblue" points="1046.44,-192.5 1036.44,-196 1046.44,-199.5 1046.44,-192.5"/>
</g>
<!-- Node7&#45;&gt;Node5 -->
<g id="edge7" class="edge"><title>Node7&#45;&gt;Node5</title>
<path fill="none" stroke="midnightblue" d="M861.911,-196C878.994,-196 897.086,-196 913.635,-196"/>
<polygon fill="midnightblue" stroke="midnightblue" points="861.428,-192.5 851.428,-196 861.428,-199.5 861.428,-192.5"/>
</g>
<!-- Node8&#45;&gt;Node2 -->
<g id="edge9" class="edge"><title>Node8&#45;&gt;Node2</title>
<path fill="none" stroke="midnightblue" d="M716.766,-279.429C630.85,-271.043 483.294,-254.835 358,-232 335.712,-227.938 311.047,-222.07 291.334,-217.039"/>
<polygon fill="midnightblue" stroke="midnightblue" points="716.642,-282.933 726.932,-280.413 717.316,-275.966 716.642,-282.933"/>
</g>
<!-- Node10 -->
<g id="node10" class="node"><title>Node10</title>
<g id="a_node10"><a xlink:href="class_net___d_n_s___resolver.html#aaabc96cbbb5bce627d31583d0e6af3d5" target="_top" xlink:title="Sends a packet to a nameserver. ">
<polygon fill="white" stroke="black" points="1093.14,-117 1093.14,-137 1220.86,-137 1220.86,-117 1093.14,-117"/>
<text text-anchor="middle" x="1157" y="-123" font-family="Helvetica,sans-Serif" font-size="10.00">Net_DNS_Resolver\send</text>
</a>
</g>
</g>
<!-- Node9&#45;&gt;Node10 -->
<g id="edge12" class="edge"><title>Node9&#45;&gt;Node10</title>
<path fill="none" stroke="midnightblue" d="M873.588,-145.57C940.144,-141.193 1032.33,-135.132 1093.02,-131.141"/>
<polygon fill="midnightblue" stroke="midnightblue" points="873.297,-142.081 863.549,-146.23 873.757,-149.066 873.297,-142.081"/>
</g>
<!-- Node9&#45;&gt;Node5 -->
<g id="edge16" class="edge"><title>Node9&#45;&gt;Node5</title>
<path fill="none" stroke="midnightblue" d="M841.934,-163.525C870.686,-170.595 906.137,-179.312 933.068,-185.935"/>
<polygon fill="midnightblue" stroke="midnightblue" points="842.615,-160.088 832.069,-161.099 840.944,-166.886 842.615,-160.088"/>
</g>
<!-- Node11 -->
<g id="node11" class="node"><title>Node11</title>
<g id="a_node11"><a xlink:href="class_net___d_n_s___resolver.html#ab00f28a838dbaebffe986b2fb81b4e8f" target="_top" xlink:title="Queries nameservers for an answer. ">
<polygon fill="white" stroke="black" points="1264.31,-117 1264.31,-137 1413.69,-137 1413.69,-117 1264.31,-117"/>
<text text-anchor="middle" x="1339" y="-123" font-family="Helvetica,sans-Serif" font-size="10.00">Net_DNS_Resolver\rawQuery</text>
</a>
</g>
</g>
<!-- Node10&#45;&gt;Node11 -->
<g id="edge13" class="edge"><title>Node10&#45;&gt;Node11</title>
<path fill="none" stroke="midnightblue" d="M1231.27,-127C1242.15,-127 1253.38,-127 1264.28,-127"/>
<polygon fill="midnightblue" stroke="midnightblue" points="1230.96,-123.5 1220.96,-127 1230.96,-130.5 1230.96,-123.5"/>
</g>
<!-- Node12 -->
<g id="node12" class="node"><title>Node12</title>
<g id="a_node12"><a xlink:href="class_net___d_n_s___resolver.html#a433200f56099815168ddd63a715e8ac5" target="_top" xlink:title="Queries nameservers for an answer. ">
<polygon fill="white" stroke="black" points="1450.48,-117 1450.48,-137 1581.52,-137 1581.52,-117 1450.48,-117"/>
<text text-anchor="middle" x="1516" y="-123" font-family="Helvetica,sans-Serif" font-size="10.00">Net_DNS_Resolver\query</text>
</a>
</g>
</g>
<!-- Node11&#45;&gt;Node12 -->
<g id="edge14" class="edge"><title>Node11&#45;&gt;Node12</title>
<path fill="none" stroke="midnightblue" d="M1423.73,-127C1432.65,-127 1441.61,-127 1450.26,-127"/>
<polygon fill="midnightblue" stroke="midnightblue" points="1423.71,-123.5 1413.71,-127 1423.71,-130.5 1423.71,-123.5"/>
</g>
<!-- Node13 -->
<g id="node13" class="node"><title>Node13</title>
<g id="a_node13"><a xlink:href="class_net___d_n_s___resolver.html#a13ee3a449b00b1a0e2f36bb1404e4291" target="_top" xlink:title="Searches nameservers for an answer. ">
<polygon fill="white" stroke="black" points="1617.98,-117 1617.98,-137 1754.02,-137 1754.02,-117 1617.98,-117"/>
<text text-anchor="middle" x="1686" y="-123" font-family="Helvetica,sans-Serif" font-size="10.00">Net_DNS_Resolver\search</text>
</a>
</g>
</g>
<!-- Node12&#45;&gt;Node13 -->
<g id="edge15" class="edge"><title>Node12&#45;&gt;Node13</title>
<path fill="none" stroke="midnightblue" d="M1592.23,-127C1600.72,-127 1609.34,-127 1617.72,-127"/>
<polygon fill="midnightblue" stroke="midnightblue" points="1591.95,-123.5 1581.95,-127 1591.95,-130.5 1591.95,-123.5"/>
</g>
<!-- Node15 -->
<g id="node15" class="node"><title>Node15</title>
<g id="a_node15"><a xlink:href="class_net___d_n_s___resolver.html#a77e292f0bf9e3cadf36d26b76b02a733" target="_top" xlink:title="Sends a packet via UDP to the list of name servers. ">
<polygon fill="white" stroke="black" points="900.018,-96 900.018,-116 1049.98,-116 1049.98,-96 900.018,-96"/>
<text text-anchor="middle" x="975" y="-102" font-family="Helvetica,sans-Serif" font-size="10.00">Net_DNS_Resolver\send_udp</text>
</a>
</g>
</g>
<!-- Node14&#45;&gt;Node15 -->
<g id="edge18" class="edge"><title>Node14&#45;&gt;Node15</title>
<path fill="none" stroke="midnightblue" d="M864.177,-106C875.928,-106 888.1,-106 899.874,-106"/>
<polygon fill="midnightblue" stroke="midnightblue" points="863.978,-102.5 853.978,-106 863.978,-109.5 863.978,-102.5"/>
</g>
<!-- Node15&#45;&gt;Node10 -->
<g id="edge19" class="edge"><title>Node15&#45;&gt;Node10</title>
<path fill="none" stroke="midnightblue" d="M1060.09,-115.81C1071.14,-117.099 1082.3,-118.402 1092.92,-119.641"/>
<polygon fill="midnightblue" stroke="midnightblue" points="1060.33,-112.315 1049.99,-114.632 1059.52,-119.268 1060.33,-112.315"/>
</g>
<!-- Node16&#45;&gt;Node15 -->
<g id="edge21" class="edge"><title>Node16&#45;&gt;Node15</title>
<path fill="none" stroke="midnightblue" d="M858.416,-73.788C885.339,-81.2913 915.258,-89.6293 937.91,-95.942"/>
<polygon fill="midnightblue" stroke="midnightblue" points="859.224,-70.3799 848.651,-71.0667 857.344,-77.1229 859.224,-70.3799"/>
</g>
</g>
</svg>
