<?xml version="1.0" encoding="UTF-8" standalone="no"?>
<!DOCTYPE svg PUBLIC "-//W3C//DTD SVG 1.1//EN"
 "http://www.w3.org/Graphics/SVG/1.1/DTD/svg11.dtd">
<!-- Generated by graphviz version 2.30.1 (20130221.2233)
 -->
<!-- Title: CTCT_Admin_Page\getKey Pages: 1 -->
<svg width="508pt" height="247pt"
 viewBox="0.00 0.00 508.00 247.00" xmlns="http://www.w3.org/2000/svg" xmlns:xlink="http://www.w3.org/1999/xlink">
<g id="graph0" class="graph" transform="scale(1 1) rotate(0) translate(4 243)">
<title>CTCT_Admin_Page\getKey</title>
<polygon fill="white" stroke="white" points="-4,5 -4,-243 505,-243 505,5 -4,5"/>
<!-- Node1 -->
<g id="node1" class="node"><title>Node1</title>
<polygon fill="#bfbfbf" stroke="black" points="0.303223,-109 0.303223,-129 139.697,-129 139.697,-109 0.303223,-109"/>
<text text-anchor="middle" x="70" y="-115" font-family="Helvetica,sans-Serif" font-size="10.00">CTCT_Admin_Page\getKey</text>
</g>
<!-- Node2 -->
<g id="node2" class="node"><title>Node2</title>
<g id="a_node2"><a xlink:href="class_c_t_c_t___admin___page.html#af158e902eb69d577d08a4272d187509f" target="_top" xlink:title="CTCT_Admin_Page\\__construct">
<polygon fill="white" stroke="black" points="176.022,-219 176.022,-239 335.978,-239 335.978,-219 176.022,-219"/>
<text text-anchor="middle" x="256" y="-225" font-family="Helvetica,sans-Serif" font-size="10.00">CTCT_Admin_Page\__construct</text>
</a>
</g>
</g>
<!-- Node1&#45;&gt;Node2 -->
<g id="edge1" class="edge"><title>Node1&#45;&gt;Node2</title>
<path fill="none" stroke="midnightblue" d="M86.4879,-136.467C105.554,-156.887 139.871,-190.269 176,-209 183.787,-213.037 192.437,-216.292 201.073,-218.907"/>
<polygon fill="midnightblue" stroke="midnightblue" points="89.0657,-134.099 79.7329,-129.084 83.9014,-138.825 89.0657,-134.099"/>
</g>
<!-- Node3 -->
<g id="node3" class="node"><title>Node3</title>
<g id="a_node3"><a xlink:href="class_c_t_c_t___admin___page.html#a2cc1493ccd31221d648442404bbb73d2" target="_top" xlink:title="CTCT_Admin_Page\\add_menu">
<polygon fill="white" stroke="black" points="178.239,-180 178.239,-200 333.761,-200 333.761,-180 178.239,-180"/>
<text text-anchor="middle" x="256" y="-186" font-family="Helvetica,sans-Serif" font-size="10.00">CTCT_Admin_Page\add_menu</text>
</a>
</g>
</g>
<!-- Node1&#45;&gt;Node3 -->
<g id="edge2" class="edge"><title>Node1&#45;&gt;Node3</title>
<path fill="none" stroke="midnightblue" d="M97.9869,-134.008C118.811,-145.116 148.596,-159.995 176,-170 186.366,-173.785 197.749,-177.12 208.568,-179.928"/>
<polygon fill="midnightblue" stroke="midnightblue" points="99.5523,-130.875 89.0907,-129.2 96.2244,-137.034 99.5523,-130.875"/>
</g>
<!-- Node4 -->
<g id="node4" class="node"><title>Node4</title>
<g id="a_node4"><a xlink:href="class_c_t_c_t___form___designer.html#ac6d6ef8ae7fc4aaada6f73daf9a12d54" target="_top" xlink:title="CTCT_Form_Designer\l\\addIncludes">
<polygon fill="white" stroke="black" points="197.434,-129 197.434,-161 314.566,-161 314.566,-129 197.434,-129"/>
<text text-anchor="start" x="205.434" y="-147" font-family="Helvetica,sans-Serif" font-size="10.00">CTCT_Form_Designer</text>
<text text-anchor="middle" x="256" y="-135" font-family="Helvetica,sans-Serif" font-size="10.00">\addIncludes</text>
</a>
</g>
</g>
<!-- Node1&#45;&gt;Node4 -->
<g id="edge3" class="edge"><title>Node1&#45;&gt;Node4</title>
<path fill="none" stroke="midnightblue" d="M150.071,-130.173C165.882,-132.407 182.212,-134.715 197.144,-136.825"/>
<polygon fill="midnightblue" stroke="midnightblue" points="150.168,-126.652 139.776,-128.718 149.188,-133.583 150.168,-126.652"/>
</g>
<!-- Node5 -->
<g id="node5" class="node"><title>Node5</title>
<g id="a_node5"><a xlink:href="class_c_t_c_t___form___designer.html#a3a007a075c6517d097cd86dfdaefcaba" target="_top" xlink:title="CTCT_Form_Designer\l\\addScripts">
<polygon fill="white" stroke="black" points="197.434,-78 197.434,-110 314.566,-110 314.566,-78 197.434,-78"/>
<text text-anchor="start" x="205.434" y="-96" font-family="Helvetica,sans-Serif" font-size="10.00">CTCT_Form_Designer</text>
<text text-anchor="middle" x="256" y="-84" font-family="Helvetica,sans-Serif" font-size="10.00">\addScripts</text>
</a>
</g>
</g>
<!-- Node1&#45;&gt;Node5 -->
<g id="edge4" class="edge"><title>Node1&#45;&gt;Node5</title>
<path fill="none" stroke="midnightblue" d="M150.071,-108.257C165.882,-106.108 182.212,-103.89 197.144,-101.861"/>
<polygon fill="midnightblue" stroke="midnightblue" points="149.214,-104.841 139.776,-109.655 150.157,-111.777 149.214,-104.841"/>
</g>
<!-- Node6 -->
<g id="node6" class="node"><title>Node6</title>
<g id="a_node6"><a xlink:href="class_c_t_c_t___admin___page.html#a05b33ad05b2a8fb25be1f21015422239" target="_top" xlink:title="CTCT_Admin_Page\\getPointers">
<polygon fill="white" stroke="black" points="176.577,-39 176.577,-59 335.423,-59 335.423,-39 176.577,-39"/>
<text text-anchor="middle" x="256" y="-45" font-family="Helvetica,sans-Serif" font-size="10.00">CTCT_Admin_Page\getPointers</text>
</a>
</g>
</g>
<!-- Node1&#45;&gt;Node6 -->
<g id="edge5" class="edge"><title>Node1&#45;&gt;Node6</title>
<path fill="none" stroke="midnightblue" d="M98.401,-104.12C119.225,-93.2674 148.824,-78.8027 176,-69 186.514,-65.2075 198.062,-61.8511 209.004,-59.0228"/>
<polygon fill="midnightblue" stroke="midnightblue" points="96.7011,-101.06 89.491,-108.823 99.9685,-107.251 96.7011,-101.06"/>
</g>
<!-- Node8 -->
<g id="node8" class="node"><title>Node8</title>
<g id="a_node8"><a xlink:href="class_c_t_c_t___admin.html#a7c18d64b53a048652edeaeee7e400046" target="_top" xlink:title="CTCT_Admin\\pluginStatus">
<polygon fill="white" stroke="black" points="188.808,-0 188.808,-20 323.192,-20 323.192,-0 188.808,-0"/>
<text text-anchor="middle" x="256" y="-6" font-family="Helvetica,sans-Serif" font-size="10.00">CTCT_Admin\pluginStatus</text>
</a>
</g>
</g>
<!-- Node1&#45;&gt;Node8 -->
<g id="edge7" class="edge"><title>Node1&#45;&gt;Node8</title>
<path fill="none" stroke="midnightblue" d="M87.0834,-101.149C106.294,-80.915 140.335,-48.3654 176,-30 183.924,-25.9194 192.733,-22.636 201.51,-20.0045"/>
<polygon fill="midnightblue" stroke="midnightblue" points="84.2693,-99.0357 80.022,-108.742 89.3951,-103.803 84.2693,-99.0357"/>
</g>
<!-- Node7 -->
<g id="node7" class="node"><title>Node7</title>
<g id="a_node7"><a xlink:href="class_c_t_c_t___admin___page.html#a487ade20252dfe30745e6237b23d5193" target="_top" xlink:title="CTCT_Admin_Page\\print\l_scripts">
<polygon fill="white" stroke="black" points="372.143,-33 372.143,-65 499.857,-65 499.857,-33 372.143,-33"/>
<text text-anchor="start" x="380.143" y="-51" font-family="Helvetica,sans-Serif" font-size="10.00">CTCT_Admin_Page\print</text>
<text text-anchor="middle" x="436" y="-39" font-family="Helvetica,sans-Serif" font-size="10.00">_scripts</text>
</a>
</g>
</g>
<!-- Node6&#45;&gt;Node7 -->
<g id="edge6" class="edge"><title>Node6&#45;&gt;Node7</title>
<path fill="none" stroke="midnightblue" d="M345.64,-49C354.559,-49 363.482,-49 372.052,-49"/>
<polygon fill="midnightblue" stroke="midnightblue" points="345.592,-45.5001 335.592,-49 345.591,-52.5001 345.592,-45.5001"/>
</g>
</g>
</svg>
