<?xml version="1.0" encoding="UTF-8" standalone="no"?>
<!DOCTYPE svg PUBLIC "-//W3C//DTD SVG 1.1//EN"
 "http://www.w3.org/Graphics/SVG/1.1/DTD/svg11.dtd">
<!-- Generated by graphviz version 2.30.1 (20130221.2233)
 -->
<!-- Title: JsonLoader\getCampaignScheduleJson Pages: 1 -->
<svg width="392pt" height="142pt"
 viewBox="0.00 0.00 392.00 142.00" xmlns="http://www.w3.org/2000/svg" xmlns:xlink="http://www.w3.org/1999/xlink">
<g id="graph0" class="graph" transform="scale(1 1) rotate(0) translate(4 138)">
<title>JsonLoader\getCampaignScheduleJson</title>
<polygon fill="white" stroke="white" points="-4,5 -4,-138 389,-138 389,5 -4,5"/>
<!-- Node1 -->
<g id="node1" class="node"><title>Node1</title>
<polygon fill="#bfbfbf" stroke="black" points="0.328125,-57 0.328125,-77 193.672,-77 193.672,-57 0.328125,-57"/>
<text text-anchor="middle" x="97" y="-63" font-family="Helvetica,sans-Serif" font-size="10.00">JsonLoader\getCampaignScheduleJson</text>
</g>
<!-- Node2 -->
<g id="node2" class="node"><title>Node2</title>
<g id="a_node2"><a xlink:href="class_campaign_schedule_service_unit_test.html#a6340e18a27d43a0559fb514af3ab077d" target="_top" xlink:title="CampaignScheduleServiceUnit\lTest\\testAddSchedule">
<polygon fill="white" stroke="black" points="229.796,-102 229.796,-134 384.204,-134 384.204,-102 229.796,-102"/>
<text text-anchor="start" x="237.796" y="-120" font-family="Helvetica,sans-Serif" font-size="10.00">CampaignScheduleServiceUnit</text>
<text text-anchor="middle" x="307" y="-108" font-family="Helvetica,sans-Serif" font-size="10.00">Test\testAddSchedule</text>
</a>
</g>
</g>
<!-- Node1&#45;&gt;Node2 -->
<g id="edge1" class="edge"><title>Node1&#45;&gt;Node2</title>
<path fill="none" stroke="midnightblue" d="M148.924,-79.4861C176.498,-86.247 210.872,-94.6754 240.428,-101.922"/>
<polygon fill="midnightblue" stroke="midnightblue" points="149.64,-76.0581 139.094,-77.076 147.973,-82.8567 149.64,-76.0581"/>
</g>
<!-- Node3 -->
<g id="node3" class="node"><title>Node3</title>
<g id="a_node3"><a xlink:href="class_campaign_schedule_service_unit_test.html#a344b5ab80098da7991eb5a99f92fe9d9" target="_top" xlink:title="CampaignScheduleServiceUnit\lTest\\testGetSchedule">
<polygon fill="white" stroke="black" points="229.796,-51 229.796,-83 384.204,-83 384.204,-51 229.796,-51"/>
<text text-anchor="start" x="237.796" y="-69" font-family="Helvetica,sans-Serif" font-size="10.00">CampaignScheduleServiceUnit</text>
<text text-anchor="middle" x="307" y="-57" font-family="Helvetica,sans-Serif" font-size="10.00">Test\testGetSchedule</text>
</a>
</g>
</g>
<!-- Node1&#45;&gt;Node3 -->
<g id="edge2" class="edge"><title>Node1&#45;&gt;Node3</title>
<path fill="none" stroke="midnightblue" d="M203.967,-67C212.65,-67 221.314,-67 229.717,-67"/>
<polygon fill="midnightblue" stroke="midnightblue" points="203.781,-63.5001 193.781,-67 203.781,-70.5001 203.781,-63.5001"/>
</g>
<!-- Node4 -->
<g id="node4" class="node"><title>Node4</title>
<g id="a_node4"><a xlink:href="class_campaign_schedule_service_unit_test.html#ab578e578c8bb0ff962e1593509611583" target="_top" xlink:title="CampaignScheduleServiceUnit\lTest\\testUpdateSchedule">
<polygon fill="white" stroke="black" points="229.796,-0 229.796,-32 384.204,-32 384.204,-0 229.796,-0"/>
<text text-anchor="start" x="237.796" y="-18" font-family="Helvetica,sans-Serif" font-size="10.00">CampaignScheduleServiceUnit</text>
<text text-anchor="middle" x="307" y="-6" font-family="Helvetica,sans-Serif" font-size="10.00">Test\testUpdateSchedule</text>
</a>
</g>
</g>
<!-- Node1&#45;&gt;Node4 -->
<g id="edge3" class="edge"><title>Node1&#45;&gt;Node4</title>
<path fill="none" stroke="midnightblue" d="M148.924,-54.5139C176.498,-47.753 210.872,-39.3246 240.428,-32.0777"/>
<polygon fill="midnightblue" stroke="midnightblue" points="147.973,-51.1433 139.094,-56.924 149.64,-57.9419 147.973,-51.1433"/>
</g>
</g>
</svg>
