<?xml version="1.0" encoding="UTF-8" standalone="no"?>
<!DOCTYPE svg PUBLIC "-//W3C//DTD SVG 1.1//EN"
 "http://www.w3.org/Graphics/SVG/1.1/DTD/svg11.dtd">
<!-- Generated by graphviz version 2.30.1 (20130221.2233)
 -->
<!-- Title: CTCT_Process_Form\akismetCheck Pages: 1 -->
<svg width="532pt" height="40pt"
 viewBox="0.00 0.00 532.00 40.00" xmlns="http://www.w3.org/2000/svg" xmlns:xlink="http://www.w3.org/1999/xlink">
<g id="graph0" class="graph" transform="scale(1 1) rotate(0) translate(4 36)">
<title>CTCT_Process_Form\akismetCheck</title>
<polygon fill="white" stroke="white" points="-4,5 -4,-36 529,-36 529,5 -4,5"/>
<!-- Node1 -->
<g id="node1" class="node"><title>Node1</title>
<polygon fill="#bfbfbf" stroke="black" points="-0.233887,-0 -0.233887,-32 150.234,-32 150.234,-0 -0.233887,-0"/>
<text text-anchor="start" x="7.76611" y="-18" font-family="Helvetica,sans-Serif" font-size="10.00">CTCT_Process_Form\akismet</text>
<text text-anchor="middle" x="75" y="-6" font-family="Helvetica,sans-Serif" font-size="10.00">Check</text>
</g>
<!-- Node2 -->
<g id="node2" class="node"><title>Node2</title>
<g id="a_node2"><a xlink:href="class_c_t_c_t___process___form.html#aaafc23302889bc63c66db53deeb8aef3" target="_top" xlink:title="Validate email based on user settings. ">
<polygon fill="white" stroke="black" points="185.759,-0 185.759,-32 336.241,-32 336.241,-0 185.759,-0"/>
<text text-anchor="start" x="193.759" y="-18" font-family="Helvetica,sans-Serif" font-size="10.00">CTCT_Process_Form\validate</text>
<text text-anchor="middle" x="261" y="-6" font-family="Helvetica,sans-Serif" font-size="10.00">Email</text>
</a>
</g>
</g>
<!-- Node1&#45;&gt;Node2 -->
<g id="edge1" class="edge"><title>Node1&#45;&gt;Node2</title>
<path fill="none" stroke="midnightblue" d="M160.509,-16C168.921,-16 177.416,-16 185.712,-16"/>
<polygon fill="midnightblue" stroke="midnightblue" points="160.31,-12.5001 150.309,-16 160.309,-19.5001 160.31,-12.5001"/>
</g>
<!-- Node3 -->
<g id="node3" class="node"><title>Node3</title>
<g id="a_node3"><a xlink:href="class_c_t_c_t___process___form.html#a28276123b47f4a19d7e0c965462f6b3c" target="_top" xlink:title="Process the form if there is a $_POST[&#39;uniqueformid&#39;] set. ">
<polygon fill="white" stroke="black" points="372.485,-6 372.485,-26 523.515,-26 523.515,-6 372.485,-6"/>
<text text-anchor="middle" x="448" y="-12" font-family="Helvetica,sans-Serif" font-size="10.00">CTCT_Process_Form\process</text>
</a>
</g>
</g>
<!-- Node2&#45;&gt;Node3 -->
<g id="edge2" class="edge"><title>Node2&#45;&gt;Node3</title>
<path fill="none" stroke="midnightblue" d="M346.523,-16C355.158,-16 363.886,-16 372.404,-16"/>
<polygon fill="midnightblue" stroke="midnightblue" points="346.447,-12.5001 336.447,-16 346.447,-19.5001 346.447,-12.5001"/>
</g>
</g>
</svg>
