<?xml version="1.0" encoding="UTF-8" standalone="no"?>
<!DOCTYPE svg PUBLIC "-//W3C//DTD SVG 1.1//EN"
 "http://www.w3.org/Graphics/SVG/1.1/DTD/svg11.dtd">
<!-- Generated by graphviz version 2.30.1 (20130221.2233)
 -->
<!-- Title: Net_DNS_Resolver\send_udp_no_sock_lib Pages: 1 -->
<svg width="1012pt" height="40pt"
 viewBox="0.00 0.00 1012.00 40.00" xmlns="http://www.w3.org/2000/svg" xmlns:xlink="http://www.w3.org/1999/xlink">
<g id="graph0" class="graph" transform="scale(1 1) rotate(0) translate(4 36)">
<title>Net_DNS_Resolver\send_udp_no_sock_lib</title>
<polygon fill="white" stroke="white" points="-4,5 -4,-36 1009,-36 1009,5 -4,5"/>
<!-- Node1 -->
<g id="node1" class="node"><title>Node1</title>
<polygon fill="#bfbfbf" stroke="black" points="0.140625,-0 0.140625,-32 127.859,-32 127.859,-0 0.140625,-0"/>
<text text-anchor="start" x="8.14062" y="-18" font-family="Helvetica,sans-Serif" font-size="10.00">Net_DNS_Resolver\send</text>
<text text-anchor="middle" x="64" y="-6" font-family="Helvetica,sans-Serif" font-size="10.00">_udp_no_sock_lib</text>
</g>
<!-- Node2 -->
<g id="node2" class="node"><title>Node2</title>
<g id="a_node2"><a xlink:href="class_net___d_n_s___resolver.html#a77e292f0bf9e3cadf36d26b76b02a733" target="_top" xlink:title="Sends a packet via UDP to the list of name servers. ">
<polygon fill="white" stroke="black" points="164.018,-6 164.018,-26 313.982,-26 313.982,-6 164.018,-6"/>
<text text-anchor="middle" x="239" y="-12" font-family="Helvetica,sans-Serif" font-size="10.00">Net_DNS_Resolver\send_udp</text>
</a>
</g>
</g>
<!-- Node1&#45;&gt;Node2 -->
<g id="edge1" class="edge"><title>Node1&#45;&gt;Node2</title>
<path fill="none" stroke="midnightblue" d="M138.217,-16C146.727,-16 155.412,-16 163.934,-16"/>
<polygon fill="midnightblue" stroke="midnightblue" points="137.946,-12.5001 127.946,-16 137.946,-19.5001 137.946,-12.5001"/>
</g>
<!-- Node3 -->
<g id="node3" class="node"><title>Node3</title>
<g id="a_node3"><a xlink:href="class_net___d_n_s___resolver.html#aaabc96cbbb5bce627d31583d0e6af3d5" target="_top" xlink:title="Sends a packet to a nameserver. ">
<polygon fill="white" stroke="black" points="350.141,-6 350.141,-26 477.859,-26 477.859,-6 350.141,-6"/>
<text text-anchor="middle" x="414" y="-12" font-family="Helvetica,sans-Serif" font-size="10.00">Net_DNS_Resolver\send</text>
</a>
</g>
</g>
<!-- Node2&#45;&gt;Node3 -->
<g id="edge2" class="edge"><title>Node2&#45;&gt;Node3</title>
<path fill="none" stroke="midnightblue" d="M324.235,-16C332.881,-16 341.557,-16 349.917,-16"/>
<polygon fill="midnightblue" stroke="midnightblue" points="324.12,-12.5001 314.12,-16 324.12,-19.5001 324.12,-12.5001"/>
</g>
<!-- Node4 -->
<g id="node4" class="node"><title>Node4</title>
<g id="a_node4"><a xlink:href="class_net___d_n_s___resolver.html#ab00f28a838dbaebffe986b2fb81b4e8f" target="_top" xlink:title="Queries nameservers for an answer. ">
<polygon fill="white" stroke="black" points="514.311,-6 514.311,-26 663.689,-26 663.689,-6 514.311,-6"/>
<text text-anchor="middle" x="589" y="-12" font-family="Helvetica,sans-Serif" font-size="10.00">Net_DNS_Resolver\rawQuery</text>
</a>
</g>
</g>
<!-- Node3&#45;&gt;Node4 -->
<g id="edge3" class="edge"><title>Node3&#45;&gt;Node4</title>
<path fill="none" stroke="midnightblue" d="M488.02,-16C496.691,-16 505.548,-16 514.231,-16"/>
<polygon fill="midnightblue" stroke="midnightblue" points="487.946,-12.5001 477.946,-16 487.946,-19.5001 487.946,-12.5001"/>
</g>
<!-- Node5 -->
<g id="node5" class="node"><title>Node5</title>
<g id="a_node5"><a xlink:href="class_net___d_n_s___resolver.html#a433200f56099815168ddd63a715e8ac5" target="_top" xlink:title="Queries nameservers for an answer. ">
<polygon fill="white" stroke="black" points="700.476,-6 700.476,-26 831.524,-26 831.524,-6 700.476,-6"/>
<text text-anchor="middle" x="766" y="-12" font-family="Helvetica,sans-Serif" font-size="10.00">Net_DNS_Resolver\query</text>
</a>
</g>
</g>
<!-- Node4&#45;&gt;Node5 -->
<g id="edge4" class="edge"><title>Node4&#45;&gt;Node5</title>
<path fill="none" stroke="midnightblue" d="M673.732,-16C682.647,-16 691.614,-16 700.262,-16"/>
<polygon fill="midnightblue" stroke="midnightblue" points="673.709,-12.5001 663.709,-16 673.709,-19.5001 673.709,-12.5001"/>
</g>
<!-- Node6 -->
<g id="node6" class="node"><title>Node6</title>
<g id="a_node6"><a xlink:href="class_net___d_n_s___resolver.html#a13ee3a449b00b1a0e2f36bb1404e4291" target="_top" xlink:title="Searches nameservers for an answer. ">
<polygon fill="white" stroke="black" points="867.976,-6 867.976,-26 1004.02,-26 1004.02,-6 867.976,-6"/>
<text text-anchor="middle" x="936" y="-12" font-family="Helvetica,sans-Serif" font-size="10.00">Net_DNS_Resolver\search</text>
</a>
</g>
</g>
<!-- Node5&#45;&gt;Node6 -->
<g id="edge5" class="edge"><title>Node5&#45;&gt;Node6</title>
<path fill="none" stroke="midnightblue" d="M842.23,-16C850.723,-16 859.337,-16 867.72,-16"/>
<polygon fill="midnightblue" stroke="midnightblue" points="841.953,-12.5001 831.953,-16 841.953,-19.5001 841.953,-12.5001"/>
</g>
</g>
</svg>
