<?xml version="1.0" encoding="UTF-8" standalone="no"?>
<!DOCTYPE svg PUBLIC "-//W3C//DTD SVG 1.1//EN"
 "http://www.w3.org/Graphics/SVG/1.1/DTD/svg11.dtd">
<!-- Generated by graphviz version 2.30.1 (20130221.2233)
 -->
<!-- Title: Net_DNS_RR_NAPTR\Net_DNS_RR_NAPTR Pages: 1 -->
<svg width="328pt" height="118pt"
 viewBox="0.00 0.00 328.00 118.00" xmlns="http://www.w3.org/2000/svg" xmlns:xlink="http://www.w3.org/1999/xlink">
<g id="graph0" class="graph" transform="scale(1 1) rotate(0) translate(4 114)">
<title>Net_DNS_RR_NAPTR\Net_DNS_RR_NAPTR</title>
<polygon fill="white" stroke="white" points="-4,5 -4,-114 325,-114 325,5 -4,5"/>
<!-- Node1 -->
<g id="node1" class="node"><title>Node1</title>
<polygon fill="#bfbfbf" stroke="black" points="-0.0170898,-39 -0.0170898,-71 136.017,-71 136.017,-39 -0.0170898,-39"/>
<text text-anchor="start" x="7.98291" y="-57" font-family="Helvetica,sans-Serif" font-size="10.00">Net_DNS_RR_NAPTR\Net</text>
<text text-anchor="middle" x="68" y="-45" font-family="Helvetica,sans-Serif" font-size="10.00">_DNS_RR_NAPTR</text>
</g>
<!-- Node2 -->
<g id="node2" class="node"><title>Node2</title>
<g id="a_node2"><a xlink:href="class_net___d_n_s___packet.html#a9844b7ce62cb096db44f58882f8ca403" target="_top" xlink:title="DNS packet decompression method. ">
<polygon fill="white" stroke="black" points="172.68,-90 172.68,-110 319.32,-110 319.32,-90 172.68,-90"/>
<text text-anchor="middle" x="246" y="-96" font-family="Helvetica,sans-Serif" font-size="10.00">Net_DNS_Packet\dn_expand</text>
</a>
</g>
</g>
<!-- Node1&#45;&gt;Node2 -->
<g id="edge1" class="edge"><title>Node1&#45;&gt;Node2</title>
<path fill="none" stroke="midnightblue" d="M132.043,-71.1189C153.053,-76.4909 176.133,-82.392 195.924,-87.452"/>
<polygon fill="midnightblue" stroke="midnightblue" points="195.091,-90.8518 205.647,-89.9381 196.826,-84.07 195.091,-90.8518"/>
</g>
<!-- Node3 -->
<g id="node3" class="node"><title>Node3</title>
<g id="a_node3"><a xlink:href="class_net___d_n_s___packet.html#a309ab56b644aaba891e687ab026e31b6" target="_top" xlink:title="DNS packet decompression method. ">
<polygon fill="white" stroke="black" points="186.862,-39 186.862,-71 305.138,-71 305.138,-39 186.862,-39"/>
<text text-anchor="start" x="194.862" y="-57" font-family="Helvetica,sans-Serif" font-size="10.00">Net_DNS_Packet\label</text>
<text text-anchor="middle" x="246" y="-45" font-family="Helvetica,sans-Serif" font-size="10.00">_extract</text>
</a>
</g>
</g>
<!-- Node1&#45;&gt;Node3 -->
<g id="edge2" class="edge"><title>Node1&#45;&gt;Node3</title>
<path fill="none" stroke="midnightblue" d="M136.04,-55C149.355,-55 163.349,-55 176.705,-55"/>
<polygon fill="midnightblue" stroke="midnightblue" points="176.773,-58.5001 186.773,-55 176.773,-51.5001 176.773,-58.5001"/>
</g>
<!-- Node4 -->
<g id="node4" class="node"><title>Node4</title>
<g id="a_node4"><a xlink:href="class_net___d_n_s___r_r.html#aa9da23331d654752fc950d474aa4c88d" target="_top" xlink:title="Net_DNS_RR\\rdata">
<polygon fill="white" stroke="black" points="194.094,-0 194.094,-20 297.906,-20 297.906,-0 194.094,-0"/>
<text text-anchor="middle" x="246" y="-6" font-family="Helvetica,sans-Serif" font-size="10.00">Net_DNS_RR\rdata</text>
</a>
</g>
</g>
<!-- Node1&#45;&gt;Node4 -->
<g id="edge3" class="edge"><title>Node1&#45;&gt;Node4</title>
<path fill="none" stroke="midnightblue" d="M132.043,-38.8811C153.053,-33.5091 176.133,-27.608 195.924,-22.548"/>
<polygon fill="midnightblue" stroke="midnightblue" points="196.826,-25.93 205.647,-20.0619 195.091,-19.1482 196.826,-25.93"/>
</g>
</g>
</svg>
