<?xml version="1.0" encoding="UTF-8" standalone="no"?>
<!DOCTYPE svg PUBLIC "-//W3C//DTD SVG 1.1//EN"
 "http://www.w3.org/Graphics/SVG/1.1/DTD/svg11.dtd">
<!-- Generated by graphviz version 2.30.1 (20130221.2233)
 -->
<!-- Title: Ctct\Components\Tracking\BounceActivity\create Pages: 1 -->
<svg width="340pt" height="91pt"
 viewBox="0.00 0.00 340.00 91.00" xmlns="http://www.w3.org/2000/svg" xmlns:xlink="http://www.w3.org/1999/xlink">
<g id="graph0" class="graph" transform="scale(1 1) rotate(0) translate(4 87)">
<title>Ctct\Components\Tracking\BounceActivity\create</title>
<polygon fill="white" stroke="white" points="-4,5 -4,-87 337,-87 337,5 -4,5"/>
<!-- Node1 -->
<g id="node1" class="node"><title>Node1</title>
<polygon fill="#bfbfbf" stroke="black" points="-0.00634766,-25 -0.00634766,-57 134.006,-57 134.006,-25 -0.00634766,-25"/>
<text text-anchor="start" x="7.99365" y="-43" font-family="Helvetica,sans-Serif" font-size="10.00">Ctct\Components\Tracking</text>
<text text-anchor="middle" x="67" y="-31" font-family="Helvetica,sans-Serif" font-size="10.00">\BounceActivity\create</text>
</g>
<!-- Node2 -->
<g id="node2" class="node"><title>Node2</title>
<g id="a_node2"><a xlink:href="class_ctct_1_1_services_1_1_campaign_tracking_service.html#a5a839d70fd23d4f6723f12b361ad9a8d" target="_top" xlink:title="Get a result set of bounces for a given campaign. ">
<polygon fill="white" stroke="black" points="170.38,-51 170.38,-83 331.62,-83 331.62,-51 170.38,-51"/>
<text text-anchor="start" x="178.38" y="-69" font-family="Helvetica,sans-Serif" font-size="10.00">Ctct\Services\CampaignTracking</text>
<text text-anchor="middle" x="251" y="-57" font-family="Helvetica,sans-Serif" font-size="10.00">Service\getBounces</text>
</a>
</g>
</g>
<!-- Node1&#45;&gt;Node2 -->
<g id="edge1" class="edge"><title>Node1&#45;&gt;Node2</title>
<path fill="none" stroke="midnightblue" d="M144.204,-51.8863C152.795,-53.1136 161.567,-54.3667 170.202,-55.6003"/>
<polygon fill="midnightblue" stroke="midnightblue" points="144.616,-48.4096 134.221,-50.4601 143.626,-55.3393 144.616,-48.4096"/>
</g>
<!-- Node3 -->
<g id="node3" class="node"><title>Node3</title>
<g id="a_node3"><a xlink:href="class_ctct_1_1_services_1_1_contact_tracking_service.html#a9a549d6870b28ae70684f8fb55993a59" target="_top" xlink:title="Get bounces for a given contact. ">
<polygon fill="white" stroke="black" points="175.939,-0 175.939,-32 326.061,-32 326.061,-0 175.939,-0"/>
<text text-anchor="start" x="183.939" y="-18" font-family="Helvetica,sans-Serif" font-size="10.00">Ctct\Services\ContactTracking</text>
<text text-anchor="middle" x="251" y="-6" font-family="Helvetica,sans-Serif" font-size="10.00">Service\getBounces</text>
</a>
</g>
</g>
<!-- Node1&#45;&gt;Node3 -->
<g id="edge2" class="edge"><title>Node1&#45;&gt;Node3</title>
<path fill="none" stroke="midnightblue" d="M144.163,-30.5381C154.638,-29.0992 165.382,-27.6233 175.821,-26.1894"/>
<polygon fill="midnightblue" stroke="midnightblue" points="143.652,-27.0753 134.221,-31.9037 144.604,-34.0102 143.652,-27.0753"/>
</g>
</g>
</svg>
