<?xml version="1.0" encoding="UTF-8" standalone="no"?>
<!DOCTYPE svg PUBLIC "-//W3C//DTD SVG 1.1//EN"
 "http://www.w3.org/Graphics/SVG/1.1/DTD/svg11.dtd">
<!-- Generated by graphviz version 2.30.1 (20130221.2233)
 -->
<!-- Title: KWSLog\activate_plugin Pages: 1 -->
<svg width="448pt" height="67pt"
 viewBox="0.00 0.00 448.00 67.00" xmlns="http://www.w3.org/2000/svg" xmlns:xlink="http://www.w3.org/1999/xlink">
<g id="graph0" class="graph" transform="scale(1 1) rotate(0) translate(4 63)">
<title>KWSLog\activate_plugin</title>
<polygon fill="white" stroke="white" points="-4,5 -4,-63 445,-63 445,5 -4,5"/>
<!-- Node1 -->
<g id="node1" class="node"><title>Node1</title>
<polygon fill="#bfbfbf" stroke="black" points="0.522461,-19 0.522461,-39 125.478,-39 125.478,-19 0.522461,-19"/>
<text text-anchor="middle" x="63" y="-25" font-family="Helvetica,sans-Serif" font-size="10.00">KWSLog\activate_plugin</text>
</g>
<!-- Node2 -->
<g id="node2" class="node"><title>Node2</title>
<g id="a_node2"><a xlink:href="class_k_w_s_log.html#a0c83104a09638b06337e41294ead9617" target="_top" xlink:title="KWSLog\\get_log_messages">
<polygon fill="white" stroke="black" points="161.907,-39 161.907,-59 304.093,-59 304.093,-39 161.907,-39"/>
<text text-anchor="middle" x="233" y="-45" font-family="Helvetica,sans-Serif" font-size="10.00">KWSLog\get_log_messages</text>
</a>
</g>
</g>
<!-- Node1&#45;&gt;Node2 -->
<g id="edge1" class="edge"><title>Node1&#45;&gt;Node2</title>
<path fill="none" stroke="midnightblue" d="M135.687,-37.5342C144.367,-38.5674 153.225,-39.6221 161.882,-40.6526"/>
<polygon fill="midnightblue" stroke="midnightblue" points="135.947,-34.0405 125.603,-36.3337 135.119,-40.9914 135.947,-34.0405"/>
</g>
<!-- Node4 -->
<g id="node4" class="node"><title>Node4</title>
<g id="a_node4"><a xlink:href="class_k_w_s_log.html#af3239190bca6a92fd112b2853e7bacc8" target="_top" xlink:title="Create a log message. ">
<polygon fill="white" stroke="black" points="174.138,-0 174.138,-20 291.862,-20 291.862,-0 174.138,-0"/>
<text text-anchor="middle" x="233" y="-6" font-family="Helvetica,sans-Serif" font-size="10.00">KWSLog\log_message</text>
</a>
</g>
</g>
<!-- Node1&#45;&gt;Node4 -->
<g id="edge3" class="edge"><title>Node1&#45;&gt;Node4</title>
<path fill="none" stroke="midnightblue" d="M135.748,-20.8857C148.529,-19.4401 161.698,-17.9508 174.035,-16.5556"/>
<polygon fill="midnightblue" stroke="midnightblue" points="135.146,-17.4313 125.603,-22.033 135.933,-24.3869 135.146,-17.4313"/>
</g>
<!-- Node3 -->
<g id="node3" class="node"><title>Node3</title>
<g id="a_node3"><a xlink:href="class_k_w_s_log.html#a7cfcd90e26d7fcb73ebd6d42989532ec" target="_top" xlink:title="KWSLog\\log_page">
<polygon fill="white" stroke="black" points="340.303,-39 340.303,-59 439.697,-59 439.697,-39 340.303,-39"/>
<text text-anchor="middle" x="390" y="-45" font-family="Helvetica,sans-Serif" font-size="10.00">KWSLog\log_page</text>
</a>
</g>
</g>
<!-- Node2&#45;&gt;Node3 -->
<g id="edge2" class="edge"><title>Node2&#45;&gt;Node3</title>
<path fill="none" stroke="midnightblue" d="M314.26,-49C323.136,-49 331.963,-49 340.276,-49"/>
<polygon fill="midnightblue" stroke="midnightblue" points="314.244,-45.5001 304.244,-49 314.244,-52.5001 314.244,-45.5001"/>
</g>
</g>
</svg>
