<?xml version="1.0" encoding="UTF-8" standalone="no"?>
<!DOCTYPE svg PUBLIC "-//W3C//DTD SVG 1.1//EN"
 "http://www.w3.org/Graphics/SVG/1.1/DTD/svg11.dtd">
<!-- Generated by graphviz version 2.30.1 (20130221.2233)
 -->
<!-- Title: Net_DNS_Resolver\axfr_start Pages: 1 -->
<svg width="470pt" height="40pt"
 viewBox="0.00 0.00 470.00 40.00" xmlns="http://www.w3.org/2000/svg" xmlns:xlink="http://www.w3.org/1999/xlink">
<g id="graph0" class="graph" transform="scale(1 1) rotate(0) translate(4 36)">
<title>Net_DNS_Resolver\axfr_start</title>
<polygon fill="white" stroke="white" points="-4,5 -4,-36 467,-36 467,5 -4,5"/>
<!-- Node1 -->
<g id="node1" class="node"><title>Node1</title>
<polygon fill="#bfbfbf" stroke="black" points="0.647949,-0 0.647949,-32 123.352,-32 123.352,-0 0.647949,-0"/>
<text text-anchor="start" x="8.64795" y="-18" font-family="Helvetica,sans-Serif" font-size="10.00">Net_DNS_Resolver\axfr</text>
<text text-anchor="middle" x="62" y="-6" font-family="Helvetica,sans-Serif" font-size="10.00">_start</text>
</g>
<!-- Node2 -->
<g id="node2" class="node"><title>Node2</title>
<g id="a_node2"><a xlink:href="class_net___d_n_s___resolver.html#a9a745e4f5009dac279562318bb927370" target="_top" xlink:title="Performs an AXFR query (zone transfer) ">
<polygon fill="white" stroke="black" points="160.648,-6 160.648,-26 283.352,-26 283.352,-6 160.648,-6"/>
<text text-anchor="middle" x="222" y="-12" font-family="Helvetica,sans-Serif" font-size="10.00">Net_DNS_Resolver\axfr</text>
</a>
</g>
</g>
<!-- Node1&#45;&gt;Node2 -->
<g id="edge1" class="edge"><title>Node1&#45;&gt;Node2</title>
<path fill="none" stroke="midnightblue" d="M133.669,-16C142.634,-16 151.742,-16 160.527,-16"/>
<polygon fill="midnightblue" stroke="midnightblue" points="133.635,-12.5001 123.635,-16 133.635,-19.5001 133.635,-12.5001"/>
</g>
<!-- Node3 -->
<g id="node3" class="node"><title>Node3</title>
<g id="a_node3"><a xlink:href="class_net___d_n_s___resolver.html#a73f7861954f4990bc8d18d6a82f7334d" target="_top" xlink:title="Performs an AXFR query (zone transfer) (OLD BUGGY STYLE) ">
<polygon fill="white" stroke="black" points="320.195,-6 320.195,-26 461.805,-26 461.805,-6 320.195,-6"/>
<text text-anchor="middle" x="391" y="-12" font-family="Helvetica,sans-Serif" font-size="10.00">Net_DNS_Resolver\axfr_old</text>
</a>
</g>
</g>
<!-- Node2&#45;&gt;Node3 -->
<g id="edge2" class="edge"><title>Node2&#45;&gt;Node3</title>
<path fill="none" stroke="midnightblue" d="M293.809,-16C302.46,-16 311.296,-16 319.935,-16"/>
<polygon fill="midnightblue" stroke="midnightblue" points="293.763,-12.5001 283.763,-16 293.763,-19.5001 293.763,-12.5001"/>
</g>
</g>
</svg>
