<?xml version="1.0" encoding="UTF-8" standalone="no"?>
<!DOCTYPE svg PUBLIC "-//W3C//DTD SVG 1.1//EN"
 "http://www.w3.org/Graphics/SVG/1.1/DTD/svg11.dtd">
<!-- Generated by graphviz version 2.30.1 (20130221.2233)
 -->
<!-- Title: Ctct\Services\ActivityService\addRemoveContactsFromListsActivityFromFile Pages: 1 -->
<svg width="540pt" height="130pt"
 viewBox="0.00 0.00 540.00 130.00" xmlns="http://www.w3.org/2000/svg" xmlns:xlink="http://www.w3.org/1999/xlink">
<g id="graph0" class="graph" transform="scale(1 1) rotate(0) translate(4 126)">
<title>Ctct\Services\ActivityService\addRemoveContactsFromListsActivityFromFile</title>
<polygon fill="white" stroke="white" points="-4,5 -4,-126 537,-126 537,5 -4,5"/>
<!-- Node1 -->
<g id="node1" class="node"><title>Node1</title>
<polygon fill="#bfbfbf" stroke="black" points="0.138184,-33 0.138184,-77 187.862,-77 187.862,-33 0.138184,-33"/>
<text text-anchor="start" x="8.13818" y="-63" font-family="Helvetica,sans-Serif" font-size="10.00">Ctct\Services\ActivityService</text>
<text text-anchor="start" x="8.13818" y="-51" font-family="Helvetica,sans-Serif" font-size="10.00">\addRemoveContactsFromListsActivity</text>
<text text-anchor="middle" x="94" y="-39" font-family="Helvetica,sans-Serif" font-size="10.00">FromFile</text>
</g>
<!-- Node2 -->
<g id="node2" class="node"><title>Node2</title>
<g id="a_node2"><a xlink:href="class_ctct_1_1_services_1_1_base_service.html#a682b3692a73a009ec026442110cf968e" target="_top" xlink:title="Build a URL from a base url and optional array of query parameters to append to the url...">
<polygon fill="white" stroke="black" points="225.091,-90 225.091,-122 358.909,-122 358.909,-90 225.091,-90"/>
<text text-anchor="start" x="233.091" y="-108" font-family="Helvetica,sans-Serif" font-size="10.00">Ctct\Services\BaseService</text>
<text text-anchor="middle" x="292" y="-96" font-family="Helvetica,sans-Serif" font-size="10.00">\buildUrl</text>
</a>
</g>
</g>
<!-- Node1&#45;&gt;Node2 -->
<g id="edge1" class="edge"><title>Node1&#45;&gt;Node2</title>
<path fill="none" stroke="midnightblue" d="M179.829,-77.0727C193.102,-80.5266 206.704,-84.0658 219.636,-87.4308"/>
<polygon fill="midnightblue" stroke="midnightblue" points="218.819,-90.8347 229.378,-89.9658 220.582,-84.0603 218.819,-90.8347"/>
</g>
<!-- Node3 -->
<g id="node3" class="node"><title>Node3</title>
<g id="a_node3"><a xlink:href="class_ctct_1_1_components_1_1_activities_1_1_activity.html#ad67770e21bcf6b61eef2f6c519763d03" target="_top" xlink:title="Factory method to create an Activity object from an array. ">
<polygon fill="white" stroke="black" points="224.256,-39 224.256,-71 359.744,-71 359.744,-39 224.256,-39"/>
<text text-anchor="start" x="232.256" y="-57" font-family="Helvetica,sans-Serif" font-size="10.00">Ctct\Components\Activities</text>
<text text-anchor="middle" x="292" y="-45" font-family="Helvetica,sans-Serif" font-size="10.00">\Activity\create</text>
</a>
</g>
</g>
<!-- Node1&#45;&gt;Node3 -->
<g id="edge2" class="edge"><title>Node1&#45;&gt;Node3</title>
<path fill="none" stroke="midnightblue" d="M188.121,-55C196.758,-55 205.446,-55 213.915,-55"/>
<polygon fill="midnightblue" stroke="midnightblue" points="214.119,-58.5001 224.119,-55 214.119,-51.5001 214.119,-58.5001"/>
</g>
<!-- Node5 -->
<g id="node5" class="node"><title>Node5</title>
<g id="a_node5"><a xlink:href="class_ctct_1_1_util_1_1_config.html#ab224fae1ce1a1993c1ac42c708dc7de9" target="_top" xlink:title="Get a configuration property given a specified location, example usage: Config::get(&#39;auth.token_endpoint&#39;) ">
<polygon fill="white" stroke="black" points="242.318,-0 242.318,-20 341.682,-20 341.682,-0 242.318,-0"/>
<text text-anchor="middle" x="292" y="-6" font-family="Helvetica,sans-Serif" font-size="10.00">Ctct\Util\Config\get</text>
</a>
</g>
</g>
<!-- Node1&#45;&gt;Node5 -->
<g id="edge4" class="edge"><title>Node1&#45;&gt;Node5</title>
<path fill="none" stroke="midnightblue" d="M188.121,-33.6202C205.055,-29.7323 222.184,-25.7997 237.478,-22.2883"/>
<polygon fill="midnightblue" stroke="midnightblue" points="238.28,-25.6953 247.243,-20.0463 236.713,-18.8728 238.28,-25.6953"/>
</g>
<!-- Node4 -->
<g id="node4" class="node"><title>Node4</title>
<g id="a_node4"><a xlink:href="class_ctct_1_1_components_1_1_activities_1_1_activity_error.html#aa9bc6b634f25fd213c068cbf97e966ec" target="_top" xlink:title="Factory method to create an object from an array. ">
<polygon fill="white" stroke="black" points="396.256,-39 396.256,-71 531.744,-71 531.744,-39 396.256,-39"/>
<text text-anchor="start" x="404.256" y="-57" font-family="Helvetica,sans-Serif" font-size="10.00">Ctct\Components\Activities</text>
<text text-anchor="middle" x="464" y="-45" font-family="Helvetica,sans-Serif" font-size="10.00">\ActivityError\create</text>
</a>
</g>
</g>
<!-- Node3&#45;&gt;Node4 -->
<g id="edge3" class="edge"><title>Node3&#45;&gt;Node4</title>
<path fill="none" stroke="midnightblue" d="M360.189,-55C368.66,-55 377.379,-55 385.988,-55"/>
<polygon fill="midnightblue" stroke="midnightblue" points="386.021,-58.5001 396.021,-55 386.021,-51.5001 386.021,-58.5001"/>
</g>
</g>
</svg>
