<?xml version="1.0" encoding="UTF-8" standalone="no"?>
<!DOCTYPE svg PUBLIC "-//W3C//DTD SVG 1.1//EN"
 "http://www.w3.org/Graphics/SVG/1.1/DTD/svg11.dtd">
<!-- Generated by graphviz version 2.30.1 (20130221.2233)
 -->
<!-- Title: CTCT_Registration\process_submission Pages: 1 -->
<svg width="324pt" height="40pt"
 viewBox="0.00 0.00 324.00 40.00" xmlns="http://www.w3.org/2000/svg" xmlns:xlink="http://www.w3.org/1999/xlink">
<g id="graph0" class="graph" transform="scale(1 1) rotate(0) translate(4 36)">
<title>CTCT_Registration\process_submission</title>
<polygon fill="white" stroke="white" points="-4,5 -4,-36 321,-36 321,5 -4,5"/>
<!-- Node1 -->
<g id="node1" class="node"><title>Node1</title>
<polygon fill="#bfbfbf" stroke="black" points="0.312988,-0 0.312988,-32 139.687,-32 139.687,-0 0.312988,-0"/>
<text text-anchor="start" x="8.31299" y="-18" font-family="Helvetica,sans-Serif" font-size="10.00">CTCT_Registration\process</text>
<text text-anchor="middle" x="70" y="-6" font-family="Helvetica,sans-Serif" font-size="10.00">_submission</text>
</g>
<!-- Node2 -->
<g id="node2" class="node"><title>Node2</title>
<g id="a_node2"><a xlink:href="class_c_t_c_t___registration.html#a79a0093c30c386d01853f41205b46367" target="_top" xlink:title="The multisite registration process for logged&#45;in users seems to lack a &#39;register_post&#39;&#45;like solution...">
<polygon fill="white" stroke="black" points="176.313,-0 176.313,-32 315.687,-32 315.687,-0 176.313,-0"/>
<text text-anchor="start" x="184.313" y="-18" font-family="Helvetica,sans-Serif" font-size="10.00">CTCT_Registration\process</text>
<text text-anchor="middle" x="246" y="-6" font-family="Helvetica,sans-Serif" font-size="10.00">_submission_multisite</text>
</a>
</g>
</g>
<!-- Node1&#45;&gt;Node2 -->
<g id="edge1" class="edge"><title>Node1&#45;&gt;Node2</title>
<path fill="none" stroke="midnightblue" d="M149.961,-16C158.704,-16 167.556,-16 176.16,-16"/>
<polygon fill="midnightblue" stroke="midnightblue" points="149.769,-12.5001 139.769,-16 149.769,-19.5001 149.769,-12.5001"/>
</g>
</g>
</svg>
