<?xml version="1.0" encoding="UTF-8" standalone="no"?>
<!DOCTYPE svg PUBLIC "-//W3C//DTD SVG 1.1//EN"
 "http://www.w3.org/Graphics/SVG/1.1/DTD/svg11.dtd">
<!-- Generated by graphviz version 2.30.1 (20130221.2233)
 -->
<!-- Title: OAuthRequest\__construct Pages: 1 -->
<svg width="466pt" height="40pt"
 viewBox="0.00 0.00 466.00 40.00" xmlns="http://www.w3.org/2000/svg" xmlns:xlink="http://www.w3.org/1999/xlink">
<g id="graph0" class="graph" transform="scale(1 1) rotate(0) translate(4 36)">
<title>OAuthRequest\__construct</title>
<polygon fill="white" stroke="white" points="-4,5 -4,-36 463,-36 463,5 -4,5"/>
<!-- Node1 -->
<g id="node1" class="node"><title>Node1</title>
<polygon fill="#bfbfbf" stroke="black" points="-0.0341797,-6 -0.0341797,-26 136.034,-26 136.034,-6 -0.0341797,-6"/>
<text text-anchor="middle" x="68" y="-12" font-family="Helvetica,sans-Serif" font-size="10.00">OAuthRequest\__construct</text>
</g>
<!-- Node2 -->
<g id="node2" class="node"><title>Node2</title>
<g id="a_node2"><a xlink:href="class_o_auth_util.html#af051ff3956c8d8d7260e15166d392947" target="_top" xlink:title="OAuthUtil\\parse_parameters">
<polygon fill="white" stroke="black" points="172.638,-6 172.638,-26 315.362,-26 315.362,-6 172.638,-6"/>
<text text-anchor="middle" x="244" y="-12" font-family="Helvetica,sans-Serif" font-size="10.00">OAuthUtil\parse_parameters</text>
</a>
</g>
</g>
<!-- Node1&#45;&gt;Node2 -->
<g id="edge1" class="edge"><title>Node1&#45;&gt;Node2</title>
<path fill="none" stroke="midnightblue" d="M136.273,-16C144.796,-16 153.586,-16 162.291,-16"/>
<polygon fill="midnightblue" stroke="midnightblue" points="162.451,-19.5001 172.451,-16 162.451,-12.5001 162.451,-19.5001"/>
</g>
<!-- Node3 -->
<g id="node3" class="node"><title>Node3</title>
<g id="a_node3"><a xlink:href="class_o_auth_util.html#aa538116f9d9363b898929c51fc58c3d4" target="_top" xlink:title="OAuthUtil\\urldecode\l_rfc3986">
<polygon fill="white" stroke="black" points="352.254,-0 352.254,-32 457.746,-32 457.746,-0 352.254,-0"/>
<text text-anchor="start" x="360.254" y="-18" font-family="Helvetica,sans-Serif" font-size="10.00">OAuthUtil\urldecode</text>
<text text-anchor="middle" x="405" y="-6" font-family="Helvetica,sans-Serif" font-size="10.00">_rfc3986</text>
</a>
</g>
</g>
<!-- Node2&#45;&gt;Node3 -->
<g id="edge2" class="edge"><title>Node2&#45;&gt;Node3</title>
<path fill="none" stroke="midnightblue" d="M315.666,-16C324.488,-16 333.458,-16 342.133,-16"/>
<polygon fill="midnightblue" stroke="midnightblue" points="342.154,-19.5001 352.154,-16 342.154,-12.5001 342.154,-19.5001"/>
</g>
</g>
</svg>
