<?xml version="1.0" encoding="UTF-8" standalone="no"?>
<!DOCTYPE svg PUBLIC "-//W3C//DTD SVG 1.1//EN"
 "http://www.w3.org/Graphics/SVG/1.1/DTD/svg11.dtd">
<!-- Generated by graphviz version 2.30.1 (20130221.2233)
 -->
<!-- Title: OAuthRequest\__toString Pages: 1 -->
<svg width="758pt" height="85pt"
 viewBox="0.00 0.00 758.00 85.00" xmlns="http://www.w3.org/2000/svg" xmlns:xlink="http://www.w3.org/1999/xlink">
<g id="graph0" class="graph" transform="scale(1 1) rotate(0) translate(4 81)">
<title>OAuthRequest\__toString</title>
<polygon fill="white" stroke="white" points="-4,5 -4,-81 755,-81 755,5 -4,5"/>
<!-- Node1 -->
<g id="node1" class="node"><title>Node1</title>
<polygon fill="#bfbfbf" stroke="black" points="0.0200195,-28 0.0200195,-48 129.98,-48 129.98,-28 0.0200195,-28"/>
<text text-anchor="middle" x="65" y="-34" font-family="Helvetica,sans-Serif" font-size="10.00">OAuthRequest\__toString</text>
</g>
<!-- Node2 -->
<g id="node2" class="node"><title>Node2</title>
<g id="a_node2"><a xlink:href="class_o_auth_request.html#a4d27097917ad20e1958f1034eaa1702f" target="_top" xlink:title="builds a url usable for a GET request ">
<polygon fill="white" stroke="black" points="166.306,-28 166.306,-48 275.694,-48 275.694,-28 166.306,-28"/>
<text text-anchor="middle" x="221" y="-34" font-family="Helvetica,sans-Serif" font-size="10.00">OAuthRequest\to_url</text>
</a>
</g>
</g>
<!-- Node1&#45;&gt;Node2 -->
<g id="edge1" class="edge"><title>Node1&#45;&gt;Node2</title>
<path fill="none" stroke="midnightblue" d="M130.418,-38C138.856,-38 147.501,-38 155.933,-38"/>
<polygon fill="midnightblue" stroke="midnightblue" points="156.084,-41.5001 166.084,-38 156.084,-34.5001 156.084,-41.5001"/>
</g>
<!-- Node3 -->
<g id="node3" class="node"><title>Node3</title>
<g id="a_node3"><a xlink:href="class_o_auth_request.html#a45591cde97f0abdd0f8e985db3bf463c" target="_top" xlink:title="builds the data one would send in a POST request ">
<polygon fill="white" stroke="black" points="320.68,-51 320.68,-71 457.32,-71 457.32,-51 320.68,-51"/>
<text text-anchor="middle" x="389" y="-57" font-family="Helvetica,sans-Serif" font-size="10.00">OAuthRequest\to_postdata</text>
</a>
</g>
</g>
<!-- Node2&#45;&gt;Node3 -->
<g id="edge2" class="edge"><title>Node2&#45;&gt;Node3</title>
<path fill="none" stroke="midnightblue" d="M275.895,-45.4674C286.879,-46.9892 298.64,-48.6188 310.264,-50.2293"/>
<polygon fill="midnightblue" stroke="midnightblue" points="310.034,-53.7308 320.42,-51.6365 310.995,-46.7971 310.034,-53.7308"/>
</g>
<!-- Node6 -->
<g id="node6" class="node"><title>Node6</title>
<g id="a_node6"><a xlink:href="class_o_auth_request.html#a4a948aed0c29c809d912fab7452f1cc1" target="_top" xlink:title="parses the url and rebuilds it to be scheme://host/path ">
<polygon fill="white" stroke="black" points="312.626,-0 312.626,-32 465.374,-32 465.374,-0 312.626,-0"/>
<text text-anchor="start" x="320.626" y="-18" font-family="Helvetica,sans-Serif" font-size="10.00">OAuthRequest\get_normalized</text>
<text text-anchor="middle" x="389" y="-6" font-family="Helvetica,sans-Serif" font-size="10.00">_http_url</text>
</a>
</g>
</g>
<!-- Node2&#45;&gt;Node6 -->
<g id="edge5" class="edge"><title>Node2&#45;&gt;Node6</title>
<path fill="none" stroke="midnightblue" d="M275.895,-30.8572C284.356,-29.736 293.278,-28.5535 302.243,-27.3653"/>
<polygon fill="midnightblue" stroke="midnightblue" points="302.908,-30.808 312.361,-26.0244 301.988,-23.8686 302.908,-30.808"/>
</g>
<!-- Node4 -->
<g id="node4" class="node"><title>Node4</title>
<g id="a_node4"><a xlink:href="class_o_auth_util.html#afa225b04225a3b8abe804ee294e0d631" target="_top" xlink:title="OAuthUtil\\build_http\l_query">
<polygon fill="white" stroke="black" points="502.53,-45 502.53,-77 607.47,-77 607.47,-45 502.53,-45"/>
<text text-anchor="start" x="510.53" y="-63" font-family="Helvetica,sans-Serif" font-size="10.00">OAuthUtil\build_http</text>
<text text-anchor="middle" x="555" y="-51" font-family="Helvetica,sans-Serif" font-size="10.00">_query</text>
</a>
</g>
</g>
<!-- Node3&#45;&gt;Node4 -->
<g id="edge3" class="edge"><title>Node3&#45;&gt;Node4</title>
<path fill="none" stroke="midnightblue" d="M457.652,-61C469.069,-61 480.868,-61 492.128,-61"/>
<polygon fill="midnightblue" stroke="midnightblue" points="492.291,-64.5001 502.291,-61 492.29,-57.5001 492.291,-64.5001"/>
</g>
<!-- Node5 -->
<g id="node5" class="node"><title>Node5</title>
<g id="a_node5"><a xlink:href="class_o_auth_util.html#adcb789bfefc729678d5188f05d19b5ba" target="_top" xlink:title="OAuthUtil\\urlencode\l_rfc3986">
<polygon fill="white" stroke="black" points="644.254,-45 644.254,-77 749.746,-77 749.746,-45 644.254,-45"/>
<text text-anchor="start" x="652.254" y="-63" font-family="Helvetica,sans-Serif" font-size="10.00">OAuthUtil\urlencode</text>
<text text-anchor="middle" x="697" y="-51" font-family="Helvetica,sans-Serif" font-size="10.00">_rfc3986</text>
</a>
</g>
</g>
<!-- Node4&#45;&gt;Node5 -->
<g id="edge4" class="edge"><title>Node4&#45;&gt;Node5</title>
<path fill="none" stroke="midnightblue" d="M607.733,-61C616.243,-61 625.14,-61 633.871,-61"/>
<polygon fill="midnightblue" stroke="midnightblue" points="634.012,-64.5001 644.012,-61 634.012,-57.5001 634.012,-64.5001"/>
</g>
</g>
</svg>
