<?xml version="1.0" encoding="UTF-8" standalone="no"?>
<!DOCTYPE svg PUBLIC "-//W3C//DTD SVG 1.1//EN"
 "http://www.w3.org/Graphics/SVG/1.1/DTD/svg11.dtd">
<!-- Generated by graphviz version 2.30.1 (20130221.2233)
 -->
<!-- Title: Net_DNS_RR_TSIG\Net_DNS_RR_TSIG Pages: 1 -->
<svg width="468pt" height="106pt"
 viewBox="0.00 0.00 468.00 106.00" xmlns="http://www.w3.org/2000/svg" xmlns:xlink="http://www.w3.org/1999/xlink">
<g id="graph0" class="graph" transform="scale(1 1) rotate(0) translate(4 102)">
<title>Net_DNS_RR_TSIG\Net_DNS_RR_TSIG</title>
<polygon fill="white" stroke="white" points="-4,5 -4,-102 465,-102 465,5 -4,5"/>
<!-- Node1 -->
<g id="node1" class="node"><title>Node1</title>
<polygon fill="#bfbfbf" stroke="black" points="0.26123,-33 0.26123,-65 125.739,-65 125.739,-33 0.26123,-33"/>
<text text-anchor="start" x="8.26123" y="-51" font-family="Helvetica,sans-Serif" font-size="10.00">Net_DNS_RR_TSIG\Net</text>
<text text-anchor="middle" x="63" y="-39" font-family="Helvetica,sans-Serif" font-size="10.00">_DNS_RR_TSIG</text>
</g>
<!-- Node2 -->
<g id="node2" class="node"><title>Node2</title>
<g id="a_node2"><a xlink:href="class_net___d_n_s___packet.html#a9844b7ce62cb096db44f58882f8ca403" target="_top" xlink:title="DNS packet decompression method. ">
<polygon fill="white" stroke="black" points="162.68,-78 162.68,-98 309.32,-98 309.32,-78 162.68,-78"/>
<text text-anchor="middle" x="236" y="-84" font-family="Helvetica,sans-Serif" font-size="10.00">Net_DNS_Packet\dn_expand</text>
</a>
</g>
</g>
<!-- Node1&#45;&gt;Node2 -->
<g id="edge1" class="edge"><title>Node1&#45;&gt;Node2</title>
<path fill="none" stroke="midnightblue" d="M126.219,-63.1902C144.18,-67.2866 163.625,-71.7214 181.039,-75.6932"/>
<polygon fill="midnightblue" stroke="midnightblue" points="180.504,-79.1609 191.032,-77.9722 182.06,-72.3361 180.504,-79.1609"/>
</g>
<!-- Node3 -->
<g id="node3" class="node"><title>Node3</title>
<g id="a_node3"><a xlink:href="class_net___d_n_s___r_r___t_s_i_g.html#a63aef56e97be1cf55d47cbcc584cd60f" target="_top" xlink:title="Net_DNS_RR_TSIG\\error">
<polygon fill="white" stroke="black" points="170.485,-39 170.485,-59 301.515,-59 301.515,-39 170.485,-39"/>
<text text-anchor="middle" x="236" y="-45" font-family="Helvetica,sans-Serif" font-size="10.00">Net_DNS_RR_TSIG\error</text>
</a>
</g>
</g>
<!-- Node1&#45;&gt;Node3 -->
<g id="edge2" class="edge"><title>Node1&#45;&gt;Node3</title>
<path fill="none" stroke="midnightblue" d="M126.219,-49C137.186,-49 148.706,-49 159.979,-49"/>
<polygon fill="midnightblue" stroke="midnightblue" points="160.24,-52.5001 170.24,-49 160.24,-45.5001 160.24,-52.5001"/>
</g>
<!-- Node5 -->
<g id="node5" class="node"><title>Node5</title>
<g id="a_node5"><a xlink:href="class_net___d_n_s___r_r.html#aa9da23331d654752fc950d474aa4c88d" target="_top" xlink:title="Net_DNS_RR\\rdata">
<polygon fill="white" stroke="black" points="184.094,-0 184.094,-20 287.906,-20 287.906,-0 184.094,-0"/>
<text text-anchor="middle" x="236" y="-6" font-family="Helvetica,sans-Serif" font-size="10.00">Net_DNS_RR\rdata</text>
</a>
</g>
</g>
<!-- Node1&#45;&gt;Node5 -->
<g id="edge4" class="edge"><title>Node1&#45;&gt;Node5</title>
<path fill="none" stroke="midnightblue" d="M126.219,-34.8098C144.18,-30.7134 163.625,-26.2786 181.039,-22.3068"/>
<polygon fill="midnightblue" stroke="midnightblue" points="182.06,-25.6639 191.032,-20.0278 180.504,-18.8391 182.06,-25.6639"/>
</g>
<!-- Node4 -->
<g id="node4" class="node"><title>Node4</title>
<g id="a_node4"><a xlink:href="class_net___d_n_s.html#ac6fb33bbed78aa908d67df566bd83dfb" target="_top" xlink:title="Translates rcode integers into names. ">
<polygon fill="white" stroke="black" points="345.813,-39 345.813,-59 460.187,-59 460.187,-39 345.813,-39"/>
<text text-anchor="middle" x="403" y="-45" font-family="Helvetica,sans-Serif" font-size="10.00">Net_DNS\rcodesbyval</text>
</a>
</g>
</g>
<!-- Node3&#45;&gt;Node4 -->
<g id="edge3" class="edge"><title>Node3&#45;&gt;Node4</title>
<path fill="none" stroke="midnightblue" d="M301.739,-49C312.868,-49 324.449,-49 335.621,-49"/>
<polygon fill="midnightblue" stroke="midnightblue" points="335.74,-52.5001 345.74,-49 335.74,-45.5001 335.74,-52.5001"/>
</g>
</g>
</svg>
