<?xml version="1.0" encoding="UTF-8" standalone="no"?>
<!DOCTYPE svg PUBLIC "-//W3C//DTD SVG 1.1//EN"
 "http://www.w3.org/Graphics/SVG/1.1/DTD/svg11.dtd">
<!-- Generated by graphviz version 2.30.1 (20130221.2233)
 -->
<!-- Title: Net_DNS_Resolver\send_udp Pages: 1 -->
<!--zoomable 144 -->
<svg id="main" version="1.1" xmlns="http://www.w3.org/2000/svg" xmlns:xlink="http://www.w3.org/1999/xlink" xml:space="preserve" onload="init(evt)">
<style type="text/css"><![CDATA[
.edge:hover path { stroke: red; }
.edge:hover polygon { stroke: red; fill: red; }
]]></style>
<script type="text/javascript"><![CDATA[
var edges = document.getElementsByTagName('g');
if (edges && edges.length) {
  for (var i=0;i<edges.length;i++) {
    if (edges[i].id.substr(0,4)=='edge') {
      edges[i].setAttribute('class','edge');
    }
  }
}
]]></script>
        <defs>
                <circle id="rim" cx="0" cy="0" r="7"/>
                <circle id="rim2" cx="0" cy="0" r="3.5"/>
                <g id="zoomPlus">
                        <use xlink:href="#rim" fill="#404040">
                                <set attributeName="fill" to="#808080" begin="zoomplus.mouseover" end="zoomplus.mouseout"/>
                        </use>
                        <path d="M-4,0h8M0,-4v8" fill="none" stroke="white" stroke-width="1.5" pointer-events="none"/>
                </g>
                <g id="zoomMin">
                        <use xlink:href="#rim" fill="#404040">
                                <set attributeName="fill" to="#808080" begin="zoomminus.mouseover" end="zoomminus.mouseout"/>
                        </use>
                        <path d="M-4,0h8" fill="none" stroke="white" stroke-width="1.5" pointer-events="none"/>
                </g>
                <g id="dirArrow">
                        <path fill="none" stroke="white" stroke-width="1.5" d="M0,-3.0v7 M-2.5,-0.5L0,-3.0L2.5,-0.5"/>
                </g>
               <g id="resetDef">
                       <use xlink:href="#rim2" fill="#404040">
                               <set attributeName="fill" to="#808080" begin="reset.mouseover" end="reset.mouseout"/>
                       </use>
               </g>
        </defs>

<script type="text/javascript">
var viewWidth = 1078;
var viewHeight = 144;
var sectionId = 'dynsection-30';
</script>
<script xlink:href="svgpan.js"/>
<svg id="graph" class="graph">
<g id="viewport">
<title>Net_DNS_Resolver\send_udp</title>
<polygon fill="white" stroke="white" points="-4,5 -4,-140.44 1075,-140.44 1075,5 -4,5"/>
<!-- Node1 -->
<g id="node1" class="node"><title>Node1</title>
<polygon fill="#bfbfbf" stroke="black" points="0.0175781,-54.4397 0.0175781,-74.4397 149.982,-74.4397 149.982,-54.4397 0.0175781,-54.4397"/>
<text text-anchor="middle" x="75" y="-60.4397" font-family="Helvetica,sans-Serif" font-size="10.00">Net_DNS_Resolver\send_udp</text>
</g>
<!-- Node2 -->
<g id="node2" class="node"><title>Node2</title>
<g id="a_node2"><a xlink:href="class_net___d_n_s___resolver.html#a31d4b4651960d0fb08aa07990d21ce39" target="_top" xlink:title="Sends a packet via UDP to the list of name servers. ">
<polygon fill="white" stroke="black" points="186.141,-74.4397 186.141,-106.44 313.859,-106.44 313.859,-74.4397 186.141,-74.4397"/>
<text text-anchor="start" x="194.141" y="-92.4397" font-family="Helvetica,sans-Serif" font-size="10.00">Net_DNS_Resolver\send</text>
<text text-anchor="middle" x="250" y="-80.4397" font-family="Helvetica,sans-Serif" font-size="10.00">_udp_no_sock_lib</text>
</a>
</g>
</g>
<!-- Node1&#45;&gt;Node2 -->
<g id="edge1" class="edge"><title>Node1&#45;&gt;Node2</title>
<path fill="none" stroke="midnightblue" d="M142.886,-74.492C153.733,-76.1221 165.014,-77.8176 175.998,-79.4683"/>
<polygon fill="midnightblue" stroke="midnightblue" points="175.571,-82.9433 185.98,-80.9685 176.611,-76.0211 175.571,-82.9433"/>
</g>
<!-- Node9 -->
<g id="node9" class="node"><title>Node9</title>
<g id="a_node9"><a xlink:href="class_net___d_n_s___resolver.html#a6f7a0d5aaecc4824d9e59c9eb2597a62" target="_top" xlink:title="Sends a packet via UDP to the list of name servers. ">
<polygon fill="white" stroke="black" points="186.141,-23.4397 186.141,-55.4397 313.859,-55.4397 313.859,-23.4397 186.141,-23.4397"/>
<text text-anchor="start" x="194.141" y="-41.4397" font-family="Helvetica,sans-Serif" font-size="10.00">Net_DNS_Resolver\send</text>
<text text-anchor="middle" x="250" y="-29.4397" font-family="Helvetica,sans-Serif" font-size="10.00">_udp_with_sock_lib</text>
</a>
</g>
</g>
<!-- Node1&#45;&gt;Node9 -->
<g id="edge10" class="edge"><title>Node1&#45;&gt;Node9</title>
<path fill="none" stroke="midnightblue" d="M145.369,-54.4153C155.451,-52.9584 165.856,-51.4547 176.007,-49.9878"/>
<polygon fill="midnightblue" stroke="midnightblue" points="176.655,-53.4306 186.052,-48.5363 175.654,-46.5026 176.655,-53.4306"/>
</g>
<!-- Node3 -->
<g id="node3" class="node"><title>Node3</title>
<g id="a_node3"><a xlink:href="class_net___d_n_s___resolver.html#a3bf22a7a58480dd7a6fd0dd17807fc70" target="_top" xlink:title="Gets or sets the nameservers to be queried. ">
<polygon fill="white" stroke="black" points="350.084,-54.4397 350.084,-74.4397 513.916,-74.4397 513.916,-54.4397 350.084,-54.4397"/>
<text text-anchor="middle" x="432" y="-60.4397" font-family="Helvetica,sans-Serif" font-size="10.00">Net_DNS_Resolver\nameservers</text>
</a>
</g>
</g>
<!-- Node2&#45;&gt;Node3 -->
<g id="edge2" class="edge"><title>Node2&#45;&gt;Node3</title>
<path fill="none" stroke="midnightblue" d="M313.955,-81.3461C326.115,-79.5898 339,-77.7286 351.604,-75.908"/>
<polygon fill="midnightblue" stroke="midnightblue" points="352.236,-79.3532 361.633,-74.4594 351.235,-72.4251 352.236,-79.3532"/>
</g>
<!-- Node4 -->
<g id="node4" class="node"><title>Node4</title>
<g id="a_node4"><a xlink:href="class_net___d_n_s___resolver.html#ae1bb14089519fe774d025156114aae4f" target="_top" xlink:title="Net_DNS_Resolver\\cname_addr">
<polygon fill="white" stroke="black" points="550.188,-116.44 550.188,-136.44 711.812,-136.44 711.812,-116.44 550.188,-116.44"/>
<text text-anchor="middle" x="631" y="-122.44" font-family="Helvetica,sans-Serif" font-size="10.00">Net_DNS_Resolver\cname_addr</text>
</a>
</g>
</g>
<!-- Node3&#45;&gt;Node4 -->
<g id="edge3" class="edge"><title>Node3&#45;&gt;Node4</title>
<path fill="none" stroke="midnightblue" d="M464.772,-74.5194C488.299,-81.9755 521.141,-92.3672 550,-101.44 562.377,-105.331 575.838,-109.544 588.125,-113.383"/>
<polygon fill="midnightblue" stroke="midnightblue" points="587.096,-116.728 597.684,-116.368 589.182,-110.047 587.096,-116.728"/>
</g>
<!-- Node5 -->
<g id="node5" class="node"><title>Node5</title>
<g id="a_node5"><a xlink:href="class_net___d_n_s___resolver.html#a4358663ec326e406c398f6cb09bd5544" target="_top" xlink:title="Initializes the Resolver Object. ">
<polygon fill="white" stroke="black" points="570.202,-26.4397 570.202,-58.4397 691.798,-58.4397 691.798,-26.4397 570.202,-26.4397"/>
<text text-anchor="start" x="578.202" y="-44.4397" font-family="Helvetica,sans-Serif" font-size="10.00">Net_DNS_Resolver\Net</text>
<text text-anchor="middle" x="631" y="-32.4397" font-family="Helvetica,sans-Serif" font-size="10.00">_DNS_Resolver</text>
</a>
</g>
</g>
<!-- Node3&#45;&gt;Node5 -->
<g id="edge4" class="edge"><title>Node3&#45;&gt;Node5</title>
<path fill="none" stroke="midnightblue" d="M513.98,-55.3962C529.242,-53.6918 545.084,-51.9227 559.976,-50.2597"/>
<polygon fill="midnightblue" stroke="midnightblue" points="560.565,-53.7157 570.115,-49.1274 559.788,-46.7589 560.565,-53.7157"/>
</g>
<!-- Node6 -->
<g id="node6" class="node"><title>Node6</title>
<g id="a_node6"><a xlink:href="class_net___d_n_s___resolver.html#aa2e8d58074354b1f9292500119470431" target="_top" xlink:title="Initalizes the resolver library. ">
<polygon fill="white" stroke="black" points="747.865,-32.4397 747.865,-52.4397 886.135,-52.4397 886.135,-32.4397 747.865,-32.4397"/>
<text text-anchor="middle" x="817" y="-38.4397" font-family="Helvetica,sans-Serif" font-size="10.00">Net_DNS_Resolver\res_init</text>
</a>
</g>
</g>
<!-- Node5&#45;&gt;Node6 -->
<g id="edge5" class="edge"><title>Node5&#45;&gt;Node6</title>
<path fill="none" stroke="midnightblue" d="M691.994,-42.4397C706.479,-42.4397 722.174,-42.4397 737.372,-42.4397"/>
<polygon fill="midnightblue" stroke="midnightblue" points="737.793,-45.9398 747.793,-42.4397 737.793,-38.9398 737.793,-45.9398"/>
</g>
<!-- Node7 -->
<g id="node7" class="node"><title>Node7</title>
<g id="a_node7"><a xlink:href="class_net___d_n_s___resolver.html#ae4def11574ad6e93176670c726541bed" target="_top" xlink:title="Reads and parses a resolver configuration file. ">
<polygon fill="white" stroke="black" points="932.976,-59.4397 932.976,-91.4397 1059.02,-91.4397 1059.02,-59.4397 932.976,-59.4397"/>
<text text-anchor="start" x="940.976" y="-77.4397" font-family="Helvetica,sans-Serif" font-size="10.00">Net_DNS_Resolver\read</text>
<text text-anchor="middle" x="996" y="-65.4397" font-family="Helvetica,sans-Serif" font-size="10.00">_config</text>
</a>
</g>
</g>
<!-- Node6&#45;&gt;Node7 -->
<g id="edge6" class="edge"><title>Node6&#45;&gt;Node7</title>
<path fill="none" stroke="midnightblue" d="M872.068,-52.5201C888.13,-55.5147 905.985,-58.8436 922.997,-62.0154"/>
<polygon fill="midnightblue" stroke="midnightblue" points="922.424,-65.4687 932.896,-63.8609 923.707,-58.5873 922.424,-65.4687"/>
</g>
<!-- Node8 -->
<g id="node8" class="node"><title>Node8</title>
<g id="a_node8"><a xlink:href="class_net___d_n_s___resolver.html#a2a3d25c5dd2b1810b60ad05b84787855" target="_top" xlink:title="Examines the environment for resolver config information. ">
<polygon fill="white" stroke="black" points="922.133,-9.43968 922.133,-29.4397 1069.87,-29.4397 1069.87,-9.43968 922.133,-9.43968"/>
<text text-anchor="middle" x="996" y="-15.4397" font-family="Helvetica,sans-Serif" font-size="10.00">Net_DNS_Resolver\read_env</text>
</a>
</g>
</g>
<!-- Node6&#45;&gt;Node8 -->
<g id="edge8" class="edge"><title>Node6&#45;&gt;Node8</title>
<path fill="none" stroke="midnightblue" d="M886.18,-33.5802C894.579,-32.4887 903.237,-31.3637 911.827,-30.2474"/>
<polygon fill="midnightblue" stroke="midnightblue" points="912.396,-33.7031 921.862,-28.9436 911.494,-26.7614 912.396,-33.7031"/>
</g>
<!-- Node7&#45;&gt;Node3 -->
<g id="edge7" class="edge"><title>Node7&#45;&gt;Node3</title>
<path fill="none" stroke="midnightblue" d="M932.722,-74.4705C846.667,-73.0969 686.541,-70.4175 550,-67.4397 541.677,-67.2582 533.022,-67.0579 524.354,-66.8496"/>
<polygon fill="midnightblue" stroke="midnightblue" points="524.274,-63.3467 514.191,-66.6019 524.103,-70.3446 524.274,-63.3467"/>
</g>
<!-- Node8&#45;&gt;Node3 -->
<g id="edge9" class="edge"><title>Node8&#45;&gt;Node3</title>
<path fill="none" stroke="midnightblue" d="M922.1,-10.0915C833.266,-0.721964 679.049,9.00291 550,-16.4397 517.958,-22.7569 483.65,-37.9388 460.528,-49.5508"/>
<polygon fill="midnightblue" stroke="midnightblue" points="458.636,-46.5879 451.342,-54.2726 461.836,-52.8136 458.636,-46.5879"/>
</g>
<!-- Node9&#45;&gt;Node3 -->
<g id="edge11" class="edge"><title>Node9&#45;&gt;Node3</title>
<path fill="none" stroke="midnightblue" d="M313.955,-48.1835C325.168,-49.7408 336.998,-51.3839 348.656,-53.003"/>
<polygon fill="midnightblue" stroke="midnightblue" points="348.45,-56.5079 358.836,-54.417 349.413,-49.5745 348.45,-56.5079"/>
</g>
</g>
</svg>
        <g id="navigator" transform="translate(0 0)" fill="#404254">
                <rect fill="#f2f5e9" fill-opacity="0.5" stroke="#606060" stroke-width=".5" x="0" y="0" width="60" height="60"/>
                <use id="zoomplus" xlink:href="#zoomPlus" x="17" y="9" onmousedown="handleZoom(evt,'in')"/>
                <use id="zoomminus" xlink:href="#zoomMin" x="42" y="9" onmousedown="handleZoom(evt,'out')"/>
                <use id="reset" xlink:href="#resetDef" x="30" y="36" onmousedown="handleReset()"/>
                <g id="arrowUp" xlink:href="#dirArrow" transform="translate(30 24)" onmousedown="handlePan(0,-1)">
                  <use xlink:href="#rim" fill="#404040">
                        <set attributeName="fill" to="#808080" begin="arrowUp.mouseover" end="arrowUp.mouseout"/>
                  </use>
                  <path fill="none" stroke="white" stroke-width="1.5" d="M0,-3.0v7 M-2.5,-0.5L0,-3.0L2.5,-0.5"/>
                </g>
                <g id="arrowRight" xlink:href="#dirArrow" transform="rotate(90) translate(36 -43)" onmousedown="handlePan(1,0)">
                  <use xlink:href="#rim" fill="#404040">
                        <set attributeName="fill" to="#808080" begin="arrowRight.mouseover" end="arrowRight.mouseout"/>
                  </use>
                  <path fill="none" stroke="white" stroke-width="1.5" d="M0,-3.0v7 M-2.5,-0.5L0,-3.0L2.5,-0.5"/>
                </g>
                <g id="arrowDown" xlink:href="#dirArrow" transform="rotate(180) translate(-30 -48)" onmousedown="handlePan(0,1)">
                  <use xlink:href="#rim" fill="#404040">
                        <set attributeName="fill" to="#808080" begin="arrowDown.mouseover" end="arrowDown.mouseout"/>
                  </use>
                  <path fill="none" stroke="white" stroke-width="1.5" d="M0,-3.0v7 M-2.5,-0.5L0,-3.0L2.5,-0.5"/>
                </g>
                <g id="arrowLeft" xlink:href="#dirArrow" transform="rotate(270) translate(-36 17)" onmousedown="handlePan(-1,0)">
                  <use xlink:href="#rim" fill="#404040">
                        <set attributeName="fill" to="#808080" begin="arrowLeft.mouseover" end="arrowLeft.mouseout"/>
                  </use>
                  <path fill="none" stroke="white" stroke-width="1.5" d="M0,-3.0v7 M-2.5,-0.5L0,-3.0L2.5,-0.5"/>
                </g>
        </g>
        <svg viewBox="0 0 15 15" width="100%" height="30px" preserveAspectRatio="xMaxYMin meet">
         <g id="arrow_out" transform="scale(0.3 0.3)">
          <a xlink:href="class_net___d_n_s___resolver_a77e292f0bf9e3cadf36d26b76b02a733_cgraph_org.svg" target="_base">
           <rect id="button" ry="5" rx="5" y="6" x="6" height="38" width="38"
                fill="#f2f5e9" fill-opacity="0.5" stroke="#606060" stroke-width="1.0"/>
           <path id="arrow"
             d="M 11.500037,31.436501 C 11.940474,20.09759 22.043105,11.32322 32.158766,21.979434 L 37.068811,17.246167 C 37.068811,17.246167 37.088388,32 37.088388,32 L 22.160133,31.978069 C 22.160133,31.978069 26.997745,27.140456 26.997745,27.140456 C 18.528582,18.264221 13.291696,25.230495 11.500037,31.436501 z"
             style="fill:#404040;"/>
          </a>
         </g>
        </svg>
</svg>
