<?xml version="1.0" encoding="UTF-8" standalone="no"?>
<!DOCTYPE svg PUBLIC "-//W3C//DTD SVG 1.1//EN"
 "http://www.w3.org/Graphics/SVG/1.1/DTD/svg11.dtd">
<!-- Generated by graphviz version 2.30.1 (20130221.2233)
 -->
<!-- Title: Net_DNS_Resolver\search Pages: 1 -->
<svg width="1788pt" height="178pt"
 viewBox="0.00 0.00 1788.00 178.00" xmlns="http://www.w3.org/2000/svg" xmlns:xlink="http://www.w3.org/1999/xlink">
<g id="graph0" class="graph" transform="scale(1 1) rotate(0) translate(4 174)">
<title>Net_DNS_Resolver\search</title>
<polygon fill="white" stroke="white" points="-4,5 -4,-174 1785,-174 1785,5 -4,5"/>
<!-- Node1 -->
<g id="node1" class="node"><title>Node1</title>
<polygon fill="#bfbfbf" stroke="black" points="-0.0244141,-99 -0.0244141,-119 136.024,-119 136.024,-99 -0.0244141,-99"/>
<text text-anchor="middle" x="68" y="-105" font-family="Helvetica,sans-Serif" font-size="10.00">Net_DNS_Resolver\search</text>
</g>
<!-- Node2 -->
<g id="node2" class="node"><title>Node2</title>
<g id="a_node2"><a xlink:href="class_net___d_n_s___resolver.html#a433200f56099815168ddd63a715e8ac5" target="_top" xlink:title="Queries nameservers for an answer. ">
<polygon fill="white" stroke="black" points="172.476,-99 172.476,-119 303.524,-119 303.524,-99 172.476,-99"/>
<text text-anchor="middle" x="238" y="-105" font-family="Helvetica,sans-Serif" font-size="10.00">Net_DNS_Resolver\query</text>
</a>
</g>
</g>
<!-- Node1&#45;&gt;Node2 -->
<g id="edge1" class="edge"><title>Node1&#45;&gt;Node2</title>
<path fill="none" stroke="midnightblue" d="M136.364,-109C144.894,-109 153.662,-109 162.297,-109"/>
<polygon fill="midnightblue" stroke="midnightblue" points="162.351,-112.5 172.351,-109 162.351,-105.5 162.351,-112.5"/>
</g>
<!-- Node3 -->
<g id="node3" class="node"><title>Node3</title>
<g id="a_node3"><a xlink:href="class_net___d_n_s___resolver.html#ab00f28a838dbaebffe986b2fb81b4e8f" target="_top" xlink:title="Queries nameservers for an answer. ">
<polygon fill="white" stroke="black" points="340.311,-99 340.311,-119 489.689,-119 489.689,-99 340.311,-99"/>
<text text-anchor="middle" x="415" y="-105" font-family="Helvetica,sans-Serif" font-size="10.00">Net_DNS_Resolver\rawQuery</text>
</a>
</g>
</g>
<!-- Node2&#45;&gt;Node3 -->
<g id="edge2" class="edge"><title>Node2&#45;&gt;Node3</title>
<path fill="none" stroke="midnightblue" d="M303.666,-109C312.297,-109 321.246,-109 330.145,-109"/>
<polygon fill="midnightblue" stroke="midnightblue" points="330.151,-112.5 340.151,-109 330.151,-105.5 330.151,-112.5"/>
</g>
<!-- Node4 -->
<g id="node4" class="node"><title>Node4</title>
<g id="a_node4"><a xlink:href="class_net___d_n_s___resolver.html#aaabc96cbbb5bce627d31583d0e6af3d5" target="_top" xlink:title="Sends a packet to a nameserver. ">
<polygon fill="white" stroke="black" points="526.141,-99 526.141,-119 653.859,-119 653.859,-99 526.141,-99"/>
<text text-anchor="middle" x="590" y="-105" font-family="Helvetica,sans-Serif" font-size="10.00">Net_DNS_Resolver\send</text>
</a>
</g>
</g>
<!-- Node3&#45;&gt;Node4 -->
<g id="edge3" class="edge"><title>Node3&#45;&gt;Node4</title>
<path fill="none" stroke="midnightblue" d="M489.869,-109C498.516,-109 507.336,-109 515.971,-109"/>
<polygon fill="midnightblue" stroke="midnightblue" points="516.003,-112.5 526.003,-109 516.003,-105.5 516.003,-112.5"/>
</g>
<!-- Node5 -->
<g id="node5" class="node"><title>Node5</title>
<g id="a_node5"><a xlink:href="class_net___d_n_s___resolver.html#a6162ddba85ce36cdf7d8df7ff32161e0" target="_top" xlink:title="Unknown. ">
<polygon fill="white" stroke="black" points="699.756,-138 699.756,-170 830.244,-170 830.244,-138 699.756,-138"/>
<text text-anchor="start" x="707.756" y="-156" font-family="Helvetica,sans-Serif" font-size="10.00">Net_DNS_Resolver\make</text>
<text text-anchor="middle" x="765" y="-144" font-family="Helvetica,sans-Serif" font-size="10.00">_query_packet</text>
</a>
</g>
</g>
<!-- Node4&#45;&gt;Node5 -->
<g id="edge4" class="edge"><title>Node4&#45;&gt;Node5</title>
<path fill="none" stroke="midnightblue" d="M629.825,-119.099C648.312,-123.908 671.025,-129.816 692.472,-135.394"/>
<polygon fill="midnightblue" stroke="midnightblue" points="691.658,-138.799 702.217,-137.929 693.42,-132.024 691.658,-138.799"/>
</g>
<!-- Node6 -->
<g id="node6" class="node"><title>Node6</title>
<g id="a_node6"><a xlink:href="class_net___d_n_s___resolver.html#a5ff32917a5f06e5eba819c0fb4e7196a" target="_top" xlink:title="Sends a packet via TCP to the list of name servers. ">
<polygon fill="white" stroke="black" points="876.69,-102 876.69,-122 1023.31,-122 1023.31,-102 876.69,-102"/>
<text text-anchor="middle" x="950" y="-108" font-family="Helvetica,sans-Serif" font-size="10.00">Net_DNS_Resolver\send_tcp</text>
</a>
</g>
</g>
<!-- Node4&#45;&gt;Node6 -->
<g id="edge5" class="edge"><title>Node4&#45;&gt;Node6</title>
<path fill="none" stroke="midnightblue" d="M654.179,-109.529C713.246,-110.024 801.8,-110.766 866.437,-111.308"/>
<polygon fill="midnightblue" stroke="midnightblue" points="866.568,-114.809 876.597,-111.393 866.627,-107.81 866.568,-114.809"/>
</g>
<!-- Node13 -->
<g id="node13" class="node"><title>Node13</title>
<g id="a_node13"><a xlink:href="class_net___d_n_s___resolver.html#a77e292f0bf9e3cadf36d26b76b02a733" target="_top" xlink:title="Sends a packet via UDP to the list of name servers. ">
<polygon fill="white" stroke="black" points="690.018,-57 690.018,-77 839.982,-77 839.982,-57 690.018,-57"/>
<text text-anchor="middle" x="765" y="-63" font-family="Helvetica,sans-Serif" font-size="10.00">Net_DNS_Resolver\send_udp</text>
</a>
</g>
</g>
<!-- Node4&#45;&gt;Node13 -->
<g id="edge14" class="edge"><title>Node4&#45;&gt;Node13</title>
<path fill="none" stroke="midnightblue" d="M632.438,-98.94C656.529,-93.0911 687.091,-85.6715 712.694,-79.4558"/>
<polygon fill="midnightblue" stroke="midnightblue" points="713.709,-82.8112 722.601,-77.0507 712.057,-76.0087 713.709,-82.8112"/>
</g>
<!-- Node7 -->
<g id="node7" class="node"><title>Node7</title>
<g id="a_node7"><a xlink:href="class_net___d_n_s___resolver.html#a3bf22a7a58480dd7a6fd0dd17807fc70" target="_top" xlink:title="Gets or sets the nameservers to be queried. ">
<polygon fill="white" stroke="black" points="1060.08,-57 1060.08,-77 1223.92,-77 1223.92,-57 1060.08,-57"/>
<text text-anchor="middle" x="1142" y="-63" font-family="Helvetica,sans-Serif" font-size="10.00">Net_DNS_Resolver\nameservers</text>
</a>
</g>
</g>
<!-- Node6&#45;&gt;Node7 -->
<g id="edge6" class="edge"><title>Node6&#45;&gt;Node7</title>
<path fill="none" stroke="midnightblue" d="M993.64,-101.901C1021.75,-95.2427 1058.76,-86.4771 1088.66,-79.3964"/>
<polygon fill="midnightblue" stroke="midnightblue" points="1089.58,-82.7757 1098.5,-77.0652 1087.97,-75.9641 1089.58,-82.7757"/>
</g>
<!-- Node8 -->
<g id="node8" class="node"><title>Node8</title>
<g id="a_node8"><a xlink:href="class_net___d_n_s___resolver.html#ae1bb14089519fe774d025156114aae4f" target="_top" xlink:title="Net_DNS_Resolver\\cname_addr">
<polygon fill="white" stroke="black" points="1260.19,-119 1260.19,-139 1421.81,-139 1421.81,-119 1260.19,-119"/>
<text text-anchor="middle" x="1341" y="-125" font-family="Helvetica,sans-Serif" font-size="10.00">Net_DNS_Resolver\cname_addr</text>
</a>
</g>
</g>
<!-- Node7&#45;&gt;Node8 -->
<g id="edge7" class="edge"><title>Node7&#45;&gt;Node8</title>
<path fill="none" stroke="midnightblue" d="M1174.77,-77.0797C1198.3,-84.5358 1231.14,-94.9276 1260,-104 1272.38,-107.891 1285.84,-112.104 1298.12,-115.943"/>
<polygon fill="midnightblue" stroke="midnightblue" points="1297.1,-119.289 1307.68,-118.929 1299.18,-112.607 1297.1,-119.289"/>
</g>
<!-- Node9 -->
<g id="node9" class="node"><title>Node9</title>
<g id="a_node9"><a xlink:href="class_net___d_n_s___resolver.html#a4358663ec326e406c398f6cb09bd5544" target="_top" xlink:title="Initializes the Resolver Object. ">
<polygon fill="white" stroke="black" points="1280.2,-29 1280.2,-61 1401.8,-61 1401.8,-29 1280.2,-29"/>
<text text-anchor="start" x="1288.2" y="-47" font-family="Helvetica,sans-Serif" font-size="10.00">Net_DNS_Resolver\Net</text>
<text text-anchor="middle" x="1341" y="-35" font-family="Helvetica,sans-Serif" font-size="10.00">_DNS_Resolver</text>
</a>
</g>
</g>
<!-- Node7&#45;&gt;Node9 -->
<g id="edge8" class="edge"><title>Node7&#45;&gt;Node9</title>
<path fill="none" stroke="midnightblue" d="M1223.98,-57.9565C1239.24,-56.2521 1255.08,-54.483 1269.98,-52.82"/>
<polygon fill="midnightblue" stroke="midnightblue" points="1270.56,-56.276 1280.11,-51.6877 1269.79,-49.3193 1270.56,-56.276"/>
</g>
<!-- Node10 -->
<g id="node10" class="node"><title>Node10</title>
<g id="a_node10"><a xlink:href="class_net___d_n_s___resolver.html#aa2e8d58074354b1f9292500119470431" target="_top" xlink:title="Initalizes the resolver library. ">
<polygon fill="white" stroke="black" points="1457.86,-35 1457.86,-55 1596.14,-55 1596.14,-35 1457.86,-35"/>
<text text-anchor="middle" x="1527" y="-41" font-family="Helvetica,sans-Serif" font-size="10.00">Net_DNS_Resolver\res_init</text>
</a>
</g>
</g>
<!-- Node9&#45;&gt;Node10 -->
<g id="edge9" class="edge"><title>Node9&#45;&gt;Node10</title>
<path fill="none" stroke="midnightblue" d="M1401.99,-45C1416.48,-45 1432.17,-45 1447.37,-45"/>
<polygon fill="midnightblue" stroke="midnightblue" points="1447.79,-48.5001 1457.79,-45 1447.79,-41.5001 1447.79,-48.5001"/>
</g>
<!-- Node11 -->
<g id="node11" class="node"><title>Node11</title>
<g id="a_node11"><a xlink:href="class_net___d_n_s___resolver.html#ae4def11574ad6e93176670c726541bed" target="_top" xlink:title="Reads and parses a resolver configuration file. ">
<polygon fill="white" stroke="black" points="1642.98,-62 1642.98,-94 1769.02,-94 1769.02,-62 1642.98,-62"/>
<text text-anchor="start" x="1650.98" y="-80" font-family="Helvetica,sans-Serif" font-size="10.00">Net_DNS_Resolver\read</text>
<text text-anchor="middle" x="1706" y="-68" font-family="Helvetica,sans-Serif" font-size="10.00">_config</text>
</a>
</g>
</g>
<!-- Node10&#45;&gt;Node11 -->
<g id="edge10" class="edge"><title>Node10&#45;&gt;Node11</title>
<path fill="none" stroke="midnightblue" d="M1582.07,-55.0804C1598.13,-58.0751 1615.98,-61.404 1633,-64.5757"/>
<polygon fill="midnightblue" stroke="midnightblue" points="1632.42,-68.0291 1642.9,-66.4213 1633.71,-61.1476 1632.42,-68.0291"/>
</g>
<!-- Node12 -->
<g id="node12" class="node"><title>Node12</title>
<g id="a_node12"><a xlink:href="class_net___d_n_s___resolver.html#a2a3d25c5dd2b1810b60ad05b84787855" target="_top" xlink:title="Examines the environment for resolver config information. ">
<polygon fill="white" stroke="black" points="1632.13,-12 1632.13,-32 1779.87,-32 1779.87,-12 1632.13,-12"/>
<text text-anchor="middle" x="1706" y="-18" font-family="Helvetica,sans-Serif" font-size="10.00">Net_DNS_Resolver\read_env</text>
</a>
</g>
</g>
<!-- Node10&#45;&gt;Node12 -->
<g id="edge12" class="edge"><title>Node10&#45;&gt;Node12</title>
<path fill="none" stroke="midnightblue" d="M1596.18,-36.1405C1604.58,-35.049 1613.24,-33.924 1621.83,-32.8077"/>
<polygon fill="midnightblue" stroke="midnightblue" points="1622.4,-36.2634 1631.86,-31.5039 1621.49,-29.3217 1622.4,-36.2634"/>
</g>
<!-- Node11&#45;&gt;Node7 -->
<g id="edge11" class="edge"><title>Node11&#45;&gt;Node7</title>
<path fill="none" stroke="midnightblue" d="M1642.72,-77.0308C1556.67,-75.6572 1396.54,-72.9778 1260,-70 1251.68,-69.8185 1243.02,-69.6182 1234.35,-69.4099"/>
<polygon fill="midnightblue" stroke="midnightblue" points="1234.27,-65.907 1224.19,-69.1623 1234.1,-72.9049 1234.27,-65.907"/>
</g>
<!-- Node12&#45;&gt;Node7 -->
<g id="edge13" class="edge"><title>Node12&#45;&gt;Node7</title>
<path fill="none" stroke="midnightblue" d="M1632.1,-12.6518C1543.27,-3.28228 1389.05,6.44259 1260,-19 1227.96,-25.3172 1193.65,-40.4991 1170.53,-52.1111"/>
<polygon fill="midnightblue" stroke="midnightblue" points="1168.64,-49.1482 1161.34,-56.8329 1171.84,-55.3739 1168.64,-49.1482"/>
</g>
<!-- Node14 -->
<g id="node14" class="node"><title>Node14</title>
<g id="a_node14"><a xlink:href="class_net___d_n_s___resolver.html#a6f7a0d5aaecc4824d9e59c9eb2597a62" target="_top" xlink:title="Sends a packet via UDP to the list of name servers. ">
<polygon fill="white" stroke="black" points="886.141,-0 886.141,-32 1013.86,-32 1013.86,-0 886.141,-0"/>
<text text-anchor="start" x="894.141" y="-18" font-family="Helvetica,sans-Serif" font-size="10.00">Net_DNS_Resolver\send</text>
<text text-anchor="middle" x="950" y="-6" font-family="Helvetica,sans-Serif" font-size="10.00">_udp_with_sock_lib</text>
</a>
</g>
</g>
<!-- Node13&#45;&gt;Node14 -->
<g id="edge15" class="edge"><title>Node13&#45;&gt;Node14</title>
<path fill="none" stroke="midnightblue" d="M802.155,-56.924C824.791,-50.6156 854.666,-42.2899 881.556,-34.7958"/>
<polygon fill="midnightblue" stroke="midnightblue" points="882.616,-38.1338 891.31,-32.0777 880.737,-31.3908 882.616,-38.1338"/>
</g>
<!-- Node15 -->
<g id="node15" class="node"><title>Node15</title>
<g id="a_node15"><a xlink:href="class_net___d_n_s___resolver.html#a31d4b4651960d0fb08aa07990d21ce39" target="_top" xlink:title="Sends a packet via UDP to the list of name servers. ">
<polygon fill="white" stroke="black" points="886.141,-51 886.141,-83 1013.86,-83 1013.86,-51 886.141,-51"/>
<text text-anchor="start" x="894.141" y="-69" font-family="Helvetica,sans-Serif" font-size="10.00">Net_DNS_Resolver\send</text>
<text text-anchor="middle" x="950" y="-57" font-family="Helvetica,sans-Serif" font-size="10.00">_udp_no_sock_lib</text>
</a>
</g>
</g>
<!-- Node13&#45;&gt;Node15 -->
<g id="edge17" class="edge"><title>Node13&#45;&gt;Node15</title>
<path fill="none" stroke="midnightblue" d="M840.169,-67C851.894,-67 864.012,-67 875.716,-67"/>
<polygon fill="midnightblue" stroke="midnightblue" points="875.874,-70.5001 885.874,-67 875.874,-63.5001 875.874,-70.5001"/>
</g>
<!-- Node14&#45;&gt;Node7 -->
<g id="edge16" class="edge"><title>Node14&#45;&gt;Node7</title>
<path fill="none" stroke="midnightblue" d="M1010.86,-32.0667C1037.53,-39.2264 1068.51,-47.541 1093.54,-54.2619"/>
<polygon fill="midnightblue" stroke="midnightblue" points="1092.96,-57.7298 1103.53,-56.942 1094.78,-50.9691 1092.96,-57.7298"/>
</g>
<!-- Node15&#45;&gt;Node7 -->
<g id="edge18" class="edge"><title>Node15&#45;&gt;Node7</title>
<path fill="none" stroke="midnightblue" d="M1014,-67C1025.48,-67 1037.66,-67 1049.76,-67"/>
<polygon fill="midnightblue" stroke="midnightblue" points="1049.89,-70.5001 1059.89,-67 1049.89,-63.5001 1049.89,-70.5001"/>
</g>
</g>
</svg>
