<?xml version="1.0" encoding="UTF-8" standalone="no"?>
<!DOCTYPE svg PUBLIC "-//W3C//DTD SVG 1.1//EN"
 "http://www.w3.org/Graphics/SVG/1.1/DTD/svg11.dtd">
<!-- Generated by graphviz version 2.30.1 (20130221.2233)
 -->
<!-- Title: ExceptionalData\__construct Pages: 1 -->
<svg width="316pt" height="130pt"
 viewBox="0.00 0.00 316.00 130.00" xmlns="http://www.w3.org/2000/svg" xmlns:xlink="http://www.w3.org/1999/xlink">
<g id="graph0" class="graph" transform="scale(1 1) rotate(0) translate(4 126)">
<title>ExceptionalData\__construct</title>
<polygon fill="white" stroke="white" points="-4,5 -4,-126 313,-126 313,5 -4,5"/>
<!-- Node1 -->
<g id="node1" class="node"><title>Node1</title>
<polygon fill="#bfbfbf" stroke="black" points="0.352539,-57 0.352539,-77 143.647,-77 143.647,-57 0.352539,-57"/>
<text text-anchor="middle" x="72" y="-63" font-family="Helvetica,sans-Serif" font-size="10.00">ExceptionalData\__construct</text>
</g>
<!-- Node2 -->
<g id="node2" class="node"><title>Node2</title>
<g id="a_node2"><a xlink:href="class_exceptional_data.html#a7a98c08b7c53634191e146e5cf56a1fe" target="_top" xlink:title="ExceptionalData\\fill_keys">
<polygon fill="white" stroke="black" points="180.417,-102 180.417,-122 307.583,-122 307.583,-102 180.417,-102"/>
<text text-anchor="middle" x="244" y="-108" font-family="Helvetica,sans-Serif" font-size="10.00">ExceptionalData\fill_keys</text>
</a>
</g>
</g>
<!-- Node1&#45;&gt;Node2 -->
<g id="edge1" class="edge"><title>Node1&#45;&gt;Node2</title>
<path fill="none" stroke="midnightblue" d="M111.151,-77.0989C135.977,-83.6705 168.557,-92.2946 195.119,-99.3257"/>
<polygon fill="midnightblue" stroke="midnightblue" points="194.413,-102.759 204.976,-101.935 196.205,-95.9924 194.413,-102.759"/>
</g>
<!-- Node3 -->
<g id="node3" class="node"><title>Node3</title>
<g id="a_node3"><a xlink:href="class_exceptional_data.html#a9a98b7818c77576f030c3b17ab25abc8" target="_top" xlink:title="ExceptionalData\\filter\l_params">
<polygon fill="white" stroke="black" points="188.754,-51 188.754,-83 299.246,-83 299.246,-51 188.754,-51"/>
<text text-anchor="start" x="196.754" y="-69" font-family="Helvetica,sans-Serif" font-size="10.00">ExceptionalData\filter</text>
<text text-anchor="middle" x="244" y="-57" font-family="Helvetica,sans-Serif" font-size="10.00">_params</text>
</a>
</g>
</g>
<!-- Node1&#45;&gt;Node3 -->
<g id="edge2" class="edge"><title>Node1&#45;&gt;Node3</title>
<path fill="none" stroke="midnightblue" d="M144.11,-67C155.535,-67 167.303,-67 178.56,-67"/>
<polygon fill="midnightblue" stroke="midnightblue" points="178.729,-70.5001 188.729,-67 178.729,-63.5001 178.729,-70.5001"/>
</g>
<!-- Node4 -->
<g id="node4" class="node"><title>Node4</title>
<g id="a_node4"><a xlink:href="class_exceptional_environment.html#a55f16b25b818aca7f6fea2f321ddde9e" target="_top" xlink:title="ExceptionalEnvironment\l\\to_array">
<polygon fill="white" stroke="black" points="182.082,-0 182.082,-32 305.918,-32 305.918,-0 182.082,-0"/>
<text text-anchor="start" x="190.082" y="-18" font-family="Helvetica,sans-Serif" font-size="10.00">ExceptionalEnvironment</text>
<text text-anchor="middle" x="244" y="-6" font-family="Helvetica,sans-Serif" font-size="10.00">\to_array</text>
</a>
</g>
</g>
<!-- Node1&#45;&gt;Node4 -->
<g id="edge3" class="edge"><title>Node1&#45;&gt;Node4</title>
<path fill="none" stroke="midnightblue" d="M106.587,-56.924C127.43,-50.671 154.881,-42.4358 179.689,-34.9932"/>
<polygon fill="midnightblue" stroke="midnightblue" points="180.835,-38.3036 189.408,-32.0777 178.824,-31.5988 180.835,-38.3036"/>
</g>
</g>
</svg>
