<?xml version="1.0" encoding="UTF-8" standalone="no"?>
<!DOCTYPE svg PUBLIC "-//W3C//DTD SVG 1.1//EN"
 "http://www.w3.org/Graphics/SVG/1.1/DTD/svg11.dtd">
<!-- Generated by graphviz version 2.30.1 (20130221.2233)
 -->
<!-- Title: Net_DNS_Resolver\res_init Pages: 1 -->
<svg width="1578pt" height="349pt"
 viewBox="0.00 0.00 1578.00 349.00" xmlns="http://www.w3.org/2000/svg" xmlns:xlink="http://www.w3.org/1999/xlink">
<g id="graph0" class="graph" transform="scale(1 1) rotate(0) translate(4 345)">
<title>Net_DNS_Resolver\res_init</title>
<polygon fill="white" stroke="white" points="-4,5 -4,-345 1575,-345 1575,5 -4,5"/>
<!-- Node1 -->
<g id="node1" class="node"><title>Node1</title>
<polygon fill="#bfbfbf" stroke="black" points="-0.135254,-157 -0.135254,-177 138.135,-177 138.135,-157 -0.135254,-157"/>
<text text-anchor="middle" x="69" y="-163" font-family="Helvetica,sans-Serif" font-size="10.00">Net_DNS_Resolver\res_init</text>
</g>
<!-- Node2 -->
<g id="node2" class="node"><title>Node2</title>
<g id="a_node2"><a xlink:href="class_net___d_n_s___resolver.html#a4358663ec326e406c398f6cb09bd5544" target="_top" xlink:title="Initializes the Resolver Object. ">
<polygon fill="white" stroke="black" points="174.202,-151 174.202,-183 295.798,-183 295.798,-151 174.202,-151"/>
<text text-anchor="start" x="182.202" y="-169" font-family="Helvetica,sans-Serif" font-size="10.00">Net_DNS_Resolver\Net</text>
<text text-anchor="middle" x="235" y="-157" font-family="Helvetica,sans-Serif" font-size="10.00">_DNS_Resolver</text>
</a>
</g>
</g>
<!-- Node1&#45;&gt;Node2 -->
<g id="edge1" class="edge"><title>Node1&#45;&gt;Node2</title>
<path fill="none" stroke="midnightblue" d="M148.871,-167C157.328,-167 165.83,-167 174.016,-167"/>
<polygon fill="midnightblue" stroke="midnightblue" points="148.601,-163.5 138.601,-167 148.6,-170.5 148.601,-163.5"/>
</g>
<!-- Node3 -->
<g id="node3" class="node"><title>Node3</title>
<g id="a_node3"><a xlink:href="class_net___d_n_s___resolver.html#a3bf22a7a58480dd7a6fd0dd17807fc70" target="_top" xlink:title="Gets or sets the nameservers to be queried. ">
<polygon fill="white" stroke="black" points="332.084,-157 332.084,-177 495.916,-177 495.916,-157 332.084,-157"/>
<text text-anchor="middle" x="414" y="-163" font-family="Helvetica,sans-Serif" font-size="10.00">Net_DNS_Resolver\nameservers</text>
</a>
</g>
</g>
<!-- Node2&#45;&gt;Node3 -->
<g id="edge2" class="edge"><title>Node2&#45;&gt;Node3</title>
<path fill="none" stroke="midnightblue" d="M306.086,-167C314.53,-167 323.207,-167 331.793,-167"/>
<polygon fill="midnightblue" stroke="midnightblue" points="305.924,-163.5 295.924,-167 305.924,-170.5 305.924,-163.5"/>
</g>
<!-- Node4 -->
<g id="node4" class="node"><title>Node4</title>
<g id="a_node4"><a xlink:href="class_net___d_n_s___resolver.html#a9a745e4f5009dac279562318bb927370" target="_top" xlink:title="Performs an AXFR query (zone transfer) ">
<polygon fill="white" stroke="black" points="729.648,-225 729.648,-245 852.352,-245 852.352,-225 729.648,-225"/>
<text text-anchor="middle" x="791" y="-231" font-family="Helvetica,sans-Serif" font-size="10.00">Net_DNS_Resolver\axfr</text>
</a>
</g>
</g>
<!-- Node3&#45;&gt;Node4 -->
<g id="edge3" class="edge"><title>Node3&#45;&gt;Node4</title>
<path fill="none" stroke="midnightblue" d="M430.004,-184.715C450.39,-207.262 489.235,-245.074 532,-260 612.302,-288.027 714.658,-261.044 762.735,-245"/>
<polygon fill="midnightblue" stroke="midnightblue" points="432.593,-182.358 423.355,-177.169 427.341,-186.986 432.593,-182.358"/>
</g>
<!-- Node6 -->
<g id="node6" class="node"><title>Node6</title>
<g id="a_node6"><a xlink:href="class_net___d_n_s___resolver.html#a068e8e173ff40d4a3b74193792bed4e0" target="_top" xlink:title="Sends a packet via TCP to the list of name servers. ">
<polygon fill="white" stroke="black" points="544.648,-219 544.648,-251 667.352,-251 667.352,-219 544.648,-219"/>
<text text-anchor="start" x="552.648" y="-237" font-family="Helvetica,sans-Serif" font-size="10.00">Net_DNS_Resolver\axfr</text>
<text text-anchor="middle" x="606" y="-225" font-family="Helvetica,sans-Serif" font-size="10.00">_start</text>
</a>
</g>
</g>
<!-- Node3&#45;&gt;Node6 -->
<g id="edge5" class="edge"><title>Node3&#45;&gt;Node6</title>
<path fill="none" stroke="midnightblue" d="M452.58,-180.517C475.519,-188.761 505.447,-199.505 532,-209 540.994,-212.216 550.615,-215.648 559.822,-218.929"/>
<polygon fill="midnightblue" stroke="midnightblue" points="453.483,-177.122 442.888,-177.033 451.115,-183.71 453.483,-177.122"/>
</g>
<!-- Node7 -->
<g id="node7" class="node"><title>Node7</title>
<g id="a_node7"><a xlink:href="class_net___d_n_s___resolver.html#ae4def11574ad6e93176670c726541bed" target="_top" xlink:title="Reads and parses a resolver configuration file. ">
<polygon fill="white" stroke="black" points="542.976,-309 542.976,-341 669.024,-341 669.024,-309 542.976,-309"/>
<text text-anchor="start" x="550.976" y="-327" font-family="Helvetica,sans-Serif" font-size="10.00">Net_DNS_Resolver\read</text>
<text text-anchor="middle" x="606" y="-315" font-family="Helvetica,sans-Serif" font-size="10.00">_config</text>
</a>
</g>
</g>
<!-- Node3&#45;&gt;Node7 -->
<g id="edge7" class="edge"><title>Node3&#45;&gt;Node7</title>
<path fill="none" stroke="midnightblue" d="M427.958,-185.45C447.709,-212.428 487.75,-262.81 532,-294 540.103,-299.711 549.423,-304.662 558.633,-308.829"/>
<polygon fill="midnightblue" stroke="midnightblue" points="430.744,-183.33 422.061,-177.26 425.064,-187.421 430.744,-183.33"/>
</g>
<!-- Node8 -->
<g id="node8" class="node"><title>Node8</title>
<g id="a_node8"><a xlink:href="class_net___d_n_s___resolver.html#a2a3d25c5dd2b1810b60ad05b84787855" target="_top" xlink:title="Examines the environment for resolver config information. ">
<polygon fill="white" stroke="black" points="532.133,-0 532.133,-20 679.867,-20 679.867,-0 532.133,-0"/>
<text text-anchor="middle" x="606" y="-6" font-family="Helvetica,sans-Serif" font-size="10.00">Net_DNS_Resolver\read_env</text>
</a>
</g>
</g>
<!-- Node3&#45;&gt;Node8 -->
<g id="edge9" class="edge"><title>Node3&#45;&gt;Node8</title>
<path fill="none" stroke="midnightblue" d="M435.768,-150.46C453.156,-135.959 477.954,-113.701 496,-91 515.828,-66.0571 506.627,-48.2754 532,-29 536.797,-25.3559 542.227,-22.4079 547.908,-20.0235"/>
<polygon fill="midnightblue" stroke="midnightblue" points="433.401,-147.874 427.889,-156.923 437.84,-153.286 433.401,-147.874"/>
</g>
<!-- Node9 -->
<g id="node9" class="node"><title>Node9</title>
<g id="a_node9"><a xlink:href="class_net___d_n_s___resolver.html#a5ff32917a5f06e5eba819c0fb4e7196a" target="_top" xlink:title="Sends a packet via TCP to the list of name servers. ">
<polygon fill="white" stroke="black" points="532.69,-180 532.69,-200 679.31,-200 679.31,-180 532.69,-180"/>
<text text-anchor="middle" x="606" y="-186" font-family="Helvetica,sans-Serif" font-size="10.00">Net_DNS_Resolver\send_tcp</text>
</a>
</g>
</g>
<!-- Node3&#45;&gt;Node9 -->
<g id="edge11" class="edge"><title>Node3&#45;&gt;Node9</title>
<path fill="none" stroke="midnightblue" d="M506.109,-178.029C514.981,-179.103 523.898,-180.182 532.551,-181.23"/>
<polygon fill="midnightblue" stroke="midnightblue" points="506.476,-174.548 496.128,-176.821 505.635,-181.497 506.476,-174.548"/>
</g>
<!-- Node14 -->
<g id="node14" class="node"><title>Node14</title>
<g id="a_node14"><a xlink:href="class_net___d_n_s___resolver.html#a31d4b4651960d0fb08aa07990d21ce39" target="_top" xlink:title="Sends a packet via UDP to the list of name servers. ">
<polygon fill="white" stroke="black" points="542.141,-129 542.141,-161 669.859,-161 669.859,-129 542.141,-129"/>
<text text-anchor="start" x="550.141" y="-147" font-family="Helvetica,sans-Serif" font-size="10.00">Net_DNS_Resolver\send</text>
<text text-anchor="middle" x="606" y="-135" font-family="Helvetica,sans-Serif" font-size="10.00">_udp_no_sock_lib</text>
</a>
</g>
</g>
<!-- Node3&#45;&gt;Node14 -->
<g id="edge17" class="edge"><title>Node3&#45;&gt;Node14</title>
<path fill="none" stroke="midnightblue" d="M506.243,-156.435C518.327,-155.036 530.493,-153.627 541.955,-152.3"/>
<polygon fill="midnightblue" stroke="midnightblue" points="505.659,-152.979 496.128,-157.606 506.464,-159.933 505.659,-152.979"/>
</g>
<!-- Node16 -->
<g id="node16" class="node"><title>Node16</title>
<g id="a_node16"><a xlink:href="class_net___d_n_s___resolver.html#a6f7a0d5aaecc4824d9e59c9eb2597a62" target="_top" xlink:title="Sends a packet via UDP to the list of name servers. ">
<polygon fill="white" stroke="black" points="542.141,-78 542.141,-110 669.859,-110 669.859,-78 542.141,-78"/>
<text text-anchor="start" x="550.141" y="-96" font-family="Helvetica,sans-Serif" font-size="10.00">Net_DNS_Resolver\send</text>
<text text-anchor="middle" x="606" y="-84" font-family="Helvetica,sans-Serif" font-size="10.00">_udp_with_sock_lib</text>
</a>
</g>
</g>
<!-- Node3&#45;&gt;Node16 -->
<g id="edge20" class="edge"><title>Node3&#45;&gt;Node16</title>
<path fill="none" stroke="midnightblue" d="M448.014,-152.843C471.338,-142.992 503.409,-129.75 532,-119 540.025,-115.983 548.6,-112.912 556.949,-110.002"/>
<polygon fill="midnightblue" stroke="midnightblue" points="446.43,-149.713 438.59,-156.84 449.163,-156.158 446.43,-149.713"/>
</g>
<!-- Node17 -->
<g id="node17" class="node"><title>Node17</title>
<g id="a_node17"><a xlink:href="class_net___d_n_s___resolver.html#a848934658b6a75720a71e286500fcc40" target="_top" xlink:title="Builds a string containing the current state of the resolver. ">
<polygon fill="white" stroke="black" points="540.756,-39 540.756,-59 671.244,-59 671.244,-39 540.756,-39"/>
<text text-anchor="middle" x="606" y="-45" font-family="Helvetica,sans-Serif" font-size="10.00">Net_DNS_Resolver\string</text>
</a>
</g>
</g>
<!-- Node3&#45;&gt;Node17 -->
<g id="edge22" class="edge"><title>Node3&#45;&gt;Node17</title>
<path fill="none" stroke="midnightblue" d="M433.219,-149.825C460.352,-124.561 510.487,-79.1574 532,-68 538.859,-64.4427 546.434,-61.5159 554.03,-59.118"/>
<polygon fill="midnightblue" stroke="midnightblue" points="430.505,-147.572 425.594,-156.959 435.287,-152.683 430.505,-147.572"/>
</g>
<!-- Node5 -->
<g id="node5" class="node"><title>Node5</title>
<g id="a_node5"><a xlink:href="class_net___d_n_s___resolver.html#a73f7861954f4990bc8d18d6a82f7334d" target="_top" xlink:title="Performs an AXFR query (zone transfer) (OLD BUGGY STYLE) ">
<polygon fill="white" stroke="black" points="902.195,-225 902.195,-245 1043.81,-245 1043.81,-225 902.195,-225"/>
<text text-anchor="middle" x="973" y="-231" font-family="Helvetica,sans-Serif" font-size="10.00">Net_DNS_Resolver\axfr_old</text>
</a>
</g>
</g>
<!-- Node4&#45;&gt;Node5 -->
<g id="edge4" class="edge"><title>Node4&#45;&gt;Node5</title>
<path fill="none" stroke="midnightblue" d="M862.684,-235C875.637,-235 889.151,-235 902.081,-235"/>
<polygon fill="midnightblue" stroke="midnightblue" points="862.438,-231.5 852.438,-235 862.438,-238.5 862.438,-231.5"/>
</g>
<!-- Node6&#45;&gt;Node4 -->
<g id="edge6" class="edge"><title>Node6&#45;&gt;Node4</title>
<path fill="none" stroke="midnightblue" d="M677.911,-235C694.994,-235 713.086,-235 729.635,-235"/>
<polygon fill="midnightblue" stroke="midnightblue" points="677.428,-231.5 667.428,-235 677.428,-238.5 677.428,-231.5"/>
</g>
<!-- Node7&#45;&gt;Node1 -->
<g id="edge8" class="edge"><title>Node7&#45;&gt;Node1</title>
<path fill="none" stroke="midnightblue" d="M540.903,-306.07C426.626,-272.321 191.475,-202.875 103.873,-177.003"/>
<polygon fill="midnightblue" stroke="midnightblue" points="539.998,-309.453 550.58,-308.928 541.981,-302.739 539.998,-309.453"/>
</g>
<!-- Node8&#45;&gt;Node1 -->
<g id="edge10" class="edge"><title>Node8&#45;&gt;Node1</title>
<path fill="none" stroke="midnightblue" d="M555.366,-22.6643C547.535,-24.7356 539.538,-26.8939 532,-29 369.747,-74.3321 177.081,-133.675 102.092,-156.984"/>
<polygon fill="midnightblue" stroke="midnightblue" points="556.365,-26.0208 565.15,-20.0976 554.589,-19.2499 556.365,-26.0208"/>
</g>
<!-- Node10 -->
<g id="node10" class="node"><title>Node10</title>
<g id="a_node10"><a xlink:href="class_net___d_n_s___resolver.html#aaabc96cbbb5bce627d31583d0e6af3d5" target="_top" xlink:title="Sends a packet to a nameserver. ">
<polygon fill="white" stroke="black" points="909.141,-156 909.141,-176 1036.86,-176 1036.86,-156 909.141,-156"/>
<text text-anchor="middle" x="973" y="-162" font-family="Helvetica,sans-Serif" font-size="10.00">Net_DNS_Resolver\send</text>
</a>
</g>
</g>
<!-- Node9&#45;&gt;Node10 -->
<g id="edge12" class="edge"><title>Node9&#45;&gt;Node10</title>
<path fill="none" stroke="midnightblue" d="M689.588,-184.57C756.144,-180.193 848.326,-174.132 909.023,-170.141"/>
<polygon fill="midnightblue" stroke="midnightblue" points="689.297,-181.081 679.549,-185.23 689.757,-188.066 689.297,-181.081"/>
</g>
<!-- Node9&#45;&gt;Node4 -->
<g id="edge16" class="edge"><title>Node9&#45;&gt;Node4</title>
<path fill="none" stroke="midnightblue" d="M657.934,-202.525C686.686,-209.595 722.137,-218.312 749.068,-224.935"/>
<polygon fill="midnightblue" stroke="midnightblue" points="658.615,-199.088 648.069,-200.099 656.944,-205.886 658.615,-199.088"/>
</g>
<!-- Node11 -->
<g id="node11" class="node"><title>Node11</title>
<g id="a_node11"><a xlink:href="class_net___d_n_s___resolver.html#ab00f28a838dbaebffe986b2fb81b4e8f" target="_top" xlink:title="Queries nameservers for an answer. ">
<polygon fill="white" stroke="black" points="1080.31,-156 1080.31,-176 1229.69,-176 1229.69,-156 1080.31,-156"/>
<text text-anchor="middle" x="1155" y="-162" font-family="Helvetica,sans-Serif" font-size="10.00">Net_DNS_Resolver\rawQuery</text>
</a>
</g>
</g>
<!-- Node10&#45;&gt;Node11 -->
<g id="edge13" class="edge"><title>Node10&#45;&gt;Node11</title>
<path fill="none" stroke="midnightblue" d="M1047.27,-166C1058.15,-166 1069.38,-166 1080.28,-166"/>
<polygon fill="midnightblue" stroke="midnightblue" points="1046.96,-162.5 1036.96,-166 1046.96,-169.5 1046.96,-162.5"/>
</g>
<!-- Node12 -->
<g id="node12" class="node"><title>Node12</title>
<g id="a_node12"><a xlink:href="class_net___d_n_s___resolver.html#a433200f56099815168ddd63a715e8ac5" target="_top" xlink:title="Queries nameservers for an answer. ">
<polygon fill="white" stroke="black" points="1266.48,-156 1266.48,-176 1397.52,-176 1397.52,-156 1266.48,-156"/>
<text text-anchor="middle" x="1332" y="-162" font-family="Helvetica,sans-Serif" font-size="10.00">Net_DNS_Resolver\query</text>
</a>
</g>
</g>
<!-- Node11&#45;&gt;Node12 -->
<g id="edge14" class="edge"><title>Node11&#45;&gt;Node12</title>
<path fill="none" stroke="midnightblue" d="M1239.73,-166C1248.65,-166 1257.61,-166 1266.26,-166"/>
<polygon fill="midnightblue" stroke="midnightblue" points="1239.71,-162.5 1229.71,-166 1239.71,-169.5 1239.71,-162.5"/>
</g>
<!-- Node13 -->
<g id="node13" class="node"><title>Node13</title>
<g id="a_node13"><a xlink:href="class_net___d_n_s___resolver.html#a13ee3a449b00b1a0e2f36bb1404e4291" target="_top" xlink:title="Searches nameservers for an answer. ">
<polygon fill="white" stroke="black" points="1433.98,-156 1433.98,-176 1570.02,-176 1570.02,-156 1433.98,-156"/>
<text text-anchor="middle" x="1502" y="-162" font-family="Helvetica,sans-Serif" font-size="10.00">Net_DNS_Resolver\search</text>
</a>
</g>
</g>
<!-- Node12&#45;&gt;Node13 -->
<g id="edge15" class="edge"><title>Node12&#45;&gt;Node13</title>
<path fill="none" stroke="midnightblue" d="M1408.23,-166C1416.72,-166 1425.34,-166 1433.72,-166"/>
<polygon fill="midnightblue" stroke="midnightblue" points="1407.95,-162.5 1397.95,-166 1407.95,-169.5 1407.95,-162.5"/>
</g>
<!-- Node15 -->
<g id="node15" class="node"><title>Node15</title>
<g id="a_node15"><a xlink:href="class_net___d_n_s___resolver.html#a77e292f0bf9e3cadf36d26b76b02a733" target="_top" xlink:title="Sends a packet via UDP to the list of name servers. ">
<polygon fill="white" stroke="black" points="716.018,-135 716.018,-155 865.982,-155 865.982,-135 716.018,-135"/>
<text text-anchor="middle" x="791" y="-141" font-family="Helvetica,sans-Serif" font-size="10.00">Net_DNS_Resolver\send_udp</text>
</a>
</g>
</g>
<!-- Node14&#45;&gt;Node15 -->
<g id="edge18" class="edge"><title>Node14&#45;&gt;Node15</title>
<path fill="none" stroke="midnightblue" d="M680.177,-145C691.928,-145 704.1,-145 715.874,-145"/>
<polygon fill="midnightblue" stroke="midnightblue" points="679.978,-141.5 669.978,-145 679.978,-148.5 679.978,-141.5"/>
</g>
<!-- Node15&#45;&gt;Node10 -->
<g id="edge19" class="edge"><title>Node15&#45;&gt;Node10</title>
<path fill="none" stroke="midnightblue" d="M876.086,-154.81C887.136,-156.099 898.304,-157.402 908.922,-158.641"/>
<polygon fill="midnightblue" stroke="midnightblue" points="876.33,-151.315 865.992,-153.632 875.519,-158.268 876.33,-151.315"/>
</g>
<!-- Node16&#45;&gt;Node15 -->
<g id="edge21" class="edge"><title>Node16&#45;&gt;Node15</title>
<path fill="none" stroke="midnightblue" d="M674.416,-112.788C701.339,-120.291 731.258,-128.629 753.91,-134.942"/>
<polygon fill="midnightblue" stroke="midnightblue" points="675.224,-109.38 664.651,-110.067 673.344,-116.123 675.224,-109.38"/>
</g>
</g>
</svg>
