<?xml version="1.0" encoding="UTF-8" standalone="no"?>
<!DOCTYPE svg PUBLIC "-//W3C//DTD SVG 1.1//EN"
 "http://www.w3.org/Graphics/SVG/1.1/DTD/svg11.dtd">
<!-- Generated by graphviz version 2.30.1 (20130221.2233)
 -->
<!-- Title: Net_DNS_Resolver\axfr_start Pages: 1 -->
<svg width="888pt" height="136pt"
 viewBox="0.00 0.00 888.00 135.87" xmlns="http://www.w3.org/2000/svg" xmlns:xlink="http://www.w3.org/1999/xlink">
<g id="graph0" class="graph" transform="scale(1 1) rotate(0) translate(4 131.873)">
<title>Net_DNS_Resolver\axfr_start</title>
<polygon fill="white" stroke="white" points="-4,5 -4,-131.873 885,-131.873 885,5 -4,5"/>
<!-- Node1 -->
<g id="node1" class="node"><title>Node1</title>
<polygon fill="#bfbfbf" stroke="black" points="0.647949,-70.4397 0.647949,-102.44 123.352,-102.44 123.352,-70.4397 0.647949,-70.4397"/>
<text text-anchor="start" x="8.64795" y="-88.4397" font-family="Helvetica,sans-Serif" font-size="10.00">Net_DNS_Resolver\axfr</text>
<text text-anchor="middle" x="62" y="-76.4397" font-family="Helvetica,sans-Serif" font-size="10.00">_start</text>
</g>
<!-- Node2 -->
<g id="node2" class="node"><title>Node2</title>
<g id="a_node2"><a xlink:href="class_net___d_n_s___resolver.html#a6162ddba85ce36cdf7d8df7ff32161e0" target="_top" xlink:title="Unknown. ">
<polygon fill="white" stroke="black" points="176.756,-93.4397 176.756,-125.44 307.244,-125.44 307.244,-93.4397 176.756,-93.4397"/>
<text text-anchor="start" x="184.756" y="-111.44" font-family="Helvetica,sans-Serif" font-size="10.00">Net_DNS_Resolver\make</text>
<text text-anchor="middle" x="242" y="-99.4397" font-family="Helvetica,sans-Serif" font-size="10.00">_query_packet</text>
</a>
</g>
</g>
<!-- Node1&#45;&gt;Node2 -->
<g id="edge1" class="edge"><title>Node1&#45;&gt;Node2</title>
<path fill="none" stroke="midnightblue" d="M123.76,-94.2907C137.456,-96.0604 152.148,-97.9587 166.34,-99.7926"/>
<polygon fill="midnightblue" stroke="midnightblue" points="166.198,-103.303 176.564,-101.114 167.095,-96.361 166.198,-103.303"/>
</g>
<!-- Node3 -->
<g id="node3" class="node"><title>Node3</title>
<g id="a_node3"><a xlink:href="class_net___d_n_s___resolver.html#a3bf22a7a58480dd7a6fd0dd17807fc70" target="_top" xlink:title="Gets or sets the nameservers to be queried. ">
<polygon fill="white" stroke="black" points="160.084,-54.4397 160.084,-74.4397 323.916,-74.4397 323.916,-54.4397 160.084,-54.4397"/>
<text text-anchor="middle" x="242" y="-60.4397" font-family="Helvetica,sans-Serif" font-size="10.00">Net_DNS_Resolver\nameservers</text>
</a>
</g>
</g>
<!-- Node1&#45;&gt;Node3 -->
<g id="edge2" class="edge"><title>Node1&#45;&gt;Node3</title>
<path fill="none" stroke="midnightblue" d="M123.76,-78.9301C132.248,-77.881 141.118,-76.7846 150.016,-75.685"/>
<polygon fill="midnightblue" stroke="midnightblue" points="150.558,-79.1447 160.053,-74.4444 149.699,-72.1975 150.558,-79.1447"/>
</g>
<!-- Node4 -->
<g id="node4" class="node"><title>Node4</title>
<g id="a_node4"><a xlink:href="class_net___d_n_s___resolver.html#a4358663ec326e406c398f6cb09bd5544" target="_top" xlink:title="Initializes the Resolver Object. ">
<polygon fill="white" stroke="black" points="380.202,-26.4397 380.202,-58.4397 501.798,-58.4397 501.798,-26.4397 380.202,-26.4397"/>
<text text-anchor="start" x="388.202" y="-44.4397" font-family="Helvetica,sans-Serif" font-size="10.00">Net_DNS_Resolver\Net</text>
<text text-anchor="middle" x="441" y="-32.4397" font-family="Helvetica,sans-Serif" font-size="10.00">_DNS_Resolver</text>
</a>
</g>
</g>
<!-- Node3&#45;&gt;Node4 -->
<g id="edge3" class="edge"><title>Node3&#45;&gt;Node4</title>
<path fill="none" stroke="midnightblue" d="M323.98,-55.3962C339.242,-53.6918 355.084,-51.9227 369.976,-50.2597"/>
<polygon fill="midnightblue" stroke="midnightblue" points="370.565,-53.7157 380.115,-49.1274 369.788,-46.7589 370.565,-53.7157"/>
</g>
<!-- Node8 -->
<g id="node8" class="node"><title>Node8</title>
<g id="a_node8"><a xlink:href="class_net___d_n_s___resolver.html#ae1bb14089519fe774d025156114aae4f" target="_top" xlink:title="Net_DNS_Resolver\\cname_addr">
<polygon fill="white" stroke="black" points="360.188,-77.4397 360.188,-97.4397 521.812,-97.4397 521.812,-77.4397 360.188,-77.4397"/>
<text text-anchor="middle" x="441" y="-83.4397" font-family="Helvetica,sans-Serif" font-size="10.00">Net_DNS_Resolver\cname_addr</text>
</a>
</g>
</g>
<!-- Node3&#45;&gt;Node8 -->
<g id="edge9" class="edge"><title>Node3&#45;&gt;Node8</title>
<path fill="none" stroke="midnightblue" d="M323.98,-73.8942C332.523,-74.8916 341.248,-75.9102 349.886,-76.9187"/>
<polygon fill="midnightblue" stroke="midnightblue" points="349.632,-80.4128 359.97,-78.0961 350.444,-73.46 349.632,-80.4128"/>
</g>
<!-- Node5 -->
<g id="node5" class="node"><title>Node5</title>
<g id="a_node5"><a xlink:href="class_net___d_n_s___resolver.html#aa2e8d58074354b1f9292500119470431" target="_top" xlink:title="Initalizes the resolver library. ">
<polygon fill="white" stroke="black" points="557.865,-32.4397 557.865,-52.4397 696.135,-52.4397 696.135,-32.4397 557.865,-32.4397"/>
<text text-anchor="middle" x="627" y="-38.4397" font-family="Helvetica,sans-Serif" font-size="10.00">Net_DNS_Resolver\res_init</text>
</a>
</g>
</g>
<!-- Node4&#45;&gt;Node5 -->
<g id="edge4" class="edge"><title>Node4&#45;&gt;Node5</title>
<path fill="none" stroke="midnightblue" d="M501.994,-42.4397C516.479,-42.4397 532.174,-42.4397 547.372,-42.4397"/>
<polygon fill="midnightblue" stroke="midnightblue" points="547.793,-45.9398 557.793,-42.4397 547.793,-38.9398 547.793,-45.9398"/>
</g>
<!-- Node6 -->
<g id="node6" class="node"><title>Node6</title>
<g id="a_node6"><a xlink:href="class_net___d_n_s___resolver.html#ae4def11574ad6e93176670c726541bed" target="_top" xlink:title="Reads and parses a resolver configuration file. ">
<polygon fill="white" stroke="black" points="742.976,-79.4397 742.976,-111.44 869.024,-111.44 869.024,-79.4397 742.976,-79.4397"/>
<text text-anchor="start" x="750.976" y="-97.4397" font-family="Helvetica,sans-Serif" font-size="10.00">Net_DNS_Resolver\read</text>
<text text-anchor="middle" x="806" y="-85.4397" font-family="Helvetica,sans-Serif" font-size="10.00">_config</text>
</a>
</g>
</g>
<!-- Node5&#45;&gt;Node6 -->
<g id="edge5" class="edge"><title>Node5&#45;&gt;Node6</title>
<path fill="none" stroke="midnightblue" d="M661.709,-52.5333C684.221,-59.2741 714.53,-68.3498 741.475,-76.4182"/>
<polygon fill="midnightblue" stroke="midnightblue" points="740.646,-79.8233 751.23,-79.339 742.654,-73.1175 740.646,-79.8233"/>
</g>
<!-- Node7 -->
<g id="node7" class="node"><title>Node7</title>
<g id="a_node7"><a xlink:href="class_net___d_n_s___resolver.html#a2a3d25c5dd2b1810b60ad05b84787855" target="_top" xlink:title="Examines the environment for resolver config information. ">
<polygon fill="white" stroke="black" points="732.133,-9.43968 732.133,-29.4397 879.867,-29.4397 879.867,-9.43968 732.133,-9.43968"/>
<text text-anchor="middle" x="806" y="-15.4397" font-family="Helvetica,sans-Serif" font-size="10.00">Net_DNS_Resolver\read_env</text>
</a>
</g>
</g>
<!-- Node5&#45;&gt;Node7 -->
<g id="edge7" class="edge"><title>Node5&#45;&gt;Node7</title>
<path fill="none" stroke="midnightblue" d="M696.18,-33.5802C704.579,-32.4887 713.237,-31.3637 721.827,-30.2474"/>
<polygon fill="midnightblue" stroke="midnightblue" points="722.396,-33.7031 731.862,-28.9436 721.494,-26.7614 722.396,-33.7031"/>
</g>
<!-- Node6&#45;&gt;Node3 -->
<g id="edge6" class="edge"><title>Node6&#45;&gt;Node3</title>
<path fill="none" stroke="midnightblue" d="M742.751,-108.323C655.373,-123.881 492.232,-143.645 360,-106.44 341.95,-101.361 341.305,-91.6606 324,-84.4397 317.623,-81.7788 310.81,-79.4151 303.945,-77.3303"/>
<polygon fill="midnightblue" stroke="midnightblue" points="304.471,-73.841 293.895,-74.4731 302.557,-80.5742 304.471,-73.841"/>
</g>
<!-- Node7&#45;&gt;Node3 -->
<g id="edge8" class="edge"><title>Node7&#45;&gt;Node3</title>
<path fill="none" stroke="midnightblue" d="M732.1,-10.0915C643.266,-0.721964 489.049,9.00291 360,-16.4397 327.958,-22.7569 293.65,-37.9388 270.528,-49.5508"/>
<polygon fill="midnightblue" stroke="midnightblue" points="268.636,-46.5879 261.342,-54.2726 271.836,-52.8136 268.636,-46.5879"/>
</g>
</g>
</svg>
