<?xml version="1.0" encoding="UTF-8" standalone="no"?>
<!DOCTYPE svg PUBLIC "-//W3C//DTD SVG 1.1//EN"
 "http://www.w3.org/Graphics/SVG/1.1/DTD/svg11.dtd">
<!-- Generated by graphviz version 2.30.1 (20130221.2233)
 -->
<!-- Title: Campaign\createStruct Pages: 1 -->
<svg width="272pt" height="91pt"
 viewBox="0.00 0.00 272.00 91.00" xmlns="http://www.w3.org/2000/svg" xmlns:xlink="http://www.w3.org/1999/xlink">
<g id="graph0" class="graph" transform="scale(1 1) rotate(0) translate(4 87)">
<title>Campaign\createStruct</title>
<polygon fill="white" stroke="white" points="-4,5 -4,-87 269,-87 269,5 -4,5"/>
<!-- Node1 -->
<g id="node1" class="node"><title>Node1</title>
<polygon fill="#bfbfbf" stroke="black" points="-0.135254,-31 -0.135254,-51 118.135,-51 118.135,-31 -0.135254,-31"/>
<text text-anchor="middle" x="59" y="-37" font-family="Helvetica,sans-Serif" font-size="10.00">Campaign\createStruct</text>
</g>
<!-- Node2 -->
<g id="node2" class="node"><title>Node2</title>
<g id="a_node2"><a xlink:href="class_campaigns_collection.html#a4bbf8266fa150e04a4bff5a8052967a6" target="_top" xlink:title="Add a new Campaign. ">
<polygon fill="white" stroke="black" points="153.754,-51 153.754,-83 264.246,-83 264.246,-51 153.754,-51"/>
<text text-anchor="start" x="161.754" y="-69" font-family="Helvetica,sans-Serif" font-size="10.00">CampaignsCollection</text>
<text text-anchor="middle" x="209" y="-57" font-family="Helvetica,sans-Serif" font-size="10.00">\addCampaign</text>
</a>
</g>
</g>
<!-- Node1&#45;&gt;Node2 -->
<g id="edge1" class="edge"><title>Node1&#45;&gt;Node2</title>
<path fill="none" stroke="midnightblue" d="M127.072,-52.783C135.871,-54.3288 144.802,-55.8977 153.362,-57.4014"/>
<polygon fill="midnightblue" stroke="midnightblue" points="127.675,-49.3354 117.221,-51.0523 126.464,-56.2298 127.675,-49.3354"/>
</g>
<!-- Node3 -->
<g id="node3" class="node"><title>Node3</title>
<g id="a_node3"><a xlink:href="class_campaigns_collection.html#ac411f9b4976e489a0433606367a6d329" target="_top" xlink:title="Get detailed Campaign object. ">
<polygon fill="white" stroke="black" points="153.754,-0 153.754,-32 264.246,-32 264.246,-0 153.754,-0"/>
<text text-anchor="start" x="161.754" y="-18" font-family="Helvetica,sans-Serif" font-size="10.00">CampaignsCollection</text>
<text text-anchor="middle" x="209" y="-6" font-family="Helvetica,sans-Serif" font-size="10.00">\getCampaignDetails</text>
</a>
</g>
</g>
<!-- Node1&#45;&gt;Node3 -->
<g id="edge2" class="edge"><title>Node1&#45;&gt;Node3</title>
<path fill="none" stroke="midnightblue" d="M128.545,-29.4214C136.846,-28.0192 145.24,-26.6014 153.304,-25.2392"/>
<polygon fill="midnightblue" stroke="midnightblue" points="127.771,-26.0026 118.494,-31.1193 128.937,-32.9048 127.771,-26.0026"/>
</g>
</g>
</svg>
