<?xml version="1.0" encoding="UTF-8" standalone="no"?>
<!DOCTYPE svg PUBLIC "-//W3C//DTD SVG 1.1//EN"
 "http://www.w3.org/Graphics/SVG/1.1/DTD/svg11.dtd">
<!-- Generated by graphviz version 2.30.1 (20130221.2233)
 -->
<!-- Title: CTCT_Admin_Contacts\getTitle Pages: 1 -->
<svg width="310pt" height="106pt"
 viewBox="0.00 0.00 310.00 106.00" xmlns="http://www.w3.org/2000/svg" xmlns:xlink="http://www.w3.org/1999/xlink">
<g id="graph0" class="graph" transform="scale(1 1) rotate(0) translate(4 102)">
<title>CTCT_Admin_Contacts\getTitle</title>
<polygon fill="white" stroke="white" points="-4,5 -4,-102 307,-102 307,5 -4,5"/>
<!-- Node1 -->
<g id="node1" class="node"><title>Node1</title>
<polygon fill="#bfbfbf" stroke="black" points="0.20459,-33 0.20459,-65 121.795,-65 121.795,-33 0.20459,-33"/>
<text text-anchor="start" x="8.20459" y="-51" font-family="Helvetica,sans-Serif" font-size="10.00">CTCT_Admin_Contacts</text>
<text text-anchor="middle" x="61" y="-39" font-family="Helvetica,sans-Serif" font-size="10.00">\getTitle</text>
</g>
<!-- Node2 -->
<g id="node2" class="node"><title>Node2</title>
<g id="a_node2"><a xlink:href="class_c_t_c_t___admin___page.html#aa09ddad8c19f7b5e766616954288f30c" target="_top" xlink:title="CTCT_Admin_Page\\isAdd">
<polygon fill="white" stroke="black" points="163.362,-78 163.362,-98 296.638,-98 296.638,-78 163.362,-78"/>
<text text-anchor="middle" x="230" y="-84" font-family="Helvetica,sans-Serif" font-size="10.00">CTCT_Admin_Page\isAdd</text>
</a>
</g>
</g>
<!-- Node1&#45;&gt;Node2 -->
<g id="edge1" class="edge"><title>Node1&#45;&gt;Node2</title>
<path fill="none" stroke="midnightblue" d="M121.819,-62.9697C139.579,-67.1172 158.897,-71.6286 176.178,-75.6644"/>
<polygon fill="midnightblue" stroke="midnightblue" points="175.557,-79.1134 186.091,-77.9793 177.149,-72.2968 175.557,-79.1134"/>
</g>
<!-- Node3 -->
<g id="node3" class="node"><title>Node3</title>
<g id="a_node3"><a xlink:href="class_c_t_c_t___admin___page.html#a3022d3649afef42fe8a14b1f34f50a11" target="_top" xlink:title="CTCT_Admin_Page\\isEdit">
<polygon fill="white" stroke="black" points="163.643,-39 163.643,-59 296.357,-59 296.357,-39 163.643,-39"/>
<text text-anchor="middle" x="230" y="-45" font-family="Helvetica,sans-Serif" font-size="10.00">CTCT_Admin_Page\isEdit</text>
</a>
</g>
</g>
<!-- Node1&#45;&gt;Node3 -->
<g id="edge2" class="edge"><title>Node1&#45;&gt;Node3</title>
<path fill="none" stroke="midnightblue" d="M121.819,-49C132.032,-49 142.761,-49 153.321,-49"/>
<polygon fill="midnightblue" stroke="midnightblue" points="153.372,-52.5001 163.372,-49 153.372,-45.5001 153.372,-52.5001"/>
</g>
<!-- Node4 -->
<g id="node4" class="node"><title>Node4</title>
<g id="a_node4"><a xlink:href="class_c_t_c_t___admin___page.html#a79cac52351cd72e5cb0269ad98ac9a82" target="_top" xlink:title="CTCT_Admin_Page\\isSingle">
<polygon fill="white" stroke="black" points="158.36,-0 158.36,-20 301.64,-20 301.64,-0 158.36,-0"/>
<text text-anchor="middle" x="230" y="-6" font-family="Helvetica,sans-Serif" font-size="10.00">CTCT_Admin_Page\isSingle</text>
</a>
</g>
</g>
<!-- Node1&#45;&gt;Node4 -->
<g id="edge3" class="edge"><title>Node1&#45;&gt;Node4</title>
<path fill="none" stroke="midnightblue" d="M121.819,-35.0303C139.579,-30.8828 158.897,-26.3714 176.178,-22.3356"/>
<polygon fill="midnightblue" stroke="midnightblue" points="177.149,-25.7032 186.091,-20.0207 175.557,-18.8866 177.149,-25.7032"/>
</g>
</g>
</svg>
