<?xml version="1.0" encoding="UTF-8" standalone="no"?>
<!DOCTYPE svg PUBLIC "-//W3C//DTD SVG 1.1//EN"
 "http://www.w3.org/Graphics/SVG/1.1/DTD/svg11.dtd">
<!-- Generated by graphviz version 2.30.1 (20130221.2233)
 -->
<!-- Title: Cache_WP_HTTP\pre_http_request Pages: 1 -->
<svg width="488pt" height="126pt"
 viewBox="0.00 0.00 488.00 125.62" xmlns="http://www.w3.org/2000/svg" xmlns:xlink="http://www.w3.org/1999/xlink">
<g id="graph0" class="graph" transform="scale(1 1) rotate(0) translate(4 121.617)">
<title>Cache_WP_HTTP\pre_http_request</title>
<polygon fill="white" stroke="white" points="-4,5 -4,-121.617 485,-121.617 485,5 -4,5"/>
<!-- Node1 -->
<g id="node1" class="node"><title>Node1</title>
<polygon fill="#bfbfbf" stroke="black" points="0.140625,-32.617 0.140625,-64.617 137.859,-64.617 137.859,-32.617 0.140625,-32.617"/>
<text text-anchor="start" x="8.14062" y="-50.617" font-family="Helvetica,sans-Serif" font-size="10.00">Cache_WP_HTTP\pre_http</text>
<text text-anchor="middle" x="69" y="-38.617" font-family="Helvetica,sans-Serif" font-size="10.00">_request</text>
</g>
<!-- Node2 -->
<g id="node2" class="node"><title>Node2</title>
<g id="a_node2"><a xlink:href="class_cache___w_p___h_t_t_p.html#a46a738be1b6d3b3d2c4a7ebbdd4ff6e5" target="_top" xlink:title="Cache_WP_HTTP\\flushCache">
<polygon fill="white" stroke="black" points="181.473,-97.617 181.473,-117.617 332.527,-117.617 332.527,-97.617 181.473,-97.617"/>
<text text-anchor="middle" x="257" y="-103.617" font-family="Helvetica,sans-Serif" font-size="10.00">Cache_WP_HTTP\flushCache</text>
</a>
</g>
</g>
<!-- Node1&#45;&gt;Node2 -->
<g id="edge1" class="edge"><title>Node1&#45;&gt;Node2</title>
<path fill="none" stroke="midnightblue" d="M109.618,-64.7466C128.863,-72.2538 152.44,-80.9711 174,-87.617 182.638,-90.2797 191.875,-92.8204 200.92,-95.1434"/>
<polygon fill="midnightblue" stroke="midnightblue" points="200.071,-98.5388 210.622,-97.574 201.772,-91.7487 200.071,-98.5388"/>
</g>
<!-- Node4 -->
<g id="node4" class="node"><title>Node4</title>
<g id="a_node4"><a xlink:href="class_cache___w_p___h_t_t_p.html#a90ae2e338d476c82174316d493ac220c" target="_top" xlink:title="Check the parameters to find if the cache duration has been set. ">
<polygon fill="white" stroke="black" points="174.156,-58.617 174.156,-78.617 339.844,-78.617 339.844,-58.617 174.156,-58.617"/>
<text text-anchor="middle" x="257" y="-64.617" font-family="Helvetica,sans-Serif" font-size="10.00">Cache_WP_HTTP\getCacheTime</text>
</a>
</g>
</g>
<!-- Node1&#45;&gt;Node4 -->
<g id="edge3" class="edge"><title>Node1&#45;&gt;Node4</title>
<path fill="none" stroke="midnightblue" d="M137.94,-55.9223C146.368,-56.8286 155.094,-57.7668 163.81,-58.704"/>
<polygon fill="midnightblue" stroke="midnightblue" points="163.702,-62.2125 174.019,-59.8018 164.45,-55.2526 163.702,-62.2125"/>
</g>
<!-- Node5 -->
<g id="node5" class="node"><title>Node5</title>
<g id="a_node5"><a xlink:href="class_cache___w_p___h_t_t_p.html#ab19810eea1f27ad002f256a313cec1dc" target="_top" xlink:title="Generate a unique key for the cache. ">
<polygon fill="white" stroke="black" points="190.921,-19.617 190.921,-39.617 323.079,-39.617 323.079,-19.617 190.921,-19.617"/>
<text text-anchor="middle" x="257" y="-25.617" font-family="Helvetica,sans-Serif" font-size="10.00">Cache_WP_HTTP\getKey</text>
</a>
</g>
</g>
<!-- Node1&#45;&gt;Node5 -->
<g id="edge4" class="edge"><title>Node1&#45;&gt;Node5</title>
<path fill="none" stroke="midnightblue" d="M137.94,-41.6769C151.802,-40.2609 166.467,-38.7628 180.572,-37.322"/>
<polygon fill="midnightblue" stroke="midnightblue" points="181.132,-40.7831 190.725,-36.2849 180.421,-33.8193 181.132,-40.7831"/>
</g>
<!-- Node3 -->
<g id="node3" class="node"><title>Node3</title>
<g id="a_node3"><a xlink:href="class_cache___w_p___h_t_t_p.html#a6a0da5658c24517aa2b4884044c9b2b5" target="_top" xlink:title="Cache_WP_HTTP\\r">
<polygon fill="white" stroke="black" points="375.823,-38.617 375.823,-58.617 480.177,-58.617 480.177,-38.617 375.823,-38.617"/>
<text text-anchor="middle" x="428" y="-44.617" font-family="Helvetica,sans-Serif" font-size="10.00">Cache_WP_HTTP\r</text>
</a>
</g>
</g>
<!-- Node1&#45;&gt;Node3 -->
<g id="edge5" class="edge"><title>Node1&#45;&gt;Node3</title>
<path fill="none" stroke="midnightblue" d="M104.767,-32.437C124.583,-24.1092 150.15,-14.8378 174,-10.617 246.649,2.23975 267.781,4.46702 340,-10.617 361.309,-15.0677 383.788,-25.0409 400.558,-33.6534"/>
<polygon fill="midnightblue" stroke="midnightblue" points="399.246,-36.9194 409.72,-38.5151 402.527,-30.736 399.246,-36.9194"/>
</g>
<!-- Node2&#45;&gt;Node3 -->
<g id="edge2" class="edge"><title>Node2&#45;&gt;Node3</title>
<path fill="none" stroke="midnightblue" d="M305.689,-97.5401C317.049,-94.7137 329.05,-91.3717 340,-87.617 359.895,-80.7953 381.473,-71.1376 398.163,-63.1397"/>
<polygon fill="midnightblue" stroke="midnightblue" points="399.914,-66.1797 407.374,-58.6565 396.851,-59.8855 399.914,-66.1797"/>
</g>
</g>
</svg>
