<?xml version="1.0" encoding="UTF-8" standalone="no"?>
<!DOCTYPE svg PUBLIC "-//W3C//DTD SVG 1.1//EN"
 "http://www.w3.org/Graphics/SVG/1.1/DTD/svg11.dtd">
<!-- Generated by graphviz version 2.30.1 (20130221.2233)
 -->
<!-- Title: CTCT_Admin_Page\isEdit Pages: 1 -->
<svg width="658pt" height="233pt"
 viewBox="0.00 0.00 658.00 233.20" xmlns="http://www.w3.org/2000/svg" xmlns:xlink="http://www.w3.org/1999/xlink">
<g id="graph0" class="graph" transform="scale(1 1) rotate(0) translate(4 229.195)">
<title>CTCT_Admin_Page\isEdit</title>
<polygon fill="white" stroke="white" points="-4,5 -4,-229.195 655,-229.195 655,5 -4,5"/>
<!-- Node1 -->
<g id="node1" class="node"><title>Node1</title>
<polygon fill="#bfbfbf" stroke="black" points="0.643066,-86.1951 0.643066,-106.195 133.357,-106.195 133.357,-86.1951 0.643066,-86.1951"/>
<text text-anchor="middle" x="67" y="-92.1951" font-family="Helvetica,sans-Serif" font-size="10.00">CTCT_Admin_Page\isEdit</text>
</g>
<!-- Node2 -->
<g id="node2" class="node"><title>Node2</title>
<g id="a_node2"><a xlink:href="class_c_t_c_t___admin___page.html#acdbed2f16a36a9384b2fa5f01073024d" target="_top" xlink:title="CTCT_Admin_Page\\content">
<polygon fill="white" stroke="black" points="170.468,-205.195 170.468,-225.195 311.532,-225.195 311.532,-205.195 170.468,-205.195"/>
<text text-anchor="middle" x="241" y="-211.195" font-family="Helvetica,sans-Serif" font-size="10.00">CTCT_Admin_Page\content</text>
</a>
</g>
</g>
<!-- Node1&#45;&gt;Node2 -->
<g id="edge1" class="edge"><title>Node1&#45;&gt;Node2</title>
<path fill="none" stroke="midnightblue" d="M81.8247,-114.255C99.7857,-136.494 133.226,-173.925 170,-195.195 177.002,-199.245 184.878,-202.52 192.754,-205.155"/>
<polygon fill="midnightblue" stroke="midnightblue" points="84.465,-111.951 75.5187,-106.275 78.9729,-116.291 84.465,-111.951"/>
</g>
<!-- Node7 -->
<g id="node7" class="node"><title>Node7</title>
<g id="a_node7"><a xlink:href="class_c_t_c_t___admin___contacts.html#ab66e13c1d6644f2ef4fbbf5a3264d257" target="_top" xlink:title="CTCT_Admin_Contacts\l\\getTitle">
<polygon fill="white" stroke="black" points="180.205,-154.195 180.205,-186.195 301.795,-186.195 301.795,-154.195 180.205,-154.195"/>
<text text-anchor="start" x="188.205" y="-172.195" font-family="Helvetica,sans-Serif" font-size="10.00">CTCT_Admin_Contacts</text>
<text text-anchor="middle" x="241" y="-160.195" font-family="Helvetica,sans-Serif" font-size="10.00">\getTitle</text>
</a>
</g>
</g>
<!-- Node1&#45;&gt;Node7 -->
<g id="edge6" class="edge"><title>Node1&#45;&gt;Node7</title>
<path fill="none" stroke="midnightblue" d="M97.1097,-110.694C117.355,-120.579 145.078,-133.724 170,-144.195 178.008,-147.559 186.619,-150.944 194.969,-154.107"/>
<polygon fill="midnightblue" stroke="midnightblue" points="98.613,-107.533 88.0941,-106.266 95.527,-113.816 98.613,-107.533"/>
</g>
<!-- Node8 -->
<g id="node8" class="node"><title>Node8</title>
<g id="a_node8"><a xlink:href="class_c_t_c_t___admin___campaigns.html#ad6242d9a9105b91d0a3f23045e2a3d25" target="_top" xlink:title="CTCT_Admin_Campaigns\l\\getTitle">
<polygon fill="white" stroke="black" points="174.646,-103.195 174.646,-135.195 307.354,-135.195 307.354,-103.195 174.646,-103.195"/>
<text text-anchor="start" x="182.646" y="-121.195" font-family="Helvetica,sans-Serif" font-size="10.00">CTCT_Admin_Campaigns</text>
<text text-anchor="middle" x="241" y="-109.195" font-family="Helvetica,sans-Serif" font-size="10.00">\getTitle</text>
</a>
</g>
</g>
<!-- Node1&#45;&gt;Node8 -->
<g id="edge7" class="edge"><title>Node1&#45;&gt;Node8</title>
<path fill="none" stroke="midnightblue" d="M143.666,-106.313C153.903,-107.682 164.339,-109.078 174.381,-110.42"/>
<polygon fill="midnightblue" stroke="midnightblue" points="143.892,-102.812 133.516,-104.956 142.964,-109.751 143.892,-102.812"/>
</g>
<!-- Node9 -->
<g id="node9" class="node"><title>Node9</title>
<g id="a_node9"><a xlink:href="class_c_t_c_t___admin___lists.html#a03b4d6697494ea3fb75e7316e1ca6a7f" target="_top" xlink:title="CTCT_Admin_Lists\\getTitle">
<polygon fill="white" stroke="black" points="172.053,-64.1951 172.053,-84.1951 309.947,-84.1951 309.947,-64.1951 172.053,-64.1951"/>
<text text-anchor="middle" x="241" y="-70.1951" font-family="Helvetica,sans-Serif" font-size="10.00">CTCT_Admin_Lists\getTitle</text>
</a>
</g>
</g>
<!-- Node1&#45;&gt;Node9 -->
<g id="edge8" class="edge"><title>Node1&#45;&gt;Node9</title>
<path fill="none" stroke="midnightblue" d="M143.611,-86.5239C152.995,-85.3237 162.546,-84.102 171.809,-82.9173"/>
<polygon fill="midnightblue" stroke="midnightblue" points="142.992,-83.0746 133.516,-87.8151 143.88,-90.018 142.992,-83.0746"/>
</g>
<!-- Node10 -->
<g id="node10" class="node"><title>Node10</title>
<g id="a_node10"><a xlink:href="class_c_t_c_t___event_spot.html#acdbdce321684577624cec73d36cbf622" target="_top" xlink:title="CTCT_EventSpot\\getTitle">
<polygon fill="white" stroke="black" points="176.215,-25.1951 176.215,-45.1951 305.785,-45.1951 305.785,-25.1951 176.215,-25.1951"/>
<text text-anchor="middle" x="241" y="-31.1951" font-family="Helvetica,sans-Serif" font-size="10.00">CTCT_EventSpot\getTitle</text>
</a>
</g>
</g>
<!-- Node1&#45;&gt;Node10 -->
<g id="edge9" class="edge"><title>Node1&#45;&gt;Node10</title>
<path fill="none" stroke="midnightblue" d="M100.462,-82.1428C120.344,-73.7884 146.417,-63.2795 170,-55.1951 180.282,-51.6704 191.556,-48.2567 201.994,-45.2773"/>
<polygon fill="midnightblue" stroke="midnightblue" points="99.0797,-78.9272 91.2373,-86.0509 101.81,-85.3726 99.0797,-78.9272"/>
</g>
<!-- Node3 -->
<g id="node3" class="node"><title>Node3</title>
<g id="a_node3"><a xlink:href="class_c_t_c_t___admin___page.html#ad4d8edcfbf3023f7f18a6d188adaf99c" target="_top" xlink:title="CTCT_Admin_Page\\page">
<polygon fill="white" stroke="black" points="348.747,-95.1951 348.747,-115.195 479.253,-115.195 479.253,-95.1951 348.747,-95.1951"/>
<text text-anchor="middle" x="414" y="-101.195" font-family="Helvetica,sans-Serif" font-size="10.00">CTCT_Admin_Page\page</text>
</a>
</g>
</g>
<!-- Node1&#45;&gt;Node3 -->
<g id="edge10" class="edge"><title>Node1&#45;&gt;Node3</title>
<path fill="none" stroke="midnightblue" d="M83.4904,-78.4035C101.844,-58.8158 134.449,-28.4738 170,-16.1951 229.653,4.40784 252.96,6.1059 312,-16.1951 354.634,-32.2992 390.919,-75.5089 405.791,-95.1867"/>
<polygon fill="midnightblue" stroke="midnightblue" points="80.6696,-76.3031 76.53,-86.0557 85.8479,-81.0132 80.6696,-76.3031"/>
</g>
<!-- Node2&#45;&gt;Node3 -->
<g id="edge2" class="edge"><title>Node2&#45;&gt;Node3</title>
<path fill="none" stroke="midnightblue" d="M297.868,-201.745C302.765,-199.82 307.547,-197.646 312,-195.195 351.301,-173.567 388.18,-134.113 404.374,-115.472"/>
<polygon fill="midnightblue" stroke="midnightblue" points="296.601,-198.48 288.364,-205.144 298.958,-205.072 296.601,-198.48"/>
</g>
<!-- Node4 -->
<g id="node4" class="node"><title>Node4</title>
<g id="a_node4"><a xlink:href="class_c_t_c_t___constant___analytics.html#ad379ea8b9d4f8c7735b0f3adeac838fe" target="_top" xlink:title="CTCT_Constant_Analytics\l\\addActions">
<polygon fill="white" stroke="black" points="516.089,-140.195 516.089,-172.195 649.911,-172.195 649.911,-140.195 516.089,-140.195"/>
<text text-anchor="start" x="524.089" y="-158.195" font-family="Helvetica,sans-Serif" font-size="10.00">CTCT_Constant_Analytics</text>
<text text-anchor="middle" x="583" y="-146.195" font-family="Helvetica,sans-Serif" font-size="10.00">\addActions</text>
</a>
</g>
</g>
<!-- Node3&#45;&gt;Node4 -->
<g id="edge3" class="edge"><title>Node3&#45;&gt;Node4</title>
<path fill="none" stroke="midnightblue" d="M457.645,-118.218C479.474,-124.885 506.248,-133.061 529.354,-140.117"/>
<polygon fill="midnightblue" stroke="midnightblue" points="458.58,-114.845 447.994,-115.271 456.536,-121.539 458.58,-114.845"/>
</g>
<!-- Node5 -->
<g id="node5" class="node"><title>Node5</title>
<g id="a_node5"><a xlink:href="class_c_t_c_t___constant___analytics.html#a0b5589251b3a6cd9cf457fed695c885c" target="_top" xlink:title="CTCT_Constant_Analytics\l\\enqueue_scripts">
<polygon fill="white" stroke="black" points="516.089,-89.1951 516.089,-121.195 649.911,-121.195 649.911,-89.1951 516.089,-89.1951"/>
<text text-anchor="start" x="524.089" y="-107.195" font-family="Helvetica,sans-Serif" font-size="10.00">CTCT_Constant_Analytics</text>
<text text-anchor="middle" x="583" y="-95.1951" font-family="Helvetica,sans-Serif" font-size="10.00">\enqueue_scripts</text>
</a>
</g>
</g>
<!-- Node3&#45;&gt;Node5 -->
<g id="edge4" class="edge"><title>Node3&#45;&gt;Node5</title>
<path fill="none" stroke="midnightblue" d="M489.74,-105.195C498.477,-105.195 507.343,-105.195 515.95,-105.195"/>
<polygon fill="midnightblue" stroke="midnightblue" points="489.567,-101.695 479.567,-105.195 489.567,-108.695 489.567,-101.695"/>
</g>
<!-- Node6 -->
<g id="node6" class="node"><title>Node6</title>
<g id="a_node6"><a xlink:href="class_c_t_c_t___constant___analytics.html#a835b6b00979fb3965d01a93767d5199e" target="_top" xlink:title="CTCT_Constant_Analytics\l\\admin_head">
<polygon fill="white" stroke="black" points="516.089,-38.1951 516.089,-70.1951 649.911,-70.1951 649.911,-38.1951 516.089,-38.1951"/>
<text text-anchor="start" x="524.089" y="-56.1951" font-family="Helvetica,sans-Serif" font-size="10.00">CTCT_Constant_Analytics</text>
<text text-anchor="middle" x="583" y="-44.1951" font-family="Helvetica,sans-Serif" font-size="10.00">\admin_head</text>
</a>
</g>
</g>
<!-- Node3&#45;&gt;Node6 -->
<g id="edge5" class="edge"><title>Node3&#45;&gt;Node6</title>
<path fill="none" stroke="midnightblue" d="M457.645,-92.1719C479.474,-85.5053 506.248,-77.329 529.354,-70.2728"/>
<polygon fill="midnightblue" stroke="midnightblue" points="456.536,-88.851 447.994,-95.1192 458.58,-95.5458 456.536,-88.851"/>
</g>
</g>
</svg>
