<?xml version="1.0" encoding="UTF-8" standalone="no"?>
<!DOCTYPE svg PUBLIC "-//W3C//DTD SVG 1.1//EN"
 "http://www.w3.org/Graphics/SVG/1.1/DTD/svg11.dtd">
<!-- Generated by graphviz version 2.30.1 (20130221.2233)
 -->
<!-- Title: Registrant\createStruct Pages: 1 -->
<svg width="320pt" height="79pt"
 viewBox="0.00 0.00 320.00 79.00" xmlns="http://www.w3.org/2000/svg" xmlns:xlink="http://www.w3.org/1999/xlink">
<g id="graph0" class="graph" transform="scale(1 1) rotate(0) translate(4 75)">
<title>Registrant\createStruct</title>
<polygon fill="white" stroke="white" points="-4,5 -4,-75 317,-75 317,5 -4,5"/>
<!-- Node1 -->
<g id="node1" class="node"><title>Node1</title>
<polygon fill="#bfbfbf" stroke="black" points="-0.132812,-22 -0.132812,-42 118.133,-42 118.133,-22 -0.132812,-22"/>
<text text-anchor="middle" x="59" y="-28" font-family="Helvetica,sans-Serif" font-size="10.00">Registrant\createStruct</text>
</g>
<!-- Node2 -->
<g id="node2" class="node"><title>Node2</title>
<g id="a_node2"><a xlink:href="class_events_collection.html#a7ab04dcbb2dd3baed275acf7cf658055" target="_top" xlink:title="Get details for an Event Registrant. ">
<polygon fill="white" stroke="black" points="156.631,-39 156.631,-71 309.369,-71 309.369,-39 156.631,-39"/>
<text text-anchor="start" x="164.631" y="-57" font-family="Helvetica,sans-Serif" font-size="10.00">EventsCollection\getRegistrant</text>
<text text-anchor="middle" x="233" y="-45" font-family="Helvetica,sans-Serif" font-size="10.00">Details</text>
</a>
</g>
</g>
<!-- Node1&#45;&gt;Node2 -->
<g id="edge1" class="edge"><title>Node1&#45;&gt;Node2</title>
<path fill="none" stroke="midnightblue" d="M128.174,-41.1163C137.462,-42.3583 147.04,-43.6391 156.449,-44.8972"/>
<polygon fill="midnightblue" stroke="midnightblue" points="128.607,-37.6431 118.231,-39.7868 127.679,-44.5814 128.607,-37.6431"/>
</g>
<!-- Node3 -->
<g id="node3" class="node"><title>Node3</title>
<g id="a_node3"><a xlink:href="class_events_collection.html#a6baab87fc0a58669c4b88cb2625c4b8a" target="_top" xlink:title="Get a page of Registrants for an Event. ">
<polygon fill="white" stroke="black" points="154.131,-0 154.131,-20 311.869,-20 311.869,-0 154.131,-0"/>
<text text-anchor="middle" x="233" y="-6" font-family="Helvetica,sans-Serif" font-size="10.00">EventsCollection\getRegistrants</text>
</a>
</g>
</g>
<!-- Node1&#45;&gt;Node3 -->
<g id="edge2" class="edge"><title>Node1&#45;&gt;Node3</title>
<path fill="none" stroke="midnightblue" d="M128.367,-23.2554C136.791,-22.1779 145.451,-21.0702 154.005,-19.9761"/>
<polygon fill="midnightblue" stroke="midnightblue" points="127.706,-19.8113 118.231,-24.5518 128.595,-26.7547 127.706,-19.8113"/>
</g>
</g>
</svg>
