<?xml version="1.0" encoding="UTF-8" standalone="no"?>
<!DOCTYPE svg PUBLIC "-//W3C//DTD SVG 1.1//EN"
 "http://www.w3.org/Graphics/SVG/1.1/DTD/svg11.dtd">
<!-- Generated by graphviz version 2.30.1 (20130221.2233)
 -->
<!-- Title: Contact\createXml Pages: 1 -->
<svg width="242pt" height="91pt"
 viewBox="0.00 0.00 242.00 91.00" xmlns="http://www.w3.org/2000/svg" xmlns:xlink="http://www.w3.org/1999/xlink">
<g id="graph0" class="graph" transform="scale(1 1) rotate(0) translate(4 87)">
<title>Contact\createXml</title>
<polygon fill="white" stroke="white" points="-4,5 -4,-87 239,-87 239,5 -4,5"/>
<!-- Node1 -->
<g id="node1" class="node"><title>Node1</title>
<polygon fill="#bfbfbf" stroke="black" points="-0.12793,-31 -0.12793,-51 98.1279,-51 98.1279,-31 -0.12793,-31"/>
<text text-anchor="middle" x="49" y="-37" font-family="Helvetica,sans-Serif" font-size="10.00">Contact\createXml</text>
</g>
<!-- Node2 -->
<g id="node2" class="node"><title>Node2</title>
<g id="a_node2"><a xlink:href="class_contacts_collection.html#a58610b21a633bfe30cc66a5f54a107a7" target="_top" xlink:title="Add a contact to account. ">
<polygon fill="white" stroke="black" points="134.313,-51 134.313,-83 233.687,-83 233.687,-51 134.313,-51"/>
<text text-anchor="start" x="142.313" y="-69" font-family="Helvetica,sans-Serif" font-size="10.00">ContactsCollection</text>
<text text-anchor="middle" x="184" y="-57" font-family="Helvetica,sans-Serif" font-size="10.00">\addContact</text>
</a>
</g>
</g>
<!-- Node1&#45;&gt;Node2 -->
<g id="edge1" class="edge"><title>Node1&#45;&gt;Node2</title>
<path fill="none" stroke="midnightblue" d="M108.322,-52.4013C116.882,-54.0748 125.626,-55.7841 133.975,-57.4161"/>
<polygon fill="midnightblue" stroke="midnightblue" points="108.878,-48.9438 98.3923,-50.4601 107.535,-55.8138 108.878,-48.9438"/>
</g>
<!-- Node3 -->
<g id="node3" class="node"><title>Node3</title>
<g id="a_node3"><a xlink:href="class_contacts_collection.html#a7b797f7d3ca86f6ade7c4266f56e3699" target="_top" xlink:title="Update a Contact. ">
<polygon fill="white" stroke="black" points="134.313,-0 134.313,-32 233.687,-32 233.687,-0 134.313,-0"/>
<text text-anchor="start" x="142.313" y="-18" font-family="Helvetica,sans-Serif" font-size="10.00">ContactsCollection</text>
<text text-anchor="middle" x="184" y="-6" font-family="Helvetica,sans-Serif" font-size="10.00">\updateContact</text>
</a>
</g>
</g>
<!-- Node1&#45;&gt;Node3 -->
<g id="edge2" class="edge"><title>Node1&#45;&gt;Node3</title>
<path fill="none" stroke="midnightblue" d="M108.322,-30.0372C116.882,-28.4281 125.626,-26.7845 133.975,-25.2153"/>
<polygon fill="midnightblue" stroke="midnightblue" points="107.574,-26.6165 98.3923,-31.9037 108.867,-33.496 107.574,-26.6165"/>
</g>
</g>
</svg>
