<?xml version="1.0" encoding="UTF-8" standalone="no"?>
<!DOCTYPE svg PUBLIC "-//W3C//DTD SVG 1.1//EN"
 "http://www.w3.org/Graphics/SVG/1.1/DTD/svg11.dtd">
<!-- Generated by graphviz version 2.30.1 (20130221.2233)
 -->
<!-- Title: OAuthUtil\build_http_query Pages: 1 -->
<svg width="640pt" height="79pt"
 viewBox="0.00 0.00 640.00 79.00" xmlns="http://www.w3.org/2000/svg" xmlns:xlink="http://www.w3.org/1999/xlink">
<g id="graph0" class="graph" transform="scale(1 1) rotate(0) translate(4 75)">
<title>OAuthUtil\build_http_query</title>
<polygon fill="white" stroke="white" points="-4,5 -4,-75 637,-75 637,5 -4,5"/>
<!-- Node1 -->
<g id="node1" class="node"><title>Node1</title>
<polygon fill="#bfbfbf" stroke="black" points="0.529785,-16 0.529785,-48 105.47,-48 105.47,-16 0.529785,-16"/>
<text text-anchor="start" x="8.52979" y="-34" font-family="Helvetica,sans-Serif" font-size="10.00">OAuthUtil\build_http</text>
<text text-anchor="middle" x="53" y="-22" font-family="Helvetica,sans-Serif" font-size="10.00">_query</text>
</g>
<!-- Node2 -->
<g id="node2" class="node"><title>Node2</title>
<g id="a_node2"><a xlink:href="class_o_auth_request.html#a6b65d39d0b253e04133756b3540d763f" target="_top" xlink:title="The request parameters, sorted and concatenated into a normalized string. ">
<polygon fill="white" stroke="black" points="142.456,-39 142.456,-71 283.544,-71 283.544,-39 142.456,-39"/>
<text text-anchor="start" x="150.456" y="-57" font-family="Helvetica,sans-Serif" font-size="10.00">OAuthRequest\get_signable</text>
<text text-anchor="middle" x="213" y="-45" font-family="Helvetica,sans-Serif" font-size="10.00">_parameters</text>
</a>
</g>
</g>
<!-- Node1&#45;&gt;Node2 -->
<g id="edge1" class="edge"><title>Node1&#45;&gt;Node2</title>
<path fill="none" stroke="midnightblue" d="M115.796,-40.9956C124.503,-42.2632 133.504,-43.5734 142.347,-44.8606"/>
<polygon fill="midnightblue" stroke="midnightblue" points="116.135,-37.5082 105.735,-39.5311 115.127,-44.4352 116.135,-37.5082"/>
</g>
<!-- Node4 -->
<g id="node4" class="node"><title>Node4</title>
<g id="a_node4"><a xlink:href="class_o_auth_request.html#a45591cde97f0abdd0f8e985db3bf463c" target="_top" xlink:title="builds the data one would send in a POST request ">
<polygon fill="white" stroke="black" points="144.68,-0 144.68,-20 281.32,-20 281.32,-0 144.68,-0"/>
<text text-anchor="middle" x="213" y="-6" font-family="Helvetica,sans-Serif" font-size="10.00">OAuthRequest\to_postdata</text>
</a>
</g>
</g>
<!-- Node1&#45;&gt;Node4 -->
<g id="edge3" class="edge"><title>Node1&#45;&gt;Node4</title>
<path fill="none" stroke="midnightblue" d="M115.822,-23.3919C125.267,-22.0767 135.057,-20.7136 144.614,-19.3828"/>
<polygon fill="midnightblue" stroke="midnightblue" points="115.157,-19.9506 105.735,-24.7964 116.122,-26.8837 115.157,-19.9506"/>
</g>
<!-- Node3 -->
<g id="node3" class="node"><title>Node3</title>
<g id="a_node3"><a xlink:href="class_o_auth_request.html#a91adca76e918ade136d9c56a46695e46" target="_top" xlink:title="Returns the base string of this request. ">
<polygon fill="white" stroke="black" points="320.513,-39 320.513,-71 465.487,-71 465.487,-39 320.513,-39"/>
<text text-anchor="start" x="328.513" y="-57" font-family="Helvetica,sans-Serif" font-size="10.00">OAuthRequest\get_signature</text>
<text text-anchor="middle" x="393" y="-45" font-family="Helvetica,sans-Serif" font-size="10.00">_base_string</text>
</a>
</g>
</g>
<!-- Node2&#45;&gt;Node3 -->
<g id="edge2" class="edge"><title>Node2&#45;&gt;Node3</title>
<path fill="none" stroke="midnightblue" d="M293.596,-55C302.529,-55 311.589,-55 320.412,-55"/>
<polygon fill="midnightblue" stroke="midnightblue" points="293.584,-51.5001 283.584,-55 293.584,-58.5001 293.584,-51.5001"/>
</g>
<!-- Node5 -->
<g id="node5" class="node"><title>Node5</title>
<g id="a_node5"><a xlink:href="class_o_auth_request.html#a4d27097917ad20e1958f1034eaa1702f" target="_top" xlink:title="builds a url usable for a GET request ">
<polygon fill="white" stroke="black" points="338.306,-0 338.306,-20 447.694,-20 447.694,-0 338.306,-0"/>
<text text-anchor="middle" x="393" y="-6" font-family="Helvetica,sans-Serif" font-size="10.00">OAuthRequest\to_url</text>
</a>
</g>
</g>
<!-- Node4&#45;&gt;Node5 -->
<g id="edge4" class="edge"><title>Node4&#45;&gt;Node5</title>
<path fill="none" stroke="midnightblue" d="M291.73,-10C307.36,-10 323.461,-10 338.063,-10"/>
<polygon fill="midnightblue" stroke="midnightblue" points="291.548,-6.5001 281.548,-10 291.548,-13.5001 291.548,-6.5001"/>
</g>
<!-- Node6 -->
<g id="node6" class="node"><title>Node6</title>
<g id="a_node6"><a xlink:href="class_o_auth_request.html#a28fea7b75af1500bad2d35f88e77c0dd" target="_top" xlink:title="OAuthRequest\\__toString">
<polygon fill="white" stroke="black" points="502.02,-0 502.02,-20 631.98,-20 631.98,-0 502.02,-0"/>
<text text-anchor="middle" x="567" y="-6" font-family="Helvetica,sans-Serif" font-size="10.00">OAuthRequest\__toString</text>
</a>
</g>
</g>
<!-- Node5&#45;&gt;Node6 -->
<g id="edge5" class="edge"><title>Node5&#45;&gt;Node6</title>
<path fill="none" stroke="midnightblue" d="M458.196,-10C472.512,-10 487.69,-10 501.997,-10"/>
<polygon fill="midnightblue" stroke="midnightblue" points="457.95,-6.5001 447.95,-10 457.95,-13.5001 457.95,-6.5001"/>
</g>
</g>
</svg>
