<?xml version="1.0" encoding="UTF-8" standalone="no"?>
<!DOCTYPE svg PUBLIC "-//W3C//DTD SVG 1.1//EN"
 "http://www.w3.org/Graphics/SVG/1.1/DTD/svg11.dtd">
<!-- Generated by graphviz version 2.30.1 (20130221.2233)
 -->
<!-- Title: OAuthServer\check_timestamp Pages: 1 -->
<svg width="522pt" height="142pt"
 viewBox="0.00 0.00 522.00 142.00" xmlns="http://www.w3.org/2000/svg" xmlns:xlink="http://www.w3.org/1999/xlink">
<g id="graph0" class="graph" transform="scale(1 1) rotate(0) translate(4 138)">
<title>OAuthServer\check_timestamp</title>
<polygon fill="white" stroke="white" points="-4,5 -4,-138 519,-138 519,5 -4,5"/>
<!-- Node1 -->
<g id="node1" class="node"><title>Node1</title>
<polygon fill="#bfbfbf" stroke="black" points="-0.194336,-57 -0.194336,-77 154.194,-77 154.194,-57 -0.194336,-57"/>
<text text-anchor="middle" x="77" y="-63" font-family="Helvetica,sans-Serif" font-size="10.00">OAuthServer\check_timestamp</text>
</g>
<!-- Node2 -->
<g id="node2" class="node"><title>Node2</title>
<g id="a_node2"><a xlink:href="class_o_auth_server.html#a42f0158a9a4c166bc9372054626d93ca" target="_top" xlink:title="all&#45;in&#45;one function to check the signature on a request should guess the signature method appropriate...">
<polygon fill="white" stroke="black" points="190.298,-57 190.298,-77 339.702,-77 339.702,-57 190.298,-57"/>
<text text-anchor="middle" x="265" y="-63" font-family="Helvetica,sans-Serif" font-size="10.00">OAuthServer\check_signature</text>
</a>
</g>
</g>
<!-- Node1&#45;&gt;Node2 -->
<g id="edge1" class="edge"><title>Node1&#45;&gt;Node2</title>
<path fill="none" stroke="midnightblue" d="M164.504,-67C173.106,-67 181.782,-67 190.236,-67"/>
<polygon fill="midnightblue" stroke="midnightblue" points="164.459,-63.5001 154.459,-67 164.458,-70.5001 164.459,-63.5001"/>
</g>
<!-- Node3 -->
<g id="node3" class="node"><title>Node3</title>
<g id="a_node3"><a xlink:href="class_o_auth_server.html#a5c76359726e685013d2e0cb8a1abe09a" target="_top" xlink:title="process an access_token request returns the access token on success ">
<polygon fill="white" stroke="black" points="377.527,-102 377.527,-134 512.473,-134 512.473,-102 377.527,-102"/>
<text text-anchor="start" x="385.527" y="-120" font-family="Helvetica,sans-Serif" font-size="10.00">OAuthServer\fetch_access</text>
<text text-anchor="middle" x="445" y="-108" font-family="Helvetica,sans-Serif" font-size="10.00">_token</text>
</a>
</g>
</g>
<!-- Node2&#45;&gt;Node3 -->
<g id="edge2" class="edge"><title>Node2&#45;&gt;Node3</title>
<path fill="none" stroke="midnightblue" d="M310.826,-79.8435C334.207,-86.5424 363.036,-94.8026 387.886,-101.922"/>
<polygon fill="midnightblue" stroke="midnightblue" points="311.744,-76.4658 301.167,-77.076 309.816,-83.195 311.744,-76.4658"/>
</g>
<!-- Node4 -->
<g id="node4" class="node"><title>Node4</title>
<g id="a_node4"><a xlink:href="class_o_auth_server.html#aa91f1a763ab36c576ebf9319ac4751f6" target="_top" xlink:title="process a request_token request returns the request token on success ">
<polygon fill="white" stroke="black" points="376.412,-51 376.412,-83 513.588,-83 513.588,-51 376.412,-51"/>
<text text-anchor="start" x="384.412" y="-69" font-family="Helvetica,sans-Serif" font-size="10.00">OAuthServer\fetch_request</text>
<text text-anchor="middle" x="445" y="-57" font-family="Helvetica,sans-Serif" font-size="10.00">_token</text>
</a>
</g>
</g>
<!-- Node2&#45;&gt;Node4 -->
<g id="edge3" class="edge"><title>Node2&#45;&gt;Node4</title>
<path fill="none" stroke="midnightblue" d="M350.166,-67C358.917,-67 367.731,-67 376.268,-67"/>
<polygon fill="midnightblue" stroke="midnightblue" points="349.942,-63.5001 339.942,-67 349.942,-70.5001 349.942,-63.5001"/>
</g>
<!-- Node5 -->
<g id="node5" class="node"><title>Node5</title>
<g id="a_node5"><a xlink:href="class_o_auth_server.html#ad31e95096adeac980a8a99f59c4cadc6" target="_top" xlink:title="verify an api call, checks all the parameters ">
<polygon fill="white" stroke="black" points="394.764,-0 394.764,-32 495.236,-32 495.236,-0 394.764,-0"/>
<text text-anchor="start" x="402.764" y="-18" font-family="Helvetica,sans-Serif" font-size="10.00">OAuthServer\verify</text>
<text text-anchor="middle" x="445" y="-6" font-family="Helvetica,sans-Serif" font-size="10.00">_request</text>
</a>
</g>
</g>
<!-- Node2&#45;&gt;Node5 -->
<g id="edge4" class="edge"><title>Node2&#45;&gt;Node5</title>
<path fill="none" stroke="midnightblue" d="M310.97,-54.1153C336.517,-46.7956 368.535,-37.6221 394.757,-30.109"/>
<polygon fill="midnightblue" stroke="midnightblue" points="309.816,-50.805 301.167,-56.924 311.744,-57.5342 309.816,-50.805"/>
</g>
</g>
</svg>
