<?xml version="1.0" encoding="UTF-8" standalone="no"?>
<!DOCTYPE svg PUBLIC "-//W3C//DTD SVG 1.1//EN"
 "http://www.w3.org/Graphics/SVG/1.1/DTD/svg11.dtd">
<!-- Generated by graphviz version 2.30.1 (20130221.2233)
 -->
<!-- Title: Ctct\Components\Tracking\TrackingSummary\create Pages: 1 -->
<!--zoomable 193 -->
<svg id="main" version="1.1" xmlns="http://www.w3.org/2000/svg" xmlns:xlink="http://www.w3.org/1999/xlink" xml:space="preserve" onload="init(evt)">
<style type="text/css"><![CDATA[
.edge:hover path { stroke: red; }
.edge:hover polygon { stroke: red; fill: red; }
]]></style>
<script type="text/javascript"><![CDATA[
var edges = document.getElementsByTagName('g');
if (edges && edges.length) {
  for (var i=0;i<edges.length;i++) {
    if (edges[i].id.substr(0,4)=='edge') {
      edges[i].setAttribute('class','edge');
    }
  }
}
]]></script>
        <defs>
                <circle id="rim" cx="0" cy="0" r="7"/>
                <circle id="rim2" cx="0" cy="0" r="3.5"/>
                <g id="zoomPlus">
                        <use xlink:href="#rim" fill="#404040">
                                <set attributeName="fill" to="#808080" begin="zoomplus.mouseover" end="zoomplus.mouseout"/>
                        </use>
                        <path d="M-4,0h8M0,-4v8" fill="none" stroke="white" stroke-width="1.5" pointer-events="none"/>
                </g>
                <g id="zoomMin">
                        <use xlink:href="#rim" fill="#404040">
                                <set attributeName="fill" to="#808080" begin="zoomminus.mouseover" end="zoomminus.mouseout"/>
                        </use>
                        <path d="M-4,0h8" fill="none" stroke="white" stroke-width="1.5" pointer-events="none"/>
                </g>
                <g id="dirArrow">
                        <path fill="none" stroke="white" stroke-width="1.5" d="M0,-3.0v7 M-2.5,-0.5L0,-3.0L2.5,-0.5"/>
                </g>
               <g id="resetDef">
                       <use xlink:href="#rim2" fill="#404040">
                               <set attributeName="fill" to="#808080" begin="reset.mouseover" end="reset.mouseout"/>
                       </use>
               </g>
        </defs>

<script type="text/javascript">
var viewWidth = 528;
var viewHeight = 193;
var sectionId = 'dynsection-2';
</script>
<script xlink:href="svgpan.js"/>
<svg id="graph" class="graph">
<g id="viewport">
<title>Ctct\Components\Tracking\TrackingSummary\create</title>
<polygon fill="white" stroke="white" points="-4,5 -4,-189 525,-189 525,5 -4,5"/>
<!-- Node1 -->
<g id="node1" class="node"><title>Node1</title>
<polygon fill="#bfbfbf" stroke="black" points="-0.00634766,-51 -0.00634766,-83 134.006,-83 134.006,-51 -0.00634766,-51"/>
<text text-anchor="start" x="7.99365" y="-69" font-family="Helvetica,sans-Serif" font-size="10.00">Ctct\Components\Tracking</text>
<text text-anchor="middle" x="67" y="-57" font-family="Helvetica,sans-Serif" font-size="10.00">\TrackingSummary\create</text>
</g>
<!-- Node2 -->
<g id="node2" class="node"><title>Node2</title>
<g id="a_node2"><a xlink:href="class_ctct_1_1_components_1_1_email_marketing_1_1_campaign.html#afbeef4aaccb7fd7be77f5e497e0fbc5f" target="_top" xlink:title="Factory method to create a Campaign object from an array. ">
<polygon fill="white" stroke="black" points="170.527,-102 170.527,-134 335.473,-134 335.473,-102 170.527,-102"/>
<text text-anchor="start" x="178.527" y="-120" font-family="Helvetica,sans-Serif" font-size="10.00">Ctct\Components\EmailMarketing</text>
<text text-anchor="middle" x="253" y="-108" font-family="Helvetica,sans-Serif" font-size="10.00">\Campaign\create</text>
</a>
</g>
</g>
<!-- Node1&#45;&gt;Node2 -->
<g id="edge1" class="edge"><title>Node1&#45;&gt;Node2</title>
<path fill="none" stroke="midnightblue" d="M135.805,-85.7937C154.917,-91.091 175.528,-96.804 194.009,-101.926"/>
<polygon fill="midnightblue" stroke="midnightblue" points="136.538,-82.365 125.966,-83.0667 134.668,-89.1107 136.538,-82.365"/>
</g>
<!-- Node6 -->
<g id="node6" class="node"><title>Node6</title>
<g id="a_node6"><a xlink:href="class_ctct_1_1_services_1_1_campaign_tracking_service.html#aaafdbbc4ee6e9b089fef38693970b24f" target="_top" xlink:title="Get a summary of reporting data for a given campaign. ">
<polygon fill="white" stroke="black" points="172.38,-51 172.38,-83 333.62,-83 333.62,-51 172.38,-51"/>
<text text-anchor="start" x="180.38" y="-69" font-family="Helvetica,sans-Serif" font-size="10.00">Ctct\Services\CampaignTracking</text>
<text text-anchor="middle" x="253" y="-57" font-family="Helvetica,sans-Serif" font-size="10.00">Service\getSummary</text>
</a>
</g>
</g>
<!-- Node1&#45;&gt;Node6 -->
<g id="edge5" class="edge"><title>Node1&#45;&gt;Node6</title>
<path fill="none" stroke="midnightblue" d="M144.442,-67C153.64,-67 163.051,-67 172.294,-67"/>
<polygon fill="midnightblue" stroke="midnightblue" points="144.168,-63.5001 134.168,-67 144.168,-70.5001 144.168,-63.5001"/>
</g>
<!-- Node7 -->
<g id="node7" class="node"><title>Node7</title>
<g id="a_node7"><a xlink:href="class_ctct_1_1_services_1_1_contact_tracking_service.html#a3772a32865e7e76603f0b39cd6d7a315" target="_top" xlink:title="Get a summary of reporting data for a given contact. ">
<polygon fill="white" stroke="black" points="177.939,-0 177.939,-32 328.061,-32 328.061,-0 177.939,-0"/>
<text text-anchor="start" x="185.939" y="-18" font-family="Helvetica,sans-Serif" font-size="10.00">Ctct\Services\ContactTracking</text>
<text text-anchor="middle" x="253" y="-6" font-family="Helvetica,sans-Serif" font-size="10.00">Service\getSummary</text>
</a>
</g>
</g>
<!-- Node1&#45;&gt;Node7 -->
<g id="edge6" class="edge"><title>Node1&#45;&gt;Node7</title>
<path fill="none" stroke="midnightblue" d="M135.805,-48.2063C154.917,-42.909 175.528,-37.196 194.009,-32.0736"/>
<polygon fill="midnightblue" stroke="midnightblue" points="134.668,-44.8893 125.966,-50.9333 136.538,-51.635 134.668,-44.8893"/>
</g>
<!-- Node3 -->
<g id="node3" class="node"><title>Node3</title>
<g id="a_node3"><a xlink:href="class_ctct_1_1_services_1_1_email_marketing_service.html#ad7b4f264aecfd32a1a23db8446e55c4e" target="_top" xlink:title="Create a new campaign. ">
<polygon fill="white" stroke="black" points="372.705,-153 372.705,-185 519.295,-185 519.295,-153 372.705,-153"/>
<text text-anchor="start" x="380.705" y="-171" font-family="Helvetica,sans-Serif" font-size="10.00">Ctct\Services\EmailMarketing</text>
<text text-anchor="middle" x="446" y="-159" font-family="Helvetica,sans-Serif" font-size="10.00">Service\addCampaign</text>
</a>
</g>
</g>
<!-- Node2&#45;&gt;Node3 -->
<g id="edge2" class="edge"><title>Node2&#45;&gt;Node3</title>
<path fill="none" stroke="midnightblue" d="M323.839,-136.648C343.831,-141.986 365.443,-147.757 384.803,-152.926"/>
<polygon fill="midnightblue" stroke="midnightblue" points="324.736,-133.265 314.171,-134.067 322.93,-140.028 324.736,-133.265"/>
</g>
<!-- Node4 -->
<g id="node4" class="node"><title>Node4</title>
<g id="a_node4"><a xlink:href="class_ctct_1_1_services_1_1_email_marketing_service.html#a74b2cfd1e2b3c26f5c9d1be841f8d1b8" target="_top" xlink:title="Get campaign details for a specific campaign. ">
<polygon fill="white" stroke="black" points="372.705,-102 372.705,-134 519.295,-134 519.295,-102 372.705,-102"/>
<text text-anchor="start" x="380.705" y="-120" font-family="Helvetica,sans-Serif" font-size="10.00">Ctct\Services\EmailMarketing</text>
<text text-anchor="middle" x="446" y="-108" font-family="Helvetica,sans-Serif" font-size="10.00">Service\getCampaign</text>
</a>
</g>
</g>
<!-- Node2&#45;&gt;Node4 -->
<g id="edge3" class="edge"><title>Node2&#45;&gt;Node4</title>
<path fill="none" stroke="midnightblue" d="M345.673,-118C354.666,-118 363.704,-118 372.469,-118"/>
<polygon fill="midnightblue" stroke="midnightblue" points="345.555,-114.5 335.555,-118 345.555,-121.5 345.555,-114.5"/>
</g>
<!-- Node5 -->
<g id="node5" class="node"><title>Node5</title>
<g id="a_node5"><a xlink:href="class_ctct_1_1_services_1_1_email_marketing_service.html#a577a7a457d8c00ba8f0f01d113f37973" target="_top" xlink:title="Update a specific email campaign. ">
<polygon fill="white" stroke="black" points="372.705,-51 372.705,-83 519.295,-83 519.295,-51 372.705,-51"/>
<text text-anchor="start" x="380.705" y="-69" font-family="Helvetica,sans-Serif" font-size="10.00">Ctct\Services\EmailMarketing</text>
<text text-anchor="middle" x="446" y="-57" font-family="Helvetica,sans-Serif" font-size="10.00">Service\updateCampaign</text>
</a>
</g>
</g>
<!-- Node2&#45;&gt;Node5 -->
<g id="edge4" class="edge"><title>Node2&#45;&gt;Node5</title>
<path fill="none" stroke="midnightblue" d="M323.839,-99.352C343.831,-94.0138 365.443,-88.2429 384.803,-83.0736"/>
<polygon fill="midnightblue" stroke="midnightblue" points="322.93,-95.9719 314.171,-101.933 324.736,-102.735 322.93,-95.9719"/>
</g>
</g>
</svg>
        <g id="navigator" transform="translate(0 0)" fill="#404254">
                <rect fill="#f2f5e9" fill-opacity="0.5" stroke="#606060" stroke-width=".5" x="0" y="0" width="60" height="60"/>
                <use id="zoomplus" xlink:href="#zoomPlus" x="17" y="9" onmousedown="handleZoom(evt,'in')"/>
                <use id="zoomminus" xlink:href="#zoomMin" x="42" y="9" onmousedown="handleZoom(evt,'out')"/>
                <use id="reset" xlink:href="#resetDef" x="30" y="36" onmousedown="handleReset()"/>
                <g id="arrowUp" xlink:href="#dirArrow" transform="translate(30 24)" onmousedown="handlePan(0,-1)">
                  <use xlink:href="#rim" fill="#404040">
                        <set attributeName="fill" to="#808080" begin="arrowUp.mouseover" end="arrowUp.mouseout"/>
                  </use>
                  <path fill="none" stroke="white" stroke-width="1.5" d="M0,-3.0v7 M-2.5,-0.5L0,-3.0L2.5,-0.5"/>
                </g>
                <g id="arrowRight" xlink:href="#dirArrow" transform="rotate(90) translate(36 -43)" onmousedown="handlePan(1,0)">
                  <use xlink:href="#rim" fill="#404040">
                        <set attributeName="fill" to="#808080" begin="arrowRight.mouseover" end="arrowRight.mouseout"/>
                  </use>
                  <path fill="none" stroke="white" stroke-width="1.5" d="M0,-3.0v7 M-2.5,-0.5L0,-3.0L2.5,-0.5"/>
                </g>
                <g id="arrowDown" xlink:href="#dirArrow" transform="rotate(180) translate(-30 -48)" onmousedown="handlePan(0,1)">
                  <use xlink:href="#rim" fill="#404040">
                        <set attributeName="fill" to="#808080" begin="arrowDown.mouseover" end="arrowDown.mouseout"/>
                  </use>
                  <path fill="none" stroke="white" stroke-width="1.5" d="M0,-3.0v7 M-2.5,-0.5L0,-3.0L2.5,-0.5"/>
                </g>
                <g id="arrowLeft" xlink:href="#dirArrow" transform="rotate(270) translate(-36 17)" onmousedown="handlePan(-1,0)">
                  <use xlink:href="#rim" fill="#404040">
                        <set attributeName="fill" to="#808080" begin="arrowLeft.mouseover" end="arrowLeft.mouseout"/>
                  </use>
                  <path fill="none" stroke="white" stroke-width="1.5" d="M0,-3.0v7 M-2.5,-0.5L0,-3.0L2.5,-0.5"/>
                </g>
        </g>
        <svg viewBox="0 0 15 15" width="100%" height="30px" preserveAspectRatio="xMaxYMin meet">
         <g id="arrow_out" transform="scale(0.3 0.3)">
          <a xlink:href="class_ctct_1_1_components_1_1_tracking_1_1_tracking_summary_a2559d62ef3c0e3a457df0c50043311d4_icgraph_org.svg" target="_base">
           <rect id="button" ry="5" rx="5" y="6" x="6" height="38" width="38"
                fill="#f2f5e9" fill-opacity="0.5" stroke="#606060" stroke-width="1.0"/>
           <path id="arrow"
             d="M 11.500037,31.436501 C 11.940474,20.09759 22.043105,11.32322 32.158766,21.979434 L 37.068811,17.246167 C 37.068811,17.246167 37.088388,32 37.088388,32 L 22.160133,31.978069 C 22.160133,31.978069 26.997745,27.140456 26.997745,27.140456 C 18.528582,18.264221 13.291696,25.230495 11.500037,31.436501 z"
             style="fill:#404040;"/>
          </a>
         </g>
        </svg>
</svg>
