<?xml version="1.0" encoding="UTF-8" standalone="no"?>
<!DOCTYPE svg PUBLIC "-//W3C//DTD SVG 1.1//EN"
 "http://www.w3.org/Graphics/SVG/1.1/DTD/svg11.dtd">
<!-- Generated by graphviz version 2.30.1 (20130221.2233)
 -->
<!-- Title: JsonLoader\getExportContactsActivity Pages: 1 -->
<svg width="352pt" height="40pt"
 viewBox="0.00 0.00 352.00 40.00" xmlns="http://www.w3.org/2000/svg" xmlns:xlink="http://www.w3.org/1999/xlink">
<g id="graph0" class="graph" transform="scale(1 1) rotate(0) translate(4 36)">
<title>JsonLoader\getExportContactsActivity</title>
<polygon fill="white" stroke="white" points="-4,5 -4,-36 349,-36 349,5 -4,5"/>
<!-- Node1 -->
<g id="node1" class="node"><title>Node1</title>
<polygon fill="#bfbfbf" stroke="black" points="0.347656,-0 0.347656,-32 153.652,-32 153.652,-0 0.347656,-0"/>
<text text-anchor="start" x="8.34766" y="-18" font-family="Helvetica,sans-Serif" font-size="10.00">JsonLoader\getExportContacts</text>
<text text-anchor="middle" x="77" y="-6" font-family="Helvetica,sans-Serif" font-size="10.00">Activity</text>
</g>
<!-- Node2 -->
<g id="node2" class="node"><title>Node2</title>
<g id="a_node2"><a xlink:href="class_activity_service_unit_test.html#aa48053a18503b6cba9c4d52fed8e3959" target="_top" xlink:title="ActivityServiceUnitTest\l\\testAddExportContactsActivity">
<polygon fill="white" stroke="black" points="190.638,-0 190.638,-32 343.362,-32 343.362,-0 190.638,-0"/>
<text text-anchor="start" x="198.638" y="-18" font-family="Helvetica,sans-Serif" font-size="10.00">ActivityServiceUnitTest</text>
<text text-anchor="middle" x="267" y="-6" font-family="Helvetica,sans-Serif" font-size="10.00">\testAddExportContactsActivity</text>
</a>
</g>
</g>
<!-- Node1&#45;&gt;Node2 -->
<g id="edge1" class="edge"><title>Node1&#45;&gt;Node2</title>
<path fill="none" stroke="midnightblue" d="M163.692,-16C172.636,-16 181.682,-16 190.501,-16"/>
<polygon fill="midnightblue" stroke="midnightblue" points="163.654,-12.5001 153.654,-16 163.654,-19.5001 163.654,-12.5001"/>
</g>
</g>
</svg>
