<?xml version="1.0" encoding="UTF-8" standalone="no"?>
<!DOCTYPE svg PUBLIC "-//W3C//DTD SVG 1.1//EN"
 "http://www.w3.org/Graphics/SVG/1.1/DTD/svg11.dtd">
<!-- Generated by graphviz version 2.30.1 (20130221.2233)
 -->
<!-- Title: LibraryCollection\addFolder Pages: 1 -->
<svg width="866pt" height="198pt"
 viewBox="0.00 0.00 866.00 198.00" xmlns="http://www.w3.org/2000/svg" xmlns:xlink="http://www.w3.org/1999/xlink">
<g id="graph0" class="graph" transform="scale(1 1) rotate(0) translate(4 194)">
<title>LibraryCollection\addFolder</title>
<polygon fill="white" stroke="white" points="-4,5 -4,-194 863,-194 863,5 -4,5"/>
<!-- Node1 -->
<g id="node1" class="node"><title>Node1</title>
<polygon fill="#bfbfbf" stroke="black" points="-0.142578,-131 -0.142578,-151 138.143,-151 138.143,-131 -0.142578,-131"/>
<text text-anchor="middle" x="69" y="-137" font-family="Helvetica,sans-Serif" font-size="10.00">LibraryCollection\addFolder</text>
</g>
<!-- Node2 -->
<g id="node2" class="node"><title>Node2</title>
<g id="a_node2"><a xlink:href="class_folder.html#a4b50124607d4d87b5f626b4598141b8e" target="_top" xlink:title="Create associate array of object from XML. ">
<polygon fill="white" stroke="black" points="195.483,-170 195.483,-190 296.517,-190 296.517,-170 195.483,-170"/>
<text text-anchor="middle" x="246" y="-176" font-family="Helvetica,sans-Serif" font-size="10.00">Folder\createStruct</text>
</a>
</g>
</g>
<!-- Node1&#45;&gt;Node2 -->
<g id="edge1" class="edge"><title>Node1&#45;&gt;Node2</title>
<path fill="none" stroke="midnightblue" d="M115.067,-151.043C137.929,-156.138 165.891,-162.37 190.01,-167.745"/>
<polygon fill="midnightblue" stroke="midnightblue" points="189.564,-171.231 200.086,-169.991 191.087,-164.399 189.564,-171.231"/>
</g>
<!-- Node3 -->
<g id="node3" class="node"><title>Node3</title>
<g id="a_node3"><a xlink:href="class_folder.html#a39af774e4006f51baaa7e350db3ec8d6" target="_top" xlink:title="Create XML Representation of the object. ">
<polygon fill="white" stroke="black" points="199.931,-131 199.931,-151 292.069,-151 292.069,-131 199.931,-131"/>
<text text-anchor="middle" x="246" y="-137" font-family="Helvetica,sans-Serif" font-size="10.00">Folder\createXml</text>
</a>
</g>
</g>
<!-- Node1&#45;&gt;Node3 -->
<g id="edge2" class="edge"><title>Node1&#45;&gt;Node3</title>
<path fill="none" stroke="midnightblue" d="M138.161,-141C155.087,-141 173.029,-141 189.279,-141"/>
<polygon fill="midnightblue" stroke="midnightblue" points="189.686,-144.5 199.686,-141 189.686,-137.5 189.686,-144.5"/>
</g>
<!-- Node7 -->
<g id="node7" class="node"><title>Node7</title>
<g id="a_node7"><a xlink:href="class_c_t_c_t_request.html#aad92e5787f6d3fdf00760d99505aa6db" target="_top" xlink:title="CTCTRequest\\makeRequest">
<polygon fill="white" stroke="black" points="173.808,-92 173.808,-112 318.192,-112 318.192,-92 173.808,-92"/>
<text text-anchor="middle" x="246" y="-98" font-family="Helvetica,sans-Serif" font-size="10.00">CTCTRequest\makeRequest</text>
</a>
</g>
</g>
<!-- Node1&#45;&gt;Node7 -->
<g id="edge6" class="edge"><title>Node1&#45;&gt;Node7</title>
<path fill="none" stroke="midnightblue" d="M115.067,-130.957C137.929,-125.862 165.891,-119.63 190.01,-114.255"/>
<polygon fill="midnightblue" stroke="midnightblue" points="191.087,-117.601 200.086,-112.009 189.564,-110.769 191.087,-117.601"/>
</g>
<!-- Node4 -->
<g id="node4" class="node"><title>Node4</title>
<g id="a_node4"><a xlink:href="class_c_c_object.html#a2175b643672414fd5dd302e8feb7bc55" target="_top" xlink:title="Validate an object to check that all required fields have been supplied &#160;array $params &#45; object prope...">
<polygon fill="white" stroke="black" points="382.705,-131 382.705,-151 479.295,-151 479.295,-131 382.705,-131"/>
<text text-anchor="middle" x="431" y="-137" font-family="Helvetica,sans-Serif" font-size="10.00">CCObject\validate</text>
</a>
</g>
</g>
<!-- Node3&#45;&gt;Node4 -->
<g id="edge3" class="edge"><title>Node3&#45;&gt;Node4</title>
<path fill="none" stroke="midnightblue" d="M292.236,-141C316.437,-141 346.497,-141 372.357,-141"/>
<polygon fill="midnightblue" stroke="midnightblue" points="372.41,-144.5 382.41,-141 372.41,-137.5 372.41,-144.5"/>
</g>
<!-- Node5 -->
<g id="node5" class="node"><title>Node5</title>
<g id="a_node5"><a xlink:href="class_c_t_c_t_exception.html#adc8307ec7d7a2c730b0dac678d0e7fcb" target="_top" xlink:title="CTCTException\\generateError">
<polygon fill="white" stroke="black" points="544.473,-112 544.473,-132 695.527,-132 695.527,-112 544.473,-112"/>
<text text-anchor="middle" x="620" y="-118" font-family="Helvetica,sans-Serif" font-size="10.00">CTCTException\generateError</text>
</a>
</g>
</g>
<!-- Node4&#45;&gt;Node5 -->
<g id="edge4" class="edge"><title>Node4&#45;&gt;Node5</title>
<path fill="none" stroke="midnightblue" d="M479.672,-136.156C496.274,-134.469 515.437,-132.522 534.136,-130.623"/>
<polygon fill="midnightblue" stroke="midnightblue" points="534.56,-134.098 544.155,-129.605 533.853,-127.133 534.56,-134.098"/>
</g>
<!-- Node6 -->
<g id="node6" class="node"><title>Node6</title>
<g id="a_node6"><a xlink:href="class_c_t_c_t_exception.html#a6a86531406328bbd2a6c6252b7fb3a70" target="_top" xlink:title="CTCTException\\logError">
<polygon fill="white" stroke="black" points="732.54,-112 732.54,-132 857.46,-132 857.46,-112 732.54,-112"/>
<text text-anchor="middle" x="795" y="-118" font-family="Helvetica,sans-Serif" font-size="10.00">CTCTException\logError</text>
</a>
</g>
</g>
<!-- Node5&#45;&gt;Node6 -->
<g id="edge5" class="edge"><title>Node5&#45;&gt;Node6</title>
<path fill="none" stroke="midnightblue" d="M695.623,-122C704.431,-122 713.406,-122 722.174,-122"/>
<polygon fill="midnightblue" stroke="midnightblue" points="722.349,-125.5 732.349,-122 722.349,-118.5 722.349,-125.5"/>
</g>
<!-- Node8 -->
<g id="node8" class="node"><title>Node8</title>
<g id="a_node8"><a xlink:href="class_o_auth_request.html#afe9d0f6cb8e0dadb1c0faeea9ecafe45" target="_top" xlink:title="pretty much a helper function to set up the request ">
<polygon fill="white" stroke="black" points="354.079,-41 354.079,-73 507.921,-73 507.921,-41 354.079,-41"/>
<text text-anchor="start" x="362.079" y="-59" font-family="Helvetica,sans-Serif" font-size="10.00">OAuthRequest\from_consumer</text>
<text text-anchor="middle" x="431" y="-47" font-family="Helvetica,sans-Serif" font-size="10.00">_and_token</text>
</a>
</g>
</g>
<!-- Node7&#45;&gt;Node8 -->
<g id="edge7" class="edge"><title>Node7&#45;&gt;Node8</title>
<path fill="none" stroke="midnightblue" d="M288.069,-91.9011C307.713,-87.0706 331.867,-81.131 354.644,-75.5303"/>
<polygon fill="midnightblue" stroke="midnightblue" points="355.77,-78.8575 364.645,-73.0708 354.099,-72.06 355.77,-78.8575"/>
</g>
<!-- Node7&#45;&gt;Node5 -->
<g id="edge10" class="edge"><title>Node7&#45;&gt;Node5</title>
<path fill="none" stroke="midnightblue" d="M318.285,-105.833C379.864,-109.143 468.964,-113.934 534.194,-117.441"/>
<polygon fill="midnightblue" stroke="midnightblue" points="534.276,-120.95 544.45,-117.992 534.652,-113.96 534.276,-120.95"/>
</g>
<!-- Node9 -->
<g id="node9" class="node"><title>Node9</title>
<g id="a_node9"><a xlink:href="class_o_auth_request.html#ae544b1c10b82d5a82dcc259064763420" target="_top" xlink:title="util function: current nonce ">
<polygon fill="white" stroke="black" points="558.074,-51 558.074,-83 681.926,-83 681.926,-51 558.074,-51"/>
<text text-anchor="start" x="566.074" y="-69" font-family="Helvetica,sans-Serif" font-size="10.00">OAuthRequest\generate</text>
<text text-anchor="middle" x="620" y="-57" font-family="Helvetica,sans-Serif" font-size="10.00">_nonce</text>
</a>
</g>
</g>
<!-- Node8&#45;&gt;Node9 -->
<g id="edge8" class="edge"><title>Node8&#45;&gt;Node9</title>
<path fill="none" stroke="midnightblue" d="M508.06,-61.0674C521.145,-61.7671 534.703,-62.4921 547.658,-63.1849"/>
<polygon fill="midnightblue" stroke="midnightblue" points="547.726,-66.6935 557.899,-63.7325 548.1,-59.7035 547.726,-66.6935"/>
</g>
<!-- Node10 -->
<g id="node10" class="node"><title>Node10</title>
<g id="a_node10"><a xlink:href="class_o_auth_request.html#adfc6b936799f705d9a4442961a26e8cb" target="_top" xlink:title="util function: current timestamp ">
<polygon fill="white" stroke="black" points="558.074,-0 558.074,-32 681.926,-32 681.926,-0 558.074,-0"/>
<text text-anchor="start" x="566.074" y="-18" font-family="Helvetica,sans-Serif" font-size="10.00">OAuthRequest\generate</text>
<text text-anchor="middle" x="620" y="-6" font-family="Helvetica,sans-Serif" font-size="10.00">_timestamp</text>
</a>
</g>
</g>
<!-- Node8&#45;&gt;Node10 -->
<g id="edge9" class="edge"><title>Node8&#45;&gt;Node10</title>
<path fill="none" stroke="midnightblue" d="M505.103,-40.9722C519.198,-37.8817 533.944,-34.6487 547.972,-31.573"/>
<polygon fill="midnightblue" stroke="midnightblue" points="549.022,-34.9259 558.041,-29.3654 547.523,-28.0884 549.022,-34.9259"/>
</g>
</g>
</svg>
