<?xml version="1.0" encoding="UTF-8" standalone="no"?>
<!DOCTYPE svg PUBLIC "-//W3C//DTD SVG 1.1//EN"
 "http://www.w3.org/Graphics/SVG/1.1/DTD/svg11.dtd">
<!-- Generated by graphviz version 2.30.1 (20130221.2233)
 -->
<!-- Title: OAuthRequest\to_postdata Pages: 1 -->
<svg width="458pt" height="28pt"
 viewBox="0.00 0.00 458.00 28.00" xmlns="http://www.w3.org/2000/svg" xmlns:xlink="http://www.w3.org/1999/xlink">
<g id="graph0" class="graph" transform="scale(1 1) rotate(0) translate(4 24)">
<title>OAuthRequest\to_postdata</title>
<polygon fill="white" stroke="white" points="-4,5 -4,-24 455,-24 455,5 -4,5"/>
<!-- Node1 -->
<g id="node1" class="node"><title>Node1</title>
<polygon fill="#bfbfbf" stroke="black" points="0.680176,-0 0.680176,-20 137.32,-20 137.32,-0 0.680176,-0"/>
<text text-anchor="middle" x="69" y="-6" font-family="Helvetica,sans-Serif" font-size="10.00">OAuthRequest\to_postdata</text>
</g>
<!-- Node2 -->
<g id="node2" class="node"><title>Node2</title>
<g id="a_node2"><a xlink:href="class_o_auth_request.html#a4d27097917ad20e1958f1034eaa1702f" target="_top" xlink:title="builds a url usable for a GET request ">
<polygon fill="white" stroke="black" points="174.306,-0 174.306,-20 283.694,-20 283.694,-0 174.306,-0"/>
<text text-anchor="middle" x="229" y="-6" font-family="Helvetica,sans-Serif" font-size="10.00">OAuthRequest\to_url</text>
</a>
</g>
</g>
<!-- Node1&#45;&gt;Node2 -->
<g id="edge1" class="edge"><title>Node1&#45;&gt;Node2</title>
<path fill="none" stroke="midnightblue" d="M147.57,-10C156.552,-10 165.558,-10 174.124,-10"/>
<polygon fill="midnightblue" stroke="midnightblue" points="147.465,-6.5001 137.465,-10 147.464,-13.5001 147.465,-6.5001"/>
</g>
<!-- Node3 -->
<g id="node3" class="node"><title>Node3</title>
<g id="a_node3"><a xlink:href="class_o_auth_request.html#a28fea7b75af1500bad2d35f88e77c0dd" target="_top" xlink:title="OAuthRequest\\__toString">
<polygon fill="white" stroke="black" points="320.02,-0 320.02,-20 449.98,-20 449.98,-0 320.02,-0"/>
<text text-anchor="middle" x="385" y="-6" font-family="Helvetica,sans-Serif" font-size="10.00">OAuthRequest\__toString</text>
</a>
</g>
</g>
<!-- Node2&#45;&gt;Node3 -->
<g id="edge2" class="edge"><title>Node2&#45;&gt;Node3</title>
<path fill="none" stroke="midnightblue" d="M294.106,-10C302.616,-10 311.343,-10 319.854,-10"/>
<polygon fill="midnightblue" stroke="midnightblue" points="293.862,-6.5001 283.862,-10 293.862,-13.5001 293.862,-6.5001"/>
</g>
</g>
</svg>
