<?xml version="1.0" encoding="UTF-8" standalone="no"?>
<!DOCTYPE svg PUBLIC "-//W3C//DTD SVG 1.1//EN"
 "http://www.w3.org/Graphics/SVG/1.1/DTD/svg11.dtd">
<!-- Generated by graphviz version 2.30.1 (20130221.2233)
 -->
<!-- Title: JsonLoader\getAddContactsActivity Pages: 1 -->
<svg width="340pt" height="103pt"
 viewBox="0.00 0.00 340.00 103.00" xmlns="http://www.w3.org/2000/svg" xmlns:xlink="http://www.w3.org/1999/xlink">
<g id="graph0" class="graph" transform="scale(1 1) rotate(0) translate(4 99)">
<title>JsonLoader\getAddContactsActivity</title>
<polygon fill="white" stroke="white" points="-4,5 -4,-99 337,-99 337,5 -4,5"/>
<!-- Node1 -->
<g id="node1" class="node"><title>Node1</title>
<polygon fill="#bfbfbf" stroke="black" points="-0.0981445,-34 -0.0981445,-66 142.098,-66 142.098,-34 -0.0981445,-34"/>
<text text-anchor="start" x="7.90186" y="-52" font-family="Helvetica,sans-Serif" font-size="10.00">JsonLoader\getAddContacts</text>
<text text-anchor="middle" x="71" y="-40" font-family="Helvetica,sans-Serif" font-size="10.00">Activity</text>
</g>
<!-- Node2 -->
<g id="node2" class="node"><title>Node2</title>
<g id="a_node2"><a xlink:href="class_activity_service_unit_test.html#ab9c05cda931957287e59dd3c7e1a67fd" target="_top" xlink:title="ActivityServiceUnitTest\l\\testAddCreateContactsActivity">
<polygon fill="white" stroke="black" points="178.082,-63 178.082,-95 331.918,-95 331.918,-63 178.082,-63"/>
<text text-anchor="start" x="186.082" y="-81" font-family="Helvetica,sans-Serif" font-size="10.00">ActivityServiceUnitTest</text>
<text text-anchor="middle" x="255" y="-69" font-family="Helvetica,sans-Serif" font-size="10.00">\testAddCreateContactsActivity</text>
</a>
</g>
</g>
<!-- Node1&#45;&gt;Node2 -->
<g id="edge1" class="edge"><title>Node1&#45;&gt;Node2</title>
<path fill="none" stroke="midnightblue" d="M152.088,-62.7613C160.659,-64.127 169.361,-65.5136 177.884,-66.8716"/>
<polygon fill="midnightblue" stroke="midnightblue" points="152.532,-59.2879 142.106,-61.1707 151.43,-66.2007 152.532,-59.2879"/>
</g>
<!-- Node3 -->
<g id="node3" class="node"><title>Node3</title>
<g id="a_node3"><a xlink:href="class_activity_service_unit_test.html#a86b77e0acbb7c271d0784686c0070a99" target="_top" xlink:title="ActivityServiceUnitTest\l\\testAddCreateContactsActivity\lFromFile">
<polygon fill="white" stroke="black" points="178.082,-0 178.082,-44 331.918,-44 331.918,-0 178.082,-0"/>
<text text-anchor="start" x="186.082" y="-30" font-family="Helvetica,sans-Serif" font-size="10.00">ActivityServiceUnitTest</text>
<text text-anchor="start" x="186.082" y="-18" font-family="Helvetica,sans-Serif" font-size="10.00">\testAddCreateContactsActivity</text>
<text text-anchor="middle" x="255" y="-6" font-family="Helvetica,sans-Serif" font-size="10.00">FromFile</text>
</a>
</g>
</g>
<!-- Node1&#45;&gt;Node3 -->
<g id="edge2" class="edge"><title>Node1&#45;&gt;Node3</title>
<path fill="none" stroke="midnightblue" d="M152.088,-37.6787C160.659,-36.3601 169.361,-35.0214 177.884,-33.7101"/>
<polygon fill="midnightblue" stroke="midnightblue" points="151.457,-34.2346 142.106,-39.2145 152.522,-41.1532 151.457,-34.2346"/>
</g>
</g>
</svg>
