<?xml version="1.0" encoding="UTF-8" standalone="no"?>
<!DOCTYPE svg PUBLIC "-//W3C//DTD SVG 1.1//EN"
 "http://www.w3.org/Graphics/SVG/1.1/DTD/svg11.dtd">
<!-- Generated by graphviz version 2.30.1 (20130221.2233)
 -->
<!-- Title: JsonLoader\getContactsModifiedSinceJson Pages: 1 -->
<svg width="360pt" height="40pt"
 viewBox="0.00 0.00 360.00 40.00" xmlns="http://www.w3.org/2000/svg" xmlns:xlink="http://www.w3.org/1999/xlink">
<g id="graph0" class="graph" transform="scale(1 1) rotate(0) translate(4 36)">
<title>JsonLoader\getContactsModifiedSinceJson</title>
<polygon fill="white" stroke="white" points="-4,5 -4,-36 357,-36 357,5 -4,5"/>
<!-- Node1 -->
<g id="node1" class="node"><title>Node1</title>
<polygon fill="#bfbfbf" stroke="black" points="-0.100586,-0 -0.100586,-32 162.101,-32 162.101,-0 -0.100586,-0"/>
<text text-anchor="start" x="7.89941" y="-18" font-family="Helvetica,sans-Serif" font-size="10.00">JsonLoader\getContactsModified</text>
<text text-anchor="middle" x="81" y="-6" font-family="Helvetica,sans-Serif" font-size="10.00">SinceJson</text>
</g>
<!-- Node2 -->
<g id="node2" class="node"><title>Node2</title>
<g id="a_node2"><a xlink:href="class_contact_service_unit_test.html#ace29789079f691585d9176025ebbeccc" target="_top" xlink:title="ContactServiceUnitTest\l\\testGetContactsModifiedSince">
<polygon fill="white" stroke="black" points="198.355,-0 198.355,-32 351.645,-32 351.645,-0 198.355,-0"/>
<text text-anchor="start" x="206.355" y="-18" font-family="Helvetica,sans-Serif" font-size="10.00">ContactServiceUnitTest</text>
<text text-anchor="middle" x="275" y="-6" font-family="Helvetica,sans-Serif" font-size="10.00">\testGetContactsModifiedSince</text>
</a>
</g>
</g>
<!-- Node1&#45;&gt;Node2 -->
<g id="edge1" class="edge"><title>Node1&#45;&gt;Node2</title>
<path fill="none" stroke="midnightblue" d="M172.432,-16C181.091,-16 189.809,-16 198.306,-16"/>
<polygon fill="midnightblue" stroke="midnightblue" points="172.313,-12.5001 162.313,-16 172.313,-19.5001 172.313,-12.5001"/>
</g>
</g>
</svg>
