<?xml version="1.0" encoding="UTF-8" standalone="no"?>
<!DOCTYPE svg PUBLIC "-//W3C//DTD SVG 1.1//EN"
 "http://www.w3.org/Graphics/SVG/1.1/DTD/svg11.dtd">
<!-- Generated by graphviz version 2.30.1 (20130221.2233)
 -->
<!-- Title: Registrant\createStruct Pages: 1 -->
<svg width="306pt" height="169pt"
 viewBox="0.00 0.00 306.00 169.00" xmlns="http://www.w3.org/2000/svg" xmlns:xlink="http://www.w3.org/1999/xlink">
<g id="graph0" class="graph" transform="scale(1 1) rotate(0) translate(4 165)">
<title>Registrant\createStruct</title>
<polygon fill="white" stroke="white" points="-4,5 -4,-165 303,-165 303,5 -4,5"/>
<!-- Node1 -->
<g id="node1" class="node"><title>Node1</title>
<polygon fill="#bfbfbf" stroke="black" points="-0.132812,-79 -0.132812,-99 118.133,-99 118.133,-79 -0.132812,-79"/>
<text text-anchor="middle" x="59" y="-85" font-family="Helvetica,sans-Serif" font-size="10.00">Registrant\createStruct</text>
</g>
<!-- Node2 -->
<g id="node2" class="node"><title>Node2</title>
<g id="a_node2"><a xlink:href="class_custom_field.html#a4e25506f8bdd629223fcf0ef94b508c0" target="_top" xlink:title="Create CustomField object from XML. ">
<polygon fill="white" stroke="black" points="154.375,-141 154.375,-161 297.625,-161 297.625,-141 154.375,-141"/>
<text text-anchor="middle" x="226" y="-147" font-family="Helvetica,sans-Serif" font-size="10.00">CustomField\createFromXml</text>
</a>
</g>
</g>
<!-- Node1&#45;&gt;Node2 -->
<g id="edge1" class="edge"><title>Node1&#45;&gt;Node2</title>
<path fill="none" stroke="midnightblue" d="M80.1849,-99.0496C98.985,-108.161 127.95,-121.568 154,-131 160.871,-133.488 168.206,-135.86 175.458,-138.045"/>
<polygon fill="midnightblue" stroke="midnightblue" points="174.663,-141.459 185.243,-140.901 176.624,-134.739 174.663,-141.459"/>
</g>
<!-- Node3 -->
<g id="node3" class="node"><title>Node3</title>
<g id="a_node3"><a xlink:href="class_cost.html#ace3bfdbf89c0bd466208d0ea5f2e62f1" target="_top" xlink:title="Create associative array of object properties. ">
<polygon fill="white" stroke="black" points="179.375,-102 179.375,-122 272.625,-122 272.625,-102 179.375,-102"/>
<text text-anchor="middle" x="226" y="-108" font-family="Helvetica,sans-Serif" font-size="10.00">Cost\createStruct</text>
</a>
</g>
</g>
<!-- Node1&#45;&gt;Node3 -->
<g id="edge2" class="edge"><title>Node1&#45;&gt;Node3</title>
<path fill="none" stroke="midnightblue" d="M118.173,-97.1089C134.769,-99.4224 152.808,-101.937 169.256,-104.23"/>
<polygon fill="midnightblue" stroke="midnightblue" points="168.877,-107.711 179.264,-105.625 169.843,-100.778 168.877,-107.711"/>
</g>
<!-- Node4 -->
<g id="node4" class="node"><title>Node4</title>
<g id="a_node4"><a xlink:href="class_personal_information.html#a459c575ff93d4a7f0662baa439a454d0" target="_top" xlink:title="Create array from associative array of object properties. ">
<polygon fill="white" stroke="black" points="173.254,-51 173.254,-83 278.746,-83 278.746,-51 173.254,-51"/>
<text text-anchor="start" x="181.254" y="-69" font-family="Helvetica,sans-Serif" font-size="10.00">PersonalInformation</text>
<text text-anchor="middle" x="226" y="-57" font-family="Helvetica,sans-Serif" font-size="10.00">\createStruct</text>
</a>
</g>
</g>
<!-- Node1&#45;&gt;Node4 -->
<g id="edge3" class="edge"><title>Node1&#45;&gt;Node4</title>
<path fill="none" stroke="midnightblue" d="M118.173,-81.2436C132.722,-79.3037 148.38,-77.216 163.103,-75.2529"/>
<polygon fill="midnightblue" stroke="midnightblue" points="163.671,-78.7082 173.121,-73.9172 162.746,-71.7696 163.671,-78.7082"/>
</g>
<!-- Node5 -->
<g id="node5" class="node"><title>Node5</title>
<g id="a_node5"><a xlink:href="class_business_information.html#ac7e97ef553fa2189bd85dce10999c58e" target="_top" xlink:title="Create an associative array of object properties from XML. ">
<polygon fill="white" stroke="black" points="172.7,-0 172.7,-32 279.3,-32 279.3,-0 172.7,-0"/>
<text text-anchor="start" x="180.7" y="-18" font-family="Helvetica,sans-Serif" font-size="10.00">BusinessInformation</text>
<text text-anchor="middle" x="226" y="-6" font-family="Helvetica,sans-Serif" font-size="10.00">\createStruct</text>
</a>
</g>
</g>
<!-- Node1&#45;&gt;Node5 -->
<g id="edge4" class="edge"><title>Node1&#45;&gt;Node5</title>
<path fill="none" stroke="midnightblue" d="M78.7868,-78.8204C97.553,-68.8402 127.363,-53.4931 154,-42 158.972,-39.8548 164.185,-37.7259 169.432,-35.6637"/>
<polygon fill="midnightblue" stroke="midnightblue" points="170.792,-38.8906 178.87,-32.0347 168.28,-32.357 170.792,-38.8906"/>
</g>
</g>
</svg>
