<?xml version="1.0" encoding="UTF-8" standalone="no"?>
<!DOCTYPE svg PUBLIC "-//W3C//DTD SVG 1.1//EN"
 "http://www.w3.org/Graphics/SVG/1.1/DTD/svg11.dtd">
<!-- Generated by graphviz version 2.30.1 (20130221.2233)
 -->
<!-- Title: CTCT_Process_Form\process Pages: 1 -->
<svg width="552pt" height="214pt"
 viewBox="0.00 0.00 552.00 214.00" xmlns="http://www.w3.org/2000/svg" xmlns:xlink="http://www.w3.org/1999/xlink">
<g id="graph0" class="graph" transform="scale(1 1) rotate(0) translate(4 210)">
<title>CTCT_Process_Form\process</title>
<polygon fill="white" stroke="white" points="-4,5 -4,-210 549,-210 549,5 -4,5"/>
<!-- Node1 -->
<g id="node1" class="node"><title>Node1</title>
<polygon fill="#bfbfbf" stroke="black" points="0.485352,-115 0.485352,-135 151.515,-135 151.515,-115 0.485352,-115"/>
<text text-anchor="middle" x="76" y="-121" font-family="Helvetica,sans-Serif" font-size="10.00">CTCT_Process_Form\process</text>
</g>
<!-- Node2 -->
<g id="node2" class="node"><title>Node2</title>
<g id="a_node2"><a xlink:href="class_k_w_s_constant_contact.html#a8727c849d70591f321408b5bc01d5321" target="_top" xlink:title="Get access to instance or create one. ">
<polygon fill="white" stroke="black" points="216.367,-174 216.367,-206 329.633,-206 329.633,-174 216.367,-174"/>
<text text-anchor="start" x="224.367" y="-192" font-family="Helvetica,sans-Serif" font-size="10.00">KWSConstantContact</text>
<text text-anchor="middle" x="273" y="-180" font-family="Helvetica,sans-Serif" font-size="10.00">\getInstance</text>
</a>
</g>
</g>
<!-- Node1&#45;&gt;Node2 -->
<g id="edge1" class="edge"><title>Node1&#45;&gt;Node2</title>
<path fill="none" stroke="midnightblue" d="M104.727,-135.068C127.122,-143.121 159.489,-154.583 188,-164 194.876,-166.271 202.089,-168.594 209.276,-170.87"/>
<polygon fill="midnightblue" stroke="midnightblue" points="208.439,-174.276 219.028,-173.937 210.539,-167.598 208.439,-174.276"/>
</g>
<!-- Node3 -->
<g id="node3" class="node"><title>Node3</title>
<g id="a_node3"><a xlink:href="class_c_t_c_t___process___form.html#a67c53f4d0d95bd3f3a2e8ed285218677" target="_top" xlink:title="Sanitize the post data array before working with it. ">
<polygon fill="white" stroke="black" points="188.035,-135 188.035,-155 357.965,-155 357.965,-135 188.035,-135"/>
<text text-anchor="middle" x="273" y="-141" font-family="Helvetica,sans-Serif" font-size="10.00">CTCT_Process_Form\sanitizePost</text>
</a>
</g>
</g>
<!-- Node1&#45;&gt;Node3 -->
<g id="edge2" class="edge"><title>Node1&#45;&gt;Node3</title>
<path fill="none" stroke="midnightblue" d="M151.556,-132.647C160.056,-133.519 168.804,-134.416 177.519,-135.31"/>
<polygon fill="midnightblue" stroke="midnightblue" points="177.413,-138.817 187.718,-136.356 178.128,-131.854 177.413,-138.817"/>
</g>
<!-- Node4 -->
<g id="node4" class="node"><title>Node4</title>
<g id="a_node4"><a xlink:href="class_c_t_c_t___process___form.html#a252d206a32ffa566d28ae95d24e2ca75" target="_top" xlink:title="Add key/value pair to results output. ">
<polygon fill="white" stroke="black" points="191.65,-96 191.65,-116 354.35,-116 354.35,-96 191.65,-96"/>
<text text-anchor="middle" x="273" y="-102" font-family="Helvetica,sans-Serif" font-size="10.00">CTCT_Process_Form\setResults</text>
</a>
</g>
</g>
<!-- Node1&#45;&gt;Node4 -->
<g id="edge3" class="edge"><title>Node1&#45;&gt;Node4</title>
<path fill="none" stroke="midnightblue" d="M151.556,-117.736C161.394,-116.777 171.562,-115.786 181.628,-114.805"/>
<polygon fill="midnightblue" stroke="midnightblue" points="182.032,-118.283 191.645,-113.829 181.353,-111.316 182.032,-118.283"/>
</g>
<!-- Node5 -->
<g id="node5" class="node"><title>Node5</title>
<g id="a_node5"><a xlink:href="class_c_t_c_t___process___form.html#aaafc23302889bc63c66db53deeb8aef3" target="_top" xlink:title="Validate email based on user settings. ">
<polygon fill="white" stroke="black" points="197.759,-45 197.759,-77 348.241,-77 348.241,-45 197.759,-45"/>
<text text-anchor="start" x="205.759" y="-63" font-family="Helvetica,sans-Serif" font-size="10.00">CTCT_Process_Form\validate</text>
<text text-anchor="middle" x="273" y="-51" font-family="Helvetica,sans-Serif" font-size="10.00">Email</text>
</a>
</g>
</g>
<!-- Node1&#45;&gt;Node5 -->
<g id="edge4" class="edge"><title>Node1&#45;&gt;Node5</title>
<path fill="none" stroke="midnightblue" d="M105.67,-114.924C128.037,-107.126 159.918,-96.1505 188,-87 194.885,-84.7564 202.103,-82.4514 209.294,-80.185"/>
<polygon fill="midnightblue" stroke="midnightblue" points="210.554,-83.4582 219.049,-77.1277 208.46,-76.7786 210.554,-83.4582"/>
</g>
<!-- Node6 -->
<g id="node6" class="node"><title>Node6</title>
<g id="a_node6"><a xlink:href="class_k_w_s_contact.html#abc7dd1ab0ce9b4e227e2308ba47732c0" target="_top" xlink:title="KWSContact\\get">
<polygon fill="white" stroke="black" points="424.04,-90 424.04,-110 513.96,-110 513.96,-90 424.04,-90"/>
<text text-anchor="middle" x="469" y="-96" font-family="Helvetica,sans-Serif" font-size="10.00">KWSContact\get</text>
</a>
</g>
</g>
<!-- Node5&#45;&gt;Node6 -->
<g id="edge5" class="edge"><title>Node5&#45;&gt;Node6</title>
<path fill="none" stroke="midnightblue" d="M348.451,-75.9669C370.206,-80.3404 393.564,-85.036 413.809,-89.106"/>
<polygon fill="midnightblue" stroke="midnightblue" points="413.288,-92.571 423.781,-91.1107 414.667,-85.7083 413.288,-92.571"/>
</g>
<!-- Node7 -->
<g id="node7" class="node"><title>Node7</title>
<g id="a_node7"><a xlink:href="class_c_t_c_t___settings.html#ae3c076753f9e642d69924227641b75e7" target="_top" xlink:title="Alias for get_setting() &#160;CTCT_Settings::get_setting() ">
<polygon fill="white" stroke="black" points="418.483,-51 418.483,-71 519.517,-71 519.517,-51 418.483,-51"/>
<text text-anchor="middle" x="469" y="-57" font-family="Helvetica,sans-Serif" font-size="10.00">CTCT_Settings\get</text>
</a>
</g>
</g>
<!-- Node5&#45;&gt;Node7 -->
<g id="edge6" class="edge"><title>Node5&#45;&gt;Node7</title>
<path fill="none" stroke="midnightblue" d="M348.451,-61C368.195,-61 389.259,-61 408.119,-61"/>
<polygon fill="midnightblue" stroke="midnightblue" points="408.347,-64.5001 418.347,-61 408.347,-57.5001 408.347,-64.5001"/>
</g>
<!-- Node8 -->
<g id="node8" class="node"><title>Node8</title>
<g id="a_node8"><a xlink:href="class_c_t_c_t___process___form.html#a726bf81a5ba9dbd266831fa6a65fbd8c" target="_top" xlink:title="Verify the $_POST using Akismet. ">
<polygon fill="white" stroke="black" points="393.766,-0 393.766,-32 544.234,-32 544.234,-0 393.766,-0"/>
<text text-anchor="start" x="401.766" y="-18" font-family="Helvetica,sans-Serif" font-size="10.00">CTCT_Process_Form\akismet</text>
<text text-anchor="middle" x="469" y="-6" font-family="Helvetica,sans-Serif" font-size="10.00">Check</text>
</a>
</g>
</g>
<!-- Node5&#45;&gt;Node8 -->
<g id="edge7" class="edge"><title>Node5&#45;&gt;Node8</title>
<path fill="none" stroke="midnightblue" d="M343.217,-44.9445C358.035,-41.5074 373.797,-37.8512 388.953,-34.3355"/>
<polygon fill="midnightblue" stroke="midnightblue" points="389.859,-37.7184 398.81,-32.0493 388.278,-30.8994 389.859,-37.7184"/>
</g>
</g>
</svg>
