<?xml version="1.0" encoding="UTF-8" standalone="no"?>
<!DOCTYPE svg PUBLIC "-//W3C//DTD SVG 1.1//EN"
 "http://www.w3.org/Graphics/SVG/1.1/DTD/svg11.dtd">
<!-- Generated by graphviz version 2.30.1 (20130221.2233)
 -->
<!-- Title: Ctct\Components\Contacts\ContactList\create Pages: 1 -->
<!--zoomable 448 -->
<svg id="main" version="1.1" xmlns="http://www.w3.org/2000/svg" xmlns:xlink="http://www.w3.org/1999/xlink" xml:space="preserve" onload="init(evt)">
<style type="text/css"><![CDATA[
.edge:hover path { stroke: red; }
.edge:hover polygon { stroke: red; fill: red; }
]]></style>
<script type="text/javascript"><![CDATA[
var edges = document.getElementsByTagName('g');
if (edges && edges.length) {
  for (var i=0;i<edges.length;i++) {
    if (edges[i].id.substr(0,4)=='edge') {
      edges[i].setAttribute('class','edge');
    }
  }
}
]]></script>
        <defs>
                <circle id="rim" cx="0" cy="0" r="7"/>
                <circle id="rim2" cx="0" cy="0" r="3.5"/>
                <g id="zoomPlus">
                        <use xlink:href="#rim" fill="#404040">
                                <set attributeName="fill" to="#808080" begin="zoomplus.mouseover" end="zoomplus.mouseout"/>
                        </use>
                        <path d="M-4,0h8M0,-4v8" fill="none" stroke="white" stroke-width="1.5" pointer-events="none"/>
                </g>
                <g id="zoomMin">
                        <use xlink:href="#rim" fill="#404040">
                                <set attributeName="fill" to="#808080" begin="zoomminus.mouseover" end="zoomminus.mouseout"/>
                        </use>
                        <path d="M-4,0h8" fill="none" stroke="white" stroke-width="1.5" pointer-events="none"/>
                </g>
                <g id="dirArrow">
                        <path fill="none" stroke="white" stroke-width="1.5" d="M0,-3.0v7 M-2.5,-0.5L0,-3.0L2.5,-0.5"/>
                </g>
               <g id="resetDef">
                       <use xlink:href="#rim2" fill="#404040">
                               <set attributeName="fill" to="#808080" begin="reset.mouseover" end="reset.mouseout"/>
                       </use>
               </g>
        </defs>

<script type="text/javascript">
var viewWidth = 530;
var viewHeight = 448;
var sectionId = 'dynsection-2';
</script>
<script xlink:href="svgpan.js"/>
<svg id="graph" class="graph">
<g id="viewport">
<title>Ctct\Components\Contacts\ContactList\create</title>
<polygon fill="white" stroke="white" points="-4,5 -4,-444 527,-444 527,5 -4,5"/>
<!-- Node1 -->
<g id="node1" class="node"><title>Node1</title>
<polygon fill="#bfbfbf" stroke="black" points="0.251465,-127 0.251465,-159 135.749,-159 135.749,-127 0.251465,-127"/>
<text text-anchor="start" x="8.25146" y="-145" font-family="Helvetica,sans-Serif" font-size="10.00">Ctct\Components\Contacts</text>
<text text-anchor="middle" x="68" y="-133" font-family="Helvetica,sans-Serif" font-size="10.00">\ContactList\create</text>
</g>
<!-- Node2 -->
<g id="node2" class="node"><title>Node2</title>
<g id="a_node2"><a xlink:href="class_ctct_1_1_services_1_1_list_service.html#a8b218a1852399f8cdc31d7591de001ce" target="_top" xlink:title="Create a new Contact List. ">
<polygon fill="white" stroke="black" points="191.707,-306 191.707,-338 318.293,-338 318.293,-306 191.707,-306"/>
<text text-anchor="start" x="199.707" y="-324" font-family="Helvetica,sans-Serif" font-size="10.00">Ctct\Services\ListService</text>
<text text-anchor="middle" x="255" y="-312" font-family="Helvetica,sans-Serif" font-size="10.00">\addList</text>
</a>
</g>
</g>
<!-- Node1&#45;&gt;Node2 -->
<g id="edge1" class="edge"><title>Node1&#45;&gt;Node2</title>
<path fill="none" stroke="midnightblue" d="M79.5226,-168.261C94.9147,-202.187 126.74,-262.114 172,-296 177.858,-300.386 184.478,-304.045 191.353,-307.096"/>
<polygon fill="midnightblue" stroke="midnightblue" points="82.6864,-166.761 75.4477,-159.024 76.282,-169.586 82.6864,-166.761"/>
</g>
<!-- Node3 -->
<g id="node3" class="node"><title>Node3</title>
<g id="a_node3"><a xlink:href="class_ctct_1_1_components_1_1_contacts_1_1_contact.html#aea94ae08d0308ccb24c030bd9d96e368" target="_top" xlink:title="Factory method to create a Contact object from an array. ">
<polygon fill="white" stroke="black" points="187.251,-255 187.251,-287 322.749,-287 322.749,-255 187.251,-255"/>
<text text-anchor="start" x="195.251" y="-273" font-family="Helvetica,sans-Serif" font-size="10.00">Ctct\Components\Contacts</text>
<text text-anchor="middle" x="255" y="-261" font-family="Helvetica,sans-Serif" font-size="10.00">\Contact\create</text>
</a>
</g>
</g>
<!-- Node1&#45;&gt;Node3 -->
<g id="edge2" class="edge"><title>Node1&#45;&gt;Node3</title>
<path fill="none" stroke="midnightblue" d="M100.851,-165.038C137.826,-190.62 197.92,-232.199 230.76,-254.92"/>
<polygon fill="midnightblue" stroke="midnightblue" points="102.645,-162.023 92.4304,-159.211 98.6625,-167.779 102.645,-162.023"/>
</g>
<!-- Node9 -->
<g id="node9" class="node"><title>Node9</title>
<g id="a_node9"><a xlink:href="class_ctct_1_1_components_1_1_email_marketing_1_1_campaign.html#afbeef4aaccb7fd7be77f5e497e0fbc5f" target="_top" xlink:title="Factory method to create a Campaign object from an array. ">
<polygon fill="white" stroke="black" points="172.527,-153 172.527,-185 337.473,-185 337.473,-153 172.527,-153"/>
<text text-anchor="start" x="180.527" y="-171" font-family="Helvetica,sans-Serif" font-size="10.00">Ctct\Components\EmailMarketing</text>
<text text-anchor="middle" x="255" y="-159" font-family="Helvetica,sans-Serif" font-size="10.00">\Campaign\create</text>
</a>
</g>
</g>
<!-- Node1&#45;&gt;Node9 -->
<g id="edge8" class="edge"><title>Node1&#45;&gt;Node9</title>
<path fill="none" stroke="midnightblue" d="M145.959,-153.816C154.713,-155.046 163.658,-156.303 172.469,-157.542"/>
<polygon fill="midnightblue" stroke="midnightblue" points="146.179,-150.312 135.789,-152.387 145.205,-157.244 146.179,-150.312"/>
</g>
<!-- Node13 -->
<g id="node13" class="node"><title>Node13</title>
<g id="a_node13"><a xlink:href="class_ctct_1_1_services_1_1_list_service.html#af8c9fa4bf45b4d905c86269b127b9636" target="_top" xlink:title="Get an individual contact list. ">
<polygon fill="white" stroke="black" points="191.707,-102 191.707,-134 318.293,-134 318.293,-102 191.707,-102"/>
<text text-anchor="start" x="199.707" y="-120" font-family="Helvetica,sans-Serif" font-size="10.00">Ctct\Services\ListService</text>
<text text-anchor="middle" x="255" y="-108" font-family="Helvetica,sans-Serif" font-size="10.00">\getList</text>
</a>
</g>
</g>
<!-- Node1&#45;&gt;Node13 -->
<g id="edge12" class="edge"><title>Node1&#45;&gt;Node13</title>
<path fill="none" stroke="midnightblue" d="M145.73,-132.631C161.016,-130.565 176.893,-128.42 191.625,-126.429"/>
<polygon fill="midnightblue" stroke="midnightblue" points="145.23,-129.167 135.789,-133.974 146.168,-136.104 145.23,-129.167"/>
</g>
<!-- Node14 -->
<g id="node14" class="node"><title>Node14</title>
<g id="a_node14"><a xlink:href="class_ctct_1_1_services_1_1_list_service.html#a1fe05e8a8efe4d3547e4d1855c94165c" target="_top" xlink:title="Get lists within an account. ">
<polygon fill="white" stroke="black" points="191.707,-51 191.707,-83 318.293,-83 318.293,-51 191.707,-51"/>
<text text-anchor="start" x="199.707" y="-69" font-family="Helvetica,sans-Serif" font-size="10.00">Ctct\Services\ListService</text>
<text text-anchor="middle" x="255" y="-57" font-family="Helvetica,sans-Serif" font-size="10.00">\getLists</text>
</a>
</g>
</g>
<!-- Node1&#45;&gt;Node14 -->
<g id="edge13" class="edge"><title>Node1&#45;&gt;Node14</title>
<path fill="none" stroke="midnightblue" d="M108.077,-122.374C127.077,-112.776 150.421,-101.606 172,-93 180.739,-89.5146 190.143,-86.17 199.356,-83.1081"/>
<polygon fill="midnightblue" stroke="midnightblue" points="106.443,-119.279 99.1261,-126.942 109.624,-125.514 106.443,-119.279"/>
</g>
<!-- Node15 -->
<g id="node15" class="node"><title>Node15</title>
<g id="a_node15"><a xlink:href="class_ctct_1_1_services_1_1_list_service.html#a4b423630bee711b97d0f6ca13c4e7036" target="_top" xlink:title="Update a Contact List. ">
<polygon fill="white" stroke="black" points="191.707,-0 191.707,-32 318.293,-32 318.293,-0 191.707,-0"/>
<text text-anchor="start" x="199.707" y="-18" font-family="Helvetica,sans-Serif" font-size="10.00">Ctct\Services\ListService</text>
<text text-anchor="middle" x="255" y="-6" font-family="Helvetica,sans-Serif" font-size="10.00">\updateList</text>
</a>
</g>
</g>
<!-- Node1&#45;&gt;Node15 -->
<g id="edge14" class="edge"><title>Node1&#45;&gt;Node15</title>
<path fill="none" stroke="midnightblue" d="M87.526,-118.795C106.416,-95.6889 137.744,-61.4515 172,-41 178.006,-37.4143 184.571,-34.3025 191.286,-31.6115"/>
<polygon fill="midnightblue" stroke="midnightblue" points="84.6675,-116.765 81.147,-126.758 90.1307,-121.142 84.6675,-116.765"/>
</g>
<!-- Node4 -->
<g id="node4" class="node"><title>Node4</title>
<g id="a_node4"><a xlink:href="class_ctct_1_1_services_1_1_contact_service.html#a68b82b5578a6115f979c2b79dcd91dff" target="_top" xlink:title="Add a new contact to the Constant Contact account. ">
<polygon fill="white" stroke="black" points="375.256,-408 375.256,-440 520.744,-440 520.744,-408 375.256,-408"/>
<text text-anchor="start" x="383.256" y="-426" font-family="Helvetica,sans-Serif" font-size="10.00">Ctct\Services\ContactService</text>
<text text-anchor="middle" x="448" y="-414" font-family="Helvetica,sans-Serif" font-size="10.00">\addContact</text>
</a>
</g>
</g>
<!-- Node3&#45;&gt;Node4 -->
<g id="edge3" class="edge"><title>Node3&#45;&gt;Node4</title>
<path fill="none" stroke="midnightblue" d="M331.848,-291.808C334.013,-293.412 336.073,-295.14 338,-297 372.288,-330.096 340.299,-364.307 374,-398 377.806,-401.805 382.204,-405.055 386.918,-407.832"/>
<polygon fill="midnightblue" stroke="midnightblue" points="333.359,-288.622 323.042,-286.214 329.606,-294.531 333.359,-288.622"/>
</g>
<!-- Node5 -->
<g id="node5" class="node"><title>Node5</title>
<g id="a_node5"><a xlink:href="class_ctct_1_1_services_1_1_contact_service.html#af87e0abcdfa3fe993a8772f7b68918c6" target="_top" xlink:title="Get contact details for a specific contact. ">
<polygon fill="white" stroke="black" points="375.256,-357 375.256,-389 520.744,-389 520.744,-357 375.256,-357"/>
<text text-anchor="start" x="383.256" y="-375" font-family="Helvetica,sans-Serif" font-size="10.00">Ctct\Services\ContactService</text>
<text text-anchor="middle" x="448" y="-363" font-family="Helvetica,sans-Serif" font-size="10.00">\getContact</text>
</a>
</g>
</g>
<!-- Node3&#45;&gt;Node5 -->
<g id="edge4" class="edge"><title>Node3&#45;&gt;Node5</title>
<path fill="none" stroke="midnightblue" d="M329.618,-291.626C332.53,-293.284 335.339,-295.073 338,-297 360.176,-313.064 352.109,-330.549 374,-347 379.055,-350.799 384.714,-354.079 390.586,-356.903"/>
<polygon fill="midnightblue" stroke="midnightblue" points="331.115,-288.46 320.617,-287.029 327.931,-294.694 331.115,-288.46"/>
</g>
<!-- Node6 -->
<g id="node6" class="node"><title>Node6</title>
<g id="a_node6"><a xlink:href="class_ctct_1_1_services_1_1_contact_service.html#a6eb2fce4ca499982ef5a592d15e7ee23" target="_top" xlink:title="Get a ResultSet of contacts. ">
<polygon fill="white" stroke="black" points="375.256,-306 375.256,-338 520.744,-338 520.744,-306 375.256,-306"/>
<text text-anchor="start" x="383.256" y="-324" font-family="Helvetica,sans-Serif" font-size="10.00">Ctct\Services\ContactService</text>
<text text-anchor="middle" x="448" y="-312" font-family="Helvetica,sans-Serif" font-size="10.00">\getContacts</text>
</a>
</g>
</g>
<!-- Node3&#45;&gt;Node6 -->
<g id="edge5" class="edge"><title>Node3&#45;&gt;Node6</title>
<path fill="none" stroke="midnightblue" d="M325.839,-289.648C345.831,-294.986 367.443,-300.757 386.803,-305.926"/>
<polygon fill="midnightblue" stroke="midnightblue" points="326.736,-286.265 316.171,-287.067 324.93,-293.028 326.736,-286.265"/>
</g>
<!-- Node7 -->
<g id="node7" class="node"><title>Node7</title>
<g id="a_node7"><a xlink:href="class_ctct_1_1_services_1_1_list_service.html#a1888616e27971787a3e03ed3b655c249" target="_top" xlink:title="Get all contacts from an individual list. ">
<polygon fill="white" stroke="black" points="384.707,-255 384.707,-287 511.293,-287 511.293,-255 384.707,-255"/>
<text text-anchor="start" x="392.707" y="-273" font-family="Helvetica,sans-Serif" font-size="10.00">Ctct\Services\ListService</text>
<text text-anchor="middle" x="448" y="-261" font-family="Helvetica,sans-Serif" font-size="10.00">\getContactsFromList</text>
</a>
</g>
</g>
<!-- Node3&#45;&gt;Node7 -->
<g id="edge6" class="edge"><title>Node3&#45;&gt;Node7</title>
<path fill="none" stroke="midnightblue" d="M333.264,-271C350.264,-271 368.064,-271 384.402,-271"/>
<polygon fill="midnightblue" stroke="midnightblue" points="332.803,-267.5 322.803,-271 332.802,-274.5 332.803,-267.5"/>
</g>
<!-- Node8 -->
<g id="node8" class="node"><title>Node8</title>
<g id="a_node8"><a xlink:href="class_ctct_1_1_services_1_1_contact_service.html#a56d41dfd1397fd74e40ba0944637afb8" target="_top" xlink:title="Update contact details for a specific contact. ">
<polygon fill="white" stroke="black" points="375.256,-204 375.256,-236 520.744,-236 520.744,-204 375.256,-204"/>
<text text-anchor="start" x="383.256" y="-222" font-family="Helvetica,sans-Serif" font-size="10.00">Ctct\Services\ContactService</text>
<text text-anchor="middle" x="448" y="-210" font-family="Helvetica,sans-Serif" font-size="10.00">\updateContact</text>
</a>
</g>
</g>
<!-- Node3&#45;&gt;Node8 -->
<g id="edge7" class="edge"><title>Node3&#45;&gt;Node8</title>
<path fill="none" stroke="midnightblue" d="M325.839,-252.352C345.831,-247.014 367.443,-241.243 386.803,-236.074"/>
<polygon fill="midnightblue" stroke="midnightblue" points="324.93,-248.972 316.171,-254.933 326.736,-255.735 324.93,-248.972"/>
</g>
<!-- Node10 -->
<g id="node10" class="node"><title>Node10</title>
<g id="a_node10"><a xlink:href="class_ctct_1_1_services_1_1_email_marketing_service.html#ad7b4f264aecfd32a1a23db8446e55c4e" target="_top" xlink:title="Create a new campaign. ">
<polygon fill="white" stroke="black" points="374.705,-153 374.705,-185 521.295,-185 521.295,-153 374.705,-153"/>
<text text-anchor="start" x="382.705" y="-171" font-family="Helvetica,sans-Serif" font-size="10.00">Ctct\Services\EmailMarketing</text>
<text text-anchor="middle" x="448" y="-159" font-family="Helvetica,sans-Serif" font-size="10.00">Service\addCampaign</text>
</a>
</g>
</g>
<!-- Node9&#45;&gt;Node10 -->
<g id="edge9" class="edge"><title>Node9&#45;&gt;Node10</title>
<path fill="none" stroke="midnightblue" d="M347.673,-169C356.666,-169 365.704,-169 374.469,-169"/>
<polygon fill="midnightblue" stroke="midnightblue" points="347.555,-165.5 337.555,-169 347.555,-172.5 347.555,-165.5"/>
</g>
<!-- Node11 -->
<g id="node11" class="node"><title>Node11</title>
<g id="a_node11"><a xlink:href="class_ctct_1_1_services_1_1_email_marketing_service.html#a74b2cfd1e2b3c26f5c9d1be841f8d1b8" target="_top" xlink:title="Get campaign details for a specific campaign. ">
<polygon fill="white" stroke="black" points="374.705,-102 374.705,-134 521.295,-134 521.295,-102 374.705,-102"/>
<text text-anchor="start" x="382.705" y="-120" font-family="Helvetica,sans-Serif" font-size="10.00">Ctct\Services\EmailMarketing</text>
<text text-anchor="middle" x="448" y="-108" font-family="Helvetica,sans-Serif" font-size="10.00">Service\getCampaign</text>
</a>
</g>
</g>
<!-- Node9&#45;&gt;Node11 -->
<g id="edge10" class="edge"><title>Node9&#45;&gt;Node11</title>
<path fill="none" stroke="midnightblue" d="M325.839,-150.352C345.831,-145.014 367.443,-139.243 386.803,-134.074"/>
<polygon fill="midnightblue" stroke="midnightblue" points="324.93,-146.972 316.171,-152.933 326.736,-153.735 324.93,-146.972"/>
</g>
<!-- Node12 -->
<g id="node12" class="node"><title>Node12</title>
<g id="a_node12"><a xlink:href="class_ctct_1_1_services_1_1_email_marketing_service.html#a577a7a457d8c00ba8f0f01d113f37973" target="_top" xlink:title="Update a specific email campaign. ">
<polygon fill="white" stroke="black" points="374.705,-51 374.705,-83 521.295,-83 521.295,-51 374.705,-51"/>
<text text-anchor="start" x="382.705" y="-69" font-family="Helvetica,sans-Serif" font-size="10.00">Ctct\Services\EmailMarketing</text>
<text text-anchor="middle" x="448" y="-57" font-family="Helvetica,sans-Serif" font-size="10.00">Service\updateCampaign</text>
</a>
</g>
</g>
<!-- Node9&#45;&gt;Node12 -->
<g id="edge11" class="edge"><title>Node9&#45;&gt;Node12</title>
<path fill="none" stroke="midnightblue" d="M329.618,-148.374C332.53,-146.716 335.339,-144.927 338,-143 360.176,-126.936 352.109,-109.451 374,-93 379.055,-89.2013 384.714,-85.921 390.586,-83.0969"/>
<polygon fill="midnightblue" stroke="midnightblue" points="327.931,-145.306 320.617,-152.971 331.115,-151.54 327.931,-145.306"/>
</g>
</g>
</svg>
        <g id="navigator" transform="translate(0 0)" fill="#404254">
                <rect fill="#f2f5e9" fill-opacity="0.5" stroke="#606060" stroke-width=".5" x="0" y="0" width="60" height="60"/>
                <use id="zoomplus" xlink:href="#zoomPlus" x="17" y="9" onmousedown="handleZoom(evt,'in')"/>
                <use id="zoomminus" xlink:href="#zoomMin" x="42" y="9" onmousedown="handleZoom(evt,'out')"/>
                <use id="reset" xlink:href="#resetDef" x="30" y="36" onmousedown="handleReset()"/>
                <g id="arrowUp" xlink:href="#dirArrow" transform="translate(30 24)" onmousedown="handlePan(0,-1)">
                  <use xlink:href="#rim" fill="#404040">
                        <set attributeName="fill" to="#808080" begin="arrowUp.mouseover" end="arrowUp.mouseout"/>
                  </use>
                  <path fill="none" stroke="white" stroke-width="1.5" d="M0,-3.0v7 M-2.5,-0.5L0,-3.0L2.5,-0.5"/>
                </g>
                <g id="arrowRight" xlink:href="#dirArrow" transform="rotate(90) translate(36 -43)" onmousedown="handlePan(1,0)">
                  <use xlink:href="#rim" fill="#404040">
                        <set attributeName="fill" to="#808080" begin="arrowRight.mouseover" end="arrowRight.mouseout"/>
                  </use>
                  <path fill="none" stroke="white" stroke-width="1.5" d="M0,-3.0v7 M-2.5,-0.5L0,-3.0L2.5,-0.5"/>
                </g>
                <g id="arrowDown" xlink:href="#dirArrow" transform="rotate(180) translate(-30 -48)" onmousedown="handlePan(0,1)">
                  <use xlink:href="#rim" fill="#404040">
                        <set attributeName="fill" to="#808080" begin="arrowDown.mouseover" end="arrowDown.mouseout"/>
                  </use>
                  <path fill="none" stroke="white" stroke-width="1.5" d="M0,-3.0v7 M-2.5,-0.5L0,-3.0L2.5,-0.5"/>
                </g>
                <g id="arrowLeft" xlink:href="#dirArrow" transform="rotate(270) translate(-36 17)" onmousedown="handlePan(-1,0)">
                  <use xlink:href="#rim" fill="#404040">
                        <set attributeName="fill" to="#808080" begin="arrowLeft.mouseover" end="arrowLeft.mouseout"/>
                  </use>
                  <path fill="none" stroke="white" stroke-width="1.5" d="M0,-3.0v7 M-2.5,-0.5L0,-3.0L2.5,-0.5"/>
                </g>
        </g>
        <svg viewBox="0 0 15 15" width="100%" height="30px" preserveAspectRatio="xMaxYMin meet">
         <g id="arrow_out" transform="scale(0.3 0.3)">
          <a xlink:href="class_ctct_1_1_components_1_1_contacts_1_1_contact_list_a3fc8e0d47e974d0ba80d1ff92ec48d5c_icgraph_org.svg" target="_base">
           <rect id="button" ry="5" rx="5" y="6" x="6" height="38" width="38"
                fill="#f2f5e9" fill-opacity="0.5" stroke="#606060" stroke-width="1.0"/>
           <path id="arrow"
             d="M 11.500037,31.436501 C 11.940474,20.09759 22.043105,11.32322 32.158766,21.979434 L 37.068811,17.246167 C 37.068811,17.246167 37.088388,32 37.088388,32 L 22.160133,31.978069 C 22.160133,31.978069 26.997745,27.140456 26.997745,27.140456 C 18.528582,18.264221 13.291696,25.230495 11.500037,31.436501 z"
             style="fill:#404040;"/>
          </a>
         </g>
        </svg>
</svg>
