<?xml version="1.0" encoding="UTF-8" standalone="no"?>
<!DOCTYPE svg PUBLIC "-//W3C//DTD SVG 1.1//EN"
 "http://www.w3.org/Graphics/SVG/1.1/DTD/svg11.dtd">
<!-- Generated by graphviz version 2.30.1 (20130221.2233)
 -->
<!-- Title: CTCT_EventSpot\getTitle Pages: 1 -->
<svg width="318pt" height="67pt"
 viewBox="0.00 0.00 318.00 67.00" xmlns="http://www.w3.org/2000/svg" xmlns:xlink="http://www.w3.org/1999/xlink">
<g id="graph0" class="graph" transform="scale(1 1) rotate(0) translate(4 63)">
<title>CTCT_EventSpot\getTitle</title>
<polygon fill="white" stroke="white" points="-4,5 -4,-63 315,-63 315,5 -4,5"/>
<!-- Node1 -->
<g id="node1" class="node"><title>Node1</title>
<polygon fill="#bfbfbf" stroke="black" points="0.215332,-19 0.215332,-39 129.785,-39 129.785,-19 0.215332,-19"/>
<text text-anchor="middle" x="65" y="-25" font-family="Helvetica,sans-Serif" font-size="10.00">CTCT_EventSpot\getTitle</text>
</g>
<!-- Node2 -->
<g id="node2" class="node"><title>Node2</title>
<g id="a_node2"><a xlink:href="class_c_t_c_t___admin___page.html#a3022d3649afef42fe8a14b1f34f50a11" target="_top" xlink:title="CTCT_Admin_Page\\isEdit">
<polygon fill="white" stroke="black" points="171.643,-39 171.643,-59 304.357,-59 304.357,-39 171.643,-39"/>
<text text-anchor="middle" x="238" y="-45" font-family="Helvetica,sans-Serif" font-size="10.00">CTCT_Admin_Page\isEdit</text>
</a>
</g>
</g>
<!-- Node1&#45;&gt;Node2 -->
<g id="edge1" class="edge"><title>Node1&#45;&gt;Node2</title>
<path fill="none" stroke="midnightblue" d="M130.161,-36.5042C140.43,-37.7053 151.139,-38.9578 161.641,-40.1861"/>
<polygon fill="midnightblue" stroke="midnightblue" points="161.286,-43.6684 171.625,-41.3538 162.099,-36.7157 161.286,-43.6684"/>
</g>
<!-- Node3 -->
<g id="node3" class="node"><title>Node3</title>
<g id="a_node3"><a xlink:href="class_c_t_c_t___admin___page.html#a79cac52351cd72e5cb0269ad98ac9a82" target="_top" xlink:title="CTCT_Admin_Page\\isSingle">
<polygon fill="white" stroke="black" points="166.36,-0 166.36,-20 309.64,-20 309.64,-0 166.36,-0"/>
<text text-anchor="middle" x="238" y="-6" font-family="Helvetica,sans-Serif" font-size="10.00">CTCT_Admin_Page\isSingle</text>
</a>
</g>
</g>
<!-- Node1&#45;&gt;Node3 -->
<g id="edge2" class="edge"><title>Node1&#45;&gt;Node3</title>
<path fill="none" stroke="midnightblue" d="M130.161,-21.871C138.607,-20.9326 147.35,-19.9611 156.031,-18.9966"/>
<polygon fill="midnightblue" stroke="midnightblue" points="156.619,-22.4529 166.171,-17.8699 155.846,-15.4957 156.619,-22.4529"/>
</g>
</g>
</svg>
