<?xml version="1.0" encoding="UTF-8" standalone="no"?>
<!DOCTYPE svg PUBLIC "-//W3C//DTD SVG 1.1//EN"
 "http://www.w3.org/Graphics/SVG/1.1/DTD/svg11.dtd">
<!-- Generated by graphviz version 2.30.1 (20130221.2233)
 -->
<!-- Title: CTCT_Admin_Page\isSingle Pages: 1 -->
<svg width="668pt" height="191pt"
 viewBox="0.00 0.00 668.00 191.49" xmlns="http://www.w3.org/2000/svg" xmlns:xlink="http://www.w3.org/1999/xlink">
<g id="graph0" class="graph" transform="scale(1 1) rotate(0) translate(4 187.491)">
<title>CTCT_Admin_Page\isSingle</title>
<polygon fill="white" stroke="white" points="-4,5 -4,-187.491 665,-187.491 665,5 -4,5"/>
<!-- Node1 -->
<g id="node1" class="node"><title>Node1</title>
<polygon fill="#bfbfbf" stroke="black" points="0.359863,-67.491 0.359863,-87.491 143.64,-87.491 143.64,-67.491 0.359863,-67.491"/>
<text text-anchor="middle" x="72" y="-73.491" font-family="Helvetica,sans-Serif" font-size="10.00">CTCT_Admin_Page\isSingle</text>
</g>
<!-- Node2 -->
<g id="node2" class="node"><title>Node2</title>
<g id="a_node2"><a xlink:href="class_c_t_c_t___admin___page.html#acdbed2f16a36a9384b2fa5f01073024d" target="_top" xlink:title="CTCT_Admin_Page\\content">
<polygon fill="white" stroke="black" points="180.468,-163.491 180.468,-183.491 321.532,-183.491 321.532,-163.491 180.468,-163.491"/>
<text text-anchor="middle" x="251" y="-169.491" font-family="Helvetica,sans-Serif" font-size="10.00">CTCT_Admin_Page\content</text>
</a>
</g>
</g>
<!-- Node1&#45;&gt;Node2 -->
<g id="edge1" class="edge"><title>Node1&#45;&gt;Node2</title>
<path fill="none" stroke="midnightblue" d="M92.0014,-94.0513C112.468,-111.123 146.607,-137.445 180,-153.491 188.202,-157.432 197.328,-160.739 206.209,-163.456"/>
<polygon fill="midnightblue" stroke="midnightblue" points="94.2499,-91.369 84.3584,-87.573 89.7238,-96.7089 94.2499,-91.369"/>
</g>
<!-- Node7 -->
<g id="node7" class="node"><title>Node7</title>
<g id="a_node7"><a xlink:href="class_c_t_c_t___admin___contacts.html#ab66e13c1d6644f2ef4fbbf5a3264d257" target="_top" xlink:title="CTCT_Admin_Contacts\l\\getTitle">
<polygon fill="white" stroke="black" points="190.205,-112.491 190.205,-144.491 311.795,-144.491 311.795,-112.491 190.205,-112.491"/>
<text text-anchor="start" x="198.205" y="-130.491" font-family="Helvetica,sans-Serif" font-size="10.00">CTCT_Admin_Contacts</text>
<text text-anchor="middle" x="251" y="-118.491" font-family="Helvetica,sans-Serif" font-size="10.00">\getTitle</text>
</a>
</g>
</g>
<!-- Node1&#45;&gt;Node7 -->
<g id="edge6" class="edge"><title>Node1&#45;&gt;Node7</title>
<path fill="none" stroke="midnightblue" d="M117.886,-90.4243C141.08,-97.1071 169.602,-105.325 194.201,-112.413"/>
<polygon fill="midnightblue" stroke="midnightblue" points="118.548,-86.9725 107.97,-87.5669 116.61,-93.6989 118.548,-86.9725"/>
</g>
<!-- Node8 -->
<g id="node8" class="node"><title>Node8</title>
<g id="a_node8"><a xlink:href="class_c_t_c_t___admin___campaigns.html#ad6242d9a9105b91d0a3f23045e2a3d25" target="_top" xlink:title="CTCT_Admin_Campaigns\l\\getTitle">
<polygon fill="white" stroke="black" points="184.646,-61.491 184.646,-93.491 317.354,-93.491 317.354,-61.491 184.646,-61.491"/>
<text text-anchor="start" x="192.646" y="-79.491" font-family="Helvetica,sans-Serif" font-size="10.00">CTCT_Admin_Campaigns</text>
<text text-anchor="middle" x="251" y="-67.491" font-family="Helvetica,sans-Serif" font-size="10.00">\getTitle</text>
</a>
</g>
</g>
<!-- Node1&#45;&gt;Node8 -->
<g id="edge7" class="edge"><title>Node1&#45;&gt;Node8</title>
<path fill="none" stroke="midnightblue" d="M153.916,-77.491C164.18,-77.491 174.581,-77.491 184.561,-77.491"/>
<polygon fill="midnightblue" stroke="midnightblue" points="153.718,-73.9911 143.718,-77.491 153.718,-80.9911 153.718,-73.9911"/>
</g>
<!-- Node9 -->
<g id="node9" class="node"><title>Node9</title>
<g id="a_node9"><a xlink:href="class_c_t_c_t___event_spot.html#acdbdce321684577624cec73d36cbf622" target="_top" xlink:title="CTCT_EventSpot\\getTitle">
<polygon fill="white" stroke="black" points="186.215,-22.491 186.215,-42.491 315.785,-42.491 315.785,-22.491 186.215,-22.491"/>
<text text-anchor="middle" x="251" y="-28.491" font-family="Helvetica,sans-Serif" font-size="10.00">CTCT_EventSpot\getTitle</text>
</a>
</g>
</g>
<!-- Node1&#45;&gt;Node9 -->
<g id="edge8" class="edge"><title>Node1&#45;&gt;Node9</title>
<path fill="none" stroke="midnightblue" d="M122.629,-64.8735C150.372,-57.82 184.476,-49.1496 210.41,-42.5561"/>
<polygon fill="midnightblue" stroke="midnightblue" points="121.552,-61.5359 112.722,-67.3921 123.276,-68.3201 121.552,-61.5359"/>
</g>
<!-- Node3 -->
<g id="node3" class="node"><title>Node3</title>
<g id="a_node3"><a xlink:href="class_c_t_c_t___admin___page.html#ad4d8edcfbf3023f7f18a6d188adaf99c" target="_top" xlink:title="CTCT_Admin_Page\\page">
<polygon fill="white" stroke="black" points="358.747,-73.491 358.747,-93.491 489.253,-93.491 489.253,-73.491 358.747,-73.491"/>
<text text-anchor="middle" x="424" y="-79.491" font-family="Helvetica,sans-Serif" font-size="10.00">CTCT_Admin_Page\page</text>
</a>
</g>
</g>
<!-- Node1&#45;&gt;Node3 -->
<g id="edge9" class="edge"><title>Node1&#45;&gt;Node3</title>
<path fill="none" stroke="midnightblue" d="M92.7243,-61.1683C113.114,-45.4428 146.591,-22.72 180,-13.491 240.833,3.31367 261.764,5.34222 322,-13.491 359.874,-25.3326 396.03,-56.9194 412.97,-73.308"/>
<polygon fill="midnightblue" stroke="midnightblue" points="90.4949,-58.4691 84.8256,-67.4196 94.8391,-63.9581 90.4949,-58.4691"/>
</g>
<!-- Node2&#45;&gt;Node3 -->
<g id="edge2" class="edge"><title>Node2&#45;&gt;Node3</title>
<path fill="none" stroke="midnightblue" d="M305.377,-160.235C311.088,-158.231 316.731,-155.986 322,-153.491 357.094,-136.876 393.337,-108.505 411.358,-93.4916"/>
<polygon fill="midnightblue" stroke="midnightblue" points="304.172,-156.946 295.756,-163.382 306.349,-163.599 304.172,-156.946"/>
</g>
<!-- Node4 -->
<g id="node4" class="node"><title>Node4</title>
<g id="a_node4"><a xlink:href="class_c_t_c_t___constant___analytics.html#ad379ea8b9d4f8c7735b0f3adeac838fe" target="_top" xlink:title="CTCT_Constant_Analytics\l\\addActions">
<polygon fill="white" stroke="black" points="526.089,-118.491 526.089,-150.491 659.911,-150.491 659.911,-118.491 526.089,-118.491"/>
<text text-anchor="start" x="534.089" y="-136.491" font-family="Helvetica,sans-Serif" font-size="10.00">CTCT_Constant_Analytics</text>
<text text-anchor="middle" x="593" y="-124.491" font-family="Helvetica,sans-Serif" font-size="10.00">\addActions</text>
</a>
</g>
</g>
<!-- Node3&#45;&gt;Node4 -->
<g id="edge3" class="edge"><title>Node3&#45;&gt;Node4</title>
<path fill="none" stroke="midnightblue" d="M467.645,-96.5142C489.474,-103.181 516.248,-111.357 539.354,-118.413"/>
<polygon fill="midnightblue" stroke="midnightblue" points="468.58,-93.1403 457.994,-93.5669 466.536,-99.8351 468.58,-93.1403"/>
</g>
<!-- Node5 -->
<g id="node5" class="node"><title>Node5</title>
<g id="a_node5"><a xlink:href="class_c_t_c_t___constant___analytics.html#a0b5589251b3a6cd9cf457fed695c885c" target="_top" xlink:title="CTCT_Constant_Analytics\l\\enqueue_scripts">
<polygon fill="white" stroke="black" points="526.089,-67.491 526.089,-99.491 659.911,-99.491 659.911,-67.491 526.089,-67.491"/>
<text text-anchor="start" x="534.089" y="-85.491" font-family="Helvetica,sans-Serif" font-size="10.00">CTCT_Constant_Analytics</text>
<text text-anchor="middle" x="593" y="-73.491" font-family="Helvetica,sans-Serif" font-size="10.00">\enqueue_scripts</text>
</a>
</g>
</g>
<!-- Node3&#45;&gt;Node5 -->
<g id="edge4" class="edge"><title>Node3&#45;&gt;Node5</title>
<path fill="none" stroke="midnightblue" d="M499.74,-83.491C508.477,-83.491 517.343,-83.491 525.95,-83.491"/>
<polygon fill="midnightblue" stroke="midnightblue" points="499.567,-79.9911 489.567,-83.491 499.567,-86.9911 499.567,-79.9911"/>
</g>
<!-- Node6 -->
<g id="node6" class="node"><title>Node6</title>
<g id="a_node6"><a xlink:href="class_c_t_c_t___constant___analytics.html#a835b6b00979fb3965d01a93767d5199e" target="_top" xlink:title="CTCT_Constant_Analytics\l\\admin_head">
<polygon fill="white" stroke="black" points="526.089,-16.491 526.089,-48.491 659.911,-48.491 659.911,-16.491 526.089,-16.491"/>
<text text-anchor="start" x="534.089" y="-34.491" font-family="Helvetica,sans-Serif" font-size="10.00">CTCT_Constant_Analytics</text>
<text text-anchor="middle" x="593" y="-22.491" font-family="Helvetica,sans-Serif" font-size="10.00">\admin_head</text>
</a>
</g>
</g>
<!-- Node3&#45;&gt;Node6 -->
<g id="edge5" class="edge"><title>Node3&#45;&gt;Node6</title>
<path fill="none" stroke="midnightblue" d="M467.645,-70.4677C489.474,-63.8012 516.248,-55.6248 539.354,-48.5686"/>
<polygon fill="midnightblue" stroke="midnightblue" points="466.536,-67.1468 457.994,-73.415 468.58,-73.8416 466.536,-67.1468"/>
</g>
</g>
</svg>
