<?xml version="1.0" encoding="UTF-8" standalone="no"?>
<!DOCTYPE svg PUBLIC "-//W3C//DTD SVG 1.1//EN"
 "http://www.w3.org/Graphics/SVG/1.1/DTD/svg11.dtd">
<!-- Generated by graphviz version 2.30.1 (20130221.2233)
 -->
<!-- Title: Net_DNS_Question\data Pages: 1 -->
<svg width="300pt" height="67pt"
 viewBox="0.00 0.00 300.00 67.00" xmlns="http://www.w3.org/2000/svg" xmlns:xlink="http://www.w3.org/1999/xlink">
<g id="graph0" class="graph" transform="scale(1 1) rotate(0) translate(4 63)">
<title>Net_DNS_Question\data</title>
<polygon fill="white" stroke="white" points="-4,5 -4,-63 297,-63 297,5 -4,5"/>
<!-- Node1 -->
<g id="node1" class="node"><title>Node1</title>
<polygon fill="#bfbfbf" stroke="black" points="-0.0317383,-19 -0.0317383,-39 126.032,-39 126.032,-19 -0.0317383,-19"/>
<text text-anchor="middle" x="63" y="-25" font-family="Helvetica,sans-Serif" font-size="10.00">Net_DNS_Question\data</text>
</g>
<!-- Node2 -->
<g id="node2" class="node"><title>Node2</title>
<g id="a_node2"><a xlink:href="class_net___d_n_s.html#a1e086e94cfa4b747b481b1e5859a1caf" target="_top" xlink:title="translates a DNS class from it&#39;s name to it&#39;s integer value. ">
<polygon fill="white" stroke="black" points="162.032,-39 162.032,-59 291.968,-59 291.968,-39 162.032,-39"/>
<text text-anchor="middle" x="227" y="-45" font-family="Helvetica,sans-Serif" font-size="10.00">Net_DNS\classesbyname</text>
</a>
</g>
</g>
<!-- Node1&#45;&gt;Node2 -->
<g id="edge1" class="edge"><title>Node1&#45;&gt;Node2</title>
<path fill="none" stroke="midnightblue" d="M126.17,-36.6753C134.572,-37.7125 143.259,-38.7851 151.843,-39.8449"/>
<polygon fill="midnightblue" stroke="midnightblue" points="151.496,-43.3285 161.85,-41.0802 152.354,-36.3812 151.496,-43.3285"/>
</g>
<!-- Node3 -->
<g id="node3" class="node"><title>Node3</title>
<g id="a_node3"><a xlink:href="class_net___d_n_s.html#a1420f63422265cad4ceb1899647e53e6" target="_top" xlink:title="Translates RR type names into integers. ">
<polygon fill="white" stroke="black" points="166.754,-0 166.754,-20 287.246,-20 287.246,-0 166.754,-0"/>
<text text-anchor="middle" x="227" y="-6" font-family="Helvetica,sans-Serif" font-size="10.00">Net_DNS\typesbyname</text>
</a>
</g>
</g>
<!-- Node1&#45;&gt;Node3 -->
<g id="edge2" class="edge"><title>Node1&#45;&gt;Node3</title>
<path fill="none" stroke="midnightblue" d="M126.17,-21.7084C136.141,-20.539 146.516,-19.3222 156.642,-18.1346"/>
<polygon fill="midnightblue" stroke="midnightblue" points="157.137,-21.6006 166.662,-16.9594 156.322,-14.6482 157.137,-21.6006"/>
</g>
</g>
</svg>
