<?xml version="1.0" encoding="UTF-8" standalone="no"?>
<!DOCTYPE svg PUBLIC "-//W3C//DTD SVG 1.1//EN"
 "http://www.w3.org/Graphics/SVG/1.1/DTD/svg11.dtd">
<!-- Generated by graphviz version 2.30.1 (20130221.2233)
 -->
<!-- Title: Ctct\Components\Contacts\Contact\create Pages: 1 -->
<svg width="326pt" height="244pt"
 viewBox="0.00 0.00 326.00 244.00" xmlns="http://www.w3.org/2000/svg" xmlns:xlink="http://www.w3.org/1999/xlink">
<g id="graph0" class="graph" transform="scale(1 1) rotate(0) translate(4 240)">
<title>Ctct\Components\Contacts\Contact\create</title>
<polygon fill="white" stroke="white" points="-4,5 -4,-240 323,-240 323,5 -4,5"/>
<!-- Node1 -->
<g id="node1" class="node"><title>Node1</title>
<polygon fill="#bfbfbf" stroke="black" points="0.251465,-102 0.251465,-134 135.749,-134 135.749,-102 0.251465,-102"/>
<text text-anchor="start" x="8.25146" y="-120" font-family="Helvetica,sans-Serif" font-size="10.00">Ctct\Components\Contacts</text>
<text text-anchor="middle" x="68" y="-108" font-family="Helvetica,sans-Serif" font-size="10.00">\Contact\create</text>
</g>
<!-- Node2 -->
<g id="node2" class="node"><title>Node2</title>
<g id="a_node2"><a xlink:href="class_ctct_1_1_services_1_1_contact_service.html#a68b82b5578a6115f979c2b79dcd91dff" target="_top" xlink:title="Add a new contact to the Constant Contact account. ">
<polygon fill="white" stroke="black" points="172.256,-204 172.256,-236 317.744,-236 317.744,-204 172.256,-204"/>
<text text-anchor="start" x="180.256" y="-222" font-family="Helvetica,sans-Serif" font-size="10.00">Ctct\Services\ContactService</text>
<text text-anchor="middle" x="245" y="-210" font-family="Helvetica,sans-Serif" font-size="10.00">\addContact</text>
</a>
</g>
</g>
<!-- Node1&#45;&gt;Node2 -->
<g id="edge1" class="edge"><title>Node1&#45;&gt;Node2</title>
<path fill="none" stroke="midnightblue" d="M94.9991,-140.5C115.017,-156.975 143.926,-178.985 172,-194 178.797,-197.635 186.21,-200.958 193.611,-203.923"/>
<polygon fill="midnightblue" stroke="midnightblue" points="97.1771,-137.759 87.2569,-134.039 92.6919,-143.134 97.1771,-137.759"/>
</g>
<!-- Node3 -->
<g id="node3" class="node"><title>Node3</title>
<g id="a_node3"><a xlink:href="class_ctct_1_1_services_1_1_contact_service.html#af87e0abcdfa3fe993a8772f7b68918c6" target="_top" xlink:title="Get contact details for a specific contact. ">
<polygon fill="white" stroke="black" points="172.256,-153 172.256,-185 317.744,-185 317.744,-153 172.256,-153"/>
<text text-anchor="start" x="180.256" y="-171" font-family="Helvetica,sans-Serif" font-size="10.00">Ctct\Services\ContactService</text>
<text text-anchor="middle" x="245" y="-159" font-family="Helvetica,sans-Serif" font-size="10.00">\getContact</text>
</a>
</g>
</g>
<!-- Node1&#45;&gt;Node3 -->
<g id="edge2" class="edge"><title>Node1&#45;&gt;Node3</title>
<path fill="none" stroke="midnightblue" d="M134.222,-137.008C152.242,-142.259 171.612,-147.904 188.989,-152.968"/>
<polygon fill="midnightblue" stroke="midnightblue" points="134.951,-133.574 124.371,-134.137 132.992,-140.295 134.951,-133.574"/>
</g>
<!-- Node4 -->
<g id="node4" class="node"><title>Node4</title>
<g id="a_node4"><a xlink:href="class_ctct_1_1_services_1_1_contact_service.html#a6eb2fce4ca499982ef5a592d15e7ee23" target="_top" xlink:title="Get a ResultSet of contacts. ">
<polygon fill="white" stroke="black" points="172.256,-102 172.256,-134 317.744,-134 317.744,-102 172.256,-102"/>
<text text-anchor="start" x="180.256" y="-120" font-family="Helvetica,sans-Serif" font-size="10.00">Ctct\Services\ContactService</text>
<text text-anchor="middle" x="245" y="-108" font-family="Helvetica,sans-Serif" font-size="10.00">\getContacts</text>
</a>
</g>
</g>
<!-- Node1&#45;&gt;Node4 -->
<g id="edge3" class="edge"><title>Node1&#45;&gt;Node4</title>
<path fill="none" stroke="midnightblue" d="M146.184,-118C154.794,-118 163.539,-118 172.079,-118"/>
<polygon fill="midnightblue" stroke="midnightblue" points="146.159,-114.5 136.159,-118 146.159,-121.5 146.159,-114.5"/>
</g>
<!-- Node5 -->
<g id="node5" class="node"><title>Node5</title>
<g id="a_node5"><a xlink:href="class_ctct_1_1_services_1_1_list_service.html#a1888616e27971787a3e03ed3b655c249" target="_top" xlink:title="Get all contacts from an individual list. ">
<polygon fill="white" stroke="black" points="181.707,-51 181.707,-83 308.293,-83 308.293,-51 181.707,-51"/>
<text text-anchor="start" x="189.707" y="-69" font-family="Helvetica,sans-Serif" font-size="10.00">Ctct\Services\ListService</text>
<text text-anchor="middle" x="245" y="-57" font-family="Helvetica,sans-Serif" font-size="10.00">\getContactsFromList</text>
</a>
</g>
</g>
<!-- Node1&#45;&gt;Node5 -->
<g id="edge4" class="edge"><title>Node1&#45;&gt;Node5</title>
<path fill="none" stroke="midnightblue" d="M134.222,-98.9925C152.242,-93.741 171.612,-88.096 188.989,-83.0317"/>
<polygon fill="midnightblue" stroke="midnightblue" points="132.992,-95.7051 124.371,-101.863 134.951,-102.426 132.992,-95.7051"/>
</g>
<!-- Node6 -->
<g id="node6" class="node"><title>Node6</title>
<g id="a_node6"><a xlink:href="class_ctct_1_1_services_1_1_contact_service.html#a56d41dfd1397fd74e40ba0944637afb8" target="_top" xlink:title="Update contact details for a specific contact. ">
<polygon fill="white" stroke="black" points="172.256,-0 172.256,-32 317.744,-32 317.744,-0 172.256,-0"/>
<text text-anchor="start" x="180.256" y="-18" font-family="Helvetica,sans-Serif" font-size="10.00">Ctct\Services\ContactService</text>
<text text-anchor="middle" x="245" y="-6" font-family="Helvetica,sans-Serif" font-size="10.00">\updateContact</text>
</a>
</g>
</g>
<!-- Node1&#45;&gt;Node6 -->
<g id="edge5" class="edge"><title>Node1&#45;&gt;Node6</title>
<path fill="none" stroke="midnightblue" d="M94.9991,-95.4997C115.017,-79.0253 143.926,-57.0146 172,-42 178.797,-38.3647 186.21,-35.0421 193.611,-32.0771"/>
<polygon fill="midnightblue" stroke="midnightblue" points="92.6919,-92.8665 87.2569,-101.961 97.1771,-98.2408 92.6919,-92.8665"/>
</g>
</g>
</svg>
