<?xml version="1.0" encoding="UTF-8" standalone="no"?>
<!DOCTYPE svg PUBLIC "-//W3C//DTD SVG 1.1//EN"
 "http://www.w3.org/Graphics/SVG/1.1/DTD/svg11.dtd">
<!-- Generated by graphviz version 2.30.1 (20130221.2233)
 -->
<!-- Title: Ctct\Components\Activities\ActivityError\create Pages: 1 -->
<!--zoomable 409 -->
<svg id="main" version="1.1" xmlns="http://www.w3.org/2000/svg" xmlns:xlink="http://www.w3.org/1999/xlink" xml:space="preserve" onload="init(evt)">
<style type="text/css"><![CDATA[
.edge:hover path { stroke: red; }
.edge:hover polygon { stroke: red; fill: red; }
]]></style>
<script type="text/javascript"><![CDATA[
var edges = document.getElementsByTagName('g');
if (edges && edges.length) {
  for (var i=0;i<edges.length;i++) {
    if (edges[i].id.substr(0,4)=='edge') {
      edges[i].setAttribute('class','edge');
    }
  }
}
]]></script>
        <defs>
                <circle id="rim" cx="0" cy="0" r="7"/>
                <circle id="rim2" cx="0" cy="0" r="3.5"/>
                <g id="zoomPlus">
                        <use xlink:href="#rim" fill="#404040">
                                <set attributeName="fill" to="#808080" begin="zoomplus.mouseover" end="zoomplus.mouseout"/>
                        </use>
                        <path d="M-4,0h8M0,-4v8" fill="none" stroke="white" stroke-width="1.5" pointer-events="none"/>
                </g>
                <g id="zoomMin">
                        <use xlink:href="#rim" fill="#404040">
                                <set attributeName="fill" to="#808080" begin="zoomminus.mouseover" end="zoomminus.mouseout"/>
                        </use>
                        <path d="M-4,0h8" fill="none" stroke="white" stroke-width="1.5" pointer-events="none"/>
                </g>
                <g id="dirArrow">
                        <path fill="none" stroke="white" stroke-width="1.5" d="M0,-3.0v7 M-2.5,-0.5L0,-3.0L2.5,-0.5"/>
                </g>
               <g id="resetDef">
                       <use xlink:href="#rim2" fill="#404040">
                               <set attributeName="fill" to="#808080" begin="reset.mouseover" end="reset.mouseout"/>
                       </use>
               </g>
        </defs>

<script type="text/javascript">
var viewWidth = 540;
var viewHeight = 409;
var sectionId = 'dynsection-2';
</script>
<script xlink:href="svgpan.js"/>
<svg id="graph" class="graph">
<g id="viewport">
<title>Ctct\Components\Activities\ActivityError\create</title>
<polygon fill="white" stroke="white" points="-4,5 -4,-405 537,-405 537,5 -4,5"/>
<!-- Node1 -->
<g id="node1" class="node"><title>Node1</title>
<polygon fill="#bfbfbf" stroke="black" points="0.256348,-181 0.256348,-213 135.744,-213 135.744,-181 0.256348,-181"/>
<text text-anchor="start" x="8.25635" y="-199" font-family="Helvetica,sans-Serif" font-size="10.00">Ctct\Components\Activities</text>
<text text-anchor="middle" x="68" y="-187" font-family="Helvetica,sans-Serif" font-size="10.00">\ActivityError\create</text>
</g>
<!-- Node2 -->
<g id="node2" class="node"><title>Node2</title>
<g id="a_node2"><a xlink:href="class_ctct_1_1_components_1_1_activities_1_1_activity.html#ad67770e21bcf6b61eef2f6c519763d03" target="_top" xlink:title="Factory method to create an Activity object from an array. ">
<polygon fill="white" stroke="black" points="172.256,-181 172.256,-213 307.744,-213 307.744,-181 172.256,-181"/>
<text text-anchor="start" x="180.256" y="-199" font-family="Helvetica,sans-Serif" font-size="10.00">Ctct\Components\Activities</text>
<text text-anchor="middle" x="240" y="-187" font-family="Helvetica,sans-Serif" font-size="10.00">\Activity\create</text>
</a>
</g>
</g>
<!-- Node1&#45;&gt;Node2 -->
<g id="edge1" class="edge"><title>Node1&#45;&gt;Node2</title>
<path fill="none" stroke="midnightblue" d="M146.226,-197C154.836,-197 163.554,-197 172.021,-197"/>
<polygon fill="midnightblue" stroke="midnightblue" points="146.189,-193.5 136.189,-197 146.188,-200.5 146.189,-193.5"/>
</g>
<!-- Node3 -->
<g id="node3" class="node"><title>Node3</title>
<g id="a_node3"><a xlink:href="class_ctct_1_1_services_1_1_activity_service.html#aee7e6a5e97c1bf0563aaaa0ddb11c3a8" target="_top" xlink:title="Create a Clear Lists Activity. ">
<polygon fill="white" stroke="black" points="366.653,-369 366.653,-401 509.347,-401 509.347,-369 366.653,-369"/>
<text text-anchor="start" x="374.653" y="-387" font-family="Helvetica,sans-Serif" font-size="10.00">Ctct\Services\ActivityService</text>
<text text-anchor="middle" x="438" y="-375" font-family="Helvetica,sans-Serif" font-size="10.00">\addClearListsActivity</text>
</a>
</g>
</g>
<!-- Node2&#45;&gt;Node3 -->
<g id="edge2" class="edge"><title>Node2&#45;&gt;Node3</title>
<path fill="none" stroke="midnightblue" d="M250.497,-222.869C265.039,-258.85 296.26,-323.564 344,-359 350.731,-363.996 358.38,-368.032 366.332,-371.293"/>
<polygon fill="midnightblue" stroke="midnightblue" points="253.581,-221.146 246.678,-213.109 247.062,-223.697 253.581,-221.146"/>
</g>
<!-- Node4 -->
<g id="node4" class="node"><title>Node4</title>
<g id="a_node4"><a xlink:href="class_ctct_1_1_services_1_1_activity_service.html#a063acad0b025be72ea770afc58d5cd74" target="_top" xlink:title="Create an Export Contacts Activity. ">
<polygon fill="white" stroke="black" points="366.653,-318 366.653,-350 509.347,-350 509.347,-318 366.653,-318"/>
<text text-anchor="start" x="374.653" y="-336" font-family="Helvetica,sans-Serif" font-size="10.00">Ctct\Services\ActivityService</text>
<text text-anchor="middle" x="438" y="-324" font-family="Helvetica,sans-Serif" font-size="10.00">\addExportContactsActivity</text>
</a>
</g>
</g>
<!-- Node2&#45;&gt;Node4 -->
<g id="edge3" class="edge"><title>Node2&#45;&gt;Node4</title>
<path fill="none" stroke="midnightblue" d="M257.485,-221.56C275.738,-246.881 307.46,-285.713 344,-308 350.87,-312.19 358.433,-315.723 366.189,-318.698"/>
<polygon fill="midnightblue" stroke="midnightblue" points="260.226,-219.374 251.604,-213.217 254.505,-223.407 260.226,-219.374"/>
</g>
<!-- Node5 -->
<g id="node5" class="node"><title>Node5</title>
<g id="a_node5"><a xlink:href="class_ctct_1_1_services_1_1_activity_service.html#ac76ad74246b9aa697963901107242d85" target="_top" xlink:title="Create a Remove Contacts From Lists Activity. ">
<polygon fill="white" stroke="black" points="344.138,-267 344.138,-299 531.862,-299 531.862,-267 344.138,-267"/>
<text text-anchor="start" x="352.138" y="-285" font-family="Helvetica,sans-Serif" font-size="10.00">Ctct\Services\ActivityService</text>
<text text-anchor="middle" x="438" y="-273" font-family="Helvetica,sans-Serif" font-size="10.00">\addRemoveContactsFromListsActivity</text>
</a>
</g>
</g>
<!-- Node2&#45;&gt;Node5 -->
<g id="edge4" class="edge"><title>Node2&#45;&gt;Node5</title>
<path fill="none" stroke="midnightblue" d="M273.249,-218.66C293.016,-231.195 319.206,-246.516 344,-257 352.647,-260.656 361.961,-263.957 371.237,-266.883"/>
<polygon fill="midnightblue" stroke="midnightblue" points="274.951,-215.593 264.648,-213.124 271.162,-221.479 274.951,-215.593"/>
</g>
<!-- Node6 -->
<g id="node6" class="node"><title>Node6</title>
<g id="a_node6"><a xlink:href="class_ctct_1_1_services_1_1_activity_service.html#aa44f57da731685f008e54a893b8fa88d" target="_top" xlink:title="Create an Remove Contacts Activity from a file. ">
<polygon fill="white" stroke="black" points="344.138,-204 344.138,-248 531.862,-248 531.862,-204 344.138,-204"/>
<text text-anchor="start" x="352.138" y="-234" font-family="Helvetica,sans-Serif" font-size="10.00">Ctct\Services\ActivityService</text>
<text text-anchor="start" x="352.138" y="-222" font-family="Helvetica,sans-Serif" font-size="10.00">\addRemoveContactsFromListsActivity</text>
<text text-anchor="middle" x="438" y="-210" font-family="Helvetica,sans-Serif" font-size="10.00">FromFile</text>
</a>
</g>
</g>
<!-- Node2&#45;&gt;Node6 -->
<g id="edge5" class="edge"><title>Node2&#45;&gt;Node6</title>
<path fill="none" stroke="midnightblue" d="M317.867,-208.373C326.457,-209.644 335.275,-210.949 344.039,-212.246"/>
<polygon fill="midnightblue" stroke="midnightblue" points="318.309,-204.9 307.904,-206.899 317.284,-211.825 318.309,-204.9"/>
</g>
<!-- Node7 -->
<g id="node7" class="node"><title>Node7</title>
<g id="a_node7"><a xlink:href="class_ctct_1_1_services_1_1_activity_service.html#a7585bd43669c8f9c4e1b6884e58322f6" target="_top" xlink:title="Create an Add Contacts Activity. ">
<polygon fill="white" stroke="black" points="366.653,-153 366.653,-185 509.347,-185 509.347,-153 366.653,-153"/>
<text text-anchor="start" x="374.653" y="-171" font-family="Helvetica,sans-Serif" font-size="10.00">Ctct\Services\ActivityService</text>
<text text-anchor="middle" x="438" y="-159" font-family="Helvetica,sans-Serif" font-size="10.00">\createAddContactsActivity</text>
</a>
</g>
</g>
<!-- Node2&#45;&gt;Node7 -->
<g id="edge6" class="edge"><title>Node2&#45;&gt;Node7</title>
<path fill="none" stroke="midnightblue" d="M318.214,-185.969C334.099,-183.7 350.747,-181.322 366.384,-179.088"/>
<polygon fill="midnightblue" stroke="midnightblue" points="317.308,-182.563 307.904,-187.442 318.298,-189.493 317.308,-182.563"/>
</g>
<!-- Node8 -->
<g id="node8" class="node"><title>Node8</title>
<g id="a_node8"><a xlink:href="class_ctct_1_1_services_1_1_activity_service.html#a2f7afa7fcfe01bec0576f985a606082e" target="_top" xlink:title="Create an Add Contacts Activity from a file. ">
<polygon fill="white" stroke="black" points="350.53,-102 350.53,-134 525.47,-134 525.47,-102 350.53,-102"/>
<text text-anchor="start" x="358.53" y="-120" font-family="Helvetica,sans-Serif" font-size="10.00">Ctct\Services\ActivityService</text>
<text text-anchor="middle" x="438" y="-108" font-family="Helvetica,sans-Serif" font-size="10.00">\createAddContactsActivityFromFile</text>
</a>
</g>
</g>
<!-- Node2&#45;&gt;Node8 -->
<g id="edge7" class="edge"><title>Node2&#45;&gt;Node8</title>
<path fill="none" stroke="midnightblue" d="M277.477,-175.932C296.809,-165.362 321.212,-152.941 344,-144 353.208,-140.387 363.111,-137.058 372.9,-134.075"/>
<polygon fill="midnightblue" stroke="midnightblue" points="275.753,-172.886 268.701,-180.794 279.145,-179.01 275.753,-172.886"/>
</g>
<!-- Node9 -->
<g id="node9" class="node"><title>Node9</title>
<g id="a_node9"><a xlink:href="class_ctct_1_1_services_1_1_activity_service.html#a530561ac3d289f0d3e39f358107f91ba" target="_top" xlink:title="Get an array of activities. ">
<polygon fill="white" stroke="black" points="366.653,-51 366.653,-83 509.347,-83 509.347,-51 366.653,-51"/>
<text text-anchor="start" x="374.653" y="-69" font-family="Helvetica,sans-Serif" font-size="10.00">Ctct\Services\ActivityService</text>
<text text-anchor="middle" x="438" y="-57" font-family="Helvetica,sans-Serif" font-size="10.00">\getActivities</text>
</a>
</g>
</g>
<!-- Node2&#45;&gt;Node9 -->
<g id="edge8" class="edge"><title>Node2&#45;&gt;Node9</title>
<path fill="none" stroke="midnightblue" d="M259.005,-172.529C277.704,-148.822 309.075,-113.53 344,-93 350.937,-88.922 358.543,-85.4592 366.322,-82.5243"/>
<polygon fill="midnightblue" stroke="midnightblue" points="256.046,-170.635 252.706,-180.69 261.587,-174.912 256.046,-170.635"/>
</g>
<!-- Node10 -->
<g id="node10" class="node"><title>Node10</title>
<g id="a_node10"><a xlink:href="class_ctct_1_1_services_1_1_activity_service.html#a29a275be3f87a87150f225f939e07637" target="_top" xlink:title="Get an array of activities. ">
<polygon fill="white" stroke="black" points="366.653,-0 366.653,-32 509.347,-32 509.347,-0 366.653,-0"/>
<text text-anchor="start" x="374.653" y="-18" font-family="Helvetica,sans-Serif" font-size="10.00">Ctct\Services\ActivityService</text>
<text text-anchor="middle" x="438" y="-6" font-family="Helvetica,sans-Serif" font-size="10.00">\getActivity</text>
</a>
</g>
</g>
<!-- Node2&#45;&gt;Node10 -->
<g id="edge9" class="edge"><title>Node2&#45;&gt;Node10</title>
<path fill="none" stroke="midnightblue" d="M251.266,-171.181C266.363,-136.549 297.851,-75.5384 344,-42 350.781,-37.072 358.461,-33.0772 366.43,-29.8391"/>
<polygon fill="midnightblue" stroke="midnightblue" points="247.948,-170.04 247.276,-180.613 254.395,-172.767 247.948,-170.04"/>
</g>
</g>
</svg>
        <g id="navigator" transform="translate(0 0)" fill="#404254">
                <rect fill="#f2f5e9" fill-opacity="0.5" stroke="#606060" stroke-width=".5" x="0" y="0" width="60" height="60"/>
                <use id="zoomplus" xlink:href="#zoomPlus" x="17" y="9" onmousedown="handleZoom(evt,'in')"/>
                <use id="zoomminus" xlink:href="#zoomMin" x="42" y="9" onmousedown="handleZoom(evt,'out')"/>
                <use id="reset" xlink:href="#resetDef" x="30" y="36" onmousedown="handleReset()"/>
                <g id="arrowUp" xlink:href="#dirArrow" transform="translate(30 24)" onmousedown="handlePan(0,-1)">
                  <use xlink:href="#rim" fill="#404040">
                        <set attributeName="fill" to="#808080" begin="arrowUp.mouseover" end="arrowUp.mouseout"/>
                  </use>
                  <path fill="none" stroke="white" stroke-width="1.5" d="M0,-3.0v7 M-2.5,-0.5L0,-3.0L2.5,-0.5"/>
                </g>
                <g id="arrowRight" xlink:href="#dirArrow" transform="rotate(90) translate(36 -43)" onmousedown="handlePan(1,0)">
                  <use xlink:href="#rim" fill="#404040">
                        <set attributeName="fill" to="#808080" begin="arrowRight.mouseover" end="arrowRight.mouseout"/>
                  </use>
                  <path fill="none" stroke="white" stroke-width="1.5" d="M0,-3.0v7 M-2.5,-0.5L0,-3.0L2.5,-0.5"/>
                </g>
                <g id="arrowDown" xlink:href="#dirArrow" transform="rotate(180) translate(-30 -48)" onmousedown="handlePan(0,1)">
                  <use xlink:href="#rim" fill="#404040">
                        <set attributeName="fill" to="#808080" begin="arrowDown.mouseover" end="arrowDown.mouseout"/>
                  </use>
                  <path fill="none" stroke="white" stroke-width="1.5" d="M0,-3.0v7 M-2.5,-0.5L0,-3.0L2.5,-0.5"/>
                </g>
                <g id="arrowLeft" xlink:href="#dirArrow" transform="rotate(270) translate(-36 17)" onmousedown="handlePan(-1,0)">
                  <use xlink:href="#rim" fill="#404040">
                        <set attributeName="fill" to="#808080" begin="arrowLeft.mouseover" end="arrowLeft.mouseout"/>
                  </use>
                  <path fill="none" stroke="white" stroke-width="1.5" d="M0,-3.0v7 M-2.5,-0.5L0,-3.0L2.5,-0.5"/>
                </g>
        </g>
        <svg viewBox="0 0 15 15" width="100%" height="30px" preserveAspectRatio="xMaxYMin meet">
         <g id="arrow_out" transform="scale(0.3 0.3)">
          <a xlink:href="class_ctct_1_1_components_1_1_activities_1_1_activity_error_aa9bc6b634f25fd213c068cbf97e966ec_icgraph_org.svg" target="_base">
           <rect id="button" ry="5" rx="5" y="6" x="6" height="38" width="38"
                fill="#f2f5e9" fill-opacity="0.5" stroke="#606060" stroke-width="1.0"/>
           <path id="arrow"
             d="M 11.500037,31.436501 C 11.940474,20.09759 22.043105,11.32322 32.158766,21.979434 L 37.068811,17.246167 C 37.068811,17.246167 37.088388,32 37.088388,32 L 22.160133,31.978069 C 22.160133,31.978069 26.997745,27.140456 26.997745,27.140456 C 18.528582,18.264221 13.291696,25.230495 11.500037,31.436501 z"
             style="fill:#404040;"/>
          </a>
         </g>
        </svg>
</svg>
