<?xml version="1.0" encoding="UTF-8" standalone="no"?>
<!DOCTYPE svg PUBLIC "-//W3C//DTD SVG 1.1//EN"
 "http://www.w3.org/Graphics/SVG/1.1/DTD/svg11.dtd">
<!-- Generated by graphviz version 2.30.1 (20130221.2233)
 -->
<!-- Title: Net_DNS_Packet\label_extract Pages: 1 -->
<svg width="298pt" height="142pt"
 viewBox="0.00 0.00 298.00 142.00" xmlns="http://www.w3.org/2000/svg" xmlns:xlink="http://www.w3.org/1999/xlink">
<g id="graph0" class="graph" transform="scale(1 1) rotate(0) translate(4 138)">
<title>Net_DNS_Packet\label_extract</title>
<polygon fill="white" stroke="white" points="-4,5 -4,-138 295,-138 295,5 -4,5"/>
<!-- Node1 -->
<g id="node1" class="node"><title>Node1</title>
<polygon fill="#bfbfbf" stroke="black" points="-0.137695,-51 -0.137695,-83 118.138,-83 118.138,-51 -0.137695,-51"/>
<text text-anchor="start" x="7.8623" y="-69" font-family="Helvetica,sans-Serif" font-size="10.00">Net_DNS_Packet\label</text>
<text text-anchor="middle" x="59" y="-57" font-family="Helvetica,sans-Serif" font-size="10.00">_extract</text>
</g>
<!-- Node2 -->
<g id="node2" class="node"><title>Node2</title>
<g id="a_node2"><a xlink:href="class_net___d_n_s___r_r___h_i_n_f_o.html#aafd311cd5e67b4227ace59a2d3d2511e" target="_top" xlink:title="Net_DNS_RR_HINFO\\Net\l_DNS_RR_HINFO">
<polygon fill="white" stroke="black" points="155.375,-102 155.375,-134 288.625,-134 288.625,-102 155.375,-102"/>
<text text-anchor="start" x="163.375" y="-120" font-family="Helvetica,sans-Serif" font-size="10.00">Net_DNS_RR_HINFO\Net</text>
<text text-anchor="middle" x="222" y="-108" font-family="Helvetica,sans-Serif" font-size="10.00">_DNS_RR_HINFO</text>
</a>
</g>
</g>
<!-- Node1&#45;&gt;Node2 -->
<g id="edge1" class="edge"><title>Node1&#45;&gt;Node2</title>
<path fill="none" stroke="midnightblue" d="M120.926,-86.2997C137.242,-91.4678 154.699,-96.9977 170.39,-101.968"/>
<polygon fill="midnightblue" stroke="midnightblue" points="121.532,-82.82 110.941,-83.1367 119.418,-89.4932 121.532,-82.82"/>
</g>
<!-- Node3 -->
<g id="node3" class="node"><title>Node3</title>
<g id="a_node3"><a xlink:href="class_net___d_n_s___r_r___n_a_p_t_r.html#aef963fabca0af3b3b10d881552cd9835" target="_top" xlink:title="Net_DNS_RR_NAPTR\\Net\l_DNS_RR_NAPTR">
<polygon fill="white" stroke="black" points="153.983,-51 153.983,-83 290.017,-83 290.017,-51 153.983,-51"/>
<text text-anchor="start" x="161.983" y="-69" font-family="Helvetica,sans-Serif" font-size="10.00">Net_DNS_RR_NAPTR\Net</text>
<text text-anchor="middle" x="222" y="-57" font-family="Helvetica,sans-Serif" font-size="10.00">_DNS_RR_NAPTR</text>
</a>
</g>
</g>
<!-- Node1&#45;&gt;Node3 -->
<g id="edge2" class="edge"><title>Node1&#45;&gt;Node3</title>
<path fill="none" stroke="midnightblue" d="M128.617,-67C136.936,-67 145.429,-67 153.728,-67"/>
<polygon fill="midnightblue" stroke="midnightblue" points="128.58,-63.5001 118.58,-67 128.58,-70.5001 128.58,-63.5001"/>
</g>
<!-- Node4 -->
<g id="node4" class="node"><title>Node4</title>
<g id="a_node4"><a xlink:href="class_net___d_n_s___r_r___t_x_t.html#a557c2b7a227b3a9d04f1f821798d816f" target="_top" xlink:title="Net_DNS_RR_TXT\\Net\l_DNS_RR_TXT">
<polygon fill="white" stroke="black" points="161.485,-0 161.485,-32 282.515,-32 282.515,-0 161.485,-0"/>
<text text-anchor="start" x="169.485" y="-18" font-family="Helvetica,sans-Serif" font-size="10.00">Net_DNS_RR_TXT\Net</text>
<text text-anchor="middle" x="222" y="-6" font-family="Helvetica,sans-Serif" font-size="10.00">_DNS_RR_TXT</text>
</a>
</g>
</g>
<!-- Node1&#45;&gt;Node4 -->
<g id="edge3" class="edge"><title>Node1&#45;&gt;Node4</title>
<path fill="none" stroke="midnightblue" d="M120.926,-47.7003C137.242,-42.5322 154.699,-37.0023 170.39,-32.0317"/>
<polygon fill="midnightblue" stroke="midnightblue" points="119.418,-44.5068 110.941,-50.8633 121.532,-51.18 119.418,-44.5068"/>
</g>
</g>
</svg>
