<?xml version="1.0" encoding="UTF-8" standalone="no"?>
<!DOCTYPE svg PUBLIC "-//W3C//DTD SVG 1.1//EN"
 "http://www.w3.org/Graphics/SVG/1.1/DTD/svg11.dtd">
<!-- Generated by graphviz version 2.30.1 (20130221.2233)
 -->
<!-- Title: Net_DNS_Resolver\make_query_packet Pages: 1 -->
<!--zoomable 95 -->
<svg id="main" version="1.1" xmlns="http://www.w3.org/2000/svg" xmlns:xlink="http://www.w3.org/1999/xlink" xml:space="preserve" onload="init(evt)">
<style type="text/css"><![CDATA[
.edge:hover path { stroke: red; }
.edge:hover polygon { stroke: red; fill: red; }
]]></style>
<script type="text/javascript"><![CDATA[
var edges = document.getElementsByTagName('g');
if (edges && edges.length) {
  for (var i=0;i<edges.length;i++) {
    if (edges[i].id.substr(0,4)=='edge') {
      edges[i].setAttribute('class','edge');
    }
  }
}
]]></script>
        <defs>
                <circle id="rim" cx="0" cy="0" r="7"/>
                <circle id="rim2" cx="0" cy="0" r="3.5"/>
                <g id="zoomPlus">
                        <use xlink:href="#rim" fill="#404040">
                                <set attributeName="fill" to="#808080" begin="zoomplus.mouseover" end="zoomplus.mouseout"/>
                        </use>
                        <path d="M-4,0h8M0,-4v8" fill="none" stroke="white" stroke-width="1.5" pointer-events="none"/>
                </g>
                <g id="zoomMin">
                        <use xlink:href="#rim" fill="#404040">
                                <set attributeName="fill" to="#808080" begin="zoomminus.mouseover" end="zoomminus.mouseout"/>
                        </use>
                        <path d="M-4,0h8" fill="none" stroke="white" stroke-width="1.5" pointer-events="none"/>
                </g>
                <g id="dirArrow">
                        <path fill="none" stroke="white" stroke-width="1.5" d="M0,-3.0v7 M-2.5,-0.5L0,-3.0L2.5,-0.5"/>
                </g>
               <g id="resetDef">
                       <use xlink:href="#rim2" fill="#404040">
                               <set attributeName="fill" to="#808080" begin="reset.mouseover" end="reset.mouseout"/>
                       </use>
               </g>
        </defs>

<script type="text/javascript">
var viewWidth = 838;
var viewHeight = 95;
var sectionId = 'dynsection-8';
</script>
<script xlink:href="svgpan.js"/>
<svg id="graph" class="graph">
<g id="viewport">
<title>Net_DNS_Resolver\make_query_packet</title>
<polygon fill="white" stroke="white" points="-4,5 -4,-91 835,-91 835,5 -4,5"/>
<!-- Node1 -->
<g id="node1" class="node"><title>Node1</title>
<polygon fill="#bfbfbf" stroke="black" points="-0.243652,-39 -0.243652,-71 130.244,-71 130.244,-39 -0.243652,-39"/>
<text text-anchor="start" x="7.75635" y="-57" font-family="Helvetica,sans-Serif" font-size="10.00">Net_DNS_Resolver\make</text>
<text text-anchor="middle" x="65" y="-45" font-family="Helvetica,sans-Serif" font-size="10.00">_query_packet</text>
</g>
<!-- Node2 -->
<g id="node2" class="node"><title>Node2</title>
<g id="a_node2"><a xlink:href="class_net___d_n_s___resolver.html#a9a745e4f5009dac279562318bb927370" target="_top" xlink:title="Performs an AXFR query (zone transfer) ">
<polygon fill="white" stroke="black" points="343.648,-67 343.648,-87 466.352,-87 466.352,-67 343.648,-67"/>
<text text-anchor="middle" x="405" y="-73" font-family="Helvetica,sans-Serif" font-size="10.00">Net_DNS_Resolver\axfr</text>
</a>
</g>
</g>
<!-- Node1&#45;&gt;Node2 -->
<g id="edge1" class="edge"><title>Node1&#45;&gt;Node2</title>
<path fill="none" stroke="midnightblue" d="M129.687,-73.3887C141.655,-76.1391 154.136,-78.5395 166,-80 226.084,-87.3967 295.342,-85.3452 343.598,-82.2369"/>
<polygon fill="midnightblue" stroke="midnightblue" points="130.32,-69.9413 119.779,-71.009 128.685,-76.7477 130.32,-69.9413"/>
</g>
<!-- Node4 -->
<g id="node4" class="node"><title>Node4</title>
<g id="a_node4"><a xlink:href="class_net___d_n_s___resolver.html#a068e8e173ff40d4a3b74193792bed4e0" target="_top" xlink:title="Sends a packet via TCP to the list of name servers. ">
<polygon fill="white" stroke="black" points="168.648,-39 168.648,-71 291.352,-71 291.352,-39 168.648,-39"/>
<text text-anchor="start" x="176.648" y="-57" font-family="Helvetica,sans-Serif" font-size="10.00">Net_DNS_Resolver\axfr</text>
<text text-anchor="middle" x="230" y="-45" font-family="Helvetica,sans-Serif" font-size="10.00">_start</text>
</a>
</g>
</g>
<!-- Node1&#45;&gt;Node4 -->
<g id="edge3" class="edge"><title>Node1&#45;&gt;Node4</title>
<path fill="none" stroke="midnightblue" d="M140.516,-55C149.886,-55 159.379,-55 168.497,-55"/>
<polygon fill="midnightblue" stroke="midnightblue" points="140.422,-51.5001 130.422,-55 140.422,-58.5001 140.422,-51.5001"/>
</g>
<!-- Node5 -->
<g id="node5" class="node"><title>Node5</title>
<g id="a_node5"><a xlink:href="class_net___d_n_s___resolver.html#aaabc96cbbb5bce627d31583d0e6af3d5" target="_top" xlink:title="Sends a packet to a nameserver. ">
<polygon fill="white" stroke="black" points="166.141,-0 166.141,-20 293.859,-20 293.859,-0 166.141,-0"/>
<text text-anchor="middle" x="230" y="-6" font-family="Helvetica,sans-Serif" font-size="10.00">Net_DNS_Resolver\send</text>
</a>
</g>
</g>
<!-- Node1&#45;&gt;Node5 -->
<g id="edge5" class="edge"><title>Node1&#45;&gt;Node5</title>
<path fill="none" stroke="midnightblue" d="M134.076,-36.206C154.04,-30.6945 175.108,-24.878 192.312,-20.1287"/>
<polygon fill="midnightblue" stroke="midnightblue" points="133.094,-32.846 124.386,-38.8811 134.957,-39.5936 133.094,-32.846"/>
</g>
<!-- Node3 -->
<g id="node3" class="node"><title>Node3</title>
<g id="a_node3"><a xlink:href="class_net___d_n_s___resolver.html#a73f7861954f4990bc8d18d6a82f7334d" target="_top" xlink:title="Performs an AXFR query (zone transfer) (OLD BUGGY STYLE) ">
<polygon fill="white" stroke="black" points="516.195,-67 516.195,-87 657.805,-87 657.805,-67 516.195,-67"/>
<text text-anchor="middle" x="587" y="-73" font-family="Helvetica,sans-Serif" font-size="10.00">Net_DNS_Resolver\axfr_old</text>
</a>
</g>
</g>
<!-- Node2&#45;&gt;Node3 -->
<g id="edge2" class="edge"><title>Node2&#45;&gt;Node3</title>
<path fill="none" stroke="midnightblue" d="M476.684,-77C489.637,-77 503.151,-77 516.081,-77"/>
<polygon fill="midnightblue" stroke="midnightblue" points="476.438,-73.5001 466.438,-77 476.438,-80.5001 476.438,-73.5001"/>
</g>
<!-- Node4&#45;&gt;Node2 -->
<g id="edge4" class="edge"><title>Node4&#45;&gt;Node2</title>
<path fill="none" stroke="midnightblue" d="M301.529,-63.9689C315.46,-65.7406 329.964,-67.5851 343.527,-69.3098"/>
<polygon fill="midnightblue" stroke="midnightblue" points="301.869,-60.4841 291.507,-62.6945 300.986,-67.4282 301.869,-60.4841"/>
</g>
<!-- Node6 -->
<g id="node6" class="node"><title>Node6</title>
<g id="a_node6"><a xlink:href="class_net___d_n_s___resolver.html#ab00f28a838dbaebffe986b2fb81b4e8f" target="_top" xlink:title="Queries nameservers for an answer. ">
<polygon fill="white" stroke="black" points="330.311,-0 330.311,-20 479.689,-20 479.689,-0 330.311,-0"/>
<text text-anchor="middle" x="405" y="-6" font-family="Helvetica,sans-Serif" font-size="10.00">Net_DNS_Resolver\rawQuery</text>
</a>
</g>
</g>
<!-- Node5&#45;&gt;Node6 -->
<g id="edge6" class="edge"><title>Node5&#45;&gt;Node6</title>
<path fill="none" stroke="midnightblue" d="M304.02,-10C312.691,-10 321.548,-10 330.231,-10"/>
<polygon fill="midnightblue" stroke="midnightblue" points="303.946,-6.5001 293.946,-10 303.946,-13.5001 303.946,-6.5001"/>
</g>
<!-- Node7 -->
<g id="node7" class="node"><title>Node7</title>
<g id="a_node7"><a xlink:href="class_net___d_n_s___resolver.html#a433200f56099815168ddd63a715e8ac5" target="_top" xlink:title="Queries nameservers for an answer. ">
<polygon fill="white" stroke="black" points="521.476,-0 521.476,-20 652.524,-20 652.524,-0 521.476,-0"/>
<text text-anchor="middle" x="587" y="-6" font-family="Helvetica,sans-Serif" font-size="10.00">Net_DNS_Resolver\query</text>
</a>
</g>
</g>
<!-- Node6&#45;&gt;Node7 -->
<g id="edge7" class="edge"><title>Node6&#45;&gt;Node7</title>
<path fill="none" stroke="midnightblue" d="M489.823,-10C500.403,-10 511.099,-10 521.32,-10"/>
<polygon fill="midnightblue" stroke="midnightblue" points="489.732,-6.5001 479.732,-10 489.732,-13.5001 489.732,-6.5001"/>
</g>
<!-- Node8 -->
<g id="node8" class="node"><title>Node8</title>
<g id="a_node8"><a xlink:href="class_net___d_n_s___resolver.html#a13ee3a449b00b1a0e2f36bb1404e4291" target="_top" xlink:title="Searches nameservers for an answer. ">
<polygon fill="white" stroke="black" points="693.976,-0 693.976,-20 830.024,-20 830.024,-0 693.976,-0"/>
<text text-anchor="middle" x="762" y="-6" font-family="Helvetica,sans-Serif" font-size="10.00">Net_DNS_Resolver\search</text>
</a>
</g>
</g>
<!-- Node7&#45;&gt;Node8 -->
<g id="edge8" class="edge"><title>Node7&#45;&gt;Node8</title>
<path fill="none" stroke="midnightblue" d="M663.022,-10C673.226,-10 683.648,-10 693.704,-10"/>
<polygon fill="midnightblue" stroke="midnightblue" points="662.911,-6.5001 652.911,-10 662.911,-13.5001 662.911,-6.5001"/>
</g>
</g>
</svg>
        <g id="navigator" transform="translate(0 0)" fill="#404254">
                <rect fill="#f2f5e9" fill-opacity="0.5" stroke="#606060" stroke-width=".5" x="0" y="0" width="60" height="60"/>
                <use id="zoomplus" xlink:href="#zoomPlus" x="17" y="9" onmousedown="handleZoom(evt,'in')"/>
                <use id="zoomminus" xlink:href="#zoomMin" x="42" y="9" onmousedown="handleZoom(evt,'out')"/>
                <use id="reset" xlink:href="#resetDef" x="30" y="36" onmousedown="handleReset()"/>
                <g id="arrowUp" xlink:href="#dirArrow" transform="translate(30 24)" onmousedown="handlePan(0,-1)">
                  <use xlink:href="#rim" fill="#404040">
                        <set attributeName="fill" to="#808080" begin="arrowUp.mouseover" end="arrowUp.mouseout"/>
                  </use>
                  <path fill="none" stroke="white" stroke-width="1.5" d="M0,-3.0v7 M-2.5,-0.5L0,-3.0L2.5,-0.5"/>
                </g>
                <g id="arrowRight" xlink:href="#dirArrow" transform="rotate(90) translate(36 -43)" onmousedown="handlePan(1,0)">
                  <use xlink:href="#rim" fill="#404040">
                        <set attributeName="fill" to="#808080" begin="arrowRight.mouseover" end="arrowRight.mouseout"/>
                  </use>
                  <path fill="none" stroke="white" stroke-width="1.5" d="M0,-3.0v7 M-2.5,-0.5L0,-3.0L2.5,-0.5"/>
                </g>
                <g id="arrowDown" xlink:href="#dirArrow" transform="rotate(180) translate(-30 -48)" onmousedown="handlePan(0,1)">
                  <use xlink:href="#rim" fill="#404040">
                        <set attributeName="fill" to="#808080" begin="arrowDown.mouseover" end="arrowDown.mouseout"/>
                  </use>
                  <path fill="none" stroke="white" stroke-width="1.5" d="M0,-3.0v7 M-2.5,-0.5L0,-3.0L2.5,-0.5"/>
                </g>
                <g id="arrowLeft" xlink:href="#dirArrow" transform="rotate(270) translate(-36 17)" onmousedown="handlePan(-1,0)">
                  <use xlink:href="#rim" fill="#404040">
                        <set attributeName="fill" to="#808080" begin="arrowLeft.mouseover" end="arrowLeft.mouseout"/>
                  </use>
                  <path fill="none" stroke="white" stroke-width="1.5" d="M0,-3.0v7 M-2.5,-0.5L0,-3.0L2.5,-0.5"/>
                </g>
        </g>
        <svg viewBox="0 0 15 15" width="100%" height="30px" preserveAspectRatio="xMaxYMin meet">
         <g id="arrow_out" transform="scale(0.3 0.3)">
          <a xlink:href="class_net___d_n_s___resolver_a6162ddba85ce36cdf7d8df7ff32161e0_icgraph_org.svg" target="_base">
           <rect id="button" ry="5" rx="5" y="6" x="6" height="38" width="38"
                fill="#f2f5e9" fill-opacity="0.5" stroke="#606060" stroke-width="1.0"/>
           <path id="arrow"
             d="M 11.500037,31.436501 C 11.940474,20.09759 22.043105,11.32322 32.158766,21.979434 L 37.068811,17.246167 C 37.068811,17.246167 37.088388,32 37.088388,32 L 22.160133,31.978069 C 22.160133,31.978069 26.997745,27.140456 26.997745,27.140456 C 18.528582,18.264221 13.291696,25.230495 11.500037,31.436501 z"
             style="fill:#404040;"/>
          </a>
         </g>
        </svg>
</svg>
