<?xml version="1.0" encoding="UTF-8" standalone="no"?>
<!DOCTYPE svg PUBLIC "-//W3C//DTD SVG 1.1//EN"
 "http://www.w3.org/Graphics/SVG/1.1/DTD/svg11.dtd">
<!-- Generated by graphviz version 2.30.1 (20130221.2233)
 -->
<!-- Title: Ctct\Components\EmailMarketing\Campaign\create Pages: 1 -->
<svg width="376pt" height="193pt"
 viewBox="0.00 0.00 376.00 193.00" xmlns="http://www.w3.org/2000/svg" xmlns:xlink="http://www.w3.org/1999/xlink">
<g id="graph0" class="graph" transform="scale(1 1) rotate(0) translate(4 189)">
<title>Ctct\Components\EmailMarketing\Campaign\create</title>
<polygon fill="white" stroke="white" points="-4,5 -4,-189 373,-189 373,5 -4,5"/>
<!-- Node1 -->
<g id="node1" class="node"><title>Node1</title>
<polygon fill="#bfbfbf" stroke="black" points="0.527344,-76 0.527344,-108 165.473,-108 165.473,-76 0.527344,-76"/>
<text text-anchor="start" x="8.52734" y="-94" font-family="Helvetica,sans-Serif" font-size="10.00">Ctct\Components\EmailMarketing</text>
<text text-anchor="middle" x="83" y="-82" font-family="Helvetica,sans-Serif" font-size="10.00">\Campaign\create</text>
</g>
<!-- Node2 -->
<g id="node2" class="node"><title>Node2</title>
<g id="a_node2"><a xlink:href="class_ctct_1_1_components_1_1_tracking_1_1_tracking_summary.html#a2559d62ef3c0e3a457df0c50043311d4" target="_top" xlink:title="Factory method to create a TrackingSummary object from an array. ">
<polygon fill="white" stroke="black" points="217.994,-153 217.994,-185 352.006,-185 352.006,-153 217.994,-153"/>
<text text-anchor="start" x="225.994" y="-171" font-family="Helvetica,sans-Serif" font-size="10.00">Ctct\Components\Tracking</text>
<text text-anchor="middle" x="285" y="-159" font-family="Helvetica,sans-Serif" font-size="10.00">\TrackingSummary\create</text>
</a>
</g>
</g>
<!-- Node1&#45;&gt;Node2 -->
<g id="edge1" class="edge"><title>Node1&#45;&gt;Node2</title>
<path fill="none" stroke="midnightblue" d="M118.734,-108.111C142.041,-118.649 173.567,-132.379 202,-143 208.204,-145.317 214.719,-147.612 221.251,-149.823"/>
<polygon fill="midnightblue" stroke="midnightblue" points="220.206,-153.163 230.799,-152.993 222.412,-146.52 220.206,-153.163"/>
</g>
<!-- Node3 -->
<g id="node3" class="node"><title>Node3</title>
<g id="a_node3"><a xlink:href="class_ctct_1_1_components_1_1_email_marketing_1_1_message_footer.html#a6e4143e459132449e4ad848e0d66a0e5" target="_top" xlink:title="Factory method to create a MessageFooter object from an array. ">
<polygon fill="white" stroke="black" points="202.527,-102 202.527,-134 367.473,-134 367.473,-102 202.527,-102"/>
<text text-anchor="start" x="210.527" y="-120" font-family="Helvetica,sans-Serif" font-size="10.00">Ctct\Components\EmailMarketing</text>
<text text-anchor="middle" x="285" y="-108" font-family="Helvetica,sans-Serif" font-size="10.00">\MessageFooter\create</text>
</a>
</g>
</g>
<!-- Node1&#45;&gt;Node3 -->
<g id="edge2" class="edge"><title>Node1&#45;&gt;Node3</title>
<path fill="none" stroke="midnightblue" d="M165.636,-102.613C174.426,-103.755 183.411,-104.923 192.308,-106.08"/>
<polygon fill="midnightblue" stroke="midnightblue" points="191.933,-109.561 202.301,-107.379 192.835,-102.619 191.933,-109.561"/>
</g>
<!-- Node4 -->
<g id="node4" class="node"><title>Node4</title>
<g id="a_node4"><a xlink:href="class_ctct_1_1_components_1_1_email_marketing_1_1_click_through_details.html#a21bbd4ba0873831d3cc03d8dc2e8ebe0" target="_top" xlink:title="Factory method to create a ClickThroughDetails object from an array. ">
<polygon fill="white" stroke="black" points="202.527,-51 202.527,-83 367.473,-83 367.473,-51 202.527,-51"/>
<text text-anchor="start" x="210.527" y="-69" font-family="Helvetica,sans-Serif" font-size="10.00">Ctct\Components\EmailMarketing</text>
<text text-anchor="middle" x="285" y="-57" font-family="Helvetica,sans-Serif" font-size="10.00">\ClickThroughDetails\create</text>
</a>
</g>
</g>
<!-- Node1&#45;&gt;Node4 -->
<g id="edge3" class="edge"><title>Node1&#45;&gt;Node4</title>
<path fill="none" stroke="midnightblue" d="M165.636,-81.7955C174.426,-80.6968 183.411,-79.5736 192.308,-78.4615"/>
<polygon fill="midnightblue" stroke="midnightblue" points="192.812,-81.9258 202.301,-77.2124 191.944,-74.9799 192.812,-81.9258"/>
</g>
<!-- Node5 -->
<g id="node5" class="node"><title>Node5</title>
<g id="a_node5"><a xlink:href="class_ctct_1_1_components_1_1_contacts_1_1_contact_list.html#a3fc8e0d47e974d0ba80d1ff92ec48d5c" target="_top" xlink:title="Factory method to create a ContactList object from an array. ">
<polygon fill="white" stroke="black" points="217.251,-0 217.251,-32 352.749,-32 352.749,-0 217.251,-0"/>
<text text-anchor="start" x="225.251" y="-18" font-family="Helvetica,sans-Serif" font-size="10.00">Ctct\Components\Contacts</text>
<text text-anchor="middle" x="285" y="-6" font-family="Helvetica,sans-Serif" font-size="10.00">\ContactList\create</text>
</a>
</g>
</g>
<!-- Node1&#45;&gt;Node5 -->
<g id="edge4" class="edge"><title>Node1&#45;&gt;Node5</title>
<path fill="none" stroke="midnightblue" d="M119.541,-75.9113C142.783,-65.6465 173.929,-52.3714 202,-42 208.212,-39.7048 214.732,-37.4246 221.268,-35.2231"/>
<polygon fill="midnightblue" stroke="midnightblue" points="222.426,-38.5265 230.82,-32.0613 220.226,-31.8811 222.426,-38.5265"/>
</g>
</g>
</svg>
