<?xml version="1.0" encoding="UTF-8" standalone="no"?>
<!DOCTYPE svg PUBLIC "-//W3C//DTD SVG 1.1//EN"
 "http://www.w3.org/Graphics/SVG/1.1/DTD/svg11.dtd">
<!-- Generated by graphviz version 2.30.1 (20130221.2233)
 -->
<!-- Title: Ctct\Components\Activities\Activity\create Pages: 1 -->
<svg width="368pt" height="409pt"
 viewBox="0.00 0.00 368.00 409.00" xmlns="http://www.w3.org/2000/svg" xmlns:xlink="http://www.w3.org/1999/xlink">
<g id="graph0" class="graph" transform="scale(1 1) rotate(0) translate(4 405)">
<title>Ctct\Components\Activities\Activity\create</title>
<polygon fill="white" stroke="white" points="-4,5 -4,-405 365,-405 365,5 -4,5"/>
<!-- Node1 -->
<g id="node1" class="node"><title>Node1</title>
<polygon fill="#bfbfbf" stroke="black" points="0.256348,-181 0.256348,-213 135.744,-213 135.744,-181 0.256348,-181"/>
<text text-anchor="start" x="8.25635" y="-199" font-family="Helvetica,sans-Serif" font-size="10.00">Ctct\Components\Activities</text>
<text text-anchor="middle" x="68" y="-187" font-family="Helvetica,sans-Serif" font-size="10.00">\Activity\create</text>
</g>
<!-- Node2 -->
<g id="node2" class="node"><title>Node2</title>
<g id="a_node2"><a xlink:href="class_ctct_1_1_services_1_1_activity_service.html#aee7e6a5e97c1bf0563aaaa0ddb11c3a8" target="_top" xlink:title="Create a Clear Lists Activity. ">
<polygon fill="white" stroke="black" points="194.653,-369 194.653,-401 337.347,-401 337.347,-369 194.653,-369"/>
<text text-anchor="start" x="202.653" y="-387" font-family="Helvetica,sans-Serif" font-size="10.00">Ctct\Services\ActivityService</text>
<text text-anchor="middle" x="266" y="-375" font-family="Helvetica,sans-Serif" font-size="10.00">\addClearListsActivity</text>
</a>
</g>
</g>
<!-- Node1&#45;&gt;Node2 -->
<g id="edge1" class="edge"><title>Node1&#45;&gt;Node2</title>
<path fill="none" stroke="midnightblue" d="M78.4966,-222.869C93.0389,-258.85 124.26,-323.564 172,-359 178.731,-363.996 186.38,-368.032 194.332,-371.293"/>
<polygon fill="midnightblue" stroke="midnightblue" points="81.5811,-221.146 74.6778,-213.109 75.0623,-223.697 81.5811,-221.146"/>
</g>
<!-- Node3 -->
<g id="node3" class="node"><title>Node3</title>
<g id="a_node3"><a xlink:href="class_ctct_1_1_services_1_1_activity_service.html#a063acad0b025be72ea770afc58d5cd74" target="_top" xlink:title="Create an Export Contacts Activity. ">
<polygon fill="white" stroke="black" points="194.653,-318 194.653,-350 337.347,-350 337.347,-318 194.653,-318"/>
<text text-anchor="start" x="202.653" y="-336" font-family="Helvetica,sans-Serif" font-size="10.00">Ctct\Services\ActivityService</text>
<text text-anchor="middle" x="266" y="-324" font-family="Helvetica,sans-Serif" font-size="10.00">\addExportContactsActivity</text>
</a>
</g>
</g>
<!-- Node1&#45;&gt;Node3 -->
<g id="edge2" class="edge"><title>Node1&#45;&gt;Node3</title>
<path fill="none" stroke="midnightblue" d="M85.4848,-221.56C103.738,-246.881 135.46,-285.713 172,-308 178.87,-312.19 186.433,-315.723 194.189,-318.698"/>
<polygon fill="midnightblue" stroke="midnightblue" points="88.2261,-219.374 79.6041,-213.217 82.5045,-223.407 88.2261,-219.374"/>
</g>
<!-- Node4 -->
<g id="node4" class="node"><title>Node4</title>
<g id="a_node4"><a xlink:href="class_ctct_1_1_services_1_1_activity_service.html#ac76ad74246b9aa697963901107242d85" target="_top" xlink:title="Create a Remove Contacts From Lists Activity. ">
<polygon fill="white" stroke="black" points="172.138,-267 172.138,-299 359.862,-299 359.862,-267 172.138,-267"/>
<text text-anchor="start" x="180.138" y="-285" font-family="Helvetica,sans-Serif" font-size="10.00">Ctct\Services\ActivityService</text>
<text text-anchor="middle" x="266" y="-273" font-family="Helvetica,sans-Serif" font-size="10.00">\addRemoveContactsFromListsActivity</text>
</a>
</g>
</g>
<!-- Node1&#45;&gt;Node4 -->
<g id="edge3" class="edge"><title>Node1&#45;&gt;Node4</title>
<path fill="none" stroke="midnightblue" d="M101.249,-218.66C121.016,-231.195 147.206,-246.516 172,-257 180.647,-260.656 189.961,-263.957 199.237,-266.883"/>
<polygon fill="midnightblue" stroke="midnightblue" points="102.951,-215.593 92.6477,-213.124 99.1624,-221.479 102.951,-215.593"/>
</g>
<!-- Node5 -->
<g id="node5" class="node"><title>Node5</title>
<g id="a_node5"><a xlink:href="class_ctct_1_1_services_1_1_activity_service.html#aa44f57da731685f008e54a893b8fa88d" target="_top" xlink:title="Create an Remove Contacts Activity from a file. ">
<polygon fill="white" stroke="black" points="172.138,-204 172.138,-248 359.862,-248 359.862,-204 172.138,-204"/>
<text text-anchor="start" x="180.138" y="-234" font-family="Helvetica,sans-Serif" font-size="10.00">Ctct\Services\ActivityService</text>
<text text-anchor="start" x="180.138" y="-222" font-family="Helvetica,sans-Serif" font-size="10.00">\addRemoveContactsFromListsActivity</text>
<text text-anchor="middle" x="266" y="-210" font-family="Helvetica,sans-Serif" font-size="10.00">FromFile</text>
</a>
</g>
</g>
<!-- Node1&#45;&gt;Node5 -->
<g id="edge4" class="edge"><title>Node1&#45;&gt;Node5</title>
<path fill="none" stroke="midnightblue" d="M145.867,-208.373C154.457,-209.644 163.275,-210.949 172.039,-212.246"/>
<polygon fill="midnightblue" stroke="midnightblue" points="146.309,-204.9 135.904,-206.899 145.284,-211.825 146.309,-204.9"/>
</g>
<!-- Node6 -->
<g id="node6" class="node"><title>Node6</title>
<g id="a_node6"><a xlink:href="class_ctct_1_1_services_1_1_activity_service.html#a7585bd43669c8f9c4e1b6884e58322f6" target="_top" xlink:title="Create an Add Contacts Activity. ">
<polygon fill="white" stroke="black" points="194.653,-153 194.653,-185 337.347,-185 337.347,-153 194.653,-153"/>
<text text-anchor="start" x="202.653" y="-171" font-family="Helvetica,sans-Serif" font-size="10.00">Ctct\Services\ActivityService</text>
<text text-anchor="middle" x="266" y="-159" font-family="Helvetica,sans-Serif" font-size="10.00">\createAddContactsActivity</text>
</a>
</g>
</g>
<!-- Node1&#45;&gt;Node6 -->
<g id="edge5" class="edge"><title>Node1&#45;&gt;Node6</title>
<path fill="none" stroke="midnightblue" d="M146.214,-185.969C162.099,-183.7 178.747,-181.322 194.384,-179.088"/>
<polygon fill="midnightblue" stroke="midnightblue" points="145.308,-182.563 135.904,-187.442 146.298,-189.493 145.308,-182.563"/>
</g>
<!-- Node7 -->
<g id="node7" class="node"><title>Node7</title>
<g id="a_node7"><a xlink:href="class_ctct_1_1_services_1_1_activity_service.html#a2f7afa7fcfe01bec0576f985a606082e" target="_top" xlink:title="Create an Add Contacts Activity from a file. ">
<polygon fill="white" stroke="black" points="178.53,-102 178.53,-134 353.47,-134 353.47,-102 178.53,-102"/>
<text text-anchor="start" x="186.53" y="-120" font-family="Helvetica,sans-Serif" font-size="10.00">Ctct\Services\ActivityService</text>
<text text-anchor="middle" x="266" y="-108" font-family="Helvetica,sans-Serif" font-size="10.00">\createAddContactsActivityFromFile</text>
</a>
</g>
</g>
<!-- Node1&#45;&gt;Node7 -->
<g id="edge6" class="edge"><title>Node1&#45;&gt;Node7</title>
<path fill="none" stroke="midnightblue" d="M105.477,-175.932C124.809,-165.362 149.212,-152.941 172,-144 181.208,-140.387 191.111,-137.058 200.9,-134.075"/>
<polygon fill="midnightblue" stroke="midnightblue" points="103.753,-172.886 96.7011,-180.794 107.145,-179.01 103.753,-172.886"/>
</g>
<!-- Node8 -->
<g id="node8" class="node"><title>Node8</title>
<g id="a_node8"><a xlink:href="class_ctct_1_1_services_1_1_activity_service.html#a530561ac3d289f0d3e39f358107f91ba" target="_top" xlink:title="Get an array of activities. ">
<polygon fill="white" stroke="black" points="194.653,-51 194.653,-83 337.347,-83 337.347,-51 194.653,-51"/>
<text text-anchor="start" x="202.653" y="-69" font-family="Helvetica,sans-Serif" font-size="10.00">Ctct\Services\ActivityService</text>
<text text-anchor="middle" x="266" y="-57" font-family="Helvetica,sans-Serif" font-size="10.00">\getActivities</text>
</a>
</g>
</g>
<!-- Node1&#45;&gt;Node8 -->
<g id="edge7" class="edge"><title>Node1&#45;&gt;Node8</title>
<path fill="none" stroke="midnightblue" d="M87.0053,-172.529C105.704,-148.822 137.075,-113.53 172,-93 178.937,-88.922 186.543,-85.4592 194.322,-82.5243"/>
<polygon fill="midnightblue" stroke="midnightblue" points="84.0457,-170.635 80.7064,-180.69 89.5872,-174.912 84.0457,-170.635"/>
</g>
<!-- Node9 -->
<g id="node9" class="node"><title>Node9</title>
<g id="a_node9"><a xlink:href="class_ctct_1_1_services_1_1_activity_service.html#a29a275be3f87a87150f225f939e07637" target="_top" xlink:title="Get an array of activities. ">
<polygon fill="white" stroke="black" points="194.653,-0 194.653,-32 337.347,-32 337.347,-0 194.653,-0"/>
<text text-anchor="start" x="202.653" y="-18" font-family="Helvetica,sans-Serif" font-size="10.00">Ctct\Services\ActivityService</text>
<text text-anchor="middle" x="266" y="-6" font-family="Helvetica,sans-Serif" font-size="10.00">\getActivity</text>
</a>
</g>
</g>
<!-- Node1&#45;&gt;Node9 -->
<g id="edge8" class="edge"><title>Node1&#45;&gt;Node9</title>
<path fill="none" stroke="midnightblue" d="M79.2658,-171.181C94.3628,-136.549 125.851,-75.5384 172,-42 178.781,-37.072 186.461,-33.0772 194.43,-29.8391"/>
<polygon fill="midnightblue" stroke="midnightblue" points="75.9481,-170.04 75.2758,-180.613 82.3951,-172.767 75.9481,-170.04"/>
</g>
</g>
</svg>
