<?xml version="1.0" encoding="UTF-8" standalone="no"?>
<!DOCTYPE svg PUBLIC "-//W3C//DTD SVG 1.1//EN"
 "http://www.w3.org/Graphics/SVG/1.1/DTD/svg11.dtd">
<!-- Generated by graphviz version 2.30.1 (20130221.2233)
 -->
<!-- Title: Event\createStruct Pages: 1 -->
<svg width="442pt" height="67pt"
 viewBox="0.00 0.00 442.00 67.00" xmlns="http://www.w3.org/2000/svg" xmlns:xlink="http://www.w3.org/1999/xlink">
<g id="graph0" class="graph" transform="scale(1 1) rotate(0) translate(4 63)">
<title>Event\createStruct</title>
<polygon fill="white" stroke="white" points="-4,5 -4,-63 439,-63 439,5 -4,5"/>
<!-- Node1 -->
<g id="node1" class="node"><title>Node1</title>
<polygon fill="#bfbfbf" stroke="black" points="-0.130371,-19 -0.130371,-39 98.1304,-39 98.1304,-19 -0.130371,-19"/>
<text text-anchor="middle" x="49" y="-25" font-family="Helvetica,sans-Serif" font-size="10.00">Event\createStruct</text>
</g>
<!-- Node2 -->
<g id="node2" class="node"><title>Node2</title>
<g id="a_node2"><a xlink:href="class_check_payment.html#ace9006cba32a83f633ee69d8470f9ec5" target="_top" xlink:title="Create an associative array of object properties from XML. ">
<polygon fill="white" stroke="black" points="137.751,-39 137.751,-59 278.249,-59 278.249,-39 137.751,-39"/>
<text text-anchor="middle" x="208" y="-45" font-family="Helvetica,sans-Serif" font-size="10.00">CheckPayment\createStruct</text>
</a>
</g>
</g>
<!-- Node1&#45;&gt;Node2 -->
<g id="edge1" class="edge"><title>Node1&#45;&gt;Node2</title>
<path fill="none" stroke="midnightblue" d="M98.3862,-35.1639C107.711,-36.3518 117.705,-37.6248 127.715,-38.9"/>
<polygon fill="midnightblue" stroke="midnightblue" points="127.345,-42.3811 137.707,-40.1729 128.23,-35.4372 127.345,-42.3811"/>
</g>
<!-- Node3 -->
<g id="node3" class="node"><title>Node3</title>
<g id="a_node3"><a xlink:href="class_registration_type.html#a37e3b427edd302135828decaadfe4fe6" target="_top" xlink:title="Create an associative array of object properties from XML. ">
<polygon fill="white" stroke="black" points="134.133,-0 134.133,-20 281.867,-20 281.867,-0 134.133,-0"/>
<text text-anchor="middle" x="208" y="-6" font-family="Helvetica,sans-Serif" font-size="10.00">RegistrationType\createStruct</text>
</a>
</g>
</g>
<!-- Node1&#45;&gt;Node3 -->
<g id="edge2" class="edge"><title>Node1&#45;&gt;Node3</title>
<path fill="none" stroke="midnightblue" d="M98.3862,-23.1443C106.481,-22.1647 115.079,-21.1242 123.755,-20.0742"/>
<polygon fill="midnightblue" stroke="midnightblue" points="124.443,-23.5166 133.95,-18.8404 123.602,-16.5673 124.443,-23.5166"/>
</g>
<!-- Node4 -->
<g id="node4" class="node"><title>Node4</title>
<g id="a_node4"><a xlink:href="class_event_fee.html#a6aeb5d79e6b0e785bddd966a31a45070" target="_top" xlink:title="Create associate array of object from XML. ">
<polygon fill="white" stroke="black" points="318.254,-0 318.254,-20 433.746,-20 433.746,-0 318.254,-0"/>
<text text-anchor="middle" x="376" y="-6" font-family="Helvetica,sans-Serif" font-size="10.00">EventFee\createStruct</text>
</a>
</g>
</g>
<!-- Node3&#45;&gt;Node4 -->
<g id="edge3" class="edge"><title>Node3&#45;&gt;Node4</title>
<path fill="none" stroke="midnightblue" d="M282.293,-10C290.814,-10 299.474,-10 307.906,-10"/>
<polygon fill="midnightblue" stroke="midnightblue" points="308.054,-13.5001 318.054,-10 308.054,-6.5001 308.054,-13.5001"/>
</g>
</g>
</svg>
