<?xml version="1.0" encoding="UTF-8" standalone="no"?>
<!DOCTYPE svg PUBLIC "-//W3C//DTD SVG 1.1//EN"
 "http://www.w3.org/Graphics/SVG/1.1/DTD/svg11.dtd">
<!-- Generated by graphviz version 2.30.1 (20130221.2233)
 -->
<!-- Title: Net_DNS_Resolver\axfr_old Pages: 1 -->
<svg width="1250pt" height="183pt"
 viewBox="0.00 0.00 1250.00 182.55" xmlns="http://www.w3.org/2000/svg" xmlns:xlink="http://www.w3.org/1999/xlink">
<g id="graph0" class="graph" transform="scale(1 1) rotate(0) translate(4 178.546)">
<title>Net_DNS_Resolver\axfr_old</title>
<polygon fill="white" stroke="white" points="-4,5 -4,-178.546 1247,-178.546 1247,5 -4,5"/>
<!-- Node1 -->
<g id="node1" class="node"><title>Node1</title>
<polygon fill="#bfbfbf" stroke="black" points="0.194824,-76.5461 0.194824,-96.5461 141.805,-96.5461 141.805,-76.5461 0.194824,-76.5461"/>
<text text-anchor="middle" x="71" y="-82.5461" font-family="Helvetica,sans-Serif" font-size="10.00">Net_DNS_Resolver\axfr_old</text>
</g>
<!-- Node2 -->
<g id="node2" class="node"><title>Node2</title>
<g id="a_node2"><a xlink:href="class_net___d_n_s___resolver.html#a9a745e4f5009dac279562318bb927370" target="_top" xlink:title="Performs an AXFR query (zone transfer) ">
<polygon fill="white" stroke="black" points="178.648,-76.5461 178.648,-96.5461 301.352,-96.5461 301.352,-76.5461 178.648,-76.5461"/>
<text text-anchor="middle" x="240" y="-82.5461" font-family="Helvetica,sans-Serif" font-size="10.00">Net_DNS_Resolver\axfr</text>
</a>
</g>
</g>
<!-- Node1&#45;&gt;Node2 -->
<g id="edge1" class="edge"><title>Node1&#45;&gt;Node2</title>
<path fill="none" stroke="midnightblue" d="M141.855,-86.5461C150.592,-86.5461 159.534,-86.5461 168.284,-86.5461"/>
<polygon fill="midnightblue" stroke="midnightblue" points="168.444,-90.0462 178.444,-86.5461 168.443,-83.0462 168.444,-90.0462"/>
</g>
<!-- Node3 -->
<g id="node3" class="node"><title>Node3</title>
<g id="a_node3"><a xlink:href="class_net___d_n_s___resolver.html#ac1cd50ed973dab9de9d875ce7c4b79f7" target="_top" xlink:title="Requests the next RR from a existing transfer started with axfr_start. ">
<polygon fill="white" stroke="black" points="338.417,-154.546 338.417,-174.546 485.583,-174.546 485.583,-154.546 338.417,-154.546"/>
<text text-anchor="middle" x="412" y="-160.546" font-family="Helvetica,sans-Serif" font-size="10.00">Net_DNS_Resolver\axfr_next</text>
</a>
</g>
</g>
<!-- Node2&#45;&gt;Node3 -->
<g id="edge2" class="edge"><title>Node2&#45;&gt;Node3</title>
<path fill="none" stroke="midnightblue" d="M255.131,-96.6835C273.456,-109.423 306.777,-131.229 338,-144.546 343.949,-147.083 350.309,-149.384 356.702,-151.446"/>
<polygon fill="midnightblue" stroke="midnightblue" points="356.135,-154.932 366.721,-154.489 358.169,-148.234 356.135,-154.932"/>
</g>
<!-- Node5 -->
<g id="node5" class="node"><title>Node5</title>
<g id="a_node5"><a xlink:href="class_net___d_n_s___resolver.html#a068e8e173ff40d4a3b74193792bed4e0" target="_top" xlink:title="Sends a packet via TCP to the list of name servers. ">
<polygon fill="white" stroke="black" points="350.648,-25.5461 350.648,-57.5461 473.352,-57.5461 473.352,-25.5461 350.648,-25.5461"/>
<text text-anchor="start" x="358.648" y="-43.5461" font-family="Helvetica,sans-Serif" font-size="10.00">Net_DNS_Resolver\axfr</text>
<text text-anchor="middle" x="412" y="-31.5461" font-family="Helvetica,sans-Serif" font-size="10.00">_start</text>
</a>
</g>
</g>
<!-- Node2&#45;&gt;Node5 -->
<g id="edge4" class="edge"><title>Node2&#45;&gt;Node5</title>
<path fill="none" stroke="midnightblue" d="M279.151,-76.4472C297.321,-71.6376 319.644,-65.7285 340.721,-60.1492"/>
<polygon fill="midnightblue" stroke="midnightblue" points="341.849,-63.4714 350.62,-57.5289 340.058,-56.7044 341.849,-63.4714"/>
</g>
<!-- Node12 -->
<g id="node12" class="node"><title>Node12</title>
<g id="a_node12"><a xlink:href="class_net___d_n_s___resolver.html#a6162ddba85ce36cdf7d8df7ff32161e0" target="_top" xlink:title="Unknown. ">
<polygon fill="white" stroke="black" points="538.756,-3.54606 538.756,-35.5461 669.244,-35.5461 669.244,-3.54606 538.756,-3.54606"/>
<text text-anchor="start" x="546.756" y="-21.5461" font-family="Helvetica,sans-Serif" font-size="10.00">Net_DNS_Resolver\make</text>
<text text-anchor="middle" x="604" y="-9.54606" font-family="Helvetica,sans-Serif" font-size="10.00">_query_packet</text>
</a>
</g>
</g>
<!-- Node2&#45;&gt;Node12 -->
<g id="edge14" class="edge"><title>Node2&#45;&gt;Node12</title>
<path fill="none" stroke="midnightblue" d="M250.257,-76.4953C266.246,-59.9668 300.906,-27.6713 338,-15.5461 399.836,4.66657 474.201,1.33238 528.395,-5.70448"/>
<polygon fill="midnightblue" stroke="midnightblue" points="528.23,-9.21456 538.613,-7.10587 529.181,-2.27948 528.23,-9.21456"/>
</g>
<!-- Node6 -->
<g id="node6" class="node"><title>Node6</title>
<g id="a_node6"><a xlink:href="class_net___d_n_s___resolver.html#a3bf22a7a58480dd7a6fd0dd17807fc70" target="_top" xlink:title="Gets or sets the nameservers to be queried. ">
<polygon fill="white" stroke="black" points="522.084,-76.5461 522.084,-96.5461 685.916,-96.5461 685.916,-76.5461 522.084,-76.5461"/>
<text text-anchor="middle" x="604" y="-82.5461" font-family="Helvetica,sans-Serif" font-size="10.00">Net_DNS_Resolver\nameservers</text>
</a>
</g>
</g>
<!-- Node2&#45;&gt;Node6 -->
<g id="edge15" class="edge"><title>Node2&#45;&gt;Node6</title>
<path fill="none" stroke="midnightblue" d="M301.591,-86.5461C358.907,-86.5461 445.704,-86.5461 511.459,-86.5461"/>
<polygon fill="midnightblue" stroke="midnightblue" points="511.824,-90.0462 521.824,-86.5461 511.824,-83.0462 511.824,-90.0462"/>
</g>
<!-- Node13 -->
<g id="node13" class="node"><title>Node13</title>
<g id="a_node13"><a xlink:href="class_net___d_n_s___resolver.html#a5ff32917a5f06e5eba819c0fb4e7196a" target="_top" xlink:title="Sends a packet via TCP to the list of name servers. ">
<polygon fill="white" stroke="black" points="338.69,-115.546 338.69,-135.546 485.31,-135.546 485.31,-115.546 338.69,-115.546"/>
<text text-anchor="middle" x="412" y="-121.546" font-family="Helvetica,sans-Serif" font-size="10.00">Net_DNS_Resolver\send_tcp</text>
</a>
</g>
</g>
<!-- Node2&#45;&gt;Node13 -->
<g id="edge16" class="edge"><title>Node2&#45;&gt;Node13</title>
<path fill="none" stroke="midnightblue" d="M284.779,-96.5895C306.988,-101.685 334.151,-107.916 357.581,-113.291"/>
<polygon fill="midnightblue" stroke="midnightblue" points="356.84,-116.712 367.369,-115.537 358.405,-109.889 356.84,-116.712"/>
</g>
<!-- Node4 -->
<g id="node4" class="node"><title>Node4</title>
<g id="a_node4"><a xlink:href="class_net___d_n_s___resolver.html#acefe3ee751a310500df64b3ead5a07bc" target="_top" xlink:title="Unknown &#45; not ported yet. ">
<polygon fill="white" stroke="black" points="531.525,-154.546 531.525,-174.546 676.475,-174.546 676.475,-154.546 531.525,-154.546"/>
<text text-anchor="middle" x="604" y="-160.546" font-family="Helvetica,sans-Serif" font-size="10.00">Net_DNS_Resolver\read_tcp</text>
</a>
</g>
</g>
<!-- Node3&#45;&gt;Node4 -->
<g id="edge3" class="edge"><title>Node3&#45;&gt;Node4</title>
<path fill="none" stroke="midnightblue" d="M485.644,-164.546C497.231,-164.546 509.288,-164.546 521.072,-164.546"/>
<polygon fill="midnightblue" stroke="midnightblue" points="521.338,-168.046 531.338,-164.546 521.338,-161.046 521.338,-168.046"/>
</g>
<!-- Node5&#45;&gt;Node6 -->
<g id="edge5" class="edge"><title>Node5&#45;&gt;Node6</title>
<path fill="none" stroke="midnightblue" d="M473.378,-55.8462C498.194,-61.7236 526.661,-68.4657 550.584,-74.1318"/>
<polygon fill="midnightblue" stroke="midnightblue" points="549.998,-77.5897 560.535,-76.4887 551.611,-70.7781 549.998,-77.5897"/>
</g>
<!-- Node5&#45;&gt;Node12 -->
<g id="edge13" class="edge"><title>Node5&#45;&gt;Node12</title>
<path fill="none" stroke="midnightblue" d="M473.378,-34.5549C490.89,-32.5272 510.219,-30.2891 528.488,-28.1738"/>
<polygon fill="midnightblue" stroke="midnightblue" points="528.978,-31.6404 538.51,-27.0134 528.173,-24.6869 528.978,-31.6404"/>
</g>
<!-- Node7 -->
<g id="node7" class="node"><title>Node7</title>
<g id="a_node7"><a xlink:href="class_net___d_n_s___resolver.html#a4358663ec326e406c398f6cb09bd5544" target="_top" xlink:title="Initializes the Resolver Object. ">
<polygon fill="white" stroke="black" points="742.202,-48.5461 742.202,-80.5461 863.798,-80.5461 863.798,-48.5461 742.202,-48.5461"/>
<text text-anchor="start" x="750.202" y="-66.5461" font-family="Helvetica,sans-Serif" font-size="10.00">Net_DNS_Resolver\Net</text>
<text text-anchor="middle" x="803" y="-54.5461" font-family="Helvetica,sans-Serif" font-size="10.00">_DNS_Resolver</text>
</a>
</g>
</g>
<!-- Node6&#45;&gt;Node7 -->
<g id="edge6" class="edge"><title>Node6&#45;&gt;Node7</title>
<path fill="none" stroke="midnightblue" d="M685.98,-77.5026C701.242,-75.7982 717.084,-74.0291 731.976,-72.366"/>
<polygon fill="midnightblue" stroke="midnightblue" points="732.565,-75.8221 742.115,-71.2338 731.788,-68.8653 732.565,-75.8221"/>
</g>
<!-- Node11 -->
<g id="node11" class="node"><title>Node11</title>
<g id="a_node11"><a xlink:href="class_net___d_n_s___resolver.html#ae1bb14089519fe774d025156114aae4f" target="_top" xlink:title="Net_DNS_Resolver\\cname_addr">
<polygon fill="white" stroke="black" points="722.188,-99.5461 722.188,-119.546 883.812,-119.546 883.812,-99.5461 722.188,-99.5461"/>
<text text-anchor="middle" x="803" y="-105.546" font-family="Helvetica,sans-Serif" font-size="10.00">Net_DNS_Resolver\cname_addr</text>
</a>
</g>
</g>
<!-- Node6&#45;&gt;Node11 -->
<g id="edge12" class="edge"><title>Node6&#45;&gt;Node11</title>
<path fill="none" stroke="midnightblue" d="M685.98,-96.0006C694.523,-96.998 703.248,-98.0166 711.886,-99.0251"/>
<polygon fill="midnightblue" stroke="midnightblue" points="711.632,-102.519 721.97,-100.202 712.444,-95.5664 711.632,-102.519"/>
</g>
<!-- Node8 -->
<g id="node8" class="node"><title>Node8</title>
<g id="a_node8"><a xlink:href="class_net___d_n_s___resolver.html#aa2e8d58074354b1f9292500119470431" target="_top" xlink:title="Initalizes the resolver library. ">
<polygon fill="white" stroke="black" points="919.865,-54.5461 919.865,-74.5461 1058.14,-74.5461 1058.14,-54.5461 919.865,-54.5461"/>
<text text-anchor="middle" x="989" y="-60.5461" font-family="Helvetica,sans-Serif" font-size="10.00">Net_DNS_Resolver\res_init</text>
</a>
</g>
</g>
<!-- Node7&#45;&gt;Node8 -->
<g id="edge7" class="edge"><title>Node7&#45;&gt;Node8</title>
<path fill="none" stroke="midnightblue" d="M863.994,-64.5461C878.479,-64.5461 894.174,-64.5461 909.372,-64.5461"/>
<polygon fill="midnightblue" stroke="midnightblue" points="909.793,-68.0462 919.793,-64.5461 909.793,-61.0462 909.793,-68.0462"/>
</g>
<!-- Node9 -->
<g id="node9" class="node"><title>Node9</title>
<g id="a_node9"><a xlink:href="class_net___d_n_s___resolver.html#ae4def11574ad6e93176670c726541bed" target="_top" xlink:title="Reads and parses a resolver configuration file. ">
<polygon fill="white" stroke="black" points="1104.98,-101.546 1104.98,-133.546 1231.02,-133.546 1231.02,-101.546 1104.98,-101.546"/>
<text text-anchor="start" x="1112.98" y="-119.546" font-family="Helvetica,sans-Serif" font-size="10.00">Net_DNS_Resolver\read</text>
<text text-anchor="middle" x="1168" y="-107.546" font-family="Helvetica,sans-Serif" font-size="10.00">_config</text>
</a>
</g>
</g>
<!-- Node8&#45;&gt;Node9 -->
<g id="edge8" class="edge"><title>Node8&#45;&gt;Node9</title>
<path fill="none" stroke="midnightblue" d="M1023.71,-74.6397C1046.22,-81.3805 1076.53,-90.4562 1103.48,-98.5246"/>
<polygon fill="midnightblue" stroke="midnightblue" points="1102.65,-101.93 1113.23,-101.445 1104.65,-95.2238 1102.65,-101.93"/>
</g>
<!-- Node10 -->
<g id="node10" class="node"><title>Node10</title>
<g id="a_node10"><a xlink:href="class_net___d_n_s___resolver.html#a2a3d25c5dd2b1810b60ad05b84787855" target="_top" xlink:title="Examines the environment for resolver config information. ">
<polygon fill="white" stroke="black" points="1094.13,-31.5461 1094.13,-51.5461 1241.87,-51.5461 1241.87,-31.5461 1094.13,-31.5461"/>
<text text-anchor="middle" x="1168" y="-37.5461" font-family="Helvetica,sans-Serif" font-size="10.00">Net_DNS_Resolver\read_env</text>
</a>
</g>
</g>
<!-- Node8&#45;&gt;Node10 -->
<g id="edge10" class="edge"><title>Node8&#45;&gt;Node10</title>
<path fill="none" stroke="midnightblue" d="M1058.18,-55.6866C1066.58,-54.5951 1075.24,-53.4701 1083.83,-52.3538"/>
<polygon fill="midnightblue" stroke="midnightblue" points="1084.4,-55.8094 1093.86,-51.0499 1083.49,-48.8678 1084.4,-55.8094"/>
</g>
<!-- Node9&#45;&gt;Node6 -->
<g id="edge9" class="edge"><title>Node9&#45;&gt;Node6</title>
<path fill="none" stroke="midnightblue" d="M1104.89,-126.696C1018.36,-137.723 856.951,-152.034 722,-128.546 691.489,-123.236 658.421,-110.682 635.249,-100.674"/>
<polygon fill="midnightblue" stroke="midnightblue" points="636.522,-97.4097 625.961,-96.5688 633.693,-103.812 636.522,-97.4097"/>
</g>
<!-- Node10&#45;&gt;Node6 -->
<g id="edge11" class="edge"><title>Node10&#45;&gt;Node6</title>
<path fill="none" stroke="midnightblue" d="M1094.1,-32.1979C1005.27,-22.8283 851.049,-13.1035 722,-38.5461 689.958,-44.8633 655.65,-60.0452 632.528,-71.6572"/>
<polygon fill="midnightblue" stroke="midnightblue" points="630.636,-68.6943 623.342,-76.3789 633.836,-74.9199 630.636,-68.6943"/>
</g>
<!-- Node13&#45;&gt;Node6 -->
<g id="edge17" class="edge"><title>Node13&#45;&gt;Node6</title>
<path fill="none" stroke="midnightblue" d="M461.93,-115.503C487.084,-110.339 517.924,-104.009 544.347,-98.5854"/>
<polygon fill="midnightblue" stroke="midnightblue" points="545.144,-101.995 554.236,-96.5555 543.737,-95.1378 545.144,-101.995"/>
</g>
</g>
</svg>
