<?xml version="1.0" encoding="UTF-8" standalone="no"?>
<!DOCTYPE svg PUBLIC "-//W3C//DTD SVG 1.1//EN"
 "http://www.w3.org/Graphics/SVG/1.1/DTD/svg11.dtd">
<!-- Generated by graphviz version 2.30.1 (20130221.2233)
 -->
<!-- Title: Net_DNS_Resolver\send_udp Pages: 1 -->
<svg width="848pt" height="28pt"
 viewBox="0.00 0.00 848.00 28.00" xmlns="http://www.w3.org/2000/svg" xmlns:xlink="http://www.w3.org/1999/xlink">
<g id="graph0" class="graph" transform="scale(1 1) rotate(0) translate(4 24)">
<title>Net_DNS_Resolver\send_udp</title>
<polygon fill="white" stroke="white" points="-4,5 -4,-24 845,-24 845,5 -4,5"/>
<!-- Node1 -->
<g id="node1" class="node"><title>Node1</title>
<polygon fill="#bfbfbf" stroke="black" points="0.0175781,-0 0.0175781,-20 149.982,-20 149.982,-0 0.0175781,-0"/>
<text text-anchor="middle" x="75" y="-6" font-family="Helvetica,sans-Serif" font-size="10.00">Net_DNS_Resolver\send_udp</text>
</g>
<!-- Node2 -->
<g id="node2" class="node"><title>Node2</title>
<g id="a_node2"><a xlink:href="class_net___d_n_s___resolver.html#aaabc96cbbb5bce627d31583d0e6af3d5" target="_top" xlink:title="Sends a packet to a nameserver. ">
<polygon fill="white" stroke="black" points="186.141,-0 186.141,-20 313.859,-20 313.859,-0 186.141,-0"/>
<text text-anchor="middle" x="250" y="-6" font-family="Helvetica,sans-Serif" font-size="10.00">Net_DNS_Resolver\send</text>
</a>
</g>
</g>
<!-- Node1&#45;&gt;Node2 -->
<g id="edge1" class="edge"><title>Node1&#45;&gt;Node2</title>
<path fill="none" stroke="midnightblue" d="M160.235,-10C168.881,-10 177.557,-10 185.917,-10"/>
<polygon fill="midnightblue" stroke="midnightblue" points="160.12,-6.5001 150.12,-10 160.12,-13.5001 160.12,-6.5001"/>
</g>
<!-- Node3 -->
<g id="node3" class="node"><title>Node3</title>
<g id="a_node3"><a xlink:href="class_net___d_n_s___resolver.html#ab00f28a838dbaebffe986b2fb81b4e8f" target="_top" xlink:title="Queries nameservers for an answer. ">
<polygon fill="white" stroke="black" points="350.311,-0 350.311,-20 499.689,-20 499.689,-0 350.311,-0"/>
<text text-anchor="middle" x="425" y="-6" font-family="Helvetica,sans-Serif" font-size="10.00">Net_DNS_Resolver\rawQuery</text>
</a>
</g>
</g>
<!-- Node2&#45;&gt;Node3 -->
<g id="edge2" class="edge"><title>Node2&#45;&gt;Node3</title>
<path fill="none" stroke="midnightblue" d="M324.02,-10C332.691,-10 341.548,-10 350.231,-10"/>
<polygon fill="midnightblue" stroke="midnightblue" points="323.946,-6.5001 313.946,-10 323.946,-13.5001 323.946,-6.5001"/>
</g>
<!-- Node4 -->
<g id="node4" class="node"><title>Node4</title>
<g id="a_node4"><a xlink:href="class_net___d_n_s___resolver.html#a433200f56099815168ddd63a715e8ac5" target="_top" xlink:title="Queries nameservers for an answer. ">
<polygon fill="white" stroke="black" points="536.476,-0 536.476,-20 667.524,-20 667.524,-0 536.476,-0"/>
<text text-anchor="middle" x="602" y="-6" font-family="Helvetica,sans-Serif" font-size="10.00">Net_DNS_Resolver\query</text>
</a>
</g>
</g>
<!-- Node3&#45;&gt;Node4 -->
<g id="edge3" class="edge"><title>Node3&#45;&gt;Node4</title>
<path fill="none" stroke="midnightblue" d="M509.732,-10C518.647,-10 527.614,-10 536.262,-10"/>
<polygon fill="midnightblue" stroke="midnightblue" points="509.709,-6.5001 499.709,-10 509.709,-13.5001 509.709,-6.5001"/>
</g>
<!-- Node5 -->
<g id="node5" class="node"><title>Node5</title>
<g id="a_node5"><a xlink:href="class_net___d_n_s___resolver.html#a13ee3a449b00b1a0e2f36bb1404e4291" target="_top" xlink:title="Searches nameservers for an answer. ">
<polygon fill="white" stroke="black" points="703.976,-0 703.976,-20 840.024,-20 840.024,-0 703.976,-0"/>
<text text-anchor="middle" x="772" y="-6" font-family="Helvetica,sans-Serif" font-size="10.00">Net_DNS_Resolver\search</text>
</a>
</g>
</g>
<!-- Node4&#45;&gt;Node5 -->
<g id="edge4" class="edge"><title>Node4&#45;&gt;Node5</title>
<path fill="none" stroke="midnightblue" d="M678.23,-10C686.723,-10 695.337,-10 703.72,-10"/>
<polygon fill="midnightblue" stroke="midnightblue" points="677.953,-6.5001 667.953,-10 677.953,-13.5001 677.953,-6.5001"/>
</g>
</g>
</svg>
