<?xml version="1.0" encoding="UTF-8" standalone="no"?>
<!DOCTYPE svg PUBLIC "-//W3C//DTD SVG 1.1//EN"
 "http://www.w3.org/Graphics/SVG/1.1/DTD/svg11.dtd">
<!-- Generated by graphviz version 2.30.1 (20130221.2233)
 -->
<!-- Title: Ctct\Services\CampaignTrackingService\getUnsubscribes Pages: 1 -->
<svg width="344pt" height="130pt"
 viewBox="0.00 0.00 344.00 130.00" xmlns="http://www.w3.org/2000/svg" xmlns:xlink="http://www.w3.org/1999/xlink">
<g id="graph0" class="graph" transform="scale(1 1) rotate(0) translate(4 126)">
<title>Ctct\Services\CampaignTrackingService\getUnsubscribes</title>
<polygon fill="white" stroke="white" points="-4,5 -4,-126 341,-126 341,5 -4,5"/>
<!-- Node1 -->
<g id="node1" class="node"><title>Node1</title>
<polygon fill="#bfbfbf" stroke="black" points="0.380371,-39 0.380371,-71 161.62,-71 161.62,-39 0.380371,-39"/>
<text text-anchor="start" x="8.38037" y="-57" font-family="Helvetica,sans-Serif" font-size="10.00">Ctct\Services\CampaignTracking</text>
<text text-anchor="middle" x="81" y="-45" font-family="Helvetica,sans-Serif" font-size="10.00">Service\getUnsubscribes</text>
</g>
<!-- Node2 -->
<g id="node2" class="node"><title>Node2</title>
<g id="a_node2"><a xlink:href="class_ctct_1_1_services_1_1_base_service.html#a682b3692a73a009ec026442110cf968e" target="_top" xlink:title="Build a URL from a base url and optional array of query parameters to append to the url...">
<polygon fill="white" stroke="black" points="200.091,-90 200.091,-122 333.909,-122 333.909,-90 200.091,-90"/>
<text text-anchor="start" x="208.091" y="-108" font-family="Helvetica,sans-Serif" font-size="10.00">Ctct\Services\BaseService</text>
<text text-anchor="middle" x="267" y="-96" font-family="Helvetica,sans-Serif" font-size="10.00">\buildUrl</text>
</a>
</g>
</g>
<!-- Node1&#45;&gt;Node2 -->
<g id="edge1" class="edge"><title>Node1&#45;&gt;Node2</title>
<path fill="none" stroke="midnightblue" d="M139.966,-71.0667C158.445,-76.1886 179.056,-81.9015 198.17,-87.1993"/>
<polygon fill="midnightblue" stroke="midnightblue" points="197.438,-90.6282 208.009,-89.9264 199.307,-83.8825 197.438,-90.6282"/>
</g>
<!-- Node3 -->
<g id="node3" class="node"><title>Node3</title>
<g id="a_node3"><a xlink:href="class_ctct_1_1_components_1_1_tracking_1_1_unsubscribe_activity.html#a4a4403ae4f018f5699a0c4111352476b" target="_top" xlink:title="Factory method to create an OptOutActivity object from an array. ">
<polygon fill="white" stroke="black" points="198.7,-39 198.7,-71 335.3,-71 335.3,-39 198.7,-39"/>
<text text-anchor="start" x="206.7" y="-57" font-family="Helvetica,sans-Serif" font-size="10.00">Ctct\Components\Tracking</text>
<text text-anchor="middle" x="267" y="-45" font-family="Helvetica,sans-Serif" font-size="10.00">\UnsubscribeActivity\create</text>
</a>
</g>
</g>
<!-- Node1&#45;&gt;Node3 -->
<g id="edge2" class="edge"><title>Node1&#45;&gt;Node3</title>
<path fill="none" stroke="midnightblue" d="M161.635,-55C170.501,-55 179.522,-55 188.363,-55"/>
<polygon fill="midnightblue" stroke="midnightblue" points="188.637,-58.5001 198.637,-55 188.637,-51.5001 188.637,-58.5001"/>
</g>
<!-- Node4 -->
<g id="node4" class="node"><title>Node4</title>
<g id="a_node4"><a xlink:href="class_ctct_1_1_util_1_1_config.html#ab224fae1ce1a1993c1ac42c708dc7de9" target="_top" xlink:title="Get a configuration property given a specified location, example usage: Config::get(&#39;auth.token_endpoint&#39;) ">
<polygon fill="white" stroke="black" points="217.318,-0 217.318,-20 316.682,-20 316.682,-0 217.318,-0"/>
<text text-anchor="middle" x="267" y="-6" font-family="Helvetica,sans-Serif" font-size="10.00">Ctct\Util\Config\get</text>
</a>
</g>
</g>
<!-- Node1&#45;&gt;Node4 -->
<g id="edge3" class="edge"><title>Node1&#45;&gt;Node4</title>
<path fill="none" stroke="midnightblue" d="M147.649,-38.9445C169.822,-33.5217 194.226,-27.5534 215.084,-22.4522"/>
<polygon fill="midnightblue" stroke="midnightblue" points="216.131,-25.7994 225.014,-20.0239 214.468,-18.9998 216.131,-25.7994"/>
</g>
</g>
</svg>
