<?xml version="1.0" encoding="UTF-8" standalone="no"?>
<!DOCTYPE svg PUBLIC "-//W3C//DTD SVG 1.1//EN"
 "http://www.w3.org/Graphics/SVG/1.1/DTD/svg11.dtd">
<!-- Generated by graphviz version 2.30.1 (20130221.2233)
 -->
<!-- Title: lib Pages: 1 -->
<svg width="454pt" height="76pt"
 viewBox="0.00 0.00 454.00 76.00" xmlns="http://www.w3.org/2000/svg" xmlns:xlink="http://www.w3.org/1999/xlink">
<g id="graph0" class="graph" transform="scale(1 1) rotate(0) translate(4 72)">
<title>lib</title>
<polygon fill="white" stroke="white" points="-4,5 -4,-72 451,-72 451,5 -4,5"/>
<g id="clust1" class="cluster"><title>clusterdir_1da4270117b7b4041d4491270373a02b</title>
<g id="a_clust1"><a xlink:href="dir_1da4270117b7b4041d4491270373a02b.html" target="_top">
<polygon fill="#eeeeff" stroke="black" points="8,-8 8,-60 438,-60 438,-8 8,-8"/>
</a>
</g>
</g>
<!-- dir_1da4270117b7b4041d4491270373a02b -->
<g id="node1" class="node"><title>dir_1da4270117b7b4041d4491270373a02b</title>
<text text-anchor="middle" x="403" y="-30" font-family="Helvetica,sans-Serif" font-size="10.00">lib</text>
</g>
<!-- dir_bbf841ba2ebda4acfd1ddfe073f262d7 -->
<g id="node2" class="node"><title>dir_bbf841ba2ebda4acfd1ddfe073f262d7</title>
<g id="a_node2"><a xlink:href="dir_bbf841ba2ebda4acfd1ddfe073f262d7.html" target="_top" xlink:title="constant&#45;analytics">
<polygon fill="white" stroke="black" points="358.029,-52 261.971,-52 261.971,-16 358.029,-16 358.029,-52"/>
<text text-anchor="middle" x="310" y="-30" font-family="Helvetica,sans-Serif" font-size="10.00">constant&#45;analytics</text>
</a>
</g>
</g>
<!-- dir_e3fa7edd72d5150bbaebb846ef8da0d5 -->
<g id="node3" class="node"><title>dir_e3fa7edd72d5150bbaebb846ef8da0d5</title>
<g id="a_node3"><a xlink:href="dir_e3fa7edd72d5150bbaebb846ef8da0d5.html" target="_top" xlink:title="Ctct">
<polygon fill="white" stroke="red" points="244,-52 190,-52 190,-16 244,-16 244,-52"/>
<text text-anchor="middle" x="217" y="-30" font-family="Helvetica,sans-Serif" font-size="10.00">Ctct</text>
</a>
</g>
</g>
<!-- dir_f2449522035e263841afc52939e742cf -->
<g id="node4" class="node"><title>dir_f2449522035e263841afc52939e742cf</title>
<g id="a_node4"><a xlink:href="dir_f2449522035e263841afc52939e742cf.html" target="_top" xlink:title="eventspot">
<polygon fill="white" stroke="red" points="171.522,-52 112.478,-52 112.478,-16 171.522,-16 171.522,-52"/>
<text text-anchor="middle" x="142" y="-30" font-family="Helvetica,sans-Serif" font-size="10.00">eventspot</text>
</a>
</g>
</g>
<!-- dir_e8d5c2f72da7f56e29f1cffbc2f5386e -->
<g id="node5" class="node"><title>dir_e8d5c2f72da7f56e29f1cffbc2f5386e</title>
<g id="a_node5"><a xlink:href="dir_e8d5c2f72da7f56e29f1cffbc2f5386e.html" target="_top" xlink:title="form&#45;designer">
<polygon fill="white" stroke="red" points="93.2694,-52 16.7306,-52 16.7306,-16 93.2694,-16 93.2694,-52"/>
<text text-anchor="middle" x="55" y="-30" font-family="Helvetica,sans-Serif" font-size="10.00">form&#45;designer</text>
</a>
</g>
</g>
</g>
</svg>
