<?xml version="1.0" encoding="UTF-8" standalone="no"?>
<!DOCTYPE svg PUBLIC "-//W3C//DTD SVG 1.1//EN"
 "http://www.w3.org/Graphics/SVG/1.1/DTD/svg11.dtd">
<!-- Generated by graphviz version 2.30.1 (20130221.2233)
 -->
<!-- Title: messages Pages: 1 -->
<svg width="262pt" height="112pt"
 viewBox="0.00 0.00 262.00 112.00" xmlns="http://www.w3.org/2000/svg" xmlns:xlink="http://www.w3.org/1999/xlink">
<g id="graph0" class="graph" transform="scale(1 1) rotate(0) translate(4 108)">
<title>messages</title>
<polygon fill="white" stroke="white" points="-4,5 -4,-108 259,-108 259,5 -4,5"/>
<g id="clust1" class="cluster"><title>clusterdir_796f21bd823e1564567256466e798b68</title>
<g id="a_clust1"><a xlink:href="dir_796f21bd823e1564567256466e798b68.html" target="_top" xlink:title="select2">
<polygon fill="#ddddee" stroke="black" points="8,-8 8,-96 246,-96 246,-8 8,-8"/>
<text text-anchor="middle" x="127" y="-82" font-family="Helvetica,sans-Serif" font-size="10.00">select2</text>
</a>
</g>
</g>
<g id="clust2" class="cluster"><title>clusterdir_463291225d9b93f4468ad732bcf431a3</title>
<g id="a_clust2"><a xlink:href="dir_463291225d9b93f4468ad732bcf431a3.html" target="_top">
<polygon fill="#eeeeff" stroke="black" points="16,-16 16,-68 238,-68 238,-16 16,-16"/>
</a>
</g>
</g>
<!-- dir_463291225d9b93f4468ad732bcf431a3 -->
<g id="node1" class="node"><title>dir_463291225d9b93f4468ad732bcf431a3</title>
<text text-anchor="middle" x="199" y="-38" font-family="Helvetica,sans-Serif" font-size="10.00">messages</text>
</g>
<!-- dir_8b95a8ce4b81e424853853d6587926be -->
<g id="node2" class="node"><title>dir_8b95a8ce4b81e424853853d6587926be</title>
<g id="a_node2"><a xlink:href="dir_8b95a8ce4b81e424853853d6587926be.html" target="_top" xlink:title="id">
<polygon fill="white" stroke="black" points="150,-60 96,-60 96,-24 150,-24 150,-60"/>
<text text-anchor="middle" x="123" y="-38" font-family="Helvetica,sans-Serif" font-size="10.00">id</text>
</a>
</g>
</g>
<!-- dir_683b8b60415676d782fc309d298c5206 -->
<g id="node3" class="node"><title>dir_683b8b60415676d782fc309d298c5206</title>
<g id="a_node3"><a xlink:href="dir_683b8b60415676d782fc309d298c5206.html" target="_top" xlink:title="pl">
<polygon fill="white" stroke="black" points="78,-60 24,-60 24,-24 78,-24 78,-60"/>
<text text-anchor="middle" x="51" y="-38" font-family="Helvetica,sans-Serif" font-size="10.00">pl</text>
</a>
</g>
</g>
</g>
</svg>
