<?xml version="1.0" encoding="UTF-8" standalone="no"?>
<!DOCTYPE svg PUBLIC "-//W3C//DTD SVG 1.1//EN"
 "http://www.w3.org/Graphics/SVG/1.1/DTD/svg11.dtd">
<!-- Generated by graphviz version 2.30.1 (20130221.2233)
 -->
<!-- Title: constantcontact Pages: 1 -->
<svg width="362pt" height="112pt"
 viewBox="0.00 0.00 362.00 112.00" xmlns="http://www.w3.org/2000/svg" xmlns:xlink="http://www.w3.org/1999/xlink">
<g id="graph0" class="graph" transform="scale(1 1) rotate(0) translate(4 108)">
<title>constantcontact</title>
<polygon fill="white" stroke="white" points="-4,5 -4,-108 359,-108 359,5 -4,5"/>
<g id="clust1" class="cluster"><title>clusterdir_0faafcdc02cd99f36c04f9e30c9d9aa5</title>
<g id="a_clust1"><a xlink:href="dir_0faafcdc02cd99f36c04f9e30c9d9aa5.html" target="_top" xlink:title="constantcontact">
<polygon fill="#ddddee" stroke="black" points="8,-8 8,-96 346,-96 346,-8 8,-8"/>
<text text-anchor="middle" x="177" y="-82" font-family="Helvetica,sans-Serif" font-size="10.00">constantcontact</text>
</a>
</g>
</g>
<g id="clust2" class="cluster"><title>clusterdir_57ebdb077a0b98b3b0326c21b9886d44</title>
<g id="a_clust2"><a xlink:href="dir_57ebdb077a0b98b3b0326c21b9886d44.html" target="_top">
<polygon fill="#eeeeff" stroke="black" points="16,-16 16,-68 338,-68 338,-16 16,-16"/>
</a>
</g>
</g>
<!-- dir_57ebdb077a0b98b3b0326c21b9886d44 -->
<g id="node1" class="node"><title>dir_57ebdb077a0b98b3b0326c21b9886d44</title>
<text text-anchor="middle" x="287" y="-38" font-family="Helvetica,sans-Serif" font-size="10.00">constantcontact</text>
</g>
<!-- dir_086fdd058d6a9700bc0103f07a942b9b -->
<g id="node2" class="node"><title>dir_086fdd058d6a9700bc0103f07a942b9b</title>
<g id="a_node2"><a xlink:href="dir_086fdd058d6a9700bc0103f07a942b9b.html" target="_top" xlink:title="examples">
<polygon fill="white" stroke="black" points="226.099,-60 167.901,-60 167.901,-24 226.099,-24 226.099,-60"/>
<text text-anchor="middle" x="197" y="-38" font-family="Helvetica,sans-Serif" font-size="10.00">examples</text>
</a>
</g>
</g>
<!-- dir_ec2bf1181596f75d518d9ef845b43474 -->
<g id="node3" class="node"><title>dir_ec2bf1181596f75d518d9ef845b43474</title>
<g id="a_node3"><a xlink:href="dir_ec2bf1181596f75d518d9ef845b43474.html" target="_top" xlink:title="src">
<polygon fill="white" stroke="red" points="150,-60 96,-60 96,-24 150,-24 150,-60"/>
<text text-anchor="middle" x="123" y="-38" font-family="Helvetica,sans-Serif" font-size="10.00">src</text>
</a>
</g>
</g>
<!-- dir_149fa61466a57462d0c5d703cbee214d -->
<g id="node4" class="node"><title>dir_149fa61466a57462d0c5d703cbee214d</title>
<g id="a_node4"><a xlink:href="dir_149fa61466a57462d0c5d703cbee214d.html" target="_top" xlink:title="test">
<polygon fill="white" stroke="red" points="78,-60 24,-60 24,-24 78,-24 78,-60"/>
<text text-anchor="middle" x="51" y="-38" font-family="Helvetica,sans-Serif" font-size="10.00">test</text>
</a>
</g>
</g>
</g>
</svg>
