<?xml version="1.0" encoding="UTF-8" standalone="no"?>
<!DOCTYPE svg PUBLIC "-//W3C//DTD SVG 1.1//EN"
 "http://www.w3.org/Graphics/SVG/1.1/DTD/svg11.dtd">
<!-- Generated by graphviz version 2.30.1 (20130221.2233)
 -->
<!-- Title: lib Pages: 1 -->
<svg width="630pt" height="76pt"
 viewBox="0.00 0.00 630.00 76.00" xmlns="http://www.w3.org/2000/svg" xmlns:xlink="http://www.w3.org/1999/xlink">
<g id="graph0" class="graph" transform="scale(1 1) rotate(0) translate(4 72)">
<title>lib</title>
<polygon fill="white" stroke="white" points="-4,5 -4,-72 627,-72 627,5 -4,5"/>
<g id="clust1" class="cluster"><title>clusterdir_1da4270117b7b4041d4491270373a02b</title>
<g id="a_clust1"><a xlink:href="dir_1da4270117b7b4041d4491270373a02b.html" target="_top">
<polygon fill="#eeeeff" stroke="black" points="8,-8 8,-60 614,-60 614,-8 8,-8"/>
</a>
</g>
</g>
<!-- dir_1da4270117b7b4041d4491270373a02b -->
<g id="node1" class="node"><title>dir_1da4270117b7b4041d4491270373a02b</title>
<text text-anchor="middle" x="579" y="-30" font-family="Helvetica,sans-Serif" font-size="10.00">lib</text>
</g>
<!-- dir_bbf841ba2ebda4acfd1ddfe073f262d7 -->
<g id="node2" class="node"><title>dir_bbf841ba2ebda4acfd1ddfe073f262d7</title>
<g id="a_node2"><a xlink:href="dir_bbf841ba2ebda4acfd1ddfe073f262d7.html" target="_top" xlink:title="constant&#45;analytics">
<polygon fill="white" stroke="black" points="534.029,-52 437.971,-52 437.971,-16 534.029,-16 534.029,-52"/>
<text text-anchor="middle" x="486" y="-30" font-family="Helvetica,sans-Serif" font-size="10.00">constant&#45;analytics</text>
</a>
</g>
</g>
<!-- dir_e3fa7edd72d5150bbaebb846ef8da0d5 -->
<g id="node3" class="node"><title>dir_e3fa7edd72d5150bbaebb846ef8da0d5</title>
<g id="a_node3"><a xlink:href="dir_e3fa7edd72d5150bbaebb846ef8da0d5.html" target="_top" xlink:title="Ctct">
<polygon fill="white" stroke="red" points="420,-52 366,-52 366,-16 420,-16 420,-52"/>
<text text-anchor="middle" x="393" y="-30" font-family="Helvetica,sans-Serif" font-size="10.00">Ctct</text>
</a>
</g>
</g>
<!-- dir_f2449522035e263841afc52939e742cf -->
<g id="node4" class="node"><title>dir_f2449522035e263841afc52939e742cf</title>
<g id="a_node4"><a xlink:href="dir_f2449522035e263841afc52939e742cf.html" target="_top" xlink:title="eventspot">
<polygon fill="white" stroke="red" points="347.522,-52 288.478,-52 288.478,-16 347.522,-16 347.522,-52"/>
<text text-anchor="middle" x="318" y="-30" font-family="Helvetica,sans-Serif" font-size="10.00">eventspot</text>
</a>
</g>
</g>
<!-- dir_e1d44087a4ffaa5512ff14b376c2ad20 -->
<g id="node5" class="node"><title>dir_e1d44087a4ffaa5512ff14b376c2ad20</title>
<g id="a_node5"><a xlink:href="dir_e1d44087a4ffaa5512ff14b376c2ad20.html" target="_top" xlink:title="exceptional&#45;php">
<polygon fill="white" stroke="red" points="269.956,-52 184.044,-52 184.044,-16 269.956,-16 269.956,-52"/>
<text text-anchor="middle" x="227" y="-30" font-family="Helvetica,sans-Serif" font-size="10.00">exceptional&#45;php</text>
</a>
</g>
</g>
<!-- dir_e8d5c2f72da7f56e29f1cffbc2f5386e -->
<g id="node6" class="node"><title>dir_e8d5c2f72da7f56e29f1cffbc2f5386e</title>
<g id="a_node6"><a xlink:href="dir_e8d5c2f72da7f56e29f1cffbc2f5386e.html" target="_top" xlink:title="form&#45;designer">
<polygon fill="white" stroke="red" points="165.269,-52 88.7306,-52 88.7306,-16 165.269,-16 165.269,-52"/>
<text text-anchor="middle" x="127" y="-30" font-family="Helvetica,sans-Serif" font-size="10.00">form&#45;designer</text>
</a>
</g>
</g>
<!-- dir_4bd6784c9e734defd8df84e9e3df9cb4 -->
<g id="node7" class="node"><title>dir_4bd6784c9e734defd8df84e9e3df9cb4</title>
<g id="a_node7"><a xlink:href="dir_4bd6784c9e734defd8df84e9e3df9cb4.html" target="_top" xlink:title="mail">
<polygon fill="white" stroke="red" points="70,-52 16,-52 16,-16 70,-16 70,-52"/>
<text text-anchor="middle" x="43" y="-30" font-family="Helvetica,sans-Serif" font-size="10.00">mail</text>
</a>
</g>
</g>
</g>
</svg>
