<?xml version="1.0" encoding="UTF-8" standalone="no"?>
<!DOCTYPE svg PUBLIC "-//W3C//DTD SVG 1.1//EN"
 "http://www.w3.org/Graphics/SVG/1.1/DTD/svg11.dtd">
<!-- Generated by graphviz version 2.30.1 (20130221.2233)
 -->
<!-- Title: Components Pages: 1 -->
<svg width="521pt" height="112pt"
 viewBox="0.00 0.00 521.00 112.00" xmlns="http://www.w3.org/2000/svg" xmlns:xlink="http://www.w3.org/1999/xlink">
<g id="graph0" class="graph" transform="scale(1 1) rotate(0) translate(4 108)">
<title>Components</title>
<polygon fill="white" stroke="white" points="-4,5 -4,-108 518,-108 518,5 -4,5"/>
<g id="clust1" class="cluster"><title>clusterdir_c8150e5f5e201635c8b99c6bebc8a401</title>
<g id="a_clust1"><a xlink:href="dir_c8150e5f5e201635c8b99c6bebc8a401.html" target="_top" xlink:title="Ctct">
<polygon fill="#ddddee" stroke="black" points="8,-8 8,-96 505,-96 505,-8 8,-8"/>
<text text-anchor="middle" x="256.5" y="-82" font-family="Helvetica,sans-Serif" font-size="10.00">Ctct</text>
</a>
</g>
</g>
<g id="clust2" class="cluster"><title>clusterdir_aad13a632d7294deb10666975e03e001</title>
<g id="a_clust2"><a xlink:href="dir_aad13a632d7294deb10666975e03e001.html" target="_top">
<polygon fill="#eeeeff" stroke="black" points="16,-16 16,-68 497,-68 497,-16 16,-16"/>
</a>
</g>
</g>
<!-- dir_aad13a632d7294deb10666975e03e001 -->
<g id="node1" class="node"><title>dir_aad13a632d7294deb10666975e03e001</title>
<text text-anchor="middle" x="453" y="-38" font-family="Helvetica,sans-Serif" font-size="10.00">Components</text>
</g>
<!-- dir_3fa6d9f21669938b7edcce3a33e3dbd8 -->
<g id="node2" class="node"><title>dir_3fa6d9f21669938b7edcce3a33e3dbd8</title>
<g id="a_node2"><a xlink:href="dir_3fa6d9f21669938b7edcce3a33e3dbd8.html" target="_top" xlink:title="Account">
<polygon fill="white" stroke="black" points="399,-60 345,-60 345,-24 399,-24 399,-60"/>
<text text-anchor="middle" x="372" y="-38" font-family="Helvetica,sans-Serif" font-size="10.00">Account</text>
</a>
</g>
</g>
<!-- dir_577c1297b4deae1ea7f7450883e0199e -->
<g id="node3" class="node"><title>dir_577c1297b4deae1ea7f7450883e0199e</title>
<g id="a_node3"><a xlink:href="dir_577c1297b4deae1ea7f7450883e0199e.html" target="_top" xlink:title="Activities">
<polygon fill="white" stroke="black" points="326.589,-60 271.411,-60 271.411,-24 326.589,-24 326.589,-60"/>
<text text-anchor="middle" x="299" y="-38" font-family="Helvetica,sans-Serif" font-size="10.00">Activities</text>
</a>
</g>
</g>
<!-- dir_a210097b7957e25e724d47b679f7b43b -->
<g id="node4" class="node"><title>dir_a210097b7957e25e724d47b679f7b43b</title>
<g id="a_node4"><a xlink:href="dir_a210097b7957e25e724d47b679f7b43b.html" target="_top" xlink:title="Contacts">
<polygon fill="white" stroke="black" points="253.596,-60 198.404,-60 198.404,-24 253.596,-24 253.596,-60"/>
<text text-anchor="middle" x="226" y="-38" font-family="Helvetica,sans-Serif" font-size="10.00">Contacts</text>
</a>
</g>
</g>
<!-- dir_0f641453531a3018093760edc07fa087 -->
<g id="node5" class="node"><title>dir_0f641453531a3018093760edc07fa087</title>
<g id="a_node5"><a xlink:href="dir_0f641453531a3018093760edc07fa087.html" target="_top" xlink:title="EmailMarketing">
<polygon fill="white" stroke="black" points="180.184,-60 95.8164,-60 95.8164,-24 180.184,-24 180.184,-60"/>
<text text-anchor="middle" x="138" y="-38" font-family="Helvetica,sans-Serif" font-size="10.00">EmailMarketing</text>
</a>
</g>
</g>
<!-- dir_5c6efebc60c972635cc781a22ef97a44 -->
<g id="node6" class="node"><title>dir_5c6efebc60c972635cc781a22ef97a44</title>
<g id="a_node6"><a xlink:href="dir_5c6efebc60c972635cc781a22ef97a44.html" target="_top" xlink:title="Tracking">
<polygon fill="white" stroke="black" points="78,-60 24,-60 24,-24 78,-24 78,-60"/>
<text text-anchor="middle" x="51" y="-38" font-family="Helvetica,sans-Serif" font-size="10.00">Tracking</text>
</a>
</g>
</g>
</g>
</svg>
