<?xml version="1.0" encoding="UTF-8" standalone="no"?>
<!DOCTYPE svg PUBLIC "-//W3C//DTD SVG 1.1//EN"
 "http://www.w3.org/Graphics/SVG/1.1/DTD/svg11.dtd">
<!-- Generated by graphviz version 2.30.1 (20130221.2233)
 -->
<!-- Title: Ctct Pages: 1 -->
<svg width="500pt" height="112pt"
 viewBox="0.00 0.00 500.00 112.00" xmlns="http://www.w3.org/2000/svg" xmlns:xlink="http://www.w3.org/1999/xlink">
<g id="graph0" class="graph" transform="scale(1 1) rotate(0) translate(4 108)">
<title>Ctct</title>
<polygon fill="white" stroke="white" points="-4,5 -4,-108 497,-108 497,5 -4,5"/>
<g id="clust1" class="cluster"><title>clusterdir_ec2bf1181596f75d518d9ef845b43474</title>
<g id="a_clust1"><a xlink:href="dir_ec2bf1181596f75d518d9ef845b43474.html" target="_top" xlink:title="src">
<polygon fill="#ddddee" stroke="black" points="8,-8 8,-96 484,-96 484,-8 8,-8"/>
<text text-anchor="middle" x="246" y="-82" font-family="Helvetica,sans-Serif" font-size="10.00">src</text>
</a>
</g>
</g>
<g id="clust2" class="cluster"><title>clusterdir_c8150e5f5e201635c8b99c6bebc8a401</title>
<g id="a_clust2"><a xlink:href="dir_c8150e5f5e201635c8b99c6bebc8a401.html" target="_top">
<polygon fill="#eeeeff" stroke="black" points="16,-16 16,-68 476,-68 476,-16 16,-16"/>
</a>
</g>
</g>
<!-- dir_c8150e5f5e201635c8b99c6bebc8a401 -->
<g id="node1" class="node"><title>dir_c8150e5f5e201635c8b99c6bebc8a401</title>
<text text-anchor="middle" x="441" y="-38" font-family="Helvetica,sans-Serif" font-size="10.00">Ctct</text>
</g>
<!-- dir_2a9c66a5b62e382cfea87397a193ba48 -->
<g id="node2" class="node"><title>dir_2a9c66a5b62e382cfea87397a193ba48</title>
<g id="a_node2"><a xlink:href="dir_2a9c66a5b62e382cfea87397a193ba48.html" target="_top" xlink:title="Auth">
<polygon fill="white" stroke="black" points="396,-60 342,-60 342,-24 396,-24 396,-60"/>
<text text-anchor="middle" x="369" y="-38" font-family="Helvetica,sans-Serif" font-size="10.00">Auth</text>
</a>
</g>
</g>
<!-- dir_aad13a632d7294deb10666975e03e001 -->
<g id="node3" class="node"><title>dir_aad13a632d7294deb10666975e03e001</title>
<g id="a_node3"><a xlink:href="dir_aad13a632d7294deb10666975e03e001.html" target="_top" xlink:title="Components">
<polygon fill="white" stroke="red" points="324.026,-60 251.974,-60 251.974,-24 324.026,-24 324.026,-60"/>
<text text-anchor="middle" x="288" y="-38" font-family="Helvetica,sans-Serif" font-size="10.00">Components</text>
</a>
</g>
</g>
<!-- dir_005cda6ee999613eaaae0650f571b3ed -->
<g id="node4" class="node"><title>dir_005cda6ee999613eaaae0650f571b3ed</title>
<g id="a_node4"><a xlink:href="dir_005cda6ee999613eaaae0650f571b3ed.html" target="_top" xlink:title="Exceptions">
<polygon fill="white" stroke="black" points="233.187,-60 168.813,-60 168.813,-24 233.187,-24 233.187,-60"/>
<text text-anchor="middle" x="201" y="-38" font-family="Helvetica,sans-Serif" font-size="10.00">Exceptions</text>
</a>
</g>
</g>
<!-- dir_76bb1a2b71721d74a4ba7b16a1069054 -->
<g id="node5" class="node"><title>dir_76bb1a2b71721d74a4ba7b16a1069054</title>
<g id="a_node5"><a xlink:href="dir_76bb1a2b71721d74a4ba7b16a1069054.html" target="_top" xlink:title="Services">
<polygon fill="white" stroke="black" points="150.259,-60 95.7409,-60 95.7409,-24 150.259,-24 150.259,-60"/>
<text text-anchor="middle" x="123" y="-38" font-family="Helvetica,sans-Serif" font-size="10.00">Services</text>
</a>
</g>
</g>
<!-- dir_6aae57f0e317010c99488ac2e0c801a7 -->
<g id="node6" class="node"><title>dir_6aae57f0e317010c99488ac2e0c801a7</title>
<g id="a_node6"><a xlink:href="dir_6aae57f0e317010c99488ac2e0c801a7.html" target="_top" xlink:title="Util">
<polygon fill="white" stroke="black" points="78,-60 24,-60 24,-24 78,-24 78,-60"/>
<text text-anchor="middle" x="51" y="-38" font-family="Helvetica,sans-Serif" font-size="10.00">Util</text>
</a>
</g>
</g>
</g>
</svg>
