<?xml version="1.0" encoding="UTF-8" standalone="no"?>
<!DOCTYPE svg PUBLIC "-//W3C//DTD SVG 1.1//EN"
 "http://www.w3.org/Graphics/SVG/1.1/DTD/svg11.dtd">
<!-- Generated by graphviz version 2.30.1 (20130221.2233)
 -->
<!-- Title: exceptional&#45;php Pages: 1 -->
<svg width="376pt" height="112pt"
 viewBox="0.00 0.00 376.00 112.00" xmlns="http://www.w3.org/2000/svg" xmlns:xlink="http://www.w3.org/1999/xlink">
<g id="graph0" class="graph" transform="scale(1 1) rotate(0) translate(4 108)">
<title>exceptional&#45;php</title>
<polygon fill="white" stroke="white" points="-4,5 -4,-108 373,-108 373,5 -4,5"/>
<g id="clust1" class="cluster"><title>clusterdir_1da4270117b7b4041d4491270373a02b</title>
<g id="a_clust1"><a xlink:href="dir_1da4270117b7b4041d4491270373a02b.html" target="_top" xlink:title="lib">
<polygon fill="#ddddee" stroke="black" points="8,-8 8,-96 360,-96 360,-8 8,-8"/>
<text text-anchor="middle" x="184" y="-82" font-family="Helvetica,sans-Serif" font-size="10.00">lib</text>
</a>
</g>
</g>
<g id="clust2" class="cluster"><title>clusterdir_e1d44087a4ffaa5512ff14b376c2ad20</title>
<g id="a_clust2"><a xlink:href="dir_e1d44087a4ffaa5512ff14b376c2ad20.html" target="_top">
<polygon fill="#eeeeff" stroke="black" points="16,-16 16,-68 352,-68 352,-16 16,-16"/>
</a>
</g>
</g>
<!-- dir_e1d44087a4ffaa5512ff14b376c2ad20 -->
<g id="node1" class="node"><title>dir_e1d44087a4ffaa5512ff14b376c2ad20</title>
<text text-anchor="middle" x="301" y="-38" font-family="Helvetica,sans-Serif" font-size="10.00">exceptional&#45;php</text>
</g>
<!-- dir_ece4aeb92eac4d08ab6be8b14a4733b8 -->
<g id="node2" class="node"><title>dir_ece4aeb92eac4d08ab6be8b14a4733b8</title>
<g id="a_node2"><a xlink:href="dir_ece4aeb92eac4d08ab6be8b14a4733b8.html" target="_top" xlink:title="examples">
<polygon fill="white" stroke="black" points="239.099,-60 180.901,-60 180.901,-24 239.099,-24 239.099,-60"/>
<text text-anchor="middle" x="210" y="-38" font-family="Helvetica,sans-Serif" font-size="10.00">examples</text>
</a>
</g>
</g>
<!-- dir_f06a5bdf8e16475fb42fba99ad60b392 -->
<g id="node3" class="node"><title>dir_f06a5bdf8e16475fb42fba99ad60b392</title>
<g id="a_node3"><a xlink:href="dir_f06a5bdf8e16475fb42fba99ad60b392.html" target="_top" xlink:title="exceptional">
<polygon fill="white" stroke="black" points="161.945,-60 96.0547,-60 96.0547,-24 161.945,-24 161.945,-60"/>
<text text-anchor="middle" x="129" y="-38" font-family="Helvetica,sans-Serif" font-size="10.00">exceptional</text>
</a>
</g>
</g>
<!-- dir_dca6c06e28e42573010a44c3180a83f1 -->
<g id="node4" class="node"><title>dir_dca6c06e28e42573010a44c3180a83f1</title>
<g id="a_node4"><a xlink:href="dir_dca6c06e28e42573010a44c3180a83f1.html" target="_top" xlink:title="test">
<polygon fill="white" stroke="black" points="78,-60 24,-60 24,-24 78,-24 78,-60"/>
<text text-anchor="middle" x="51" y="-38" font-family="Helvetica,sans-Serif" font-size="10.00">test</text>
</a>
</g>
</g>
</g>
</svg>
