<?xml version="1.0" encoding="UTF-8" standalone="no"?>
<!DOCTYPE svg PUBLIC "-//W3C//DTD SVG 1.1//EN"
 "http://www.w3.org/Graphics/SVG/1.1/DTD/svg11.dtd">
<!-- Generated by graphviz version 2.30.1 (20130221.2233)
 -->
<!-- Title: exceptional&#45;php Pages: 1 -->
<svg width="376pt" height="112pt"
 viewBox="0.00 0.00 376.00 112.00" xmlns="http://www.w3.org/2000/svg" xmlns:xlink="http://www.w3.org/1999/xlink">
<g id="graph0" class="graph" transform="scale(1 1) rotate(0) translate(4 108)">
<title>exceptional&#45;php</title>
<polygon fill="white" stroke="white" points="-4,5 -4,-108 373,-108 373,5 -4,5"/>
<g id="clust1" class="cluster"><title>clusterdir_fcd012057673edad497d6fd7c9e0cc09</title>
<g id="a_clust1"><a xlink:href="dir_fcd012057673edad497d6fd7c9e0cc09.html" target="_top" xlink:title="ankane">
<polygon fill="#ddddee" stroke="black" points="8,-8 8,-96 360,-96 360,-8 8,-8"/>
<text text-anchor="middle" x="184" y="-82" font-family="Helvetica,sans-Serif" font-size="10.00">ankane</text>
</a>
</g>
</g>
<g id="clust2" class="cluster"><title>clusterdir_df6a6b10dd35ea96e84ad175602da55d</title>
<g id="a_clust2"><a xlink:href="dir_df6a6b10dd35ea96e84ad175602da55d.html" target="_top">
<polygon fill="#eeeeff" stroke="black" points="16,-16 16,-68 352,-68 352,-16 16,-16"/>
</a>
</g>
</g>
<!-- dir_df6a6b10dd35ea96e84ad175602da55d -->
<g id="node1" class="node"><title>dir_df6a6b10dd35ea96e84ad175602da55d</title>
<text text-anchor="middle" x="301" y="-38" font-family="Helvetica,sans-Serif" font-size="10.00">exceptional&#45;php</text>
</g>
<!-- dir_ce15799775aee1f228e645ead6276ec3 -->
<g id="node2" class="node"><title>dir_ce15799775aee1f228e645ead6276ec3</title>
<g id="a_node2"><a xlink:href="dir_ce15799775aee1f228e645ead6276ec3.html" target="_top" xlink:title="examples">
<polygon fill="white" stroke="black" points="239.099,-60 180.901,-60 180.901,-24 239.099,-24 239.099,-60"/>
<text text-anchor="middle" x="210" y="-38" font-family="Helvetica,sans-Serif" font-size="10.00">examples</text>
</a>
</g>
</g>
<!-- dir_ca25b010eebb8f1f2871f0ad280355f9 -->
<g id="node3" class="node"><title>dir_ca25b010eebb8f1f2871f0ad280355f9</title>
<g id="a_node3"><a xlink:href="dir_ca25b010eebb8f1f2871f0ad280355f9.html" target="_top" xlink:title="exceptional">
<polygon fill="white" stroke="black" points="161.945,-60 96.0547,-60 96.0547,-24 161.945,-24 161.945,-60"/>
<text text-anchor="middle" x="129" y="-38" font-family="Helvetica,sans-Serif" font-size="10.00">exceptional</text>
</a>
</g>
</g>
<!-- dir_6c386306e779642dc80ac323865e89ab -->
<g id="node4" class="node"><title>dir_6c386306e779642dc80ac323865e89ab</title>
<g id="a_node4"><a xlink:href="dir_6c386306e779642dc80ac323865e89ab.html" target="_top" xlink:title="test">
<polygon fill="white" stroke="black" points="78,-60 24,-60 24,-24 78,-24 78,-60"/>
<text text-anchor="middle" x="51" y="-38" font-family="Helvetica,sans-Serif" font-size="10.00">test</text>
</a>
</g>
</g>
</g>
</svg>
