<?xml version="1.0" encoding="UTF-8" standalone="no"?>
<!DOCTYPE svg PUBLIC "-//W3C//DTD SVG 1.1//EN"
 "http://www.w3.org/Graphics/SVG/1.1/DTD/svg11.dtd">
<!-- Generated by graphviz version 2.30.1 (20130221.2233)
 -->
<!-- Title: test Pages: 1 -->
<svg width="326pt" height="112pt"
 viewBox="0.00 0.00 326.00 112.00" xmlns="http://www.w3.org/2000/svg" xmlns:xlink="http://www.w3.org/1999/xlink">
<g id="graph0" class="graph" transform="scale(1 1) rotate(0) translate(4 108)">
<title>test</title>
<polygon fill="white" stroke="white" points="-4,5 -4,-108 323,-108 323,5 -4,5"/>
<g id="clust1" class="cluster"><title>clusterdir_57ebdb077a0b98b3b0326c21b9886d44</title>
<g id="a_clust1"><a xlink:href="dir_57ebdb077a0b98b3b0326c21b9886d44.html" target="_top" xlink:title="constantcontact">
<polygon fill="#ddddee" stroke="black" points="8,-8 8,-96 310,-96 310,-8 8,-8"/>
<text text-anchor="middle" x="159" y="-82" font-family="Helvetica,sans-Serif" font-size="10.00">constantcontact</text>
</a>
</g>
</g>
<g id="clust2" class="cluster"><title>clusterdir_149fa61466a57462d0c5d703cbee214d</title>
<g id="a_clust2"><a xlink:href="dir_149fa61466a57462d0c5d703cbee214d.html" target="_top">
<polygon fill="#eeeeff" stroke="black" points="16,-16 16,-68 302,-68 302,-16 16,-16"/>
</a>
</g>
</g>
<!-- dir_149fa61466a57462d0c5d703cbee214d -->
<g id="node1" class="node"><title>dir_149fa61466a57462d0c5d703cbee214d</title>
<text text-anchor="middle" x="267" y="-38" font-family="Helvetica,sans-Serif" font-size="10.00">test</text>
</g>
<!-- dir_4badd759e17028bd20f8a36c63bcc929 -->
<g id="node2" class="node"><title>dir_4badd759e17028bd20f8a36c63bcc929</title>
<g id="a_node2"><a xlink:href="dir_4badd759e17028bd20f8a36c63bcc929.html" target="_top" xlink:title="Auth">
<polygon fill="white" stroke="black" points="222,-60 168,-60 168,-24 222,-24 222,-60"/>
<text text-anchor="middle" x="195" y="-38" font-family="Helvetica,sans-Serif" font-size="10.00">Auth</text>
</a>
</g>
</g>
<!-- dir_76a262ecf377eb2b9faee438719b0eeb -->
<g id="node3" class="node"><title>dir_76a262ecf377eb2b9faee438719b0eeb</title>
<g id="a_node3"><a xlink:href="dir_76a262ecf377eb2b9faee438719b0eeb.html" target="_top" xlink:title="Json">
<polygon fill="white" stroke="black" points="150,-60 96,-60 96,-24 150,-24 150,-60"/>
<text text-anchor="middle" x="123" y="-38" font-family="Helvetica,sans-Serif" font-size="10.00">Json</text>
</a>
</g>
</g>
<!-- dir_801fb90bd2636903e1a04d5ebbba2bee -->
<g id="node4" class="node"><title>dir_801fb90bd2636903e1a04d5ebbba2bee</title>
<g id="a_node4"><a xlink:href="dir_801fb90bd2636903e1a04d5ebbba2bee.html" target="_top" xlink:title="Services">
<polygon fill="white" stroke="black" points="78.2591,-60 23.7409,-60 23.7409,-24 78.2591,-24 78.2591,-60"/>
<text text-anchor="middle" x="51" y="-38" font-family="Helvetica,sans-Serif" font-size="10.00">Services</text>
</a>
</g>
</g>
</g>
</svg>
