<?xml version="1.0" encoding="UTF-8" standalone="no"?>
<!DOCTYPE svg PUBLIC "-//W3C//DTD SVG 1.1//EN"
 "http://www.w3.org/Graphics/SVG/1.1/DTD/svg11.dtd">
<!-- Generated by graphviz version 2.30.1 (20130221.2233)
 -->
<!-- Title: Components Pages: 1 -->
<svg width="521pt" height="112pt"
 viewBox="0.00 0.00 521.00 112.00" xmlns="http://www.w3.org/2000/svg" xmlns:xlink="http://www.w3.org/1999/xlink">
<g id="graph0" class="graph" transform="scale(1 1) rotate(0) translate(4 108)">
<title>Components</title>
<polygon fill="white" stroke="white" points="-4,5 -4,-108 518,-108 518,5 -4,5"/>
<g id="clust1" class="cluster"><title>clusterdir_e3fa7edd72d5150bbaebb846ef8da0d5</title>
<g id="a_clust1"><a xlink:href="dir_e3fa7edd72d5150bbaebb846ef8da0d5.html" target="_top" xlink:title="Ctct">
<polygon fill="#ddddee" stroke="black" points="8,-8 8,-96 505,-96 505,-8 8,-8"/>
<text text-anchor="middle" x="256.5" y="-82" font-family="Helvetica,sans-Serif" font-size="10.00">Ctct</text>
</a>
</g>
</g>
<g id="clust2" class="cluster"><title>clusterdir_d6dfb4b53f822fc14d7fb759cb9ce65c</title>
<g id="a_clust2"><a xlink:href="dir_d6dfb4b53f822fc14d7fb759cb9ce65c.html" target="_top">
<polygon fill="#eeeeff" stroke="black" points="16,-16 16,-68 497,-68 497,-16 16,-16"/>
</a>
</g>
</g>
<!-- dir_d6dfb4b53f822fc14d7fb759cb9ce65c -->
<g id="node1" class="node"><title>dir_d6dfb4b53f822fc14d7fb759cb9ce65c</title>
<text text-anchor="middle" x="453" y="-38" font-family="Helvetica,sans-Serif" font-size="10.00">Components</text>
</g>
<!-- dir_bbfeb2aebfd431825b579c743a101a37 -->
<g id="node2" class="node"><title>dir_bbfeb2aebfd431825b579c743a101a37</title>
<g id="a_node2"><a xlink:href="dir_bbfeb2aebfd431825b579c743a101a37.html" target="_top" xlink:title="Account">
<polygon fill="white" stroke="black" points="399,-60 345,-60 345,-24 399,-24 399,-60"/>
<text text-anchor="middle" x="372" y="-38" font-family="Helvetica,sans-Serif" font-size="10.00">Account</text>
</a>
</g>
</g>
<!-- dir_d2bf8ed5d2d55781d8cb5135d81eb0a5 -->
<g id="node3" class="node"><title>dir_d2bf8ed5d2d55781d8cb5135d81eb0a5</title>
<g id="a_node3"><a xlink:href="dir_d2bf8ed5d2d55781d8cb5135d81eb0a5.html" target="_top" xlink:title="Activities">
<polygon fill="white" stroke="black" points="326.589,-60 271.411,-60 271.411,-24 326.589,-24 326.589,-60"/>
<text text-anchor="middle" x="299" y="-38" font-family="Helvetica,sans-Serif" font-size="10.00">Activities</text>
</a>
</g>
</g>
<!-- dir_df0c251dfc14c1e42b3be55ff959f32c -->
<g id="node4" class="node"><title>dir_df0c251dfc14c1e42b3be55ff959f32c</title>
<g id="a_node4"><a xlink:href="dir_df0c251dfc14c1e42b3be55ff959f32c.html" target="_top" xlink:title="Contacts">
<polygon fill="white" stroke="black" points="253.596,-60 198.404,-60 198.404,-24 253.596,-24 253.596,-60"/>
<text text-anchor="middle" x="226" y="-38" font-family="Helvetica,sans-Serif" font-size="10.00">Contacts</text>
</a>
</g>
</g>
<!-- dir_9cdd287932031c44c2ebb80cd3c5b119 -->
<g id="node5" class="node"><title>dir_9cdd287932031c44c2ebb80cd3c5b119</title>
<g id="a_node5"><a xlink:href="dir_9cdd287932031c44c2ebb80cd3c5b119.html" target="_top" xlink:title="EmailMarketing">
<polygon fill="white" stroke="black" points="180.184,-60 95.8164,-60 95.8164,-24 180.184,-24 180.184,-60"/>
<text text-anchor="middle" x="138" y="-38" font-family="Helvetica,sans-Serif" font-size="10.00">EmailMarketing</text>
</a>
</g>
</g>
<!-- dir_3b0d9bd72b9c33684ccfe61c93caed1f -->
<g id="node6" class="node"><title>dir_3b0d9bd72b9c33684ccfe61c93caed1f</title>
<g id="a_node6"><a xlink:href="dir_3b0d9bd72b9c33684ccfe61c93caed1f.html" target="_top" xlink:title="Tracking">
<polygon fill="white" stroke="black" points="78,-60 24,-60 24,-24 78,-24 78,-60"/>
<text text-anchor="middle" x="51" y="-38" font-family="Helvetica,sans-Serif" font-size="10.00">Tracking</text>
</a>
</g>
</g>
</g>
</svg>
