<?xml version="1.0" encoding="UTF-8" standalone="no"?>
<!DOCTYPE svg PUBLIC "-//W3C//DTD SVG 1.1//EN"
 "http://www.w3.org/Graphics/SVG/1.1/DTD/svg11.dtd">
<!-- Generated by graphviz version 2.30.1 (20130221.2233)
 -->
<!-- Title: Ctct Pages: 1 -->
<svg width="500pt" height="112pt"
 viewBox="0.00 0.00 500.00 112.00" xmlns="http://www.w3.org/2000/svg" xmlns:xlink="http://www.w3.org/1999/xlink">
<g id="graph0" class="graph" transform="scale(1 1) rotate(0) translate(4 108)">
<title>Ctct</title>
<polygon fill="white" stroke="white" points="-4,5 -4,-108 497,-108 497,5 -4,5"/>
<g id="clust1" class="cluster"><title>clusterdir_1da4270117b7b4041d4491270373a02b</title>
<g id="a_clust1"><a xlink:href="dir_1da4270117b7b4041d4491270373a02b.html" target="_top" xlink:title="lib">
<polygon fill="#ddddee" stroke="black" points="8,-8 8,-96 484,-96 484,-8 8,-8"/>
<text text-anchor="middle" x="246" y="-82" font-family="Helvetica,sans-Serif" font-size="10.00">lib</text>
</a>
</g>
</g>
<g id="clust2" class="cluster"><title>clusterdir_e3fa7edd72d5150bbaebb846ef8da0d5</title>
<g id="a_clust2"><a xlink:href="dir_e3fa7edd72d5150bbaebb846ef8da0d5.html" target="_top">
<polygon fill="#eeeeff" stroke="black" points="16,-16 16,-68 476,-68 476,-16 16,-16"/>
</a>
</g>
</g>
<!-- dir_e3fa7edd72d5150bbaebb846ef8da0d5 -->
<g id="node1" class="node"><title>dir_e3fa7edd72d5150bbaebb846ef8da0d5</title>
<text text-anchor="middle" x="441" y="-38" font-family="Helvetica,sans-Serif" font-size="10.00">Ctct</text>
</g>
<!-- dir_a7f55ab9d1cfc3adce4054b0413ea63c -->
<g id="node2" class="node"><title>dir_a7f55ab9d1cfc3adce4054b0413ea63c</title>
<g id="a_node2"><a xlink:href="dir_a7f55ab9d1cfc3adce4054b0413ea63c.html" target="_top" xlink:title="Auth">
<polygon fill="white" stroke="black" points="396,-60 342,-60 342,-24 396,-24 396,-60"/>
<text text-anchor="middle" x="369" y="-38" font-family="Helvetica,sans-Serif" font-size="10.00">Auth</text>
</a>
</g>
</g>
<!-- dir_d6dfb4b53f822fc14d7fb759cb9ce65c -->
<g id="node3" class="node"><title>dir_d6dfb4b53f822fc14d7fb759cb9ce65c</title>
<g id="a_node3"><a xlink:href="dir_d6dfb4b53f822fc14d7fb759cb9ce65c.html" target="_top" xlink:title="Components">
<polygon fill="white" stroke="red" points="324.026,-60 251.974,-60 251.974,-24 324.026,-24 324.026,-60"/>
<text text-anchor="middle" x="288" y="-38" font-family="Helvetica,sans-Serif" font-size="10.00">Components</text>
</a>
</g>
</g>
<!-- dir_ed8a740e4737432e1649db53d94953d8 -->
<g id="node4" class="node"><title>dir_ed8a740e4737432e1649db53d94953d8</title>
<g id="a_node4"><a xlink:href="dir_ed8a740e4737432e1649db53d94953d8.html" target="_top" xlink:title="Exceptions">
<polygon fill="white" stroke="black" points="233.187,-60 168.813,-60 168.813,-24 233.187,-24 233.187,-60"/>
<text text-anchor="middle" x="201" y="-38" font-family="Helvetica,sans-Serif" font-size="10.00">Exceptions</text>
</a>
</g>
</g>
<!-- dir_629275c39dc1bdb569f31476c98ccddb -->
<g id="node5" class="node"><title>dir_629275c39dc1bdb569f31476c98ccddb</title>
<g id="a_node5"><a xlink:href="dir_629275c39dc1bdb569f31476c98ccddb.html" target="_top" xlink:title="Services">
<polygon fill="white" stroke="black" points="150.259,-60 95.7409,-60 95.7409,-24 150.259,-24 150.259,-60"/>
<text text-anchor="middle" x="123" y="-38" font-family="Helvetica,sans-Serif" font-size="10.00">Services</text>
</a>
</g>
</g>
<!-- dir_5ad89f0e21bff512ad90475f2862db0e -->
<g id="node6" class="node"><title>dir_5ad89f0e21bff512ad90475f2862db0e</title>
<g id="a_node6"><a xlink:href="dir_5ad89f0e21bff512ad90475f2862db0e.html" target="_top" xlink:title="Util">
<polygon fill="white" stroke="black" points="78,-60 24,-60 24,-24 78,-24 78,-60"/>
<text text-anchor="middle" x="51" y="-38" font-family="Helvetica,sans-Serif" font-size="10.00">Util</text>
</a>
</g>
</g>
</g>
</svg>
