<?xml version="1.0" encoding="UTF-8" standalone="no"?>
<!DOCTYPE svg PUBLIC "-//W3C//DTD SVG 1.1//EN"
 "http://www.w3.org/Graphics/SVG/1.1/DTD/svg11.dtd">
<!-- Generated by graphviz version 2.30.1 (20130221.2233)
 -->
<!-- Title: Graphical Class Hierarchy Pages: 1 -->
<svg width="270pt" height="157pt"
 viewBox="0.00 0.00 270.00 157.00" xmlns="http://www.w3.org/2000/svg" xmlns:xlink="http://www.w3.org/1999/xlink">
<g id="graph0" class="graph" transform="scale(1 1) rotate(0) translate(4 153)">
<title>Graphical Class Hierarchy</title>
<polygon fill="white" stroke="white" points="-4,5 -4,-153 267,-153 267,5 -4,5"/>
<!-- Node1 -->
<g id="node1" class="node"><title>Node1</title>
<polygon fill="white" stroke="#bfbfbf" points="0.0419922,-61 0.0419922,-81 59.958,-81 59.958,-61 0.0419922,-61"/>
<text text-anchor="middle" x="30" y="-67" font-family="Helvetica,sans-Serif" font-size="10.00">Exception</text>
</g>
<!-- Node2 -->
<g id="node2" class="node"><title>Node2</title>
<g id="a_node2"><a xlink:href="class_ctct_1_1_exceptions_1_1_ctct_exception.html" target="_top" xlink:title="Ctct\\Exceptions\\CtctException">
<polygon fill="white" stroke="black" points="104.027,-129 104.027,-149 253.973,-149 253.973,-129 104.027,-129"/>
<text text-anchor="middle" x="179" y="-135" font-family="Helvetica,sans-Serif" font-size="10.00">Ctct\Exceptions\CtctException</text>
</a>
</g>
</g>
<!-- Node1&#45;&gt;Node2 -->
<g id="edge1" class="edge"><title>Node1&#45;&gt;Node2</title>
<path fill="none" stroke="midnightblue" d="M49.8238,-88.06C62.1533,-98.3982 79.0693,-111.078 96,-119 104.627,-123.037 114.16,-126.313 123.582,-128.955"/>
<polygon fill="midnightblue" stroke="midnightblue" points="51.9313,-85.2554 42.0769,-81.3642 47.3539,-90.5514 51.9313,-85.2554"/>
</g>
<!-- Node3 -->
<g id="node3" class="node"><title>Node3</title>
<g id="a_node3"><a xlink:href="class_ctct_1_1_exceptions_1_1_illegal_argument_exception.html" target="_top" xlink:title="Ctct\\Exceptions\\IllegalArgument\lException">
<polygon fill="white" stroke="black" points="100.133,-78 100.133,-110 257.867,-110 257.867,-78 100.133,-78"/>
<text text-anchor="start" x="108.133" y="-96" font-family="Helvetica,sans-Serif" font-size="10.00">Ctct\Exceptions\IllegalArgument</text>
<text text-anchor="middle" x="179" y="-84" font-family="Helvetica,sans-Serif" font-size="10.00">Exception</text>
</a>
</g>
</g>
<!-- Node1&#45;&gt;Node3 -->
<g id="edge2" class="edge"><title>Node1&#45;&gt;Node3</title>
<path fill="none" stroke="midnightblue" d="M70.0728,-77.1134C79.3515,-78.5652 89.5759,-80.1649 99.9218,-81.7837"/>
<polygon fill="midnightblue" stroke="midnightblue" points="70.4633,-73.632 60.0425,-75.5441 69.3812,-80.5479 70.4633,-73.632"/>
</g>
<!-- Node4 -->
<g id="node4" class="node"><title>Node4</title>
<g id="a_node4"><a xlink:href="class_ctct_1_1_exceptions_1_1_o_auth2_exception.html" target="_top" xlink:title="Ctct\\Exceptions\\OAuth2Exception">
<polygon fill="white" stroke="black" points="95.9609,-39 95.9609,-59 262.039,-59 262.039,-39 95.9609,-39"/>
<text text-anchor="middle" x="179" y="-45" font-family="Helvetica,sans-Serif" font-size="10.00">Ctct\Exceptions\OAuth2Exception</text>
</a>
</g>
</g>
<!-- Node1&#45;&gt;Node4 -->
<g id="edge3" class="edge"><title>Node1&#45;&gt;Node4</title>
<path fill="none" stroke="midnightblue" d="M70.1482,-65.1411C82.7163,-63.2602 97.0133,-61.1205 110.994,-59.028"/>
<polygon fill="midnightblue" stroke="midnightblue" points="69.4143,-61.7119 60.0425,-66.6535 70.4504,-68.6348 69.4143,-61.7119"/>
</g>
<!-- Node5 -->
<g id="node5" class="node"><title>Node5</title>
<g id="a_node5"><a xlink:href="class_http404_error.html" target="_top" xlink:title="Http404Error">
<polygon fill="white" stroke="black" points="142.377,-0 142.377,-20 215.623,-20 215.623,-0 142.377,-0"/>
<text text-anchor="middle" x="179" y="-6" font-family="Helvetica,sans-Serif" font-size="10.00">Http404Error</text>
</a>
</g>
</g>
<!-- Node1&#45;&gt;Node5 -->
<g id="edge4" class="edge"><title>Node1&#45;&gt;Node5</title>
<path fill="none" stroke="midnightblue" d="M52.4247,-55.001C64.6534,-46.5219 80.58,-36.5374 96,-30 110.57,-23.8228 127.441,-19.2981 142.078,-16.1309"/>
<polygon fill="midnightblue" stroke="midnightblue" points="50.3464,-52.1842 44.2341,-60.8382 54.4089,-57.8848 50.3464,-52.1842"/>
</g>
</g>
</svg>
