<?xml version="1.0" encoding="UTF-8" standalone="no"?>
<!DOCTYPE svg PUBLIC "-//W3C//DTD SVG 1.1//EN"
 "http://www.w3.org/Graphics/SVG/1.1/DTD/svg11.dtd">
<!-- Generated by graphviz version 2.30.1 (20130221.2233)
 -->
<!-- Title: Graphical Class Hierarchy Pages: 1 -->
<svg width="376pt" height="379pt"
 viewBox="0.00 0.00 376.00 379.00" xmlns="http://www.w3.org/2000/svg" xmlns:xlink="http://www.w3.org/1999/xlink">
<g id="graph0" class="graph" transform="scale(1 1) rotate(0) translate(4 375)">
<title>Graphical Class Hierarchy</title>
<polygon fill="white" stroke="white" points="-4,5 -4,-375 373,-375 373,5 -4,5"/>
<!-- Node1 -->
<g id="node1" class="node"><title>Node1</title>
<polygon fill="white" stroke="#bfbfbf" points="0.421387,-175 0.421387,-195 157.579,-195 157.579,-175 0.421387,-175"/>
<text text-anchor="middle" x="79" y="-181" font-family="Helvetica,sans-Serif" font-size="10.00">PHPUnit_Framework_TestCase</text>
</g>
<!-- Node2 -->
<g id="node2" class="node"><title>Node2</title>
<g id="a_node2"><a xlink:href="class_account_service_unit_test.html" target="_top" xlink:title="AccountServiceUnitTest">
<polygon fill="white" stroke="black" points="220.2,-351 220.2,-371 341.8,-371 341.8,-351 220.2,-351"/>
<text text-anchor="middle" x="281" y="-357" font-family="Helvetica,sans-Serif" font-size="10.00">AccountServiceUnitTest</text>
</a>
</g>
</g>
<!-- Node1&#45;&gt;Node2 -->
<g id="edge1" class="edge"><title>Node1&#45;&gt;Node2</title>
<path fill="none" stroke="midnightblue" d="M88.5958,-204.545C104.375,-238.032 141.252,-306.131 194,-341 201.8,-346.156 210.766,-349.991 219.899,-352.841"/>
<polygon fill="midnightblue" stroke="midnightblue" points="91.7263,-202.974 84.3818,-195.338 85.3614,-205.888 91.7263,-202.974"/>
</g>
<!-- Node3 -->
<g id="node3" class="node"><title>Node3</title>
<g id="a_node3"><a xlink:href="class_activity_service_unit_test.html" target="_top" xlink:title="ActivityServiceUnitTest">
<polygon fill="white" stroke="black" points="222.431,-312 222.431,-332 339.569,-332 339.569,-312 222.431,-312"/>
<text text-anchor="middle" x="281" y="-318" font-family="Helvetica,sans-Serif" font-size="10.00">ActivityServiceUnitTest</text>
</a>
</g>
</g>
<!-- Node1&#45;&gt;Node3 -->
<g id="edge2" class="edge"><title>Node1&#45;&gt;Node3</title>
<path fill="none" stroke="midnightblue" d="M92.4819,-203.27C111.323,-229.375 149.583,-276.954 194,-302 202.679,-306.894 212.495,-310.592 222.311,-313.386"/>
<polygon fill="midnightblue" stroke="midnightblue" points="95.2744,-201.156 86.6492,-195.004 89.555,-205.192 95.2744,-201.156"/>
</g>
<!-- Node4 -->
<g id="node4" class="node"><title>Node4</title>
<g id="a_node4"><a xlink:href="class_campaign_schedule_service_unit_test.html" target="_top" xlink:title="CampaignScheduleServiceUnitTest">
<polygon fill="white" stroke="black" points="194.626,-273 194.626,-293 367.374,-293 367.374,-273 194.626,-273"/>
<text text-anchor="middle" x="281" y="-279" font-family="Helvetica,sans-Serif" font-size="10.00">CampaignScheduleServiceUnitTest</text>
</a>
</g>
</g>
<!-- Node1&#45;&gt;Node4 -->
<g id="edge3" class="edge"><title>Node1&#45;&gt;Node4</title>
<path fill="none" stroke="midnightblue" d="M99.2091,-201.495C120.852,-219.245 157.76,-247.064 194,-263 203.121,-267.011 213.155,-270.274 223.049,-272.911"/>
<polygon fill="midnightblue" stroke="midnightblue" points="101.356,-198.728 91.4342,-195.011 96.8719,-204.104 101.356,-198.728"/>
</g>
<!-- Node5 -->
<g id="node5" class="node"><title>Node5</title>
<g id="a_node5"><a xlink:href="class_campaign_tracking_service_unit_test.html" target="_top" xlink:title="CampaignTrackingServiceUnitTest">
<polygon fill="white" stroke="black" points="196.486,-234 196.486,-254 365.514,-254 365.514,-234 196.486,-234"/>
<text text-anchor="middle" x="281" y="-240" font-family="Helvetica,sans-Serif" font-size="10.00">CampaignTrackingServiceUnitTest</text>
</a>
</g>
</g>
<!-- Node1&#45;&gt;Node5 -->
<g id="edge4" class="edge"><title>Node1&#45;&gt;Node5</title>
<path fill="none" stroke="midnightblue" d="M116.626,-198.585C138.835,-206.558 167.843,-216.505 194,-224 206.526,-227.589 220.214,-231 232.913,-233.955"/>
<polygon fill="midnightblue" stroke="midnightblue" points="117.53,-195.19 106.935,-195.077 115.147,-201.772 117.53,-195.19"/>
</g>
<!-- Node6 -->
<g id="node6" class="node"><title>Node6</title>
<g id="a_node6"><a xlink:href="class_contact_service_unit_test.html" target="_top" xlink:title="ContactServiceUnitTest">
<polygon fill="white" stroke="black" points="221.035,-195 221.035,-215 340.965,-215 340.965,-195 221.035,-195"/>
<text text-anchor="middle" x="281" y="-201" font-family="Helvetica,sans-Serif" font-size="10.00">ContactServiceUnitTest</text>
</a>
</g>
</g>
<!-- Node1&#45;&gt;Node6 -->
<g id="edge5" class="edge"><title>Node1&#45;&gt;Node6</title>
<path fill="none" stroke="midnightblue" d="M168.028,-193.803C185.85,-195.585 204.187,-197.419 220.731,-199.073"/>
<polygon fill="midnightblue" stroke="midnightblue" points="167.91,-190.274 157.611,-192.761 167.214,-197.239 167.91,-190.274"/>
</g>
<!-- Node7 -->
<g id="node7" class="node"><title>Node7</title>
<g id="a_node7"><a xlink:href="class_contact_tracking_service_unit_test.html" target="_top" xlink:title="ContactTrackingServiceUnitTest">
<polygon fill="white" stroke="black" points="202.045,-156 202.045,-176 359.955,-176 359.955,-156 202.045,-156"/>
<text text-anchor="middle" x="281" y="-162" font-family="Helvetica,sans-Serif" font-size="10.00">ContactTrackingServiceUnitTest</text>
</a>
</g>
</g>
<!-- Node1&#45;&gt;Node7 -->
<g id="edge6" class="edge"><title>Node1&#45;&gt;Node7</title>
<path fill="none" stroke="midnightblue" d="M167.895,-176.65C179.174,-175.578 190.662,-174.487 201.773,-173.432"/>
<polygon fill="midnightblue" stroke="midnightblue" points="167.236,-173.197 157.611,-177.627 167.898,-180.165 167.236,-173.197"/>
</g>
<!-- Node8 -->
<g id="node8" class="node"><title>Node8</title>
<g id="a_node8"><a xlink:href="class_ctct_o_auth2_unit_test.html" target="_top" xlink:title="CtctOAuth2UnitTest">
<polygon fill="white" stroke="black" points="229.094,-117 229.094,-137 332.906,-137 332.906,-117 229.094,-117"/>
<text text-anchor="middle" x="281" y="-123" font-family="Helvetica,sans-Serif" font-size="10.00">CtctOAuth2UnitTest</text>
</a>
</g>
</g>
<!-- Node1&#45;&gt;Node8 -->
<g id="edge7" class="edge"><title>Node1&#45;&gt;Node8</title>
<path fill="none" stroke="midnightblue" d="M117.548,-171.503C139.648,-163.806 168.232,-154.274 194,-147 206.687,-143.419 220.556,-139.986 233.38,-137.007"/>
<polygon fill="midnightblue" stroke="midnightblue" points="116.16,-168.281 107.883,-174.896 118.478,-174.885 116.16,-168.281"/>
</g>
<!-- Node9 -->
<g id="node9" class="node"><title>Node9</title>
<g id="a_node9"><a xlink:href="class_email_marketing_service_unit_test.html" target="_top" xlink:title="EmailMarketingServiceUnitTest">
<polygon fill="white" stroke="black" points="203.811,-78 203.811,-98 358.189,-98 358.189,-78 203.811,-78"/>
<text text-anchor="middle" x="281" y="-84" font-family="Helvetica,sans-Serif" font-size="10.00">EmailMarketingServiceUnitTest</text>
</a>
</g>
</g>
<!-- Node1&#45;&gt;Node9 -->
<g id="edge8" class="edge"><title>Node1&#45;&gt;Node9</title>
<path fill="none" stroke="midnightblue" d="M99.596,-168.446C121.319,-150.923 158.053,-123.678 194,-108 203.273,-103.955 213.482,-100.667 223.526,-98.0136"/>
<polygon fill="midnightblue" stroke="midnightblue" points="97.288,-165.812 91.776,-174.861 101.727,-171.225 97.288,-165.812"/>
</g>
<!-- Node10 -->
<g id="node10" class="node"><title>Node10</title>
<g id="a_node10"><a xlink:href="class_exceptional_test.html" target="_top" xlink:title="ExceptionalTest">
<polygon fill="white" stroke="black" points="237.98,-39 237.98,-59 324.02,-59 324.02,-39 237.98,-39"/>
<text text-anchor="middle" x="281" y="-45" font-family="Helvetica,sans-Serif" font-size="10.00">ExceptionalTest</text>
</a>
</g>
</g>
<!-- Node1&#45;&gt;Node10 -->
<g id="edge9" class="edge"><title>Node1&#45;&gt;Node10</title>
<path fill="none" stroke="midnightblue" d="M92.8027,-166.501C111.788,-140.541 149.944,-93.718 194,-69 207.235,-61.5744 223.095,-56.901 237.57,-53.9617"/>
<polygon fill="midnightblue" stroke="midnightblue" points="89.8788,-164.573 86.9085,-174.743 95.5726,-168.645 89.8788,-164.573"/>
</g>
<!-- Node11 -->
<g id="node11" class="node"><title>Node11</title>
<g id="a_node11"><a xlink:href="class_list_service_unit_test.html" target="_top" xlink:title="ListServiceUnitTest">
<polygon fill="white" stroke="black" points="230.485,-0 230.485,-20 331.515,-20 331.515,-0 230.485,-0"/>
<text text-anchor="middle" x="281" y="-6" font-family="Helvetica,sans-Serif" font-size="10.00">ListServiceUnitTest</text>
</a>
</g>
</g>
<!-- Node1&#45;&gt;Node11 -->
<g id="edge10" class="edge"><title>Node1&#45;&gt;Node11</title>
<path fill="none" stroke="midnightblue" d="M88.6306,-165.58C104.464,-132.306 141.419,-64.6429 194,-30 204.752,-22.9158 217.708,-18.3272 230.263,-15.3593"/>
<polygon fill="midnightblue" stroke="midnightblue" points="85.4211,-164.182 84.4012,-174.728 91.7748,-167.12 85.4211,-164.182"/>
</g>
</g>
</svg>
