<?xml version="1.0" encoding="UTF-8" standalone="no"?>
<!DOCTYPE svg PUBLIC "-//W3C//DTD SVG 1.1//EN"
 "http://www.w3.org/Graphics/SVG/1.1/DTD/svg11.dtd">
<!-- Generated by graphviz version 2.30.1 (20130221.2233)
 -->
<!-- Title: Graphical Class Hierarchy Pages: 1 -->
<svg width="218pt" height="106pt"
 viewBox="0.00 0.00 218.00 106.00" xmlns="http://www.w3.org/2000/svg" xmlns:xlink="http://www.w3.org/1999/xlink">
<g id="graph0" class="graph" transform="scale(1 1) rotate(0) translate(4 102)">
<title>Graphical Class Hierarchy</title>
<polygon fill="white" stroke="white" points="-4,5 -4,-102 215,-102 215,5 -4,5"/>
<!-- Node1 -->
<g id="node1" class="node"><title>Node1</title>
<g id="a_node1"><a xlink:href="class_payment_option.html" target="_top" xlink:title="PaymentOption">
<polygon fill="white" stroke="black" points="0.537109,-39 0.537109,-59 85.4629,-59 85.4629,-39 0.537109,-39"/>
<text text-anchor="middle" x="43" y="-45" font-family="Helvetica,sans-Serif" font-size="10.00">PaymentOption</text>
</a>
</g>
</g>
<!-- Node2 -->
<g id="node2" class="node"><title>Node2</title>
<g id="a_node2"><a xlink:href="class_check_payment.html" target="_top" xlink:title="CheckPayment">
<polygon fill="white" stroke="black" points="124.096,-78 124.096,-98 207.904,-98 207.904,-78 124.096,-78"/>
<text text-anchor="middle" x="166" y="-84" font-family="Helvetica,sans-Serif" font-size="10.00">CheckPayment</text>
</a>
</g>
</g>
<!-- Node1&#45;&gt;Node2 -->
<g id="edge1" class="edge"><title>Node1&#45;&gt;Node2</title>
<path fill="none" stroke="midnightblue" d="M84.8369,-62.1623C100.883,-67.3341 118.999,-73.1733 133.945,-77.9906"/>
<polygon fill="midnightblue" stroke="midnightblue" points="85.7521,-58.78 75.1605,-59.0435 83.6046,-65.4425 85.7521,-58.78"/>
</g>
<!-- Node3 -->
<g id="node3" class="node"><title>Node3</title>
<g id="a_node3"><a xlink:href="class_door_payment.html" target="_top" xlink:title="DoorPayment">
<polygon fill="white" stroke="black" points="127.431,-39 127.431,-59 204.569,-59 204.569,-39 127.431,-39"/>
<text text-anchor="middle" x="166" y="-45" font-family="Helvetica,sans-Serif" font-size="10.00">DoorPayment</text>
</a>
</g>
</g>
<!-- Node1&#45;&gt;Node3 -->
<g id="edge2" class="edge"><title>Node1&#45;&gt;Node3</title>
<path fill="none" stroke="midnightblue" d="M95.6778,-49C106.311,-49 117.315,-49 127.339,-49"/>
<polygon fill="midnightblue" stroke="midnightblue" points="95.6414,-45.5001 85.6413,-49 95.6413,-52.5001 95.6414,-45.5001"/>
</g>
<!-- Node4 -->
<g id="node4" class="node"><title>Node4</title>
<g id="a_node4"><a xlink:href="class_pay_pal_payment.html" target="_top" xlink:title="PayPalPayment">
<polygon fill="white" stroke="black" points="122.426,-0 122.426,-20 209.574,-20 209.574,-0 122.426,-0"/>
<text text-anchor="middle" x="166" y="-6" font-family="Helvetica,sans-Serif" font-size="10.00">PayPalPayment</text>
</a>
</g>
</g>
<!-- Node1&#45;&gt;Node4 -->
<g id="edge3" class="edge"><title>Node1&#45;&gt;Node4</title>
<path fill="none" stroke="midnightblue" d="M84.8369,-35.8377C100.883,-30.6659 118.999,-24.8267 133.945,-20.0094"/>
<polygon fill="midnightblue" stroke="midnightblue" points="83.6046,-32.5575 75.1605,-38.9565 85.7521,-39.22 83.6046,-32.5575"/>
</g>
</g>
</svg>
