<?xml version="1.0" encoding="UTF-8" standalone="no"?>
<!DOCTYPE svg PUBLIC "-//W3C//DTD SVG 1.1//EN"
 "http://www.w3.org/Graphics/SVG/1.1/DTD/svg11.dtd">
<!-- Generated by graphviz version 2.30.1 (20130221.2233)
 -->
<!-- Title: Graphical Class Hierarchy Pages: 1 -->
<svg width="270pt" height="118pt"
 viewBox="0.00 0.00 270.00 118.00" xmlns="http://www.w3.org/2000/svg" xmlns:xlink="http://www.w3.org/1999/xlink">
<g id="graph0" class="graph" transform="scale(1 1) rotate(0) translate(4 114)">
<title>Graphical Class Hierarchy</title>
<polygon fill="white" stroke="white" points="-4,5 -4,-114 267,-114 267,5 -4,5"/>
<!-- Node1 -->
<g id="node1" class="node"><title>Node1</title>
<polygon fill="white" stroke="#bfbfbf" points="0.0419922,-45 0.0419922,-65 59.958,-65 59.958,-45 0.0419922,-45"/>
<text text-anchor="middle" x="30" y="-51" font-family="Helvetica,sans-Serif" font-size="10.00">Exception</text>
</g>
<!-- Node2 -->
<g id="node2" class="node"><title>Node2</title>
<g id="a_node2"><a xlink:href="class_ctct_1_1_exceptions_1_1_ctct_exception.html" target="_top" xlink:title="Ctct\\Exceptions\\CtctException">
<polygon fill="white" stroke="black" points="104.027,-90 104.027,-110 253.973,-110 253.973,-90 104.027,-90"/>
<text text-anchor="middle" x="179" y="-96" font-family="Helvetica,sans-Serif" font-size="10.00">Ctct\Exceptions\CtctException</text>
</a>
</g>
</g>
<!-- Node1&#45;&gt;Node2 -->
<g id="edge1" class="edge"><title>Node1&#45;&gt;Node2</title>
<path fill="none" stroke="midnightblue" d="M64.1337,-68.683C74.2663,-72.612 85.5066,-76.7172 96,-80 107.608,-83.6314 120.308,-87.0104 132.173,-89.919"/>
<polygon fill="midnightblue" stroke="midnightblue" points="65.4055,-65.4222 54.819,-65.0025 62.8332,-71.9325 65.4055,-65.4222"/>
</g>
<!-- Node3 -->
<g id="node3" class="node"><title>Node3</title>
<g id="a_node3"><a xlink:href="class_ctct_1_1_exceptions_1_1_illegal_argument_exception.html" target="_top" xlink:title="Ctct\\Exceptions\\IllegalArgument\lException">
<polygon fill="white" stroke="black" points="100.133,-39 100.133,-71 257.867,-71 257.867,-39 100.133,-39"/>
<text text-anchor="start" x="108.133" y="-57" font-family="Helvetica,sans-Serif" font-size="10.00">Ctct\Exceptions\IllegalArgument</text>
<text text-anchor="middle" x="179" y="-45" font-family="Helvetica,sans-Serif" font-size="10.00">Exception</text>
</a>
</g>
</g>
<!-- Node1&#45;&gt;Node3 -->
<g id="edge2" class="edge"><title>Node1&#45;&gt;Node3</title>
<path fill="none" stroke="midnightblue" d="M70.0728,-55C79.3515,-55 89.5759,-55 99.9218,-55"/>
<polygon fill="midnightblue" stroke="midnightblue" points="70.0425,-51.5001 60.0425,-55 70.0424,-58.5001 70.0425,-51.5001"/>
</g>
<!-- Node4 -->
<g id="node4" class="node"><title>Node4</title>
<g id="a_node4"><a xlink:href="class_ctct_1_1_exceptions_1_1_o_auth2_exception.html" target="_top" xlink:title="Ctct\\Exceptions\\OAuth2Exception">
<polygon fill="white" stroke="black" points="95.9609,-0 95.9609,-20 262.039,-20 262.039,-0 95.9609,-0"/>
<text text-anchor="middle" x="179" y="-6" font-family="Helvetica,sans-Serif" font-size="10.00">Ctct\Exceptions\OAuth2Exception</text>
</a>
</g>
</g>
<!-- Node1&#45;&gt;Node4 -->
<g id="edge3" class="edge"><title>Node1&#45;&gt;Node4</title>
<path fill="none" stroke="midnightblue" d="M64.1337,-41.317C74.2663,-37.388 85.5066,-33.2828 96,-30 107.608,-26.3686 120.308,-22.9896 132.173,-20.081"/>
<polygon fill="midnightblue" stroke="midnightblue" points="62.8332,-38.0675 54.819,-44.9975 65.4055,-44.5778 62.8332,-38.0675"/>
</g>
</g>
</svg>
