<?xml version="1.0" encoding="UTF-8" standalone="no"?>
<!DOCTYPE svg PUBLIC "-//W3C//DTD SVG 1.1//EN"
 "http://www.w3.org/Graphics/SVG/1.1/DTD/svg11.dtd">
<!-- Generated by graphviz version 2.30.1 (20130221.2233)
 -->
<!-- Title: Graphical Class Hierarchy Pages: 1 -->
<svg width="312pt" height="184pt"
 viewBox="0.00 0.00 312.00 184.00" xmlns="http://www.w3.org/2000/svg" xmlns:xlink="http://www.w3.org/1999/xlink">
<g id="graph0" class="graph" transform="scale(1 1) rotate(0) translate(4 180)">
<title>Graphical Class Hierarchy</title>
<polygon fill="white" stroke="white" points="-4,5 -4,-180 309,-180 309,5 -4,5"/>
<!-- Node1 -->
<g id="node1" class="node"><title>Node1</title>
<polygon fill="white" stroke="#bfbfbf" points="-0.0688477,-78 -0.0688477,-98 82.0688,-98 82.0688,-78 -0.0688477,-78"/>
<text text-anchor="middle" x="41" y="-84" font-family="Helvetica,sans-Serif" font-size="10.00">ErrorException</text>
</g>
<!-- Node2 -->
<g id="node2" class="node"><title>Node2</title>
<g id="a_node2"><a xlink:href="class_php_exception.html" target="_top" xlink:title="PhpException">
<polygon fill="white" stroke="black" points="118.146,-78 118.146,-98 195.854,-98 195.854,-78 118.146,-78"/>
<text text-anchor="middle" x="157" y="-84" font-family="Helvetica,sans-Serif" font-size="10.00">PhpException</text>
</a>
</g>
</g>
<!-- Node1&#45;&gt;Node2 -->
<g id="edge1" class="edge"><title>Node1&#45;&gt;Node2</title>
<path fill="none" stroke="midnightblue" d="M92.2318,-88C100.909,-88 109.799,-88 118.08,-88"/>
<polygon fill="midnightblue" stroke="midnightblue" points="92.1922,-84.5001 82.1921,-88 92.1921,-91.5001 92.1922,-84.5001"/>
</g>
<!-- Node3 -->
<g id="node3" class="node"><title>Node3</title>
<g id="a_node3"><a xlink:href="class_php_error.html" target="_top" xlink:title="PhpError">
<polygon fill="white" stroke="black" points="239.993,-156 239.993,-176 296.007,-176 296.007,-156 239.993,-156"/>
<text text-anchor="middle" x="268" y="-162" font-family="Helvetica,sans-Serif" font-size="10.00">PhpError</text>
</a>
</g>
</g>
<!-- Node2&#45;&gt;Node3 -->
<g id="edge2" class="edge"><title>Node2&#45;&gt;Node3</title>
<path fill="none" stroke="midnightblue" d="M177.995,-104.967C192.555,-116.997 212.977,-133.209 232,-146 237.111,-149.436 242.844,-152.874 248.167,-155.905"/>
<polygon fill="midnightblue" stroke="midnightblue" points="180.074,-102.144 170.154,-98.4244 175.59,-107.518 180.074,-102.144"/>
</g>
<!-- Node4 -->
<g id="node4" class="node"><title>Node4</title>
<g id="a_node4"><a xlink:href="class_php_notice.html" target="_top" xlink:title="PhpNotice">
<polygon fill="white" stroke="black" points="236.931,-117 236.931,-137 299.069,-137 299.069,-117 236.931,-117"/>
<text text-anchor="middle" x="268" y="-123" font-family="Helvetica,sans-Serif" font-size="10.00">PhpNotice</text>
</a>
</g>
</g>
<!-- Node2&#45;&gt;Node4 -->
<g id="edge3" class="edge"><title>Node2&#45;&gt;Node4</title>
<path fill="none" stroke="midnightblue" d="M195.607,-101.456C209.856,-106.554 225.815,-112.264 239.025,-116.991"/>
<polygon fill="midnightblue" stroke="midnightblue" points="196.665,-98.117 186.07,-98.0435 194.307,-104.708 196.665,-98.117"/>
</g>
<!-- Node5 -->
<g id="node5" class="node"><title>Node5</title>
<g id="a_node5"><a xlink:href="class_php_parse.html" target="_top" xlink:title="PhpParse">
<polygon fill="white" stroke="black" points="238.042,-78 238.042,-98 297.958,-98 297.958,-78 238.042,-78"/>
<text text-anchor="middle" x="268" y="-84" font-family="Helvetica,sans-Serif" font-size="10.00">PhpParse</text>
</a>
</g>
</g>
<!-- Node2&#45;&gt;Node5 -->
<g id="edge4" class="edge"><title>Node2&#45;&gt;Node5</title>
<path fill="none" stroke="midnightblue" d="M206.328,-88C217.135,-88 228.271,-88 238.005,-88"/>
<polygon fill="midnightblue" stroke="midnightblue" points="206.123,-84.5001 196.123,-88 206.123,-91.5001 206.123,-84.5001"/>
</g>
<!-- Node6 -->
<g id="node6" class="node"><title>Node6</title>
<g id="a_node6"><a xlink:href="class_php_strict.html" target="_top" xlink:title="PhpStrict">
<polygon fill="white" stroke="black" points="239.714,-39 239.714,-59 296.286,-59 296.286,-39 239.714,-39"/>
<text text-anchor="middle" x="268" y="-45" font-family="Helvetica,sans-Serif" font-size="10.00">PhpStrict</text>
</a>
</g>
</g>
<!-- Node2&#45;&gt;Node6 -->
<g id="edge5" class="edge"><title>Node2&#45;&gt;Node6</title>
<path fill="none" stroke="midnightblue" d="M195.684,-74.5169C210.05,-69.3768 226.144,-63.6184 239.402,-58.8744"/>
<polygon fill="midnightblue" stroke="midnightblue" points="194.307,-71.2922 186.07,-77.9565 196.665,-77.883 194.307,-71.2922"/>
</g>
<!-- Node7 -->
<g id="node7" class="node"><title>Node7</title>
<g id="a_node7"><a xlink:href="class_php_warning.html" target="_top" xlink:title="PhpWarning">
<polygon fill="white" stroke="black" points="232.668,-0 232.668,-20 303.332,-20 303.332,-0 232.668,-0"/>
<text text-anchor="middle" x="268" y="-6" font-family="Helvetica,sans-Serif" font-size="10.00">PhpWarning</text>
</a>
</g>
</g>
<!-- Node2&#45;&gt;Node7 -->
<g id="edge6" class="edge"><title>Node2&#45;&gt;Node7</title>
<path fill="none" stroke="midnightblue" d="M177.995,-71.0332C192.555,-59.0031 212.977,-42.7912 232,-30 237.111,-26.5635 242.844,-23.1264 248.167,-20.095"/>
<polygon fill="midnightblue" stroke="midnightblue" points="175.59,-68.4815 170.154,-77.5756 180.074,-73.8563 175.59,-68.4815"/>
</g>
</g>
</svg>
