<?xml version="1.0" encoding="UTF-8" standalone="no"?>
<!DOCTYPE svg PUBLIC "-//W3C//DTD SVG 1.1//EN"
 "http://www.w3.org/Graphics/SVG/1.1/DTD/svg11.dtd">
<!-- Generated by graphviz version 2.30.1 (20130221.2233)
 -->
<!-- Title: Graphical Class Hierarchy Pages: 1 -->
<svg width="288pt" height="340pt"
 viewBox="0.00 0.00 288.00 340.00" xmlns="http://www.w3.org/2000/svg" xmlns:xlink="http://www.w3.org/1999/xlink">
<g id="graph0" class="graph" transform="scale(1 1) rotate(0) translate(4 336)">
<title>Graphical Class Hierarchy</title>
<polygon fill="white" stroke="white" points="-4,5 -4,-336 285,-336 285,5 -4,5"/>
<!-- Node1 -->
<g id="node1" class="node"><title>Node1</title>
<g id="a_node1"><a xlink:href="class_c_t_c_t___admin___page.html" target="_top" xlink:title="CTCT_Admin_Page">
<polygon fill="white" stroke="black" points="0.258789,-156 0.258789,-176 105.741,-176 105.741,-156 0.258789,-156"/>
<text text-anchor="middle" x="53" y="-162" font-family="Helvetica,sans-Serif" font-size="10.00">CTCT_Admin_Page</text>
</a>
</g>
</g>
<!-- Node2 -->
<g id="node2" class="node"><title>Node2</title>
<g id="a_node2"><a xlink:href="class_c_t_c_t___admin.html" target="_top" xlink:title="CTCT_Admin">
<polygon fill="white" stroke="black" points="172.717,-312 172.717,-332 249.283,-332 249.283,-312 172.717,-312"/>
<text text-anchor="middle" x="211" y="-318" font-family="Helvetica,sans-Serif" font-size="10.00">CTCT_Admin</text>
</a>
</g>
</g>
<!-- Node1&#45;&gt;Node2 -->
<g id="edge1" class="edge"><title>Node1&#45;&gt;Node2</title>
<path fill="none" stroke="midnightblue" d="M61.429,-185.61C73.6655,-215.262 100.876,-271.3 142,-302 150.875,-308.625 161.914,-313.064 172.499,-316.035"/>
<polygon fill="midnightblue" stroke="midnightblue" points="64.6763,-184.304 57.727,-176.306 58.1723,-186.892 64.6763,-184.304"/>
</g>
<!-- Node3 -->
<g id="node3" class="node"><title>Node3</title>
<g id="a_node3"><a xlink:href="class_c_t_c_t___admin___campaigns.html" target="_top" xlink:title="CTCT_Admin_Campaigns">
<polygon fill="white" stroke="black" points="144.646,-273 144.646,-293 277.354,-293 277.354,-273 144.646,-273"/>
<text text-anchor="middle" x="211" y="-279" font-family="Helvetica,sans-Serif" font-size="10.00">CTCT_Admin_Campaigns</text>
</a>
</g>
</g>
<!-- Node1&#45;&gt;Node3 -->
<g id="edge2" class="edge"><title>Node1&#45;&gt;Node3</title>
<path fill="none" stroke="midnightblue" d="M66.1002,-184.63C81.2729,-206.535 109.299,-242.497 142,-263 148.464,-267.053 155.785,-270.316 163.17,-272.933"/>
<polygon fill="midnightblue" stroke="midnightblue" points="68.9012,-182.524 60.4084,-176.189 63.0973,-186.437 68.9012,-182.524"/>
</g>
<!-- Node4 -->
<g id="node4" class="node"><title>Node4</title>
<g id="a_node4"><a xlink:href="class_c_t_c_t___admin___contacts.html" target="_top" xlink:title="CTCT_Admin_Contacts">
<polygon fill="white" stroke="black" points="150.205,-234 150.205,-254 271.795,-254 271.795,-234 150.205,-234"/>
<text text-anchor="middle" x="211" y="-240" font-family="Helvetica,sans-Serif" font-size="10.00">CTCT_Admin_Contacts</text>
</a>
</g>
</g>
<!-- Node1&#45;&gt;Node4 -->
<g id="edge3" class="edge"><title>Node1&#45;&gt;Node4</title>
<path fill="none" stroke="midnightblue" d="M74.8927,-182.35C92.0957,-195.16 117.547,-212.655 142,-224 150.372,-227.884 159.675,-231.209 168.645,-233.969"/>
<polygon fill="midnightblue" stroke="midnightblue" points="76.7805,-179.389 66.6974,-176.136 72.5509,-184.967 76.7805,-179.389"/>
</g>
<!-- Node5 -->
<g id="node5" class="node"><title>Node5</title>
<g id="a_node5"><a xlink:href="class_c_t_c_t___admin___lists.html" target="_top" xlink:title="CTCT_Admin_Lists">
<polygon fill="white" stroke="black" points="159.655,-195 159.655,-215 262.345,-215 262.345,-195 159.655,-195"/>
<text text-anchor="middle" x="211" y="-201" font-family="Helvetica,sans-Serif" font-size="10.00">CTCT_Admin_Lists</text>
</a>
</g>
</g>
<!-- Node1&#45;&gt;Node5 -->
<g id="edge4" class="edge"><title>Node1&#45;&gt;Node5</title>
<path fill="none" stroke="midnightblue" d="M104.03,-178.507C125.346,-183.837 149.875,-189.969 169.962,-194.991"/>
<polygon fill="midnightblue" stroke="midnightblue" points="104.724,-175.073 94.1739,-176.043 103.026,-181.864 104.724,-175.073"/>
</g>
<!-- Node6 -->
<g id="node6" class="node"><title>Node6</title>
<g id="a_node6"><a xlink:href="class_c_t_c_t___admin___user___profile.html" target="_top" xlink:title="CTCT_Admin_User_Profile">
<polygon fill="white" stroke="black" points="142.426,-156 142.426,-176 279.574,-176 279.574,-156 142.426,-156"/>
<text text-anchor="middle" x="211" y="-162" font-family="Helvetica,sans-Serif" font-size="10.00">CTCT_Admin_User_Profile</text>
</a>
</g>
</g>
<!-- Node1&#45;&gt;Node6 -->
<g id="edge5" class="edge"><title>Node1&#45;&gt;Node6</title>
<path fill="none" stroke="midnightblue" d="M116.204,-166C124.744,-166 133.549,-166 142.184,-166"/>
<polygon fill="midnightblue" stroke="midnightblue" points="115.946,-162.5 105.946,-166 115.946,-169.5 115.946,-162.5"/>
</g>
<!-- Node7 -->
<g id="node7" class="node"><title>Node7</title>
<g id="a_node7"><a xlink:href="class_c_t_c_t___constant___analytics.html" target="_top" xlink:title="CTCT_Constant_Analytics">
<polygon fill="white" stroke="black" points="144.089,-117 144.089,-137 277.911,-137 277.911,-117 144.089,-117"/>
<text text-anchor="middle" x="211" y="-123" font-family="Helvetica,sans-Serif" font-size="10.00">CTCT_Constant_Analytics</text>
</a>
</g>
</g>
<!-- Node1&#45;&gt;Node7 -->
<g id="edge6" class="edge"><title>Node1&#45;&gt;Node7</title>
<path fill="none" stroke="midnightblue" d="M104.03,-153.493C125.346,-148.163 149.875,-142.031 169.962,-137.009"/>
<polygon fill="midnightblue" stroke="midnightblue" points="103.026,-150.136 94.1739,-155.957 104.724,-156.927 103.026,-150.136"/>
</g>
<!-- Node8 -->
<g id="node8" class="node"><title>Node8</title>
<g id="a_node8"><a xlink:href="class_c_t_c_t___event_spot.html" target="_top" xlink:title="CTCT_EventSpot">
<polygon fill="white" stroke="black" points="163.818,-78 163.818,-98 258.182,-98 258.182,-78 163.818,-78"/>
<text text-anchor="middle" x="211" y="-84" font-family="Helvetica,sans-Serif" font-size="10.00">CTCT_EventSpot</text>
</a>
</g>
</g>
<!-- Node1&#45;&gt;Node8 -->
<g id="edge7" class="edge"><title>Node1&#45;&gt;Node8</title>
<path fill="none" stroke="midnightblue" d="M74.8927,-149.65C92.0957,-136.84 117.547,-119.345 142,-108 150.372,-104.116 159.675,-100.791 168.645,-98.0309"/>
<polygon fill="midnightblue" stroke="midnightblue" points="72.5509,-147.033 66.6974,-155.864 76.7805,-152.611 72.5509,-147.033"/>
</g>
<!-- Node9 -->
<g id="node9" class="node"><title>Node9</title>
<g id="a_node9"><a xlink:href="class_c_t_c_t___form___designer.html" target="_top" xlink:title="CTCT_Form_Designer">
<polygon fill="white" stroke="black" points="152.434,-39 152.434,-59 269.566,-59 269.566,-39 152.434,-39"/>
<text text-anchor="middle" x="211" y="-45" font-family="Helvetica,sans-Serif" font-size="10.00">CTCT_Form_Designer</text>
</a>
</g>
</g>
<!-- Node1&#45;&gt;Node9 -->
<g id="edge8" class="edge"><title>Node1&#45;&gt;Node9</title>
<path fill="none" stroke="midnightblue" d="M66.1002,-147.37C81.2729,-125.465 109.299,-89.5034 142,-69 148.464,-64.9471 155.785,-61.6843 163.17,-59.0665"/>
<polygon fill="midnightblue" stroke="midnightblue" points="63.0973,-145.563 60.4084,-155.811 68.9012,-149.476 63.0973,-145.563"/>
</g>
<!-- Node10 -->
<g id="node10" class="node"><title>Node10</title>
<g id="a_node10"><a xlink:href="class_c_t_c_t___settings.html" target="_top" xlink:title="CTCT_Settings">
<polygon fill="white" stroke="black" points="168.823,-0 168.823,-20 253.177,-20 253.177,-0 168.823,-0"/>
<text text-anchor="middle" x="211" y="-6" font-family="Helvetica,sans-Serif" font-size="10.00">CTCT_Settings</text>
</a>
</g>
</g>
<!-- Node1&#45;&gt;Node10 -->
<g id="edge9" class="edge"><title>Node1&#45;&gt;Node10</title>
<path fill="none" stroke="midnightblue" d="M61.429,-146.39C73.6655,-116.738 100.876,-60.7003 142,-30 149.79,-24.1845 159.248,-20.0537 168.602,-17.1215"/>
<polygon fill="midnightblue" stroke="midnightblue" points="58.1723,-145.108 57.727,-155.694 64.6763,-147.696 58.1723,-145.108"/>
</g>
</g>
</svg>
