<?xml version="1.0" encoding="UTF-8" standalone="no"?>
<!DOCTYPE svg PUBLIC "-//W3C//DTD SVG 1.1//EN"
 "http://www.w3.org/Graphics/SVG/1.1/DTD/svg11.dtd">
<!-- Generated by graphviz version 2.30.1 (20130221.2233)
 -->
<!-- Title: Graphical Class Hierarchy Pages: 1 -->
<svg width="264pt" height="67pt"
 viewBox="0.00 0.00 264.00 67.00" xmlns="http://www.w3.org/2000/svg" xmlns:xlink="http://www.w3.org/1999/xlink">
<g id="graph0" class="graph" transform="scale(1 1) rotate(0) translate(4 63)">
<title>Graphical Class Hierarchy</title>
<polygon fill="white" stroke="white" points="-4,5 -4,-63 261,-63 261,5 -4,5"/>
<!-- Node1 -->
<g id="node1" class="node"><title>Node1</title>
<g id="a_node1"><a xlink:href="class_registrant_information.html" target="_top" xlink:title="RegistrantInformation">
<polygon fill="white" stroke="black" points="0.199707,-19 0.199707,-39 111.8,-39 111.8,-19 0.199707,-19"/>
<text text-anchor="middle" x="56" y="-25" font-family="Helvetica,sans-Serif" font-size="10.00">RegistrantInformation</text>
</a>
</g>
</g>
<!-- Node2 -->
<g id="node2" class="node"><title>Node2</title>
<g id="a_node2"><a xlink:href="class_business_information.html" target="_top" xlink:title="BusinessInformation">
<polygon fill="white" stroke="black" points="148.7,-39 148.7,-59 255.3,-59 255.3,-39 148.7,-39"/>
<text text-anchor="middle" x="202" y="-45" font-family="Helvetica,sans-Serif" font-size="10.00">BusinessInformation</text>
</a>
</g>
</g>
<!-- Node1&#45;&gt;Node2 -->
<g id="edge1" class="edge"><title>Node1&#45;&gt;Node2</title>
<path fill="none" stroke="midnightblue" d="M121.885,-38.0118C130.854,-39.2575 139.973,-40.524 148.675,-41.7327"/>
<polygon fill="midnightblue" stroke="midnightblue" points="122.237,-34.5272 111.851,-36.6182 121.274,-41.4607 122.237,-34.5272"/>
</g>
<!-- Node3 -->
<g id="node3" class="node"><title>Node3</title>
<g id="a_node3"><a xlink:href="class_personal_information.html" target="_top" xlink:title="PersonalInformation">
<polygon fill="white" stroke="black" points="149.254,-0 149.254,-20 254.746,-20 254.746,-0 149.254,-0"/>
<text text-anchor="middle" x="202" y="-6" font-family="Helvetica,sans-Serif" font-size="10.00">PersonalInformation</text>
</a>
</g>
</g>
<!-- Node1&#45;&gt;Node3 -->
<g id="edge2" class="edge"><title>Node1&#45;&gt;Node3</title>
<path fill="none" stroke="midnightblue" d="M122.018,-20.4212C131.107,-19.222 140.346,-18.003 149.148,-16.8416"/>
<polygon fill="midnightblue" stroke="midnightblue" points="121.307,-16.9846 111.851,-21.7627 122.223,-23.9244 121.307,-16.9846"/>
</g>
</g>
</svg>
