<?xml version="1.0" encoding="UTF-8" standalone="no"?>
<!DOCTYPE svg PUBLIC "-//W3C//DTD SVG 1.1//EN"
 "http://www.w3.org/Graphics/SVG/1.1/DTD/svg11.dtd">
<!-- Generated by graphviz version 2.30.1 (20130221.2233)
 -->
<!-- Title: Graphical Class Hierarchy Pages: 1 -->
<svg width="284pt" height="67pt"
 viewBox="0.00 0.00 284.00 67.00" xmlns="http://www.w3.org/2000/svg" xmlns:xlink="http://www.w3.org/1999/xlink">
<g id="graph0" class="graph" transform="scale(1 1) rotate(0) translate(4 63)">
<title>Graphical Class Hierarchy</title>
<polygon fill="white" stroke="white" points="-4,5 -4,-63 281,-63 281,5 -4,5"/>
<!-- Node1 -->
<g id="node1" class="node"><title>Node1</title>
<g id="a_node1"><a xlink:href="interface_ctct_1_1_util_1_1_rest_client_interface.html" target="_top" xlink:title="Ctct\\Util\\RestClientInterface">
<polygon fill="white" stroke="black" points="0.591309,-19 0.591309,-39 139.409,-39 139.409,-19 0.591309,-19"/>
<text text-anchor="middle" x="70" y="-25" font-family="Helvetica,sans-Serif" font-size="10.00">Ctct\Util\RestClientInterface</text>
</a>
</g>
</g>
<!-- Node2 -->
<g id="node2" class="node"><title>Node2</title>
<g id="a_node2"><a xlink:href="class_ctct_1_1_util_1_1_rest_client.html" target="_top" xlink:title="Ctct\\Util\\RestClient">
<polygon fill="white" stroke="black" points="176.047,-39 176.047,-59 275.953,-59 275.953,-39 176.047,-39"/>
<text text-anchor="middle" x="226" y="-45" font-family="Helvetica,sans-Serif" font-size="10.00">Ctct\Util\RestClient</text>
</a>
</g>
</g>
<!-- Node1&#45;&gt;Node2 -->
<g id="edge1" class="edge"><title>Node1&#45;&gt;Node2</title>
<path fill="none" stroke="midnightblue" d="M149.499,-39.1947C158.419,-40.3531 167.311,-41.5079 175.698,-42.5971"/>
<polygon fill="midnightblue" stroke="midnightblue" points="149.811,-35.7059 139.443,-37.8888 148.909,-42.6476 149.811,-35.7059"/>
</g>
<!-- Node3 -->
<g id="node3" class="node"><title>Node3</title>
<g id="a_node3"><a xlink:href="class_k_w_s_rest_client.html" target="_top" xlink:title="KWSRestClient">
<polygon fill="white" stroke="black" points="183.547,-0 183.547,-20 268.453,-20 268.453,-0 183.547,-0"/>
<text text-anchor="middle" x="226" y="-6" font-family="Helvetica,sans-Serif" font-size="10.00">KWSRestClient</text>
</a>
</g>
</g>
<!-- Node1&#45;&gt;Node3 -->
<g id="edge2" class="edge"><title>Node1&#45;&gt;Node3</title>
<path fill="none" stroke="midnightblue" d="M149.64,-19.2977C161.258,-17.8643 172.826,-16.4371 183.286,-15.1466"/>
<polygon fill="midnightblue" stroke="midnightblue" points="148.94,-15.8574 139.443,-20.5557 149.797,-22.8048 148.94,-15.8574"/>
</g>
</g>
</svg>
