<?xml version="1.0" encoding="UTF-8" standalone="no"?>
<!DOCTYPE svg PUBLIC "-//W3C//DTD SVG 1.1//EN"
 "http://www.w3.org/Graphics/SVG/1.1/DTD/svg11.dtd">
<!-- Generated by graphviz version 2.30.1 (20130221.2233)
 -->
<!-- Title: Graphical Class Hierarchy Pages: 1 -->
<svg width="484pt" height="1201pt"
 viewBox="0.00 0.00 484.00 1201.00" xmlns="http://www.w3.org/2000/svg" xmlns:xlink="http://www.w3.org/1999/xlink">
<g id="graph0" class="graph" transform="scale(1 1) rotate(0) translate(4 1197)">
<title>Graphical Class Hierarchy</title>
<polygon fill="white" stroke="white" points="-4,5 -4,-1197 481,-1197 481,5 -4,5"/>
<!-- Node1 -->
<g id="node1" class="node"><title>Node1</title>
<g id="a_node1"><a xlink:href="class_ctct_1_1_components_1_1_component.html" target="_top" xlink:title="Super class for all components. ">
<polygon fill="white" stroke="black" points="0.133301,-589 0.133301,-609 147.867,-609 147.867,-589 0.133301,-589"/>
<text text-anchor="middle" x="74" y="-595" font-family="Helvetica,sans-Serif" font-size="10.00">Ctct\Components\Component</text>
</a>
</g>
</g>
<!-- Node2 -->
<g id="node2" class="node"><title>Node2</title>
<g id="a_node2"><a xlink:href="class_ctct_1_1_components_1_1_account_1_1_verified_email_address.html" target="_top" xlink:title="Ctct\\Components\\Account\l\\VerifiedEmailAddress">
<polygon fill="white" stroke="black" points="200.917,-1161 200.917,-1193 333.083,-1193 333.083,-1161 200.917,-1161"/>
<text text-anchor="start" x="208.917" y="-1179" font-family="Helvetica,sans-Serif" font-size="10.00">Ctct\Components\Account</text>
<text text-anchor="middle" x="267" y="-1167" font-family="Helvetica,sans-Serif" font-size="10.00">\VerifiedEmailAddress</text>
</a>
</g>
</g>
<!-- Node1&#45;&gt;Node2 -->
<g id="edge1" class="edge"><title>Node1&#45;&gt;Node2</title>
<path fill="none" stroke="midnightblue" d="M76.291,-619.261C82.3987,-708.966 111.193,-1069.54 184,-1151 188.678,-1156.23 194.402,-1160.42 200.63,-1163.77"/>
<polygon fill="midnightblue" stroke="midnightblue" points="79.7695,-618.819 75.6168,-609.072 72.7848,-619.281 79.7695,-618.819"/>
</g>
<!-- Node3 -->
<g id="node3" class="node"><title>Node3</title>
<g id="a_node3"><a xlink:href="class_ctct_1_1_components_1_1_activities_1_1_activity.html" target="_top" xlink:title="Ctct\\Components\\Activities\l\\Activity">
<polygon fill="white" stroke="black" points="199.256,-1110 199.256,-1142 334.744,-1142 334.744,-1110 199.256,-1110"/>
<text text-anchor="start" x="207.256" y="-1128" font-family="Helvetica,sans-Serif" font-size="10.00">Ctct\Components\Activities</text>
<text text-anchor="middle" x="267" y="-1116" font-family="Helvetica,sans-Serif" font-size="10.00">\Activity</text>
</a>
</g>
</g>
<!-- Node1&#45;&gt;Node3 -->
<g id="edge2" class="edge"><title>Node1&#45;&gt;Node3</title>
<path fill="none" stroke="midnightblue" d="M76.7558,-619.523C84.4115,-704.41 117.509,-1027.03 184,-1100 188.325,-1104.75 193.511,-1108.63 199.146,-1111.81"/>
<polygon fill="midnightblue" stroke="midnightblue" points="80.2256,-619.026 75.8606,-609.372 73.2527,-619.641 80.2256,-619.026"/>
</g>
<!-- Node4 -->
<g id="node4" class="node"><title>Node4</title>
<g id="a_node4"><a xlink:href="class_ctct_1_1_components_1_1_activities_1_1_activity_error.html" target="_top" xlink:title="Ctct\\Components\\Activities\l\\ActivityError">
<polygon fill="white" stroke="black" points="199.256,-1059 199.256,-1091 334.744,-1091 334.744,-1059 199.256,-1059"/>
<text text-anchor="start" x="207.256" y="-1077" font-family="Helvetica,sans-Serif" font-size="10.00">Ctct\Components\Activities</text>
<text text-anchor="middle" x="267" y="-1065" font-family="Helvetica,sans-Serif" font-size="10.00">\ActivityError</text>
</a>
</g>
</g>
<!-- Node1&#45;&gt;Node4 -->
<g id="edge3" class="edge"><title>Node1&#45;&gt;Node4</title>
<path fill="none" stroke="midnightblue" d="M77.2603,-619.173C86.4784,-698.032 123.635,-984.294 184,-1049 188.279,-1053.59 193.361,-1057.37 198.867,-1060.48"/>
<polygon fill="midnightblue" stroke="midnightblue" points="80.721,-618.63 76.1035,-609.094 73.7666,-619.428 80.721,-618.63"/>
</g>
<!-- Node5 -->
<g id="node5" class="node"><title>Node5</title>
<g id="a_node5"><a xlink:href="class_ctct_1_1_components_1_1_activities_1_1_add_contacts.html" target="_top" xlink:title="Ctct\\Components\\Activities\l\\AddContacts">
<polygon fill="white" stroke="black" points="199.256,-1008 199.256,-1040 334.744,-1040 334.744,-1008 199.256,-1008"/>
<text text-anchor="start" x="207.256" y="-1026" font-family="Helvetica,sans-Serif" font-size="10.00">Ctct\Components\Activities</text>
<text text-anchor="middle" x="267" y="-1014" font-family="Helvetica,sans-Serif" font-size="10.00">\AddContacts</text>
</a>
</g>
</g>
<!-- Node1&#45;&gt;Node5 -->
<g id="edge4" class="edge"><title>Node1&#45;&gt;Node5</title>
<path fill="none" stroke="midnightblue" d="M74.2373,-619.042C72.9184,-683.443 77.7168,-887.337 184,-998 188.345,-1002.52 193.471,-1006.26 199.006,-1009.35"/>
<polygon fill="midnightblue" stroke="midnightblue" points="77.7371,-619.095 74.5204,-609.001 70.7399,-618.898 77.7371,-619.095"/>
</g>
<!-- Node6 -->
<g id="node6" class="node"><title>Node6</title>
<g id="a_node6"><a xlink:href="class_ctct_1_1_components_1_1_activities_1_1_add_contacts_import_data.html" target="_top" xlink:title="Ctct\\Components\\Activities\l\\AddContactsImportData">
<polygon fill="white" stroke="black" points="199.256,-957 199.256,-989 334.744,-989 334.744,-957 199.256,-957"/>
<text text-anchor="start" x="207.256" y="-975" font-family="Helvetica,sans-Serif" font-size="10.00">Ctct\Components\Activities</text>
<text text-anchor="middle" x="267" y="-963" font-family="Helvetica,sans-Serif" font-size="10.00">\AddContactsImportData</text>
</a>
</g>
</g>
<!-- Node1&#45;&gt;Node6 -->
<g id="edge5" class="edge"><title>Node1&#45;&gt;Node6</title>
<path fill="none" stroke="midnightblue" d="M75.203,-619.548C76.9263,-678.982 90.153,-852.823 184,-947 188.428,-951.443 193.609,-955.128 199.179,-958.184"/>
<polygon fill="midnightblue" stroke="midnightblue" points="78.6961,-619.17 74.9912,-609.244 71.6975,-619.314 78.6961,-619.17"/>
</g>
<!-- Node7 -->
<g id="node7" class="node"><title>Node7</title>
<g id="a_node7"><a xlink:href="class_ctct_1_1_components_1_1_activities_1_1_export_contacts.html" target="_top" xlink:title="Ctct\\Components\\Activities\l\\ExportContacts">
<polygon fill="white" stroke="black" points="199.256,-906 199.256,-938 334.744,-938 334.744,-906 199.256,-906"/>
<text text-anchor="start" x="207.256" y="-924" font-family="Helvetica,sans-Serif" font-size="10.00">Ctct\Components\Activities</text>
<text text-anchor="middle" x="267" y="-912" font-family="Helvetica,sans-Serif" font-size="10.00">\ExportContacts</text>
</a>
</g>
</g>
<!-- Node1&#45;&gt;Node7 -->
<g id="edge6" class="edge"><title>Node1&#45;&gt;Node7</title>
<path fill="none" stroke="midnightblue" d="M76.4656,-619.336C81.405,-672.636 102.083,-817.665 184,-896 188.425,-900.232 193.537,-903.775 199,-906.742"/>
<polygon fill="midnightblue" stroke="midnightblue" points="79.9349,-618.821 75.6146,-609.147 72.9592,-619.404 79.9349,-618.821"/>
</g>
<!-- Node8 -->
<g id="node8" class="node"><title>Node8</title>
<g id="a_node8"><a xlink:href="class_ctct_1_1_components_1_1_contacts_1_1_address.html" target="_top" xlink:title="Ctct\\Components\\Contacts\l\\Address">
<polygon fill="white" stroke="black" points="199.251,-855 199.251,-887 334.749,-887 334.749,-855 199.251,-855"/>
<text text-anchor="start" x="207.251" y="-873" font-family="Helvetica,sans-Serif" font-size="10.00">Ctct\Components\Contacts</text>
<text text-anchor="middle" x="267" y="-861" font-family="Helvetica,sans-Serif" font-size="10.00">\Address</text>
</a>
</g>
</g>
<!-- Node1&#45;&gt;Node8 -->
<g id="edge7" class="edge"><title>Node1&#45;&gt;Node8</title>
<path fill="none" stroke="midnightblue" d="M78.1966,-619.236C86.6439,-665.977 113.919,-782.236 184,-845 188.45,-848.985 193.511,-852.36 198.884,-855.218"/>
<polygon fill="midnightblue" stroke="midnightblue" points="81.6097,-618.43 76.4777,-609.161 74.7095,-619.607 81.6097,-618.43"/>
</g>
<!-- Node9 -->
<g id="node9" class="node"><title>Node9</title>
<g id="a_node9"><a xlink:href="class_ctct_1_1_components_1_1_contacts_1_1_contact.html" target="_top" xlink:title="Ctct\\Components\\Contacts\l\\Contact">
<polygon fill="white" stroke="black" points="199.251,-804 199.251,-836 334.749,-836 334.749,-804 199.251,-804"/>
<text text-anchor="start" x="207.251" y="-822" font-family="Helvetica,sans-Serif" font-size="10.00">Ctct\Components\Contacts</text>
<text text-anchor="middle" x="267" y="-810" font-family="Helvetica,sans-Serif" font-size="10.00">\Contact</text>
</a>
</g>
</g>
<!-- Node1&#45;&gt;Node9 -->
<g id="edge8" class="edge"><title>Node1&#45;&gt;Node9</title>
<path fill="none" stroke="midnightblue" d="M80.6905,-618.982C92.9255,-658.357 125.478,-746.281 184,-794 188.746,-797.87 194.074,-801.167 199.678,-803.975"/>
<polygon fill="midnightblue" stroke="midnightblue" points="83.9944,-617.814 77.7737,-609.238 77.2884,-619.822 83.9944,-617.814"/>
</g>
<!-- Node11 -->
<g id="node11" class="node"><title>Node11</title>
<g id="a_node11"><a xlink:href="class_ctct_1_1_components_1_1_contacts_1_1_contact_list.html" target="_top" xlink:title="Ctct\\Components\\Contacts\l\\ContactList">
<polygon fill="white" stroke="black" points="199.251,-753 199.251,-785 334.749,-785 334.749,-753 199.251,-753"/>
<text text-anchor="start" x="207.251" y="-771" font-family="Helvetica,sans-Serif" font-size="10.00">Ctct\Components\Contacts</text>
<text text-anchor="middle" x="267" y="-759" font-family="Helvetica,sans-Serif" font-size="10.00">\ContactList</text>
</a>
</g>
</g>
<!-- Node1&#45;&gt;Node11 -->
<g id="edge10" class="edge"><title>Node1&#45;&gt;Node11</title>
<path fill="none" stroke="midnightblue" d="M84.5484,-618.324C100.766,-649.185 136.601,-709.521 184,-743 189.367,-746.791 195.312,-750.047 201.477,-752.84"/>
<polygon fill="midnightblue" stroke="midnightblue" points="87.4837,-616.377 79.8122,-609.069 81.2523,-619.566 87.4837,-616.377"/>
</g>
<!-- Node13 -->
<g id="node13" class="node"><title>Node13</title>
<g id="a_node13"><a xlink:href="class_ctct_1_1_components_1_1_contacts_1_1_custom_field.html" target="_top" xlink:title="Ctct\\Components\\Contacts\l\\CustomField">
<polygon fill="white" stroke="black" points="199.251,-702 199.251,-734 334.749,-734 334.749,-702 199.251,-702"/>
<text text-anchor="start" x="207.251" y="-720" font-family="Helvetica,sans-Serif" font-size="10.00">Ctct\Components\Contacts</text>
<text text-anchor="middle" x="267" y="-708" font-family="Helvetica,sans-Serif" font-size="10.00">\CustomField</text>
</a>
</g>
</g>
<!-- Node1&#45;&gt;Node13 -->
<g id="edge12" class="edge"><title>Node1&#45;&gt;Node13</title>
<path fill="none" stroke="midnightblue" d="M91.2968,-616.67C111.302,-637.402 147.134,-671.538 184,-692 190.79,-695.769 198.205,-699.079 205.711,-701.962"/>
<polygon fill="midnightblue" stroke="midnightblue" points="93.6213,-614.034 84.2013,-609.185 88.5414,-618.85 93.6213,-614.034"/>
</g>
<!-- Node14 -->
<g id="node14" class="node"><title>Node14</title>
<g id="a_node14"><a xlink:href="class_ctct_1_1_components_1_1_contacts_1_1_email_address.html" target="_top" xlink:title="Ctct\\Components\\Contacts\l\\EmailAddress">
<polygon fill="white" stroke="black" points="199.251,-651 199.251,-683 334.749,-683 334.749,-651 199.251,-651"/>
<text text-anchor="start" x="207.251" y="-669" font-family="Helvetica,sans-Serif" font-size="10.00">Ctct\Components\Contacts</text>
<text text-anchor="middle" x="267" y="-657" font-family="Helvetica,sans-Serif" font-size="10.00">\EmailAddress</text>
</a>
</g>
</g>
<!-- Node1&#45;&gt;Node14 -->
<g id="edge13" class="edge"><title>Node1&#45;&gt;Node14</title>
<path fill="none" stroke="midnightblue" d="M109.258,-612.814C130.63,-621.279 158.776,-632.151 184,-641 193.583,-644.362 203.861,-647.772 213.788,-650.968"/>
<polygon fill="midnightblue" stroke="midnightblue" points="110.535,-609.556 99.9499,-609.11 107.947,-616.06 110.535,-609.556"/>
</g>
<!-- Node15 -->
<g id="node15" class="node"><title>Node15</title>
<g id="a_node15"><a xlink:href="class_ctct_1_1_components_1_1_contacts_1_1_note.html" target="_top" xlink:title="Ctct\\Components\\Contacts\\Note">
<polygon fill="white" stroke="black" points="187.301,-612 187.301,-632 346.699,-632 346.699,-612 187.301,-612"/>
<text text-anchor="middle" x="267" y="-618" font-family="Helvetica,sans-Serif" font-size="10.00">Ctct\Components\Contacts\Note</text>
</a>
</g>
</g>
<!-- Node1&#45;&gt;Node15 -->
<g id="edge14" class="edge"><title>Node1&#45;&gt;Node15</title>
<path fill="none" stroke="midnightblue" d="M158.061,-609.002C167.768,-610.171 177.648,-611.361 187.293,-612.522"/>
<polygon fill="midnightblue" stroke="midnightblue" points="158.373,-605.515 148.026,-607.794 157.536,-612.464 158.373,-605.515"/>
</g>
<!-- Node16 -->
<g id="node16" class="node"><title>Node16</title>
<g id="a_node16"><a xlink:href="class_ctct_1_1_components_1_1_email_marketing_1_1_campaign.html" target="_top" xlink:title="Ctct\\Components\\EmailMarketing\l\\Campaign">
<polygon fill="white" stroke="black" points="184.527,-561 184.527,-593 349.473,-593 349.473,-561 184.527,-561"/>
<text text-anchor="start" x="192.527" y="-579" font-family="Helvetica,sans-Serif" font-size="10.00">Ctct\Components\EmailMarketing</text>
<text text-anchor="middle" x="267" y="-567" font-family="Helvetica,sans-Serif" font-size="10.00">\Campaign</text>
</a>
</g>
</g>
<!-- Node1&#45;&gt;Node16 -->
<g id="edge15" class="edge"><title>Node1&#45;&gt;Node16</title>
<path fill="none" stroke="midnightblue" d="M158.167,-589.421C166.874,-588.418 175.721,-587.399 184.411,-586.398"/>
<polygon fill="midnightblue" stroke="midnightblue" points="157.56,-585.967 148.026,-590.589 158.361,-592.921 157.56,-585.967"/>
</g>
<!-- Node18 -->
<g id="node18" class="node"><title>Node18</title>
<g id="a_node18"><a xlink:href="class_ctct_1_1_components_1_1_email_marketing_1_1_click_through_details.html" target="_top" xlink:title="Ctct\\Components\\EmailMarketing\l\\ClickThroughDetails">
<polygon fill="white" stroke="black" points="184.527,-510 184.527,-542 349.473,-542 349.473,-510 184.527,-510"/>
<text text-anchor="start" x="192.527" y="-528" font-family="Helvetica,sans-Serif" font-size="10.00">Ctct\Components\EmailMarketing</text>
<text text-anchor="middle" x="267" y="-516" font-family="Helvetica,sans-Serif" font-size="10.00">\ClickThroughDetails</text>
</a>
</g>
</g>
<!-- Node1&#45;&gt;Node18 -->
<g id="edge17" class="edge"><title>Node1&#45;&gt;Node18</title>
<path fill="none" stroke="midnightblue" d="M105.791,-584.743C127.441,-574.962 157.21,-561.994 184,-552 193.235,-548.555 203.159,-545.158 212.802,-542.013"/>
<polygon fill="midnightblue" stroke="midnightblue" points="104.108,-581.664 96.4554,-588.991 107.007,-588.035 104.108,-581.664"/>
</g>
<!-- Node19 -->
<g id="node19" class="node"><title>Node19</title>
<g id="a_node19"><a xlink:href="class_ctct_1_1_components_1_1_email_marketing_1_1_message_footer.html" target="_top" xlink:title="Ctct\\Components\\EmailMarketing\l\\MessageFooter">
<polygon fill="white" stroke="black" points="184.527,-459 184.527,-491 349.473,-491 349.473,-459 184.527,-459"/>
<text text-anchor="start" x="192.527" y="-477" font-family="Helvetica,sans-Serif" font-size="10.00">Ctct\Components\EmailMarketing</text>
<text text-anchor="middle" x="267" y="-465" font-family="Helvetica,sans-Serif" font-size="10.00">\MessageFooter</text>
</a>
</g>
</g>
<!-- Node1&#45;&gt;Node19 -->
<g id="edge18" class="edge"><title>Node1&#45;&gt;Node19</title>
<path fill="none" stroke="midnightblue" d="M90.2262,-581.3C109.854,-559.513 146.004,-522.739 184,-501 190.611,-497.218 197.843,-493.91 205.185,-491.039"/>
<polygon fill="midnightblue" stroke="midnightblue" points="87.5481,-579.045 83.5432,-588.854 92.7908,-583.683 87.5481,-579.045"/>
</g>
<!-- Node20 -->
<g id="node20" class="node"><title>Node20</title>
<g id="a_node20"><a xlink:href="class_ctct_1_1_components_1_1_email_marketing_1_1_schedule.html" target="_top" xlink:title="Ctct\\Components\\EmailMarketing\l\\Schedule">
<polygon fill="white" stroke="black" points="184.527,-408 184.527,-440 349.473,-440 349.473,-408 184.527,-408"/>
<text text-anchor="start" x="192.527" y="-426" font-family="Helvetica,sans-Serif" font-size="10.00">Ctct\Components\EmailMarketing</text>
<text text-anchor="middle" x="267" y="-414" font-family="Helvetica,sans-Serif" font-size="10.00">\Schedule</text>
</a>
</g>
</g>
<!-- Node1&#45;&gt;Node20 -->
<g id="edge19" class="edge"><title>Node1&#45;&gt;Node20</title>
<path fill="none" stroke="midnightblue" d="M83.9339,-579.876C99.6848,-548.213 135.385,-484.937 184,-450 189.336,-446.165 195.26,-442.881 201.413,-440.07"/>
<polygon fill="midnightblue" stroke="midnightblue" points="80.7389,-578.443 79.5299,-588.969 87.0389,-581.494 80.7389,-578.443"/>
</g>
<!-- Node21 -->
<g id="node21" class="node"><title>Node21</title>
<g id="a_node21"><a xlink:href="class_ctct_1_1_components_1_1_email_marketing_1_1_test_send.html" target="_top" xlink:title="Ctct\\Components\\EmailMarketing\l\\TestSend">
<polygon fill="white" stroke="black" points="184.527,-357 184.527,-389 349.473,-389 349.473,-357 184.527,-357"/>
<text text-anchor="start" x="192.527" y="-375" font-family="Helvetica,sans-Serif" font-size="10.00">Ctct\Components\EmailMarketing</text>
<text text-anchor="middle" x="267" y="-363" font-family="Helvetica,sans-Serif" font-size="10.00">\TestSend</text>
</a>
</g>
</g>
<!-- Node1&#45;&gt;Node21 -->
<g id="edge20" class="edge"><title>Node1&#45;&gt;Node21</title>
<path fill="none" stroke="midnightblue" d="M80.2955,-579.332C92.0636,-539.372 124.187,-448.308 184,-399 188.609,-395.2 193.78,-391.953 199.225,-389.178"/>
<polygon fill="midnightblue" stroke="midnightblue" points="76.9254,-578.388 77.5663,-588.963 83.6602,-580.296 76.9254,-578.388"/>
</g>
<!-- Node22 -->
<g id="node22" class="node"><title>Node22</title>
<g id="a_node22"><a xlink:href="class_ctct_1_1_components_1_1_tracking_1_1_bounce_activity.html" target="_top" xlink:title="Ctct\\Components\\Tracking\l\\BounceActivity">
<polygon fill="white" stroke="black" points="199.994,-306 199.994,-338 334.006,-338 334.006,-306 199.994,-306"/>
<text text-anchor="start" x="207.994" y="-324" font-family="Helvetica,sans-Serif" font-size="10.00">Ctct\Components\Tracking</text>
<text text-anchor="middle" x="267" y="-312" font-family="Helvetica,sans-Serif" font-size="10.00">\BounceActivity</text>
</a>
</g>
</g>
<!-- Node1&#45;&gt;Node22 -->
<g id="edge21" class="edge"><title>Node1&#45;&gt;Node22</title>
<path fill="none" stroke="midnightblue" d="M77.9591,-578.987C86.0012,-531.733 112.65,-412.378 184,-348 188.657,-343.798 193.993,-340.275 199.66,-337.321"/>
<polygon fill="midnightblue" stroke="midnightblue" points="74.4976,-578.469 76.3702,-588.897 81.4093,-579.577 74.4976,-578.469"/>
</g>
<!-- Node23 -->
<g id="node23" class="node"><title>Node23</title>
<g id="a_node23"><a xlink:href="class_ctct_1_1_components_1_1_tracking_1_1_click_activity.html" target="_top" xlink:title="Ctct\\Components\\Tracking\l\\ClickActivity">
<polygon fill="white" stroke="black" points="199.994,-255 199.994,-287 334.006,-287 334.006,-255 199.994,-255"/>
<text text-anchor="start" x="207.994" y="-273" font-family="Helvetica,sans-Serif" font-size="10.00">Ctct\Components\Tracking</text>
<text text-anchor="middle" x="267" y="-261" font-family="Helvetica,sans-Serif" font-size="10.00">\ClickActivity</text>
</a>
</g>
</g>
<!-- Node1&#45;&gt;Node23 -->
<g id="edge22" class="edge"><title>Node1&#45;&gt;Node23</title>
<path fill="none" stroke="midnightblue" d="M76.3211,-578.695C80.9258,-524.816 100.893,-376.901 184,-297 188.629,-292.549 194.017,-288.86 199.778,-285.802"/>
<polygon fill="midnightblue" stroke="midnightblue" points="72.808,-578.735 75.5368,-588.972 79.7877,-579.268 72.808,-578.735"/>
</g>
<!-- Node24 -->
<g id="node24" class="node"><title>Node24</title>
<g id="a_node24"><a xlink:href="class_ctct_1_1_components_1_1_tracking_1_1_forward_activity.html" target="_top" xlink:title="Ctct\\Components\\Tracking\l\\ForwardActivity">
<polygon fill="white" stroke="black" points="199.994,-204 199.994,-236 334.006,-236 334.006,-204 199.994,-204"/>
<text text-anchor="start" x="207.994" y="-222" font-family="Helvetica,sans-Serif" font-size="10.00">Ctct\Components\Tracking</text>
<text text-anchor="middle" x="267" y="-210" font-family="Helvetica,sans-Serif" font-size="10.00">\ForwardActivity</text>
</a>
</g>
</g>
<!-- Node1&#45;&gt;Node24 -->
<g id="edge23" class="edge"><title>Node1&#45;&gt;Node24</title>
<path fill="none" stroke="midnightblue" d="M75.0931,-578.566C76.4984,-518.682 88.9057,-341.815 184,-246 188.629,-241.336 194.089,-237.507 199.958,-234.364"/>
<polygon fill="midnightblue" stroke="midnightblue" points="71.5882,-578.872 74.9375,-588.924 78.5874,-578.977 71.5882,-578.872"/>
</g>
<!-- Node25 -->
<g id="node25" class="node"><title>Node25</title>
<g id="a_node25"><a xlink:href="class_ctct_1_1_components_1_1_tracking_1_1_open_activity.html" target="_top" xlink:title="Ctct\\Components\\Tracking\l\\OpenActivity">
<polygon fill="white" stroke="black" points="199.994,-153 199.994,-185 334.006,-185 334.006,-153 199.994,-153"/>
<text text-anchor="start" x="207.994" y="-171" font-family="Helvetica,sans-Serif" font-size="10.00">Ctct\Components\Tracking</text>
<text text-anchor="middle" x="267" y="-159" font-family="Helvetica,sans-Serif" font-size="10.00">\OpenActivity</text>
</a>
</g>
</g>
<!-- Node1&#45;&gt;Node25 -->
<g id="edge24" class="edge"><title>Node1&#45;&gt;Node25</title>
<path fill="none" stroke="midnightblue" d="M77.8953,-578.562C88.758,-504.587 129.278,-252.157 184,-195 188.544,-190.253 193.949,-186.37 199.784,-183.194"/>
<polygon fill="midnightblue" stroke="midnightblue" points="74.3756,-578.447 76.4089,-588.845 81.3036,-579.448 74.3756,-578.447"/>
</g>
<!-- Node26 -->
<g id="node26" class="node"><title>Node26</title>
<g id="a_node26"><a xlink:href="class_ctct_1_1_components_1_1_tracking_1_1_send_activity.html" target="_top" xlink:title="Ctct\\Components\\Tracking\l\\SendActivity">
<polygon fill="white" stroke="black" points="199.994,-102 199.994,-134 334.006,-134 334.006,-102 199.994,-102"/>
<text text-anchor="start" x="207.994" y="-120" font-family="Helvetica,sans-Serif" font-size="10.00">Ctct\Components\Tracking</text>
<text text-anchor="middle" x="267" y="-108" font-family="Helvetica,sans-Serif" font-size="10.00">\SendActivity</text>
</a>
</g>
</g>
<!-- Node1&#45;&gt;Node26 -->
<g id="edge25" class="edge"><title>Node1&#45;&gt;Node26</title>
<path fill="none" stroke="midnightblue" d="M77.2279,-578.605C86.3241,-498.878 123.084,-209.462 184,-144 188.477,-139.189 193.837,-135.264 199.644,-132.063"/>
<polygon fill="midnightblue" stroke="midnightblue" points="73.7215,-578.467 76.087,-588.795 80.678,-579.246 73.7215,-578.467"/>
</g>
<!-- Node27 -->
<g id="node27" class="node"><title>Node27</title>
<g id="a_node27"><a xlink:href="class_ctct_1_1_components_1_1_tracking_1_1_tracking_summary.html" target="_top" xlink:title="Ctct\\Components\\Tracking\l\\TrackingSummary">
<polygon fill="white" stroke="black" points="199.994,-51 199.994,-83 334.006,-83 334.006,-51 199.994,-51"/>
<text text-anchor="start" x="207.994" y="-69" font-family="Helvetica,sans-Serif" font-size="10.00">Ctct\Components\Tracking</text>
<text text-anchor="middle" x="267" y="-57" font-family="Helvetica,sans-Serif" font-size="10.00">\TrackingSummary</text>
</a>
</g>
</g>
<!-- Node1&#45;&gt;Node27 -->
<g id="edge26" class="edge"><title>Node1&#45;&gt;Node27</title>
<path fill="none" stroke="midnightblue" d="M76.6776,-578.825C84.1217,-493.953 116.807,-166.891 184,-93 188.521,-88.0278 193.987,-84.0003 199.925,-80.739"/>
<polygon fill="midnightblue" stroke="midnightblue" points="73.177,-578.683 75.8102,-588.945 80.1514,-579.28 73.177,-578.683"/>
</g>
<!-- Node28 -->
<g id="node28" class="node"><title>Node28</title>
<g id="a_node28"><a xlink:href="class_ctct_1_1_components_1_1_tracking_1_1_unsubscribe_activity.html" target="_top" xlink:title="Ctct\\Components\\Tracking\l\\UnsubscribeActivity">
<polygon fill="white" stroke="black" points="199.994,-0 199.994,-32 334.006,-32 334.006,-0 199.994,-0"/>
<text text-anchor="start" x="207.994" y="-18" font-family="Helvetica,sans-Serif" font-size="10.00">Ctct\Components\Tracking</text>
<text text-anchor="middle" x="267" y="-6" font-family="Helvetica,sans-Serif" font-size="10.00">\UnsubscribeActivity</text>
</a>
</g>
</g>
<!-- Node1&#45;&gt;Node28 -->
<g id="edge27" class="edge"><title>Node1&#45;&gt;Node28</title>
<path fill="none" stroke="midnightblue" d="M76.2457,-578.833C82.1984,-488.789 110.553,-124.319 184,-42 188.474,-36.9853 193.909,-32.9302 199.829,-29.6523"/>
<polygon fill="midnightblue" stroke="midnightblue" points="72.7514,-578.634 75.6031,-588.838 79.737,-579.083 72.7514,-578.634"/>
</g>
<!-- Node10 -->
<g id="node10" class="node"><title>Node10</title>
<g id="a_node10"><a xlink:href="class_k_w_s_contact.html" target="_top" xlink:title="KWSContact">
<polygon fill="white" stroke="black" points="394.379,-810 394.379,-830 467.621,-830 467.621,-810 394.379,-810"/>
<text text-anchor="middle" x="431" y="-816" font-family="Helvetica,sans-Serif" font-size="10.00">KWSContact</text>
</a>
</g>
</g>
<!-- Node9&#45;&gt;Node10 -->
<g id="edge9" class="edge"><title>Node9&#45;&gt;Node10</title>
<path fill="none" stroke="midnightblue" d="M344.941,-820C362.208,-820 379.722,-820 394.333,-820"/>
<polygon fill="midnightblue" stroke="midnightblue" points="344.827,-816.5 334.827,-820 344.827,-823.5 344.827,-816.5"/>
</g>
<!-- Node12 -->
<g id="node12" class="node"><title>Node12</title>
<g id="a_node12"><a xlink:href="class_k_w_s_contact_list.html" target="_top" xlink:title="KWSContactList">
<polygon fill="white" stroke="black" points="386.599,-759 386.599,-779 475.401,-779 475.401,-759 386.599,-759"/>
<text text-anchor="middle" x="431" y="-765" font-family="Helvetica,sans-Serif" font-size="10.00">KWSContactList</text>
</a>
</g>
</g>
<!-- Node11&#45;&gt;Node12 -->
<g id="edge11" class="edge"><title>Node11&#45;&gt;Node12</title>
<path fill="none" stroke="midnightblue" d="M345.119,-769C359.327,-769 373.694,-769 386.467,-769"/>
<polygon fill="midnightblue" stroke="midnightblue" points="344.827,-765.5 334.827,-769 344.827,-772.5 344.827,-765.5"/>
</g>
<!-- Node17 -->
<g id="node17" class="node"><title>Node17</title>
<g id="a_node17"><a xlink:href="class_k_w_s_campaign.html" target="_top" xlink:title="KWSCampaign">
<polygon fill="white" stroke="black" points="388.82,-567 388.82,-587 473.18,-587 473.18,-567 388.82,-567"/>
<text text-anchor="middle" x="431" y="-573" font-family="Helvetica,sans-Serif" font-size="10.00">KWSCampaign</text>
</a>
</g>
</g>
<!-- Node16&#45;&gt;Node17 -->
<g id="edge16" class="edge"><title>Node16&#45;&gt;Node17</title>
<path fill="none" stroke="midnightblue" d="M359.612,-577C369.698,-577 379.561,-577 388.56,-577"/>
<polygon fill="midnightblue" stroke="midnightblue" points="359.475,-573.5 349.475,-577 359.475,-580.5 359.475,-573.5"/>
</g>
</g>
</svg>
