<?xml version="1.0" encoding="UTF-8" standalone="no"?>
<!DOCTYPE svg PUBLIC "-//W3C//DTD SVG 1.1//EN"
 "http://www.w3.org/Graphics/SVG/1.1/DTD/svg11.dtd">
<!-- Generated by graphviz version 2.30.1 (20130221.2233)
 -->
<!-- Title: Graphical Class Hierarchy Pages: 1 -->
<svg width="242pt" height="130pt"
 viewBox="0.00 0.00 242.00 130.00" xmlns="http://www.w3.org/2000/svg" xmlns:xlink="http://www.w3.org/1999/xlink">
<g id="graph0" class="graph" transform="scale(1 1) rotate(0) translate(4 126)">
<title>Graphical Class Hierarchy</title>
<polygon fill="white" stroke="white" points="-4,5 -4,-126 239,-126 239,5 -4,5"/>
<!-- Node1 -->
<g id="node1" class="node"><title>Node1</title>
<polygon fill="white" stroke="#bfbfbf" points="0.603516,-45 0.603516,-65 69.3965,-65 69.3965,-45 0.603516,-45"/>
<text text-anchor="middle" x="35" y="-51" font-family="Helvetica,sans-Serif" font-size="10.00">WP_Widget</text>
</g>
<!-- Node2 -->
<g id="node2" class="node"><title>Node2</title>
<g id="a_node2"><a xlink:href="classconstant__contact__events__widget.html" target="_top" xlink:title="constant_contact_events\l_widget">
<polygon fill="white" stroke="black" points="106.685,-90 106.685,-122 233.315,-122 233.315,-90 106.685,-90"/>
<text text-anchor="start" x="114.685" y="-108" font-family="Helvetica,sans-Serif" font-size="10.00">constant_contact_events</text>
<text text-anchor="middle" x="170" y="-96" font-family="Helvetica,sans-Serif" font-size="10.00">_widget</text>
</a>
</g>
</g>
<!-- Node1&#45;&gt;Node2 -->
<g id="edge1" class="edge"><title>Node1&#45;&gt;Node2</title>
<path fill="none" stroke="midnightblue" d="M71.8572,-68.7497C88.8809,-75.2776 109.334,-83.1204 127.072,-89.9223"/>
<polygon fill="midnightblue" stroke="midnightblue" points="72.8668,-65.3884 62.2765,-65.076 70.3604,-71.9244 72.8668,-65.3884"/>
</g>
<!-- Node3 -->
<g id="node3" class="node"><title>Node3</title>
<g id="a_node3"><a xlink:href="classconstant__contact__form__widget.html" target="_top" xlink:title="constant_contact_form\l_widget">
<polygon fill="white" stroke="black" points="111.417,-39 111.417,-71 228.583,-71 228.583,-39 111.417,-39"/>
<text text-anchor="start" x="119.417" y="-57" font-family="Helvetica,sans-Serif" font-size="10.00">constant_contact_form</text>
<text text-anchor="middle" x="170" y="-45" font-family="Helvetica,sans-Serif" font-size="10.00">_widget</text>
</a>
</g>
</g>
<!-- Node1&#45;&gt;Node3 -->
<g id="edge2" class="edge"><title>Node1&#45;&gt;Node3</title>
<path fill="none" stroke="midnightblue" d="M79.7632,-55C89.8741,-55 100.782,-55 111.383,-55"/>
<polygon fill="midnightblue" stroke="midnightblue" points="79.5616,-51.5001 69.5615,-55 79.5615,-58.5001 79.5616,-51.5001"/>
</g>
<!-- Node4 -->
<g id="node4" class="node"><title>Node4</title>
<g id="a_node4"><a xlink:href="class_c_t_c_t___widget___simple.html" target="_top" xlink:title="CTCT_Widget_Simple">
<polygon fill="white" stroke="black" points="112.264,-0 112.264,-20 227.736,-20 227.736,-0 112.264,-0"/>
<text text-anchor="middle" x="170" y="-6" font-family="Helvetica,sans-Serif" font-size="10.00">CTCT_Widget_Simple</text>
</a>
</g>
</g>
<!-- Node1&#45;&gt;Node4 -->
<g id="edge3" class="edge"><title>Node1&#45;&gt;Node4</title>
<path fill="none" stroke="midnightblue" d="M72.9524,-41.5252C83.5926,-37.7207 95.2335,-33.6303 106,-30 115.895,-26.6635 126.716,-23.1719 136.554,-20.057"/>
<polygon fill="midnightblue" stroke="midnightblue" points="71.7422,-38.2409 63.5158,-44.9175 74.1103,-44.8282 71.7422,-38.2409"/>
</g>
</g>
</svg>
