<?xml version="1.0" encoding="UTF-8" standalone="no"?>
<!DOCTYPE svg PUBLIC "-//W3C//DTD SVG 1.1//EN"
 "http://www.w3.org/Graphics/SVG/1.1/DTD/svg11.dtd">
<!-- Generated by graphviz version 2.30.1 (20130221.2233)
 -->
<!-- Title: Ctct\Util\RestClientInterface Pages: 1 -->
<svg width="209pt" height="88pt"
 viewBox="0.00 0.00 209.00 88.00" xmlns="http://www.w3.org/2000/svg" xmlns:xlink="http://www.w3.org/1999/xlink">
<g id="graph0" class="graph" transform="scale(1 1) rotate(0) translate(4 84)">
<title>Ctct\Util\RestClientInterface</title>
<polygon fill="white" stroke="white" points="-4,5 -4,-84 206,-84 206,5 -4,5"/>
<!-- Node1 -->
<g id="node1" class="node"><title>Node1</title>
<polygon fill="#bfbfbf" stroke="black" points="34.5913,-59 34.5913,-79 173.409,-79 173.409,-59 34.5913,-59"/>
<text text-anchor="middle" x="104" y="-65" font-family="Helvetica,sans-Serif" font-size="10.00">Ctct\Util\RestClientInterface</text>
</g>
<!-- Node2 -->
<g id="node2" class="node"><title>Node2</title>
<g id="a_node2"><a xlink:href="class_ctct_1_1_util_1_1_rest_client.html" target="_top" xlink:title="Ctct\\Util\\RestClient">
<polygon fill="white" stroke="black" points="-0.953125,-1 -0.953125,-21 98.9531,-21 98.9531,-1 -0.953125,-1"/>
<text text-anchor="middle" x="49" y="-7" font-family="Helvetica,sans-Serif" font-size="10.00">Ctct\Util\RestClient</text>
</a>
</g>
</g>
<!-- Node1&#45;&gt;Node2 -->
<g id="edge1" class="edge"><title>Node1&#45;&gt;Node2</title>
<path fill="none" stroke="midnightblue" d="M87.7062,-51.4099C77.9594,-41.486 65.947,-29.2551 57.9131,-21.0752"/>
<polygon fill="midnightblue" stroke="midnightblue" points="85.4137,-54.0707 94.9179,-58.7527 90.4078,-49.1657 85.4137,-54.0707"/>
</g>
<!-- Node3 -->
<g id="node3" class="node"><title>Node3</title>
<g id="a_node3"><a xlink:href="class_k_w_s_rest_client.html" target="_top" xlink:title="KWSRestClient">
<polygon fill="white" stroke="black" points="116.547,-1 116.547,-21 201.453,-21 201.453,-1 116.547,-1"/>
<text text-anchor="middle" x="159" y="-7" font-family="Helvetica,sans-Serif" font-size="10.00">KWSRestClient</text>
</a>
</g>
</g>
<!-- Node1&#45;&gt;Node3 -->
<g id="edge2" class="edge"><title>Node1&#45;&gt;Node3</title>
<path fill="none" stroke="midnightblue" d="M120.294,-51.4099C130.041,-41.486 142.053,-29.2551 150.087,-21.0752"/>
<polygon fill="midnightblue" stroke="midnightblue" points="117.592,-49.1657 113.082,-58.7527 122.586,-54.0707 117.592,-49.1657"/>
</g>
</g>
</svg>
